<svg xmlns="http://www.w3.org/2000/svg" xmlns:xlink="http://www.w3.org/1999/xlink" version="1.1" x="0" y="0" height="230" width="800" viewBox="0 0 800 230" preserveAspectRatio="none"  >
<g label="Query sequence" class="clusterblast-cluster"  >
<text x="5" y="20" class="clusterblast-acc"  >
Query sequence</text>
<line x1="10" y1="35" x2="778.0" y2="35" style="stroke-width:1; stroke:grey; "  />
<polygon points="170,40 171,40 176,35 171,30 170,30 170,40 " style="fill:#d81515; stroke-width:1; stroke:black; " description="&lt;b&gt;cds18113_18665&lt;/b&gt;&lt;br&gt;hypothetical protein&lt;br&gt;Location: 18113 - 18665" locus_tag="cds18113_18665" class="clusterblast-orf" id="dummy-1_q0_0_all"  />
<polygon points="176,40 181,40 186,35 181,30 176,30 176,40 " style="fill:#5cd815; stroke-width:1; stroke:black; " description="&lt;b&gt;cds18714_19635&lt;/b&gt;&lt;br&gt;hypothetical protein&lt;br&gt;Location: 18714 - 19635" locus_tag="cds18714_19635" class="clusterblast-orf" id="dummy-1_q1_0_all"  />
<polygon points="187,35 192,30 202,30 202,40 192,40 187,35 " style="fill:white; stroke-width:1; stroke:black; " description="&lt;b&gt;cds19700_21182&lt;/b&gt;&lt;br&gt;Spore coat protein A&lt;br&gt;Location: 19700 - 21182" locus_tag="cds19700_21182" class="clusterblast-orf" id="dummy-1_q2_0_all"  />
<polygon points="204,40 208,40 213,35 208,30 204,30 204,40 " style="fill:white; stroke-width:1; stroke:black; " description="&lt;b&gt;cds21412_22282&lt;/b&gt;&lt;br&gt;27-O-demethylrifamycin SV methyltransferase&lt;br&gt;Location: 21412 - 22282" locus_tag="cds21412_22282" class="clusterblast-orf" id="dummy-1_q3_0_all"  />
<polygon points="214,40 221,40 226,35 221,30 214,30 214,40 " style="fill:white; stroke-width:1; stroke:black; " description="&lt;b&gt;cds22348_23494&lt;/b&gt;&lt;br&gt;hypothetical protein&lt;br&gt;Location: 22348 - 23494" locus_tag="cds22348_23494" class="clusterblast-orf" id="dummy-1_q4_0_all"  />
<polygon points="227,35 232,30 241,30 241,40 232,40 227,35 " style="fill:white; stroke-width:1; stroke:black; " description="&lt;b&gt;cds23567_24962&lt;/b&gt;&lt;br&gt;Mitomycin radical oxidase&lt;br&gt;Location: 23567 - 24962" locus_tag="cds23567_24962" class="clusterblast-orf" id="dummy-1_q5_0_all"  />
<polygon points="241,35 246,30 257,30 257,40 246,40 241,35 " style="fill:#15a3d8; stroke-width:1; stroke:black; " description="&lt;b&gt;cds24958_26524&lt;/b&gt;&lt;br&gt;2-methoxy-6-polyprenyl-1,4-benzoquinol methylase, mitochondrial&lt;br&gt;Location: 24958 - 26524" locus_tag="cds24958_26524" class="clusterblast-orf" id="dummy-1_q6_0_all"  />
<polygon points="260,35 263,30 263,40 260,35 " style="fill:white; stroke-width:1; stroke:black; " description="&lt;b&gt;cds26746_27082&lt;/b&gt;&lt;br&gt;hypothetical protein&lt;br&gt;Location: 26746 - 27082" locus_tag="cds26746_27082" class="clusterblast-orf" id="dummy-1_q7_0_all"  />
<polygon points="264,35 269,30 288,30 288,40 269,40 264,35 " style="fill:white; stroke-width:1; stroke:black; " description="&lt;b&gt;cds27150_29475&lt;/b&gt;&lt;br&gt;Periplasmic nitrate reductase&lt;br&gt;Location: 27150 - 29475" locus_tag="cds27150_29475" class="clusterblast-orf" id="dummy-1_q8_0_all"  />
<polygon points="289,40 293,40 298,35 293,30 289,30 289,40 " style="fill:white; stroke-width:1; stroke:black; " description="&lt;b&gt;cds29596_30424&lt;/b&gt;&lt;br&gt;Levodione reductase&lt;br&gt;Location: 29596 - 30424" locus_tag="cds29596_30424" class="clusterblast-orf" id="dummy-1_q9_0_all"  />
<polygon points="298,40 302,40 307,35 302,30 298,30 298,40 " style="fill:white; stroke-width:1; stroke:black; " description="&lt;b&gt;cds30472_31354&lt;/b&gt;&lt;br&gt;F420-dependent glucose-6-phosphate dehydrogenase&lt;br&gt;Location: 30472 - 31354" locus_tag="cds30472_31354" class="clusterblast-orf" id="dummy-1_q10_0_all"  />
<polygon points="309,35 314,30 325,30 325,40 314,40 309,35 " style="fill:#9115d8; stroke-width:1; stroke:black; " description="&lt;b&gt;cds31534_33049&lt;/b&gt;&lt;br&gt;Aclacinomycin-N/aclacinomycin-A oxidase&lt;br&gt;Location: 31534 - 33049" locus_tag="cds31534_33049" class="clusterblast-orf" id="dummy-1_q11_0_all"  />
<polygon points="327,35 332,30 342,30 342,40 332,40 327,35 " style="fill:#d84a15; stroke-width:1; stroke:black; " description="&lt;b&gt;cds33232_34657&lt;/b&gt;&lt;br&gt;sn-glycerol-3-phosphate-binding periplasmic protein UgpB&lt;br&gt;Location: 33232 - 34657" locus_tag="cds33232_34657" class="clusterblast-orf" id="dummy-1_q12_0_all"  />
<polygon points="344,40 352,40 357,35 352,30 344,30 344,40 " style="fill:#27d815; stroke-width:1; stroke:black; " description="&lt;b&gt;cds34927_36169&lt;/b&gt;&lt;br&gt;Flavin-dependent monooxygenase, oxygenase subunit HsaA&lt;br&gt;Location: 34927 - 36169" locus_tag="cds34927_36169" class="clusterblast-orf" id="dummy-1_q13_0_all"  />
<polygon points="358,40 368,40 373,35 368,30 358,30 358,40 " style="fill:#156ed8; stroke-width:1; stroke:black; " description="&lt;b&gt;cds36277_37717&lt;/b&gt;&lt;br&gt;hypothetical protein&lt;br&gt;Location: 36277 - 37717" locus_tag="cds36277_37717" class="clusterblast-orf" id="dummy-1_q14_0_all"  />
<polygon points="374,40 398,40 403,35 398,30 374,30 374,40 " style="fill:white; stroke-width:1; stroke:black; " description="&lt;b&gt;cds37748_40562&lt;/b&gt;&lt;br&gt;Dimodular nonribosomal peptide synthase&lt;br&gt;Location: 37748 - 40562" locus_tag="cds37748_40562" class="clusterblast-orf" id="dummy-1_q15_0_all"  />
<polygon points="404,40 415,40 420,35 415,30 404,30 404,40 " style="fill:#c715d8; stroke-width:1; stroke:black; " description="&lt;b&gt;cds40635_42261&lt;/b&gt;&lt;br&gt;MIO-dependent tyrosine 2,3-aminomutase&lt;br&gt;Location: 40635 - 42261" locus_tag="cds40635_42261" class="clusterblast-orf" id="dummy-1_q16_0_all"  />
<polygon points="422,40 430,40 435,35 430,30 422,30 422,40 " style="fill:#d88015; stroke-width:1; stroke:black; " description="&lt;b&gt;cds42368_43712&lt;/b&gt;&lt;br&gt;Linear gramicidin synthase subunit B&lt;br&gt;Location: 42368 - 43712" locus_tag="cds42368_43712" class="clusterblast-orf" id="dummy-1_q17_0_all"  />
<polygon points="436,35 441,30 452,30 452,40 441,40 436,35 " style="fill:#15d839; stroke-width:1; stroke:black; " description="&lt;b&gt;cds43769_45353&lt;/b&gt;&lt;br&gt;4-nitrophenol 2-monooxygenase, oxygenase component&lt;br&gt;Location: 43769 - 45353" locus_tag="cds43769_45353" class="clusterblast-orf" id="dummy-1_q18_0_all"  />
<polygon points="455,40 462,40 467,35 462,30 455,30 455,40 " style="fill:#1539d8; stroke-width:1; stroke:black; " description="&lt;b&gt;cds45596_46781&lt;/b&gt;&lt;br&gt;Flavin-dependent monooxygenase, oxygenase subunit HsaA&lt;br&gt;Location: 45596 - 46781" locus_tag="cds45596_46781" class="clusterblast-orf" id="dummy-1_q19_0_all"  />
<polygon points="468,40 472,35 468,30 468,40 " style="fill:#d815b5; stroke-width:1; stroke:black; " description="&lt;b&gt;cds46844_47279&lt;/b&gt;&lt;br&gt;hypothetical protein&lt;br&gt;Location: 46844 - 47279" locus_tag="cds46844_47279" class="clusterblast-orf" id="dummy-1_q20_0_all"  />
<polygon points="473,35 478,30 486,30 486,40 478,40 473,35 " style="fill:#d8b515; stroke-width:1; stroke:black; " description="&lt;b&gt;cds47364_48612&lt;/b&gt;&lt;br&gt;2-hydroxy-5-methyl-1-naphthoate 7-hydroxylase&lt;br&gt;Location: 47364 - 48612" locus_tag="cds47364_48612" class="clusterblast-orf" id="dummy-1_q21_0_all"  />
<polygon points="487,35 492,30 496,30 496,40 492,40 487,35 " style="fill:white; stroke-width:1; stroke:black; " description="&lt;b&gt;cds48705_49569&lt;/b&gt;&lt;br&gt;hypothetical protein&lt;br&gt;Location: 48705 - 49569" locus_tag="cds48705_49569" class="clusterblast-orf" id="dummy-1_q22_0_all"  />
<polygon points="497,35 500,30 500,40 497,35 " style="fill:#15d86e; stroke-width:1; stroke:black; " description="&lt;b&gt;cds49631_49904&lt;/b&gt;&lt;br&gt;hypothetical protein&lt;br&gt;Location: 49631 - 49904" locus_tag="cds49631_49904" class="clusterblast-orf" id="dummy-1_q23_0_all"  />
<polygon points="501,35 506,30 510,30 510,40 506,40 501,35 " style="fill:#2715d8; stroke-width:1; stroke:black; " description="&lt;b&gt;cds50037_50910&lt;/b&gt;&lt;br&gt;Glucose-1-phosphate thymidylyltransferase 1&lt;br&gt;Location: 50037 - 50910" locus_tag="cds50037_50910" class="clusterblast-orf" id="dummy-1_q24_0_all"  />
<polygon points="511,35 516,30 523,30 523,40 516,40 511,35 " style="fill:#d81580; stroke-width:1; stroke:black; " description="&lt;b&gt;cds50964_52185&lt;/b&gt;&lt;br&gt;hypothetical protein&lt;br&gt;Location: 50964 - 52185" locus_tag="cds50964_52185" class="clusterblast-orf" id="dummy-1_q25_0_all"  />
<polygon points="525,35 530,30 538,30 538,40 530,40 525,35 " style="fill:#c7d815; stroke-width:1; stroke:black; " description="&lt;b&gt;cds52342_53581&lt;/b&gt;&lt;br&gt;hypothetical protein&lt;br&gt;Location: 52342 - 53581" locus_tag="cds52342_53581" class="clusterblast-orf" id="dummy-1_q26_0_all"  />
<polygon points="538,35 543,30 551,30 551,40 543,40 538,35 " style="fill:#15d8a3; stroke-width:1; stroke:black; " description="&lt;b&gt;cds53600_54893&lt;/b&gt;&lt;br&gt;Aclacinomycin-T 2-deoxy-L-fucose transferase&lt;br&gt;Location: 53600 - 54893" locus_tag="cds53600_54893" class="clusterblast-orf" id="dummy-1_q27_0_all"  />
<polygon points="552,35 557,30 564,30 564,40 557,40 552,35 " style="fill:#5c15d8; stroke-width:1; stroke:black; " description="&lt;b&gt;cds54963_56073&lt;/b&gt;&lt;br&gt;dTDP-3-amino-3,4,6-trideoxy-alpha-D-glucose transaminase&lt;br&gt;Location: 54963 - 56073" locus_tag="cds54963_56073" class="clusterblast-orf" id="dummy-1_q28_0_all"  />
<polygon points="566,35 571,30 580,30 580,40 571,40 566,35 " style="fill:#d8154a; stroke-width:1; stroke:black; " description="&lt;b&gt;cds56275_57670&lt;/b&gt;&lt;br&gt;dTDP-4-dehydro-6-deoxy-alpha-D-glucopyranose 2,3-dehydratase&lt;br&gt;Location: 56275 - 57670" locus_tag="cds56275_57670" class="clusterblast-orf" id="dummy-1_q29_0_all"  />
<polygon points="583,40 589,40 594,35 589,30 583,30 583,40 " style="fill:#91d815; stroke-width:1; stroke:black; " description="&lt;b&gt;cds57984_58992&lt;/b&gt;&lt;br&gt;dTDP-glucose 4,6-dehydratase&lt;br&gt;Location: 57984 - 58992" locus_tag="cds57984_58992" class="clusterblast-orf" id="dummy-1_q30_0_all"  />
<polygon points="594,35 599,30 609,30 609,40 599,40 594,35 " style="fill:#15d8d8; stroke-width:1; stroke:black; " description="&lt;b&gt;cds59038_60466&lt;/b&gt;&lt;br&gt;UDP-N-acetyl-D-glucosamine 6-dehydrogenase&lt;br&gt;Location: 59038 - 60466" locus_tag="cds59038_60466" class="clusterblast-orf" id="dummy-1_q31_0_all"  />
</g>
<g label="BGC0001008" description="BGC0001008_c1: maduropeptin (20% of genes show similarity), Polyketide:Iterative type I + Polyketide:Enediyne type I" class="clusterblast-cluster"  >
<text x="5" y="70" class="clusterblast-acc"  >
<a xlink:href="https://mibig.secondarymetabolites.org/go/BGC0001008/1" target="_blank">BGC0001008</a>:                                                                     maduropeptin (20% of genes show similarity), Polyketide:Iterative type I + Polyketide:Enediyne type I</text>
<line x1="10" y1="85" x2="778.0" y2="85" style="stroke-width:1; stroke:grey; "  />
</g>
<g id="a1_000"  >
<polygon points="0,90 11,90 16,85 11,80 0,80 0,90 " style="fill:white; stroke-width:1; stroke:black; " description="&lt;b&gt;ABY65990.1&lt;/b&gt;&lt;br&gt;predicted peptidase&lt;br&gt;Location: 81719 - 80148" locus_tag="ABY65990.1" class="clusterblast-orf" id="dummy-1_h1_1_0"  />
</g>
<g id="a1_001"  >
<polygon points="16,85 21,80 23,80 23,90 21,90 16,85 " style="fill:white; stroke-width:1; stroke:black; " description="&lt;b&gt;ABY65991.1&lt;/b&gt;&lt;br&gt;unknown&lt;br&gt;Location: 80091 - 79465" locus_tag="ABY65991.1" class="clusterblast-orf" id="dummy-1_h1_1_1"  />
</g>
<g id="a1_002"  >
<polygon points="24,90 35,90 40,85 35,80 24,80 24,90 " style="fill:white; stroke-width:1; stroke:black; " description="&lt;b&gt;ABY65992.1&lt;/b&gt;&lt;br&gt;alcohol dehydrogenase&lt;br&gt;Location: 79386 - 77809" locus_tag="ABY65992.1" class="clusterblast-orf" id="dummy-1_h1_1_2"  />
</g>
<g id="a1_003"  >
<polygon points="44,85 49,80 49,80 49,90 49,90 44,85 " style="fill:white; stroke-width:1; stroke:black; " description="&lt;b&gt;ABY65993.1&lt;/b&gt;&lt;br&gt;acetyltransferase&lt;br&gt;Location: 77456 - 76968" locus_tag="ABY65993.1" class="clusterblast-orf" id="dummy-1_h1_1_3"  />
</g>
<g id="a1_004"  >
<polygon points="49,85 54,80 64,80 64,90 54,90 49,85 " style="fill:white; stroke-width:1; stroke:black; " description="&lt;b&gt;ABY65994.1&lt;/b&gt;&lt;br&gt;aldehyde dehydrogenase&lt;br&gt;Location: 76965 - 75463" locus_tag="ABY65994.1" class="clusterblast-orf" id="dummy-1_h1_1_4"  />
</g>
<g id="a1_005"  >
<polygon points="67,90 73,90 78,85 73,80 67,80 67,90 " style="fill:white; stroke-width:1; stroke:black; " description="&lt;b&gt;ABY65995.1&lt;/b&gt;&lt;br&gt;unknown&lt;br&gt;Location: 75173 - 74178" locus_tag="ABY65995.1" class="clusterblast-orf" id="dummy-1_h1_1_5"  />
</g>
<g id="a1_006"  >
<polygon points="81,90 85,90 90,85 85,80 81,80 81,90 " style="fill:white; stroke-width:1; stroke:black; " description="&lt;b&gt;AAQ17107.2&lt;/b&gt;&lt;br&gt;hypothetical protein&lt;br&gt;Location: 73849 - 72947" locus_tag="AAQ17107.2" class="clusterblast-orf" id="dummy-1_h1_1_6"  />
</g>
<g id="a1_007"  >
<polygon points="90,90 107,90 112,85 107,80 90,80 90,90 " style="fill:white; stroke-width:1; stroke:black; " description="&lt;b&gt;AAQ17108.2&lt;/b&gt;&lt;br&gt;unknown&lt;br&gt;Location: 72943 - 70907" locus_tag="AAQ17108.2" class="clusterblast-orf" id="dummy-1_h1_1_7"  />
</g>
<g id="a1_008"  >
<polygon points="112,90 117,90 122,85 117,80 112,80 112,90 " style="fill:white; stroke-width:1; stroke:black; " description="&lt;b&gt;AAQ17109.1&lt;/b&gt;&lt;br&gt;unknown&lt;br&gt;Location: 70900 - 69908" locus_tag="AAQ17109.1" class="clusterblast-orf" id="dummy-1_h1_1_8"  />
</g>
<g id="a1_009"  >
<polygon points="122,90 177,90 182,85 177,80 122,80 122,90 " style="fill:white; stroke-width:1; stroke:black; " description="&lt;b&gt;AAQ17110.2&lt;/b&gt;&lt;br&gt;enediyne polyketide synthase&lt;br&gt;Location: 69911 - 64077" locus_tag="AAQ17110.2" class="clusterblast-orf" id="dummy-1_h1_1_9"  />
</g>
<g id="a1_0010"  >
<polygon points="182,90 182,90 187,85 182,80 182,80 182,90 " style="fill:white; stroke-width:1; stroke:black; " description="&lt;b&gt;AAQ17111.1&lt;/b&gt;&lt;br&gt;type II thioesterase&lt;br&gt;Location: 64072 - 63614" locus_tag="AAQ17111.1" class="clusterblast-orf" id="dummy-1_h1_1_10"  />
</g>
<g id="a1_0011"  >
<polygon points="187,90 188,90 193,85 188,80 187,80 187,90 " style="fill:white; stroke-width:1; stroke:black; " description="&lt;b&gt;AAQ17112.1&lt;/b&gt;&lt;br&gt;flavin reductase&lt;br&gt;Location: 63617 - 63066" locus_tag="AAQ17112.1" class="clusterblast-orf" id="dummy-1_h1_1_11"  />
</g>
<g id="a1_0012"  >
<polygon points="193,90 202,90 207,85 202,80 193,80 193,90 " style="fill:white; stroke-width:1; stroke:black; " description="&lt;b&gt;AAQ17113.2&lt;/b&gt;&lt;br&gt;putative P450 hydroxylase&lt;br&gt;Location: 63069 - 61675" locus_tag="AAQ17113.2" class="clusterblast-orf" id="dummy-1_h1_1_12"  />
</g>
<g id="a1_0013"  >
<polygon points="208,85 213,80 216,80 216,90 213,90 208,85 " style="fill:white; stroke-width:1; stroke:black; " description="&lt;b&gt;ABY65996.1&lt;/b&gt;&lt;br&gt;transcription regulatory protein&lt;br&gt;Location: 61589 - 60834" locus_tag="ABY65996.1" class="clusterblast-orf" id="dummy-1_h1_1_13"  />
</g>
<g id="a1_0014"  >
<polygon points="219,85 224,80 229,80 229,90 224,90 219,85 " style="fill:white; stroke-width:1; stroke:black; " description="&lt;b&gt;ABY65997.1&lt;/b&gt;&lt;br&gt;regulatory protein&lt;br&gt;Location: 60574 - 59561" locus_tag="ABY65997.1" class="clusterblast-orf" id="dummy-1_h1_1_14"  />
</g>
<g id="a1_0015"  >
<polygon points="234,90 235,90 240,85 235,80 234,80 234,90 " style="fill:white; stroke-width:1; stroke:black; " description="&lt;b&gt;ABY65998.1&lt;/b&gt;&lt;br&gt;unknown&lt;br&gt;Location: 59077 - 58508" locus_tag="ABY65998.1" class="clusterblast-orf" id="dummy-1_h1_1_15"  />
</g>
<g id="a1_0016"  >
<polygon points="240,90 252,90 257,85 252,80 240,80 240,90 " style="fill:white; stroke-width:1; stroke:black; " description="&lt;b&gt;ABY65999.1&lt;/b&gt;&lt;br&gt;oxidoreductase&lt;br&gt;Location: 58511 - 56853" locus_tag="ABY65999.1" class="clusterblast-orf" id="dummy-1_h1_1_16"  />
</g>
<g id="a1_0017"  >
<polygon points="257,90 264,90 269,85 264,80 257,80 257,90 " style="fill:white; stroke-width:1; stroke:black; " description="&lt;b&gt;ABY66000.1&lt;/b&gt;&lt;br&gt;unknown&lt;br&gt;Location: 56839 - 55742" locus_tag="ABY66000.1" class="clusterblast-orf" id="dummy-1_h1_1_17"  />
</g>
<g id="a1_0018"  >
<polygon points="270,90 273,90 278,85 273,80 270,80 270,90 " style="fill:white; stroke-width:1; stroke:black; " description="&lt;b&gt;ABY66001.1&lt;/b&gt;&lt;br&gt;unknown&lt;br&gt;Location: 55667 - 54864" locus_tag="ABY66001.1" class="clusterblast-orf" id="dummy-1_h1_1_18"  />
</g>
<g id="a1_0019"  >
<polygon points="279,90 280,90 285,85 280,80 279,80 279,90 " style="fill:white; stroke-width:1; stroke:black; " description="&lt;b&gt;ABY66002.1&lt;/b&gt;&lt;br&gt;O-methyltransferase&lt;br&gt;Location: 54756 - 54160" locus_tag="ABY66002.1" class="clusterblast-orf" id="dummy-1_h1_1_19"  />
</g>
<g id="a1_0020"  >
<polygon points="286,85 289,80 289,90 286,85 " style="fill:#15d86e; stroke-width:1; stroke:black; " description="&lt;b&gt;ABY66003.1&lt;/b&gt;&lt;br&gt;type II PCP domain protein&lt;br&gt;Location: 54096 - 53809&lt;br&gt;&lt;br&gt;&lt;b&gt;BlastP hit with cds49631_49904&lt;/b&gt;&lt;br&gt;Percentage identity: 50&lt;br&gt;Percentage coverage: 73&lt;br&gt;BLAST bit score: 66&lt;br&gt;E-value: 2.1e-11" locus_tag="ABY66003.1" class="clusterblast-orf" id="dummy-1_h1_1_20"  />
</g>
<g id="a1_0021"  >
<polygon points="291,90 321,90 326,85 321,80 291,80 291,90 " style="fill:white; stroke-width:1; stroke:black; " description="&lt;b&gt;ABY66004.1&lt;/b&gt;&lt;br&gt;type II beta-Tyr adenylation domain protein&lt;br&gt;Location: 53595 - 50248" locus_tag="ABY66004.1" class="clusterblast-orf" id="dummy-1_h1_1_21"  />
</g>
<g id="a1_0022"  >
<polygon points="326,90 337,90 342,85 337,80 326,80 326,90 " style="fill:#c715d8; stroke-width:1; stroke:black; " description="&lt;b&gt;ABY66005.1&lt;/b&gt;&lt;br&gt;MIO-containing aminomutase&lt;br&gt;Location: 50251 - 48638&lt;br&gt;&lt;br&gt;&lt;b&gt;BlastP hit with cds40635_42261&lt;/b&gt;&lt;br&gt;Percentage identity: 73&lt;br&gt;Percentage coverage: 97&lt;br&gt;BLAST bit score: 745&lt;br&gt;E-value: 6e-215" locus_tag="ABY66005.1" class="clusterblast-orf" id="dummy-1_h1_1_22"  />
</g>
<g id="a1_0023"  >
<polygon points="344,90 355,90 360,85 355,80 344,80 344,90 " style="fill:white; stroke-width:1; stroke:black; " description="&lt;b&gt;ABY66006.1&lt;/b&gt;&lt;br&gt;halogenase&lt;br&gt;Location: 48513 - 46957" locus_tag="ABY66006.1" class="clusterblast-orf" id="dummy-1_h1_1_23"  />
</g>
<g id="a1_0024"  >
<polygon points="360,90 369,90 374,85 369,80 360,80 360,90 " style="fill:#d88015; stroke-width:1; stroke:black; " description="&lt;b&gt;ABY66007.1&lt;/b&gt;&lt;br&gt;type II condensation domain protein&lt;br&gt;Location: 46939 - 45557&lt;br&gt;&lt;br&gt;&lt;b&gt;BlastP hit with cds42368_43712&lt;/b&gt;&lt;br&gt;Percentage identity: 47&lt;br&gt;Percentage coverage: 96&lt;br&gt;BLAST bit score: 377&lt;br&gt;E-value: 3.6e-104" locus_tag="ABY66007.1" class="clusterblast-orf" id="dummy-1_h1_1_24"  />
</g>
<g id="a1_0025"  >
<polygon points="378,90 387,90 392,85 387,80 378,80 378,90 " style="fill:#156ed8; stroke-width:1; stroke:black; " description="&lt;b&gt;ABY66008.1&lt;/b&gt;&lt;br&gt;hydroxylase&lt;br&gt;Location: 45205 - 43877&lt;br&gt;&lt;br&gt;&lt;b&gt;BlastP hit with cds36277_37717&lt;/b&gt;&lt;br&gt;Percentage identity: 55&lt;br&gt;Percentage coverage: 90&lt;br&gt;BLAST bit score: 481&lt;br&gt;E-value: 1.9e-135" locus_tag="ABY66008.1" class="clusterblast-orf" id="dummy-1_h1_1_25"  />
</g>
<g id="a1_0026"  >
<polygon points="393,90 404,90 409,85 404,80 393,80 393,90 " style="fill:white; stroke-width:1; stroke:black; " description="&lt;b&gt;ABY66009.1&lt;/b&gt;&lt;br&gt;transmembrane efflux protein&lt;br&gt;Location: 43750 - 42173" locus_tag="ABY66009.1" class="clusterblast-orf" id="dummy-1_h1_1_26"  />
</g>
<g id="a1_0027"  >
<polygon points="415,85 420,80 420,80 420,90 420,90 415,85 " style="fill:white; stroke-width:1; stroke:black; " description="&lt;b&gt;ABY66010.1&lt;/b&gt;&lt;br&gt;binding protein&lt;br&gt;Location: 41619 - 41116" locus_tag="ABY66010.1" class="clusterblast-orf" id="dummy-1_h1_1_27"  />
</g>
<g id="a1_0028"  >
<polygon points="423,90 432,90 437,85 432,80 423,80 423,90 " style="fill:white; stroke-width:1; stroke:black; " description="&lt;b&gt;ABY66011.1&lt;/b&gt;&lt;br&gt;aminotransferase&lt;br&gt;Location: 40897 - 39512" locus_tag="ABY66011.1" class="clusterblast-orf" id="dummy-1_h1_1_28"  />
</g>
<g id="a1_0029"  >
<polygon points="437,90 445,90 450,85 445,80 437,80 437,90 " style="fill:white; stroke-width:1; stroke:black; " description="&lt;b&gt;ABY66012.1&lt;/b&gt;&lt;br&gt;P450 oxidoreductase&lt;br&gt;Location: 39478 - 38243" locus_tag="ABY66012.1" class="clusterblast-orf" id="dummy-1_h1_1_29"  />
</g>
<g id="a1_0030"  >
<polygon points="450,90 457,90 462,85 457,80 450,80 450,90 " style="fill:white; stroke-width:1; stroke:black; " description="&lt;b&gt;ABY66013.1&lt;/b&gt;&lt;br&gt;hypothetical protein&lt;br&gt;Location: 38229 - 37084" locus_tag="ABY66013.1" class="clusterblast-orf" id="dummy-1_h1_1_30"  />
</g>
<g id="a1_0031"  >
<polygon points="462,90 470,90 475,85 470,80 462,80 462,90 " style="fill:white; stroke-width:1; stroke:black; " description="&lt;b&gt;ABY66014.1&lt;/b&gt;&lt;br&gt;P450 oxidoreductase&lt;br&gt;Location: 37087 - 35858" locus_tag="ABY66014.1" class="clusterblast-orf" id="dummy-1_h1_1_31"  />
</g>
<g id="a1_0032"  >
<polygon points="475,85 480,80 483,80 483,90 480,90 475,85 " style="fill:white; stroke-width:1; stroke:black; " description="&lt;b&gt;ABY66015.1&lt;/b&gt;&lt;br&gt;DNA alkylation repair&lt;br&gt;Location: 35796 - 35059" locus_tag="ABY66015.1" class="clusterblast-orf" id="dummy-1_h1_1_32"  />
</g>
<g id="a1_0033"  >
<polygon points="485,90 494,90 499,85 494,80 485,80 485,90 " style="fill:white; stroke-width:1; stroke:black; " description="&lt;b&gt;ABY66016.1&lt;/b&gt;&lt;br&gt;glycosyltransferase&lt;br&gt;Location: 34898 - 33498" locus_tag="ABY66016.1" class="clusterblast-orf" id="dummy-1_h1_1_33"  />
</g>
<g id="a1_0034"  >
<polygon points="499,90 503,90 508,85 503,80 499,80 499,90 " style="fill:white; stroke-width:1; stroke:black; " description="&lt;b&gt;ABY66017.1&lt;/b&gt;&lt;br&gt;acetyltransferase/esterase&lt;br&gt;Location: 33501 - 32644" locus_tag="ABY66017.1" class="clusterblast-orf" id="dummy-1_h1_1_34"  />
</g>
<g id="a1_0035"  >
<polygon points="509,85 514,80 526,80 526,90 514,90 509,85 " style="fill:white; stroke-width:1; stroke:black; " description="&lt;b&gt;ABY66018.1&lt;/b&gt;&lt;br&gt;CoA ligase&lt;br&gt;Location: 32590 - 30944" locus_tag="ABY66018.1" class="clusterblast-orf" id="dummy-1_h1_1_35"  />
</g>
<g id="a1_0036"  >
<polygon points="526,85 531,80 580,80 580,90 531,90 526,85 " style="fill:white; stroke-width:1; stroke:black; " description="&lt;b&gt;ABY66019.1&lt;/b&gt;&lt;br&gt;6-methylsalicylic acid synthase&lt;br&gt;Location: 30947 - 25704" locus_tag="ABY66019.1" class="clusterblast-orf" id="dummy-1_h1_1_36"  />
</g>
<g id="a1_0037"  >
<polygon points="581,85 586,80 592,80 592,90 586,90 581,85 " style="fill:white; stroke-width:1; stroke:black; " description="&lt;b&gt;ABY66020.1&lt;/b&gt;&lt;br&gt;C-methyltransferase&lt;br&gt;Location: 25630 - 24584" locus_tag="ABY66020.1" class="clusterblast-orf" id="dummy-1_h1_1_37"  />
</g>
<g id="a1_0038"  >
<polygon points="594,90 602,90 607,85 602,80 594,80 594,90 " style="fill:#1539d8; stroke-width:1; stroke:black; " description="&lt;b&gt;ABY66021.1&lt;/b&gt;&lt;br&gt;oxidoreductase&lt;br&gt;Location: 24329 - 23145&lt;br&gt;&lt;br&gt;&lt;b&gt;BlastP hit with cds45596_46781&lt;/b&gt;&lt;br&gt;Percentage identity: 70&lt;br&gt;Percentage coverage: 99&lt;br&gt;BLAST bit score: 562&lt;br&gt;E-value: 6.9e-160" locus_tag="ABY66021.1" class="clusterblast-orf" id="dummy-1_h1_1_38"  />
</g>
<g id="a1_0039"  >
<polygon points="607,90 607,90 612,85 607,80 607,80 607,90 " style="fill:#d815b5; stroke-width:1; stroke:black; " description="&lt;b&gt;ABY66022.1&lt;/b&gt;&lt;br&gt;unknown&lt;br&gt;Location: 23104 - 22658&lt;br&gt;&lt;br&gt;&lt;b&gt;BlastP hit with cds46844_47279&lt;/b&gt;&lt;br&gt;Percentage identity: 55&lt;br&gt;Percentage coverage: 93&lt;br&gt;BLAST bit score: 151&lt;br&gt;E-value: 1e-36" locus_tag="ABY66022.1" class="clusterblast-orf" id="dummy-1_h1_1_39"  />
</g>
<g id="a1_0040"  >
<polygon points="612,90 619,90 624,85 619,80 612,80 612,90 " style="fill:white; stroke-width:1; stroke:black; " description="&lt;b&gt;ABY66023.1&lt;/b&gt;&lt;br&gt;aminotransferase&lt;br&gt;Location: 22661 - 21450" locus_tag="ABY66023.1" class="clusterblast-orf" id="dummy-1_h1_1_40"  />
</g>
<g id="a1_0041"  >
<polygon points="624,90 633,90 638,85 633,80 624,80 624,90 " style="fill:#15d8d8; stroke-width:1; stroke:black; " description="&lt;b&gt;ABY66024.1&lt;/b&gt;&lt;br&gt;NDP glucose dehydrogenase&lt;br&gt;Location: 21438 - 20095&lt;br&gt;&lt;br&gt;&lt;b&gt;BlastP hit with cds59038_60466&lt;/b&gt;&lt;br&gt;Percentage identity: 65&lt;br&gt;Percentage coverage: 93&lt;br&gt;BLAST bit score: 556&lt;br&gt;E-value: 4.6e-158" locus_tag="ABY66024.1" class="clusterblast-orf" id="dummy-1_h1_1_41"  />
</g>
<g id="a1_0042"  >
<polygon points="638,90 643,90 648,85 643,80 638,80 638,90 " style="fill:#91d815; stroke-width:1; stroke:black; " description="&lt;b&gt;ABY66025.1&lt;/b&gt;&lt;br&gt;glucuronic acid decarboxylase&lt;br&gt;Location: 20092 - 19106&lt;br&gt;&lt;br&gt;&lt;b&gt;BlastP hit with cds57984_58992&lt;/b&gt;&lt;br&gt;Percentage identity: 66&lt;br&gt;Percentage coverage: 98&lt;br&gt;BLAST bit score: 434&lt;br&gt;E-value: 1.4e-121" locus_tag="ABY66025.1" class="clusterblast-orf" id="dummy-1_h1_1_42"  />
</g>
<g id="a1_0043"  >
<polygon points="649,90 660,90 665,85 660,80 649,80 649,90 " style="fill:#15d839; stroke-width:1; stroke:black; " description="&lt;b&gt;ABY66026.1&lt;/b&gt;&lt;br&gt;monooxygenase&lt;br&gt;Location: 19089 - 17470&lt;br&gt;&lt;br&gt;&lt;b&gt;BlastP hit with cds43769_45353&lt;/b&gt;&lt;br&gt;Percentage identity: 81&lt;br&gt;Percentage coverage: 97&lt;br&gt;BLAST bit score: 891&lt;br&gt;E-value: 8.6e-259" locus_tag="ABY66026.1" class="clusterblast-orf" id="dummy-1_h1_1_43"  />
</g>
<g id="a1_0044"  >
<polygon points="666,85 671,80 679,80 679,90 671,90 666,85 " style="fill:#d81580; stroke-width:1; stroke:black; " description="&lt;b&gt;ABY66027.1&lt;/b&gt;&lt;br&gt;C-methyltransferase&lt;br&gt;Location: 17389 - 16169&lt;br&gt;&lt;br&gt;&lt;b&gt;BlastP hit with cds50964_52185&lt;/b&gt;&lt;br&gt;Percentage identity: 54&lt;br&gt;Percentage coverage: 100&lt;br&gt;BLAST bit score: 441&lt;br&gt;E-value: 1.8e-123" locus_tag="ABY66027.1" class="clusterblast-orf" id="dummy-1_h1_1_44"  />
</g>
<g id="a1_0045"  >
<polygon points="681,90 687,90 692,85 687,80 681,80 681,90 " style="fill:white; stroke-width:1; stroke:black; " description="&lt;b&gt;ABY66028.1&lt;/b&gt;&lt;br&gt;Zn-dependent alcohol dehydrogenase&lt;br&gt;Location: 15953 - 14931" locus_tag="ABY66028.1" class="clusterblast-orf" id="dummy-1_h1_1_45"  />
</g>
<g id="a1_0046"  >
<polygon points="693,90 702,90 707,85 702,80 693,80 693,90 " style="fill:#156ed8; stroke-width:1; stroke:black; " description="&lt;b&gt;ABY66029.1&lt;/b&gt;&lt;br&gt;epoxidase&lt;br&gt;Location: 14848 - 13466&lt;br&gt;&lt;br&gt;&lt;b&gt;BlastP hit with cds36277_37717&lt;/b&gt;&lt;br&gt;Percentage identity: 53&lt;br&gt;Percentage coverage: 97&lt;br&gt;BLAST bit score: 468&lt;br&gt;E-value: 1.3e-131" locus_tag="ABY66029.1" class="clusterblast-orf" id="dummy-1_h1_1_46"  />
</g>
<g id="a1_0047"  >
<polygon points="708,85 713,80 718,80 718,90 713,90 708,85 " style="fill:white; stroke-width:1; stroke:black; " description="&lt;b&gt;ABY66030.1&lt;/b&gt;&lt;br&gt;dTDP-1-glucose synthase&lt;br&gt;Location: 13396 - 12362" locus_tag="ABY66030.1" class="clusterblast-orf" id="dummy-1_h1_1_47"  />
</g>
<g id="a1_0048"  >
<polygon points="720,85 724,80 724,90 720,85 " style="fill:white; stroke-width:1; stroke:black; " description="&lt;b&gt;ABY66031.1&lt;/b&gt;&lt;br&gt;glyoxylase/dioxygenase superfamily&lt;br&gt;Location: 12206 - 11790" locus_tag="ABY66031.1" class="clusterblast-orf" id="dummy-1_h1_1_48"  />
</g>
<g id="a1_0049"  >
<polygon points="727,90 739,90 744,85 739,80 727,80 727,90 " style="fill:white; stroke-width:1; stroke:black; " description="&lt;b&gt;ABY66032.1&lt;/b&gt;&lt;br&gt;methylmalonyl-CoA decarboxylase&lt;br&gt;Location: 11536 - 9863" locus_tag="ABY66032.1" class="clusterblast-orf" id="dummy-1_h1_1_49"  />
</g>
<g id="a1_0050"  >
<polygon points="745,85 750,80 752,80 752,90 750,90 745,85 " style="fill:white; stroke-width:1; stroke:black; " description="&lt;b&gt;ABY66033.1&lt;/b&gt;&lt;br&gt;transcriptional repressor&lt;br&gt;Location: 9820 - 9140" locus_tag="ABY66033.1" class="clusterblast-orf" id="dummy-1_h1_1_50"  />
</g>
<g id="a1_0051"  >
<polygon points="752,90 760,90 765,85 760,80 752,80 752,90 " style="fill:white; stroke-width:1; stroke:black; " description="&lt;b&gt;ABY66034.1&lt;/b&gt;&lt;br&gt;dioxygenase&lt;br&gt;Location: 9065 - 7854" locus_tag="ABY66034.1" class="clusterblast-orf" id="dummy-1_h1_1_51"  />
</g>
<g id="a1_0052"  >
<polygon points="766,85 771,80 780,80 780,90 771,90 766,85 " style="fill:white; stroke-width:1; stroke:black; " description="&lt;b&gt;ABY66035.1&lt;/b&gt;&lt;br&gt;dioxygenase&lt;br&gt;Location: 7793 - 6459" locus_tag="ABY66035.1" class="clusterblast-orf" id="dummy-1_h1_1_52"  />
</g>
</svg>
