<svg xmlns="http://www.w3.org/2000/svg" xmlns:xlink="http://www.w3.org/1999/xlink" version="1.1" x="0" y="0" height="230" width="800" viewBox="0 0 800 230" preserveAspectRatio="none"  >
<g label="Query sequence" class="clusterblast-cluster"  >
<text x="5" y="20" class="clusterblast-acc"  >
Query sequence</text>
<line x1="10" y1="35" x2="778.0" y2="35" style="stroke-width:1; stroke:grey; "  />
<polygon points="0,35 5,30 48,30 48,40 5,40 0,35 " style="fill:white; stroke-width:1; stroke:black; " description="&lt;b&gt;cds115036_115894&lt;/b&gt;&lt;br&gt;hypothetical protein&lt;br&gt;Location: 115036 - 115894" locus_tag="cds115036_115894" class="clusterblast-orf" id="dummy-1_q0_0_all"  />
<polygon points="49,40 72,40 77,35 72,30 49,30 49,40 " style="fill:white; stroke-width:1; stroke:black; " description="&lt;b&gt;cds115900_116401&lt;/b&gt;&lt;br&gt;hypothetical protein&lt;br&gt;Location: 115900 - 116401" locus_tag="cds115900_116401" class="clusterblast-orf" id="dummy-1_q1_0_all"  />
<polygon points="94,35 99,30 103,30 103,40 99,40 94,35 " style="fill:white; stroke-width:1; stroke:black; " description="&lt;b&gt;cds116709_116874&lt;/b&gt;&lt;br&gt;50S ribosomal protein L33 2&lt;br&gt;Location: 116709 - 116874" locus_tag="cds116709_116874" class="clusterblast-orf" id="dummy-1_q2_0_all"  />
<polygon points="133,40 208,40 213,35 208,30 133,30 133,40 " style="fill:white; stroke-width:1; stroke:black; " description="&lt;b&gt;cds117394_118816&lt;/b&gt;&lt;br&gt;hypothetical protein&lt;br&gt;Location: 117394 - 118816" locus_tag="cds117394_118816" class="clusterblast-orf" id="dummy-1_q3_0_all"  />
<polygon points="216,35 221,30 300,30 300,40 221,40 216,35 " style="fill:white; stroke-width:1; stroke:black; " description="&lt;b&gt;cds118872_120369&lt;/b&gt;&lt;br&gt;hypothetical protein&lt;br&gt;Location: 118872 - 120369" locus_tag="cds118872_120369" class="clusterblast-orf" id="dummy-1_q4_0_all"  />
<polygon points="313,40 372,40 377,35 372,30 313,30 313,40 " style="fill:white; stroke-width:1; stroke:black; " description="&lt;b&gt;cds120600_121737&lt;/b&gt;&lt;br&gt;hypothetical protein&lt;br&gt;Location: 120600 - 121737" locus_tag="cds120600_121737" class="clusterblast-orf" id="dummy-1_q5_0_all"  />
<polygon points="383,35 388,30 458,30 458,40 388,40 383,35 " style="fill:white; stroke-width:1; stroke:black; " description="&lt;b&gt;cds121837_123169&lt;/b&gt;&lt;br&gt;hypothetical protein&lt;br&gt;Location: 121837 - 123169" locus_tag="cds121837_123169" class="clusterblast-orf" id="dummy-1_q6_0_all"  />
<polygon points="471,40 592,40 597,35 592,30 471,30 471,40 " style="fill:#d81515; stroke-width:1; stroke:black; " description="&lt;b&gt;cds123409_125647&lt;/b&gt;&lt;br&gt;Germacradienol/geosmin synthase&lt;br&gt;Location: 123409 - 125647" locus_tag="cds123409_125647" class="clusterblast-orf" id="dummy-1_q7_0_all"  />
<polygon points="595,35 600,30 623,30 623,40 600,40 595,35 " style="fill:white; stroke-width:1; stroke:black; " description="&lt;b&gt;cds125609_126110&lt;/b&gt;&lt;br&gt;hypothetical protein&lt;br&gt;Location: 125609 - 126110" locus_tag="cds125609_126110" class="clusterblast-orf" id="dummy-1_q8_0_all"  />
<polygon points="626,35 631,30 652,30 652,40 631,40 626,35 " style="fill:white; stroke-width:1; stroke:black; " description="&lt;b&gt;cds126156_126621&lt;/b&gt;&lt;br&gt;hypothetical protein&lt;br&gt;Location: 126156 - 126621" locus_tag="cds126156_126621" class="clusterblast-orf" id="dummy-1_q9_0_all"  />
<polygon points="656,40 712,40 717,35 712,30 656,30 656,40 " style="fill:#15d815; stroke-width:1; stroke:black; " description="&lt;b&gt;cds126693_127782&lt;/b&gt;&lt;br&gt;hypothetical protein&lt;br&gt;Location: 126693 - 127782" locus_tag="cds126693_127782" class="clusterblast-orf" id="dummy-1_q10_0_all"  />
<polygon points="719,40 775,40 780,35 775,30 719,30 719,40 " style="fill:#1515d8; stroke-width:1; stroke:black; " description="&lt;b&gt;cds127816_128902&lt;/b&gt;&lt;br&gt;Mitomycin biosynthesis 6-O-methyltransferase&lt;br&gt;Location: 127816 - 128902" locus_tag="cds127816_128902" class="clusterblast-orf" id="dummy-1_q11_0_all"  />
</g>
<g label="BGC0001181" description="BGC0001181_c1: geosmin (100% of genes show similarity), Terpene" class="clusterblast-cluster"  >
<text x="5" y="70" class="clusterblast-acc"  >
<a xlink:href="https://mibig.secondarymetabolites.org/go/BGC0001181/1" target="_blank">BGC0001181</a>:                                                                          geosmin (100% of genes show similarity), Terpene</text>
<line x1="10" y1="85" x2="778.0" y2="85" style="stroke-width:1; stroke:grey; "  />
</g>
<g id="a1_000"  >
<polygon points="328,90 446,90 451,85 446,80 328,80 328,90 " style="fill:#d81515; stroke-width:1; stroke:black; " description="&lt;b&gt;CAB41566.1&lt;/b&gt;&lt;br&gt;putative cyclase&lt;br&gt;Location: 1 - 2181&lt;br&gt;&lt;br&gt;&lt;b&gt;BlastP hit with cds123409_125647&lt;/b&gt;&lt;br&gt;Percentage identity: 69&lt;br&gt;Percentage coverage: 95&lt;br&gt;BLAST bit score: 1003&lt;br&gt;E-value: 1.7e-292" locus_tag="CAB41566.1" class="clusterblast-orf" id="dummy-1_h1_1_0"  />
</g>
</svg>
