<svg xmlns="http://www.w3.org/2000/svg" xmlns:xlink="http://www.w3.org/1999/xlink" version="1.1" x="0" y="0" height="230" width="800" viewBox="0 0 800 230" preserveAspectRatio="none"  >
<g label="Query sequence" class="clusterblast-cluster"  >
<text x="5" y="20" class="clusterblast-acc"  >
Query sequence</text>
<line x1="10" y1="35" x2="778.0" y2="35" style="stroke-width:1; stroke:grey; "  />
<polygon points="0,40 32,40 37,35 32,30 0,30 0,40 " style="fill:white; stroke-width:1; stroke:black; " description="&lt;b&gt;cds150253_151885&lt;/b&gt;&lt;br&gt;Apolipoprotein N-acyltransferase&lt;br&gt;Location: 150253 - 151885" locus_tag="cds150253_151885" class="clusterblast-orf" id="dummy-2_q0_0_all"  />
<polygon points="37,40 43,40 48,35 43,30 37,30 37,40 " style="fill:white; stroke-width:1; stroke:black; " description="&lt;b&gt;cds151895_152375&lt;/b&gt;&lt;br&gt;hypothetical protein&lt;br&gt;Location: 151895 - 152375" locus_tag="cds151895_152375" class="clusterblast-orf" id="dummy-2_q1_0_all"  />
<polygon points="49,35 54,30 80,30 80,40 54,40 49,35 " style="fill:white; stroke-width:1; stroke:black; " description="&lt;b&gt;cds152427_153816&lt;/b&gt;&lt;br&gt;Fosfomycin resistance protein AbaF&lt;br&gt;Location: 152427 - 153816" locus_tag="cds152427_153816" class="clusterblast-orf" id="dummy-2_q2_0_all"  />
<polygon points="85,35 90,30 114,30 114,40 90,40 85,35 " style="fill:#d81515; stroke-width:1; stroke:black; " description="&lt;b&gt;cds154037_155303&lt;/b&gt;&lt;br&gt;hypothetical protein&lt;br&gt;Location: 154037 - 155303" locus_tag="cds154037_155303" class="clusterblast-orf" id="dummy-2_q3_0_all"  />
<polygon points="117,40 133,40 138,35 133,30 117,30 117,40 " style="fill:#63d815; stroke-width:1; stroke:black; " description="&lt;b&gt;cds155435_156371&lt;/b&gt;&lt;br&gt;HTH-type transcriptional regulator HdfR&lt;br&gt;Location: 155435 - 156371" locus_tag="cds155435_156371" class="clusterblast-orf" id="dummy-2_q4_0_all"  />
<polygon points="141,40 153,40 158,35 153,30 141,30 141,40 " style="fill:white; stroke-width:1; stroke:black; " description="&lt;b&gt;cds156490_157264&lt;/b&gt;&lt;br&gt;Methionine aminopeptidase 1&lt;br&gt;Location: 156490 - 157264" locus_tag="cds156490_157264" class="clusterblast-orf" id="dummy-2_q5_0_all"  />
<polygon points="161,35 166,30 181,30 181,40 166,40 161,35 " style="fill:#15b1d8; stroke-width:1; stroke:black; " description="&lt;b&gt;cds157392_158280&lt;/b&gt;&lt;br&gt;L-arabinose transport system permease protein AraQ&lt;br&gt;Location: 157392 - 158280" locus_tag="cds157392_158280" class="clusterblast-orf" id="dummy-2_q6_0_all"  />
<polygon points="181,35 186,30 203,30 203,40 186,40 181,35 " style="fill:#b115d8; stroke-width:1; stroke:black; " description="&lt;b&gt;cds158276_159263&lt;/b&gt;&lt;br&gt;hypothetical protein&lt;br&gt;Location: 158276 - 159263" locus_tag="cds158276_159263" class="clusterblast-orf" id="dummy-2_q7_0_all"  />
<polygon points="205,35 210,30 235,30 235,40 210,40 205,35 " style="fill:#d86315; stroke-width:1; stroke:black; " description="&lt;b&gt;cds159339_160662&lt;/b&gt;&lt;br&gt;hypothetical protein&lt;br&gt;Location: 159339 - 160662" locus_tag="cds159339_160662" class="clusterblast-orf" id="dummy-2_q8_0_all"  />
<polygon points="241,40 290,40 295,35 290,30 241,30 241,40 " style="fill:#15d815; stroke-width:1; stroke:black; " description="&lt;b&gt;cds160929_163353&lt;/b&gt;&lt;br&gt;hypothetical protein&lt;br&gt;Location: 160929 - 163353" locus_tag="cds160929_163353" class="clusterblast-orf" id="dummy-2_q9_0_all"  />
<polygon points="295,40 313,40 318,35 313,30 295,30 295,40 " style="fill:#1563d8; stroke-width:1; stroke:black; " description="&lt;b&gt;cds163349_164375&lt;/b&gt;&lt;br&gt;HTH-type transcriptional repressor CytR&lt;br&gt;Location: 163349 - 164375" locus_tag="cds163349_164375" class="clusterblast-orf" id="dummy-2_q10_0_all"  />
<polygon points="319,35 324,30 330,30 330,40 324,40 319,35 " style="fill:white; stroke-width:1; stroke:black; " description="&lt;b&gt;cds164401_164872&lt;/b&gt;&lt;br&gt;hypothetical protein&lt;br&gt;Location: 164401 - 164872" locus_tag="cds164401_164872" class="clusterblast-orf" id="dummy-2_q11_0_all"  />
<polygon points="338,40 338,40 343,35 338,30 338,30 338,40 " style="fill:#d815b1; stroke-width:1; stroke:black; " description="&lt;b&gt;cds165230_165473&lt;/b&gt;&lt;br&gt;Isochorismatase&lt;br&gt;Location: 165230 - 165473" locus_tag="cds165230_165473" class="clusterblast-orf" id="dummy-2_q12_0_all"  />
<polygon points="343,40 357,40 362,35 357,30 343,30 343,40 " style="fill:#d8b115; stroke-width:1; stroke:black; " description="&lt;b&gt;cds165469_166321&lt;/b&gt;&lt;br&gt;Vibriobactin utilization protein ViuB&lt;br&gt;Location: 165469 - 166321" locus_tag="cds165469_166321" class="clusterblast-orf" id="dummy-2_q13_0_all"  />
<polygon points="365,40 382,40 387,35 382,30 365,30 365,40 " style="fill:#15d863; stroke-width:1; stroke:black; " description="&lt;b&gt;cds166422_167427&lt;/b&gt;&lt;br&gt;Iron(3+)-hydroxamate-binding protein YxeB&lt;br&gt;Location: 166422 - 167427" locus_tag="cds166422_167427" class="clusterblast-orf" id="dummy-2_q14_0_all"  />
<polygon points="387,40 405,40 410,35 405,30 387,30 387,40 " style="fill:#1515d8; stroke-width:1; stroke:black; " description="&lt;b&gt;cds167423_168449&lt;/b&gt;&lt;br&gt;Ferric enterobactin transport system permease protein FepD&lt;br&gt;Location: 167423 - 168449" locus_tag="cds167423_168449" class="clusterblast-orf" id="dummy-2_q15_0_all"  />
<polygon points="410,40 428,40 433,35 428,30 410,30 410,40 " style="fill:#d81563; stroke-width:1; stroke:black; " description="&lt;b&gt;cds168445_169441&lt;/b&gt;&lt;br&gt;Ferric enterobactin transport system permease protein FepG&lt;br&gt;Location: 168445 - 169441" locus_tag="cds168445_169441" class="clusterblast-orf" id="dummy-2_q16_0_all"  />
<polygon points="433,40 445,40 450,35 445,30 433,30 433,40 " style="fill:#b1d815; stroke-width:1; stroke:black; " description="&lt;b&gt;cds169437_170223&lt;/b&gt;&lt;br&gt;Ferric enterobactin transport ATP-binding protein FepC&lt;br&gt;Location: 169437 - 170223" locus_tag="cds169437_170223" class="clusterblast-orf" id="dummy-2_q17_0_all"  />
<polygon points="450,40 671,40 676,35 671,30 450,30 450,40 " style="fill:#15d8b1; stroke-width:1; stroke:black; " description="&lt;b&gt;cds170224_180199&lt;/b&gt;&lt;br&gt;Linear gramicidin synthase subunit D&lt;br&gt;Location: 170224 - 180199" locus_tag="cds170224_180199" class="clusterblast-orf" id="dummy-2_q18_0_all"  />
<polygon points="676,40 702,40 707,35 702,30 676,30 676,40 " style="fill:#6315d8; stroke-width:1; stroke:black; " description="&lt;b&gt;cds180195_181596&lt;/b&gt;&lt;br&gt;putative transport protein HsrA&lt;br&gt;Location: 180195 - 181596" locus_tag="cds180195_181596" class="clusterblast-orf" id="dummy-2_q19_0_all"  />
<polygon points="712,40 775,40 780,35 775,30 712,30 712,40 " style="fill:white; stroke-width:1; stroke:black; " description="&lt;b&gt;cds181801_184810&lt;/b&gt;&lt;br&gt;hypothetical protein&lt;br&gt;Location: 181801 - 184810" locus_tag="cds181801_184810" class="clusterblast-orf" id="dummy-2_q20_0_all"  />
</g>
<g label="BGC0000392" description="BGC0000392_c1: mirubactin (50% of genes show similarity), NRP" class="clusterblast-cluster"  >
<text x="5" y="70" class="clusterblast-acc"  >
<a xlink:href="https://mibig.secondarymetabolites.org/go/BGC0000392/1" target="_blank">BGC0000392</a>:                                                                       mirubactin (50% of genes show similarity), NRP</text>
<line x1="10" y1="85" x2="778.0" y2="85" style="stroke-width:1; stroke:grey; "  />
</g>
<g id="a2_000"  >
<polygon points="77,90 89,90 94,85 89,80 77,80 77,90 " style="fill:white; stroke-width:1; stroke:black; " description="&lt;b&gt;Amir_2728&lt;/b&gt;&lt;br&gt;short-chain dehydrogenase/reductase SDR&lt;br&gt;Location: 27717 - 26947" locus_tag="Amir_2728" class="clusterblast-orf" id="dummy-2_h2_1_0"  />
</g>
<g id="a2_001"  >
<polygon points="99,90 129,90 134,85 129,80 99,80 99,90 " style="fill:white; stroke-width:1; stroke:black; " description="&lt;b&gt;Amir_2727&lt;/b&gt;&lt;br&gt;isochorismate synthase&lt;br&gt;Location: 26709 - 25198" locus_tag="Amir_2727" class="clusterblast-orf" id="dummy-2_h2_1_1"  />
</g>
<g id="a2_002"  >
<polygon points="133,90 166,90 171,85 166,80 133,80 133,90 " style="fill:white; stroke-width:1; stroke:black; " description="&lt;b&gt;Amir_2726&lt;/b&gt;&lt;br&gt;AMP-dependent synthetase and ligase&lt;br&gt;Location: 25201 - 23525" locus_tag="Amir_2726" class="clusterblast-orf" id="dummy-2_h2_1_2"  />
</g>
<g id="a2_003"  >
<polygon points="192,90 208,90 213,85 208,80 192,80 192,90 " style="fill:#d8b115; stroke-width:1; stroke:black; " description="&lt;b&gt;Amir_2724&lt;/b&gt;&lt;br&gt;Siderophore-interacting protein&lt;br&gt;Location: 22624 - 21689&lt;br&gt;&lt;br&gt;&lt;b&gt;BlastP hit with cds165469_166321&lt;/b&gt;&lt;br&gt;Percentage identity: 71&lt;br&gt;Percentage coverage: 98&lt;br&gt;BLAST bit score: 408&lt;br&gt;E-value: 7e-114" locus_tag="Amir_2724" class="clusterblast-orf" id="dummy-2_h2_1_3"  />
</g>
<g id="a2_004"  >
<polygon points="214,90 232,90 237,85 232,80 214,80 214,90 " style="fill:#15d863; stroke-width:1; stroke:black; " description="&lt;b&gt;Amir_2723&lt;/b&gt;&lt;br&gt;periplasmic binding protein&lt;br&gt;Location: 21642 - 20620&lt;br&gt;&lt;br&gt;&lt;b&gt;BlastP hit with cds166422_167427&lt;/b&gt;&lt;br&gt;Percentage identity: 69&lt;br&gt;Percentage coverage: 101&lt;br&gt;BLAST bit score: 433&lt;br&gt;E-value: 3.1e-121" locus_tag="Amir_2723" class="clusterblast-orf" id="dummy-2_h2_1_4"  />
</g>
<g id="a2_005"  >
<polygon points="237,90 254,90 259,85 254,80 237,80 237,90 " style="fill:#1515d8; stroke-width:1; stroke:black; " description="&lt;b&gt;Amir_2722&lt;/b&gt;&lt;br&gt;transport system permease protein&lt;br&gt;Location: 20623 - 19625&lt;br&gt;&lt;br&gt;&lt;b&gt;BlastP hit with cds167423_168449&lt;/b&gt;&lt;br&gt;Percentage identity: 72&lt;br&gt;Percentage coverage: 87&lt;br&gt;BLAST bit score: 381&lt;br&gt;E-value: 1.4e-105" locus_tag="Amir_2722" class="clusterblast-orf" id="dummy-2_h2_1_5"  />
</g>
<g id="a2_006"  >
<polygon points="259,90 277,90 282,85 277,80 259,80 259,90 " style="fill:#d81563; stroke-width:1; stroke:black; " description="&lt;b&gt;Amir_2721&lt;/b&gt;&lt;br&gt;transport system permease protein&lt;br&gt;Location: 19628 - 18612&lt;br&gt;&lt;br&gt;&lt;b&gt;BlastP hit with cds168445_169441&lt;/b&gt;&lt;br&gt;Percentage identity: 68&lt;br&gt;Percentage coverage: 98&lt;br&gt;BLAST bit score: 393&lt;br&gt;E-value: 4.6e-109" locus_tag="Amir_2721" class="clusterblast-orf" id="dummy-2_h2_1_6"  />
</g>
<g id="a2_007"  >
<polygon points="282,90 295,90 300,85 295,80 282,80 282,90 " style="fill:#b1d815; stroke-width:1; stroke:black; " description="&lt;b&gt;Amir_2720&lt;/b&gt;&lt;br&gt;ABC transporter related&lt;br&gt;Location: 18615 - 17830&lt;br&gt;&lt;br&gt;&lt;b&gt;BlastP hit with cds169437_170223&lt;/b&gt;&lt;br&gt;Percentage identity: 80&lt;br&gt;Percentage coverage: 99&lt;br&gt;BLAST bit score: 420&lt;br&gt;E-value: 2.1e-117" locus_tag="Amir_2720" class="clusterblast-orf" id="dummy-2_h2_1_7"  />
</g>
<g id="a2_008"  >
<polygon points="302,90 527,90 532,85 527,80 302,80 302,90 " style="fill:#15d8b1; stroke-width:1; stroke:black; " description="&lt;b&gt;Amir_2719&lt;/b&gt;&lt;br&gt;amino acid adenylation domain protein&lt;br&gt;Location: 17757 - 7525&lt;br&gt;&lt;br&gt;&lt;b&gt;BlastP hit with cds170224_180199&lt;/b&gt;&lt;br&gt;Percentage identity: 63&lt;br&gt;Percentage coverage: 103&lt;br&gt;BLAST bit score: 3914&lt;br&gt;E-value: 0.0" locus_tag="Amir_2719" class="clusterblast-orf" id="dummy-2_h2_1_8"  />
</g>
<g id="a2_009"  >
<polygon points="532,90 559,90 564,85 559,80 532,80 532,90 " style="fill:#6315d8; stroke-width:1; stroke:black; " description="&lt;b&gt;Amir_2718&lt;/b&gt;&lt;br&gt;drug resistance transporter, EmrB/QacA subfamily&lt;br&gt;Location: 7528 - 6125&lt;br&gt;&lt;br&gt;&lt;b&gt;BlastP hit with cds180195_181596&lt;/b&gt;&lt;br&gt;Percentage identity: 70&lt;br&gt;Percentage coverage: 97&lt;br&gt;BLAST bit score: 602&lt;br&gt;E-value: 5.4e-172" locus_tag="Amir_2718" class="clusterblast-orf" id="dummy-2_h2_1_9"  />
</g>
<g id="a2_0010"  >
<polygon points="564,90 583,90 588,85 583,80 564,80 564,90 " style="fill:white; stroke-width:1; stroke:black; " description="&lt;b&gt;Amir_2717&lt;/b&gt;&lt;br&gt;phospho-2-dehydro-3-deoxyheptonate aldolase&lt;br&gt;Location: 6132 - 5071" locus_tag="Amir_2717" class="clusterblast-orf" id="dummy-2_h2_1_10"  />
</g>
<g id="a2_0011"  >
<polygon points="602,90 661,90 666,85 661,80 602,80 602,90 " style="fill:white; stroke-width:1; stroke:black; " description="&lt;b&gt;Amir_2716&lt;/b&gt;&lt;br&gt;transcriptional regulator, LuxR family&lt;br&gt;Location: 4442 - 1617" locus_tag="Amir_2716" class="clusterblast-orf" id="dummy-2_h2_1_11"  />
</g>
<g id="a2_0012"  >
<polygon points="667,85 672,80 688,80 688,90 672,90 667,85 " style="fill:white; stroke-width:1; stroke:black; " description="&lt;b&gt;Amir_2715&lt;/b&gt;&lt;br&gt;Luciferase-like monooxygenase&lt;br&gt;Location: 1550 - 645" locus_tag="Amir_2715" class="clusterblast-orf" id="dummy-2_h2_1_12"  />
</g>
<g id="a2_0013"  >
<polygon points="690,90 697,90 702,85 697,80 690,80 690,90 " style="fill:white; stroke-width:1; stroke:black; " description="&lt;b&gt;Amir_2714&lt;/b&gt;&lt;br&gt;transcriptional regulator, TetR family&lt;br&gt;Location: 552 - 1" locus_tag="Amir_2714" class="clusterblast-orf" id="dummy-2_h2_1_13"  />
</g>
</svg>
