<svg xmlns="http://www.w3.org/2000/svg" xmlns:xlink="http://www.w3.org/1999/xlink" version="1.1" x="0" y="0" height="230" width="800" viewBox="0 0 800 230" preserveAspectRatio="none"  >
<g label="Query sequence" class="clusterblast-cluster"  >
<text x="5" y="20" class="clusterblast-acc"  >
Query sequence</text>
<line x1="10" y1="35" x2="778.0" y2="35" style="stroke-width:1; stroke:grey; "  />
<polygon points="252,40 257,40 262,35 257,30 252,30 252,40 " style="fill:white; stroke-width:1; stroke:black; " description="&lt;b&gt;cds188_1109&lt;/b&gt;&lt;br&gt;hypothetical protein&lt;br&gt;Location: 188 - 1109" locus_tag="cds188_1109" class="clusterblast-orf" id="dummy-1_q0_0_all"  />
<polygon points="261,35 266,30 266,30 266,40 266,40 261,35 " style="fill:#d81515; stroke-width:1; stroke:black; " description="&lt;b&gt;cds970_1519&lt;/b&gt;&lt;br&gt;FMN reductase (NADH) NtaB&lt;br&gt;Location: 970 - 1519" locus_tag="cds970_1519" class="clusterblast-orf" id="dummy-1_q1_0_all"  />
<polygon points="266,35 271,30 271,30 271,40 271,40 266,35 " style="fill:#4dd815; stroke-width:1; stroke:black; " description="&lt;b&gt;cds1515_1989&lt;/b&gt;&lt;br&gt;hypothetical protein&lt;br&gt;Location: 1515 - 1989" locus_tag="cds1515_1989" class="clusterblast-orf" id="dummy-1_q2_0_all"  />
<polygon points="271,35 276,30 331,30 331,40 276,40 271,35 " style="fill:#1585d8; stroke-width:1; stroke:black; " description="&lt;b&gt;cds1985_7793&lt;/b&gt;&lt;br&gt;hypothetical protein&lt;br&gt;Location: 1985 - 7793" locus_tag="cds1985_7793" class="clusterblast-orf" id="dummy-1_q3_0_all"  />
<polygon points="331,35 336,30 343,30 343,40 336,40 331,35 " style="fill:#a115d8; stroke-width:1; stroke:black; " description="&lt;b&gt;cds7789_8875&lt;/b&gt;&lt;br&gt;hypothetical protein&lt;br&gt;Location: 7789 - 8875" locus_tag="cds7789_8875" class="clusterblast-orf" id="dummy-1_q4_0_all"  />
<polygon points="343,35 348,30 363,30 363,40 348,40 343,35 " style="fill:#d86915; stroke-width:1; stroke:black; " description="&lt;b&gt;cds8876_10805&lt;/b&gt;&lt;br&gt;hypothetical protein&lt;br&gt;Location: 8876 - 10805" locus_tag="cds8876_10805" class="clusterblast-orf" id="dummy-1_q5_0_all"  />
<polygon points="362,35 367,30 373,30 373,40 367,40 362,35 " style="fill:#15d831; stroke-width:1; stroke:black; " description="&lt;b&gt;cds10801_11788&lt;/b&gt;&lt;br&gt;hypothetical protein&lt;br&gt;Location: 10801 - 11788" locus_tag="cds10801_11788" class="clusterblast-orf" id="dummy-1_q6_0_all"  />
<polygon points="374,35 379,30 384,30 384,40 379,40 374,35 " style="fill:#1531d8; stroke-width:1; stroke:black; " description="&lt;b&gt;cds11883_12864&lt;/b&gt;&lt;br&gt;hypothetical protein&lt;br&gt;Location: 11883 - 12864" locus_tag="cds11883_12864" class="clusterblast-orf" id="dummy-1_q7_0_all"  />
<polygon points="385,35 390,30 390,30 390,40 390,40 385,35 " style="fill:#d815bc; stroke-width:1; stroke:black; " description="&lt;b&gt;cds13002_13446&lt;/b&gt;&lt;br&gt;putative HTH-type transcriptional regulator&lt;br&gt;Location: 13002 - 13446" locus_tag="cds13002_13446" class="clusterblast-orf" id="dummy-1_q8_0_all"  />
<polygon points="391,40 392,40 397,35 392,30 391,30 391,40 " style="fill:#d8bc15; stroke-width:1; stroke:black; " description="&lt;b&gt;cds13584_14148&lt;/b&gt;&lt;br&gt;hypothetical protein&lt;br&gt;Location: 13584 - 14148" locus_tag="cds13584_14148" class="clusterblast-orf" id="dummy-1_q9_0_all"  />
<polygon points="397,40 397,40 402,35 397,30 397,30 397,40 " style="fill:#15d885; stroke-width:1; stroke:black; " description="&lt;b&gt;cds14158_14632&lt;/b&gt;&lt;br&gt;hypothetical protein&lt;br&gt;Location: 14158 - 14632" locus_tag="cds14158_14632" class="clusterblast-orf" id="dummy-1_q10_0_all"  />
<polygon points="405,35 410,30 418,30 418,40 410,40 405,35 " style="fill:#4d15d8; stroke-width:1; stroke:black; " description="&lt;b&gt;cds14902_16138&lt;/b&gt;&lt;br&gt;IS701 family transposase ISSav4&lt;br&gt;Location: 14902 - 16138" locus_tag="cds14902_16138" class="clusterblast-orf" id="dummy-1_q11_0_all"  />
<polygon points="421,40 422,40 427,35 422,30 421,30 421,40 " style="fill:white; stroke-width:1; stroke:black; " description="&lt;b&gt;cds16456_17056&lt;/b&gt;&lt;br&gt;A-factor receptor protein&lt;br&gt;Location: 16456 - 17056" locus_tag="cds16456_17056" class="clusterblast-orf" id="dummy-1_q12_0_all"  />
<polygon points="429,35 434,30 437,30 437,40 434,40 429,35 " style="fill:white; stroke-width:1; stroke:black; " description="&lt;b&gt;cds17181_17952&lt;/b&gt;&lt;br&gt;A-factor type gamma-butyrolactone 1'-reductase (1S-forming)&lt;br&gt;Location: 17181 - 17952" locus_tag="cds17181_17952" class="clusterblast-orf" id="dummy-1_q13_0_all"  />
<polygon points="438,35 443,30 445,30 445,40 443,40 438,35 " style="fill:white; stroke-width:1; stroke:black; " description="&lt;b&gt;cds18115_18766&lt;/b&gt;&lt;br&gt;A-factor receptor protein&lt;br&gt;Location: 18115 - 18766" locus_tag="cds18115_18766" class="clusterblast-orf" id="dummy-1_q14_0_all"  />
<polygon points="446,40 451,40 456,35 451,30 446,30 446,40 " style="fill:white; stroke-width:1; stroke:black; " description="&lt;b&gt;cds18885_19803&lt;/b&gt;&lt;br&gt;hypothetical protein&lt;br&gt;Location: 18885 - 19803" locus_tag="cds18885_19803" class="clusterblast-orf" id="dummy-1_q15_0_all"  />
<polygon points="459,40 469,40 474,35 469,30 459,30 459,40 " style="fill:#d81569; stroke-width:1; stroke:black; " description="&lt;b&gt;cds20145_21585&lt;/b&gt;&lt;br&gt;hypothetical protein&lt;br&gt;Location: 20145 - 21585" locus_tag="cds20145_21585" class="clusterblast-orf" id="dummy-1_q16_0_all"  />
<polygon points="477,35 481,30 481,40 477,35 " style="fill:white; stroke-width:1; stroke:black; " description="&lt;b&gt;cds21807_22245&lt;/b&gt;&lt;br&gt;hypothetical protein&lt;br&gt;Location: 21807 - 22245" locus_tag="cds21807_22245" class="clusterblast-orf" id="dummy-1_q17_0_all"  />
<polygon points="482,35 487,30 491,30 491,40 487,40 482,35 " style="fill:#a1d815; stroke-width:1; stroke:black; " description="&lt;b&gt;cds22347_23226&lt;/b&gt;&lt;br&gt;hypothetical protein&lt;br&gt;Location: 22347 - 23226" locus_tag="cds22347_23226" class="clusterblast-orf" id="dummy-1_q18_0_all"  />
<polygon points="495,35 499,30 499,40 495,35 " style="fill:#15d8d8; stroke-width:1; stroke:black; " description="&lt;b&gt;cds23601_24003&lt;/b&gt;&lt;br&gt;hypothetical protein&lt;br&gt;Location: 23601 - 24003" locus_tag="cds23601_24003" class="clusterblast-orf" id="dummy-1_q19_0_all"  />
<polygon points="499,35 504,30 515,30 515,40 504,40 499,35 " style="fill:#d81569; stroke-width:1; stroke:black; " description="&lt;b&gt;cds23999_25532&lt;/b&gt;&lt;br&gt;hypothetical protein&lt;br&gt;Location: 23999 - 25532" locus_tag="cds23999_25532" class="clusterblast-orf" id="dummy-1_q20_0_all"  />
<polygon points="515,35 520,30 527,30 527,40 520,40 515,35 " style="fill:white; stroke-width:1; stroke:black; " description="&lt;b&gt;cds25521_26649&lt;/b&gt;&lt;br&gt;hypothetical protein&lt;br&gt;Location: 25521 - 26649" locus_tag="cds25521_26649" class="clusterblast-orf" id="dummy-1_q21_0_all"  />
</g>
<g label="BGC0001008" description="BGC0001008_c1: maduropeptin (13% of genes show similarity), Polyketide:Iterative type I + Polyketide:Enediyne type I" class="clusterblast-cluster"  >
<text x="5" y="70" class="clusterblast-acc"  >
<a xlink:href="https://mibig.secondarymetabolites.org/go/BGC0001008/1" target="_blank">BGC0001008</a>:                                                                     maduropeptin (13% of genes show similarity), Polyketide:Iterative type I + Polyketide:Enediyne type I</text>
<line x1="10" y1="85" x2="778.0" y2="85" style="stroke-width:1; stroke:grey; "  />
</g>
<g id="a1_000"  >
<polygon points="0,90 8,90 13,85 8,80 0,80 0,90 " style="fill:white; stroke-width:1; stroke:black; " description="&lt;b&gt;ABY66035.1&lt;/b&gt;&lt;br&gt;dioxygenase&lt;br&gt;Location: 6459 - 7793" locus_tag="ABY66035.1" class="clusterblast-orf" id="dummy-1_h1_5_0"  />
</g>
<g id="a1_001"  >
<polygon points="14,85 19,80 27,80 27,90 19,90 14,85 " style="fill:white; stroke-width:1; stroke:black; " description="&lt;b&gt;ABY66034.1&lt;/b&gt;&lt;br&gt;dioxygenase&lt;br&gt;Location: 7854 - 9065" locus_tag="ABY66034.1" class="clusterblast-orf" id="dummy-1_h1_5_1"  />
</g>
<g id="a1_002"  >
<polygon points="27,90 29,90 34,85 29,80 27,80 27,90 " style="fill:white; stroke-width:1; stroke:black; " description="&lt;b&gt;ABY66033.1&lt;/b&gt;&lt;br&gt;transcriptional repressor&lt;br&gt;Location: 9140 - 9820" locus_tag="ABY66033.1" class="clusterblast-orf" id="dummy-1_h1_5_2"  />
</g>
<g id="a1_003"  >
<polygon points="35,85 40,80 52,80 52,90 40,90 35,85 " style="fill:white; stroke-width:1; stroke:black; " description="&lt;b&gt;ABY66032.1&lt;/b&gt;&lt;br&gt;methylmalonyl-CoA decarboxylase&lt;br&gt;Location: 9863 - 11536" locus_tag="ABY66032.1" class="clusterblast-orf" id="dummy-1_h1_5_3"  />
</g>
<g id="a1_004"  >
<polygon points="55,90 59,85 55,80 55,90 " style="fill:white; stroke-width:1; stroke:black; " description="&lt;b&gt;ABY66031.1&lt;/b&gt;&lt;br&gt;glyoxylase/dioxygenase superfamily&lt;br&gt;Location: 11790 - 12206" locus_tag="ABY66031.1" class="clusterblast-orf" id="dummy-1_h1_5_4"  />
</g>
<g id="a1_005"  >
<polygon points="61,90 66,90 71,85 66,80 61,80 61,90 " style="fill:white; stroke-width:1; stroke:black; " description="&lt;b&gt;ABY66030.1&lt;/b&gt;&lt;br&gt;dTDP-1-glucose synthase&lt;br&gt;Location: 12362 - 13396" locus_tag="ABY66030.1" class="clusterblast-orf" id="dummy-1_h1_5_5"  />
</g>
<g id="a1_006"  >
<polygon points="72,85 77,80 86,80 86,90 77,90 72,85 " style="fill:white; stroke-width:1; stroke:black; " description="&lt;b&gt;ABY66029.1&lt;/b&gt;&lt;br&gt;epoxidase&lt;br&gt;Location: 13466 - 14848" locus_tag="ABY66029.1" class="clusterblast-orf" id="dummy-1_h1_5_6"  />
</g>
<g id="a1_007"  >
<polygon points="87,85 92,80 98,80 98,90 92,90 87,85 " style="fill:white; stroke-width:1; stroke:black; " description="&lt;b&gt;ABY66028.1&lt;/b&gt;&lt;br&gt;Zn-dependent alcohol dehydrogenase&lt;br&gt;Location: 14931 - 15953" locus_tag="ABY66028.1" class="clusterblast-orf" id="dummy-1_h1_5_7"  />
</g>
<g id="a1_008"  >
<polygon points="100,90 108,90 113,85 108,80 100,80 100,90 " style="fill:white; stroke-width:1; stroke:black; " description="&lt;b&gt;ABY66027.1&lt;/b&gt;&lt;br&gt;C-methyltransferase&lt;br&gt;Location: 16169 - 17389" locus_tag="ABY66027.1" class="clusterblast-orf" id="dummy-1_h1_5_8"  />
</g>
<g id="a1_009"  >
<polygon points="114,85 119,80 130,80 130,90 119,90 114,85 " style="fill:white; stroke-width:1; stroke:black; " description="&lt;b&gt;ABY66026.1&lt;/b&gt;&lt;br&gt;monooxygenase&lt;br&gt;Location: 17470 - 19089" locus_tag="ABY66026.1" class="clusterblast-orf" id="dummy-1_h1_5_9"  />
</g>
<g id="a1_0010"  >
<polygon points="131,85 136,80 141,80 141,90 136,90 131,85 " style="fill:white; stroke-width:1; stroke:black; " description="&lt;b&gt;ABY66025.1&lt;/b&gt;&lt;br&gt;glucuronic acid decarboxylase&lt;br&gt;Location: 19106 - 20092" locus_tag="ABY66025.1" class="clusterblast-orf" id="dummy-1_h1_5_10"  />
</g>
<g id="a1_0011"  >
<polygon points="141,85 146,80 155,80 155,90 146,90 141,85 " style="fill:white; stroke-width:1; stroke:black; " description="&lt;b&gt;ABY66024.1&lt;/b&gt;&lt;br&gt;NDP glucose dehydrogenase&lt;br&gt;Location: 20095 - 21438" locus_tag="ABY66024.1" class="clusterblast-orf" id="dummy-1_h1_5_11"  />
</g>
<g id="a1_0012"  >
<polygon points="155,85 160,80 167,80 167,90 160,90 155,85 " style="fill:white; stroke-width:1; stroke:black; " description="&lt;b&gt;ABY66023.1&lt;/b&gt;&lt;br&gt;aminotransferase&lt;br&gt;Location: 21450 - 22661" locus_tag="ABY66023.1" class="clusterblast-orf" id="dummy-1_h1_5_12"  />
</g>
<g id="a1_0013"  >
<polygon points="167,85 172,80 172,80 172,90 172,90 167,85 " style="fill:white; stroke-width:1; stroke:black; " description="&lt;b&gt;ABY66022.1&lt;/b&gt;&lt;br&gt;unknown&lt;br&gt;Location: 22658 - 23104" locus_tag="ABY66022.1" class="clusterblast-orf" id="dummy-1_h1_5_13"  />
</g>
<g id="a1_0014"  >
<polygon points="172,85 177,80 185,80 185,90 177,90 172,85 " style="fill:white; stroke-width:1; stroke:black; " description="&lt;b&gt;ABY66021.1&lt;/b&gt;&lt;br&gt;oxidoreductase&lt;br&gt;Location: 23145 - 24329" locus_tag="ABY66021.1" class="clusterblast-orf" id="dummy-1_h1_5_14"  />
</g>
<g id="a1_0015"  >
<polygon points="187,90 193,90 198,85 193,80 187,80 187,90 " style="fill:white; stroke-width:1; stroke:black; " description="&lt;b&gt;ABY66020.1&lt;/b&gt;&lt;br&gt;C-methyltransferase&lt;br&gt;Location: 24584 - 25630" locus_tag="ABY66020.1" class="clusterblast-orf" id="dummy-1_h1_5_15"  />
</g>
<g id="a1_0016"  >
<polygon points="199,90 248,90 253,85 248,80 199,80 199,90 " style="fill:white; stroke-width:1; stroke:black; " description="&lt;b&gt;ABY66019.1&lt;/b&gt;&lt;br&gt;6-methylsalicylic acid synthase&lt;br&gt;Location: 25704 - 30947" locus_tag="ABY66019.1" class="clusterblast-orf" id="dummy-1_h1_5_16"  />
</g>
<g id="a1_0017"  >
<polygon points="253,90 265,90 270,85 265,80 253,80 253,90 " style="fill:white; stroke-width:1; stroke:black; " description="&lt;b&gt;ABY66018.1&lt;/b&gt;&lt;br&gt;CoA ligase&lt;br&gt;Location: 30944 - 32590" locus_tag="ABY66018.1" class="clusterblast-orf" id="dummy-1_h1_5_17"  />
</g>
<g id="a1_0018"  >
<polygon points="271,85 276,80 280,80 280,90 276,90 271,85 " style="fill:white; stroke-width:1; stroke:black; " description="&lt;b&gt;ABY66017.1&lt;/b&gt;&lt;br&gt;acetyltransferase/esterase&lt;br&gt;Location: 32644 - 33501" locus_tag="ABY66017.1" class="clusterblast-orf" id="dummy-1_h1_5_18"  />
</g>
<g id="a1_0019"  >
<polygon points="280,85 285,80 294,80 294,90 285,90 280,85 " style="fill:white; stroke-width:1; stroke:black; " description="&lt;b&gt;ABY66016.1&lt;/b&gt;&lt;br&gt;glycosyltransferase&lt;br&gt;Location: 33498 - 34898" locus_tag="ABY66016.1" class="clusterblast-orf" id="dummy-1_h1_5_19"  />
</g>
<g id="a1_0020"  >
<polygon points="296,90 299,90 304,85 299,80 296,80 296,90 " style="fill:white; stroke-width:1; stroke:black; " description="&lt;b&gt;ABY66015.1&lt;/b&gt;&lt;br&gt;DNA alkylation repair&lt;br&gt;Location: 35059 - 35796" locus_tag="ABY66015.1" class="clusterblast-orf" id="dummy-1_h1_5_20"  />
</g>
<g id="a1_0021"  >
<polygon points="304,85 309,80 317,80 317,90 309,90 304,85 " style="fill:white; stroke-width:1; stroke:black; " description="&lt;b&gt;ABY66014.1&lt;/b&gt;&lt;br&gt;P450 oxidoreductase&lt;br&gt;Location: 35858 - 37087" locus_tag="ABY66014.1" class="clusterblast-orf" id="dummy-1_h1_5_21"  />
</g>
<g id="a1_0022"  >
<polygon points="317,85 322,80 329,80 329,90 322,90 317,85 " style="fill:white; stroke-width:1; stroke:black; " description="&lt;b&gt;ABY66013.1&lt;/b&gt;&lt;br&gt;hypothetical protein&lt;br&gt;Location: 37084 - 38229" locus_tag="ABY66013.1" class="clusterblast-orf" id="dummy-1_h1_5_22"  />
</g>
<g id="a1_0023"  >
<polygon points="329,85 334,80 342,80 342,90 334,90 329,85 " style="fill:white; stroke-width:1; stroke:black; " description="&lt;b&gt;ABY66012.1&lt;/b&gt;&lt;br&gt;P450 oxidoreductase&lt;br&gt;Location: 38243 - 39478" locus_tag="ABY66012.1" class="clusterblast-orf" id="dummy-1_h1_5_23"  />
</g>
<g id="a1_0024"  >
<polygon points="342,85 347,80 356,80 356,90 347,90 342,85 " style="fill:white; stroke-width:1; stroke:black; " description="&lt;b&gt;ABY66011.1&lt;/b&gt;&lt;br&gt;aminotransferase&lt;br&gt;Location: 39512 - 40897" locus_tag="ABY66011.1" class="clusterblast-orf" id="dummy-1_h1_5_24"  />
</g>
<g id="a1_0025"  >
<polygon points="359,90 359,90 364,85 359,80 359,80 359,90 " style="fill:white; stroke-width:1; stroke:black; " description="&lt;b&gt;ABY66010.1&lt;/b&gt;&lt;br&gt;binding protein&lt;br&gt;Location: 41116 - 41619" locus_tag="ABY66010.1" class="clusterblast-orf" id="dummy-1_h1_5_25"  />
</g>
<g id="a1_0026"  >
<polygon points="370,85 375,80 386,80 386,90 375,90 370,85 " style="fill:white; stroke-width:1; stroke:black; " description="&lt;b&gt;ABY66009.1&lt;/b&gt;&lt;br&gt;transmembrane efflux protein&lt;br&gt;Location: 42173 - 43750" locus_tag="ABY66009.1" class="clusterblast-orf" id="dummy-1_h1_5_26"  />
</g>
<g id="a1_0027"  >
<polygon points="387,85 392,80 401,80 401,90 392,90 387,85 " style="fill:white; stroke-width:1; stroke:black; " description="&lt;b&gt;ABY66008.1&lt;/b&gt;&lt;br&gt;hydroxylase&lt;br&gt;Location: 43877 - 45205" locus_tag="ABY66008.1" class="clusterblast-orf" id="dummy-1_h1_5_27"  />
</g>
<g id="a1_0028"  >
<polygon points="405,85 410,80 419,80 419,90 410,90 405,85 " style="fill:white; stroke-width:1; stroke:black; " description="&lt;b&gt;ABY66007.1&lt;/b&gt;&lt;br&gt;type II condensation domain protein&lt;br&gt;Location: 45557 - 46939" locus_tag="ABY66007.1" class="clusterblast-orf" id="dummy-1_h1_5_28"  />
</g>
<g id="a1_0029"  >
<polygon points="419,85 424,80 435,80 435,90 424,90 419,85 " style="fill:white; stroke-width:1; stroke:black; " description="&lt;b&gt;ABY66006.1&lt;/b&gt;&lt;br&gt;halogenase&lt;br&gt;Location: 46957 - 48513" locus_tag="ABY66006.1" class="clusterblast-orf" id="dummy-1_h1_5_29"  />
</g>
<g id="a1_0030"  >
<polygon points="437,85 442,80 453,80 453,90 442,90 437,85 " style="fill:white; stroke-width:1; stroke:black; " description="&lt;b&gt;ABY66005.1&lt;/b&gt;&lt;br&gt;MIO-containing aminomutase&lt;br&gt;Location: 48638 - 50251" locus_tag="ABY66005.1" class="clusterblast-orf" id="dummy-1_h1_5_30"  />
</g>
<g id="a1_0031"  >
<polygon points="453,85 458,80 488,80 488,90 458,90 453,85 " style="fill:white; stroke-width:1; stroke:black; " description="&lt;b&gt;ABY66004.1&lt;/b&gt;&lt;br&gt;type II beta-Tyr adenylation domain protein&lt;br&gt;Location: 50248 - 53595" locus_tag="ABY66004.1" class="clusterblast-orf" id="dummy-1_h1_5_31"  />
</g>
<g id="a1_0032"  >
<polygon points="490,90 493,85 490,80 490,90 " style="fill:white; stroke-width:1; stroke:black; " description="&lt;b&gt;ABY66003.1&lt;/b&gt;&lt;br&gt;type II PCP domain protein&lt;br&gt;Location: 53809 - 54096" locus_tag="ABY66003.1" class="clusterblast-orf" id="dummy-1_h1_5_32"  />
</g>
<g id="a1_0033"  >
<polygon points="494,85 499,80 500,80 500,90 499,90 494,85 " style="fill:white; stroke-width:1; stroke:black; " description="&lt;b&gt;ABY66002.1&lt;/b&gt;&lt;br&gt;O-methyltransferase&lt;br&gt;Location: 54160 - 54756" locus_tag="ABY66002.1" class="clusterblast-orf" id="dummy-1_h1_5_33"  />
</g>
<g id="a1_0034"  >
<polygon points="501,85 506,80 509,80 509,90 506,90 501,85 " style="fill:white; stroke-width:1; stroke:black; " description="&lt;b&gt;ABY66001.1&lt;/b&gt;&lt;br&gt;unknown&lt;br&gt;Location: 54864 - 55667" locus_tag="ABY66001.1" class="clusterblast-orf" id="dummy-1_h1_5_34"  />
</g>
<g id="a1_0035"  >
<polygon points="510,85 515,80 522,80 522,90 515,90 510,85 " style="fill:white; stroke-width:1; stroke:black; " description="&lt;b&gt;ABY66000.1&lt;/b&gt;&lt;br&gt;unknown&lt;br&gt;Location: 55742 - 56839" locus_tag="ABY66000.1" class="clusterblast-orf" id="dummy-1_h1_5_35"  />
</g>
<g id="a1_0036"  >
<polygon points="522,85 527,80 539,80 539,90 527,90 522,85 " style="fill:white; stroke-width:1; stroke:black; " description="&lt;b&gt;ABY65999.1&lt;/b&gt;&lt;br&gt;oxidoreductase&lt;br&gt;Location: 56853 - 58511" locus_tag="ABY65999.1" class="clusterblast-orf" id="dummy-1_h1_5_36"  />
</g>
<g id="a1_0037"  >
<polygon points="539,85 544,80 545,80 545,90 544,90 539,85 " style="fill:white; stroke-width:1; stroke:black; " description="&lt;b&gt;ABY65998.1&lt;/b&gt;&lt;br&gt;unknown&lt;br&gt;Location: 58508 - 59077" locus_tag="ABY65998.1" class="clusterblast-orf" id="dummy-1_h1_5_37"  />
</g>
<g id="a1_0038"  >
<polygon points="550,90 555,90 560,85 555,80 550,80 550,90 " style="fill:white; stroke-width:1; stroke:black; " description="&lt;b&gt;ABY65997.1&lt;/b&gt;&lt;br&gt;regulatory protein&lt;br&gt;Location: 59561 - 60574" locus_tag="ABY65997.1" class="clusterblast-orf" id="dummy-1_h1_5_38"  />
</g>
<g id="a1_0039"  >
<polygon points="563,90 566,90 571,85 566,80 563,80 563,90 " style="fill:white; stroke-width:1; stroke:black; " description="&lt;b&gt;ABY65996.1&lt;/b&gt;&lt;br&gt;transcription regulatory protein&lt;br&gt;Location: 60834 - 61589" locus_tag="ABY65996.1" class="clusterblast-orf" id="dummy-1_h1_5_39"  />
</g>
<g id="a1_0040"  >
<polygon points="572,85 577,80 586,80 586,90 577,90 572,85 " style="fill:white; stroke-width:1; stroke:black; " description="&lt;b&gt;AAQ17113.2&lt;/b&gt;&lt;br&gt;putative P450 hydroxylase&lt;br&gt;Location: 61675 - 63069" locus_tag="AAQ17113.2" class="clusterblast-orf" id="dummy-1_h1_5_40"  />
</g>
<g id="a1_0041"  >
<polygon points="586,85 591,80 592,80 592,90 591,90 586,85 " style="fill:#d81515; stroke-width:1; stroke:black; " description="&lt;b&gt;AAQ17112.1&lt;/b&gt;&lt;br&gt;flavin reductase&lt;br&gt;Location: 63066 - 63617&lt;br&gt;&lt;br&gt;&lt;b&gt;BlastP hit with cds970_1519&lt;/b&gt;&lt;br&gt;Percentage identity: 56&lt;br&gt;Percentage coverage: 97&lt;br&gt;BLAST bit score: 187&lt;br&gt;E-value: 2.1e-47" locus_tag="AAQ17112.1" class="clusterblast-orf" id="dummy-1_h1_5_41"  />
</g>
<g id="a1_0042"  >
<polygon points="592,85 597,80 597,80 597,90 597,90 592,85 " style="fill:#4dd815; stroke-width:1; stroke:black; " description="&lt;b&gt;AAQ17111.1&lt;/b&gt;&lt;br&gt;type II thioesterase&lt;br&gt;Location: 63614 - 64072&lt;br&gt;&lt;br&gt;&lt;b&gt;BlastP hit with cds1515_1989&lt;/b&gt;&lt;br&gt;Percentage identity: 48&lt;br&gt;Percentage coverage: 95&lt;br&gt;BLAST bit score: 131&lt;br&gt;E-value: 9.2e-31" locus_tag="AAQ17111.1" class="clusterblast-orf" id="dummy-1_h1_5_42"  />
</g>
<g id="a1_0043"  >
<polygon points="597,85 602,80 657,80 657,90 602,90 597,85 " style="fill:#1585d8; stroke-width:1; stroke:black; " description="&lt;b&gt;AAQ17110.2&lt;/b&gt;&lt;br&gt;enediyne polyketide synthase&lt;br&gt;Location: 64077 - 69911&lt;br&gt;&lt;br&gt;&lt;b&gt;BlastP hit with cds1985_7793&lt;/b&gt;&lt;br&gt;Percentage identity: 65&lt;br&gt;Percentage coverage: 101&lt;br&gt;BLAST bit score: 2364&lt;br&gt;E-value: 0.0" locus_tag="AAQ17110.2" class="clusterblast-orf" id="dummy-1_h1_5_43"  />
</g>
<g id="a1_0044"  >
<polygon points="657,85 662,80 667,80 667,90 662,90 657,85 " style="fill:#a115d8; stroke-width:1; stroke:black; " description="&lt;b&gt;AAQ17109.1&lt;/b&gt;&lt;br&gt;unknown&lt;br&gt;Location: 69908 - 70900&lt;br&gt;&lt;br&gt;&lt;b&gt;BlastP hit with cds7789_8875&lt;/b&gt;&lt;br&gt;Percentage identity: 73&lt;br&gt;Percentage coverage: 82&lt;br&gt;BLAST bit score: 443&lt;br&gt;E-value: 2.5e-124" locus_tag="AAQ17109.1" class="clusterblast-orf" id="dummy-1_h1_5_44"  />
</g>
<g id="a1_0045"  >
<polygon points="667,85 672,80 689,80 689,90 672,90 667,85 " style="fill:#d86915; stroke-width:1; stroke:black; " description="&lt;b&gt;AAQ17108.2&lt;/b&gt;&lt;br&gt;unknown&lt;br&gt;Location: 70907 - 72943&lt;br&gt;&lt;br&gt;&lt;b&gt;BlastP hit with cds8876_10805&lt;/b&gt;&lt;br&gt;Percentage identity: 59&lt;br&gt;Percentage coverage: 104&lt;br&gt;BLAST bit score: 791&lt;br&gt;E-value: 8.7e-229" locus_tag="AAQ17108.2" class="clusterblast-orf" id="dummy-1_h1_5_45"  />
</g>
<g id="a1_0046"  >
<polygon points="689,85 694,80 698,80 698,90 694,90 689,85 " style="fill:#15d831; stroke-width:1; stroke:black; " description="&lt;b&gt;AAQ17107.2&lt;/b&gt;&lt;br&gt;hypothetical protein&lt;br&gt;Location: 72947 - 73849&lt;br&gt;&lt;br&gt;&lt;b&gt;BlastP hit with cds10801_11788&lt;/b&gt;&lt;br&gt;Percentage identity: 53&lt;br&gt;Percentage coverage: 91&lt;br&gt;BLAST bit score: 303&lt;br&gt;E-value: 4.8e-82" locus_tag="AAQ17107.2" class="clusterblast-orf" id="dummy-1_h1_5_46"  />
</g>
<g id="a1_0047"  >
<polygon points="701,85 706,80 712,80 712,90 706,90 701,85 " style="fill:#1531d8; stroke-width:1; stroke:black; " description="&lt;b&gt;ABY65995.1&lt;/b&gt;&lt;br&gt;unknown&lt;br&gt;Location: 74178 - 75173&lt;br&gt;&lt;br&gt;&lt;b&gt;BlastP hit with cds11883_12864&lt;/b&gt;&lt;br&gt;Percentage identity: 62&lt;br&gt;Percentage coverage: 99&lt;br&gt;BLAST bit score: 376&lt;br&gt;E-value: 5.8e-104" locus_tag="ABY65995.1" class="clusterblast-orf" id="dummy-1_h1_5_47"  />
</g>
<g id="a1_0048"  >
<polygon points="715,90 725,90 730,85 725,80 715,80 715,90 " style="fill:white; stroke-width:1; stroke:black; " description="&lt;b&gt;ABY65994.1&lt;/b&gt;&lt;br&gt;aldehyde dehydrogenase&lt;br&gt;Location: 75463 - 76965" locus_tag="ABY65994.1" class="clusterblast-orf" id="dummy-1_h1_5_48"  />
</g>
<g id="a1_0049"  >
<polygon points="730,90 730,90 735,85 730,80 730,80 730,90 " style="fill:white; stroke-width:1; stroke:black; " description="&lt;b&gt;ABY65993.1&lt;/b&gt;&lt;br&gt;acetyltransferase&lt;br&gt;Location: 76968 - 77456" locus_tag="ABY65993.1" class="clusterblast-orf" id="dummy-1_h1_5_49"  />
</g>
<g id="a1_0050"  >
<polygon points="739,85 744,80 755,80 755,90 744,90 739,85 " style="fill:white; stroke-width:1; stroke:black; " description="&lt;b&gt;ABY65992.1&lt;/b&gt;&lt;br&gt;alcohol dehydrogenase&lt;br&gt;Location: 77809 - 79386" locus_tag="ABY65992.1" class="clusterblast-orf" id="dummy-1_h1_5_50"  />
</g>
<g id="a1_0051"  >
<polygon points="756,90 758,90 763,85 758,80 756,80 756,90 " style="fill:white; stroke-width:1; stroke:black; " description="&lt;b&gt;ABY65991.1&lt;/b&gt;&lt;br&gt;unknown&lt;br&gt;Location: 79465 - 80091" locus_tag="ABY65991.1" class="clusterblast-orf" id="dummy-1_h1_5_51"  />
</g>
<g id="a1_0052"  >
<polygon points="763,85 768,80 780,80 780,90 768,90 763,85 " style="fill:white; stroke-width:1; stroke:black; " description="&lt;b&gt;ABY65990.1&lt;/b&gt;&lt;br&gt;predicted peptidase&lt;br&gt;Location: 80148 - 81719" locus_tag="ABY65990.1" class="clusterblast-orf" id="dummy-1_h1_5_52"  />
</g>
</svg>
