<svg xmlns="http://www.w3.org/2000/svg" xmlns:xlink="http://www.w3.org/1999/xlink" version="1.1" x="0" y="0" height="230" width="800" viewBox="0 0 800 230" preserveAspectRatio="none"  >
<g label="Query sequence" class="clusterblast-cluster"  >
<text x="5" y="20" class="clusterblast-acc"  >
Query sequence</text>
<line x1="10" y1="35" x2="778.0" y2="35" style="stroke-width:1; stroke:grey; "  />
<polygon points="171,35 176,30 185,30 185,40 176,40 171,35 " style="fill:white; stroke-width:1; stroke:black; " description="&lt;b&gt;cds61435_62263&lt;/b&gt;&lt;br&gt;hypothetical protein&lt;br&gt;Location: 61435 - 62263" locus_tag="cds61435_62263" class="clusterblast-orf" id="dummy-1_q0_0_all"  />
<polygon points="188,35 193,30 204,30 204,40 193,40 188,35 " style="fill:white; stroke-width:1; stroke:black; " description="&lt;b&gt;cds62425_63364&lt;/b&gt;&lt;br&gt;hypothetical protein&lt;br&gt;Location: 62425 - 63364" locus_tag="cds62425_63364" class="clusterblast-orf" id="dummy-1_q1_0_all"  />
<polygon points="214,40 223,40 228,35 223,30 214,30 214,40 " style="fill:white; stroke-width:1; stroke:black; " description="&lt;b&gt;cds63941_64766&lt;/b&gt;&lt;br&gt;hypothetical protein&lt;br&gt;Location: 63941 - 64766" locus_tag="cds63941_64766" class="clusterblast-orf" id="dummy-1_q2_0_all"  />
<polygon points="228,35 231,30 231,40 228,35 " style="fill:white; stroke-width:1; stroke:black; " description="&lt;b&gt;cds64775_64949&lt;/b&gt;&lt;br&gt;hypothetical protein&lt;br&gt;Location: 64775 - 64949" locus_tag="cds64775_64949" class="clusterblast-orf" id="dummy-1_q3_0_all"  />
<polygon points="232,35 237,30 243,30 243,40 237,40 232,35 " style="fill:#d81515; stroke-width:1; stroke:black; " description="&lt;b&gt;cds65016_65637&lt;/b&gt;&lt;br&gt;HTH-type transcriptional regulator PuuR&lt;br&gt;Location: 65016 - 65637" locus_tag="cds65016_65637" class="clusterblast-orf" id="dummy-1_q4_0_all"  />
<polygon points="243,35 248,30 267,30 267,40 248,40 243,35 " style="fill:#77d815; stroke-width:1; stroke:black; " description="&lt;b&gt;cds65693_67088&lt;/b&gt;&lt;br&gt;Aminotransferase PigE&lt;br&gt;Location: 65693 - 67088" locus_tag="cds65693_67088" class="clusterblast-orf" id="dummy-1_q5_0_all"  />
<polygon points="267,35 272,30 299,30 299,40 272,40 267,35 " style="fill:#15d8d8; stroke-width:1; stroke:black; " description="&lt;b&gt;cds67084_68995&lt;/b&gt;&lt;br&gt;1-deoxy-D-xylulose-5-phosphate synthase&lt;br&gt;Location: 67084 - 68995" locus_tag="cds67084_68995" class="clusterblast-orf" id="dummy-1_q6_0_all"  />
<polygon points="302,35 307,30 319,30 319,40 307,40 302,35 " style="fill:#7715d8; stroke-width:1; stroke:black; " description="&lt;b&gt;cds69168_70188&lt;/b&gt;&lt;br&gt;GTP 3',8-cyclase&lt;br&gt;Location: 69168 - 70188" locus_tag="cds69168_70188" class="clusterblast-orf" id="dummy-1_q7_0_all"  />
<polygon points="320,35 325,30 331,30 331,40 325,40 320,35 " style="fill:#d87715; stroke-width:1; stroke:black; " description="&lt;b&gt;cds70194_70854&lt;/b&gt;&lt;br&gt;hypothetical protein&lt;br&gt;Location: 70194 - 70854" locus_tag="cds70194_70854" class="clusterblast-orf" id="dummy-1_q8_0_all"  />
<polygon points="331,35 336,30 365,30 365,40 336,40 331,35 " style="fill:#15d815; stroke-width:1; stroke:black; " description="&lt;b&gt;cds70858_72871&lt;/b&gt;&lt;br&gt;Squalene--hopene cyclase&lt;br&gt;Location: 70858 - 72871" locus_tag="cds70858_72871" class="clusterblast-orf" id="dummy-1_q9_0_all"  />
<polygon points="366,35 371,30 385,30 385,40 371,40 366,35 " style="fill:#1577d8; stroke-width:1; stroke:black; " description="&lt;b&gt;cds72971_74075&lt;/b&gt;&lt;br&gt;(2E,6E)-farnesyl diphosphate synthase&lt;br&gt;Location: 72971 - 74075" locus_tag="cds72971_74075" class="clusterblast-orf" id="dummy-1_q10_0_all"  />
<polygon points="385,35 390,30 409,30 409,40 390,40 385,35 " style="fill:#d815d8; stroke-width:1; stroke:black; " description="&lt;b&gt;cds74071_75460&lt;/b&gt;&lt;br&gt;Hydroxysqualene dehydroxylase&lt;br&gt;Location: 74071 - 75460" locus_tag="cds74071_75460" class="clusterblast-orf" id="dummy-1_q11_0_all"  />
<polygon points="410,35 415,30 426,30 426,40 415,40 410,35 " style="fill:#d8d815; stroke-width:1; stroke:black; " description="&lt;b&gt;cds75548_76502&lt;/b&gt;&lt;br&gt;Phytoene synthase&lt;br&gt;Location: 75548 - 76502" locus_tag="cds75548_76502" class="clusterblast-orf" id="dummy-1_q12_0_all"  />
<polygon points="426,35 431,30 442,30 442,40 431,40 426,35 " style="fill:#15d877; stroke-width:1; stroke:black; " description="&lt;b&gt;cds76498_77416&lt;/b&gt;&lt;br&gt;hypothetical protein&lt;br&gt;Location: 76498 - 77416" locus_tag="cds76498_77416" class="clusterblast-orf" id="dummy-1_q13_0_all"  />
<polygon points="449,35 454,30 462,30 462,40 454,40 449,35 " style="fill:white; stroke-width:1; stroke:black; " description="&lt;b&gt;cds77840_78626&lt;/b&gt;&lt;br&gt;Vitamin B12 import ATP-binding protein BtuD&lt;br&gt;Location: 77840 - 78626" locus_tag="cds77840_78626" class="clusterblast-orf" id="dummy-1_q14_0_all"  />
<polygon points="462,35 467,30 478,30 478,40 467,40 462,35 " style="fill:white; stroke-width:1; stroke:black; " description="&lt;b&gt;cds78618_79548&lt;/b&gt;&lt;br&gt;hypothetical protein&lt;br&gt;Location: 78618 - 79548" locus_tag="cds78618_79548" class="clusterblast-orf" id="dummy-1_q15_0_all"  />
<polygon points="479,35 484,30 494,30 494,40 484,40 479,35 " style="fill:white; stroke-width:1; stroke:black; " description="&lt;b&gt;cds79656_80529&lt;/b&gt;&lt;br&gt;hypothetical protein&lt;br&gt;Location: 79656 - 80529" locus_tag="cds79656_80529" class="clusterblast-orf" id="dummy-1_q16_0_all"  />
<polygon points="494,35 499,30 508,30 508,40 499,40 494,35 " style="fill:white; stroke-width:1; stroke:black; " description="&lt;b&gt;cds80537_81317&lt;/b&gt;&lt;br&gt;hypothetical protein&lt;br&gt;Location: 80537 - 81317" locus_tag="cds80537_81317" class="clusterblast-orf" id="dummy-1_q17_0_all"  />
<polygon points="507,35 512,30 525,30 525,40 512,40 507,35 " style="fill:#1515d8; stroke-width:1; stroke:black; " description="&lt;b&gt;cds81294_82356&lt;/b&gt;&lt;br&gt;hypothetical protein&lt;br&gt;Location: 81294 - 82356" locus_tag="cds81294_82356" class="clusterblast-orf" id="dummy-1_q18_0_all"  />
<polygon points="525,35 530,30 537,30 537,40 530,40 525,35 " style="fill:#d81577; stroke-width:1; stroke:black; " description="&lt;b&gt;cds82343_83081&lt;/b&gt;&lt;br&gt;Glucose-1-phosphate adenylyltransferase&lt;br&gt;Location: 82343 - 83081" locus_tag="cds82343_83081" class="clusterblast-orf" id="dummy-1_q19_0_all"  />
<polygon points="537,35 542,30 567,30 567,40 542,40 537,35 " style="fill:white; stroke-width:1; stroke:black; " description="&lt;b&gt;cds83077_84832&lt;/b&gt;&lt;br&gt;hypothetical protein&lt;br&gt;Location: 83077 - 84832" locus_tag="cds83077_84832" class="clusterblast-orf" id="dummy-1_q20_0_all"  />
<polygon points="572,40 584,40 589,35 584,30 572,30 572,40 " style="fill:white; stroke-width:1; stroke:black; " description="&lt;b&gt;cds85141_86128&lt;/b&gt;&lt;br&gt;UDP-glucose 4-epimerase&lt;br&gt;Location: 85141 - 86128" locus_tag="cds85141_86128" class="clusterblast-orf" id="dummy-1_q21_0_all"  />
<polygon points="592,40 603,40 608,35 603,30 592,30 592,40 " style="fill:white; stroke-width:1; stroke:black; " description="&lt;b&gt;cds86309_87251&lt;/b&gt;&lt;br&gt;Metal cation efflux system protein CzcD&lt;br&gt;Location: 86309 - 87251" locus_tag="cds86309_87251" class="clusterblast-orf" id="dummy-1_q22_0_all"  />
</g>
<g label="BGC0001898" description="BGC0001898_c1: thioplatensimycin / thioplatencin (4% of genes show similarity), Terpene" class="clusterblast-cluster"  >
<text x="5" y="70" class="clusterblast-acc"  >
<a xlink:href="https://mibig.secondarymetabolites.org/go/BGC0001898/1" target="_blank">BGC0001898</a>:                                                thioplatensimycin / thioplatencin (4% of genes show similarity), Terpene</text>
<line x1="10" y1="85" x2="778.0" y2="85" style="stroke-width:1; stroke:grey; "  />
</g>
<g id="a1_000"  >
<polygon points="0,90 14,90 19,85 14,80 0,80 0,90 " style="fill:white; stroke-width:1; stroke:black; " description="&lt;b&gt;ACS13713.1&lt;/b&gt;&lt;br&gt;unknown&lt;br&gt;Location: 46907 - 45738" locus_tag="ACS13713.1" class="clusterblast-orf" id="dummy-1_h1_7_0"  />
</g>
<g id="a1_001"  >
<polygon points="21,85 26,80 27,80 27,90 26,90 21,85 " style="fill:white; stroke-width:1; stroke:black; " description="&lt;b&gt;ACS13712.1&lt;/b&gt;&lt;br&gt;PtmO9&lt;br&gt;Location: 45606 - 45271" locus_tag="ACS13712.1" class="clusterblast-orf" id="dummy-1_h1_7_1"  />
</g>
<g id="a1_002"  >
<polygon points="28,85 33,80 55,80 55,90 33,90 28,85 " style="fill:white; stroke-width:1; stroke:black; " description="&lt;b&gt;ACS13711.1&lt;/b&gt;&lt;br&gt;PtmP4&lt;br&gt;Location: 45247 - 43625" locus_tag="ACS13711.1" class="clusterblast-orf" id="dummy-1_h1_7_2"  />
</g>
<g id="a1_003"  >
<polygon points="57,85 62,80 77,80 77,90 62,90 57,85 " style="fill:white; stroke-width:1; stroke:black; " description="&lt;b&gt;ACS13710.1&lt;/b&gt;&lt;br&gt;PtmP3&lt;br&gt;Location: 43507 - 42293" locus_tag="ACS13710.1" class="clusterblast-orf" id="dummy-1_h1_7_3"  />
</g>
<g id="a1_004"  >
<polygon points="80,85 85,80 107,80 107,90 85,90 80,85 " style="fill:white; stroke-width:1; stroke:black; " description="&lt;b&gt;ACO31297.1&lt;/b&gt;&lt;br&gt;PtmA3&lt;br&gt;Location: 42125 - 40542" locus_tag="ACO31297.1" class="clusterblast-orf" id="dummy-1_h1_7_4"  />
</g>
<g id="a1_005"  >
<polygon points="108,85 113,80 138,80 138,90 113,90 108,85 " style="fill:white; stroke-width:1; stroke:black; " description="&lt;b&gt;ACO31296.1&lt;/b&gt;&lt;br&gt;PtmU4&lt;br&gt;Location: 40503 - 38713" locus_tag="ACO31296.1" class="clusterblast-orf" id="dummy-1_h1_7_5"  />
</g>
<g id="a1_006"  >
<polygon points="138,85 143,80 152,80 152,90 143,90 138,85 " style="fill:white; stroke-width:1; stroke:black; " description="&lt;b&gt;ACO31295.1&lt;/b&gt;&lt;br&gt;PtmO8&lt;br&gt;Location: 38716 - 37880" locus_tag="ACO31295.1" class="clusterblast-orf" id="dummy-1_h1_7_6"  />
</g>
<g id="a1_007"  >
<polygon points="157,90 164,90 169,85 164,80 157,80 157,90 " style="fill:white; stroke-width:1; stroke:black; " description="&lt;b&gt;ACO31294.1&lt;/b&gt;&lt;br&gt;PtmR1&lt;br&gt;Location: 37588 - 36872" locus_tag="ACO31294.1" class="clusterblast-orf" id="dummy-1_h1_7_7"  />
</g>
<g id="a1_008"  >
<polygon points="170,85 175,80 185,80 185,90 175,90 170,85 " style="fill:white; stroke-width:1; stroke:black; " description="&lt;b&gt;ACO31293.1&lt;/b&gt;&lt;br&gt;PtmO7&lt;br&gt;Location: 36839 - 35934" locus_tag="ACO31293.1" class="clusterblast-orf" id="dummy-1_h1_7_8"  />
</g>
<g id="a1_009"  >
<polygon points="185,85 190,80 206,80 206,90 190,90 185,85 " style="fill:white; stroke-width:1; stroke:black; " description="&lt;b&gt;ACO31292.1&lt;/b&gt;&lt;br&gt;PtmP2&lt;br&gt;Location: 35919 - 34675" locus_tag="ACO31292.1" class="clusterblast-orf" id="dummy-1_h1_7_9"  />
</g>
<g id="a1_0010"  >
<polygon points="207,90 227,90 232,85 227,80 207,80 207,90 " style="fill:white; stroke-width:1; stroke:black; " description="&lt;b&gt;ACO31291.1&lt;/b&gt;&lt;br&gt;PtmP1&lt;br&gt;Location: 34603 - 33179" locus_tag="ACO31291.1" class="clusterblast-orf" id="dummy-1_h1_7_10"  />
</g>
<g id="a1_0011"  >
<polygon points="233,85 238,80 248,80 248,90 238,90 233,85 " style="fill:white; stroke-width:1; stroke:black; " description="&lt;b&gt;ACO31290.1&lt;/b&gt;&lt;br&gt;PtmC&lt;br&gt;Location: 33093 - 32218" locus_tag="ACO31290.1" class="clusterblast-orf" id="dummy-1_h1_7_11"  />
</g>
<g id="a1_0012"  >
<polygon points="249,85 254,80 269,80 269,90 254,90 249,85 " style="fill:white; stroke-width:1; stroke:black; " description="&lt;b&gt;ACO31289.1&lt;/b&gt;&lt;br&gt;PtmB3&lt;br&gt;Location: 32159 - 30969" locus_tag="ACO31289.1" class="clusterblast-orf" id="dummy-1_h1_7_12"  />
</g>
<g id="a1_0013"  >
<polygon points="269,85 274,80 288,80 288,90 274,90 269,85 " style="fill:white; stroke-width:1; stroke:black; " description="&lt;b&gt;ACO31288.1&lt;/b&gt;&lt;br&gt;PtmB2&lt;br&gt;Location: 30963 - 29857" locus_tag="ACO31288.1" class="clusterblast-orf" id="dummy-1_h1_7_13"  />
</g>
<g id="a1_0014"  >
<polygon points="289,85 294,80 303,80 303,90 294,90 289,85 " style="fill:white; stroke-width:1; stroke:black; " description="&lt;b&gt;ACO31287.1&lt;/b&gt;&lt;br&gt;PtmB1&lt;br&gt;Location: 29805 - 28972" locus_tag="ACO31287.1" class="clusterblast-orf" id="dummy-1_h1_7_14"  />
</g>
<g id="a1_0015"  >
<polygon points="304,85 309,80 334,80 334,90 309,90 304,85 " style="fill:#15d8d8; stroke-width:1; stroke:black; " description="&lt;b&gt;ACO31286.1&lt;/b&gt;&lt;br&gt;PtmM3&lt;br&gt;Location: 28894 - 27131&lt;br&gt;&lt;br&gt;&lt;b&gt;BlastP hit with cds67084_68995&lt;/b&gt;&lt;br&gt;Percentage identity: 59&lt;br&gt;Percentage coverage: 95&lt;br&gt;BLAST bit score: 675&lt;br&gt;E-value: 1.2e-193" locus_tag="ACO31286.1" class="clusterblast-orf" id="dummy-1_h1_7_15"  />
</g>
<g id="a1_0016"  >
<polygon points="334,85 339,80 352,80 352,90 339,90 334,85 " style="fill:white; stroke-width:1; stroke:black; " description="&lt;b&gt;ACO31285.1&lt;/b&gt;&lt;br&gt;PtmM2&lt;br&gt;Location: 27144 - 26044" locus_tag="ACO31285.1" class="clusterblast-orf" id="dummy-1_h1_7_16"  />
</g>
<g id="a1_0017"  >
<polygon points="352,85 357,80 375,80 375,90 357,90 352,85 " style="fill:white; stroke-width:1; stroke:black; " description="&lt;b&gt;ACO31284.1&lt;/b&gt;&lt;br&gt;PtmM1&lt;br&gt;Location: 26036 - 24690" locus_tag="ACO31284.1" class="clusterblast-orf" id="dummy-1_h1_7_17"  />
</g>
<g id="a1_0018"  >
<polygon points="375,85 380,80 393,80 393,90 380,90 375,85 " style="fill:#1577d8; stroke-width:1; stroke:black; " description="&lt;b&gt;ACO31283.1&lt;/b&gt;&lt;br&gt;PtmT4&lt;br&gt;Location: 24690 - 23644&lt;br&gt;&lt;br&gt;&lt;b&gt;BlastP hit with cds72971_74075&lt;/b&gt;&lt;br&gt;Percentage identity: 46&lt;br&gt;Percentage coverage: 91&lt;br&gt;BLAST bit score: 252&lt;br&gt;E-value: 8.3e-67" locus_tag="ACO31283.1" class="clusterblast-orf" id="dummy-1_h1_7_18"  />
</g>
<g id="a1_0019"  >
<polygon points="394,85 399,80 408,80 408,90 399,90 394,85 " style="fill:white; stroke-width:1; stroke:black; " description="&lt;b&gt;ACO31282.1&lt;/b&gt;&lt;br&gt;PtmO6&lt;br&gt;Location: 23587 - 22745" locus_tag="ACO31282.1" class="clusterblast-orf" id="dummy-1_h1_7_19"  />
</g>
<g id="a1_0020"  >
<polygon points="409,85 414,80 427,80 427,90 414,90 409,85 " style="fill:white; stroke-width:1; stroke:black; " description="&lt;b&gt;ACO31281.1&lt;/b&gt;&lt;br&gt;PtmR3&lt;br&gt;Location: 22657 - 21590" locus_tag="ACO31281.1" class="clusterblast-orf" id="dummy-1_h1_7_20"  />
</g>
<g id="a1_0021"  >
<polygon points="427,85 432,80 449,80 449,90 432,90 427,85 " style="fill:white; stroke-width:1; stroke:black; " description="&lt;b&gt;ACO31280.1&lt;/b&gt;&lt;br&gt;PtmO5&lt;br&gt;Location: 21593 - 20301" locus_tag="ACO31280.1" class="clusterblast-orf" id="dummy-1_h1_7_21"  />
</g>
<g id="a1_0022"  >
<polygon points="450,85 455,80 466,80 466,90 455,90 450,85 " style="fill:white; stroke-width:1; stroke:black; " description="&lt;b&gt;ACO31279.1&lt;/b&gt;&lt;br&gt;PtmT3&lt;br&gt;Location: 20260 - 19331" locus_tag="ACO31279.1" class="clusterblast-orf" id="dummy-1_h1_7_22"  />
</g>
<g id="a1_0023"  >
<polygon points="466,85 471,80 485,80 485,90 471,90 466,85 " style="fill:white; stroke-width:1; stroke:black; " description="&lt;b&gt;ACO31278.1&lt;/b&gt;&lt;br&gt;PtmO4&lt;br&gt;Location: 19334 - 18168" locus_tag="ACO31278.1" class="clusterblast-orf" id="dummy-1_h1_7_23"  />
</g>
<g id="a1_0024"  >
<polygon points="485,85 490,80 500,80 500,90 490,90 485,85 " style="fill:white; stroke-width:1; stroke:black; " description="&lt;b&gt;ACO31277.1&lt;/b&gt;&lt;br&gt;PtmO3&lt;br&gt;Location: 18168 - 17311" locus_tag="ACO31277.1" class="clusterblast-orf" id="dummy-1_h1_7_24"  />
</g>
<g id="a1_0025"  >
<polygon points="502,90 524,90 529,85 524,80 502,80 502,90 " style="fill:white; stroke-width:1; stroke:black; " description="&lt;b&gt;ACO31276.1&lt;/b&gt;&lt;br&gt;PtmT2&lt;br&gt;Location: 17173 - 15572" locus_tag="ACO31276.1" class="clusterblast-orf" id="dummy-1_h1_7_25"  />
</g>
<g id="a1_0026"  >
<polygon points="529,90 546,90 551,85 546,80 529,80 529,90 " style="fill:white; stroke-width:1; stroke:black; " description="&lt;b&gt;ACO31275.1&lt;/b&gt;&lt;br&gt;PtmO2&lt;br&gt;Location: 15572 - 14250" locus_tag="ACO31275.1" class="clusterblast-orf" id="dummy-1_h1_7_26"  />
</g>
<g id="a1_0027"  >
<polygon points="551,90 562,90 567,85 562,80 551,80 551,90 " style="fill:white; stroke-width:1; stroke:black; " description="&lt;b&gt;ACO31274.1&lt;/b&gt;&lt;br&gt;PtmT1&lt;br&gt;Location: 14253 - 13327" locus_tag="ACO31274.1" class="clusterblast-orf" id="dummy-1_h1_7_27"  />
</g>
<g id="a1_0028"  >
<polygon points="568,90 578,90 583,85 578,80 568,80 568,90 " style="fill:white; stroke-width:1; stroke:black; " description="&lt;b&gt;ACO31273.1&lt;/b&gt;&lt;br&gt;PtmH&lt;br&gt;Location: 13262 - 12408" locus_tag="ACO31273.1" class="clusterblast-orf" id="dummy-1_h1_7_28"  />
</g>
<g id="a1_0029"  >
<polygon points="584,90 597,90 602,85 597,80 584,80 584,90 " style="fill:white; stroke-width:1; stroke:black; " description="&lt;b&gt;ACO31272.1&lt;/b&gt;&lt;br&gt;PtmU3&lt;br&gt;Location: 12326 - 11244" locus_tag="ACO31272.1" class="clusterblast-orf" id="dummy-1_h1_7_29"  />
</g>
<g id="a1_0030"  >
<polygon points="603,90 624,90 629,85 624,80 603,80 603,90 " style="fill:white; stroke-width:1; stroke:black; " description="&lt;b&gt;ACO31271.1&lt;/b&gt;&lt;br&gt;PtmA2&lt;br&gt;Location: 11215 - 9647" locus_tag="ACO31271.1" class="clusterblast-orf" id="dummy-1_h1_7_30"  />
</g>
<g id="a1_0031"  >
<polygon points="629,90 644,90 649,85 644,80 629,80 629,90 " style="fill:white; stroke-width:1; stroke:black; " description="&lt;b&gt;ACO31270.1&lt;/b&gt;&lt;br&gt;PtmD&lt;br&gt;Location: 9645 - 8488" locus_tag="ACO31270.1" class="clusterblast-orf" id="dummy-1_h1_7_31"  />
</g>
<g id="a1_0032"  >
<polygon points="649,90 651,90 656,85 651,80 649,80 649,90 " style="fill:white; stroke-width:1; stroke:black; " description="&lt;b&gt;ACO31269.1&lt;/b&gt;&lt;br&gt;PtmR2&lt;br&gt;Location: 8488 - 8087" locus_tag="ACO31269.1" class="clusterblast-orf" id="dummy-1_h1_7_32"  />
</g>
<g id="a1_0033"  >
<polygon points="656,85 661,80 668,80 668,90 661,90 656,85 " style="fill:white; stroke-width:1; stroke:black; " description="&lt;b&gt;ACO31268.1&lt;/b&gt;&lt;br&gt;PtmU2&lt;br&gt;Location: 8041 - 7331" locus_tag="ACO31268.1" class="clusterblast-orf" id="dummy-1_h1_7_33"  />
</g>
<g id="a1_0034"  >
<polygon points="668,85 673,80 690,80 690,90 673,90 668,85 " style="fill:white; stroke-width:1; stroke:black; " description="&lt;b&gt;ACO31267.1&lt;/b&gt;&lt;br&gt;PtmA1&lt;br&gt;Location: 7334 - 6030" locus_tag="ACO31267.1" class="clusterblast-orf" id="dummy-1_h1_7_34"  />
</g>
<g id="a1_0035"  >
<polygon points="692,90 696,90 701,85 696,80 692,80 692,90 " style="fill:white; stroke-width:1; stroke:black; " description="&lt;b&gt;ACO31266.1&lt;/b&gt;&lt;br&gt;PtmU1&lt;br&gt;Location: 5943 - 5389" locus_tag="ACO31266.1" class="clusterblast-orf" id="dummy-1_h1_7_35"  />
</g>
<g id="a1_0036"  >
<polygon points="701,90 709,90 714,85 709,80 701,80 701,90 " style="fill:white; stroke-width:1; stroke:black; " description="&lt;b&gt;ACO31265.1&lt;/b&gt;&lt;br&gt;Ptm01&lt;br&gt;Location: 5392 - 4628" locus_tag="ACO31265.1" class="clusterblast-orf" id="dummy-1_h1_7_36"  />
</g>
<g id="a1_0037"  >
<polygon points="716,90 722,90 727,85 722,80 716,80 716,90 " style="fill:white; stroke-width:1; stroke:black; " description="&lt;b&gt;ACO31264.1&lt;/b&gt;&lt;br&gt;unknown&lt;br&gt;Location: 4531 - 3848" locus_tag="ACO31264.1" class="clusterblast-orf" id="dummy-1_h1_7_37"  />
</g>
<g id="a1_0038"  >
<polygon points="728,90 738,90 743,85 738,80 728,80 728,90 " style="fill:white; stroke-width:1; stroke:black; " description="&lt;b&gt;ACO31263.1&lt;/b&gt;&lt;br&gt;unknown&lt;br&gt;Location: 3829 - 2927" locus_tag="ACO31263.1" class="clusterblast-orf" id="dummy-1_h1_7_38"  />
</g>
<g id="a1_0039"  >
<polygon points="743,90 755,90 760,85 755,80 743,80 743,90 " style="fill:white; stroke-width:1; stroke:black; " description="&lt;b&gt;ACO31262.1&lt;/b&gt;&lt;br&gt;unknown&lt;br&gt;Location: 2911 - 1892" locus_tag="ACO31262.1" class="clusterblast-orf" id="dummy-1_h1_7_39"  />
</g>
<g id="a1_0040"  >
<polygon points="760,90 775,90 780,85 775,80 760,80 760,90 " style="fill:white; stroke-width:1; stroke:black; " description="&lt;b&gt;ACO31261.1&lt;/b&gt;&lt;br&gt;unknown&lt;br&gt;Location: 1895 - 759" locus_tag="ACO31261.1" class="clusterblast-orf" id="dummy-1_h1_7_40"  />
</g>
</svg>
