<svg xmlns="http://www.w3.org/2000/svg" xmlns:xlink="http://www.w3.org/1999/xlink" version="1.1" x="0" y="0" height="230" width="800" viewBox="0 0 800 230" preserveAspectRatio="none"  >
<g label="Query sequence" class="clusterblast-cluster"  >
<text x="5" y="20" class="clusterblast-acc"  >
Query sequence</text>
<line x1="10" y1="35" x2="778.0" y2="35" style="stroke-width:1; stroke:grey; "  />
<polygon points="0,40 85,40 90,35 85,30 0,30 0,40 " style="fill:white; stroke-width:1; stroke:black; " description="&lt;b&gt;cds52060_54325&lt;/b&gt;&lt;br&gt;Glutaryl-7-aminocephalosporanic-acid acylase&lt;br&gt;Location: 52060 - 54325" locus_tag="cds52060_54325" class="clusterblast-orf" id="dummy-1_q0_0_all"  />
<polygon points="93,35 98,30 120,30 120,40 98,40 93,35 " style="fill:white; stroke-width:1; stroke:black; " description="&lt;b&gt;cds54395_55094&lt;/b&gt;&lt;br&gt;hypothetical protein&lt;br&gt;Location: 54395 - 55094" locus_tag="cds54395_55094" class="clusterblast-orf" id="dummy-1_q1_0_all"  />
<polygon points="124,35 129,30 191,30 191,40 129,40 124,35 " style="fill:#d81515; stroke-width:1; stroke:black; " description="&lt;b&gt;cds55180_56872&lt;/b&gt;&lt;br&gt;Tryptophan 2-monooxygenase&lt;br&gt;Location: 55180 - 56872" locus_tag="cds55180_56872" class="clusterblast-orf" id="dummy-1_q2_0_all"  />
<polygon points="193,35 198,30 224,30 224,40 198,40 193,35 " style="fill:#3cd815; stroke-width:1; stroke:black; " description="&lt;b&gt;cds56918_57716&lt;/b&gt;&lt;br&gt;(R)-stereoselective amidase&lt;br&gt;Location: 56918 - 57716" locus_tag="cds56918_57716" class="clusterblast-orf" id="dummy-1_q3_0_all"  />
<polygon points="233,35 238,30 251,30 251,40 238,40 233,35 " style="fill:white; stroke-width:1; stroke:black; " description="&lt;b&gt;cds57926_58385&lt;/b&gt;&lt;br&gt;Regulatory protein AsnC&lt;br&gt;Location: 57926 - 58385" locus_tag="cds57926_58385" class="clusterblast-orf" id="dummy-1_q4_0_all"  />
<polygon points="255,35 260,30 313,30 313,40 260,40 255,35 " style="fill:white; stroke-width:1; stroke:black; " description="&lt;b&gt;cds58486_59947&lt;/b&gt;&lt;br&gt;Benzaldehyde dehydrogenase YfmT&lt;br&gt;Location: 58486 - 59947" locus_tag="cds58486_59947" class="clusterblast-orf" id="dummy-1_q5_0_all"  />
<polygon points="321,35 326,30 384,30 384,40 326,40 321,35 " style="fill:#1563d8; stroke-width:1; stroke:black; " description="&lt;b&gt;cds60142_61738&lt;/b&gt;&lt;br&gt;putative oxidoreductase&lt;br&gt;Location: 60142 - 61738" locus_tag="cds60142_61738" class="clusterblast-orf" id="dummy-1_q6_0_all"  />
<polygon points="390,40 427,40 432,35 427,30 390,30 390,40 " style="fill:white; stroke-width:1; stroke:black; " description="&lt;b&gt;cds61903_62956&lt;/b&gt;&lt;br&gt;Germacrene A synthase&lt;br&gt;Location: 61903 - 62956" locus_tag="cds61903_62956" class="clusterblast-orf" id="dummy-1_q7_0_all"  />
<polygon points="435,35 440,30 475,30 475,40 440,40 435,35 " style="fill:#b115d8; stroke-width:1; stroke:black; " description="&lt;b&gt;cds63013_64036&lt;/b&gt;&lt;br&gt;Sorbitol operon regulator&lt;br&gt;Location: 63013 - 64036" locus_tag="cds63013_64036" class="clusterblast-orf" id="dummy-1_q8_0_all"  />
<polygon points="479,35 484,30 506,30 506,40 484,40 479,35 " style="fill:#d88a15; stroke-width:1; stroke:black; " description="&lt;b&gt;cds64138_64822&lt;/b&gt;&lt;br&gt;Ribulose-phosphate 3-epimerase&lt;br&gt;Location: 64138 - 64822" locus_tag="cds64138_64822" class="clusterblast-orf" id="dummy-1_q9_0_all"  />
<polygon points="513,35 518,30 570,30 570,40 518,40 513,35 " style="fill:#15d863; stroke-width:1; stroke:black; " description="&lt;b&gt;cds64989_66423&lt;/b&gt;&lt;br&gt;Putative methyltransferase&lt;br&gt;Location: 64989 - 66423" locus_tag="cds64989_66423" class="clusterblast-orf" id="dummy-1_q10_0_all"  />
<polygon points="573,35 578,30 610,30 610,40 578,40 573,35 " style="fill:#3c15d8; stroke-width:1; stroke:black; " description="&lt;b&gt;cds66502_67435&lt;/b&gt;&lt;br&gt;Methionyl-tRNA formyltransferase&lt;br&gt;Location: 66502 - 67435" locus_tag="cds66502_67435" class="clusterblast-orf" id="dummy-1_q11_0_all"  />
<polygon points="620,40 636,40 641,35 636,30 620,30 620,40 " style="fill:#d8158a; stroke-width:1; stroke:black; " description="&lt;b&gt;cds67695_68208&lt;/b&gt;&lt;br&gt;hypothetical protein&lt;br&gt;Location: 67695 - 68208" locus_tag="cds67695_68208" class="clusterblast-orf" id="dummy-1_q12_0_all"  />
<polygon points="642,35 647,30 727,30 727,40 647,40 642,35 " style="fill:#b1d815; stroke-width:1; stroke:black; " description="&lt;b&gt;cds68246_70391&lt;/b&gt;&lt;br&gt;putative primosomal protein N'&lt;br&gt;Location: 68246 - 70391" locus_tag="cds68246_70391" class="clusterblast-orf" id="dummy-1_q13_0_all"  />
<polygon points="732,35 737,30 780,30 780,40 737,40 732,35 " style="fill:#15d8d8; stroke-width:1; stroke:black; " description="&lt;b&gt;cds70508_71717&lt;/b&gt;&lt;br&gt;S-adenosylmethionine synthase&lt;br&gt;Location: 70508 - 71717" locus_tag="cds70508_71717" class="clusterblast-orf" id="dummy-1_q14_0_all"  />
</g>
<g label="BGC0002034" description="BGC0002034_c1: perquinoline A / perquinoline B / perquinoline C (14% of genes show similarity), Other" class="clusterblast-cluster"  >
<text x="5" y="70" class="clusterblast-acc"  >
<a xlink:href="https://mibig.secondarymetabolites.org/go/BGC0002034/1" target="_blank">BGC0002034</a>:                                 perquinoline A / perquinoline B / perquinoline C (14% of genes show similarity), Other</text>
<line x1="10" y1="85" x2="778.0" y2="85" style="stroke-width:1; stroke:grey; "  />
</g>
<g id="a1_000"  >
<polygon points="5,90 46,90 51,85 46,80 5,80 5,90 " style="fill:white; stroke-width:1; stroke:black; " description="&lt;b&gt;EW053_28335&lt;/b&gt;&lt;br&gt;epoxide hydrolase&lt;br&gt;Location: 1 - 1173" locus_tag="EW053_28335" class="clusterblast-orf" id="dummy-1_h1_3_0"  />
</g>
<g id="a1_001"  >
<polygon points="56,85 61,80 182,80 182,90 61,90 56,85 " style="fill:white; stroke-width:1; stroke:black; " description="&lt;b&gt;EW053_28340&lt;/b&gt;&lt;br&gt;amidohydrolase&lt;br&gt;Location: 1280 - 4465" locus_tag="EW053_28340" class="clusterblast-orf" id="dummy-1_h1_3_1"  />
</g>
<g id="a1_002"  >
<polygon points="182,85 187,80 232,80 232,90 187,90 182,85 " style="fill:white; stroke-width:1; stroke:black; " description="&lt;b&gt;EW053_28345&lt;/b&gt;&lt;br&gt;PLP-dependent aminotransferase family protein&lt;br&gt;Location: 4470 - 5720" locus_tag="EW053_28345" class="clusterblast-orf" id="dummy-1_h1_3_2"  />
</g>
<g id="a1_003"  >
<polygon points="234,85 239,80 289,80 289,90 239,90 234,85 " style="fill:white; stroke-width:1; stroke:black; " description="&lt;b&gt;EW053_28350&lt;/b&gt;&lt;br&gt;enoyl-CoA hydratase/isomerase family protein&lt;br&gt;Location: 5783 - 7162" locus_tag="EW053_28350" class="clusterblast-orf" id="dummy-1_h1_3_3"  />
</g>
<g id="a1_004"  >
<polygon points="295,85 300,80 325,80 325,90 300,90 295,85 " style="fill:white; stroke-width:1; stroke:black; " description="&lt;b&gt;EW053_28355&lt;/b&gt;&lt;br&gt;enoyl-CoA hydratase/isomerase family protein&lt;br&gt;Location: 7311 - 8075" locus_tag="EW053_28355" class="clusterblast-orf" id="dummy-1_h1_3_4"  />
</g>
<g id="a1_005"  >
<polygon points="330,85 335,80 378,80 378,90 335,90 330,85 " style="fill:white; stroke-width:1; stroke:black; " description="&lt;b&gt;EW053_28360&lt;/b&gt;&lt;br&gt;type III polyketide synthase&lt;br&gt;Location: 8194 - 9399" locus_tag="EW053_28360" class="clusterblast-orf" id="dummy-1_h1_3_5"  />
</g>
<g id="a1_006"  >
<polygon points="378,85 383,80 427,80 427,90 383,90 378,85 " style="fill:white; stroke-width:1; stroke:black; " description="&lt;b&gt;EW053_28365&lt;/b&gt;&lt;br&gt;aminotransferase class I/II-fold pyridoxal phosphate-dependent enzyme&lt;br&gt;Location: 9396 - 10640" locus_tag="EW053_28365" class="clusterblast-orf" id="dummy-1_h1_3_6"  />
</g>
<g id="a1_007"  >
<polygon points="432,85 437,80 486,80 486,90 437,90 432,85 " style="fill:white; stroke-width:1; stroke:black; " description="&lt;b&gt;EW053_28370&lt;/b&gt;&lt;br&gt;phenylacetate--CoA ligase family protein&lt;br&gt;Location: 10755 - 12122" locus_tag="EW053_28370" class="clusterblast-orf" id="dummy-1_h1_3_7"  />
</g>
<g id="a1_008"  >
<polygon points="491,85 496,80 525,80 525,90 496,90 491,85 " style="fill:white; stroke-width:1; stroke:black; " description="&lt;b&gt;EW053_28375&lt;/b&gt;&lt;br&gt;enoyl-CoA hydratase&lt;br&gt;Location: 12266 - 13117" locus_tag="EW053_28375" class="clusterblast-orf" id="dummy-1_h1_3_8"  />
</g>
<g id="a1_009"  >
<polygon points="537,90 572,90 577,85 572,80 537,80 537,90 " style="fill:white; stroke-width:1; stroke:black; " description="&lt;b&gt;EW053_28380&lt;/b&gt;&lt;br&gt;LuxR family transcriptional regulator&lt;br&gt;Location: 13419 - 14426" locus_tag="EW053_28380" class="clusterblast-orf" id="dummy-1_h1_3_9"  />
</g>
<g id="a1_0010"  >
<polygon points="578,85 583,80 630,80 630,90 583,90 578,85 " style="fill:white; stroke-width:1; stroke:black; " description="&lt;b&gt;EW053_28385&lt;/b&gt;&lt;br&gt;MFS transporter&lt;br&gt;Location: 14448 - 15767" locus_tag="EW053_28385" class="clusterblast-orf" id="dummy-1_h1_3_10"  />
</g>
<g id="a1_0011"  >
<polygon points="630,85 635,80 670,80 670,90 635,90 630,85 " style="fill:white; stroke-width:1; stroke:black; " description="&lt;b&gt;EW053_28390&lt;/b&gt;&lt;br&gt;hypothetical protein&lt;br&gt;Location: 15764 - 16762" locus_tag="EW053_28390" class="clusterblast-orf" id="dummy-1_h1_3_11"  />
</g>
<g id="a1_0012"  >
<polygon points="676,85 681,80 733,80 733,90 681,90 676,85 " style="fill:#15d863; stroke-width:1; stroke:black; " description="&lt;b&gt;EW053_28395&lt;/b&gt;&lt;br&gt;rRNA cytosine-C5-methyltransferase&lt;br&gt;Location: 16915 - 18348&lt;br&gt;&lt;br&gt;&lt;b&gt;BlastP hit with cds64989_66423&lt;/b&gt;&lt;br&gt;Percentage identity: 87&lt;br&gt;Percentage coverage: 100&lt;br&gt;BLAST bit score: 839&lt;br&gt;E-value: 2.7e-243" locus_tag="EW053_28395" class="clusterblast-orf" id="dummy-1_h1_3_12"  />
</g>
<g id="a1_0013"  >
<polygon points="736,85 741,80 774,80 774,90 741,90 736,85 " style="fill:#3c15d8; stroke-width:1; stroke:black; " description="&lt;b&gt;EW053_28400&lt;/b&gt;&lt;br&gt;methionyl-tRNA formyltransferase&lt;br&gt;Location: 18433 - 19389&lt;br&gt;&lt;br&gt;&lt;b&gt;BlastP hit with cds66502_67435&lt;/b&gt;&lt;br&gt;Percentage identity: 88&lt;br&gt;Percentage coverage: 100&lt;br&gt;BLAST bit score: 557&lt;br&gt;E-value: 1.3e-158" locus_tag="EW053_28400" class="clusterblast-orf" id="dummy-1_h1_3_13"  />
</g>
</svg>
