<svg xmlns="http://www.w3.org/2000/svg" xmlns:xlink="http://www.w3.org/1999/xlink" version="1.1" x="0" y="0" height="230" width="800" viewBox="0 0 800 230" preserveAspectRatio="none"  >
<g label="Query sequence" class="clusterblast-cluster"  >
<text x="5" y="20" class="clusterblast-acc"  >
Query sequence</text>
<line x1="10" y1="35" x2="778.0" y2="35" style="stroke-width:1; stroke:grey; "  />
<polygon points="233,35 238,30 238,30 238,40 238,40 233,35 " style="fill:white; stroke-width:1; stroke:black; " description="&lt;b&gt;cds346447_347179&lt;/b&gt;&lt;br&gt;hypothetical protein&lt;br&gt;Location: 346447 - 347179" locus_tag="cds346447_347179" class="clusterblast-orf" id="dummy-4_q0_0_all"  />
<polygon points="239,35 244,30 246,30 246,40 244,40 239,35 " style="fill:white; stroke-width:1; stroke:black; " description="&lt;b&gt;cds347251_348247&lt;/b&gt;&lt;br&gt;hypothetical protein&lt;br&gt;Location: 347251 - 348247" locus_tag="cds347251_348247" class="clusterblast-orf" id="dummy-4_q1_0_all"  />
<polygon points="246,35 251,30 252,30 252,40 251,40 246,35 " style="fill:white; stroke-width:1; stroke:black; " description="&lt;b&gt;cds348243_349056&lt;/b&gt;&lt;br&gt;hypothetical protein&lt;br&gt;Location: 348243 - 349056" locus_tag="cds348243_349056" class="clusterblast-orf" id="dummy-4_q2_0_all"  />
<polygon points="253,40 253,40 258,35 253,30 253,30 253,40 " style="fill:white; stroke-width:1; stroke:black; " description="&lt;b&gt;cds349222_349870&lt;/b&gt;&lt;br&gt;putative HTH-type transcriptional regulator&lt;br&gt;Location: 349222 - 349870" locus_tag="cds349222_349870" class="clusterblast-orf" id="dummy-4_q3_0_all"  />
<polygon points="260,40 262,40 267,35 262,30 260,30 260,40 " style="fill:white; stroke-width:1; stroke:black; " description="&lt;b&gt;cds350077_351085&lt;/b&gt;&lt;br&gt;hypothetical protein&lt;br&gt;Location: 350077 - 351085" locus_tag="cds350077_351085" class="clusterblast-orf" id="dummy-4_q4_0_all"  />
<polygon points="267,40 269,40 274,35 269,30 267,30 267,40 " style="fill:white; stroke-width:1; stroke:black; " description="&lt;b&gt;cds351081_351981&lt;/b&gt;&lt;br&gt;NAD kinase&lt;br&gt;Location: 351081 - 351981" locus_tag="cds351081_351981" class="clusterblast-orf" id="dummy-4_q5_0_all"  />
<polygon points="274,40 278,35 274,30 274,40 " style="fill:white; stroke-width:1; stroke:black; " description="&lt;b&gt;cds352015_352546&lt;/b&gt;&lt;br&gt;hypothetical protein&lt;br&gt;Location: 352015 - 352546" locus_tag="cds352015_352546" class="clusterblast-orf" id="dummy-4_q6_0_all"  />
<polygon points="279,40 282,35 279,30 279,40 " style="fill:white; stroke-width:1; stroke:black; " description="&lt;b&gt;cds352596_353091&lt;/b&gt;&lt;br&gt;hypothetical protein&lt;br&gt;Location: 352596 - 353091" locus_tag="cds352596_353091" class="clusterblast-orf" id="dummy-4_q7_0_all"  />
<polygon points="282,35 287,30 287,30 287,40 287,40 282,35 " style="fill:white; stroke-width:1; stroke:black; " description="&lt;b&gt;cds353126_353795&lt;/b&gt;&lt;br&gt;HTH-type transcriptional repressor RspR&lt;br&gt;Location: 353126 - 353795" locus_tag="cds353126_353795" class="clusterblast-orf" id="dummy-4_q8_0_all"  />
<polygon points="289,40 292,40 297,35 292,30 289,30 289,40 " style="fill:white; stroke-width:1; stroke:black; " description="&lt;b&gt;cds354014_355040&lt;/b&gt;&lt;br&gt;2-keto-4-carboxy-3-hexenedioate hydratase&lt;br&gt;Location: 354014 - 355040" locus_tag="cds354014_355040" class="clusterblast-orf" id="dummy-4_q9_0_all"  />
<polygon points="297,40 299,40 304,35 299,30 297,30 297,40 " style="fill:white; stroke-width:1; stroke:black; " description="&lt;b&gt;cds355098_356019&lt;/b&gt;&lt;br&gt;2-pyrone-4,6-dicarbaxylate hydrolase&lt;br&gt;Location: 355098 - 356019" locus_tag="cds355098_356019" class="clusterblast-orf" id="dummy-4_q10_0_all"  />
<polygon points="304,40 310,40 315,35 310,30 304,30 304,40 " style="fill:white; stroke-width:1; stroke:black; " description="&lt;b&gt;cds356063_357422&lt;/b&gt;&lt;br&gt;Inner membrane metabolite transport protein YdjE&lt;br&gt;Location: 356063 - 357422" locus_tag="cds356063_357422" class="clusterblast-orf" id="dummy-4_q11_0_all"  />
<polygon points="315,35 320,30 321,30 321,40 320,40 315,35 " style="fill:#d81515; stroke-width:1; stroke:black; " description="&lt;b&gt;cds357434_358250&lt;/b&gt;&lt;br&gt;Petrobactin import ATP-binding protein FpuD&lt;br&gt;Location: 357434 - 358250" locus_tag="cds357434_358250" class="clusterblast-orf" id="dummy-4_q12_0_all"  />
<polygon points="321,35 326,30 329,30 329,40 326,40 321,35 " style="fill:#77d815; stroke-width:1; stroke:black; " description="&lt;b&gt;cds358258_359341&lt;/b&gt;&lt;br&gt;Ferric enterobactin transport system permease protein FepG&lt;br&gt;Location: 358258 - 359341" locus_tag="cds358258_359341" class="clusterblast-orf" id="dummy-4_q13_0_all"  />
<polygon points="329,35 334,30 336,30 336,40 334,40 329,35 " style="fill:#77d815; stroke-width:1; stroke:black; " description="&lt;b&gt;cds359337_360309&lt;/b&gt;&lt;br&gt;putative siderophore transport system permease protein YfiZ&lt;br&gt;Location: 359337 - 360309" locus_tag="cds359337_360309" class="clusterblast-orf" id="dummy-4_q14_0_all"  />
<polygon points="338,40 340,40 345,35 340,30 338,30 338,40 " style="fill:white; stroke-width:1; stroke:black; " description="&lt;b&gt;cds360583_361567&lt;/b&gt;&lt;br&gt;putative siderophore-binding lipoprotein YfiY&lt;br&gt;Location: 360583 - 361567" locus_tag="cds360583_361567" class="clusterblast-orf" id="dummy-4_q15_0_all"  />
<polygon points="345,40 346,40 351,35 346,30 345,30 345,40 " style="fill:#15d8d8; stroke-width:1; stroke:black; " description="&lt;b&gt;cds361563_362352&lt;/b&gt;&lt;br&gt;2,3-dihydro-2,3-dihydroxybenzoate dehydrogenase&lt;br&gt;Location: 361563 - 362352" locus_tag="cds361563_362352" class="clusterblast-orf" id="dummy-4_q16_0_all"  />
<polygon points="352,40 356,40 361,35 356,30 352,30 352,40 " style="fill:#7715d8; stroke-width:1; stroke:black; " description="&lt;b&gt;cds362415_363615&lt;/b&gt;&lt;br&gt;Isochorismate synthase DhbC&lt;br&gt;Location: 362415 - 363615" locus_tag="cds362415_363615" class="clusterblast-orf" id="dummy-4_q17_0_all"  />
<polygon points="361,40 368,40 373,35 368,30 361,30 361,40 " style="fill:#d8a715; stroke-width:1; stroke:black; " description="&lt;b&gt;cds363611_365261&lt;/b&gt;&lt;br&gt;2,3-dihydroxybenzoate-AMP ligase&lt;br&gt;Location: 363611 - 365261" locus_tag="cds363611_365261" class="clusterblast-orf" id="dummy-4_q18_0_all"  />
<polygon points="373,40 373,40 378,35 373,30 373,30 373,40 " style="fill:#15d846; stroke-width:1; stroke:black; " description="&lt;b&gt;cds365308_365941&lt;/b&gt;&lt;br&gt;Isochorismatase&lt;br&gt;Location: 365308 - 365941" locus_tag="cds365308_365941" class="clusterblast-orf" id="dummy-4_q19_0_all"  />
<polygon points="378,40 380,35 378,30 378,40 " style="fill:#15d846; stroke-width:1; stroke:black; " description="&lt;b&gt;cds365946_366174&lt;/b&gt;&lt;br&gt;Isochorismatase&lt;br&gt;Location: 365946 - 366174" locus_tag="cds365946_366174" class="clusterblast-orf" id="dummy-4_q20_0_all"  />
<polygon points="380,40 404,40 409,35 404,30 380,30 380,40 " style="fill:#1546d8; stroke-width:1; stroke:black; " description="&lt;b&gt;cds366170_370109&lt;/b&gt;&lt;br&gt;Dimodular nonribosomal peptide synthase&lt;br&gt;Location: 366170 - 370109" locus_tag="cds366170_370109" class="clusterblast-orf" id="dummy-4_q21_0_all"  />
<polygon points="409,40 410,35 409,30 409,40 " style="fill:white; stroke-width:1; stroke:black; " description="&lt;b&gt;cds370105_370294&lt;/b&gt;&lt;br&gt;hypothetical protein&lt;br&gt;Location: 370105 - 370294" locus_tag="cds370105_370294" class="clusterblast-orf" id="dummy-4_q22_0_all"  />
<polygon points="411,35 413,30 413,40 411,35 " style="fill:white; stroke-width:1; stroke:black; " description="&lt;b&gt;cds370318_370690&lt;/b&gt;&lt;br&gt;hypothetical protein&lt;br&gt;Location: 370318 - 370690" locus_tag="cds370318_370690" class="clusterblast-orf" id="dummy-4_q23_0_all"  />
<polygon points="414,40 417,35 414,30 414,40 " style="fill:white; stroke-width:1; stroke:black; " description="&lt;b&gt;cds370780_371242&lt;/b&gt;&lt;br&gt;putative HTH-type transcriptional regulator&lt;br&gt;Location: 370780 - 371242" locus_tag="cds370780_371242" class="clusterblast-orf" id="dummy-4_q24_0_all"  />
<polygon points="419,40 419,40 424,35 419,30 419,30 419,40 " style="fill:white; stroke-width:1; stroke:black; " description="&lt;b&gt;cds371379_372159&lt;/b&gt;&lt;br&gt;hypothetical protein&lt;br&gt;Location: 371379 - 372159" locus_tag="cds371379_372159" class="clusterblast-orf" id="dummy-4_q25_0_all"  />
<polygon points="424,35 429,30 429,30 429,40 429,40 424,35 " style="fill:white; stroke-width:1; stroke:black; " description="&lt;b&gt;cds372169_372826&lt;/b&gt;&lt;br&gt;hypothetical protein&lt;br&gt;Location: 372169 - 372826" locus_tag="cds372169_372826" class="clusterblast-orf" id="dummy-4_q26_0_all"  />
<polygon points="430,35 435,30 440,30 440,40 435,40 430,35 " style="fill:#d815a7; stroke-width:1; stroke:black; " description="&lt;b&gt;cds372901_374212&lt;/b&gt;&lt;br&gt;Enterochelin esterase&lt;br&gt;Location: 372901 - 374212" locus_tag="cds372901_374212" class="clusterblast-orf" id="dummy-4_q27_0_all"  />
<polygon points="440,35 445,30 457,30 457,40 445,40 440,35 " style="fill:white; stroke-width:1; stroke:black; " description="&lt;b&gt;cds374301_376515&lt;/b&gt;&lt;br&gt;Catalase HPII&lt;br&gt;Location: 374301 - 376515" locus_tag="cds374301_376515" class="clusterblast-orf" id="dummy-4_q28_0_all"  />
<polygon points="458,35 463,30 473,30 473,40 463,40 458,35 " style="fill:white; stroke-width:1; stroke:black; " description="&lt;b&gt;cds376694_378725&lt;/b&gt;&lt;br&gt;hypothetical protein&lt;br&gt;Location: 376694 - 378725" locus_tag="cds376694_378725" class="clusterblast-orf" id="dummy-4_q29_0_all"  />
<polygon points="474,35 479,30 483,30 483,40 479,40 474,35 " style="fill:white; stroke-width:1; stroke:black; " description="&lt;b&gt;cds378764_380081&lt;/b&gt;&lt;br&gt;hypothetical protein&lt;br&gt;Location: 378764 - 380081" locus_tag="cds378764_380081" class="clusterblast-orf" id="dummy-4_q30_0_all"  />
<polygon points="484,35 489,30 489,30 489,40 489,40 484,35 " style="fill:white; stroke-width:1; stroke:black; " description="&lt;b&gt;cds380194_380821&lt;/b&gt;&lt;br&gt;hypothetical protein&lt;br&gt;Location: 380194 - 380821" locus_tag="cds380194_380821" class="clusterblast-orf" id="dummy-4_q31_0_all"  />
<polygon points="491,40 495,35 491,30 491,40 " style="fill:white; stroke-width:1; stroke:black; " description="&lt;b&gt;cds381158_381620&lt;/b&gt;&lt;br&gt;hypothetical protein&lt;br&gt;Location: 381158 - 381620" locus_tag="cds381158_381620" class="clusterblast-orf" id="dummy-4_q32_0_all"  />
<polygon points="496,40 500,35 496,30 496,40 " style="fill:white; stroke-width:1; stroke:black; " description="&lt;b&gt;cds381733_382300&lt;/b&gt;&lt;br&gt;Protein/nucleic acid deglycase 2&lt;br&gt;Location: 381733 - 382300" locus_tag="cds381733_382300" class="clusterblast-orf" id="dummy-4_q33_0_all"  />
<polygon points="501,35 505,30 505,40 501,35 " style="fill:white; stroke-width:1; stroke:black; " description="&lt;b&gt;cds382439_382973&lt;/b&gt;&lt;br&gt;hypothetical protein&lt;br&gt;Location: 382439 - 382973" locus_tag="cds382439_382973" class="clusterblast-orf" id="dummy-4_q34_0_all"  />
<polygon points="506,35 511,30 516,30 516,40 511,40 506,35 " style="fill:white; stroke-width:1; stroke:black; " description="&lt;b&gt;cds383130_384411&lt;/b&gt;&lt;br&gt;Carboxypeptidase&lt;br&gt;Location: 383130 - 384411" locus_tag="cds383130_384411" class="clusterblast-orf" id="dummy-4_q35_0_all"  />
<polygon points="519,40 524,40 529,35 524,30 519,30 519,40 " style="fill:white; stroke-width:1; stroke:black; " description="&lt;b&gt;cds384917_386159&lt;/b&gt;&lt;br&gt;Enterobactin exporter EntS&lt;br&gt;Location: 384917 - 386159" locus_tag="cds384917_386159" class="clusterblast-orf" id="dummy-4_q36_0_all"  />
<polygon points="532,40 534,35 532,30 532,40 " style="fill:white; stroke-width:1; stroke:black; " description="&lt;b&gt;cds386631_386829&lt;/b&gt;&lt;br&gt;hypothetical protein&lt;br&gt;Location: 386631 - 386829" locus_tag="cds386631_386829" class="clusterblast-orf" id="dummy-4_q37_0_all"  />
<polygon points="534,35 539,30 539,30 539,40 539,40 534,35 " style="fill:white; stroke-width:1; stroke:black; " description="&lt;b&gt;cds386885_387560&lt;/b&gt;&lt;br&gt;hypothetical protein&lt;br&gt;Location: 386885 - 387560" locus_tag="cds386885_387560" class="clusterblast-orf" id="dummy-4_q38_0_all"  />
<polygon points="540,35 545,30 546,30 546,40 545,40 540,35 " style="fill:white; stroke-width:1; stroke:black; " description="&lt;b&gt;cds387621_388542&lt;/b&gt;&lt;br&gt;5'-methylthioadenosine/S-adenosylhomocysteine nucleosidase&lt;br&gt;Location: 387621 - 388542" locus_tag="cds387621_388542" class="clusterblast-orf" id="dummy-4_q39_0_all"  />
</g>
<g label="BGC0000459" description="BGC0000459_c1: griseoviridin / fijimycin A (5% of genes show similarity), NRP:Cyclic depsipeptide + Polyketide:Trans-AT type I" class="clusterblast-cluster"  >
<text x="5" y="70" class="clusterblast-acc"  >
<a xlink:href="https://mibig.secondarymetabolites.org/go/BGC0000459/1" target="_blank">BGC0000459</a>:                                                      griseoviridin / fijimycin A (5% of genes show similarity), NRP:Cyclic depsipeptide + Polyketide:Trans-AT type I</text>
<line x1="10" y1="85" x2="778.0" y2="85" style="stroke-width:1; stroke:grey; "  />
</g>
<g id="a4_000"  >
<polygon points="0,90 3,90 8,85 3,80 0,80 0,90 " style="fill:white; stroke-width:1; stroke:black; " description="&lt;b&gt;AGN74872.1&lt;/b&gt;&lt;br&gt;SARP-type regulator&lt;br&gt;Location: 1 - 1167" locus_tag="AGN74872.1" class="clusterblast-orf" id="dummy-4_h4_9_0"  />
</g>
<g id="a4_001"  >
<polygon points="9,85 14,80 21,80 21,90 14,90 9,85 " style="fill:white; stroke-width:1; stroke:black; " description="&lt;b&gt;AGN74873.1&lt;/b&gt;&lt;br&gt;major facilitator transporter&lt;br&gt;Location: 1287 - 2879" locus_tag="AGN74873.1" class="clusterblast-orf" id="dummy-4_h4_9_1"  />
</g>
<g id="a4_002"  >
<polygon points="23,85 28,80 32,80 32,90 28,90 23,85 " style="fill:white; stroke-width:1; stroke:black; " description="&lt;b&gt;AGN74874.1&lt;/b&gt;&lt;br&gt;branched-chain amino acid aminotransferase&lt;br&gt;Location: 3197 - 4318" locus_tag="AGN74874.1" class="clusterblast-orf" id="dummy-4_h4_9_2"  />
</g>
<g id="a4_003"  >
<polygon points="32,85 37,80 40,80 40,90 37,90 32,85 " style="fill:white; stroke-width:1; stroke:black; " description="&lt;b&gt;AGN74875.1&lt;/b&gt;&lt;br&gt;methyltransferase&lt;br&gt;Location: 4387 - 5406" locus_tag="AGN74875.1" class="clusterblast-orf" id="dummy-4_h4_9_3"  />
</g>
<g id="a4_004"  >
<polygon points="41,85 46,80 100,80 100,90 46,90 41,85 " style="fill:white; stroke-width:1; stroke:black; " description="&lt;b&gt;AGN74876.1&lt;/b&gt;&lt;br&gt;nonribosomal peptide synthetase&lt;br&gt;Location: 5544 - 13460" locus_tag="AGN74876.1" class="clusterblast-orf" id="dummy-4_h4_9_4"  />
</g>
<g id="a4_005"  >
<polygon points="102,90 103,90 108,85 103,80 102,80 102,90 " style="fill:white; stroke-width:1; stroke:black; " description="&lt;b&gt;AGN74877.1&lt;/b&gt;&lt;br&gt;type ii thioestrerase&lt;br&gt;Location: 13782 - 14528" locus_tag="AGN74877.1" class="clusterblast-orf" id="dummy-4_h4_9_5"  />
</g>
<g id="a4_006"  >
<polygon points="108,85 113,80 116,80 116,90 113,90 108,85 " style="fill:white; stroke-width:1; stroke:black; " description="&lt;b&gt;AGN74878.1&lt;/b&gt;&lt;br&gt;flavin-dependent oxidoreductase&lt;br&gt;Location: 14523 - 15605" locus_tag="AGN74878.1" class="clusterblast-orf" id="dummy-4_h4_9_6"  />
</g>
<g id="a4_007"  >
<polygon points="118,85 119,80 119,90 118,85 " style="fill:white; stroke-width:1; stroke:black; " description="&lt;b&gt;AGN74879.1&lt;/b&gt;&lt;br&gt;hypothetical protein&lt;br&gt;Location: 15839 - 16084" locus_tag="AGN74879.1" class="clusterblast-orf" id="dummy-4_h4_9_7"  />
</g>
<g id="a4_008"  >
<polygon points="121,90 128,90 133,85 128,80 121,80 121,90 " style="fill:#d8a715; stroke-width:1; stroke:black; " description="&lt;b&gt;AGN74880.1&lt;/b&gt;&lt;br&gt;3-hydroxypicolinic acid:AMP ligase&lt;br&gt;Location: 16253 - 17875&lt;br&gt;&lt;br&gt;&lt;b&gt;BlastP hit with cds363611_365261&lt;/b&gt;&lt;br&gt;Percentage identity: 53&lt;br&gt;Percentage coverage: 97&lt;br&gt;BLAST bit score: 525&lt;br&gt;E-value: 7.6e-149" locus_tag="AGN74880.1" class="clusterblast-orf" id="dummy-4_h4_9_8"  />
</g>
<g id="a4_009"  >
<polygon points="133,90 137,90 142,85 137,80 133,80 133,90 " style="fill:white; stroke-width:1; stroke:black; " description="&lt;b&gt;AGN74881.1&lt;/b&gt;&lt;br&gt;L-lysine 2-aminotransferase&lt;br&gt;Location: 17879 - 19180" locus_tag="AGN74881.1" class="clusterblast-orf" id="dummy-4_h4_9_9"  />
</g>
<g id="a4_0010"  >
<polygon points="143,90 144,85 143,80 143,90 " style="fill:white; stroke-width:1; stroke:black; " description="&lt;b&gt;AGN74882.1&lt;/b&gt;&lt;br&gt;4-oxalocrotonate tautomerase&lt;br&gt;Location: 19234 - 19422" locus_tag="AGN74882.1" class="clusterblast-orf" id="dummy-4_h4_9_10"  />
</g>
<g id="a4_0011"  >
<polygon points="145,85 150,80 155,80 155,90 150,90 145,85 " style="fill:white; stroke-width:1; stroke:black; " description="&lt;b&gt;AGN74883.1&lt;/b&gt;&lt;br&gt;phenylacetyl-CoA dioxygenase&lt;br&gt;Location: 19507 - 20814" locus_tag="AGN74883.1" class="clusterblast-orf" id="dummy-4_h4_9_11"  />
</g>
<g id="a4_0012"  >
<polygon points="155,85 157,80 157,90 155,85 " style="fill:white; stroke-width:1; stroke:black; " description="&lt;b&gt;AGN74884.1&lt;/b&gt;&lt;br&gt;MbtH domain-containing protein&lt;br&gt;Location: 20829 - 21080" locus_tag="AGN74884.1" class="clusterblast-orf" id="dummy-4_h4_9_12"  />
</g>
<g id="a4_0013"  >
<polygon points="157,85 162,80 285,80 285,90 162,90 157,85 " style="fill:white; stroke-width:1; stroke:black; " description="&lt;b&gt;AGN74885.1&lt;/b&gt;&lt;br&gt;nonribosomal peptide synthetase&lt;br&gt;Location: 21154 - 38325" locus_tag="AGN74885.1" class="clusterblast-orf" id="dummy-4_h4_9_13"  />
</g>
<g id="a4_0014"  >
<polygon points="285,85 290,80 320,80 320,90 290,90 285,85 " style="fill:white; stroke-width:1; stroke:black; " description="&lt;b&gt;AGN74886.1&lt;/b&gt;&lt;br&gt;nonribosomal peptide synthetase&lt;br&gt;Location: 38322 - 43025" locus_tag="AGN74886.1" class="clusterblast-orf" id="dummy-4_h4_9_14"  />
</g>
<g id="a4_0015"  >
<polygon points="324,90 328,90 333,85 328,80 324,80 324,90 " style="fill:white; stroke-width:1; stroke:black; " description="&lt;b&gt;AGN74887.1&lt;/b&gt;&lt;br&gt;branched-chain alpha-keto acid dehydrogenase E1 subunit alpha&lt;br&gt;Location: 43579 - 44736" locus_tag="AGN74887.1" class="clusterblast-orf" id="dummy-4_h4_9_15"  />
</g>
<g id="a4_0016"  >
<polygon points="333,90 336,90 341,85 336,80 333,80 333,90 " style="fill:white; stroke-width:1; stroke:black; " description="&lt;b&gt;AGN74888.1&lt;/b&gt;&lt;br&gt;branched-chain alpha-keto acid dehydrogenase E1 subnuit beta&lt;br&gt;Location: 44733 - 45788" locus_tag="AGN74888.1" class="clusterblast-orf" id="dummy-4_h4_9_16"  />
</g>
<g id="a4_0017"  >
<polygon points="341,90 346,90 351,85 346,80 341,80 341,90 " style="fill:white; stroke-width:1; stroke:black; " description="&lt;b&gt;AGN74889.1&lt;/b&gt;&lt;br&gt;branched-chain alpha-keto acid dehydrogenase E2&lt;br&gt;Location: 45794 - 47191" locus_tag="AGN74889.1" class="clusterblast-orf" id="dummy-4_h4_9_17"  />
</g>
<g id="a4_0018"  >
<polygon points="353,90 360,90 365,85 360,80 353,80 353,90 " style="fill:white; stroke-width:1; stroke:black; " description="&lt;b&gt;AGN74890.1&lt;/b&gt;&lt;br&gt;ABC transporter&lt;br&gt;Location: 47430 - 49085" locus_tag="AGN74890.1" class="clusterblast-orf" id="dummy-4_h4_9_18"  />
</g>
<g id="a4_0019"  >
<polygon points="366,85 371,80 375,80 375,90 371,90 366,85 " style="fill:white; stroke-width:1; stroke:black; " description="&lt;b&gt;AGN74891.1&lt;/b&gt;&lt;br&gt;P450-like monooxygenase&lt;br&gt;Location: 49244 - 50434" locus_tag="AGN74891.1" class="clusterblast-orf" id="dummy-4_h4_9_19"  />
</g>
<g id="a4_0020"  >
<polygon points="377,90 474,90 479,85 474,80 377,80 377,90 " style="fill:white; stroke-width:1; stroke:black; " description="&lt;b&gt;AGN74892.1&lt;/b&gt;&lt;br&gt;nonribosomal peptide synthetase/polyketide synthase hybrid protein&lt;br&gt;Location: 50629 - 64296" locus_tag="AGN74892.1" class="clusterblast-orf" id="dummy-4_h4_9_20"  />
</g>
<g id="a4_0021"  >
<polygon points="479,90 524,90 529,85 524,80 479,80 479,90 " style="fill:white; stroke-width:1; stroke:black; " description="&lt;b&gt;AGN74893.1&lt;/b&gt;&lt;br&gt;nonribosomal peptide synthetase/polyketide synthase hybrid protein&lt;br&gt;Location: 64299 - 71039" locus_tag="AGN74893.1" class="clusterblast-orf" id="dummy-4_h4_9_21"  />
</g>
<g id="a4_0022"  >
<polygon points="530,90 574,90 579,85 574,80 530,80 530,90 " style="fill:white; stroke-width:1; stroke:black; " description="&lt;b&gt;AGN74894.1&lt;/b&gt;&lt;br&gt;nonribosomal peptide synthetase/polyketide synthase hybrid protein&lt;br&gt;Location: 71211 - 77717" locus_tag="AGN74894.1" class="clusterblast-orf" id="dummy-4_h4_9_22"  />
</g>
<g id="a4_0023"  >
<polygon points="579,90 632,90 637,85 632,80 579,80 579,90 " style="fill:#1546d8; stroke-width:1; stroke:black; " description="&lt;b&gt;AGN74895.1&lt;/b&gt;&lt;br&gt;nonribosomal peptide synthetase/polyketide synthase hybrid protein&lt;br&gt;Location: 77728 - 85563&lt;br&gt;&lt;br&gt;&lt;b&gt;BlastP hit with cds366170_370109&lt;/b&gt;&lt;br&gt;Percentage identity: 47&lt;br&gt;Percentage coverage: 45&lt;br&gt;BLAST bit score: 458&lt;br&gt;E-value: 2.7e-128" locus_tag="AGN74895.1" class="clusterblast-orf" id="dummy-4_h4_9_23"  />
</g>
<g id="a4_0024"  >
<polygon points="637,90 676,90 681,85 676,80 637,80 637,90 " style="fill:white; stroke-width:1; stroke:black; " description="&lt;b&gt;AGN74896.1&lt;/b&gt;&lt;br&gt;nonribosomal peptide synthetase/polyketide synthase hybrid protein&lt;br&gt;Location: 85560 - 91424" locus_tag="AGN74896.1" class="clusterblast-orf" id="dummy-4_h4_9_24"  />
</g>
<g id="a4_0025"  >
<polygon points="681,90 683,90 688,85 683,80 681,80 681,90 " style="fill:white; stroke-width:1; stroke:black; " description="&lt;b&gt;AGN74897.1&lt;/b&gt;&lt;br&gt;acyltransferase&lt;br&gt;Location: 91421 - 92371" locus_tag="AGN74897.1" class="clusterblast-orf" id="dummy-4_h4_9_25"  />
</g>
<g id="a4_0026"  >
<polygon points="688,90 701,90 706,85 701,80 688,80 688,90 " style="fill:white; stroke-width:1; stroke:black; " description="&lt;b&gt;AGN74898.1&lt;/b&gt;&lt;br&gt;nonribosomal peptide synthetase&lt;br&gt;Location: 92365 - 94791" locus_tag="AGN74898.1" class="clusterblast-orf" id="dummy-4_h4_9_26"  />
</g>
<g id="a4_0027"  >
<polygon points="708,90 713,90 718,85 713,80 708,80 708,90 " style="fill:white; stroke-width:1; stroke:black; " description="&lt;b&gt;AGN74899.1&lt;/b&gt;&lt;br&gt;major facilitator transporter&lt;br&gt;Location: 95041 - 96435" locus_tag="AGN74899.1" class="clusterblast-orf" id="dummy-4_h4_9_27"  />
</g>
<g id="a4_0028"  >
<polygon points="718,85 723,80 725,80 725,90 723,90 718,85 " style="fill:white; stroke-width:1; stroke:black; " description="&lt;b&gt;AGN74900.1&lt;/b&gt;&lt;br&gt;streptogramin B lyase&lt;br&gt;Location: 96467 - 97360" locus_tag="AGN74900.1" class="clusterblast-orf" id="dummy-4_h4_9_28"  />
</g>
<g id="a4_0029"  >
<polygon points="727,85 732,80 735,80 735,90 732,90 727,85 " style="fill:white; stroke-width:1; stroke:black; " description="&lt;b&gt;AGN74901.1&lt;/b&gt;&lt;br&gt;sarcosine oxidase&lt;br&gt;Location: 97608 - 98756" locus_tag="AGN74901.1" class="clusterblast-orf" id="dummy-4_h4_9_29"  />
</g>
<g id="a4_0030"  >
<polygon points="736,85 741,80 743,80 743,90 741,90 736,85 " style="fill:white; stroke-width:1; stroke:black; " description="&lt;b&gt;AGN74902.1&lt;/b&gt;&lt;br&gt;SARP-type regulator&lt;br&gt;Location: 98866 - 99708" locus_tag="AGN74902.1" class="clusterblast-orf" id="dummy-4_h4_9_30"  />
</g>
<g id="a4_0031"  >
<polygon points="745,85 750,80 750,80 750,90 750,90 745,85 " style="fill:white; stroke-width:1; stroke:black; " description="&lt;b&gt;AGN74903.1&lt;/b&gt;&lt;br&gt;TetR-type regulator&lt;br&gt;Location: 100098 - 100745" locus_tag="AGN74903.1" class="clusterblast-orf" id="dummy-4_h4_9_31"  />
</g>
<g id="a4_0032"  >
<polygon points="754,90 755,90 760,85 755,80 754,80 754,90 " style="fill:white; stroke-width:1; stroke:black; " description="&lt;b&gt;AGN74904.1&lt;/b&gt;&lt;br&gt;ketoreductase&lt;br&gt;Location: 101227 - 101991" locus_tag="AGN74904.1" class="clusterblast-orf" id="dummy-4_h4_9_32"  />
</g>
<g id="a4_0033"  >
<polygon points="761,90 763,90 768,85 763,80 761,80 761,90 " style="fill:white; stroke-width:1; stroke:black; " description="&lt;b&gt;AGN74905.1&lt;/b&gt;&lt;br&gt;AfsA-like gamma-butyrolactone biosynthetic protein&lt;br&gt;Location: 102181 - 103149" locus_tag="AGN74905.1" class="clusterblast-orf" id="dummy-4_h4_9_33"  />
</g>
<g id="a4_0034"  >
<polygon points="768,85 773,80 773,80 773,90 773,90 768,85 " style="fill:white; stroke-width:1; stroke:black; " description="&lt;b&gt;AGN74906.1&lt;/b&gt;&lt;br&gt;gamma-butyrolactone receptor&lt;br&gt;Location: 103174 - 103857" locus_tag="AGN74906.1" class="clusterblast-orf" id="dummy-4_h4_9_34"  />
</g>
<g id="a4_0035"  >
<polygon points="774,85 779,80 780,80 780,90 779,90 774,85 " style="fill:white; stroke-width:1; stroke:black; " description="&lt;b&gt;AGN74907.1&lt;/b&gt;&lt;br&gt;phosphatase&lt;br&gt;Location: 103982 - 104671" locus_tag="AGN74907.1" class="clusterblast-orf" id="dummy-4_h4_9_35"  />
</g>
</svg>
