<svg xmlns="http://www.w3.org/2000/svg" xmlns:xlink="http://www.w3.org/1999/xlink" version="1.1" x="0" y="0" height="230" width="800" viewBox="0 0 800 230" preserveAspectRatio="none"  >
<g label="Query sequence" class="clusterblast-cluster"  >
<text x="5" y="20" class="clusterblast-acc"  >
Query sequence</text>
<line x1="10" y1="35" x2="778.0" y2="35" style="stroke-width:1; stroke:grey; "  />
<polygon points="0,40 14,40 19,35 14,30 0,30 0,40 " style="fill:white; stroke-width:1; stroke:black; " description="&lt;b&gt;cds8978_9911&lt;/b&gt;&lt;br&gt;hypothetical protein&lt;br&gt;Location: 8978 - 9911" locus_tag="cds8978_9911" class="clusterblast-orf" id="dummy-1_q0_0_all"  />
<polygon points="19,40 22,40 27,35 22,30 19,30 19,40 " style="fill:white; stroke-width:1; stroke:black; " description="&lt;b&gt;cds9923_10319&lt;/b&gt;&lt;br&gt;hypothetical protein&lt;br&gt;Location: 9923 - 10319" locus_tag="cds9923_10319" class="clusterblast-orf" id="dummy-1_q1_0_all"  />
<polygon points="28,40 34,40 39,35 34,30 28,30 28,40 " style="fill:white; stroke-width:1; stroke:black; " description="&lt;b&gt;cds10355_10928&lt;/b&gt;&lt;br&gt;Aldehyde oxidoreductase iron-sulfur-binding subunit PaoA&lt;br&gt;Location: 10355 - 10928" locus_tag="cds10355_10928" class="clusterblast-orf" id="dummy-1_q2_0_all"  />
<polygon points="39,40 54,40 59,35 54,30 39,30 39,40 " style="fill:white; stroke-width:1; stroke:black; " description="&lt;b&gt;cds10924_11920&lt;/b&gt;&lt;br&gt;Aldehyde oxidoreductase FAD-binding subunit PaoB&lt;br&gt;Location: 10924 - 11920" locus_tag="cds10924_11920" class="clusterblast-orf" id="dummy-1_q3_0_all"  />
<polygon points="60,40 98,40 103,35 98,30 60,30 60,40 " style="fill:white; stroke-width:1; stroke:black; " description="&lt;b&gt;cds11964_14061&lt;/b&gt;&lt;br&gt;Aldehyde oxidoreductase molybdenum-binding subunit PaoC&lt;br&gt;Location: 11964 - 14061" locus_tag="cds11964_14061" class="clusterblast-orf" id="dummy-1_q4_0_all"  />
<polygon points="106,40 111,40 116,35 111,30 106,30 106,40 " style="fill:white; stroke-width:1; stroke:black; " description="&lt;b&gt;cds14213_14729&lt;/b&gt;&lt;br&gt;hypothetical protein&lt;br&gt;Location: 14213 - 14729" locus_tag="cds14213_14729" class="clusterblast-orf" id="dummy-1_q5_0_all"  />
<polygon points="119,40 143,40 148,35 143,30 119,30 119,40 " style="fill:white; stroke-width:1; stroke:black; " description="&lt;b&gt;cds14878_16300&lt;/b&gt;&lt;br&gt;Succinate-semialdehyde dehydrogenase [NADP(+)] 1&lt;br&gt;Location: 14878 - 16300" locus_tag="cds14878_16300" class="clusterblast-orf" id="dummy-1_q6_0_all"  />
<polygon points="149,40 192,40 197,35 192,30 149,30 149,40 " style="fill:white; stroke-width:1; stroke:black; " description="&lt;b&gt;cds16338_18726&lt;/b&gt;&lt;br&gt;Xylulose-5-phosphate phosphoketolase&lt;br&gt;Location: 16338 - 18726" locus_tag="cds16338_18726" class="clusterblast-orf" id="dummy-1_q7_0_all"  />
<polygon points="199,35 204,30 207,30 207,40 204,40 199,35 " style="fill:white; stroke-width:1; stroke:black; " description="&lt;b&gt;cds18808_19216&lt;/b&gt;&lt;br&gt;hypothetical protein&lt;br&gt;Location: 18808 - 19216" locus_tag="cds18808_19216" class="clusterblast-orf" id="dummy-1_q8_0_all"  />
<polygon points="209,35 214,30 232,30 232,40 214,40 209,35 " style="fill:white; stroke-width:1; stroke:black; " description="&lt;b&gt;cds19327_20443&lt;/b&gt;&lt;br&gt;hypothetical protein&lt;br&gt;Location: 19327 - 20443" locus_tag="cds19327_20443" class="clusterblast-orf" id="dummy-1_q9_0_all"  />
<polygon points="235,40 240,40 245,35 240,30 235,30 235,40 " style="fill:white; stroke-width:1; stroke:black; " description="&lt;b&gt;cds20579_21074&lt;/b&gt;&lt;br&gt;hypothetical protein&lt;br&gt;Location: 20579 - 21074" locus_tag="cds20579_21074" class="clusterblast-orf" id="dummy-1_q10_0_all"  />
<polygon points="246,40 268,40 273,35 268,30 246,30 246,40 " style="fill:white; stroke-width:1; stroke:black; " description="&lt;b&gt;cds21138_22491&lt;/b&gt;&lt;br&gt;Glutaminase&lt;br&gt;Location: 21138 - 22491" locus_tag="cds21138_22491" class="clusterblast-orf" id="dummy-1_q11_0_all"  />
<polygon points="278,35 283,30 294,30 294,40 283,40 278,35 " style="fill:white; stroke-width:1; stroke:black; " description="&lt;b&gt;cds22706_23528&lt;/b&gt;&lt;br&gt;Extracellular ribonuclease&lt;br&gt;Location: 22706 - 23528" locus_tag="cds22706_23528" class="clusterblast-orf" id="dummy-1_q12_0_all"  />
<polygon points="298,40 298,40 303,35 298,30 298,30 298,40 " style="fill:white; stroke-width:1; stroke:black; " description="&lt;b&gt;cds23739_23946&lt;/b&gt;&lt;br&gt;hypothetical protein&lt;br&gt;Location: 23739 - 23946" locus_tag="cds23739_23946" class="clusterblast-orf" id="dummy-1_q13_0_all"  />
<polygon points="304,40 323,40 328,35 323,30 304,30 304,40 " style="fill:white; stroke-width:1; stroke:black; " description="&lt;b&gt;cds24016_25174&lt;/b&gt;&lt;br&gt;Ribosomal RNA large subunit methyltransferase G&lt;br&gt;Location: 24016 - 25174" locus_tag="cds24016_25174" class="clusterblast-orf" id="dummy-1_q14_0_all"  />
<polygon points="328,35 333,30 337,30 337,40 333,40 328,35 " style="fill:white; stroke-width:1; stroke:black; " description="&lt;b&gt;cds25180_25636&lt;/b&gt;&lt;br&gt;hypothetical protein&lt;br&gt;Location: 25180 - 25636" locus_tag="cds25180_25636" class="clusterblast-orf" id="dummy-1_q15_0_all"  />
<polygon points="340,40 353,40 358,35 353,30 340,30 340,40 " style="fill:white; stroke-width:1; stroke:black; " description="&lt;b&gt;cds25777_26668&lt;/b&gt;&lt;br&gt;hypothetical protein&lt;br&gt;Location: 25777 - 26668" locus_tag="cds25777_26668" class="clusterblast-orf" id="dummy-1_q16_0_all"  />
<polygon points="358,40 399,40 404,35 399,30 358,30 358,40 " style="fill:white; stroke-width:1; stroke:black; " description="&lt;b&gt;cds26702_28943&lt;/b&gt;&lt;br&gt;Serine/threonine-protein kinase PknD&lt;br&gt;Location: 26702 - 28943" locus_tag="cds26702_28943" class="clusterblast-orf" id="dummy-1_q17_0_all"  />
<polygon points="403,35 408,30 408,30 408,40 408,40 403,35 " style="fill:white; stroke-width:1; stroke:black; " description="&lt;b&gt;cds28891_29173&lt;/b&gt;&lt;br&gt;hypothetical protein&lt;br&gt;Location: 28891 - 29173" locus_tag="cds28891_29173" class="clusterblast-orf" id="dummy-1_q18_0_all"  />
<polygon points="412,40 439,40 444,35 439,30 412,30 412,40 " style="fill:white; stroke-width:1; stroke:black; " description="&lt;b&gt;cds29338_30928&lt;/b&gt;&lt;br&gt;putative protein&lt;br&gt;Location: 29338 - 30928" locus_tag="cds29338_30928" class="clusterblast-orf" id="dummy-1_q19_0_all"  />
<polygon points="446,35 451,30 459,30 459,40 451,40 446,35 " style="fill:white; stroke-width:1; stroke:black; " description="&lt;b&gt;cds31025_31670&lt;/b&gt;&lt;br&gt;hypothetical protein&lt;br&gt;Location: 31025 - 31670" locus_tag="cds31025_31670" class="clusterblast-orf" id="dummy-1_q20_0_all"  />
<polygon points="460,35 465,30 497,30 497,40 465,40 460,35 " style="fill:white; stroke-width:1; stroke:black; " description="&lt;b&gt;cds31697_33560&lt;/b&gt;&lt;br&gt;Putative D-alanyl-D-alanine carboxypeptidase&lt;br&gt;Location: 31697 - 33560" locus_tag="cds31697_33560" class="clusterblast-orf" id="dummy-1_q21_0_all"  />
<polygon points="502,40 529,40 534,35 529,30 502,30 502,40 " style="fill:white; stroke-width:1; stroke:black; " description="&lt;b&gt;cds33790_35350&lt;/b&gt;&lt;br&gt;Long-chain-fatty-acid--CoA ligase&lt;br&gt;Location: 33790 - 35350" locus_tag="cds33790_35350" class="clusterblast-orf" id="dummy-1_q22_0_all"  />
<polygon points="534,40 543,40 548,35 543,30 534,30 534,40 " style="fill:white; stroke-width:1; stroke:black; " description="&lt;b&gt;cds35384_36065&lt;/b&gt;&lt;br&gt;hypothetical protein&lt;br&gt;Location: 35384 - 36065" locus_tag="cds35384_36065" class="clusterblast-orf" id="dummy-1_q23_0_all"  />
<polygon points="550,35 555,30 576,30 576,40 555,40 550,35 " style="fill:white; stroke-width:1; stroke:black; " description="&lt;b&gt;cds36152_37442&lt;/b&gt;&lt;br&gt;Phenylacetate-coenzyme A ligase&lt;br&gt;Location: 36152 - 37442" locus_tag="cds36152_37442" class="clusterblast-orf" id="dummy-1_q24_0_all"  />
<polygon points="578,35 583,30 588,30 588,40 583,40 578,35 " style="fill:white; stroke-width:1; stroke:black; " description="&lt;b&gt;cds37557_38025&lt;/b&gt;&lt;br&gt;hypothetical protein&lt;br&gt;Location: 37557 - 38025" locus_tag="cds37557_38025" class="clusterblast-orf" id="dummy-1_q25_0_all"  />
<polygon points="590,40 597,40 602,35 597,30 590,30 590,40 " style="fill:white; stroke-width:1; stroke:black; " description="&lt;b&gt;cds38153_38738&lt;/b&gt;&lt;br&gt;hypothetical protein&lt;br&gt;Location: 38153 - 38738" locus_tag="cds38153_38738" class="clusterblast-orf" id="dummy-1_q26_0_all"  />
<polygon points="603,40 629,40 634,35 629,30 603,30 603,40 " style="fill:white; stroke-width:1; stroke:black; " description="&lt;b&gt;cds38794_40315&lt;/b&gt;&lt;br&gt;2-succinyl-6-hydroxy-2,4-cyclohexadiene-1-carboxy late synthase&lt;br&gt;Location: 38794 - 40315" locus_tag="cds38794_40315" class="clusterblast-orf" id="dummy-1_q27_0_all"  />
<polygon points="635,35 640,30 668,30 668,40 640,40 635,35 " style="fill:#d81515; stroke-width:1; stroke:black; " description="&lt;b&gt;cds40354_41992&lt;/b&gt;&lt;br&gt;4-methyl-5-nitrocatechol 5-monooxygenase&lt;br&gt;Location: 40354 - 41992" locus_tag="cds40354_41992" class="clusterblast-orf" id="dummy-1_q28_0_all"  />
<polygon points="673,40 691,40 696,35 691,30 673,30 673,40 " style="fill:#77d815; stroke-width:1; stroke:black; " description="&lt;b&gt;cds42263_43382&lt;/b&gt;&lt;br&gt;hypothetical protein&lt;br&gt;Location: 42263 - 43382" locus_tag="cds42263_43382" class="clusterblast-orf" id="dummy-1_q29_0_all"  />
<polygon points="697,40 701,40 706,35 701,30 697,30 697,40 " style="fill:#15d8d8; stroke-width:1; stroke:black; " description="&lt;b&gt;cds43450_43885&lt;/b&gt;&lt;br&gt;hypothetical protein&lt;br&gt;Location: 43450 - 43885" locus_tag="cds43450_43885" class="clusterblast-orf" id="dummy-1_q30_0_all"  />
<polygon points="706,40 727,40 732,35 727,30 706,30 706,40 " style="fill:#7715d8; stroke-width:1; stroke:black; " description="&lt;b&gt;cds43881_45150&lt;/b&gt;&lt;br&gt;Actinorhodin polyketide putative beta-ketoacyl synthase 1&lt;br&gt;Location: 43881 - 45150" locus_tag="cds43881_45150" class="clusterblast-orf" id="dummy-1_q31_0_all"  />
<polygon points="732,40 752,40 757,35 752,30 732,30 732,40 " style="fill:#d8a715; stroke-width:1; stroke:black; " description="&lt;b&gt;cds45146_46406&lt;/b&gt;&lt;br&gt;Actinorhodin polyketide putative beta-ketoacyl synthase 2&lt;br&gt;Location: 45146 - 46406" locus_tag="cds45146_46406" class="clusterblast-orf" id="dummy-1_q32_0_all"  />
<polygon points="758,40 758,40 763,35 758,30 758,30 758,40 " style="fill:#15d846; stroke-width:1; stroke:black; " description="&lt;b&gt;cds46422_46680&lt;/b&gt;&lt;br&gt;hypothetical protein&lt;br&gt;Location: 46422 - 46680" locus_tag="cds46422_46680" class="clusterblast-orf" id="dummy-1_q33_0_all"  />
<polygon points="763,40 768,40 773,35 768,30 763,30 763,40 " style="fill:#1546d8; stroke-width:1; stroke:black; " description="&lt;b&gt;cds46681_47161&lt;/b&gt;&lt;br&gt;Putative polyketide cyclase&lt;br&gt;Location: 46681 - 47161" locus_tag="cds46681_47161" class="clusterblast-orf" id="dummy-1_q34_0_all"  />
<polygon points="773,40 775,40 780,35 775,30 773,30 773,40 " style="fill:#d815a7; stroke-width:1; stroke:black; " description="&lt;b&gt;cds47180_47513&lt;/b&gt;&lt;br&gt;Tetracenomycin F2 cyclase&lt;br&gt;Location: 47180 - 47513" locus_tag="cds47180_47513" class="clusterblast-orf" id="dummy-1_q35_0_all"  />
</g>
<g label="BGC0000200" description="BGC0000200_c1: arixanthomycin A / arixanthomycin B / arixanthomycin C (17% of genes show similarity), Polyketide:Type II + Saccharide:Hybrid/tailoring" class="clusterblast-cluster"  >
<text x="5" y="70" class="clusterblast-acc"  >
<a xlink:href="https://mibig.secondarymetabolites.org/go/BGC0000200/1" target="_blank">BGC0000200</a>:                           arixanthomycin A / arixanthomycin B / arixanthomycin C (17% of genes show similarity), Polyketide:Type II + Saccharide:Hybrid/tailoring</text>
<line x1="10" y1="85" x2="778.0" y2="85" style="stroke-width:1; stroke:grey; "  />
</g>
<g id="a1_000"  >
<polygon points="66,85 71,80 87,80 87,90 71,90 66,85 " style="fill:white; stroke-width:1; stroke:black; " description="&lt;b&gt;arx1&lt;/b&gt;&lt;br&gt;NAD-dependent epimerase/dehydratase&lt;br&gt;Location: 1 - 1059" locus_tag="arx1" class="clusterblast-orf" id="dummy-1_h1_6_0"  />
</g>
<g id="a1_001"  >
<polygon points="87,85 92,80 102,80 102,90 92,90 87,85 " style="fill:white; stroke-width:1; stroke:black; " description="&lt;b&gt;arx2&lt;/b&gt;&lt;br&gt;hypothetical protein&lt;br&gt;Location: 1062 - 1796" locus_tag="arx2" class="clusterblast-orf" id="dummy-1_h1_6_1"  />
</g>
<g id="a1_002"  >
<polygon points="103,85 108,80 126,80 126,90 108,90 103,85 " style="fill:white; stroke-width:1; stroke:black; " description="&lt;b&gt;arx3&lt;/b&gt;&lt;br&gt;glycosyltransferase&lt;br&gt;Location: 1822 - 2988" locus_tag="arx3" class="clusterblast-orf" id="dummy-1_h1_6_2"  />
</g>
<g id="a1_003"  >
<polygon points="131,90 140,90 145,85 140,80 131,80 131,90 " style="fill:white; stroke-width:1; stroke:black; " description="&lt;b&gt;arx4&lt;/b&gt;&lt;br&gt;short-chain dehydrogenase/reductase SDR&lt;br&gt;Location: 3207 - 3887" locus_tag="arx4" class="clusterblast-orf" id="dummy-1_h1_6_3"  />
</g>
<g id="a1_004"  >
<polygon points="145,90 178,90 183,85 178,80 145,80 145,90 " style="fill:white; stroke-width:1; stroke:black; " description="&lt;b&gt;arx5&lt;/b&gt;&lt;br&gt;amidotransferase&lt;br&gt;Location: 3911 - 5761" locus_tag="arx5" class="clusterblast-orf" id="dummy-1_h1_6_4"  />
</g>
<g id="a1_005"  >
<polygon points="183,90 200,90 205,85 200,80 183,80 183,90 " style="fill:white; stroke-width:1; stroke:black; " description="&lt;b&gt;arx6&lt;/b&gt;&lt;br&gt;O-methyltransferase&lt;br&gt;Location: 5791 - 6855" locus_tag="arx6" class="clusterblast-orf" id="dummy-1_h1_6_5"  />
</g>
<g id="a1_006"  >
<polygon points="206,85 211,80 223,80 223,90 211,90 206,85 " style="fill:white; stroke-width:1; stroke:black; " description="&lt;b&gt;arx7&lt;/b&gt;&lt;br&gt;ABC transporter&lt;br&gt;Location: 6917 - 7744" locus_tag="arx7" class="clusterblast-orf" id="dummy-1_h1_6_6"  />
</g>
<g id="a1_007"  >
<polygon points="223,85 228,80 242,80 242,90 228,90 223,85 " style="fill:white; stroke-width:1; stroke:black; " description="&lt;b&gt;arx8&lt;/b&gt;&lt;br&gt;ABC transporter ATP-binding protein&lt;br&gt;Location: 7741 - 8697" locus_tag="arx8" class="clusterblast-orf" id="dummy-1_h1_6_7"  />
</g>
<g id="a1_008"  >
<polygon points="242,85 247,80 266,80 266,90 247,90 242,85 " style="fill:white; stroke-width:1; stroke:black; " description="&lt;b&gt;arx9&lt;/b&gt;&lt;br&gt;glycosyltransferase&lt;br&gt;Location: 8694 - 9872" locus_tag="arx9" class="clusterblast-orf" id="dummy-1_h1_6_8"  />
</g>
<g id="a1_009"  >
<polygon points="266,85 271,80 298,80 298,90 271,90 266,85 " style="fill:white; stroke-width:1; stroke:black; " description="&lt;b&gt;arx10&lt;/b&gt;&lt;br&gt;FAD-binding monooxygenase&lt;br&gt;Location: 9874 - 11460" locus_tag="arx10" class="clusterblast-orf" id="dummy-1_h1_6_9"  />
</g>
<g id="a1_0010"  >
<polygon points="314,85 319,80 330,80 330,90 319,90 314,85 " style="fill:white; stroke-width:1; stroke:black; " description="&lt;b&gt;arx11&lt;/b&gt;&lt;br&gt;hypothetical protein&lt;br&gt;Location: 12253 - 13065" locus_tag="arx11" class="clusterblast-orf" id="dummy-1_h1_6_10"  />
</g>
<g id="a1_0011"  >
<polygon points="331,85 336,80 352,80 352,90 336,90 331,85 " style="fill:white; stroke-width:1; stroke:black; " description="&lt;b&gt;arx12&lt;/b&gt;&lt;br&gt;O-methyltransferase&lt;br&gt;Location: 13091 - 14125" locus_tag="arx12" class="clusterblast-orf" id="dummy-1_h1_6_11"  />
</g>
<g id="a1_0012"  >
<polygon points="356,90 369,90 374,85 369,80 356,80 356,90 " style="fill:white; stroke-width:1; stroke:black; " description="&lt;b&gt;arx13&lt;/b&gt;&lt;br&gt;dehydrogenase&lt;br&gt;Location: 14331 - 15218" locus_tag="arx13" class="clusterblast-orf" id="dummy-1_h1_6_12"  />
</g>
<g id="a1_0013"  >
<polygon points="374,90 376,90 381,85 376,80 374,80 374,90 " style="fill:#d815a7; stroke-width:1; stroke:black; " description="&lt;b&gt;arx14&lt;/b&gt;&lt;br&gt;cyclase&lt;br&gt;Location: 15240 - 15575&lt;br&gt;&lt;br&gt;&lt;b&gt;BlastP hit with cds47180_47513&lt;/b&gt;&lt;br&gt;Percentage identity: 48&lt;br&gt;Percentage coverage: 97&lt;br&gt;BLAST bit score: 113&lt;br&gt;E-value: 3.1e-25" locus_tag="arx14" class="clusterblast-orf" id="dummy-1_h1_6_13"  />
</g>
<g id="a1_0014"  >
<polygon points="381,90 385,90 390,85 385,80 381,80 381,90 " style="fill:#15d8d8; stroke-width:1; stroke:black; " description="&lt;b&gt;arx15&lt;/b&gt;&lt;br&gt;cyclase&lt;br&gt;Location: 15572 - 16003&lt;br&gt;&lt;br&gt;&lt;b&gt;BlastP hit with cds43450_43885&lt;/b&gt;&lt;br&gt;Percentage identity: 56&lt;br&gt;Percentage coverage: 88&lt;br&gt;BLAST bit score: 146&lt;br&gt;E-value: 4.3e-35" locus_tag="arx15" class="clusterblast-orf" id="dummy-1_h1_6_14"  />
</g>
<g id="a1_0015"  >
<polygon points="390,90 411,90 416,85 411,80 390,80 390,90 " style="fill:#7715d8; stroke-width:1; stroke:black; " description="&lt;b&gt;arx16&lt;/b&gt;&lt;br&gt;beta-ketoacyl synthase alpha&lt;br&gt;Location: 16000 - 17268&lt;br&gt;&lt;br&gt;&lt;b&gt;BlastP hit with cds43881_45150&lt;/b&gt;&lt;br&gt;Percentage identity: 61&lt;br&gt;Percentage coverage: 99&lt;br&gt;BLAST bit score: 505&lt;br&gt;E-value: 8.2e-143" locus_tag="arx16" class="clusterblast-orf" id="dummy-1_h1_6_15"  />
</g>
<g id="a1_0016"  >
<polygon points="416,90 436,90 441,85 436,80 416,80 416,90 " style="fill:#d8a715; stroke-width:1; stroke:black; " description="&lt;b&gt;arx17&lt;/b&gt;&lt;br&gt;beta-ketoacyl synthase beta&lt;br&gt;Location: 17272 - 18510&lt;br&gt;&lt;br&gt;&lt;b&gt;BlastP hit with cds45146_46406&lt;/b&gt;&lt;br&gt;Percentage identity: 48&lt;br&gt;Percentage coverage: 96&lt;br&gt;BLAST bit score: 314&lt;br&gt;E-value: 2.7e-85" locus_tag="arx17" class="clusterblast-orf" id="dummy-1_h1_6_16"  />
</g>
<g id="a1_0017"  >
<polygon points="441,90 441,90 446,85 441,80 441,80 441,90 " style="fill:white; stroke-width:1; stroke:black; " description="&lt;b&gt;arx18&lt;/b&gt;&lt;br&gt;acyl carrier protein&lt;br&gt;Location: 18510 - 18773" locus_tag="arx18" class="clusterblast-orf" id="dummy-1_h1_6_17"  />
</g>
<g id="a1_0018"  >
<polygon points="446,90 450,90 455,85 450,80 446,80 446,90 " style="fill:#1546d8; stroke-width:1; stroke:black; " description="&lt;b&gt;arx19&lt;/b&gt;&lt;br&gt;cyclase&lt;br&gt;Location: 18775 - 19236&lt;br&gt;&lt;br&gt;&lt;b&gt;BlastP hit with cds46681_47161&lt;/b&gt;&lt;br&gt;Percentage identity: 56&lt;br&gt;Percentage coverage: 94&lt;br&gt;BLAST bit score: 181&lt;br&gt;E-value: 1.3e-45" locus_tag="arx19" class="clusterblast-orf" id="dummy-1_h1_6_18"  />
</g>
<g id="a1_0019"  >
<polygon points="455,90 460,90 465,85 460,80 455,80 455,90 " style="fill:white; stroke-width:1; stroke:black; " description="&lt;b&gt;arx20&lt;/b&gt;&lt;br&gt;monooxygenase&lt;br&gt;Location: 19243 - 19701" locus_tag="arx20" class="clusterblast-orf" id="dummy-1_h1_6_19"  />
</g>
<g id="a1_0020"  >
<polygon points="465,90 476,90 481,85 476,80 465,80 465,90 " style="fill:white; stroke-width:1; stroke:black; " description="&lt;b&gt;arx21&lt;/b&gt;&lt;br&gt;3-oxoacyl-ACP reductase&lt;br&gt;Location: 19725 - 20483" locus_tag="arx21" class="clusterblast-orf" id="dummy-1_h1_6_20"  />
</g>
<g id="a1_0021"  >
<polygon points="481,90 483,90 488,85 483,80 481,80 481,90 " style="fill:white; stroke-width:1; stroke:black; " description="&lt;b&gt;arx22&lt;/b&gt;&lt;br&gt;monooxygenase&lt;br&gt;Location: 20483 - 20836" locus_tag="arx22" class="clusterblast-orf" id="dummy-1_h1_6_21"  />
</g>
<g id="a1_0022"  >
<polygon points="488,90 489,90 494,85 489,80 488,80 488,90 " style="fill:white; stroke-width:1; stroke:black; " description="&lt;b&gt;arx23&lt;/b&gt;&lt;br&gt;monooxygenase&lt;br&gt;Location: 20833 - 21144" locus_tag="arx23" class="clusterblast-orf" id="dummy-1_h1_6_22"  />
</g>
<g id="a1_0023"  >
<polygon points="494,90 506,90 511,85 506,80 494,80 494,90 " style="fill:white; stroke-width:1; stroke:black; " description="&lt;b&gt;arx24&lt;/b&gt;&lt;br&gt;NDP-4-ketoreductase&lt;br&gt;Location: 21158 - 21961" locus_tag="arx24" class="clusterblast-orf" id="dummy-1_h1_6_23"  />
</g>
<g id="a1_0024"  >
<polygon points="512,85 517,80 521,80 521,90 517,90 512,85 " style="fill:white; stroke-width:1; stroke:black; " description="&lt;b&gt;arx25&lt;/b&gt;&lt;br&gt;hypothetical protein&lt;br&gt;Location: 22020 - 22475" locus_tag="arx25" class="clusterblast-orf" id="dummy-1_h1_6_24"  />
</g>
<g id="a1_0025"  >
<polygon points="521,85 526,80 529,80 529,90 526,90 521,85 " style="fill:white; stroke-width:1; stroke:black; " description="&lt;b&gt;arx26&lt;/b&gt;&lt;br&gt;hypothetical protein&lt;br&gt;Location: 22478 - 22858" locus_tag="arx26" class="clusterblast-orf" id="dummy-1_h1_6_25"  />
</g>
<g id="a1_0026"  >
<polygon points="529,85 534,80 544,80 544,90 534,90 529,85 " style="fill:white; stroke-width:1; stroke:black; " description="&lt;b&gt;arx27&lt;/b&gt;&lt;br&gt;3-oxoacyl-ACP reductase&lt;br&gt;Location: 22858 - 23595" locus_tag="arx27" class="clusterblast-orf" id="dummy-1_h1_6_26"  />
</g>
<g id="a1_0027"  >
<polygon points="544,85 549,80 574,80 574,90 549,90 544,85 " style="fill:white; stroke-width:1; stroke:black; " description="&lt;b&gt;arx28&lt;/b&gt;&lt;br&gt;putative peptide transporter&lt;br&gt;Location: 23592 - 25082" locus_tag="arx28" class="clusterblast-orf" id="dummy-1_h1_6_27"  />
</g>
<g id="a1_0028"  >
<polygon points="574,85 579,80 582,80 582,90 579,90 574,85 " style="fill:white; stroke-width:1; stroke:black; " description="&lt;b&gt;arx29&lt;/b&gt;&lt;br&gt;CurD-like protein&lt;br&gt;Location: 25098 - 25478" locus_tag="arx29" class="clusterblast-orf" id="dummy-1_h1_6_28"  />
</g>
<g id="a1_0029"  >
<polygon points="582,85 587,80 614,80 614,90 587,90 582,85 " style="fill:#d81515; stroke-width:1; stroke:black; " description="&lt;b&gt;arx30&lt;/b&gt;&lt;br&gt;FAD-binding monooxygenase&lt;br&gt;Location: 25490 - 27076&lt;br&gt;&lt;br&gt;&lt;b&gt;BlastP hit with cds40354_41992&lt;/b&gt;&lt;br&gt;Percentage identity: 48&lt;br&gt;Percentage coverage: 99&lt;br&gt;BLAST bit score: 425&lt;br&gt;E-value: 1.8e-118" locus_tag="arx30" class="clusterblast-orf" id="dummy-1_h1_6_29"  />
</g>
<g id="a1_0030"  >
<polygon points="618,85 623,80 632,80 632,90 623,90 618,85 " style="fill:white; stroke-width:1; stroke:black; " description="&lt;b&gt;arx31&lt;/b&gt;&lt;br&gt;LuxR family transcriptional regulator&lt;br&gt;Location: 27260 - 27943" locus_tag="arx31" class="clusterblast-orf" id="dummy-1_h1_6_30"  />
</g>
<g id="a1_0031"  >
<polygon points="632,85 637,80 655,80 655,90 637,90 632,85 " style="fill:white; stroke-width:1; stroke:black; " description="&lt;b&gt;arx32&lt;/b&gt;&lt;br&gt;two-component system histidine kinase&lt;br&gt;Location: 27940 - 29121" locus_tag="arx32" class="clusterblast-orf" id="dummy-1_h1_6_31"  />
</g>
<g id="a1_0032"  >
<polygon points="659,90 671,90 676,85 671,80 659,80 659,90 " style="fill:white; stroke-width:1; stroke:black; " description="&lt;b&gt;arx33&lt;/b&gt;&lt;br&gt;F420-dependent reductase&lt;br&gt;Location: 29300 - 30136" locus_tag="arx33" class="clusterblast-orf" id="dummy-1_h1_6_32"  />
</g>
<g id="a1_0033"  >
<polygon points="677,90 693,90 698,85 693,80 677,80 677,90 " style="fill:white; stroke-width:1; stroke:black; " description="&lt;b&gt;arx34&lt;/b&gt;&lt;br&gt;putative methyltransferase&lt;br&gt;Location: 30183 - 31214" locus_tag="arx34" class="clusterblast-orf" id="dummy-1_h1_6_33"  />
</g>
<g id="a1_0034"  >
<polygon points="702,90 708,90 713,85 708,80 702,80 702,90 " style="fill:white; stroke-width:1; stroke:black; " description="&lt;b&gt;arx35&lt;/b&gt;&lt;br&gt;biotin carboxyl carrier protein&lt;br&gt;Location: 31436 - 31963" locus_tag="arx35" class="clusterblast-orf" id="dummy-1_h1_6_34"  />
</g>
</svg>
