<svg xmlns="http://www.w3.org/2000/svg" xmlns:xlink="http://www.w3.org/1999/xlink" version="1.1" x="0" y="0" height="230" width="800" viewBox="0 0 800 230" preserveAspectRatio="none"  >
<g label="Query sequence" class="clusterblast-cluster"  >
<text x="5" y="20" class="clusterblast-acc"  >
Query sequence</text>
<line x1="10" y1="35" x2="778.0" y2="35" style="stroke-width:1; stroke:grey; "  />
<polygon points="219,35 224,30 228,30 228,40 224,40 219,35 " style="fill:white; stroke-width:1; stroke:black; " description="&lt;b&gt;cds164_1667&lt;/b&gt;&lt;br&gt;Catalase&lt;br&gt;Location: 164 - 1667" locus_tag="cds164_1667" class="clusterblast-orf" id="dummy-1_q0_0_all"  />
<polygon points="228,35 230,30 230,40 228,35 " style="fill:white; stroke-width:1; stroke:black; " description="&lt;b&gt;cds1629_2067&lt;/b&gt;&lt;br&gt;Transcriptional regulator FurA&lt;br&gt;Location: 1629 - 2067" locus_tag="cds1629_2067" class="clusterblast-orf" id="dummy-1_q1_0_all"  />
<polygon points="231,40 235,40 240,35 235,30 231,30 231,40 " style="fill:white; stroke-width:1; stroke:black; " description="&lt;b&gt;cds2242_3730&lt;/b&gt;&lt;br&gt;putative bifunctional transcriptional activator/DNA repair enzyme AlkA&lt;br&gt;Location: 2242 - 3730" locus_tag="cds2242_3730" class="clusterblast-orf" id="dummy-1_q2_0_all"  />
<polygon points="241,40 244,35 241,30 241,40 " style="fill:white; stroke-width:1; stroke:black; " description="&lt;b&gt;cds3811_4321&lt;/b&gt;&lt;br&gt;Methylated-DNA--protein-cysteine methyltransferase&lt;br&gt;Location: 3811 - 4321" locus_tag="cds3811_4321" class="clusterblast-orf" id="dummy-1_q3_0_all"  />
<polygon points="245,40 248,35 245,30 245,40 " style="fill:white; stroke-width:1; stroke:black; " description="&lt;b&gt;cds4523_5027&lt;/b&gt;&lt;br&gt;hypothetical protein&lt;br&gt;Location: 4523 - 5027" locus_tag="cds4523_5027" class="clusterblast-orf" id="dummy-1_q4_0_all"  />
<polygon points="248,40 252,40 257,35 252,30 248,30 248,40 " style="fill:white; stroke-width:1; stroke:black; " description="&lt;b&gt;cds5026_6454&lt;/b&gt;&lt;br&gt;hypothetical protein&lt;br&gt;Location: 5026 - 6454" locus_tag="cds5026_6454" class="clusterblast-orf" id="dummy-1_q5_0_all"  />
<polygon points="257,40 261,40 266,35 261,30 257,30 257,40 " style="fill:white; stroke-width:1; stroke:black; " description="&lt;b&gt;cds6450_7866&lt;/b&gt;&lt;br&gt;hypothetical protein&lt;br&gt;Location: 6450 - 7866" locus_tag="cds6450_7866" class="clusterblast-orf" id="dummy-1_q6_0_all"  />
<polygon points="266,40 268,40 273,35 268,30 266,30 266,40 " style="fill:white; stroke-width:1; stroke:black; " description="&lt;b&gt;cds7916_9029&lt;/b&gt;&lt;br&gt;putative protein YehL&lt;br&gt;Location: 7916 - 9029" locus_tag="cds7916_9029" class="clusterblast-orf" id="dummy-1_q7_0_all"  />
<polygon points="273,40 285,40 290,35 285,30 273,30 273,40 " style="fill:white; stroke-width:1; stroke:black; " description="&lt;b&gt;cds9025_11821&lt;/b&gt;&lt;br&gt;hypothetical protein&lt;br&gt;Location: 9025 - 11821" locus_tag="cds9025_11821" class="clusterblast-orf" id="dummy-1_q8_0_all"  />
<polygon points="291,40 296,40 301,35 296,30 291,30 291,40 " style="fill:white; stroke-width:1; stroke:black; " description="&lt;b&gt;cds12033_13605&lt;/b&gt;&lt;br&gt;Proline/betaine transporter&lt;br&gt;Location: 12033 - 13605" locus_tag="cds12033_13605" class="clusterblast-orf" id="dummy-1_q9_0_all"  />
<polygon points="304,40 305,35 304,30 304,40 " style="fill:#d81515; stroke-width:1; stroke:black; " description="&lt;b&gt;cds14120_14339&lt;/b&gt;&lt;br&gt;Protein MbtH&lt;br&gt;Location: 14120 - 14339" locus_tag="cds14120_14339" class="clusterblast-orf" id="dummy-1_q10_0_all"  />
<polygon points="308,40 391,40 396,35 391,30 308,30 308,40 " style="fill:#15d8d8; stroke-width:1; stroke:black; " description="&lt;b&gt;cds14742_29220&lt;/b&gt;&lt;br&gt;Tyrocidine synthase 3&lt;br&gt;Location: 14742 - 29220" locus_tag="cds14742_29220" class="clusterblast-orf" id="dummy-1_q11_0_all"  />
<polygon points="396,40 438,40 443,35 438,30 396,30 396,40 " style="fill:#15d8d8; stroke-width:1; stroke:black; " description="&lt;b&gt;cds29216_36776&lt;/b&gt;&lt;br&gt;Linear gramicidin synthase subunit D&lt;br&gt;Location: 29216 - 36776" locus_tag="cds29216_36776" class="clusterblast-orf" id="dummy-1_q12_0_all"  />
<polygon points="443,40 446,35 443,30 443,40 " style="fill:white; stroke-width:1; stroke:black; " description="&lt;b&gt;cds36821_37274&lt;/b&gt;&lt;br&gt;hypothetical protein&lt;br&gt;Location: 36821 - 37274" locus_tag="cds36821_37274" class="clusterblast-orf" id="dummy-1_q13_0_all"  />
<polygon points="446,40 448,40 453,35 448,30 446,30 446,40 " style="fill:white; stroke-width:1; stroke:black; " description="&lt;b&gt;cds37373_38432&lt;/b&gt;&lt;br&gt;hypothetical protein&lt;br&gt;Location: 37373 - 38432" locus_tag="cds37373_38432" class="clusterblast-orf" id="dummy-1_q14_0_all"  />
<polygon points="454,40 456,40 461,35 456,30 454,30 454,40 " style="fill:white; stroke-width:1; stroke:black; " description="&lt;b&gt;cds38713_39781&lt;/b&gt;&lt;br&gt;hypothetical protein&lt;br&gt;Location: 38713 - 39781" locus_tag="cds38713_39781" class="clusterblast-orf" id="dummy-1_q15_0_all"  />
<polygon points="461,35 462,30 462,40 461,35 " style="fill:white; stroke-width:1; stroke:black; " description="&lt;b&gt;cds39842_40028&lt;/b&gt;&lt;br&gt;hypothetical protein&lt;br&gt;Location: 39842 - 40028" locus_tag="cds39842_40028" class="clusterblast-orf" id="dummy-1_q16_0_all"  />
<polygon points="462,35 464,30 464,40 462,35 " style="fill:white; stroke-width:1; stroke:black; " description="&lt;b&gt;cds40024_40312&lt;/b&gt;&lt;br&gt;hypothetical protein&lt;br&gt;Location: 40024 - 40312" locus_tag="cds40024_40312" class="clusterblast-orf" id="dummy-1_q17_0_all"  />
<polygon points="465,35 468,30 468,40 465,35 " style="fill:white; stroke-width:1; stroke:black; " description="&lt;b&gt;cds40480_40894&lt;/b&gt;&lt;br&gt;hypothetical protein&lt;br&gt;Location: 40480 - 40894" locus_tag="cds40480_40894" class="clusterblast-orf" id="dummy-1_q18_0_all"  />
<polygon points="472,35 477,30 477,30 477,40 477,40 472,35 " style="fill:white; stroke-width:1; stroke:black; " description="&lt;b&gt;cds41582_42332&lt;/b&gt;&lt;br&gt;Glucose 1-dehydrogenase&lt;br&gt;Location: 41582 - 42332" locus_tag="cds41582_42332" class="clusterblast-orf" id="dummy-1_q19_0_all"  />
<polygon points="478,40 481,35 478,30 478,40 " style="fill:white; stroke-width:1; stroke:black; " description="&lt;b&gt;cds42498_43035&lt;/b&gt;&lt;br&gt;HTH-type transcriptional repressor ComR&lt;br&gt;Location: 42498 - 43035" locus_tag="cds42498_43035" class="clusterblast-orf" id="dummy-1_q20_0_all"  />
<polygon points="481,35 486,30 488,30 488,40 486,40 481,35 " style="fill:white; stroke-width:1; stroke:black; " description="&lt;b&gt;cds43100_44174&lt;/b&gt;&lt;br&gt;N-ethylmaleimide reductase&lt;br&gt;Location: 43100 - 44174" locus_tag="cds43100_44174" class="clusterblast-orf" id="dummy-1_q21_0_all"  />
<polygon points="489,40 491,35 489,30 489,40 " style="fill:white; stroke-width:1; stroke:black; " description="&lt;b&gt;cds44329_44761&lt;/b&gt;&lt;br&gt;Mercuric resistance operon regulatory protein&lt;br&gt;Location: 44329 - 44761" locus_tag="cds44329_44761" class="clusterblast-orf" id="dummy-1_q22_0_all"  />
<polygon points="492,35 497,30 498,30 498,40 497,40 492,35 " style="fill:white; stroke-width:1; stroke:black; " description="&lt;b&gt;cds44928_45888&lt;/b&gt;&lt;br&gt;N-acetylmannosamine kinase&lt;br&gt;Location: 44928 - 45888" locus_tag="cds44928_45888" class="clusterblast-orf" id="dummy-1_q23_0_all"  />
<polygon points="504,40 507,40 512,35 507,30 504,30 504,40 " style="fill:white; stroke-width:1; stroke:black; " description="&lt;b&gt;cds46880_48188&lt;/b&gt;&lt;br&gt;Mannan endo-1,4-beta-mannosidase&lt;br&gt;Location: 46880 - 48188" locus_tag="cds46880_48188" class="clusterblast-orf" id="dummy-1_q24_0_all"  />
<polygon points="513,35 515,30 515,40 513,35 " style="fill:white; stroke-width:1; stroke:black; " description="&lt;b&gt;cds48212_48611&lt;/b&gt;&lt;br&gt;hypothetical protein&lt;br&gt;Location: 48212 - 48611" locus_tag="cds48212_48611" class="clusterblast-orf" id="dummy-1_q25_0_all"  />
<polygon points="515,35 518,30 518,40 515,35 " style="fill:white; stroke-width:1; stroke:black; " description="&lt;b&gt;cds48624_49035&lt;/b&gt;&lt;br&gt;hypothetical protein&lt;br&gt;Location: 48624 - 49035" locus_tag="cds48624_49035" class="clusterblast-orf" id="dummy-1_q26_0_all"  />
<polygon points="518,40 518,40 523,35 518,30 518,30 518,40 " style="fill:white; stroke-width:1; stroke:black; " description="&lt;b&gt;cds49084_49969&lt;/b&gt;&lt;br&gt;hypothetical protein&lt;br&gt;Location: 49084 - 49969" locus_tag="cds49084_49969" class="clusterblast-orf" id="dummy-1_q27_0_all"  />
<polygon points="525,35 530,30 530,30 530,40 530,40 525,35 " style="fill:white; stroke-width:1; stroke:black; " description="&lt;b&gt;cds50256_51051&lt;/b&gt;&lt;br&gt;2,5-dichloro-2,5-cyclohexadiene-1,4-diol dehydrogenase&lt;br&gt;Location: 50256 - 51051" locus_tag="cds50256_51051" class="clusterblast-orf" id="dummy-1_q28_0_all"  />
<polygon points="531,40 535,35 531,30 531,40 " style="fill:white; stroke-width:1; stroke:black; " description="&lt;b&gt;cds51229_51832&lt;/b&gt;&lt;br&gt;HTH-type transcriptional repressor ComR&lt;br&gt;Location: 51229 - 51832" locus_tag="cds51229_51832" class="clusterblast-orf" id="dummy-1_q29_0_all"  />
<polygon points="536,35 541,30 542,30 542,40 541,40 536,35 " style="fill:white; stroke-width:1; stroke:black; " description="&lt;b&gt;cds52033_52969&lt;/b&gt;&lt;br&gt;Haloalkane dehalogenase&lt;br&gt;Location: 52033 - 52969" locus_tag="cds52033_52969" class="clusterblast-orf" id="dummy-1_q30_0_all"  />
<polygon points="547,40 551,35 547,30 547,40 " style="fill:white; stroke-width:1; stroke:black; " description="&lt;b&gt;cds53803_54529&lt;/b&gt;&lt;br&gt;Endo-1,4-beta-xylanase C&lt;br&gt;Location: 53803 - 54529" locus_tag="cds53803_54529" class="clusterblast-orf" id="dummy-1_q31_0_all"  />
<polygon points="552,35 554,30 554,40 552,35 " style="fill:white; stroke-width:1; stroke:black; " description="&lt;b&gt;cds54707_54929&lt;/b&gt;&lt;br&gt;hypothetical protein&lt;br&gt;Location: 54707 - 54929" locus_tag="cds54707_54929" class="clusterblast-orf" id="dummy-1_q32_0_all"  />
<polygon points="554,35 559,30 560,30 560,40 559,40 554,35 " style="fill:white; stroke-width:1; stroke:black; " description="&lt;b&gt;cds55021_56050&lt;/b&gt;&lt;br&gt;HTH-type transcriptional regulator DegA&lt;br&gt;Location: 55021 - 56050" locus_tag="cds55021_56050" class="clusterblast-orf" id="dummy-1_q33_0_all"  />
</g>
<g label="BGC0000336" description="BGC0000336_c1: daptomycin (4% of genes show similarity), NRP" class="clusterblast-cluster"  >
<text x="5" y="70" class="clusterblast-acc"  >
<a xlink:href="https://mibig.secondarymetabolites.org/go/BGC0000336/1" target="_blank">BGC0000336</a>:                                                                       daptomycin (4% of genes show similarity), NRP</text>
<line x1="10" y1="85" x2="778.0" y2="85" style="stroke-width:1; stroke:grey; "  />
</g>
<g id="a1_000"  >
<polygon points="0,85 5,80 5,80 5,90 5,90 0,85 " style="fill:white; stroke-width:1; stroke:black; " description="&lt;b&gt;AAX31516.1&lt;/b&gt;&lt;br&gt;hypothetical protein&lt;br&gt;Location: 1 - 965" locus_tag="AAX31516.1" class="clusterblast-orf" id="dummy-1_h1_7_0"  />
</g>
<g id="a1_001"  >
<polygon points="6,85 11,80 11,80 11,90 11,90 6,85 " style="fill:white; stroke-width:1; stroke:black; " description="&lt;b&gt;AAX31517.1&lt;/b&gt;&lt;br&gt;putative integral membrane protein&lt;br&gt;Location: 989 - 1948" locus_tag="AAX31517.1" class="clusterblast-orf" id="dummy-1_h1_7_1"  />
</g>
<g id="a1_002"  >
<polygon points="12,90 14,85 12,80 12,90 " style="fill:white; stroke-width:1; stroke:black; " description="&lt;b&gt;AAX31518.1&lt;/b&gt;&lt;br&gt;hypothetical protein&lt;br&gt;Location: 2099 - 2392" locus_tag="AAX31518.1" class="clusterblast-orf" id="dummy-1_h1_7_2"  />
</g>
<g id="a1_003"  >
<polygon points="14,85 19,80 20,80 20,90 19,90 14,85 " style="fill:white; stroke-width:1; stroke:black; " description="&lt;b&gt;AAX31519.1&lt;/b&gt;&lt;br&gt;putative acyl-coA thioesterase II&lt;br&gt;Location: 2405 - 3277" locus_tag="AAX31519.1" class="clusterblast-orf" id="dummy-1_h1_7_3"  />
</g>
<g id="a1_004"  >
<polygon points="20,85 25,80 35,80 35,90 25,90 20,85 " style="fill:white; stroke-width:1; stroke:black; " description="&lt;b&gt;AAX31520.1&lt;/b&gt;&lt;br&gt;putative ATP-dependent helicase&lt;br&gt;Location: 3312 - 5885" locus_tag="AAX31520.1" class="clusterblast-orf" id="dummy-1_h1_7_4"  />
</g>
<g id="a1_005"  >
<polygon points="36,90 36,90 41,85 36,80 36,80 36,90 " style="fill:white; stroke-width:1; stroke:black; " description="&lt;b&gt;AAX31521.1&lt;/b&gt;&lt;br&gt;putative integral membrane protein&lt;br&gt;Location: 5963 - 6754" locus_tag="AAX31521.1" class="clusterblast-orf" id="dummy-1_h1_7_5"  />
</g>
<g id="a1_006"  >
<polygon points="41,90 46,90 51,85 46,80 41,80 41,90 " style="fill:white; stroke-width:1; stroke:black; " description="&lt;b&gt;AAX31522.1&lt;/b&gt;&lt;br&gt;putative DNA ligase&lt;br&gt;Location: 6850 - 8385" locus_tag="AAX31522.1" class="clusterblast-orf" id="dummy-1_h1_7_6"  />
</g>
<g id="a1_007"  >
<polygon points="51,85 56,80 60,80 60,90 56,90 51,85 " style="fill:white; stroke-width:1; stroke:black; " description="&lt;b&gt;AAX31523.1&lt;/b&gt;&lt;br&gt;hypothetical protein&lt;br&gt;Location: 8432 - 9859" locus_tag="AAX31523.1" class="clusterblast-orf" id="dummy-1_h1_7_7"  />
</g>
<g id="a1_008"  >
<polygon points="60,85 65,80 66,80 66,90 65,90 60,85 " style="fill:white; stroke-width:1; stroke:black; " description="&lt;b&gt;AAX31524.1&lt;/b&gt;&lt;br&gt;hypothetical protein&lt;br&gt;Location: 9920 - 10951" locus_tag="AAX31524.1" class="clusterblast-orf" id="dummy-1_h1_7_8"  />
</g>
<g id="a1_009"  >
<polygon points="68,90 73,90 78,85 73,80 68,80 68,90 " style="fill:white; stroke-width:1; stroke:black; " description="&lt;b&gt;AAX31525.1&lt;/b&gt;&lt;br&gt;spermine synthase&lt;br&gt;Location: 11239 - 12759" locus_tag="AAX31525.1" class="clusterblast-orf" id="dummy-1_h1_7_9"  />
</g>
<g id="a1_0010"  >
<polygon points="78,85 83,80 89,80 89,90 83,90 78,85 " style="fill:white; stroke-width:1; stroke:black; " description="&lt;b&gt;AAX31526.1&lt;/b&gt;&lt;br&gt;putative ABC transporter&lt;br&gt;Location: 12869 - 14650" locus_tag="AAX31526.1" class="clusterblast-orf" id="dummy-1_h1_7_10"  />
</g>
<g id="a1_0011"  >
<polygon points="89,85 94,80 100,80 100,90 94,90 89,85 " style="fill:white; stroke-width:1; stroke:black; " description="&lt;b&gt;AAX31527.1&lt;/b&gt;&lt;br&gt;putative ABC transporter&lt;br&gt;Location: 14647 - 16515" locus_tag="AAX31527.1" class="clusterblast-orf" id="dummy-1_h1_7_11"  />
</g>
<g id="a1_0012"  >
<polygon points="101,85 106,80 111,80 111,90 106,90 101,85 " style="fill:white; stroke-width:1; stroke:black; " description="&lt;b&gt;AAX31528.1&lt;/b&gt;&lt;br&gt;putative oxidoreductase&lt;br&gt;Location: 16673 - 18157" locus_tag="AAX31528.1" class="clusterblast-orf" id="dummy-1_h1_7_12"  />
</g>
<g id="a1_0013"  >
<polygon points="112,85 117,80 130,80 130,90 117,90 112,85 " style="fill:white; stroke-width:1; stroke:black; " description="&lt;b&gt;AAX31529.1&lt;/b&gt;&lt;br&gt;putative oxidoreductase&lt;br&gt;Location: 18423 - 21377" locus_tag="AAX31529.1" class="clusterblast-orf" id="dummy-1_h1_7_13"  />
</g>
<g id="a1_0014"  >
<polygon points="131,85 134,80 134,90 131,85 " style="fill:white; stroke-width:1; stroke:black; " description="&lt;b&gt;AAX31530.1&lt;/b&gt;&lt;br&gt;possible regulator&lt;br&gt;Location: 21429 - 21929" locus_tag="AAX31530.1" class="clusterblast-orf" id="dummy-1_h1_7_14"  />
</g>
<g id="a1_0015"  >
<polygon points="134,90 140,90 145,85 140,80 134,80 134,90 " style="fill:white; stroke-width:1; stroke:black; " description="&lt;b&gt;AAX31531.1&lt;/b&gt;&lt;br&gt;putative ABC transporter&lt;br&gt;Location: 22043 - 23866" locus_tag="AAX31531.1" class="clusterblast-orf" id="dummy-1_h1_7_15"  />
</g>
<g id="a1_0016"  >
<polygon points="146,90 150,85 146,80 146,90 " style="fill:white; stroke-width:1; stroke:black; " description="&lt;b&gt;AAX31532.1&lt;/b&gt;&lt;br&gt;hypothetical protein&lt;br&gt;Location: 23946 - 24557" locus_tag="AAX31532.1" class="clusterblast-orf" id="dummy-1_h1_7_16"  />
</g>
<g id="a1_0017"  >
<polygon points="152,90 153,90 158,85 153,80 152,80 152,90 " style="fill:white; stroke-width:1; stroke:black; " description="&lt;b&gt;AAX31533.1&lt;/b&gt;&lt;br&gt;hypothetical protein&lt;br&gt;Location: 25003 - 25863" locus_tag="AAX31533.1" class="clusterblast-orf" id="dummy-1_h1_7_17"  />
</g>
<g id="a1_0018"  >
<polygon points="158,85 163,80 165,80 165,90 163,90 158,85 " style="fill:white; stroke-width:1; stroke:black; " description="&lt;b&gt;AAX31534.1&lt;/b&gt;&lt;br&gt;putative oxidoreductase&lt;br&gt;Location: 25891 - 27051" locus_tag="AAX31534.1" class="clusterblast-orf" id="dummy-1_h1_7_18"  />
</g>
<g id="a1_0019"  >
<polygon points="165,85 167,80 167,90 165,85 " style="fill:white; stroke-width:1; stroke:black; " description="&lt;b&gt;AAX31535.1&lt;/b&gt;&lt;br&gt;putative alkane sulfonate monooxygenase&lt;br&gt;Location: 27083 - 27361" locus_tag="AAX31535.1" class="clusterblast-orf" id="dummy-1_h1_7_19"  />
</g>
<g id="a1_0020"  >
<polygon points="168,85 173,80 175,80 175,90 173,90 168,85 " style="fill:white; stroke-width:1; stroke:black; " description="&lt;b&gt;AAX31536.1&lt;/b&gt;&lt;br&gt;hypothetical protein&lt;br&gt;Location: 27535 - 28779" locus_tag="AAX31536.1" class="clusterblast-orf" id="dummy-1_h1_7_20"  />
</g>
<g id="a1_0021"  >
<polygon points="183,85 187,80 187,90 183,85 " style="fill:white; stroke-width:1; stroke:black; " description="&lt;b&gt;AAX31537.1&lt;/b&gt;&lt;br&gt;hypothetical protein&lt;br&gt;Location: 29951 - 30610" locus_tag="AAX31537.1" class="clusterblast-orf" id="dummy-1_h1_7_21"  />
</g>
<g id="a1_0022"  >
<polygon points="188,90 188,90 193,85 188,80 188,80 188,90 " style="fill:white; stroke-width:1; stroke:black; " description="&lt;b&gt;AAX31538.1&lt;/b&gt;&lt;br&gt;hypothetical protein&lt;br&gt;Location: 30883 - 31695" locus_tag="AAX31538.1" class="clusterblast-orf" id="dummy-1_h1_7_22"  />
</g>
<g id="a1_0023"  >
<polygon points="195,85 200,80 201,80 201,90 200,90 195,85 " style="fill:white; stroke-width:1; stroke:black; " description="&lt;b&gt;AAX31539.1&lt;/b&gt;&lt;br&gt;putative ABC transporter periplasmic component&lt;br&gt;Location: 31928 - 32911" locus_tag="AAX31539.1" class="clusterblast-orf" id="dummy-1_h1_7_23"  />
</g>
<g id="a1_0024"  >
<polygon points="201,85 205,80 205,90 201,85 " style="fill:white; stroke-width:1; stroke:black; " description="&lt;b&gt;AAX31540.1&lt;/b&gt;&lt;br&gt;putative ABC transporter ATP-binding protein&lt;br&gt;Location: 32920 - 33687" locus_tag="AAX31540.1" class="clusterblast-orf" id="dummy-1_h1_7_24"  />
</g>
<g id="a1_0025"  >
<polygon points="205,85 210,80 212,80 212,90 210,90 205,85 " style="fill:white; stroke-width:1; stroke:black; " description="&lt;b&gt;AAX31541.1&lt;/b&gt;&lt;br&gt;putative ABC transporter permease&lt;br&gt;Location: 33689 - 34795" locus_tag="AAX31541.1" class="clusterblast-orf" id="dummy-1_h1_7_25"  />
</g>
<g id="a1_0026"  >
<polygon points="213,85 218,80 221,80 221,90 218,90 213,85 " style="fill:white; stroke-width:1; stroke:black; " description="&lt;b&gt;AAX31542.1&lt;/b&gt;&lt;br&gt;unknown&lt;br&gt;Location: 34890 - 36143" locus_tag="AAX31542.1" class="clusterblast-orf" id="dummy-1_h1_7_26"  />
</g>
<g id="a1_0027"  >
<polygon points="220,85 225,80 226,80 226,90 225,90 220,85 " style="fill:white; stroke-width:1; stroke:black; " description="&lt;b&gt;AAX31543.1&lt;/b&gt;&lt;br&gt;unknown&lt;br&gt;Location: 36140 - 36964" locus_tag="AAX31543.1" class="clusterblast-orf" id="dummy-1_h1_7_27"  />
</g>
<g id="a1_0028"  >
<polygon points="226,85 231,80 232,80 232,90 231,90 226,85 " style="fill:white; stroke-width:1; stroke:black; " description="&lt;b&gt;AAX31544.1&lt;/b&gt;&lt;br&gt;putative cysteine synthase&lt;br&gt;Location: 36966 - 37979" locus_tag="AAX31544.1" class="clusterblast-orf" id="dummy-1_h1_7_28"  />
</g>
<g id="a1_0029"  >
<polygon points="233,90 234,90 239,85 234,80 233,80 233,90 " style="fill:white; stroke-width:1; stroke:black; " description="&lt;b&gt;AAX31545.1&lt;/b&gt;&lt;br&gt;hypothetical protein&lt;br&gt;Location: 38241 - 39140" locus_tag="AAX31545.1" class="clusterblast-orf" id="dummy-1_h1_7_29"  />
</g>
<g id="a1_0030"  >
<polygon points="241,90 245,85 241,80 241,90 " style="fill:white; stroke-width:1; stroke:black; " description="&lt;b&gt;AAX31546.1&lt;/b&gt;&lt;br&gt;unknown&lt;br&gt;Location: 39458 - 40225" locus_tag="AAX31546.1" class="clusterblast-orf" id="dummy-1_h1_7_30"  />
</g>
<g id="a1_0031"  >
<polygon points="246,85 251,80 251,80 251,90 251,90 246,85 " style="fill:white; stroke-width:1; stroke:black; " description="&lt;b&gt;AAX31547.1&lt;/b&gt;&lt;br&gt;putative ABC transporter ATP-binding protein&lt;br&gt;Location: 40394 - 41137" locus_tag="AAX31547.1" class="clusterblast-orf" id="dummy-1_h1_7_31"  />
</g>
<g id="a1_0032"  >
<polygon points="251,90 252,90 257,85 252,80 251,80 251,90 " style="fill:white; stroke-width:1; stroke:black; " description="&lt;b&gt;AAX31548.1&lt;/b&gt;&lt;br&gt;putative ABC transporter permease&lt;br&gt;Location: 41152 - 42111" locus_tag="AAX31548.1" class="clusterblast-orf" id="dummy-1_h1_7_32"  />
</g>
<g id="a1_0033"  >
<polygon points="257,90 259,90 264,85 259,80 257,80 257,90 " style="fill:white; stroke-width:1; stroke:black; " description="&lt;b&gt;AAX31549.1&lt;/b&gt;&lt;br&gt;putative lipoprotein&lt;br&gt;Location: 42108 - 43298" locus_tag="AAX31549.1" class="clusterblast-orf" id="dummy-1_h1_7_33"  />
</g>
<g id="a1_0034"  >
<polygon points="264,90 265,90 270,85 265,80 264,80 264,90 " style="fill:white; stroke-width:1; stroke:black; " description="&lt;b&gt;AAX31550.1&lt;/b&gt;&lt;br&gt;putative ABC transporter periplasmic component&lt;br&gt;Location: 43295 - 44257" locus_tag="AAX31550.1" class="clusterblast-orf" id="dummy-1_h1_7_34"  />
</g>
<g id="a1_0035"  >
<polygon points="271,90 273,90 278,85 273,80 271,80 271,90 " style="fill:white; stroke-width:1; stroke:black; " description="&lt;b&gt;AAX31551.1&lt;/b&gt;&lt;br&gt;putative secreted protein&lt;br&gt;Location: 44345 - 45550" locus_tag="AAX31551.1" class="clusterblast-orf" id="dummy-1_h1_7_35"  />
</g>
<g id="a1_0036"  >
<polygon points="280,85 284,80 284,90 280,85 " style="fill:white; stroke-width:1; stroke:black; " description="&lt;b&gt;AAX31552.1&lt;/b&gt;&lt;br&gt;hypothetical protein&lt;br&gt;Location: 45829 - 46449" locus_tag="AAX31552.1" class="clusterblast-orf" id="dummy-1_h1_7_36"  />
</g>
<g id="a1_0037"  >
<polygon points="288,90 289,90 294,85 289,80 288,80 288,90 " style="fill:white; stroke-width:1; stroke:black; " description="&lt;b&gt;AAX31553.1&lt;/b&gt;&lt;br&gt;putative ABC transporter ATP-binding protein&lt;br&gt;Location: 47208 - 48167" locus_tag="AAX31553.1" class="clusterblast-orf" id="dummy-1_h1_7_37"  />
</g>
<g id="a1_0038"  >
<polygon points="294,90 294,90 299,85 294,80 294,80 294,90 " style="fill:white; stroke-width:1; stroke:black; " description="&lt;b&gt;AAX31554.1&lt;/b&gt;&lt;br&gt;putative ABC transporter permease&lt;br&gt;Location: 48161 - 49030" locus_tag="AAX31554.1" class="clusterblast-orf" id="dummy-1_h1_7_38"  />
</g>
<g id="a1_0039"  >
<polygon points="302,90 308,90 313,85 308,80 302,80 302,90 " style="fill:white; stroke-width:1; stroke:black; " description="&lt;b&gt;AAX31555.1&lt;/b&gt;&lt;br&gt;acyl-CoA ligase&lt;br&gt;Location: 49421 - 51214" locus_tag="AAX31555.1" class="clusterblast-orf" id="dummy-1_h1_7_39"  />
</g>
<g id="a1_0040"  >
<polygon points="313,90 315,85 313,80 313,90 " style="fill:white; stroke-width:1; stroke:black; " description="&lt;b&gt;AAX31556.1&lt;/b&gt;&lt;br&gt;probable acyl carrier protein&lt;br&gt;Location: 51283 - 51552" locus_tag="AAX31556.1" class="clusterblast-orf" id="dummy-1_h1_7_40"  />
</g>
<g id="a1_0041"  >
<polygon points="315,90 417,90 422,85 417,80 315,80 315,90 " style="fill:white; stroke-width:1; stroke:black; " description="&lt;b&gt;AAX31557.1&lt;/b&gt;&lt;br&gt;peptide synthetase 1&lt;br&gt;Location: 51568 - 69060" locus_tag="AAX31557.1" class="clusterblast-orf" id="dummy-1_h1_7_41"  />
</g>
<g id="a1_0042"  >
<polygon points="422,90 551,90 556,85 551,80 422,80 422,90 " style="fill:#15d8d8; stroke-width:1; stroke:black; " description="&lt;b&gt;AAX31558.1&lt;/b&gt;&lt;br&gt;peptide synthetase 2&lt;br&gt;Location: 69057 - 91073&lt;br&gt;&lt;br&gt;&lt;b&gt;BlastP hit with cds29216_36776&lt;/b&gt;&lt;br&gt;Percentage identity: 46&lt;br&gt;Percentage coverage: 85&lt;br&gt;BLAST bit score: 1549&lt;br&gt;E-value: 0.0" locus_tag="AAX31558.1" class="clusterblast-orf" id="dummy-1_h1_7_42"  />
</g>
<g id="a1_0043"  >
<polygon points="556,90 595,90 600,85 595,80 556,80 556,90 " style="fill:#15d8d8; stroke-width:1; stroke:black; " description="&lt;b&gt;AAX31559.1&lt;/b&gt;&lt;br&gt;peptide synthetase 3&lt;br&gt;Location: 91070 - 98209&lt;br&gt;&lt;br&gt;&lt;b&gt;BlastP hit with cds29216_36776&lt;/b&gt;&lt;br&gt;Percentage identity: 48&lt;br&gt;Percentage coverage: 85&lt;br&gt;BLAST bit score: 1649&lt;br&gt;E-value: 0.0" locus_tag="AAX31559.1" class="clusterblast-orf" id="dummy-1_h1_7_43"  />
</g>
<g id="a1_0044"  >
<polygon points="600,90 602,85 600,80 600,90 " style="fill:#d81515; stroke-width:1; stroke:black; " description="&lt;b&gt;AAX31560.1&lt;/b&gt;&lt;br&gt;putative esterase&lt;br&gt;Location: 98283 - 98510&lt;br&gt;&lt;br&gt;&lt;b&gt;BlastP hit with cds14120_14339&lt;/b&gt;&lt;br&gt;Percentage identity: 60&lt;br&gt;Percentage coverage: 97&lt;br&gt;BLAST bit score: 97&lt;br&gt;E-value: 8.8e-21" locus_tag="AAX31560.1" class="clusterblast-orf" id="dummy-1_h1_7_44"  />
</g>
<g id="a1_0045"  >
<polygon points="602,90 602,90 607,85 602,80 602,80 602,90 " style="fill:white; stroke-width:1; stroke:black; " description="&lt;b&gt;AAX31561.1&lt;/b&gt;&lt;br&gt;putative hydrolase&lt;br&gt;Location: 98548 - 99363" locus_tag="AAX31561.1" class="clusterblast-orf" id="dummy-1_h1_7_45"  />
</g>
<g id="a1_0046"  >
<polygon points="608,90 609,90 614,85 609,80 608,80 608,90 " style="fill:white; stroke-width:1; stroke:black; " description="&lt;b&gt;AAX31562.1&lt;/b&gt;&lt;br&gt;hypothetical protein&lt;br&gt;Location: 99447 - 100433" locus_tag="AAX31562.1" class="clusterblast-orf" id="dummy-1_h1_7_46"  />
</g>
<g id="a1_0047"  >
<polygon points="614,90 618,85 614,80 614,90 " style="fill:white; stroke-width:1; stroke:black; " description="&lt;b&gt;AAX31563.1&lt;/b&gt;&lt;br&gt;putative oxidoreductase&lt;br&gt;Location: 100430 - 101167" locus_tag="AAX31563.1" class="clusterblast-orf" id="dummy-1_h1_7_47"  />
</g>
<g id="a1_0048"  >
<polygon points="629,90 633,85 629,80 629,90 " style="fill:white; stroke-width:1; stroke:black; " description="&lt;b&gt;AAX31564.1&lt;/b&gt;&lt;br&gt;probable phosphatase&lt;br&gt;Location: 102921 - 103574" locus_tag="AAX31564.1" class="clusterblast-orf" id="dummy-1_h1_7_48"  />
</g>
<g id="a1_0049"  >
<polygon points="634,85 639,80 651,80 651,90 639,90 634,85 " style="fill:white; stroke-width:1; stroke:black; " description="&lt;b&gt;AAX31565.1&lt;/b&gt;&lt;br&gt;putative neutral metalloprotease&lt;br&gt;Location: 103684 - 106551" locus_tag="AAX31565.1" class="clusterblast-orf" id="dummy-1_h1_7_49"  />
</g>
<g id="a1_0050"  >
<polygon points="652,90 653,90 658,85 653,80 652,80 652,90 " style="fill:white; stroke-width:1; stroke:black; " description="&lt;b&gt;AAX31566.1&lt;/b&gt;&lt;br&gt;probable regulatory protein&lt;br&gt;Location: 106688 - 107713" locus_tag="AAX31566.1" class="clusterblast-orf" id="dummy-1_h1_7_50"  />
</g>
<g id="a1_0051"  >
<polygon points="658,85 663,80 665,80 665,90 663,90 658,85 " style="fill:white; stroke-width:1; stroke:black; " description="&lt;b&gt;AAX31567.1&lt;/b&gt;&lt;br&gt;probable transcriptional regulator&lt;br&gt;Location: 107741 - 108856" locus_tag="AAX31567.1" class="clusterblast-orf" id="dummy-1_h1_7_51"  />
</g>
<g id="a1_0052"  >
<polygon points="667,90 670,90 675,85 670,80 667,80 667,90 " style="fill:white; stroke-width:1; stroke:black; " description="&lt;b&gt;AAX31568.1&lt;/b&gt;&lt;br&gt;putative solute-binding lipoprotein&lt;br&gt;Location: 109146 - 110498" locus_tag="AAX31568.1" class="clusterblast-orf" id="dummy-1_h1_7_52"  />
</g>
<g id="a1_0053"  >
<polygon points="676,90 676,90 681,85 676,80 676,80 676,90 " style="fill:white; stroke-width:1; stroke:black; " description="&lt;b&gt;AAX31569.1&lt;/b&gt;&lt;br&gt;putative ABC transporter permease&lt;br&gt;Location: 110627 - 111424" locus_tag="AAX31569.1" class="clusterblast-orf" id="dummy-1_h1_7_53"  />
</g>
<g id="a1_0054"  >
<polygon points="682,90 682,90 687,85 682,80 682,80 682,90 " style="fill:white; stroke-width:1; stroke:black; " description="&lt;b&gt;AAX31570.1&lt;/b&gt;&lt;br&gt;putative ABC transporter permease&lt;br&gt;Location: 111553 - 112353" locus_tag="AAX31570.1" class="clusterblast-orf" id="dummy-1_h1_7_54"  />
</g>
<g id="a1_0055"  >
<polygon points="687,90 688,90 693,85 688,80 687,80 687,90 " style="fill:white; stroke-width:1; stroke:black; " description="&lt;b&gt;AAX31571.1&lt;/b&gt;&lt;br&gt;putative dehydrogenase&lt;br&gt;Location: 112425 - 113405" locus_tag="AAX31571.1" class="clusterblast-orf" id="dummy-1_h1_7_55"  />
</g>
<g id="a1_0056"  >
<polygon points="693,90 701,90 706,85 701,80 693,80 693,90 " style="fill:white; stroke-width:1; stroke:black; " description="&lt;b&gt;AAX31572.1&lt;/b&gt;&lt;br&gt;unknown&lt;br&gt;Location: 113453 - 115462" locus_tag="AAX31572.1" class="clusterblast-orf" id="dummy-1_h1_7_56"  />
</g>
<g id="a1_0057"  >
<polygon points="706,90 706,90 711,85 706,80 706,80 706,90 " style="fill:white; stroke-width:1; stroke:black; " description="&lt;b&gt;AAX31573.1&lt;/b&gt;&lt;br&gt;hypothetical protein&lt;br&gt;Location: 115470 - 116348" locus_tag="AAX31573.1" class="clusterblast-orf" id="dummy-1_h1_7_57"  />
</g>
<g id="a1_0058"  >
<polygon points="711,85 716,80 717,80 717,90 716,90 711,85 " style="fill:white; stroke-width:1; stroke:black; " description="&lt;b&gt;AAX31574.1&lt;/b&gt;&lt;br&gt;unknown&lt;br&gt;Location: 116393 - 117409" locus_tag="AAX31574.1" class="clusterblast-orf" id="dummy-1_h1_7_58"  />
</g>
<g id="a1_0059"  >
<polygon points="719,90 723,85 719,80 719,90 " style="fill:white; stroke-width:1; stroke:black; " description="&lt;b&gt;AAX31575.1&lt;/b&gt;&lt;br&gt;unknown&lt;br&gt;Location: 117661 - 118284" locus_tag="AAX31575.1" class="clusterblast-orf" id="dummy-1_h1_7_59"  />
</g>
<g id="a1_0060"  >
<polygon points="723,90 725,90 730,85 725,80 723,80 723,90 " style="fill:white; stroke-width:1; stroke:black; " description="&lt;b&gt;AAX31576.1&lt;/b&gt;&lt;br&gt;probable hydrolase&lt;br&gt;Location: 118281 - 119456" locus_tag="AAX31576.1" class="clusterblast-orf" id="dummy-1_h1_7_60"  />
</g>
<g id="a1_0061"  >
<polygon points="731,90 746,90 751,85 746,80 731,80 731,90 " style="fill:white; stroke-width:1; stroke:black; " description="&lt;b&gt;AAX31577.1&lt;/b&gt;&lt;br&gt;hypothetical protein&lt;br&gt;Location: 119564 - 122875" locus_tag="AAX31577.1" class="clusterblast-orf" id="dummy-1_h1_7_61"  />
</g>
<g id="a1_0062"  >
<polygon points="751,90 754,90 759,85 754,80 751,80 751,90 " style="fill:white; stroke-width:1; stroke:black; " description="&lt;b&gt;AAX31578.1&lt;/b&gt;&lt;br&gt;hypothetical protein&lt;br&gt;Location: 122872 - 124140" locus_tag="AAX31578.1" class="clusterblast-orf" id="dummy-1_h1_7_62"  />
</g>
<g id="a1_0063"  >
<polygon points="759,85 764,80 780,80 780,90 764,90 759,85 " style="fill:white; stroke-width:1; stroke:black; " description="&lt;b&gt;AAX31579.1&lt;/b&gt;&lt;br&gt;putative ATP/GTP membrane protein&lt;br&gt;Location: 124195 - 127559" locus_tag="AAX31579.1" class="clusterblast-orf" id="dummy-1_h1_7_63"  />
</g>
</svg>
