<svg xmlns="http://www.w3.org/2000/svg" xmlns:xlink="http://www.w3.org/1999/xlink" version="1.1" x="0" y="0" height="50" width="800" viewBox="0 0 800 50" preserveAspectRatio="none"  >
<g label="Query sequence" class="clusterblast-cluster"  >
<text x="5" y="20" class="clusterblast-acc"  >
Query sequence</text>
<line x1="10" y1="35" x2="778.0" y2="35" style="stroke-width:1; stroke:grey; "  />
<polygon points="0,35 5,30 21,30 21,40 5,40 0,35 " style="fill:white; stroke-width:1; stroke:black; " description="&lt;b&gt;cds199961_201224&lt;/b&gt;&lt;br&gt;hypothetical protein&lt;br&gt;Location: 199961 - 201224" locus_tag="cds199961_201224" class="clusterblast-orf" id="knownclusterblast-1_q0_0_all"  />
<polygon points="32,40 37,40 42,35 37,30 32,30 32,40 " style="fill:white; stroke-width:1; stroke:black; " description="&lt;b&gt;cds201857_202442&lt;/b&gt;&lt;br&gt;hypothetical protein&lt;br&gt;Location: 201857 - 202442" locus_tag="cds201857_202442" class="clusterblast-orf" id="knownclusterblast-1_q1_0_all"  />
<polygon points="47,35 52,30 62,30 62,40 52,40 47,35 " style="fill:white; stroke-width:1; stroke:black; " description="&lt;b&gt;cds202755_203589&lt;/b&gt;&lt;br&gt;Non-haem bromoperoxidase BPO-A2&lt;br&gt;Location: 202755 - 203589" locus_tag="cds202755_203589" class="clusterblast-orf" id="knownclusterblast-1_q2_0_all"  />
<polygon points="63,35 68,30 78,30 78,40 68,40 63,35 " style="fill:white; stroke-width:1; stroke:black; " description="&lt;b&gt;cds203696_204536&lt;/b&gt;&lt;br&gt;hypothetical protein&lt;br&gt;Location: 203696 - 204536" locus_tag="cds203696_204536" class="clusterblast-orf" id="knownclusterblast-1_q3_0_all"  />
<polygon points="84,35 89,30 104,30 104,40 89,40 84,35 " style="fill:white; stroke-width:1; stroke:black; " description="&lt;b&gt;cds204921_206067&lt;/b&gt;&lt;br&gt;hypothetical protein&lt;br&gt;Location: 204921 - 206067" locus_tag="cds204921_206067" class="clusterblast-orf" id="knownclusterblast-1_q4_0_all"  />
<polygon points="107,35 112,30 115,30 115,40 112,40 107,35 " style="fill:white; stroke-width:1; stroke:black; " description="&lt;b&gt;cds206250_206724&lt;/b&gt;&lt;br&gt;DNA protection during starvation protein 2&lt;br&gt;Location: 206250 - 206724" locus_tag="cds206250_206724" class="clusterblast-orf" id="knownclusterblast-1_q5_0_all"  />
<polygon points="124,40 125,40 130,35 125,30 124,30 124,40 " style="fill:white; stroke-width:1; stroke:black; " description="&lt;b&gt;cds207267_207609&lt;/b&gt;&lt;br&gt;hypothetical protein&lt;br&gt;Location: 207267 - 207609" locus_tag="cds207267_207609" class="clusterblast-orf" id="knownclusterblast-1_q6_0_all"  />
<polygon points="141,35 146,30 150,30 150,40 146,40 141,35 " style="fill:white; stroke-width:1; stroke:black; " description="&lt;b&gt;cds208210_208792&lt;/b&gt;&lt;br&gt;ECF RNA polymerase sigma factor SigL&lt;br&gt;Location: 208210 - 208792" locus_tag="cds208210_208792" class="clusterblast-orf" id="knownclusterblast-1_q7_0_all"  />
<polygon points="151,35 156,30 166,30 166,40 156,40 151,35 " style="fill:white; stroke-width:1; stroke:black; " description="&lt;b&gt;cds208851_209685&lt;/b&gt;&lt;br&gt;Non-haem bromoperoxidase BPO-A2&lt;br&gt;Location: 208851 - 209685" locus_tag="cds208851_209685" class="clusterblast-orf" id="knownclusterblast-1_q8_0_all"  />
<polygon points="168,35 173,30 215,30 215,40 173,40 168,35 " style="fill:white; stroke-width:1; stroke:black; " description="&lt;b&gt;cds209814_212565&lt;/b&gt;&lt;br&gt;hypothetical protein&lt;br&gt;Location: 209814 - 212565" locus_tag="cds209814_212565" class="clusterblast-orf" id="knownclusterblast-1_q9_0_all"  />
<polygon points="225,35 230,30 249,30 249,40 230,40 225,35 " style="fill:white; stroke-width:1; stroke:black; " description="&lt;b&gt;cds213132_214590&lt;/b&gt;&lt;br&gt;Gamma-glutamylputrescine oxidoreductase&lt;br&gt;Location: 213132 - 214590" locus_tag="cds213132_214590" class="clusterblast-orf" id="knownclusterblast-1_q10_0_all"  />
<polygon points="250,35 255,30 269,30 269,40 255,40 250,35 " style="fill:white; stroke-width:1; stroke:black; " description="&lt;b&gt;cds214646_215717&lt;/b&gt;&lt;br&gt;hypothetical protein&lt;br&gt;Location: 214646 - 215717" locus_tag="cds214646_215717" class="clusterblast-orf" id="knownclusterblast-1_q11_0_all"  />
<polygon points="272,35 277,30 301,30 301,40 277,40 272,35 " style="fill:white; stroke-width:1; stroke:black; " description="&lt;b&gt;cds215894_217631&lt;/b&gt;&lt;br&gt;hypothetical protein&lt;br&gt;Location: 215894 - 217631" locus_tag="cds215894_217631" class="clusterblast-orf" id="knownclusterblast-1_q12_0_all"  />
<polygon points="303,35 308,30 318,30 318,40 308,40 303,35 " style="fill:white; stroke-width:1; stroke:black; " description="&lt;b&gt;cds217719_218598&lt;/b&gt;&lt;br&gt;hypothetical protein&lt;br&gt;Location: 217719 - 218598" locus_tag="cds217719_218598" class="clusterblast-orf" id="knownclusterblast-1_q13_0_all"  />
<polygon points="318,35 323,30 339,30 339,40 323,40 318,35 " style="fill:white; stroke-width:1; stroke:black; " description="&lt;b&gt;cds218594_219833&lt;/b&gt;&lt;br&gt;Aurachin C monooxygenase/isomerase&lt;br&gt;Location: 218594 - 219833" locus_tag="cds218594_219833" class="clusterblast-orf" id="knownclusterblast-1_q14_0_all"  />
<polygon points="339,35 344,30 461,30 461,40 344,40 339,35 " style="fill:white; stroke-width:1; stroke:black; " description="&lt;b&gt;cds219834_226995&lt;/b&gt;&lt;br&gt;Dimodular nonribosomal peptide synthase&lt;br&gt;Location: 219834 - 226995" locus_tag="cds219834_226995" class="clusterblast-orf" id="knownclusterblast-1_q15_0_all"  />
<polygon points="467,40 474,40 479,35 474,30 467,30 467,40 " style="fill:white; stroke-width:1; stroke:black; " description="&lt;b&gt;cds227348_228056&lt;/b&gt;&lt;br&gt;Putative aminoacrylate hydrolase RutD&lt;br&gt;Location: 227348 - 228056" locus_tag="cds227348_228056" class="clusterblast-orf" id="knownclusterblast-1_q16_0_all"  />
<polygon points="482,35 487,30 502,30 502,40 487,40 482,35 " style="fill:white; stroke-width:1; stroke:black; " description="&lt;b&gt;cds228186_229395&lt;/b&gt;&lt;br&gt;Purine ribonucleoside efflux pump NepI&lt;br&gt;Location: 228186 - 229395" locus_tag="cds228186_229395" class="clusterblast-orf" id="knownclusterblast-1_q17_0_all"  />
<polygon points="504,40 515,40 520,35 515,30 504,30 504,40 " style="fill:white; stroke-width:1; stroke:black; " description="&lt;b&gt;cds229517_230417&lt;/b&gt;&lt;br&gt;HTH-type transcriptional regulator HdfR&lt;br&gt;Location: 229517 - 230417" locus_tag="cds229517_230417" class="clusterblast-orf" id="knownclusterblast-1_q18_0_all"  />
<polygon points="534,35 539,30 542,30 542,40 539,40 534,35 " style="fill:white; stroke-width:1; stroke:black; " description="&lt;b&gt;cds231259_231730&lt;/b&gt;&lt;br&gt;hypothetical protein&lt;br&gt;Location: 231259 - 231730" locus_tag="cds231259_231730" class="clusterblast-orf" id="knownclusterblast-1_q19_0_all"  />
<polygon points="547,35 552,30 560,30 560,40 552,40 547,35 " style="fill:white; stroke-width:1; stroke:black; " description="&lt;b&gt;cds232036_232792&lt;/b&gt;&lt;br&gt;Oxidoreductase UcpA&lt;br&gt;Location: 232036 - 232792" locus_tag="cds232036_232792" class="clusterblast-orf" id="knownclusterblast-1_q20_0_all"  />
<polygon points="571,40 573,35 571,30 571,40 " style="fill:white; stroke-width:1; stroke:black; " description="&lt;b&gt;cds233434_233551&lt;/b&gt;&lt;br&gt;hypothetical protein&lt;br&gt;Location: 233434 - 233551" locus_tag="cds233434_233551" class="clusterblast-orf" id="knownclusterblast-1_q21_0_all"  />
<polygon points="576,35 581,30 582,30 582,40 581,40 576,35 " style="fill:white; stroke-width:1; stroke:black; " description="&lt;b&gt;cds233718_234090&lt;/b&gt;&lt;br&gt;hypothetical protein&lt;br&gt;Location: 233718 - 234090" locus_tag="cds233718_234090" class="clusterblast-orf" id="knownclusterblast-1_q22_0_all"  />
<polygon points="583,35 588,30 599,30 599,40 588,40 583,35 " style="fill:white; stroke-width:1; stroke:black; " description="&lt;b&gt;cds234134_235052&lt;/b&gt;&lt;br&gt;Soluble epoxide hydrolase&lt;br&gt;Location: 234134 - 235052" locus_tag="cds234134_235052" class="clusterblast-orf" id="knownclusterblast-1_q23_0_all"  />
<polygon points="603,40 617,40 622,35 617,30 603,30 603,40 " style="fill:white; stroke-width:1; stroke:black; " description="&lt;b&gt;cds235317_236427&lt;/b&gt;&lt;br&gt;N-ethylmaleimide reductase&lt;br&gt;Location: 235317 - 236427" locus_tag="cds235317_236427" class="clusterblast-orf" id="knownclusterblast-1_q24_0_all"  />
<polygon points="627,40 635,40 640,35 635,30 627,30 627,40 " style="fill:white; stroke-width:1; stroke:black; " description="&lt;b&gt;cds236723_237476&lt;/b&gt;&lt;br&gt;putative oxidoreductase YghA&lt;br&gt;Location: 236723 - 237476" locus_tag="cds236723_237476" class="clusterblast-orf" id="knownclusterblast-1_q25_0_all"  />
<polygon points="651,40 654,40 659,35 654,30 651,30 651,40 " style="fill:white; stroke-width:1; stroke:black; " description="&lt;b&gt;cds238123_238579&lt;/b&gt;&lt;br&gt;Putative HTH-type transcriptional regulator YwnA&lt;br&gt;Location: 238123 - 238579" locus_tag="cds238123_238579" class="clusterblast-orf" id="knownclusterblast-1_q26_0_all"  />
<polygon points="673,40 693,40 698,35 693,30 673,30 673,40 " style="fill:white; stroke-width:1; stroke:black; " description="&lt;b&gt;cds239416_240868&lt;/b&gt;&lt;br&gt;putative MFS-type transporter EfpA&lt;br&gt;Location: 239416 - 240868" locus_tag="cds239416_240868" class="clusterblast-orf" id="knownclusterblast-1_q27_0_all"  />
<polygon points="706,35 711,30 716,30 716,40 711,40 706,35 " style="fill:white; stroke-width:1; stroke:black; " description="&lt;b&gt;cds241314_241920&lt;/b&gt;&lt;br&gt;hypothetical protein&lt;br&gt;Location: 241314 - 241920" locus_tag="cds241314_241920" class="clusterblast-orf" id="knownclusterblast-1_q28_0_all"  />
<polygon points="727,35 732,30 733,30 733,40 732,40 727,35 " style="fill:white; stroke-width:1; stroke:black; " description="&lt;b&gt;cds242556_242928&lt;/b&gt;&lt;br&gt;hypothetical protein&lt;br&gt;Location: 242556 - 242928" locus_tag="cds242556_242928" class="clusterblast-orf" id="knownclusterblast-1_q29_0_all"  />
<polygon points="737,35 742,30 756,30 756,40 742,40 737,35 " style="fill:white; stroke-width:1; stroke:black; " description="&lt;b&gt;cds243116_244232&lt;/b&gt;&lt;br&gt;putative protein YhaZ&lt;br&gt;Location: 243116 - 244232" locus_tag="cds243116_244232" class="clusterblast-orf" id="knownclusterblast-1_q30_0_all"  />
<polygon points="756,35 761,30 761,30 761,40 761,40 756,35 " style="fill:white; stroke-width:1; stroke:black; " description="&lt;b&gt;cds244245_244548&lt;/b&gt;&lt;br&gt;hypothetical protein&lt;br&gt;Location: 244245 - 244548" locus_tag="cds244245_244548" class="clusterblast-orf" id="knownclusterblast-1_q31_0_all"  />
<polygon points="762,35 767,30 780,30 780,40 767,40 762,35 " style="fill:white; stroke-width:1; stroke:black; " description="&lt;b&gt;cds244588_245644&lt;/b&gt;&lt;br&gt;1-deoxyxylulose-5-phosphate synthase YajO&lt;br&gt;Location: 244588 - 245644" locus_tag="cds244588_245644" class="clusterblast-orf" id="knownclusterblast-1_q32_0_all"  />
</g>
</svg>
