<svg xmlns="http://www.w3.org/2000/svg" xmlns:xlink="http://www.w3.org/1999/xlink" version="1.1" x="0" y="0" height="230" width="800" viewBox="0 0 800 230" preserveAspectRatio="none"  >
<g label="Query sequence" class="clusterblast-cluster"  >
<text x="5" y="20" class="clusterblast-acc"  >
Query sequence</text>
<line x1="10" y1="35" x2="778.0" y2="35" style="stroke-width:1; stroke:grey; "  />
<polygon points="0,35 5,30 25,30 25,40 5,40 0,35 " style="fill:white; stroke-width:1; stroke:black; " description="&lt;b&gt;cds61435_62263&lt;/b&gt;&lt;br&gt;hypothetical protein&lt;br&gt;Location: 61435 - 62263" locus_tag="cds61435_62263" class="clusterblast-orf" id="dummy-1_q0_0_all"  />
<polygon points="30,35 35,30 58,30 58,40 35,40 30,35 " style="fill:white; stroke-width:1; stroke:black; " description="&lt;b&gt;cds62425_63364&lt;/b&gt;&lt;br&gt;hypothetical protein&lt;br&gt;Location: 62425 - 63364" locus_tag="cds62425_63364" class="clusterblast-orf" id="dummy-1_q1_0_all"  />
<polygon points="76,40 95,40 100,35 95,30 76,30 76,40 " style="fill:white; stroke-width:1; stroke:black; " description="&lt;b&gt;cds63941_64766&lt;/b&gt;&lt;br&gt;hypothetical protein&lt;br&gt;Location: 63941 - 64766" locus_tag="cds63941_64766" class="clusterblast-orf" id="dummy-1_q2_0_all"  />
<polygon points="101,35 106,30 106,30 106,40 106,40 101,35 " style="fill:white; stroke-width:1; stroke:black; " description="&lt;b&gt;cds64775_64949&lt;/b&gt;&lt;br&gt;hypothetical protein&lt;br&gt;Location: 64775 - 64949" locus_tag="cds64775_64949" class="clusterblast-orf" id="dummy-1_q3_0_all"  />
<polygon points="108,35 113,30 127,30 127,40 113,40 108,35 " style="fill:#d81515; stroke-width:1; stroke:black; " description="&lt;b&gt;cds65016_65637&lt;/b&gt;&lt;br&gt;HTH-type transcriptional regulator PuuR&lt;br&gt;Location: 65016 - 65637" locus_tag="cds65016_65637" class="clusterblast-orf" id="dummy-1_q4_0_all"  />
<polygon points="128,35 133,30 171,30 171,40 133,40 128,35 " style="fill:#77d815; stroke-width:1; stroke:black; " description="&lt;b&gt;cds65693_67088&lt;/b&gt;&lt;br&gt;Aminotransferase PigE&lt;br&gt;Location: 65693 - 67088" locus_tag="cds65693_67088" class="clusterblast-orf" id="dummy-1_q5_0_all"  />
<polygon points="170,35 175,30 228,30 228,40 175,40 170,35 " style="fill:#15d8d8; stroke-width:1; stroke:black; " description="&lt;b&gt;cds67084_68995&lt;/b&gt;&lt;br&gt;1-deoxy-D-xylulose-5-phosphate synthase&lt;br&gt;Location: 67084 - 68995" locus_tag="cds67084_68995" class="clusterblast-orf" id="dummy-1_q6_0_all"  />
<polygon points="233,35 238,30 264,30 264,40 238,40 233,35 " style="fill:#7715d8; stroke-width:1; stroke:black; " description="&lt;b&gt;cds69168_70188&lt;/b&gt;&lt;br&gt;GTP 3',8-cyclase&lt;br&gt;Location: 69168 - 70188" locus_tag="cds69168_70188" class="clusterblast-orf" id="dummy-1_q7_0_all"  />
<polygon points="264,35 269,30 284,30 284,40 269,40 264,35 " style="fill:#d87715; stroke-width:1; stroke:black; " description="&lt;b&gt;cds70194_70854&lt;/b&gt;&lt;br&gt;hypothetical protein&lt;br&gt;Location: 70194 - 70854" locus_tag="cds70194_70854" class="clusterblast-orf" id="dummy-1_q8_0_all"  />
<polygon points="285,35 290,30 345,30 345,40 290,40 285,35 " style="fill:#15d815; stroke-width:1; stroke:black; " description="&lt;b&gt;cds70858_72871&lt;/b&gt;&lt;br&gt;Squalene--hopene cyclase&lt;br&gt;Location: 70858 - 72871" locus_tag="cds70858_72871" class="clusterblast-orf" id="dummy-1_q9_0_all"  />
<polygon points="348,35 353,30 382,30 382,40 353,40 348,35 " style="fill:#1577d8; stroke-width:1; stroke:black; " description="&lt;b&gt;cds72971_74075&lt;/b&gt;&lt;br&gt;(2E,6E)-farnesyl diphosphate synthase&lt;br&gt;Location: 72971 - 74075" locus_tag="cds72971_74075" class="clusterblast-orf" id="dummy-1_q10_0_all"  />
<polygon points="382,35 387,30 424,30 424,40 387,40 382,35 " style="fill:#d815d8; stroke-width:1; stroke:black; " description="&lt;b&gt;cds74071_75460&lt;/b&gt;&lt;br&gt;Hydroxysqualene dehydroxylase&lt;br&gt;Location: 74071 - 75460" locus_tag="cds74071_75460" class="clusterblast-orf" id="dummy-1_q11_0_all"  />
<polygon points="426,35 431,30 455,30 455,40 431,40 426,35 " style="fill:#d8d815; stroke-width:1; stroke:black; " description="&lt;b&gt;cds75548_76502&lt;/b&gt;&lt;br&gt;Phytoene synthase&lt;br&gt;Location: 75548 - 76502" locus_tag="cds75548_76502" class="clusterblast-orf" id="dummy-1_q12_0_all"  />
<polygon points="455,35 460,30 483,30 483,40 460,40 455,35 " style="fill:#15d877; stroke-width:1; stroke:black; " description="&lt;b&gt;cds76498_77416&lt;/b&gt;&lt;br&gt;hypothetical protein&lt;br&gt;Location: 76498 - 77416" locus_tag="cds76498_77416" class="clusterblast-orf" id="dummy-1_q13_0_all"  />
<polygon points="495,35 500,30 519,30 519,40 500,40 495,35 " style="fill:white; stroke-width:1; stroke:black; " description="&lt;b&gt;cds77840_78626&lt;/b&gt;&lt;br&gt;Vitamin B12 import ATP-binding protein BtuD&lt;br&gt;Location: 77840 - 78626" locus_tag="cds77840_78626" class="clusterblast-orf" id="dummy-1_q14_0_all"  />
<polygon points="519,35 524,30 547,30 547,40 524,40 519,35 " style="fill:white; stroke-width:1; stroke:black; " description="&lt;b&gt;cds78618_79548&lt;/b&gt;&lt;br&gt;hypothetical protein&lt;br&gt;Location: 78618 - 79548" locus_tag="cds78618_79548" class="clusterblast-orf" id="dummy-1_q15_0_all"  />
<polygon points="550,35 555,30 577,30 577,40 555,40 550,35 " style="fill:white; stroke-width:1; stroke:black; " description="&lt;b&gt;cds79656_80529&lt;/b&gt;&lt;br&gt;hypothetical protein&lt;br&gt;Location: 79656 - 80529" locus_tag="cds79656_80529" class="clusterblast-orf" id="dummy-1_q16_0_all"  />
<polygon points="577,35 582,30 601,30 601,40 582,40 577,35 " style="fill:white; stroke-width:1; stroke:black; " description="&lt;b&gt;cds80537_81317&lt;/b&gt;&lt;br&gt;hypothetical protein&lt;br&gt;Location: 80537 - 81317" locus_tag="cds80537_81317" class="clusterblast-orf" id="dummy-1_q17_0_all"  />
<polygon points="600,35 605,30 632,30 632,40 605,40 600,35 " style="fill:#1515d8; stroke-width:1; stroke:black; " description="&lt;b&gt;cds81294_82356&lt;/b&gt;&lt;br&gt;hypothetical protein&lt;br&gt;Location: 81294 - 82356" locus_tag="cds81294_82356" class="clusterblast-orf" id="dummy-1_q18_0_all"  />
<polygon points="632,35 637,30 654,30 654,40 637,40 632,35 " style="fill:#d81577; stroke-width:1; stroke:black; " description="&lt;b&gt;cds82343_83081&lt;/b&gt;&lt;br&gt;Glucose-1-phosphate adenylyltransferase&lt;br&gt;Location: 82343 - 83081" locus_tag="cds82343_83081" class="clusterblast-orf" id="dummy-1_q19_0_all"  />
<polygon points="654,35 659,30 707,30 707,40 659,40 654,35 " style="fill:white; stroke-width:1; stroke:black; " description="&lt;b&gt;cds83077_84832&lt;/b&gt;&lt;br&gt;hypothetical protein&lt;br&gt;Location: 83077 - 84832" locus_tag="cds83077_84832" class="clusterblast-orf" id="dummy-1_q20_0_all"  />
<polygon points="716,40 741,40 746,35 741,30 716,30 716,40 " style="fill:white; stroke-width:1; stroke:black; " description="&lt;b&gt;cds85141_86128&lt;/b&gt;&lt;br&gt;UDP-glucose 4-epimerase&lt;br&gt;Location: 85141 - 86128" locus_tag="cds85141_86128" class="clusterblast-orf" id="dummy-1_q21_0_all"  />
<polygon points="751,40 775,40 780,35 775,30 751,30 751,40 " style="fill:white; stroke-width:1; stroke:black; " description="&lt;b&gt;cds86309_87251&lt;/b&gt;&lt;br&gt;Metal cation efflux system protein CzcD&lt;br&gt;Location: 86309 - 87251" locus_tag="cds86309_87251" class="clusterblast-orf" id="dummy-1_q22_0_all"  />
</g>
<g label="BGC0000663" description="BGC0000663_c1: hopene (76% of genes show similarity), Terpene" class="clusterblast-cluster"  >
<text x="5" y="70" class="clusterblast-acc"  >
<a xlink:href="https://mibig.secondarymetabolites.org/go/BGC0000663/1" target="_blank">BGC0000663</a>:                                                                           hopene (76% of genes show similarity), Terpene</text>
<line x1="10" y1="85" x2="778.0" y2="85" style="stroke-width:1; stroke:grey; "  />
</g>
<g id="a1_000"  >
<polygon points="182,85 185,80 185,90 182,85 " style="fill:white; stroke-width:1; stroke:black; " description="&lt;b&gt;CAB39704.1&lt;/b&gt;&lt;br&gt;putative small hydrophobic secreted protein&lt;br&gt;Location: 13757 - 13638" locus_tag="CAB39704.1" class="clusterblast-orf" id="dummy-1_h1_1_0"  />
</g>
<g id="a1_001"  >
<polygon points="185,85 190,80 204,80 204,90 190,90 185,85 " style="fill:#d81515; stroke-width:1; stroke:black; " description="&lt;b&gt;CAB39703.1&lt;/b&gt;&lt;br&gt;putative DNA-binding protein&lt;br&gt;Location: 13641 - 13027&lt;br&gt;&lt;br&gt;&lt;b&gt;BlastP hit with cds65016_65637&lt;/b&gt;&lt;br&gt;Percentage identity: 69&lt;br&gt;Percentage coverage: 96&lt;br&gt;BLAST bit score: 263&lt;br&gt;E-value: 3.5e-70" locus_tag="CAB39703.1" class="clusterblast-orf" id="dummy-1_h1_1_1"  />
</g>
<g id="a1_002"  >
<polygon points="206,85 211,80 248,80 248,90 211,90 206,85 " style="fill:#77d815; stroke-width:1; stroke:black; " description="&lt;b&gt;CAB39702.1&lt;/b&gt;&lt;br&gt;probable aminotransferase&lt;br&gt;Location: 12953 - 11568&lt;br&gt;&lt;br&gt;&lt;b&gt;BlastP hit with cds65693_67088&lt;/b&gt;&lt;br&gt;Percentage identity: 86&lt;br&gt;Percentage coverage: 98&lt;br&gt;BLAST bit score: 807&lt;br&gt;E-value: 8.5e-234" locus_tag="CAB39702.1" class="clusterblast-orf" id="dummy-1_h1_1_2"  />
</g>
<g id="a1_003"  >
<polygon points="248,85 253,80 307,80 307,90 253,90 248,85 " style="fill:#15d8d8; stroke-width:1; stroke:black; " description="&lt;b&gt;CAB39701.1&lt;/b&gt;&lt;br&gt;probable transketolase&lt;br&gt;Location: 11567 - 9597&lt;br&gt;&lt;br&gt;&lt;b&gt;BlastP hit with cds67084_68995&lt;/b&gt;&lt;br&gt;Percentage identity: 80&lt;br&gt;Percentage coverage: 99&lt;br&gt;BLAST bit score: 1022&lt;br&gt;E-value: 3e-298" locus_tag="CAB39701.1" class="clusterblast-orf" id="dummy-1_h1_1_3"  />
</g>
<g id="a1_004"  >
<polygon points="308,85 313,80 343,80 343,90 313,90 308,85 " style="fill:white; stroke-width:1; stroke:black; " description="&lt;b&gt;CAB39700.1&lt;/b&gt;&lt;br&gt;GcpE protein homolog, conserved hypothetical protein&lt;br&gt;Location: 9571 - 8417" locus_tag="CAB39700.1" class="clusterblast-orf" id="dummy-1_h1_1_4"  />
</g>
<g id="a1_005"  >
<polygon points="343,85 348,80 374,80 374,90 348,90 343,85 " style="fill:#7715d8; stroke-width:1; stroke:black; " description="&lt;b&gt;CAB39699.1&lt;/b&gt;&lt;br&gt;conserved hypothetical protein&lt;br&gt;Location: 8412 - 7390&lt;br&gt;&lt;br&gt;&lt;b&gt;BlastP hit with cds69168_70188&lt;/b&gt;&lt;br&gt;Percentage identity: 94&lt;br&gt;Percentage coverage: 100&lt;br&gt;BLAST bit score: 670&lt;br&gt;E-value: 2e-192" locus_tag="CAB39699.1" class="clusterblast-orf" id="dummy-1_h1_1_5"  />
</g>
<g id="a1_006"  >
<polygon points="374,85 379,80 394,80 394,90 379,90 374,85 " style="fill:#d87715; stroke-width:1; stroke:black; " description="&lt;b&gt;CAB39698.1&lt;/b&gt;&lt;br&gt;putative lipoprotein&lt;br&gt;Location: 7383 - 6742&lt;br&gt;&lt;br&gt;&lt;b&gt;BlastP hit with cds70194_70854&lt;/b&gt;&lt;br&gt;Percentage identity: 76&lt;br&gt;Percentage coverage: 99&lt;br&gt;BLAST bit score: 308&lt;br&gt;E-value: 7.6e-84" locus_tag="CAB39698.1" class="clusterblast-orf" id="dummy-1_h1_1_6"  />
</g>
<g id="a1_007"  >
<polygon points="394,85 399,80 455,80 455,90 399,90 394,85 " style="fill:#15d815; stroke-width:1; stroke:black; " description="&lt;b&gt;CAB39697.1&lt;/b&gt;&lt;br&gt;putative squalene-hopene cyclase&lt;br&gt;Location: 6742 - 4700&lt;br&gt;&lt;br&gt;&lt;b&gt;BlastP hit with cds70858_72871&lt;/b&gt;&lt;br&gt;Percentage identity: 81&lt;br&gt;Percentage coverage: 99&lt;br&gt;BLAST bit score: 1032&lt;br&gt;E-value: 4e-301" locus_tag="CAB39697.1" class="clusterblast-orf" id="dummy-1_h1_1_7"  />
</g>
<g id="a1_008"  >
<polygon points="459,85 464,80 493,80 493,90 464,90 459,85 " style="fill:#1577d8; stroke-width:1; stroke:black; " description="&lt;b&gt;CAB39696.1&lt;/b&gt;&lt;br&gt;putative polyprenyl synthatase&lt;br&gt;Location: 4583 - 3447&lt;br&gt;&lt;br&gt;&lt;b&gt;BlastP hit with cds72971_74075&lt;/b&gt;&lt;br&gt;Percentage identity: 85&lt;br&gt;Percentage coverage: 99&lt;br&gt;BLAST bit score: 594&lt;br&gt;E-value: 8.9e-170" locus_tag="CAB39696.1" class="clusterblast-orf" id="dummy-1_h1_1_8"  />
</g>
<g id="a1_009"  >
<polygon points="493,85 498,80 536,80 536,90 498,90 493,85 " style="fill:#d815d8; stroke-width:1; stroke:black; " description="&lt;b&gt;CAB39695.1&lt;/b&gt;&lt;br&gt;putative phytoene dehydrogenase&lt;br&gt;Location: 3450 - 2014&lt;br&gt;&lt;br&gt;&lt;b&gt;BlastP hit with cds74071_75460&lt;/b&gt;&lt;br&gt;Percentage identity: 74&lt;br&gt;Percentage coverage: 96&lt;br&gt;BLAST bit score: 640&lt;br&gt;E-value: 2.3e-183" locus_tag="CAB39695.1" class="clusterblast-orf" id="dummy-1_h1_1_9"  />
</g>
<g id="a1_0010"  >
<polygon points="536,85 541,80 541,80 541,90 541,90 536,85 " style="fill:white; stroke-width:1; stroke:black; " description="&lt;b&gt;CAB39694.1&lt;/b&gt;&lt;br&gt;small hypothetical protein&lt;br&gt;Location: 2017 - 1859" locus_tag="CAB39694.1" class="clusterblast-orf" id="dummy-1_h1_1_10"  />
</g>
<g id="a1_0011"  >
<polygon points="541,85 546,80 570,80 570,90 546,90 541,85 " style="fill:#d8d815; stroke-width:1; stroke:black; " description="&lt;b&gt;CAB39693.1&lt;/b&gt;&lt;br&gt;putative phytoene synthase&lt;br&gt;Location: 1859 - 921&lt;br&gt;&lt;br&gt;&lt;b&gt;BlastP hit with cds75548_76502&lt;/b&gt;&lt;br&gt;Percentage identity: 86&lt;br&gt;Percentage coverage: 96&lt;br&gt;BLAST bit score: 518&lt;br&gt;E-value: 7e-147" locus_tag="CAB39693.1" class="clusterblast-orf" id="dummy-1_h1_1_11"  />
</g>
<g id="a1_0012"  >
<polygon points="570,85 575,80 597,80 597,90 575,90 570,85 " style="fill:#15d877; stroke-width:1; stroke:black; " description="&lt;b&gt;CAB39692.1&lt;/b&gt;&lt;br&gt;putative phytoene synthase&lt;br&gt;Location: 912 - 1&lt;br&gt;&lt;br&gt;&lt;b&gt;BlastP hit with cds76498_77416&lt;/b&gt;&lt;br&gt;Percentage identity: 76&lt;br&gt;Percentage coverage: 98&lt;br&gt;BLAST bit score: 441&lt;br&gt;E-value: 8e-124" locus_tag="CAB39692.1" class="clusterblast-orf" id="dummy-1_h1_1_12"  />
</g>
</svg>
