<svg xmlns="http://www.w3.org/2000/svg" xmlns:xlink="http://www.w3.org/1999/xlink" version="1.1" x="0" y="0" height="230" width="800" viewBox="0 0 800 230" preserveAspectRatio="none"  >
<g label="Query sequence" class="clusterblast-cluster"  >
<text x="5" y="20" class="clusterblast-acc"  >
Query sequence</text>
<line x1="10" y1="35" x2="778.0" y2="35" style="stroke-width:1; stroke:grey; "  />
<polygon points="275,40 278,40 283,35 278,30 275,30 275,40 " style="fill:white; stroke-width:1; stroke:black; " description="&lt;b&gt;cds188_1109&lt;/b&gt;&lt;br&gt;hypothetical protein&lt;br&gt;Location: 188 - 1109" locus_tag="cds188_1109" class="clusterblast-orf" id="dummy-1_q0_0_all"  />
<polygon points="282,35 287,30 287,30 287,40 287,40 282,35 " style="fill:#d81515; stroke-width:1; stroke:black; " description="&lt;b&gt;cds970_1519&lt;/b&gt;&lt;br&gt;FMN reductase (NADH) NtaB&lt;br&gt;Location: 970 - 1519" locus_tag="cds970_1519" class="clusterblast-orf" id="dummy-1_q1_0_all"  />
<polygon points="287,35 291,30 291,40 287,35 " style="fill:#4dd815; stroke-width:1; stroke:black; " description="&lt;b&gt;cds1515_1989&lt;/b&gt;&lt;br&gt;hypothetical protein&lt;br&gt;Location: 1515 - 1989" locus_tag="cds1515_1989" class="clusterblast-orf" id="dummy-1_q2_0_all"  />
<polygon points="291,35 296,30 341,30 341,40 296,40 291,35 " style="fill:#1585d8; stroke-width:1; stroke:black; " description="&lt;b&gt;cds1985_7793&lt;/b&gt;&lt;br&gt;hypothetical protein&lt;br&gt;Location: 1985 - 7793" locus_tag="cds1985_7793" class="clusterblast-orf" id="dummy-1_q3_0_all"  />
<polygon points="341,35 346,30 350,30 350,40 346,40 341,35 " style="fill:#a115d8; stroke-width:1; stroke:black; " description="&lt;b&gt;cds7789_8875&lt;/b&gt;&lt;br&gt;hypothetical protein&lt;br&gt;Location: 7789 - 8875" locus_tag="cds7789_8875" class="clusterblast-orf" id="dummy-1_q4_0_all"  />
<polygon points="350,35 355,30 367,30 367,40 355,40 350,35 " style="fill:#d86915; stroke-width:1; stroke:black; " description="&lt;b&gt;cds8876_10805&lt;/b&gt;&lt;br&gt;hypothetical protein&lt;br&gt;Location: 8876 - 10805" locus_tag="cds8876_10805" class="clusterblast-orf" id="dummy-1_q5_0_all"  />
<polygon points="367,35 372,30 376,30 376,40 372,40 367,35 " style="fill:#15d831; stroke-width:1; stroke:black; " description="&lt;b&gt;cds10801_11788&lt;/b&gt;&lt;br&gt;hypothetical protein&lt;br&gt;Location: 10801 - 11788" locus_tag="cds10801_11788" class="clusterblast-orf" id="dummy-1_q6_0_all"  />
<polygon points="376,35 381,30 385,30 385,40 381,40 376,35 " style="fill:#1531d8; stroke-width:1; stroke:black; " description="&lt;b&gt;cds11883_12864&lt;/b&gt;&lt;br&gt;hypothetical protein&lt;br&gt;Location: 11883 - 12864" locus_tag="cds11883_12864" class="clusterblast-orf" id="dummy-1_q7_0_all"  />
<polygon points="386,35 390,30 390,40 386,35 " style="fill:#d815bc; stroke-width:1; stroke:black; " description="&lt;b&gt;cds13002_13446&lt;/b&gt;&lt;br&gt;putative HTH-type transcriptional regulator&lt;br&gt;Location: 13002 - 13446" locus_tag="cds13002_13446" class="clusterblast-orf" id="dummy-1_q8_0_all"  />
<polygon points="391,40 391,40 396,35 391,30 391,30 391,40 " style="fill:#d8bc15; stroke-width:1; stroke:black; " description="&lt;b&gt;cds13584_14148&lt;/b&gt;&lt;br&gt;hypothetical protein&lt;br&gt;Location: 13584 - 14148" locus_tag="cds13584_14148" class="clusterblast-orf" id="dummy-1_q9_0_all"  />
<polygon points="396,40 400,35 396,30 396,40 " style="fill:#15d885; stroke-width:1; stroke:black; " description="&lt;b&gt;cds14158_14632&lt;/b&gt;&lt;br&gt;hypothetical protein&lt;br&gt;Location: 14158 - 14632" locus_tag="cds14158_14632" class="clusterblast-orf" id="dummy-1_q10_0_all"  />
<polygon points="402,35 407,30 413,30 413,40 407,40 402,35 " style="fill:#4d15d8; stroke-width:1; stroke:black; " description="&lt;b&gt;cds14902_16138&lt;/b&gt;&lt;br&gt;IS701 family transposase ISSav4&lt;br&gt;Location: 14902 - 16138" locus_tag="cds14902_16138" class="clusterblast-orf" id="dummy-1_q11_0_all"  />
<polygon points="416,40 416,40 421,35 416,30 416,30 416,40 " style="fill:white; stroke-width:1; stroke:black; " description="&lt;b&gt;cds16456_17056&lt;/b&gt;&lt;br&gt;A-factor receptor protein&lt;br&gt;Location: 16456 - 17056" locus_tag="cds16456_17056" class="clusterblast-orf" id="dummy-1_q12_0_all"  />
<polygon points="422,35 427,30 429,30 429,40 427,40 422,35 " style="fill:white; stroke-width:1; stroke:black; " description="&lt;b&gt;cds17181_17952&lt;/b&gt;&lt;br&gt;A-factor type gamma-butyrolactone 1'-reductase (1S-forming)&lt;br&gt;Location: 17181 - 17952" locus_tag="cds17181_17952" class="clusterblast-orf" id="dummy-1_q13_0_all"  />
<polygon points="430,35 435,30 436,30 436,40 435,40 430,35 " style="fill:white; stroke-width:1; stroke:black; " description="&lt;b&gt;cds18115_18766&lt;/b&gt;&lt;br&gt;A-factor receptor protein&lt;br&gt;Location: 18115 - 18766" locus_tag="cds18115_18766" class="clusterblast-orf" id="dummy-1_q14_0_all"  />
<polygon points="437,40 440,40 445,35 440,30 437,30 437,40 " style="fill:white; stroke-width:1; stroke:black; " description="&lt;b&gt;cds18885_19803&lt;/b&gt;&lt;br&gt;hypothetical protein&lt;br&gt;Location: 18885 - 19803" locus_tag="cds18885_19803" class="clusterblast-orf" id="dummy-1_q15_0_all"  />
<polygon points="448,40 455,40 460,35 455,30 448,30 448,40 " style="fill:#d81569; stroke-width:1; stroke:black; " description="&lt;b&gt;cds20145_21585&lt;/b&gt;&lt;br&gt;hypothetical protein&lt;br&gt;Location: 20145 - 21585" locus_tag="cds20145_21585" class="clusterblast-orf" id="dummy-1_q16_0_all"  />
<polygon points="462,35 466,30 466,40 462,35 " style="fill:white; stroke-width:1; stroke:black; " description="&lt;b&gt;cds21807_22245&lt;/b&gt;&lt;br&gt;hypothetical protein&lt;br&gt;Location: 21807 - 22245" locus_tag="cds21807_22245" class="clusterblast-orf" id="dummy-1_q17_0_all"  />
<polygon points="467,35 472,30 474,30 474,40 472,40 467,35 " style="fill:#a1d815; stroke-width:1; stroke:black; " description="&lt;b&gt;cds22347_23226&lt;/b&gt;&lt;br&gt;hypothetical protein&lt;br&gt;Location: 22347 - 23226" locus_tag="cds22347_23226" class="clusterblast-orf" id="dummy-1_q18_0_all"  />
<polygon points="477,35 481,30 481,40 477,35 " style="fill:#15d8d8; stroke-width:1; stroke:black; " description="&lt;b&gt;cds23601_24003&lt;/b&gt;&lt;br&gt;hypothetical protein&lt;br&gt;Location: 23601 - 24003" locus_tag="cds23601_24003" class="clusterblast-orf" id="dummy-1_q19_0_all"  />
<polygon points="481,35 486,30 494,30 494,40 486,40 481,35 " style="fill:#d81569; stroke-width:1; stroke:black; " description="&lt;b&gt;cds23999_25532&lt;/b&gt;&lt;br&gt;hypothetical protein&lt;br&gt;Location: 23999 - 25532" locus_tag="cds23999_25532" class="clusterblast-orf" id="dummy-1_q20_0_all"  />
<polygon points="494,35 499,30 504,30 504,40 499,40 494,35 " style="fill:white; stroke-width:1; stroke:black; " description="&lt;b&gt;cds25521_26649&lt;/b&gt;&lt;br&gt;hypothetical protein&lt;br&gt;Location: 25521 - 26649" locus_tag="cds25521_26649" class="clusterblast-orf" id="dummy-1_q21_0_all"  />
</g>
<g label="BGC0000033" description="BGC0000033_c1: calicheamicin (9% of genes show similarity), Polyketide" class="clusterblast-cluster"  >
<text x="5" y="70" class="clusterblast-acc"  >
<a xlink:href="https://mibig.secondarymetabolites.org/go/BGC0000033/1" target="_blank">BGC0000033</a>:                                                                    calicheamicin (9% of genes show similarity), Polyketide</text>
<line x1="10" y1="85" x2="778.0" y2="85" style="stroke-width:1; stroke:grey; "  />
</g>
<g id="a1_000"  >
<polygon points="0,90 2,90 7,85 2,80 0,80 0,90 " style="fill:white; stroke-width:1; stroke:black; " description="&lt;b&gt;AAM94759.1&lt;/b&gt;&lt;br&gt;CalU1&lt;br&gt;Location: 1 - 873" locus_tag="AAM94759.1" class="clusterblast-orf" id="dummy-1_h1_9_0"  />
</g>
<g id="a1_001"  >
<polygon points="7,90 10,90 15,85 10,80 7,80 7,90 " style="fill:white; stroke-width:1; stroke:black; " description="&lt;b&gt;AAM94760.1&lt;/b&gt;&lt;br&gt;CalU2&lt;br&gt;Location: 880 - 1827" locus_tag="AAM94760.1" class="clusterblast-orf" id="dummy-1_h1_9_1"  />
</g>
<g id="a1_002"  >
<polygon points="16,90 20,90 25,85 20,80 16,80 16,90 " style="fill:white; stroke-width:1; stroke:black; " description="&lt;b&gt;AAM94761.1&lt;/b&gt;&lt;br&gt;CalU3&lt;br&gt;Location: 1874 - 2935" locus_tag="AAM94761.1" class="clusterblast-orf" id="dummy-1_h1_9_2"  />
</g>
<g id="a1_003"  >
<polygon points="25,90 27,90 32,85 27,80 25,80 25,90 " style="fill:white; stroke-width:1; stroke:black; " description="&lt;b&gt;AAM94762.1&lt;/b&gt;&lt;br&gt;CalU4&lt;br&gt;Location: 2932 - 3726" locus_tag="AAM94762.1" class="clusterblast-orf" id="dummy-1_h1_9_3"  />
</g>
<g id="a1_004"  >
<polygon points="32,90 38,90 43,85 38,80 32,80 32,90 " style="fill:white; stroke-width:1; stroke:black; " description="&lt;b&gt;AAM94763.1&lt;/b&gt;&lt;br&gt;CalE1&lt;br&gt;Location: 3723 - 5048" locus_tag="AAM94763.1" class="clusterblast-orf" id="dummy-1_h1_9_4"  />
</g>
<g id="a1_005"  >
<polygon points="43,90 46,90 51,85 46,80 43,80 43,90 " style="fill:white; stroke-width:1; stroke:black; " description="&lt;b&gt;AAM94764.1&lt;/b&gt;&lt;br&gt;CalU5&lt;br&gt;Location: 5045 - 5941" locus_tag="AAM94764.1" class="clusterblast-orf" id="dummy-1_h1_9_5"  />
</g>
<g id="a1_006"  >
<polygon points="51,85 56,80 65,80 65,90 56,90 51,85 " style="fill:white; stroke-width:1; stroke:black; " description="&lt;b&gt;AAM94765.1&lt;/b&gt;&lt;br&gt;CalT1&lt;br&gt;Location: 6006 - 7595" locus_tag="AAM94765.1" class="clusterblast-orf" id="dummy-1_h1_9_6"  />
</g>
<g id="a1_007"  >
<polygon points="66,85 71,80 71,80 71,90 71,90 66,85 " style="fill:white; stroke-width:1; stroke:black; " description="&lt;b&gt;AAM94766.1&lt;/b&gt;&lt;br&gt;CalR1&lt;br&gt;Location: 7665 - 8285" locus_tag="AAM94766.1" class="clusterblast-orf" id="dummy-1_h1_9_7"  />
</g>
<g id="a1_008"  >
<polygon points="72,90 75,90 80,85 75,80 72,80 72,90 " style="fill:#a1d815; stroke-width:1; stroke:black; " description="&lt;b&gt;AAM94767.1&lt;/b&gt;&lt;br&gt;CalU6&lt;br&gt;Location: 8447 - 9382&lt;br&gt;&lt;br&gt;&lt;b&gt;BlastP hit with cds22347_23226&lt;/b&gt;&lt;br&gt;Percentage identity: 49&lt;br&gt;Percentage coverage: 98&lt;br&gt;BLAST bit score: 257&lt;br&gt;E-value: 2.7e-68" locus_tag="AAM94767.1" class="clusterblast-orf" id="dummy-1_h1_9_8"  />
</g>
<g id="a1_009"  >
<polygon points="81,85 86,80 86,80 86,90 86,90 81,85 " style="fill:white; stroke-width:1; stroke:black; " description="&lt;b&gt;AAM94768.1&lt;/b&gt;&lt;br&gt;CalS1&lt;br&gt;Location: 9415 - 9987" locus_tag="AAM94768.1" class="clusterblast-orf" id="dummy-1_h1_9_9"  />
</g>
<g id="a1_0010"  >
<polygon points="87,90 90,90 95,85 90,80 87,80 87,90 " style="fill:white; stroke-width:1; stroke:black; " description="&lt;b&gt;AAM94769.1&lt;/b&gt;&lt;br&gt;CalS2&lt;br&gt;Location: 10158 - 11081" locus_tag="AAM94769.1" class="clusterblast-orf" id="dummy-1_h1_9_10"  />
</g>
<g id="a1_0011"  >
<polygon points="95,90 99,90 104,85 99,80 95,80 95,90 " style="fill:white; stroke-width:1; stroke:black; " description="&lt;b&gt;AAM94770.1&lt;/b&gt;&lt;br&gt;CalS3&lt;br&gt;Location: 11078 - 12109" locus_tag="AAM94770.1" class="clusterblast-orf" id="dummy-1_h1_9_11"  />
</g>
<g id="a1_0012"  >
<polygon points="104,85 107,80 107,90 104,85 " style="fill:white; stroke-width:1; stroke:black; " description="&lt;b&gt;AAM94771.1&lt;/b&gt;&lt;br&gt;CalU7&lt;br&gt;Location: 12161 - 12490" locus_tag="AAM94771.1" class="clusterblast-orf" id="dummy-1_h1_9_12"  />
</g>
<g id="a1_0013"  >
<polygon points="110,90 115,90 120,85 115,80 110,80 110,90 " style="fill:white; stroke-width:1; stroke:black; " description="&lt;b&gt;AAM94772.1&lt;/b&gt;&lt;br&gt;CalS4&lt;br&gt;Location: 12764 - 13918" locus_tag="AAM94772.1" class="clusterblast-orf" id="dummy-1_h1_9_13"  />
</g>
<g id="a1_0014"  >
<polygon points="121,90 124,90 129,85 124,80 121,80 121,90 " style="fill:white; stroke-width:1; stroke:black; " description="&lt;b&gt;AAM94773.1&lt;/b&gt;&lt;br&gt;CalE2&lt;br&gt;Location: 14103 - 15017" locus_tag="AAM94773.1" class="clusterblast-orf" id="dummy-1_h1_9_14"  />
</g>
<g id="a1_0015"  >
<polygon points="129,85 134,80 138,80 138,90 134,90 129,85 " style="fill:white; stroke-width:1; stroke:black; " description="&lt;b&gt;AAM94774.1&lt;/b&gt;&lt;br&gt;CalS5&lt;br&gt;Location: 15028 - 16092" locus_tag="AAM94774.1" class="clusterblast-orf" id="dummy-1_h1_9_15"  />
</g>
<g id="a1_0016"  >
<polygon points="140,90 141,90 146,85 141,80 140,80 140,90 " style="fill:#d815bc; stroke-width:1; stroke:black; " description="&lt;b&gt;AAM94775.1&lt;/b&gt;&lt;br&gt;CalU8&lt;br&gt;Location: 16249 - 16962&lt;br&gt;&lt;br&gt;&lt;b&gt;BlastP hit with cds13002_13446&lt;/b&gt;&lt;br&gt;Percentage identity: 46&lt;br&gt;Percentage coverage: 67&lt;br&gt;BLAST bit score: 75&lt;br&gt;E-value: 7.3e-14" locus_tag="AAM94775.1" class="clusterblast-orf" id="dummy-1_h1_9_16"  />
</g>
<g id="a1_0017"  >
<polygon points="145,85 150,80 152,80 152,90 150,90 145,85 " style="fill:white; stroke-width:1; stroke:black; " description="&lt;b&gt;AAM94776.1&lt;/b&gt;&lt;br&gt;CalS6&lt;br&gt;Location: 16890 - 17672" locus_tag="AAM94776.1" class="clusterblast-orf" id="dummy-1_h1_9_17"  />
</g>
<g id="a1_0018"  >
<polygon points="155,90 166,90 171,85 166,80 155,80 155,90 " style="fill:white; stroke-width:1; stroke:black; " description="&lt;b&gt;AAM94777.1&lt;/b&gt;&lt;br&gt;CalR2&lt;br&gt;Location: 17960 - 19825" locus_tag="AAM94777.1" class="clusterblast-orf" id="dummy-1_h1_9_18"  />
</g>
<g id="a1_0019"  >
<polygon points="171,90 174,90 179,85 174,80 171,80 171,90 " style="fill:white; stroke-width:1; stroke:black; " description="&lt;b&gt;AAM94778.1&lt;/b&gt;&lt;br&gt;CalE3&lt;br&gt;Location: 19901 - 20794" locus_tag="AAM94778.1" class="clusterblast-orf" id="dummy-1_h1_9_19"  />
</g>
<g id="a1_0020"  >
<polygon points="179,90 179,90 184,85 179,80 179,80 179,90 " style="fill:white; stroke-width:1; stroke:black; " description="&lt;b&gt;AAM94779.1&lt;/b&gt;&lt;br&gt;CalU9&lt;br&gt;Location: 20791 - 21426" locus_tag="AAM94779.1" class="clusterblast-orf" id="dummy-1_h1_9_20"  />
</g>
<g id="a1_0021"  >
<polygon points="184,90 192,90 197,85 192,80 184,80 184,90 " style="fill:white; stroke-width:1; stroke:black; " description="&lt;b&gt;AAM94780.1&lt;/b&gt;&lt;br&gt;CalR3&lt;br&gt;Location: 21423 - 22826" locus_tag="AAM94780.1" class="clusterblast-orf" id="dummy-1_h1_9_21"  />
</g>
<g id="a1_0022"  >
<polygon points="198,85 203,80 211,80 211,90 203,90 198,85 " style="fill:white; stroke-width:1; stroke:black; " description="&lt;b&gt;AAM94781.1&lt;/b&gt;&lt;br&gt;CalT2&lt;br&gt;Location: 22968 - 24506" locus_tag="AAM94781.1" class="clusterblast-orf" id="dummy-1_h1_9_22"  />
</g>
<g id="a1_0023"  >
<polygon points="211,85 216,80 232,80 232,90 216,90 211,85 " style="fill:white; stroke-width:1; stroke:black; " description="&lt;b&gt;AAM94782.1&lt;/b&gt;&lt;br&gt;CalR4&lt;br&gt;Location: 24503 - 26896" locus_tag="AAM94782.1" class="clusterblast-orf" id="dummy-1_h1_9_23"  />
</g>
<g id="a1_0024"  >
<polygon points="233,85 238,80 244,80 244,90 238,90 233,85 " style="fill:white; stroke-width:1; stroke:black; " description="&lt;b&gt;AAM94783.1&lt;/b&gt;&lt;br&gt;CalU10&lt;br&gt;Location: 27102 - 28304" locus_tag="AAM94783.1" class="clusterblast-orf" id="dummy-1_h1_9_24"  />
</g>
<g id="a1_0025"  >
<polygon points="247,85 252,80 259,80 259,90 252,90 247,85 " style="fill:white; stroke-width:1; stroke:black; " description="&lt;b&gt;AAM94784.1&lt;/b&gt;&lt;br&gt;CalR5&lt;br&gt;Location: 28696 - 30072" locus_tag="AAM94784.1" class="clusterblast-orf" id="dummy-1_h1_9_25"  />
</g>
<g id="a1_0026"  >
<polygon points="259,85 264,80 272,80 272,90 264,90 259,85 " style="fill:white; stroke-width:1; stroke:black; " description="&lt;b&gt;AAM94785.1&lt;/b&gt;&lt;br&gt;CalR6&lt;br&gt;Location: 30069 - 31592" locus_tag="AAM94785.1" class="clusterblast-orf" id="dummy-1_h1_9_26"  />
</g>
<g id="a1_0027"  >
<polygon points="272,85 277,80 283,80 283,90 277,90 272,85 " style="fill:white; stroke-width:1; stroke:black; " description="&lt;b&gt;AAM94786.1&lt;/b&gt;&lt;br&gt;CalE4&lt;br&gt;Location: 31589 - 32797" locus_tag="AAM94786.1" class="clusterblast-orf" id="dummy-1_h1_9_27"  />
</g>
<g id="a1_0028"  >
<polygon points="283,85 288,80 290,80 290,90 288,90 283,85 " style="fill:white; stroke-width:1; stroke:black; " description="&lt;b&gt;AAM94787.1&lt;/b&gt;&lt;br&gt;CalU11&lt;br&gt;Location: 32854 - 33672" locus_tag="AAM94787.1" class="clusterblast-orf" id="dummy-1_h1_9_28"  />
</g>
<g id="a1_0029"  >
<polygon points="290,85 295,80 298,80 298,90 295,90 290,85 " style="fill:white; stroke-width:1; stroke:black; " description="&lt;b&gt;AAM94788.1&lt;/b&gt;&lt;br&gt;CalE5&lt;br&gt;Location: 33669 - 34553" locus_tag="AAM94788.1" class="clusterblast-orf" id="dummy-1_h1_9_29"  />
</g>
<g id="a1_0030"  >
<polygon points="299,85 304,80 307,80 307,90 304,90 299,85 " style="fill:white; stroke-width:1; stroke:black; " description="&lt;b&gt;AAM94789.1&lt;/b&gt;&lt;br&gt;CalS7&lt;br&gt;Location: 34687 - 35580" locus_tag="AAM94789.1" class="clusterblast-orf" id="dummy-1_h1_9_30"  />
</g>
<g id="a1_0031"  >
<polygon points="308,90 309,90 314,85 309,80 308,80 308,90 " style="fill:white; stroke-width:1; stroke:black; " description="&lt;b&gt;AAM94790.1&lt;/b&gt;&lt;br&gt;CalU12&lt;br&gt;Location: 35749 - 36411" locus_tag="AAM94790.1" class="clusterblast-orf" id="dummy-1_h1_9_31"  />
</g>
<g id="a1_0032"  >
<polygon points="314,85 319,80 320,80 320,90 319,90 314,85 " style="fill:white; stroke-width:1; stroke:black; " description="&lt;b&gt;AAM94791.1&lt;/b&gt;&lt;br&gt;CalU13&lt;br&gt;Location: 36452 - 37111" locus_tag="AAM94791.1" class="clusterblast-orf" id="dummy-1_h1_9_32"  />
</g>
<g id="a1_0033"  >
<polygon points="320,85 325,80 330,80 330,90 325,90 320,85 " style="fill:white; stroke-width:1; stroke:black; " description="&lt;b&gt;AAM94792.1&lt;/b&gt;&lt;br&gt;CalE6&lt;br&gt;Location: 37168 - 38313" locus_tag="AAM94792.1" class="clusterblast-orf" id="dummy-1_h1_9_33"  />
</g>
<g id="a1_0034"  >
<polygon points="330,85 334,80 334,90 330,85 " style="fill:white; stroke-width:1; stroke:black; " description="&lt;b&gt;AAM94793.1&lt;/b&gt;&lt;br&gt;CalE7&lt;br&gt;Location: 38310 - 38756" locus_tag="AAM94793.1" class="clusterblast-orf" id="dummy-1_h1_9_34"  />
</g>
<g id="a1_0035"  >
<polygon points="334,85 339,80 384,80 384,90 339,90 334,85 " style="fill:#1585d8; stroke-width:1; stroke:black; " description="&lt;b&gt;AAM94794.1&lt;/b&gt;&lt;br&gt;CalE8&lt;br&gt;Location: 38753 - 44512&lt;br&gt;&lt;br&gt;&lt;b&gt;BlastP hit with cds1985_7793&lt;/b&gt;&lt;br&gt;Percentage identity: 56&lt;br&gt;Percentage coverage: 100&lt;br&gt;BLAST bit score: 1941&lt;br&gt;E-value: 0.0" locus_tag="AAM94794.1" class="clusterblast-orf" id="dummy-1_h1_9_35"  />
</g>
<g id="a1_0036"  >
<polygon points="384,85 389,80 392,80 392,90 389,90 384,85 " style="fill:#a115d8; stroke-width:1; stroke:black; " description="&lt;b&gt;AAM94795.1&lt;/b&gt;&lt;br&gt;CalT3&lt;br&gt;Location: 44509 - 45474&lt;br&gt;&lt;br&gt;&lt;b&gt;BlastP hit with cds7789_8875&lt;/b&gt;&lt;br&gt;Percentage identity: 70&lt;br&gt;Percentage coverage: 76&lt;br&gt;BLAST bit score: 412&lt;br&gt;E-value: 6.2e-115" locus_tag="AAM94795.1" class="clusterblast-orf" id="dummy-1_h1_9_36"  />
</g>
<g id="a1_0037"  >
<polygon points="392,85 397,80 409,80 409,90 397,90 392,85 " style="fill:#d86915; stroke-width:1; stroke:black; " description="&lt;b&gt;AAM70329.1&lt;/b&gt;&lt;br&gt;CalU14&lt;br&gt;Location: 45471 - 47426&lt;br&gt;&lt;br&gt;&lt;b&gt;BlastP hit with cds8876_10805&lt;/b&gt;&lt;br&gt;Percentage identity: 59&lt;br&gt;Percentage coverage: 102&lt;br&gt;BLAST bit score: 768&lt;br&gt;E-value: 7.9e-222" locus_tag="AAM70329.1" class="clusterblast-orf" id="dummy-1_h1_9_37"  />
</g>
<g id="a1_0038"  >
<polygon points="409,85 414,80 417,80 417,90 414,90 409,85 " style="fill:#15d831; stroke-width:1; stroke:black; " description="&lt;b&gt;AAM70330.1&lt;/b&gt;&lt;br&gt;CalU15&lt;br&gt;Location: 47448 - 48416&lt;br&gt;&lt;br&gt;&lt;b&gt;BlastP hit with cds10801_11788&lt;/b&gt;&lt;br&gt;Percentage identity: 49&lt;br&gt;Percentage coverage: 96&lt;br&gt;BLAST bit score: 289&lt;br&gt;E-value: 7.2e-78" locus_tag="AAM70330.1" class="clusterblast-orf" id="dummy-1_h1_9_38"  />
</g>
<g id="a1_0039"  >
<polygon points="420,90 422,90 427,85 422,80 420,80 420,90 " style="fill:white; stroke-width:1; stroke:black; " description="&lt;b&gt;AAM70331.1&lt;/b&gt;&lt;br&gt;CalR7&lt;br&gt;Location: 48717 - 49559" locus_tag="AAM70331.1" class="clusterblast-orf" id="dummy-1_h1_9_39"  />
</g>
<g id="a1_0040"  >
<polygon points="428,90 435,90 440,85 435,80 428,80 428,90 " style="fill:white; stroke-width:1; stroke:black; " description="&lt;b&gt;AAM70332.1&lt;/b&gt;&lt;br&gt;CalS8&lt;br&gt;Location: 49636 - 50997" locus_tag="AAM70332.1" class="clusterblast-orf" id="dummy-1_h1_9_40"  />
</g>
<g id="a1_0041"  >
<polygon points="440,90 443,90 448,85 443,80 440,80 440,90 " style="fill:white; stroke-width:1; stroke:black; " description="&lt;b&gt;AAM70333.1&lt;/b&gt;&lt;br&gt;CalS9&lt;br&gt;Location: 51004 - 51993" locus_tag="AAM70333.1" class="clusterblast-orf" id="dummy-1_h1_9_41"  />
</g>
<g id="a1_0042"  >
<polygon points="450,85 455,80 457,80 457,90 455,90 450,85 " style="fill:white; stroke-width:1; stroke:black; " description="&lt;b&gt;AAM70334.1&lt;/b&gt;&lt;br&gt;CalS10&lt;br&gt;Location: 52213 - 52950" locus_tag="AAM70334.1" class="clusterblast-orf" id="dummy-1_h1_9_42"  />
</g>
<g id="a1_0043"  >
<polygon points="458,90 461,85 458,80 458,90 " style="fill:white; stroke-width:1; stroke:black; " description="&lt;b&gt;AAM70335.1&lt;/b&gt;&lt;br&gt;CalR8&lt;br&gt;Location: 53061 - 53453" locus_tag="AAM70335.1" class="clusterblast-orf" id="dummy-1_h1_9_43"  />
</g>
<g id="a1_0044"  >
<polygon points="461,85 466,80 472,80 472,90 466,90 461,85 " style="fill:white; stroke-width:1; stroke:black; " description="&lt;b&gt;AAM70336.1&lt;/b&gt;&lt;br&gt;CalG1&lt;br&gt;Location: 53511 - 54689" locus_tag="AAM70336.1" class="clusterblast-orf" id="dummy-1_h1_9_44"  />
</g>
<g id="a1_0045"  >
<polygon points="473,90 475,90 480,85 475,80 473,80 473,90 " style="fill:white; stroke-width:1; stroke:black; " description="&lt;b&gt;AAM70337.1&lt;/b&gt;&lt;br&gt;CalS11&lt;br&gt;Location: 54904 - 55677" locus_tag="AAM70337.1" class="clusterblast-orf" id="dummy-1_h1_9_45"  />
</g>
<g id="a1_0046"  >
<polygon points="482,90 486,85 482,80 482,90 " style="fill:white; stroke-width:1; stroke:black; " description="&lt;b&gt;AAM70338.1&lt;/b&gt;&lt;br&gt;CalC&lt;br&gt;Location: 55857 - 56402" locus_tag="AAM70338.1" class="clusterblast-orf" id="dummy-1_h1_9_46"  />
</g>
<g id="a1_0047"  >
<polygon points="487,90 491,85 487,80 487,90 " style="fill:white; stroke-width:1; stroke:black; " description="&lt;b&gt;AAM70339.1&lt;/b&gt;&lt;br&gt;CalU16&lt;br&gt;Location: 56411 - 56959" locus_tag="AAM70339.1" class="clusterblast-orf" id="dummy-1_h1_9_47"  />
</g>
<g id="a1_0048"  >
<polygon points="494,85 499,80 501,80 501,90 499,90 494,85 " style="fill:white; stroke-width:1; stroke:black; " description="&lt;b&gt;AAM70340.1&lt;/b&gt;&lt;br&gt;CalT4&lt;br&gt;Location: 57266 - 58108" locus_tag="AAM70340.1" class="clusterblast-orf" id="dummy-1_h1_9_48"  />
</g>
<g id="a1_0049"  >
<polygon points="501,85 506,80 510,80 510,90 506,90 501,85 " style="fill:white; stroke-width:1; stroke:black; " description="&lt;b&gt;AAM70341.1&lt;/b&gt;&lt;br&gt;CalT5&lt;br&gt;Location: 58105 - 59091" locus_tag="AAM70341.1" class="clusterblast-orf" id="dummy-1_h1_9_49"  />
</g>
<g id="a1_0050"  >
<polygon points="511,85 516,80 525,80 525,90 516,90 511,85 " style="fill:white; stroke-width:1; stroke:black; " description="&lt;b&gt;AAM70342.1&lt;/b&gt;&lt;br&gt;CalT6&lt;br&gt;Location: 59208 - 60914" locus_tag="AAM70342.1" class="clusterblast-orf" id="dummy-1_h1_9_50"  />
</g>
<g id="a1_0051"  >
<polygon points="526,85 531,80 535,80 535,90 531,90 526,85 " style="fill:white; stroke-width:1; stroke:black; " description="&lt;b&gt;AAM70343.1&lt;/b&gt;&lt;br&gt;CalO1&lt;br&gt;Location: 60938 - 61975" locus_tag="AAM70343.1" class="clusterblast-orf" id="dummy-1_h1_9_51"  />
</g>
<g id="a1_0052"  >
<polygon points="536,90 542,90 547,85 542,80 536,80 536,90 " style="fill:white; stroke-width:1; stroke:black; " description="&lt;b&gt;AAM94796.1&lt;/b&gt;&lt;br&gt;CalE9&lt;br&gt;Location: 62177 - 63463" locus_tag="AAM94796.1" class="clusterblast-orf" id="dummy-1_h1_9_52"  />
</g>
<g id="a1_0053"  >
<polygon points="548,85 553,80 558,80 558,90 553,90 548,85 " style="fill:white; stroke-width:1; stroke:black; " description="&lt;b&gt;AAM70345.1&lt;/b&gt;&lt;br&gt;IS&lt;br&gt;Location: 63477 - 64685" locus_tag="AAM70345.1" class="clusterblast-orf" id="dummy-1_h1_9_53"  />
</g>
<g id="a1_0054"  >
<polygon points="559,90 568,90 573,85 568,80 559,80 559,90 " style="fill:white; stroke-width:1; stroke:black; " description="&lt;b&gt;AAM70346.1&lt;/b&gt;&lt;br&gt;CalT7&lt;br&gt;Location: 64779 - 66461" locus_tag="AAM70346.1" class="clusterblast-orf" id="dummy-1_h1_9_54"  />
</g>
<g id="a1_0055"  >
<polygon points="573,90 579,90 584,85 579,80 573,80 573,90 " style="fill:white; stroke-width:1; stroke:black; " description="&lt;b&gt;AAM70347.1&lt;/b&gt;&lt;br&gt;CalR9&lt;br&gt;Location: 66458 - 67705" locus_tag="AAM70347.1" class="clusterblast-orf" id="dummy-1_h1_9_55"  />
</g>
<g id="a1_0056"  >
<polygon points="585,85 590,80 595,80 595,90 590,90 585,85 " style="fill:white; stroke-width:1; stroke:black; " description="&lt;b&gt;AAM70348.1&lt;/b&gt;&lt;br&gt;CalG2&lt;br&gt;Location: 67788 - 68981" locus_tag="AAM70348.1" class="clusterblast-orf" id="dummy-1_h1_9_56"  />
</g>
<g id="a1_0057"  >
<polygon points="595,85 600,80 604,80 604,90 600,90 595,85 " style="fill:white; stroke-width:1; stroke:black; " description="&lt;b&gt;AAM70349.1&lt;/b&gt;&lt;br&gt;CalS12&lt;br&gt;Location: 69032 - 70024" locus_tag="AAM70349.1" class="clusterblast-orf" id="dummy-1_h1_9_57"  />
</g>
<g id="a1_0058"  >
<polygon points="606,90 610,90 615,85 610,80 606,80 606,90 " style="fill:white; stroke-width:1; stroke:black; " description="&lt;b&gt;AAM94797.1&lt;/b&gt;&lt;br&gt;CalS13&lt;br&gt;Location: 70221 - 71351" locus_tag="AAM94797.1" class="clusterblast-orf" id="dummy-1_h1_9_58"  />
</g>
<g id="a1_0059"  >
<polygon points="616,90 621,90 626,85 621,80 616,80 616,90 " style="fill:white; stroke-width:1; stroke:black; " description="&lt;b&gt;AAM94798.1&lt;/b&gt;&lt;br&gt;CalG3&lt;br&gt;Location: 71392 - 72522" locus_tag="AAM94798.1" class="clusterblast-orf" id="dummy-1_h1_9_59"  />
</g>
<g id="a1_0060"  >
<polygon points="626,90 632,90 637,85 632,80 626,80 626,90 " style="fill:white; stroke-width:1; stroke:black; " description="&lt;b&gt;AAM94799.1&lt;/b&gt;&lt;br&gt;CalO2&lt;br&gt;Location: 72606 - 73799" locus_tag="AAM94799.1" class="clusterblast-orf" id="dummy-1_h1_9_60"  />
</g>
<g id="a1_0061"  >
<polygon points="637,90 643,90 648,85 643,80 637,80 637,90 " style="fill:white; stroke-width:1; stroke:black; " description="&lt;b&gt;AAM70353.1&lt;/b&gt;&lt;br&gt;CalO3&lt;br&gt;Location: 73840 - 75102" locus_tag="AAM70353.1" class="clusterblast-orf" id="dummy-1_h1_9_61"  />
</g>
<g id="a1_0062"  >
<polygon points="648,90 652,90 657,85 652,80 648,80 648,90 " style="fill:white; stroke-width:1; stroke:black; " description="&lt;b&gt;AAM70354.1&lt;/b&gt;&lt;br&gt;CalO4&lt;br&gt;Location: 75152 - 76186" locus_tag="AAM70354.1" class="clusterblast-orf" id="dummy-1_h1_9_62"  />
</g>
<g id="a1_0063"  >
<polygon points="658,90 686,90 691,85 686,80 658,80 658,90 " style="fill:white; stroke-width:1; stroke:black; " description="&lt;b&gt;AAM70355.1&lt;/b&gt;&lt;br&gt;CalO5&lt;br&gt;Location: 76231 - 80046" locus_tag="AAM70355.1" class="clusterblast-orf" id="dummy-1_h1_9_63"  />
</g>
<g id="a1_0064"  >
<polygon points="691,90 695,90 700,85 695,80 691,80 691,90 " style="fill:white; stroke-width:1; stroke:black; " description="&lt;b&gt;AAM70356.1&lt;/b&gt;&lt;br&gt;CalO6&lt;br&gt;Location: 80077 - 81147" locus_tag="AAM70356.1" class="clusterblast-orf" id="dummy-1_h1_9_64"  />
</g>
<g id="a1_0065"  >
<polygon points="700,90 703,90 708,85 703,80 700,80 700,90 " style="fill:white; stroke-width:1; stroke:black; " description="&lt;b&gt;AAM70357.1&lt;/b&gt;&lt;br&gt;CalU17&lt;br&gt;Location: 81152 - 82102" locus_tag="AAM70357.1" class="clusterblast-orf" id="dummy-1_h1_9_65"  />
</g>
<g id="a1_0066"  >
<polygon points="708,90 711,85 708,80 708,90 " style="fill:white; stroke-width:1; stroke:black; " description="&lt;b&gt;AAM70358.1&lt;/b&gt;&lt;br&gt;CalU18&lt;br&gt;Location: 82105 - 82371" locus_tag="AAM70358.1" class="clusterblast-orf" id="dummy-1_h1_9_66"  />
</g>
<g id="a1_0067"  >
<polygon points="711,90 719,90 724,85 719,80 711,80 711,90 " style="fill:white; stroke-width:1; stroke:black; " description="&lt;b&gt;AAM70359.1&lt;/b&gt;&lt;br&gt;CalS14&lt;br&gt;Location: 82456 - 83886" locus_tag="AAM70359.1" class="clusterblast-orf" id="dummy-1_h1_9_67"  />
</g>
<g id="a1_0068"  >
<polygon points="725,90 730,90 735,85 730,80 725,80 725,90 " style="fill:white; stroke-width:1; stroke:black; " description="&lt;b&gt;AAM94800.1&lt;/b&gt;&lt;br&gt;CalE10&lt;br&gt;Location: 84045 - 85229" locus_tag="AAM94800.1" class="clusterblast-orf" id="dummy-1_h1_9_68"  />
</g>
<g id="a1_0069"  >
<polygon points="736,85 741,80 742,80 742,90 741,90 736,85 " style="fill:white; stroke-width:1; stroke:black; " description="&lt;b&gt;AAM70361.1&lt;/b&gt;&lt;br&gt;CalU19&lt;br&gt;Location: 85300 - 85998" locus_tag="AAM70361.1" class="clusterblast-orf" id="dummy-1_h1_9_69"  />
</g>
<g id="a1_0070"  >
<polygon points="743,85 748,80 748,80 748,90 748,90 743,85 " style="fill:white; stroke-width:1; stroke:black; " description="&lt;b&gt;AAM70362.1&lt;/b&gt;&lt;br&gt;CalU20&lt;br&gt;Location: 86118 - 86669" locus_tag="AAM70362.1" class="clusterblast-orf" id="dummy-1_h1_9_70"  />
</g>
<g id="a1_0071"  >
<polygon points="748,85 753,80 753,80 753,90 753,90 748,85 " style="fill:#d8bc15; stroke-width:1; stroke:black; " description="&lt;b&gt;AAM70363.1&lt;/b&gt;&lt;br&gt;CalU21&lt;br&gt;Location: 86678 - 87271&lt;br&gt;&lt;br&gt;&lt;b&gt;BlastP hit with cds13584_14148&lt;/b&gt;&lt;br&gt;Percentage identity: 62&lt;br&gt;Percentage coverage: 91&lt;br&gt;BLAST bit score: 228&lt;br&gt;E-value: 8.6e-60" locus_tag="AAM70363.1" class="clusterblast-orf" id="dummy-1_h1_9_71"  />
</g>
<g id="a1_0072"  >
<polygon points="754,85 759,80 767,80 767,90 759,90 754,85 " style="fill:white; stroke-width:1; stroke:black; " description="&lt;b&gt;AAM94801.1&lt;/b&gt;&lt;br&gt;CalU22&lt;br&gt;Location: 87351 - 88853" locus_tag="AAM94801.1" class="clusterblast-orf" id="dummy-1_h1_9_72"  />
</g>
<g id="a1_0073"  >
<polygon points="769,85 774,80 780,80 780,90 774,90 769,85 " style="fill:white; stroke-width:1; stroke:black; " description="&lt;b&gt;AAM70365.1&lt;/b&gt;&lt;br&gt;CalG4&lt;br&gt;Location: 89143 - 90348" locus_tag="AAM70365.1" class="clusterblast-orf" id="dummy-1_h1_9_73"  />
</g>
</svg>
