<svg xmlns="http://www.w3.org/2000/svg" xmlns:xlink="http://www.w3.org/1999/xlink" version="1.1" x="0" y="0" height="230" width="800" viewBox="0 0 800 230" preserveAspectRatio="none"  >
<g label="Query sequence" class="clusterblast-cluster"  >
<text x="5" y="20" class="clusterblast-acc"  >
Query sequence</text>
<line x1="10" y1="35" x2="778.0" y2="35" style="stroke-width:1; stroke:grey; "  />
<polygon points="107,35 112,30 125,30 125,40 112,40 107,35 " style="fill:white; stroke-width:1; stroke:black; " description="&lt;b&gt;cds61435_62263&lt;/b&gt;&lt;br&gt;hypothetical protein&lt;br&gt;Location: 61435 - 62263" locus_tag="cds61435_62263" class="clusterblast-orf" id="dummy-1_q0_0_all"  />
<polygon points="128,35 133,30 149,30 149,40 133,40 128,35 " style="fill:white; stroke-width:1; stroke:black; " description="&lt;b&gt;cds62425_63364&lt;/b&gt;&lt;br&gt;hypothetical protein&lt;br&gt;Location: 62425 - 63364" locus_tag="cds62425_63364" class="clusterblast-orf" id="dummy-1_q1_0_all"  />
<polygon points="162,40 175,40 180,35 175,30 162,30 162,40 " style="fill:white; stroke-width:1; stroke:black; " description="&lt;b&gt;cds63941_64766&lt;/b&gt;&lt;br&gt;hypothetical protein&lt;br&gt;Location: 63941 - 64766" locus_tag="cds63941_64766" class="clusterblast-orf" id="dummy-1_q2_0_all"  />
<polygon points="180,35 184,30 184,40 180,35 " style="fill:white; stroke-width:1; stroke:black; " description="&lt;b&gt;cds64775_64949&lt;/b&gt;&lt;br&gt;hypothetical protein&lt;br&gt;Location: 64775 - 64949" locus_tag="cds64775_64949" class="clusterblast-orf" id="dummy-1_q3_0_all"  />
<polygon points="185,35 190,30 199,30 199,40 190,40 185,35 " style="fill:#d81515; stroke-width:1; stroke:black; " description="&lt;b&gt;cds65016_65637&lt;/b&gt;&lt;br&gt;HTH-type transcriptional regulator PuuR&lt;br&gt;Location: 65016 - 65637" locus_tag="cds65016_65637" class="clusterblast-orf" id="dummy-1_q4_0_all"  />
<polygon points="200,35 205,30 231,30 231,40 205,40 200,35 " style="fill:#77d815; stroke-width:1; stroke:black; " description="&lt;b&gt;cds65693_67088&lt;/b&gt;&lt;br&gt;Aminotransferase PigE&lt;br&gt;Location: 65693 - 67088" locus_tag="cds65693_67088" class="clusterblast-orf" id="dummy-1_q5_0_all"  />
<polygon points="231,35 236,30 272,30 272,40 236,40 231,35 " style="fill:#15d8d8; stroke-width:1; stroke:black; " description="&lt;b&gt;cds67084_68995&lt;/b&gt;&lt;br&gt;1-deoxy-D-xylulose-5-phosphate synthase&lt;br&gt;Location: 67084 - 68995" locus_tag="cds67084_68995" class="clusterblast-orf" id="dummy-1_q6_0_all"  />
<polygon points="276,35 281,30 299,30 299,40 281,40 276,35 " style="fill:#7715d8; stroke-width:1; stroke:black; " description="&lt;b&gt;cds69168_70188&lt;/b&gt;&lt;br&gt;GTP 3',8-cyclase&lt;br&gt;Location: 69168 - 70188" locus_tag="cds69168_70188" class="clusterblast-orf" id="dummy-1_q7_0_all"  />
<polygon points="299,35 304,30 313,30 313,40 304,40 299,35 " style="fill:#d87715; stroke-width:1; stroke:black; " description="&lt;b&gt;cds70194_70854&lt;/b&gt;&lt;br&gt;hypothetical protein&lt;br&gt;Location: 70194 - 70854" locus_tag="cds70194_70854" class="clusterblast-orf" id="dummy-1_q8_0_all"  />
<polygon points="313,35 318,30 357,30 357,40 318,40 313,35 " style="fill:#15d815; stroke-width:1; stroke:black; " description="&lt;b&gt;cds70858_72871&lt;/b&gt;&lt;br&gt;Squalene--hopene cyclase&lt;br&gt;Location: 70858 - 72871" locus_tag="cds70858_72871" class="clusterblast-orf" id="dummy-1_q9_0_all"  />
<polygon points="360,35 365,30 384,30 384,40 365,40 360,35 " style="fill:#1577d8; stroke-width:1; stroke:black; " description="&lt;b&gt;cds72971_74075&lt;/b&gt;&lt;br&gt;(2E,6E)-farnesyl diphosphate synthase&lt;br&gt;Location: 72971 - 74075" locus_tag="cds72971_74075" class="clusterblast-orf" id="dummy-1_q10_0_all"  />
<polygon points="384,35 389,30 414,30 414,40 389,40 384,35 " style="fill:#d815d8; stroke-width:1; stroke:black; " description="&lt;b&gt;cds74071_75460&lt;/b&gt;&lt;br&gt;Hydroxysqualene dehydroxylase&lt;br&gt;Location: 74071 - 75460" locus_tag="cds74071_75460" class="clusterblast-orf" id="dummy-1_q11_0_all"  />
<polygon points="416,35 421,30 437,30 437,40 421,40 416,35 " style="fill:#d8d815; stroke-width:1; stroke:black; " description="&lt;b&gt;cds75548_76502&lt;/b&gt;&lt;br&gt;Phytoene synthase&lt;br&gt;Location: 75548 - 76502" locus_tag="cds75548_76502" class="clusterblast-orf" id="dummy-1_q12_0_all"  />
<polygon points="437,35 442,30 457,30 457,40 442,40 437,35 " style="fill:#15d877; stroke-width:1; stroke:black; " description="&lt;b&gt;cds76498_77416&lt;/b&gt;&lt;br&gt;hypothetical protein&lt;br&gt;Location: 76498 - 77416" locus_tag="cds76498_77416" class="clusterblast-orf" id="dummy-1_q13_0_all"  />
<polygon points="466,35 471,30 484,30 484,40 471,40 466,35 " style="fill:white; stroke-width:1; stroke:black; " description="&lt;b&gt;cds77840_78626&lt;/b&gt;&lt;br&gt;Vitamin B12 import ATP-binding protein BtuD&lt;br&gt;Location: 77840 - 78626" locus_tag="cds77840_78626" class="clusterblast-orf" id="dummy-1_q14_0_all"  />
<polygon points="483,35 488,30 504,30 504,40 488,40 483,35 " style="fill:white; stroke-width:1; stroke:black; " description="&lt;b&gt;cds78618_79548&lt;/b&gt;&lt;br&gt;hypothetical protein&lt;br&gt;Location: 78618 - 79548" locus_tag="cds78618_79548" class="clusterblast-orf" id="dummy-1_q15_0_all"  />
<polygon points="506,35 511,30 525,30 525,40 511,40 506,35 " style="fill:white; stroke-width:1; stroke:black; " description="&lt;b&gt;cds79656_80529&lt;/b&gt;&lt;br&gt;hypothetical protein&lt;br&gt;Location: 79656 - 80529" locus_tag="cds79656_80529" class="clusterblast-orf" id="dummy-1_q16_0_all"  />
<polygon points="526,35 531,30 543,30 543,40 531,40 526,35 " style="fill:white; stroke-width:1; stroke:black; " description="&lt;b&gt;cds80537_81317&lt;/b&gt;&lt;br&gt;hypothetical protein&lt;br&gt;Location: 80537 - 81317" locus_tag="cds80537_81317" class="clusterblast-orf" id="dummy-1_q17_0_all"  />
<polygon points="542,35 547,30 565,30 565,40 547,40 542,35 " style="fill:#1515d8; stroke-width:1; stroke:black; " description="&lt;b&gt;cds81294_82356&lt;/b&gt;&lt;br&gt;hypothetical protein&lt;br&gt;Location: 81294 - 82356" locus_tag="cds81294_82356" class="clusterblast-orf" id="dummy-1_q18_0_all"  />
<polygon points="565,35 570,30 581,30 581,40 570,40 565,35 " style="fill:#d81577; stroke-width:1; stroke:black; " description="&lt;b&gt;cds82343_83081&lt;/b&gt;&lt;br&gt;Glucose-1-phosphate adenylyltransferase&lt;br&gt;Location: 82343 - 83081" locus_tag="cds82343_83081" class="clusterblast-orf" id="dummy-1_q19_0_all"  />
<polygon points="581,35 586,30 620,30 620,40 586,40 581,35 " style="fill:white; stroke-width:1; stroke:black; " description="&lt;b&gt;cds83077_84832&lt;/b&gt;&lt;br&gt;hypothetical protein&lt;br&gt;Location: 83077 - 84832" locus_tag="cds83077_84832" class="clusterblast-orf" id="dummy-1_q20_0_all"  />
<polygon points="626,40 643,40 648,35 643,30 626,30 626,40 " style="fill:white; stroke-width:1; stroke:black; " description="&lt;b&gt;cds85141_86128&lt;/b&gt;&lt;br&gt;UDP-glucose 4-epimerase&lt;br&gt;Location: 85141 - 86128" locus_tag="cds85141_86128" class="clusterblast-orf" id="dummy-1_q21_0_all"  />
<polygon points="652,40 668,40 673,35 668,30 652,30 652,40 " style="fill:white; stroke-width:1; stroke:black; " description="&lt;b&gt;cds86309_87251&lt;/b&gt;&lt;br&gt;Metal cation efflux system protein CzcD&lt;br&gt;Location: 86309 - 87251" locus_tag="cds86309_87251" class="clusterblast-orf" id="dummy-1_q22_0_all"  />
</g>
<g label="BGC0001156" description="BGC0001156_c1: platencin (6% of genes show similarity), Terpene" class="clusterblast-cluster"  >
<text x="5" y="70" class="clusterblast-acc"  >
<a xlink:href="https://mibig.secondarymetabolites.org/go/BGC0001156/1" target="_blank">BGC0001156</a>:                                                                        platencin (6% of genes show similarity), Terpene</text>
<line x1="10" y1="85" x2="778.0" y2="85" style="stroke-width:1; stroke:grey; "  />
</g>
<g id="a1_000"  >
<polygon points="0,85 5,80 7,80 7,90 5,90 0,85 " style="fill:white; stroke-width:1; stroke:black; " description="&lt;b&gt;ADD83007.1&lt;/b&gt;&lt;br&gt;PtnO9&lt;br&gt;Location: 35670 - 35335" locus_tag="ADD83007.1" class="clusterblast-orf" id="dummy-1_h1_5_0"  />
</g>
<g id="a1_001"  >
<polygon points="7,85 12,80 43,80 43,90 12,90 7,85 " style="fill:white; stroke-width:1; stroke:black; " description="&lt;b&gt;ADD83011.1&lt;/b&gt;&lt;br&gt;PtnP4&lt;br&gt;Location: 35312 - 33690" locus_tag="ADD83011.1" class="clusterblast-orf" id="dummy-1_h1_5_1"  />
</g>
<g id="a1_002"  >
<polygon points="45,85 50,80 72,80 72,90 50,90 45,85 " style="fill:white; stroke-width:1; stroke:black; " description="&lt;b&gt;ADD83010.1&lt;/b&gt;&lt;br&gt;PtnP3&lt;br&gt;Location: 33572 - 32358" locus_tag="ADD83010.1" class="clusterblast-orf" id="dummy-1_h1_5_2"  />
</g>
<g id="a1_003"  >
<polygon points="76,85 81,80 110,80 110,90 81,90 76,85 " style="fill:white; stroke-width:1; stroke:black; " description="&lt;b&gt;ADD82992.1&lt;/b&gt;&lt;br&gt;PtnA3&lt;br&gt;Location: 32190 - 30610" locus_tag="ADD82992.1" class="clusterblast-orf" id="dummy-1_h1_5_3"  />
</g>
<g id="a1_004"  >
<polygon points="111,85 116,80 151,80 151,90 116,90 111,85 " style="fill:white; stroke-width:1; stroke:black; " description="&lt;b&gt;ADD83020.1&lt;/b&gt;&lt;br&gt;PtnU4&lt;br&gt;Location: 30571 - 28781" locus_tag="ADD83020.1" class="clusterblast-orf" id="dummy-1_h1_5_4"  />
</g>
<g id="a1_005"  >
<polygon points="150,85 155,80 169,80 169,90 155,90 150,85 " style="fill:white; stroke-width:1; stroke:black; " description="&lt;b&gt;ADD83006.1&lt;/b&gt;&lt;br&gt;PtnO8&lt;br&gt;Location: 28784 - 27948" locus_tag="ADD83006.1" class="clusterblast-orf" id="dummy-1_h1_5_5"  />
</g>
<g id="a1_006"  >
<polygon points="175,90 186,90 191,85 186,80 175,80 175,90 " style="fill:white; stroke-width:1; stroke:black; " description="&lt;b&gt;ADD83012.1&lt;/b&gt;&lt;br&gt;PtnR1&lt;br&gt;Location: 27656 - 26940" locus_tag="ADD83012.1" class="clusterblast-orf" id="dummy-1_h1_5_6"  />
</g>
<g id="a1_007"  >
<polygon points="192,85 197,80 211,80 211,90 197,90 192,85 " style="fill:white; stroke-width:1; stroke:black; " description="&lt;b&gt;ADD83005.1&lt;/b&gt;&lt;br&gt;PtnO7&lt;br&gt;Location: 26907 - 26002" locus_tag="ADD83005.1" class="clusterblast-orf" id="dummy-1_h1_5_7"  />
</g>
<g id="a1_008"  >
<polygon points="212,85 217,80 239,80 239,90 217,90 212,85 " style="fill:white; stroke-width:1; stroke:black; " description="&lt;b&gt;ADD83009.1&lt;/b&gt;&lt;br&gt;PtnP2&lt;br&gt;Location: 25987 - 24743" locus_tag="ADD83009.1" class="clusterblast-orf" id="dummy-1_h1_5_8"  />
</g>
<g id="a1_009"  >
<polygon points="241,90 267,90 272,85 267,80 241,80 241,90 " style="fill:white; stroke-width:1; stroke:black; " description="&lt;b&gt;ADD83008.1&lt;/b&gt;&lt;br&gt;PtnP1&lt;br&gt;Location: 24670 - 23246" locus_tag="ADD83008.1" class="clusterblast-orf" id="dummy-1_h1_5_9"  />
</g>
<g id="a1_0010"  >
<polygon points="274,85 279,80 293,80 293,90 279,90 274,85 " style="fill:white; stroke-width:1; stroke:black; " description="&lt;b&gt;ADD82996.1&lt;/b&gt;&lt;br&gt;PtnC&lt;br&gt;Location: 23164 - 22289" locus_tag="ADD82996.1" class="clusterblast-orf" id="dummy-1_h1_5_10"  />
</g>
<g id="a1_0011"  >
<polygon points="295,85 300,80 321,80 321,90 300,90 295,85 " style="fill:white; stroke-width:1; stroke:black; " description="&lt;b&gt;ADD82995.1&lt;/b&gt;&lt;br&gt;PtnB3&lt;br&gt;Location: 22210 - 21020" locus_tag="ADD82995.1" class="clusterblast-orf" id="dummy-1_h1_5_11"  />
</g>
<g id="a1_0012"  >
<polygon points="321,85 326,80 345,80 345,90 326,90 321,85 " style="fill:white; stroke-width:1; stroke:black; " description="&lt;b&gt;ADD82994.1&lt;/b&gt;&lt;br&gt;3,4-AHBA synthase&lt;br&gt;Location: 21014 - 19908" locus_tag="ADD82994.1" class="clusterblast-orf" id="dummy-1_h1_5_12"  />
</g>
<g id="a1_0013"  >
<polygon points="346,85 351,80 365,80 365,90 351,90 346,85 " style="fill:white; stroke-width:1; stroke:black; " description="&lt;b&gt;ADD82993.1&lt;/b&gt;&lt;br&gt;ADHOHP synthase&lt;br&gt;Location: 19855 - 19022" locus_tag="ADD82993.1" class="clusterblast-orf" id="dummy-1_h1_5_13"  />
</g>
<g id="a1_0014"  >
<polygon points="366,85 371,80 405,80 405,90 371,90 366,85 " style="fill:#15d8d8; stroke-width:1; stroke:black; " description="&lt;b&gt;ADD83001.1&lt;/b&gt;&lt;br&gt;DXP synthase&lt;br&gt;Location: 18944 - 17181&lt;br&gt;&lt;br&gt;&lt;b&gt;BlastP hit with cds67084_68995&lt;/b&gt;&lt;br&gt;Percentage identity: 59&lt;br&gt;Percentage coverage: 95&lt;br&gt;BLAST bit score: 677&lt;br&gt;E-value: 1.8e-194" locus_tag="ADD83001.1" class="clusterblast-orf" id="dummy-1_h1_5_14"  />
</g>
<g id="a1_0015"  >
<polygon points="405,85 410,80 429,80 429,90 410,90 405,85 " style="fill:white; stroke-width:1; stroke:black; " description="&lt;b&gt;ADD83000.1&lt;/b&gt;&lt;br&gt;HMBDP synthase&lt;br&gt;Location: 17194 - 16094" locus_tag="ADD83000.1" class="clusterblast-orf" id="dummy-1_h1_5_15"  />
</g>
<g id="a1_0016"  >
<polygon points="429,85 434,80 458,80 458,90 434,90 429,85 " style="fill:white; stroke-width:1; stroke:black; " description="&lt;b&gt;ADD82999.1&lt;/b&gt;&lt;br&gt;HMBDP reductase&lt;br&gt;Location: 16086 - 14740" locus_tag="ADD82999.1" class="clusterblast-orf" id="dummy-1_h1_5_16"  />
</g>
<g id="a1_0017"  >
<polygon points="458,85 463,80 481,80 481,90 463,90 458,85 " style="fill:#1577d8; stroke-width:1; stroke:black; " description="&lt;b&gt;ADD83016.1&lt;/b&gt;&lt;br&gt;GGPP synthease&lt;br&gt;Location: 14740 - 13694&lt;br&gt;&lt;br&gt;&lt;b&gt;BlastP hit with cds72971_74075&lt;/b&gt;&lt;br&gt;Percentage identity: 46&lt;br&gt;Percentage coverage: 91&lt;br&gt;BLAST bit score: 254&lt;br&gt;E-value: 2.9e-67" locus_tag="ADD83016.1" class="clusterblast-orf" id="dummy-1_h1_5_17"  />
</g>
<g id="a1_0018"  >
<polygon points="483,85 488,80 501,80 501,90 488,90 483,85 " style="fill:white; stroke-width:1; stroke:black; " description="&lt;b&gt;ADD83004.1&lt;/b&gt;&lt;br&gt;PtnO6&lt;br&gt;Location: 13626 - 12784" locus_tag="ADD83004.1" class="clusterblast-orf" id="dummy-1_h1_5_18"  />
</g>
<g id="a1_0019"  >
<polygon points="504,90 534,90 539,85 534,80 504,80 504,90 " style="fill:white; stroke-width:1; stroke:black; " description="&lt;b&gt;ADD83015.1&lt;/b&gt;&lt;br&gt;PtnT2&lt;br&gt;Location: 12645 - 11044" locus_tag="ADD83015.1" class="clusterblast-orf" id="dummy-1_h1_5_19"  />
</g>
<g id="a1_0020"  >
<polygon points="539,90 563,90 568,85 563,80 539,80 539,90 " style="fill:white; stroke-width:1; stroke:black; " description="&lt;b&gt;ADD83003.1&lt;/b&gt;&lt;br&gt;PtnO2&lt;br&gt;Location: 11044 - 9719" locus_tag="ADD83003.1" class="clusterblast-orf" id="dummy-1_h1_5_20"  />
</g>
<g id="a1_0021"  >
<polygon points="568,90 584,90 589,85 584,80 568,80 568,90 " style="fill:white; stroke-width:1; stroke:black; " description="&lt;b&gt;ADD83014.1&lt;/b&gt;&lt;br&gt;PtnT1&lt;br&gt;Location: 9722 - 8796" locus_tag="ADD83014.1" class="clusterblast-orf" id="dummy-1_h1_5_21"  />
</g>
<g id="a1_0022"  >
<polygon points="590,90 604,90 609,85 604,80 590,80 590,90 " style="fill:white; stroke-width:1; stroke:black; " description="&lt;b&gt;ADD82998.1&lt;/b&gt;&lt;br&gt;PtnH&lt;br&gt;Location: 8732 - 7878" locus_tag="ADD82998.1" class="clusterblast-orf" id="dummy-1_h1_5_22"  />
</g>
<g id="a1_0023"  >
<polygon points="611,90 629,90 634,85 629,80 611,80 611,90 " style="fill:white; stroke-width:1; stroke:black; " description="&lt;b&gt;ADD83019.1&lt;/b&gt;&lt;br&gt;PtnU3&lt;br&gt;Location: 7782 - 6712" locus_tag="ADD83019.1" class="clusterblast-orf" id="dummy-1_h1_5_23"  />
</g>
<g id="a1_0024"  >
<polygon points="635,90 664,90 669,85 664,80 635,80 635,90 " style="fill:white; stroke-width:1; stroke:black; " description="&lt;b&gt;ADD82991.1&lt;/b&gt;&lt;br&gt;PtnA2&lt;br&gt;Location: 6683 - 5115" locus_tag="ADD82991.1" class="clusterblast-orf" id="dummy-1_h1_5_24"  />
</g>
<g id="a1_0025"  >
<polygon points="669,90 690,90 695,85 690,80 669,80 669,90 " style="fill:white; stroke-width:1; stroke:black; " description="&lt;b&gt;ADD82997.1&lt;/b&gt;&lt;br&gt;PtnD&lt;br&gt;Location: 5113 - 3956" locus_tag="ADD82997.1" class="clusterblast-orf" id="dummy-1_h1_5_25"  />
</g>
<g id="a1_0026"  >
<polygon points="695,90 699,90 704,85 699,80 695,80 695,90 " style="fill:white; stroke-width:1; stroke:black; " description="&lt;b&gt;ADD83013.1&lt;/b&gt;&lt;br&gt;PtnR2&lt;br&gt;Location: 3956 - 3555" locus_tag="ADD83013.1" class="clusterblast-orf" id="dummy-1_h1_5_26"  />
</g>
<g id="a1_0027"  >
<polygon points="705,85 710,80 720,80 720,90 710,90 705,85 " style="fill:white; stroke-width:1; stroke:black; " description="&lt;b&gt;ADD83018.1&lt;/b&gt;&lt;br&gt;PtnU2&lt;br&gt;Location: 3508 - 2798" locus_tag="ADD83018.1" class="clusterblast-orf" id="dummy-1_h1_5_27"  />
</g>
<g id="a1_0028"  >
<polygon points="720,85 725,80 749,80 749,90 725,90 720,85 " style="fill:white; stroke-width:1; stroke:black; " description="&lt;b&gt;ADD82990.1&lt;/b&gt;&lt;br&gt;PtnA1&lt;br&gt;Location: 2801 - 1497" locus_tag="ADD82990.1" class="clusterblast-orf" id="dummy-1_h1_5_28"  />
</g>
<g id="a1_0029"  >
<polygon points="750,90 758,90 763,85 758,80 750,80 750,90 " style="fill:white; stroke-width:1; stroke:black; " description="&lt;b&gt;ADD83017.1&lt;/b&gt;&lt;br&gt;PtnU1&lt;br&gt;Location: 1419 - 856" locus_tag="ADD83017.1" class="clusterblast-orf" id="dummy-1_h1_5_29"  />
</g>
<g id="a1_0030"  >
<polygon points="763,90 775,90 780,85 775,80 763,80 763,90 " style="fill:white; stroke-width:1; stroke:black; " description="&lt;b&gt;ADD83002.1&lt;/b&gt;&lt;br&gt;PtnO1&lt;br&gt;Location: 859 - 95" locus_tag="ADD83002.1" class="clusterblast-orf" id="dummy-1_h1_5_30"  />
</g>
</svg>
