<svg xmlns="http://www.w3.org/2000/svg" xmlns:xlink="http://www.w3.org/1999/xlink" version="1.1" x="0" y="0" height="230" width="800" viewBox="0 0 800 230" preserveAspectRatio="none"  >
<g label="Query sequence" class="clusterblast-cluster"  >
<text x="5" y="20" class="clusterblast-acc"  >
Query sequence</text>
<line x1="10" y1="35" x2="778.0" y2="35" style="stroke-width:1; stroke:grey; "  />
<polygon points="0,35 5,30 11,30 11,40 5,40 0,35 " style="fill:white; stroke-width:1; stroke:black; " description="&lt;b&gt;cds133096_134494&lt;/b&gt;&lt;br&gt;D-hydantoinase&lt;br&gt;Location: 133096 - 134494" locus_tag="cds133096_134494" class="clusterblast-orf" id="dummy-1_q0_0_all"  />
<polygon points="12,35 17,30 23,30 23,40 17,40 12,35 " style="fill:white; stroke-width:1; stroke:black; " description="&lt;b&gt;cds134575_135859&lt;/b&gt;&lt;br&gt;Acetylornithine aminotransferase&lt;br&gt;Location: 134575 - 135859" locus_tag="cds134575_135859" class="clusterblast-orf" id="dummy-1_q1_0_all"  />
<polygon points="23,35 28,30 30,30 30,40 28,40 23,35 " style="fill:white; stroke-width:1; stroke:black; " description="&lt;b&gt;cds135855_136698&lt;/b&gt;&lt;br&gt;N-carbamoyl-D-amino acid hydrolase&lt;br&gt;Location: 135855 - 136698" locus_tag="cds135855_136698" class="clusterblast-orf" id="dummy-1_q2_0_all"  />
<polygon points="31,35 36,30 40,30 40,40 36,40 31,35 " style="fill:white; stroke-width:1; stroke:black; " description="&lt;b&gt;cds136835_137864&lt;/b&gt;&lt;br&gt;D-alanyl-D-alanine-carboxypeptidase/endopeptidase AmpH&lt;br&gt;Location: 136835 - 137864" locus_tag="cds136835_137864" class="clusterblast-orf" id="dummy-1_q3_0_all"  />
<polygon points="40,35 45,30 47,30 47,40 45,40 40,35 " style="fill:white; stroke-width:1; stroke:black; " description="&lt;b&gt;cds137868_138789&lt;/b&gt;&lt;br&gt;hypothetical protein&lt;br&gt;Location: 137868 - 138789" locus_tag="cds137868_138789" class="clusterblast-orf" id="dummy-1_q4_0_all"  />
<polygon points="47,35 52,30 54,30 54,40 52,40 47,35 " style="fill:white; stroke-width:1; stroke:black; " description="&lt;b&gt;cds138785_139517&lt;/b&gt;&lt;br&gt;hypothetical protein&lt;br&gt;Location: 138785 - 139517" locus_tag="cds138785_139517" class="clusterblast-orf" id="dummy-1_q5_0_all"  />
<polygon points="54,35 55,30 55,40 54,35 " style="fill:white; stroke-width:1; stroke:black; " description="&lt;b&gt;cds139513_139696&lt;/b&gt;&lt;br&gt;hypothetical protein&lt;br&gt;Location: 139513 - 139696" locus_tag="cds139513_139696" class="clusterblast-orf" id="dummy-1_q6_0_all"  />
<polygon points="56,35 61,30 68,30 68,40 61,40 56,35 " style="fill:white; stroke-width:1; stroke:black; " description="&lt;b&gt;cds139834_141184&lt;/b&gt;&lt;br&gt;hypothetical protein&lt;br&gt;Location: 139834 - 141184" locus_tag="cds139834_141184" class="clusterblast-orf" id="dummy-1_q7_0_all"  />
<polygon points="69,35 72,30 72,40 69,35 " style="fill:white; stroke-width:1; stroke:black; " description="&lt;b&gt;cds141320_141701&lt;/b&gt;&lt;br&gt;hypothetical protein&lt;br&gt;Location: 141320 - 141701" locus_tag="cds141320_141701" class="clusterblast-orf" id="dummy-1_q8_0_all"  />
<polygon points="72,35 75,30 75,40 72,35 " style="fill:white; stroke-width:1; stroke:black; " description="&lt;b&gt;cds141720_142014&lt;/b&gt;&lt;br&gt;hypothetical protein&lt;br&gt;Location: 141720 - 142014" locus_tag="cds141720_142014" class="clusterblast-orf" id="dummy-1_q9_0_all"  />
<polygon points="75,35 80,30 81,30 81,40 80,40 75,35 " style="fill:white; stroke-width:1; stroke:black; " description="&lt;b&gt;cds142120_142783&lt;/b&gt;&lt;br&gt;hypothetical protein&lt;br&gt;Location: 142120 - 142783" locus_tag="cds142120_142783" class="clusterblast-orf" id="dummy-1_q10_0_all"  />
<polygon points="83,35 88,30 98,30 98,40 88,40 83,35 " style="fill:white; stroke-width:1; stroke:black; " description="&lt;b&gt;cds142956_144762&lt;/b&gt;&lt;br&gt;Glutathione hydrolase proenzyme&lt;br&gt;Location: 142956 - 144762" locus_tag="cds142956_144762" class="clusterblast-orf" id="dummy-1_q11_0_all"  />
<polygon points="98,35 103,30 105,30 105,40 103,40 98,35 " style="fill:#d81515; stroke-width:1; stroke:black; " description="&lt;b&gt;cds144853_145621&lt;/b&gt;&lt;br&gt;Thioesterase PikA5&lt;br&gt;Location: 144853 - 145621" locus_tag="cds144853_145621" class="clusterblast-orf" id="dummy-1_q12_0_all"  />
<polygon points="106,35 111,30 111,30 111,40 111,40 106,35 " style="fill:#56d815; stroke-width:1; stroke:black; " description="&lt;b&gt;cds145747_146392&lt;/b&gt;&lt;br&gt;Transcriptional regulatory protein LnrK&lt;br&gt;Location: 145747 - 146392" locus_tag="cds145747_146392" class="clusterblast-orf" id="dummy-1_q13_0_all"  />
<polygon points="111,35 116,30 122,30 122,40 116,40 111,35 " style="fill:#1597d8; stroke-width:1; stroke:black; " description="&lt;b&gt;cds146355_147630&lt;/b&gt;&lt;br&gt;hypothetical protein&lt;br&gt;Location: 146355 - 147630" locus_tag="cds146355_147630" class="clusterblast-orf" id="dummy-1_q14_0_all"  />
<polygon points="123,35 128,30 144,30 144,40 128,40 123,35 " style="fill:#9715d8; stroke-width:1; stroke:black; " description="&lt;b&gt;cds147716_150227&lt;/b&gt;&lt;br&gt;hypothetical protein&lt;br&gt;Location: 147716 - 150227" locus_tag="cds147716_150227" class="clusterblast-orf" id="dummy-1_q15_0_all"  />
<polygon points="144,35 149,30 150,30 150,40 149,40 144,35 " style="fill:#d85615; stroke-width:1; stroke:black; " description="&lt;b&gt;cds150226_151030&lt;/b&gt;&lt;br&gt;Vitamin B12 import ATP-binding protein BtuD&lt;br&gt;Location: 150226 - 151030" locus_tag="cds150226_151030" class="clusterblast-orf" id="dummy-1_q16_0_all"  />
<polygon points="155,40 157,35 155,30 155,40 " style="fill:#15d815; stroke-width:1; stroke:black; " description="&lt;b&gt;cds151604_151853&lt;/b&gt;&lt;br&gt;hypothetical protein&lt;br&gt;Location: 151604 - 151853" locus_tag="cds151604_151853" class="clusterblast-orf" id="dummy-1_q17_0_all"  />
<polygon points="158,35 163,30 191,30 191,40 163,40 158,35 " style="fill:#1556d8; stroke-width:1; stroke:black; " description="&lt;b&gt;cds151956_155832&lt;/b&gt;&lt;br&gt;hypothetical protein&lt;br&gt;Location: 151956 - 155832" locus_tag="cds151956_155832" class="clusterblast-orf" id="dummy-1_q18_0_all"  />
<polygon points="191,35 196,30 321,30 321,40 196,40 191,35 " style="fill:#1556d8; stroke-width:1; stroke:black; " description="&lt;b&gt;cds155846_171317&lt;/b&gt;&lt;br&gt;hypothetical protein&lt;br&gt;Location: 155846 - 171317" locus_tag="cds155846_171317" class="clusterblast-orf" id="dummy-1_q19_0_all"  />
<polygon points="322,35 327,30 362,30 362,40 327,40 322,35 " style="fill:#1556d8; stroke-width:1; stroke:black; " description="&lt;b&gt;cds171384_176133&lt;/b&gt;&lt;br&gt;Narbonolide/10-deoxymethynolide synthase PikA3, module 5&lt;br&gt;Location: 171384 - 176133" locus_tag="cds171384_176133" class="clusterblast-orf" id="dummy-1_q20_0_all"  />
<polygon points="362,35 367,30 407,30 407,40 367,40 362,35 " style="fill:#1556d8; stroke-width:1; stroke:black; " description="&lt;b&gt;cds176132_181562&lt;/b&gt;&lt;br&gt;Narbonolide/10-deoxymethynolide synthase PikA1, modules 1 and 2&lt;br&gt;Location: 176132 - 181562" locus_tag="cds176132_181562" class="clusterblast-orf" id="dummy-1_q21_0_all"  />
<polygon points="413,40 431,40 436,35 431,30 413,30 413,40 " style="fill:#d815d8; stroke-width:1; stroke:black; " description="&lt;b&gt;cds182202_184983&lt;/b&gt;&lt;br&gt;hypothetical protein&lt;br&gt;Location: 182202 - 184983" locus_tag="cds182202_184983" class="clusterblast-orf" id="dummy-1_q22_0_all"  />
<polygon points="438,35 443,30 526,30 526,40 443,40 438,35 " style="fill:#1556d8; stroke-width:1; stroke:black; " description="&lt;b&gt;cds185197_195727&lt;/b&gt;&lt;br&gt;3-ketoacyl-CoA thiolase&lt;br&gt;Location: 185197 - 195727" locus_tag="cds185197_195727" class="clusterblast-orf" id="dummy-1_q23_0_all"  />
<polygon points="527,35 532,30 619,30 619,40 532,40 527,35 " style="fill:#1556d8; stroke-width:1; stroke:black; " description="&lt;b&gt;cds195852_206688&lt;/b&gt;&lt;br&gt;3-ketoacyl-CoA thiolase&lt;br&gt;Location: 195852 - 206688" locus_tag="cds195852_206688" class="clusterblast-orf" id="dummy-1_q24_0_all"  />
<polygon points="620,35 625,30 630,30 630,40 625,40 620,35 " style="fill:#d89715; stroke-width:1; stroke:black; " description="&lt;b&gt;cds206808_208062&lt;/b&gt;&lt;br&gt;Glutamate mutase epsilon subunit&lt;br&gt;Location: 206808 - 208062" locus_tag="cds206808_208062" class="clusterblast-orf" id="dummy-1_q25_0_all"  />
<polygon points="630,35 634,30 634,40 630,35 " style="fill:#15d856; stroke-width:1; stroke:black; " description="&lt;b&gt;cds208058_208508&lt;/b&gt;&lt;br&gt;Glutamate mutase sigma subunit&lt;br&gt;Location: 208058 - 208508" locus_tag="cds208058_208508" class="clusterblast-orf" id="dummy-1_q26_0_all"  />
<polygon points="634,35 639,30 644,30 644,40 639,40 634,35 " style="fill:#1515d8; stroke-width:1; stroke:black; " description="&lt;b&gt;cds208507_209746&lt;/b&gt;&lt;br&gt;L-glutamyl-[BtrI acyl-carrier protein] decarboxylase&lt;br&gt;Location: 208507 - 209746" locus_tag="cds208507_209746" class="clusterblast-orf" id="dummy-1_q27_0_all"  />
<polygon points="644,35 649,30 657,30 657,40 649,40 644,35 " style="fill:#d81597; stroke-width:1; stroke:black; " description="&lt;b&gt;cds209742_211269&lt;/b&gt;&lt;br&gt;Long-chain-fatty-acid--CoA ligase&lt;br&gt;Location: 209742 - 211269" locus_tag="cds209742_211269" class="clusterblast-orf" id="dummy-1_q28_0_all"  />
<polygon points="657,35 662,30 670,30 670,40 662,40 657,35 " style="fill:#d8d815; stroke-width:1; stroke:black; " description="&lt;b&gt;cds211265_212834&lt;/b&gt;&lt;br&gt;D-alanine--D-alanyl carrier protein ligase&lt;br&gt;Location: 211265 - 212834" locus_tag="cds211265_212834" class="clusterblast-orf" id="dummy-1_q29_0_all"  />
<polygon points="671,35 673,30 673,40 671,35 " style="fill:#15d897; stroke-width:1; stroke:black; " description="&lt;b&gt;cds212859_213111&lt;/b&gt;&lt;br&gt;hypothetical protein&lt;br&gt;Location: 212859 - 213111" locus_tag="cds212859_213111" class="clusterblast-orf" id="dummy-1_q30_0_all"  />
<polygon points="673,35 678,30 681,30 681,40 678,40 673,35 " style="fill:#5615d8; stroke-width:1; stroke:black; " description="&lt;b&gt;cds213154_214090&lt;/b&gt;&lt;br&gt;hypothetical protein&lt;br&gt;Location: 213154 - 214090" locus_tag="cds213154_214090" class="clusterblast-orf" id="dummy-1_q31_0_all"  />
<polygon points="681,35 686,30 689,30 689,40 686,40 681,35 " style="fill:#d81556; stroke-width:1; stroke:black; " description="&lt;b&gt;cds214155_215073&lt;/b&gt;&lt;br&gt;L-amino acid amidase&lt;br&gt;Location: 214155 - 215073" locus_tag="cds214155_215073" class="clusterblast-orf" id="dummy-1_q32_0_all"  />
<polygon points="692,40 698,40 703,35 698,30 692,30 692,40 " style="fill:#97d815; stroke-width:1; stroke:black; " description="&lt;b&gt;cds215433_216666&lt;/b&gt;&lt;br&gt;Cytochrome P450 105A3&lt;br&gt;Location: 215433 - 216666" locus_tag="cds215433_216666" class="clusterblast-orf" id="dummy-1_q33_0_all"  />
<polygon points="703,40 708,40 713,35 708,30 703,30 703,40 " style="fill:#97d815; stroke-width:1; stroke:black; " description="&lt;b&gt;cds216721_217957&lt;/b&gt;&lt;br&gt;Pentalenic acid synthase&lt;br&gt;Location: 216721 - 217957" locus_tag="cds216721_217957" class="clusterblast-orf" id="dummy-1_q34_0_all"  />
<polygon points="713,40 715,35 713,30 713,40 " style="fill:#15d8d8; stroke-width:1; stroke:black; " description="&lt;b&gt;cds217953_218175&lt;/b&gt;&lt;br&gt;Ferredoxin-1&lt;br&gt;Location: 217953 - 218175" locus_tag="cds217953_218175" class="clusterblast-orf" id="dummy-1_q35_0_all"  />
<polygon points="716,40 724,40 729,35 724,30 716,30 716,40 " style="fill:white; stroke-width:1; stroke:black; " description="&lt;b&gt;cds218289_219780&lt;/b&gt;&lt;br&gt;Methylmalonyl-CoA mutase large subunit&lt;br&gt;Location: 218289 - 219780" locus_tag="cds218289_219780" class="clusterblast-orf" id="dummy-1_q36_0_all"  />
<polygon points="729,35 734,30 736,30 736,40 734,40 729,35 " style="fill:white; stroke-width:1; stroke:black; " description="&lt;b&gt;cds219830_220703&lt;/b&gt;&lt;br&gt;3-phenylpropionate-dihydrodiol/cinnamic acid-dihydrodiol dehydrogenase&lt;br&gt;Location: 219830 - 220703" locus_tag="cds219830_220703" class="clusterblast-orf" id="dummy-1_q37_0_all"  />
<polygon points="738,40 741,35 738,30 738,40 " style="fill:white; stroke-width:1; stroke:black; " description="&lt;b&gt;cds220863_221250&lt;/b&gt;&lt;br&gt;hypothetical protein&lt;br&gt;Location: 220863 - 221250" locus_tag="cds220863_221250" class="clusterblast-orf" id="dummy-1_q38_0_all"  />
<polygon points="744,35 747,30 747,40 744,35 " style="fill:white; stroke-width:1; stroke:black; " description="&lt;b&gt;cds221642_221963&lt;/b&gt;&lt;br&gt;hypothetical protein&lt;br&gt;Location: 221642 - 221963" locus_tag="cds221642_221963" class="clusterblast-orf" id="dummy-1_q39_0_all"  />
<polygon points="748,35 753,30 759,30 759,40 753,40 748,35 " style="fill:white; stroke-width:1; stroke:black; " description="&lt;b&gt;cds222124_223399&lt;/b&gt;&lt;br&gt;hypothetical protein&lt;br&gt;Location: 222124 - 223399" locus_tag="cds222124_223399" class="clusterblast-orf" id="dummy-1_q40_0_all"  />
<polygon points="762,40 771,40 776,35 771,30 762,30 762,40 " style="fill:white; stroke-width:1; stroke:black; " description="&lt;b&gt;cds223695_225441&lt;/b&gt;&lt;br&gt;putative cytochrome c oxidase subunit 1&lt;br&gt;Location: 223695 - 225441" locus_tag="cds223695_225441" class="clusterblast-orf" id="dummy-1_q41_0_all"  />
<polygon points="776,40 780,35 776,30 776,40 " style="fill:white; stroke-width:1; stroke:black; " description="&lt;b&gt;cds225437_225827&lt;/b&gt;&lt;br&gt;hypothetical protein&lt;br&gt;Location: 225437 - 225827" locus_tag="cds225437_225827" class="clusterblast-orf" id="dummy-1_q42_0_all"  />
</g>
<g label="BGC0001908" description="BGC0001908_c1: sceliphrolactam (92% of genes show similarity), Polyketide" class="clusterblast-cluster"  >
<text x="5" y="70" class="clusterblast-acc"  >
<a xlink:href="https://mibig.secondarymetabolites.org/go/BGC0001908/1" target="_blank">BGC0001908</a>:                                                                  sceliphrolactam (92% of genes show similarity), Polyketide</text>
<line x1="10" y1="85" x2="778.0" y2="85" style="stroke-width:1; stroke:grey; "  />
</g>
<g id="a1_000"  >
<polygon points="76,85 81,80 81,80 81,90 81,90 76,85 " style="fill:#56d815; stroke-width:1; stroke:black; " description="&lt;b&gt;ANH11420.1&lt;/b&gt;&lt;br&gt;SceY&lt;br&gt;Location: 80518 - 79874&lt;br&gt;&lt;br&gt;&lt;b&gt;BlastP hit with cds145747_146392&lt;/b&gt;&lt;br&gt;Percentage identity: 86&lt;br&gt;Percentage coverage: 100&lt;br&gt;BLAST bit score: 351&lt;br&gt;E-value: 1e-96" locus_tag="ANH11420.1" class="clusterblast-orf" id="dummy-1_h1_2_0"  />
</g>
<g id="a1_001"  >
<polygon points="81,85 86,80 92,80 92,90 86,90 81,85 " style="fill:#1597d8; stroke-width:1; stroke:black; " description="&lt;b&gt;ANH11419.1&lt;/b&gt;&lt;br&gt;SceX&lt;br&gt;Location: 79910 - 78609&lt;br&gt;&lt;br&gt;&lt;b&gt;BlastP hit with cds146355_147630&lt;/b&gt;&lt;br&gt;Percentage identity: 67&lt;br&gt;Percentage coverage: 100&lt;br&gt;BLAST bit score: 532&lt;br&gt;E-value: 8.2e-151" locus_tag="ANH11419.1" class="clusterblast-orf" id="dummy-1_h1_2_1"  />
</g>
<g id="a1_002"  >
<polygon points="94,85 99,80 115,80 115,90 99,90 94,85 " style="fill:#9715d8; stroke-width:1; stroke:black; " description="&lt;b&gt;ANH11418.1&lt;/b&gt;&lt;br&gt;SceW&lt;br&gt;Location: 78426 - 75904&lt;br&gt;&lt;br&gt;&lt;b&gt;BlastP hit with cds147716_150227&lt;/b&gt;&lt;br&gt;Percentage identity: 67&lt;br&gt;Percentage coverage: 100&lt;br&gt;BLAST bit score: 1008&lt;br&gt;E-value: 4.5e-294" locus_tag="ANH11418.1" class="clusterblast-orf" id="dummy-1_h1_2_2"  />
</g>
<g id="a1_003"  >
<polygon points="115,85 120,80 122,80 122,90 120,90 115,85 " style="fill:#d85615; stroke-width:1; stroke:black; " description="&lt;b&gt;ANH11417.1&lt;/b&gt;&lt;br&gt;SceV&lt;br&gt;Location: 75904 - 75104&lt;br&gt;&lt;br&gt;&lt;b&gt;BlastP hit with cds150226_151030&lt;/b&gt;&lt;br&gt;Percentage identity: 78&lt;br&gt;Percentage coverage: 100&lt;br&gt;BLAST bit score: 397&lt;br&gt;E-value: 1.5e-110" locus_tag="ANH11417.1" class="clusterblast-orf" id="dummy-1_h1_2_3"  />
</g>
<g id="a1_004"  >
<polygon points="125,90 127,85 125,80 125,90 " style="fill:#15d815; stroke-width:1; stroke:black; " description="&lt;b&gt;ANH11416.1&lt;/b&gt;&lt;br&gt;SceU&lt;br&gt;Location: 74734 - 74489&lt;br&gt;&lt;br&gt;&lt;b&gt;BlastP hit with cds151604_151853&lt;/b&gt;&lt;br&gt;Percentage identity: 49&lt;br&gt;Percentage coverage: 89&lt;br&gt;BLAST bit score: 83&lt;br&gt;E-value: 1.9e-16" locus_tag="ANH11416.1" class="clusterblast-orf" id="dummy-1_h1_2_4"  />
</g>
<g id="a1_005"  >
<polygon points="127,85 132,80 160,80 160,90 132,90 127,85 " style="fill:#1556d8; stroke-width:1; stroke:black; " description="&lt;b&gt;ANH11415.1&lt;/b&gt;&lt;br&gt;SceT&lt;br&gt;Location: 74427 - 70543&lt;br&gt;&lt;br&gt;&lt;b&gt;BlastP hit with cds151956_155832&lt;/b&gt;&lt;br&gt;Percentage identity: 69&lt;br&gt;Percentage coverage: 100&lt;br&gt;BLAST bit score: 1697&lt;br&gt;E-value: 0.0&lt;br&gt;&lt;br&gt;&lt;b&gt;BlastP hit with cds171384_176133&lt;/b&gt;&lt;br&gt;Percentage identity: 60&lt;br&gt;Percentage coverage: 57&lt;br&gt;BLAST bit score: 1000&lt;br&gt;E-value: 4e-291&lt;br&gt;&lt;br&gt;&lt;b&gt;BlastP hit with cds176132_181562&lt;/b&gt;&lt;br&gt;Percentage identity: 55&lt;br&gt;Percentage coverage: 50&lt;br&gt;BLAST bit score: 884&lt;br&gt;E-value: 3.6e-256" locus_tag="ANH11415.1" class="clusterblast-orf" id="dummy-1_h1_2_5"  />
</g>
<g id="a1_006"  >
<polygon points="160,85 165,80 290,80 290,90 165,90 160,85 " style="fill:#1556d8; stroke-width:1; stroke:black; " description="&lt;b&gt;ANH11414.1&lt;/b&gt;&lt;br&gt;SceS&lt;br&gt;Location: 70528 - 55076&lt;br&gt;&lt;br&gt;&lt;b&gt;BlastP hit with cds151956_155832&lt;/b&gt;&lt;br&gt;Percentage identity: 65&lt;br&gt;Percentage coverage: 67&lt;br&gt;BLAST bit score: 1030&lt;br&gt;E-value: 2.2e-300&lt;br&gt;&lt;br&gt;&lt;b&gt;BlastP hit with cds155846_171317&lt;/b&gt;&lt;br&gt;Percentage identity: 71&lt;br&gt;Percentage coverage: 101&lt;br&gt;BLAST bit score: 6743&lt;br&gt;E-value: 0.0&lt;br&gt;&lt;br&gt;&lt;b&gt;BlastP hit with cds171384_176133&lt;/b&gt;&lt;br&gt;Percentage identity: 47&lt;br&gt;Percentage coverage: 110&lt;br&gt;BLAST bit score: 1263&lt;br&gt;E-value: 0.0&lt;br&gt;&lt;br&gt;&lt;b&gt;BlastP hit with cds176132_181562&lt;/b&gt;&lt;br&gt;Percentage identity: 54&lt;br&gt;Percentage coverage: 98&lt;br&gt;BLAST bit score: 1593&lt;br&gt;E-value: 0.0&lt;br&gt;&lt;br&gt;&lt;b&gt;BlastP hit with cds185197_195727&lt;/b&gt;&lt;br&gt;Percentage identity: 56&lt;br&gt;Percentage coverage: 98&lt;br&gt;BLAST bit score: 3325&lt;br&gt;E-value: 0.0&lt;br&gt;&lt;br&gt;&lt;b&gt;BlastP hit with cds195852_206688&lt;/b&gt;&lt;br&gt;Percentage identity: 50&lt;br&gt;Percentage coverage: 102&lt;br&gt;BLAST bit score: 2972&lt;br&gt;E-value: 0.0" locus_tag="ANH11414.1" class="clusterblast-orf" id="dummy-1_h1_2_6"  />
</g>
<g id="a1_007"  >
<polygon points="291,85 296,80 331,80 331,90 296,90 291,85 " style="fill:#1556d8; stroke-width:1; stroke:black; " description="&lt;b&gt;ANH11413.1&lt;/b&gt;&lt;br&gt;SceR&lt;br&gt;Location: 55008 - 50260&lt;br&gt;&lt;br&gt;&lt;b&gt;BlastP hit with cds151956_155832&lt;/b&gt;&lt;br&gt;Percentage identity: 58&lt;br&gt;Percentage coverage: 70&lt;br&gt;BLAST bit score: 956&lt;br&gt;E-value: 3.1e-278&lt;br&gt;&lt;br&gt;&lt;b&gt;BlastP hit with cds171384_176133&lt;/b&gt;&lt;br&gt;Percentage identity: 73&lt;br&gt;Percentage coverage: 101&lt;br&gt;BLAST bit score: 2204&lt;br&gt;E-value: 0.0&lt;br&gt;&lt;br&gt;&lt;b&gt;BlastP hit with cds195852_206688&lt;/b&gt;&lt;br&gt;Percentage identity: 46&lt;br&gt;Percentage coverage: 48&lt;br&gt;BLAST bit score: 1179&lt;br&gt;E-value: 0.0" locus_tag="ANH11413.1" class="clusterblast-orf" id="dummy-1_h1_2_7"  />
</g>
<g id="a1_008"  >
<polygon points="331,85 336,80 377,80 377,90 336,90 331,85 " style="fill:#1556d8; stroke-width:1; stroke:black; " description="&lt;b&gt;ANH11412.1&lt;/b&gt;&lt;br&gt;SceQ&lt;br&gt;Location: 50260 - 44786&lt;br&gt;&lt;br&gt;&lt;b&gt;BlastP hit with cds151956_155832&lt;/b&gt;&lt;br&gt;Percentage identity: 57&lt;br&gt;Percentage coverage: 72&lt;br&gt;BLAST bit score: 937&lt;br&gt;E-value: 2e-272&lt;br&gt;&lt;br&gt;&lt;b&gt;BlastP hit with cds176132_181562&lt;/b&gt;&lt;br&gt;Percentage identity: 66&lt;br&gt;Percentage coverage: 101&lt;br&gt;BLAST bit score: 2220&lt;br&gt;E-value: 0.0&lt;br&gt;&lt;br&gt;&lt;b&gt;BlastP hit with cds185197_195727&lt;/b&gt;&lt;br&gt;Percentage identity: 53&lt;br&gt;Percentage coverage: 52&lt;br&gt;BLAST bit score: 1592&lt;br&gt;E-value: 0.0&lt;br&gt;&lt;br&gt;&lt;b&gt;BlastP hit with cds195852_206688&lt;/b&gt;&lt;br&gt;Percentage identity: 56&lt;br&gt;Percentage coverage: 50&lt;br&gt;BLAST bit score: 1733&lt;br&gt;E-value: 0.0" locus_tag="ANH11412.1" class="clusterblast-orf" id="dummy-1_h1_2_8"  />
</g>
<g id="a1_009"  >
<polygon points="381,90 399,90 404,85 399,80 381,80 381,90 " style="fill:#d815d8; stroke-width:1; stroke:black; " description="&lt;b&gt;ANH11411.1&lt;/b&gt;&lt;br&gt;SceP&lt;br&gt;Location: 44278 - 41498&lt;br&gt;&lt;br&gt;&lt;b&gt;BlastP hit with cds182202_184983&lt;/b&gt;&lt;br&gt;Percentage identity: 55&lt;br&gt;Percentage coverage: 101&lt;br&gt;BLAST bit score: 895&lt;br&gt;E-value: 8.1e-260" locus_tag="ANH11411.1" class="clusterblast-orf" id="dummy-1_h1_2_9"  />
</g>
<g id="a1_0010"  >
<polygon points="405,85 410,80 493,80 493,90 410,90 405,85 " style="fill:#1556d8; stroke-width:1; stroke:black; " description="&lt;b&gt;ANH11410.1&lt;/b&gt;&lt;br&gt;SceO&lt;br&gt;Location: 41427 - 30901&lt;br&gt;&lt;br&gt;&lt;b&gt;BlastP hit with cds151956_155832&lt;/b&gt;&lt;br&gt;Percentage identity: 60&lt;br&gt;Percentage coverage: 69&lt;br&gt;BLAST bit score: 933&lt;br&gt;E-value: 4.9e-271&lt;br&gt;&lt;br&gt;&lt;b&gt;BlastP hit with cds155846_171317&lt;/b&gt;&lt;br&gt;Percentage identity: 54&lt;br&gt;Percentage coverage: 69&lt;br&gt;BLAST bit score: 3200&lt;br&gt;E-value: 0.0&lt;br&gt;&lt;br&gt;&lt;b&gt;BlastP hit with cds171384_176133&lt;/b&gt;&lt;br&gt;Percentage identity: 46&lt;br&gt;Percentage coverage: 113&lt;br&gt;BLAST bit score: 1201&lt;br&gt;E-value: 0.0&lt;br&gt;&lt;br&gt;&lt;b&gt;BlastP hit with cds176132_181562&lt;/b&gt;&lt;br&gt;Percentage identity: 54&lt;br&gt;Percentage coverage: 101&lt;br&gt;BLAST bit score: 1601&lt;br&gt;E-value: 0.0&lt;br&gt;&lt;br&gt;&lt;b&gt;BlastP hit with cds185197_195727&lt;/b&gt;&lt;br&gt;Percentage identity: 70&lt;br&gt;Percentage coverage: 101&lt;br&gt;BLAST bit score: 4553&lt;br&gt;E-value: 0.0&lt;br&gt;&lt;br&gt;&lt;b&gt;BlastP hit with cds195852_206688&lt;/b&gt;&lt;br&gt;Percentage identity: 51&lt;br&gt;Percentage coverage: 98&lt;br&gt;BLAST bit score: 2934&lt;br&gt;E-value: 0.0" locus_tag="ANH11410.1" class="clusterblast-orf" id="dummy-1_h1_2_10"  />
</g>
<g id="a1_0011"  >
<polygon points="494,85 499,80 585,80 585,90 499,90 494,85 " style="fill:#1556d8; stroke-width:1; stroke:black; " description="&lt;b&gt;ANH11409.1&lt;/b&gt;&lt;br&gt;SceN&lt;br&gt;Location: 30881 - 20001&lt;br&gt;&lt;br&gt;&lt;b&gt;BlastP hit with cds151956_155832&lt;/b&gt;&lt;br&gt;Percentage identity: 64&lt;br&gt;Percentage coverage: 69&lt;br&gt;BLAST bit score: 1007&lt;br&gt;E-value: 2e-293&lt;br&gt;&lt;br&gt;&lt;b&gt;BlastP hit with cds155846_171317&lt;/b&gt;&lt;br&gt;Percentage identity: 52&lt;br&gt;Percentage coverage: 70&lt;br&gt;BLAST bit score: 3038&lt;br&gt;E-value: 0.0&lt;br&gt;&lt;br&gt;&lt;b&gt;BlastP hit with cds171384_176133&lt;/b&gt;&lt;br&gt;Percentage identity: 46&lt;br&gt;Percentage coverage: 113&lt;br&gt;BLAST bit score: 1210&lt;br&gt;E-value: 0.0&lt;br&gt;&lt;br&gt;&lt;b&gt;BlastP hit with cds176132_181562&lt;/b&gt;&lt;br&gt;Percentage identity: 55&lt;br&gt;Percentage coverage: 100&lt;br&gt;BLAST bit score: 1676&lt;br&gt;E-value: 0.0&lt;br&gt;&lt;br&gt;&lt;b&gt;BlastP hit with cds185197_195727&lt;/b&gt;&lt;br&gt;Percentage identity: 52&lt;br&gt;Percentage coverage: 99&lt;br&gt;BLAST bit score: 3030&lt;br&gt;E-value: 0.0&lt;br&gt;&lt;br&gt;&lt;b&gt;BlastP hit with cds195852_206688&lt;/b&gt;&lt;br&gt;Percentage identity: 68&lt;br&gt;Percentage coverage: 102&lt;br&gt;BLAST bit score: 4532&lt;br&gt;E-value: 0.0" locus_tag="ANH11409.1" class="clusterblast-orf" id="dummy-1_h1_2_11"  />
</g>
<g id="a1_0012"  >
<polygon points="586,85 591,80 597,80 597,90 591,90 586,85 " style="fill:#d89715; stroke-width:1; stroke:black; " description="&lt;b&gt;ANH11408.1&lt;/b&gt;&lt;br&gt;SceM&lt;br&gt;Location: 19918 - 18620&lt;br&gt;&lt;br&gt;&lt;b&gt;BlastP hit with cds206808_208062&lt;/b&gt;&lt;br&gt;Percentage identity: 69&lt;br&gt;Percentage coverage: 98&lt;br&gt;BLAST bit score: 556&lt;br&gt;E-value: 4e-158" locus_tag="ANH11408.1" class="clusterblast-orf" id="dummy-1_h1_2_12"  />
</g>
<g id="a1_0013"  >
<polygon points="597,85 601,80 601,90 597,85 " style="fill:#15d856; stroke-width:1; stroke:black; " description="&lt;b&gt;ANH11407.1&lt;/b&gt;&lt;br&gt;SceL&lt;br&gt;Location: 18623 - 18132&lt;br&gt;&lt;br&gt;&lt;b&gt;BlastP hit with cds208058_208508&lt;/b&gt;&lt;br&gt;Percentage identity: 66&lt;br&gt;Percentage coverage: 95&lt;br&gt;BLAST bit score: 190&lt;br&gt;E-value: 2.1e-48" locus_tag="ANH11407.1" class="clusterblast-orf" id="dummy-1_h1_2_13"  />
</g>
<g id="a1_0014"  >
<polygon points="601,85 606,80 611,80 611,90 606,90 601,85 " style="fill:#1515d8; stroke-width:1; stroke:black; " description="&lt;b&gt;ANH11406.1&lt;/b&gt;&lt;br&gt;MacK&lt;br&gt;Location: 18135 - 16894&lt;br&gt;&lt;br&gt;&lt;b&gt;BlastP hit with cds208507_209746&lt;/b&gt;&lt;br&gt;Percentage identity: 72&lt;br&gt;Percentage coverage: 100&lt;br&gt;BLAST bit score: 592&lt;br&gt;E-value: 5e-169" locus_tag="ANH11406.1" class="clusterblast-orf" id="dummy-1_h1_2_14"  />
</g>
<g id="a1_0015"  >
<polygon points="611,85 616,80 624,80 624,90 616,90 611,85 " style="fill:#d81597; stroke-width:1; stroke:black; " description="&lt;b&gt;ANH11405.1&lt;/b&gt;&lt;br&gt;SceJ&lt;br&gt;Location: 16897 - 15359&lt;br&gt;&lt;br&gt;&lt;b&gt;BlastP hit with cds209742_211269&lt;/b&gt;&lt;br&gt;Percentage identity: 69&lt;br&gt;Percentage coverage: 100&lt;br&gt;BLAST bit score: 698&lt;br&gt;E-value: 7.9e-201" locus_tag="ANH11405.1" class="clusterblast-orf" id="dummy-1_h1_2_15"  />
</g>
<g id="a1_0016"  >
<polygon points="625,85 630,80 637,80 637,90 630,90 625,85 " style="fill:#d8d815; stroke-width:1; stroke:black; " description="&lt;b&gt;ANH11404.1&lt;/b&gt;&lt;br&gt;SceI&lt;br&gt;Location: 15304 - 13778&lt;br&gt;&lt;br&gt;&lt;b&gt;BlastP hit with cds211265_212834&lt;/b&gt;&lt;br&gt;Percentage identity: 72&lt;br&gt;Percentage coverage: 96&lt;br&gt;BLAST bit score: 723&lt;br&gt;E-value: 2.4e-208" locus_tag="ANH11404.1" class="clusterblast-orf" id="dummy-1_h1_2_16"  />
</g>
<g id="a1_0017"  >
<polygon points="638,85 640,80 640,90 638,85 " style="fill:#15d897; stroke-width:1; stroke:black; " description="&lt;b&gt;ANH11403.1&lt;/b&gt;&lt;br&gt;SceH&lt;br&gt;Location: 13756 - 13493&lt;br&gt;&lt;br&gt;&lt;b&gt;BlastP hit with cds212859_213111&lt;/b&gt;&lt;br&gt;Percentage identity: 64&lt;br&gt;Percentage coverage: 93&lt;br&gt;BLAST bit score: 106&lt;br&gt;E-value: 1.7e-23" locus_tag="ANH11403.1" class="clusterblast-orf" id="dummy-1_h1_2_17"  />
</g>
<g id="a1_0018"  >
<polygon points="640,85 645,80 648,80 648,90 645,90 640,85 " style="fill:#5615d8; stroke-width:1; stroke:black; " description="&lt;b&gt;ANH11402.1&lt;/b&gt;&lt;br&gt;SceG&lt;br&gt;Location: 13479 - 12535&lt;br&gt;&lt;br&gt;&lt;b&gt;BlastP hit with cds213154_214090&lt;/b&gt;&lt;br&gt;Percentage identity: 69&lt;br&gt;Percentage coverage: 100&lt;br&gt;BLAST bit score: 439&lt;br&gt;E-value: 5.3e-123" locus_tag="ANH11402.1" class="clusterblast-orf" id="dummy-1_h1_2_18"  />
</g>
<g id="a1_0019"  >
<polygon points="648,85 653,80 656,80 656,90 653,90 648,85 " style="fill:#d81556; stroke-width:1; stroke:black; " description="&lt;b&gt;ANH11401.1&lt;/b&gt;&lt;br&gt;SceF&lt;br&gt;Location: 12510 - 11614&lt;br&gt;&lt;br&gt;&lt;b&gt;BlastP hit with cds214155_215073&lt;/b&gt;&lt;br&gt;Percentage identity: 74&lt;br&gt;Percentage coverage: 96&lt;br&gt;BLAST bit score: 484&lt;br&gt;E-value: 1.4e-136" locus_tag="ANH11401.1" class="clusterblast-orf" id="dummy-1_h1_2_19"  />
</g>
<g id="a1_0020"  >
<polygon points="658,90 663,90 668,85 663,80 658,80 658,90 " style="fill:#97d815; stroke-width:1; stroke:black; " description="&lt;b&gt;ANH11400.1&lt;/b&gt;&lt;br&gt;SceE&lt;br&gt;Location: 11372 - 10158&lt;br&gt;&lt;br&gt;&lt;b&gt;BlastP hit with cds215433_216666&lt;/b&gt;&lt;br&gt;Percentage identity: 77&lt;br&gt;Percentage coverage: 100&lt;br&gt;BLAST bit score: 624&lt;br&gt;E-value: 1.5e-178&lt;br&gt;&lt;br&gt;&lt;b&gt;BlastP hit with cds216721_217957&lt;/b&gt;&lt;br&gt;Percentage identity: 72&lt;br&gt;Percentage coverage: 97&lt;br&gt;BLAST bit score: 592&lt;br&gt;E-value: 6.5e-169" locus_tag="ANH11400.1" class="clusterblast-orf" id="dummy-1_h1_2_20"  />
</g>
<g id="a1_0021"  >
<polygon points="668,90 673,90 678,85 673,80 668,80 668,90 " style="fill:#97d815; stroke-width:1; stroke:black; " description="&lt;b&gt;ANH11399.1&lt;/b&gt;&lt;br&gt;SceD&lt;br&gt;Location: 10122 - 8902&lt;br&gt;&lt;br&gt;&lt;b&gt;BlastP hit with cds215433_216666&lt;/b&gt;&lt;br&gt;Percentage identity: 67&lt;br&gt;Percentage coverage: 100&lt;br&gt;BLAST bit score: 549&lt;br&gt;E-value: 3.7e-156&lt;br&gt;&lt;br&gt;&lt;b&gt;BlastP hit with cds216721_217957&lt;/b&gt;&lt;br&gt;Percentage identity: 81&lt;br&gt;Percentage coverage: 100&lt;br&gt;BLAST bit score: 671&lt;br&gt;E-value: 1.1e-192" locus_tag="ANH11399.1" class="clusterblast-orf" id="dummy-1_h1_2_21"  />
</g>
<g id="a1_0022"  >
<polygon points="678,90 680,85 678,80 678,90 " style="fill:#15d8d8; stroke-width:1; stroke:black; " description="&lt;b&gt;ANH11398.1&lt;/b&gt;&lt;br&gt;SceC&lt;br&gt;Location: 8905 - 8684&lt;br&gt;&lt;br&gt;&lt;b&gt;BlastP hit with cds217953_218175&lt;/b&gt;&lt;br&gt;Percentage identity: 57&lt;br&gt;Percentage coverage: 95&lt;br&gt;BLAST bit score: 83&lt;br&gt;E-value: 1.7e-16" locus_tag="ANH11398.1" class="clusterblast-orf" id="dummy-1_h1_2_22"  />
</g>
<g id="a1_0023"  >
<polygon points="680,90 685,90 690,85 685,80 680,80 680,90 " style="fill:white; stroke-width:1; stroke:black; " description="&lt;b&gt;ANH11397.1&lt;/b&gt;&lt;br&gt;SceB&lt;br&gt;Location: 8672 - 7518" locus_tag="ANH11397.1" class="clusterblast-orf" id="dummy-1_h1_2_23"  />
</g>
<g id="a1_0024"  >
<polygon points="691,90 698,90 703,85 698,80 691,80 691,90 " style="fill:white; stroke-width:1; stroke:black; " description="&lt;b&gt;ANH11396.1&lt;/b&gt;&lt;br&gt;SceA&lt;br&gt;Location: 7351 - 5981" locus_tag="ANH11396.1" class="clusterblast-orf" id="dummy-1_h1_2_24"  />
</g>
</svg>
