<svg xmlns="http://www.w3.org/2000/svg" xmlns:xlink="http://www.w3.org/1999/xlink" version="1.1" x="0" y="0" height="230" width="800" viewBox="0 0 800 230" preserveAspectRatio="none"  >
<g label="Query sequence" class="clusterblast-cluster"  >
<text x="5" y="20" class="clusterblast-acc"  >
Query sequence</text>
<line x1="10" y1="35" x2="778.0" y2="35" style="stroke-width:1; stroke:grey; "  />
<polygon points="88,35 93,30 104,30 104,40 93,40 88,35 " style="fill:white; stroke-width:1; stroke:black; " description="&lt;b&gt;cds164_1667&lt;/b&gt;&lt;br&gt;Catalase&lt;br&gt;Location: 164 - 1667" locus_tag="cds164_1667" class="clusterblast-orf" id="dummy-1_q0_0_all"  />
<polygon points="103,35 108,30 108,30 108,40 108,40 103,35 " style="fill:white; stroke-width:1; stroke:black; " description="&lt;b&gt;cds1629_2067&lt;/b&gt;&lt;br&gt;Transcriptional regulator FurA&lt;br&gt;Location: 1629 - 2067" locus_tag="cds1629_2067" class="clusterblast-orf" id="dummy-1_q1_0_all"  />
<polygon points="110,40 121,40 126,35 121,30 110,30 110,40 " style="fill:white; stroke-width:1; stroke:black; " description="&lt;b&gt;cds2242_3730&lt;/b&gt;&lt;br&gt;putative bifunctional transcriptional activator/DNA repair enzyme AlkA&lt;br&gt;Location: 2242 - 3730" locus_tag="cds2242_3730" class="clusterblast-orf" id="dummy-1_q2_0_all"  />
<polygon points="127,40 128,40 133,35 128,30 127,30 127,40 " style="fill:white; stroke-width:1; stroke:black; " description="&lt;b&gt;cds3811_4321&lt;/b&gt;&lt;br&gt;Methylated-DNA--protein-cysteine methyltransferase&lt;br&gt;Location: 3811 - 4321" locus_tag="cds3811_4321" class="clusterblast-orf" id="dummy-1_q3_0_all"  />
<polygon points="135,40 135,40 140,35 135,30 135,30 135,40 " style="fill:white; stroke-width:1; stroke:black; " description="&lt;b&gt;cds4523_5027&lt;/b&gt;&lt;br&gt;hypothetical protein&lt;br&gt;Location: 4523 - 5027" locus_tag="cds4523_5027" class="clusterblast-orf" id="dummy-1_q4_0_all"  />
<polygon points="140,40 151,40 156,35 151,30 140,30 140,40 " style="fill:white; stroke-width:1; stroke:black; " description="&lt;b&gt;cds5026_6454&lt;/b&gt;&lt;br&gt;hypothetical protein&lt;br&gt;Location: 5026 - 6454" locus_tag="cds5026_6454" class="clusterblast-orf" id="dummy-1_q5_0_all"  />
<polygon points="156,40 166,40 171,35 166,30 156,30 156,40 " style="fill:white; stroke-width:1; stroke:black; " description="&lt;b&gt;cds6450_7866&lt;/b&gt;&lt;br&gt;hypothetical protein&lt;br&gt;Location: 6450 - 7866" locus_tag="cds6450_7866" class="clusterblast-orf" id="dummy-1_q6_0_all"  />
<polygon points="171,40 178,40 183,35 178,30 171,30 171,40 " style="fill:white; stroke-width:1; stroke:black; " description="&lt;b&gt;cds7916_9029&lt;/b&gt;&lt;br&gt;putative protein YehL&lt;br&gt;Location: 7916 - 9029" locus_tag="cds7916_9029" class="clusterblast-orf" id="dummy-1_q7_0_all"  />
<polygon points="183,40 209,40 214,35 209,30 183,30 183,40 " style="fill:white; stroke-width:1; stroke:black; " description="&lt;b&gt;cds9025_11821&lt;/b&gt;&lt;br&gt;hypothetical protein&lt;br&gt;Location: 9025 - 11821" locus_tag="cds9025_11821" class="clusterblast-orf" id="dummy-1_q8_0_all"  />
<polygon points="216,40 228,40 233,35 228,30 216,30 216,40 " style="fill:white; stroke-width:1; stroke:black; " description="&lt;b&gt;cds12033_13605&lt;/b&gt;&lt;br&gt;Proline/betaine transporter&lt;br&gt;Location: 12033 - 13605" locus_tag="cds12033_13605" class="clusterblast-orf" id="dummy-1_q9_0_all"  />
<polygon points="238,40 241,35 238,30 238,40 " style="fill:#d81515; stroke-width:1; stroke:black; " description="&lt;b&gt;cds14120_14339&lt;/b&gt;&lt;br&gt;Protein MbtH&lt;br&gt;Location: 14120 - 14339" locus_tag="cds14120_14339" class="clusterblast-orf" id="dummy-1_q10_0_all"  />
<polygon points="245,40 397,40 402,35 397,30 245,30 245,40 " style="fill:#15d8d8; stroke-width:1; stroke:black; " description="&lt;b&gt;cds14742_29220&lt;/b&gt;&lt;br&gt;Tyrocidine synthase 3&lt;br&gt;Location: 14742 - 29220" locus_tag="cds14742_29220" class="clusterblast-orf" id="dummy-1_q11_0_all"  />
<polygon points="402,40 478,40 483,35 478,30 402,30 402,40 " style="fill:#15d8d8; stroke-width:1; stroke:black; " description="&lt;b&gt;cds29216_36776&lt;/b&gt;&lt;br&gt;Linear gramicidin synthase subunit D&lt;br&gt;Location: 29216 - 36776" locus_tag="cds29216_36776" class="clusterblast-orf" id="dummy-1_q12_0_all"  />
<polygon points="484,40 484,40 489,35 484,30 484,30 484,40 " style="fill:white; stroke-width:1; stroke:black; " description="&lt;b&gt;cds36821_37274&lt;/b&gt;&lt;br&gt;hypothetical protein&lt;br&gt;Location: 36821 - 37274" locus_tag="cds36821_37274" class="clusterblast-orf" id="dummy-1_q13_0_all"  />
<polygon points="490,40 496,40 501,35 496,30 490,30 490,40 " style="fill:white; stroke-width:1; stroke:black; " description="&lt;b&gt;cds37373_38432&lt;/b&gt;&lt;br&gt;hypothetical protein&lt;br&gt;Location: 37373 - 38432" locus_tag="cds37373_38432" class="clusterblast-orf" id="dummy-1_q14_0_all"  />
<polygon points="504,40 511,40 516,35 511,30 504,30 504,40 " style="fill:white; stroke-width:1; stroke:black; " description="&lt;b&gt;cds38713_39781&lt;/b&gt;&lt;br&gt;hypothetical protein&lt;br&gt;Location: 38713 - 39781" locus_tag="cds38713_39781" class="clusterblast-orf" id="dummy-1_q15_0_all"  />
<polygon points="516,35 518,30 518,40 516,35 " style="fill:white; stroke-width:1; stroke:black; " description="&lt;b&gt;cds39842_40028&lt;/b&gt;&lt;br&gt;hypothetical protein&lt;br&gt;Location: 39842 - 40028" locus_tag="cds39842_40028" class="clusterblast-orf" id="dummy-1_q16_0_all"  />
<polygon points="518,35 522,30 522,40 518,35 " style="fill:white; stroke-width:1; stroke:black; " description="&lt;b&gt;cds40024_40312&lt;/b&gt;&lt;br&gt;hypothetical protein&lt;br&gt;Location: 40024 - 40312" locus_tag="cds40024_40312" class="clusterblast-orf" id="dummy-1_q17_0_all"  />
<polygon points="523,35 528,30 528,30 528,40 528,40 523,35 " style="fill:white; stroke-width:1; stroke:black; " description="&lt;b&gt;cds40480_40894&lt;/b&gt;&lt;br&gt;hypothetical protein&lt;br&gt;Location: 40480 - 40894" locus_tag="cds40480_40894" class="clusterblast-orf" id="dummy-1_q18_0_all"  />
<polygon points="535,35 540,30 543,30 543,40 540,40 535,35 " style="fill:white; stroke-width:1; stroke:black; " description="&lt;b&gt;cds41582_42332&lt;/b&gt;&lt;br&gt;Glucose 1-dehydrogenase&lt;br&gt;Location: 41582 - 42332" locus_tag="cds41582_42332" class="clusterblast-orf" id="dummy-1_q19_0_all"  />
<polygon points="545,40 546,40 551,35 546,30 545,30 545,40 " style="fill:white; stroke-width:1; stroke:black; " description="&lt;b&gt;cds42498_43035&lt;/b&gt;&lt;br&gt;HTH-type transcriptional repressor ComR&lt;br&gt;Location: 42498 - 43035" locus_tag="cds42498_43035" class="clusterblast-orf" id="dummy-1_q20_0_all"  />
<polygon points="552,35 557,30 563,30 563,40 557,40 552,35 " style="fill:white; stroke-width:1; stroke:black; " description="&lt;b&gt;cds43100_44174&lt;/b&gt;&lt;br&gt;N-ethylmaleimide reductase&lt;br&gt;Location: 43100 - 44174" locus_tag="cds43100_44174" class="clusterblast-orf" id="dummy-1_q21_0_all"  />
<polygon points="565,40 565,40 570,35 565,30 565,30 565,40 " style="fill:white; stroke-width:1; stroke:black; " description="&lt;b&gt;cds44329_44761&lt;/b&gt;&lt;br&gt;Mercuric resistance operon regulatory protein&lt;br&gt;Location: 44329 - 44761" locus_tag="cds44329_44761" class="clusterblast-orf" id="dummy-1_q22_0_all"  />
<polygon points="571,35 576,30 582,30 582,40 576,40 571,35 " style="fill:white; stroke-width:1; stroke:black; " description="&lt;b&gt;cds44928_45888&lt;/b&gt;&lt;br&gt;N-acetylmannosamine kinase&lt;br&gt;Location: 44928 - 45888" locus_tag="cds44928_45888" class="clusterblast-orf" id="dummy-1_q23_0_all"  />
<polygon points="592,40 602,40 607,35 602,30 592,30 592,40 " style="fill:white; stroke-width:1; stroke:black; " description="&lt;b&gt;cds46880_48188&lt;/b&gt;&lt;br&gt;Mannan endo-1,4-beta-mannosidase&lt;br&gt;Location: 46880 - 48188" locus_tag="cds46880_48188" class="clusterblast-orf" id="dummy-1_q24_0_all"  />
<polygon points="607,35 611,30 611,40 607,35 " style="fill:white; stroke-width:1; stroke:black; " description="&lt;b&gt;cds48212_48611&lt;/b&gt;&lt;br&gt;hypothetical protein&lt;br&gt;Location: 48212 - 48611" locus_tag="cds48212_48611" class="clusterblast-orf" id="dummy-1_q25_0_all"  />
<polygon points="611,35 616,30 616,30 616,40 616,40 611,35 " style="fill:white; stroke-width:1; stroke:black; " description="&lt;b&gt;cds48624_49035&lt;/b&gt;&lt;br&gt;hypothetical protein&lt;br&gt;Location: 48624 - 49035" locus_tag="cds48624_49035" class="clusterblast-orf" id="dummy-1_q26_0_all"  />
<polygon points="616,40 621,40 626,35 621,30 616,30 616,40 " style="fill:white; stroke-width:1; stroke:black; " description="&lt;b&gt;cds49084_49969&lt;/b&gt;&lt;br&gt;hypothetical protein&lt;br&gt;Location: 49084 - 49969" locus_tag="cds49084_49969" class="clusterblast-orf" id="dummy-1_q27_0_all"  />
<polygon points="629,35 634,30 638,30 638,40 634,40 629,35 " style="fill:white; stroke-width:1; stroke:black; " description="&lt;b&gt;cds50256_51051&lt;/b&gt;&lt;br&gt;2,5-dichloro-2,5-cyclohexadiene-1,4-diol dehydrogenase&lt;br&gt;Location: 50256 - 51051" locus_tag="cds50256_51051" class="clusterblast-orf" id="dummy-1_q28_0_all"  />
<polygon points="639,40 641,40 646,35 641,30 639,30 639,40 " style="fill:white; stroke-width:1; stroke:black; " description="&lt;b&gt;cds51229_51832&lt;/b&gt;&lt;br&gt;HTH-type transcriptional repressor ComR&lt;br&gt;Location: 51229 - 51832" locus_tag="cds51229_51832" class="clusterblast-orf" id="dummy-1_q29_0_all"  />
<polygon points="648,35 653,30 658,30 658,40 653,40 648,35 " style="fill:white; stroke-width:1; stroke:black; " description="&lt;b&gt;cds52033_52969&lt;/b&gt;&lt;br&gt;Haloalkane dehalogenase&lt;br&gt;Location: 52033 - 52969" locus_tag="cds52033_52969" class="clusterblast-orf" id="dummy-1_q30_0_all"  />
<polygon points="667,40 670,40 675,35 670,30 667,30 667,40 " style="fill:white; stroke-width:1; stroke:black; " description="&lt;b&gt;cds53803_54529&lt;/b&gt;&lt;br&gt;Endo-1,4-beta-xylanase C&lt;br&gt;Location: 53803 - 54529" locus_tag="cds53803_54529" class="clusterblast-orf" id="dummy-1_q31_0_all"  />
<polygon points="677,35 679,30 679,40 677,35 " style="fill:white; stroke-width:1; stroke:black; " description="&lt;b&gt;cds54707_54929&lt;/b&gt;&lt;br&gt;hypothetical protein&lt;br&gt;Location: 54707 - 54929" locus_tag="cds54707_54929" class="clusterblast-orf" id="dummy-1_q32_0_all"  />
<polygon points="680,35 685,30 692,30 692,40 685,40 680,35 " style="fill:white; stroke-width:1; stroke:black; " description="&lt;b&gt;cds55021_56050&lt;/b&gt;&lt;br&gt;HTH-type transcriptional regulator DegA&lt;br&gt;Location: 55021 - 56050" locus_tag="cds55021_56050" class="clusterblast-orf" id="dummy-1_q33_0_all"  />
</g>
<g label="BGC0001233" description="BGC0001233_c1: feglymycin (10% of genes show similarity), NRP" class="clusterblast-cluster"  >
<text x="5" y="70" class="clusterblast-acc"  >
<a xlink:href="https://mibig.secondarymetabolites.org/go/BGC0001233/1" target="_blank">BGC0001233</a>:                                                                       feglymycin (10% of genes show similarity), NRP</text>
<line x1="10" y1="85" x2="778.0" y2="85" style="stroke-width:1; stroke:grey; "  />
</g>
<g id="a1_000"  >
<polygon points="0,90 6,90 11,85 6,80 0,80 0,90 " style="fill:white; stroke-width:1; stroke:black; " description="&lt;b&gt;ALK27898.1&lt;/b&gt;&lt;br&gt;putative 3-deoxy-D-arabinoseheptulosonate 7-phosphate synthase&lt;br&gt;Location: 1 - 1068" locus_tag="ALK27898.1" class="clusterblast-orf" id="dummy-1_h1_10_0"  />
</g>
<g id="a1_001"  >
<polygon points="15,90 21,90 26,85 21,80 15,80 15,90 " style="fill:white; stroke-width:1; stroke:black; " description="&lt;b&gt;ALK27899.1&lt;/b&gt;&lt;br&gt;putative transcriptional regulator&lt;br&gt;Location: 1431 - 2438" locus_tag="ALK27899.1" class="clusterblast-orf" id="dummy-1_h1_10_1"  />
</g>
<g id="a1_002"  >
<polygon points="28,85 33,80 40,80 40,90 33,90 28,85 " style="fill:white; stroke-width:1; stroke:black; " description="&lt;b&gt;ALK27900.1&lt;/b&gt;&lt;br&gt;hydroxymandelate oxidase&lt;br&gt;Location: 2638 - 3777" locus_tag="ALK27900.1" class="clusterblast-orf" id="dummy-1_h1_10_2"  />
</g>
<g id="a1_003"  >
<polygon points="40,85 45,80 52,80 52,90 45,90 40,85 " style="fill:white; stroke-width:1; stroke:black; " description="&lt;b&gt;ALK27901.1&lt;/b&gt;&lt;br&gt;putative hydroxymandelate synthase&lt;br&gt;Location: 3761 - 4861" locus_tag="ALK27901.1" class="clusterblast-orf" id="dummy-1_h1_10_3"  />
</g>
<g id="a1_004"  >
<polygon points="54,90 62,90 67,85 62,80 54,80 54,90 " style="fill:white; stroke-width:1; stroke:black; " description="&lt;b&gt;ALK27902.1&lt;/b&gt;&lt;br&gt;putative prephenate dehydrogenase&lt;br&gt;Location: 5029 - 6225" locus_tag="ALK27902.1" class="clusterblast-orf" id="dummy-1_h1_10_4"  />
</g>
<g id="a1_005"  >
<polygon points="70,90 97,90 102,85 97,80 70,80 70,90 " style="fill:white; stroke-width:1; stroke:black; " description="&lt;b&gt;ALK27903.1&lt;/b&gt;&lt;br&gt;putative LuxR regulatory protein&lt;br&gt;Location: 6554 - 9463" locus_tag="ALK27903.1" class="clusterblast-orf" id="dummy-1_h1_10_5"  />
</g>
<g id="a1_006"  >
<polygon points="103,90 123,90 128,85 123,80 103,80 103,90 " style="fill:white; stroke-width:1; stroke:black; " description="&lt;b&gt;ALK27904.1&lt;/b&gt;&lt;br&gt;putative hydroxyphenylglycine aminotransferase/hydroxymandelate oxidase fusion protein&lt;br&gt;Location: 9603 - 11930" locus_tag="ALK27904.1" class="clusterblast-orf" id="dummy-1_h1_10_6"  />
</g>
<g id="a1_007"  >
<polygon points="129,90 137,90 142,85 137,80 129,80 129,90 " style="fill:white; stroke-width:1; stroke:black; " description="&lt;b&gt;ALK27905.1&lt;/b&gt;&lt;br&gt;putative 3,5-dihydroxyphenylacetyl-CoA Synthetase&lt;br&gt;Location: 12002 - 13168" locus_tag="ALK27905.1" class="clusterblast-orf" id="dummy-1_h1_10_7"  />
</g>
<g id="a1_008"  >
<polygon points="142,90 144,90 149,85 144,80 142,80 142,90 " style="fill:white; stroke-width:1; stroke:black; " description="&lt;b&gt;ALK27906.1&lt;/b&gt;&lt;br&gt;putative enoyl-CoA hydratase&lt;br&gt;Location: 13192 - 13845" locus_tag="ALK27906.1" class="clusterblast-orf" id="dummy-1_h1_10_8"  />
</g>
<g id="a1_009"  >
<polygon points="149,90 158,90 163,85 158,80 149,80 149,90 " style="fill:white; stroke-width:1; stroke:black; " description="&lt;b&gt;ALK27907.1&lt;/b&gt;&lt;br&gt;putative 3,5-dihydroxyphenylacetyl-CoA oxygenase&lt;br&gt;Location: 13842 - 15149" locus_tag="ALK27907.1" class="clusterblast-orf" id="dummy-1_h1_10_9"  />
</g>
<g id="a1_0010"  >
<polygon points="163,90 167,90 172,85 167,80 163,80 163,90 " style="fill:white; stroke-width:1; stroke:black; " description="&lt;b&gt;ALK27908.1&lt;/b&gt;&lt;br&gt;putative enoyl-CoA hydratase&lt;br&gt;Location: 15146 - 15958" locus_tag="ALK27908.1" class="clusterblast-orf" id="dummy-1_h1_10_10"  />
</g>
<g id="a1_0011"  >
<polygon points="175,90 179,90 184,85 179,80 175,80 175,90 " style="fill:white; stroke-width:1; stroke:black; " description="&lt;b&gt;ALK27909.1&lt;/b&gt;&lt;br&gt;putative alpha/beta hydrolase&lt;br&gt;Location: 16221 - 17030" locus_tag="ALK27909.1" class="clusterblast-orf" id="dummy-1_h1_10_11"  />
</g>
<g id="a1_0012"  >
<polygon points="184,85 189,80 197,80 197,90 189,90 184,85 " style="fill:white; stroke-width:1; stroke:black; " description="&lt;b&gt;ALK27910.1&lt;/b&gt;&lt;br&gt;putative histidine kinase&lt;br&gt;Location: 17050 - 18306" locus_tag="ALK27910.1" class="clusterblast-orf" id="dummy-1_h1_10_12"  />
</g>
<g id="a1_0013"  >
<polygon points="197,85 202,80 204,80 204,90 202,90 197,85 " style="fill:white; stroke-width:1; stroke:black; " description="&lt;b&gt;ALK27911.1&lt;/b&gt;&lt;br&gt;putative two component transcription regulator&lt;br&gt;Location: 18314 - 18967" locus_tag="ALK27911.1" class="clusterblast-orf" id="dummy-1_h1_10_13"  />
</g>
<g id="a1_0014"  >
<polygon points="208,90 210,85 208,80 208,90 " style="fill:#d81515; stroke-width:1; stroke:black; " description="&lt;b&gt;ALK27912.1&lt;/b&gt;&lt;br&gt;putative antibiotic synthesis protein MbtH&lt;br&gt;Location: 19297 - 19521&lt;br&gt;&lt;br&gt;&lt;b&gt;BlastP hit with cds14120_14339&lt;/b&gt;&lt;br&gt;Percentage identity: 57&lt;br&gt;Percentage coverage: 93&lt;br&gt;BLAST bit score: 93&lt;br&gt;E-value: 1.3e-19" locus_tag="ALK27912.1" class="clusterblast-orf" id="dummy-1_h1_10_14"  />
</g>
<g id="a1_0015"  >
<polygon points="211,90 229,90 234,85 229,80 211,80 211,90 " style="fill:white; stroke-width:1; stroke:black; " description="&lt;b&gt;ALK27913.1&lt;/b&gt;&lt;br&gt;putative ABC transporter&lt;br&gt;Location: 19602 - 21659" locus_tag="ALK27913.1" class="clusterblast-orf" id="dummy-1_h1_10_15"  />
</g>
<g id="a1_0016"  >
<polygon points="234,90 406,90 411,85 406,80 234,80 234,90 " style="fill:white; stroke-width:1; stroke:black; " description="&lt;b&gt;ALK27914.1&lt;/b&gt;&lt;br&gt;non-ribosomal peptide synthase&lt;br&gt;Location: 21744 - 38087" locus_tag="ALK27914.1" class="clusterblast-orf" id="dummy-1_h1_10_16"  />
</g>
<g id="a1_0017"  >
<polygon points="412,90 664,90 669,85 664,80 412,80 412,90 " style="fill:white; stroke-width:1; stroke:black; " description="&lt;b&gt;ALK27915.1&lt;/b&gt;&lt;br&gt;non-ribosomal peptide synthase&lt;br&gt;Location: 38216 - 61951" locus_tag="ALK27915.1" class="clusterblast-orf" id="dummy-1_h1_10_17"  />
</g>
<g id="a1_0018"  >
<polygon points="669,90 775,90 780,85 775,80 669,80 669,90 " style="fill:#15d8d8; stroke-width:1; stroke:black; " description="&lt;b&gt;ALK27916.1&lt;/b&gt;&lt;br&gt;non-ribosomal peptide synthase&lt;br&gt;Location: 61953 - 72176&lt;br&gt;&lt;br&gt;&lt;b&gt;BlastP hit with cds29216_36776&lt;/b&gt;&lt;br&gt;Percentage identity: 47&lt;br&gt;Percentage coverage: 85&lt;br&gt;BLAST bit score: 1632&lt;br&gt;E-value: 0.0" locus_tag="ALK27916.1" class="clusterblast-orf" id="dummy-1_h1_10_18"  />
</g>
</svg>
