<svg xmlns="http://www.w3.org/2000/svg" xmlns:xlink="http://www.w3.org/1999/xlink" version="1.1" x="0" y="0" height="230" width="800" viewBox="0 0 800 230" preserveAspectRatio="none"  >
<g label="Query sequence" class="clusterblast-cluster"  >
<text x="5" y="20" class="clusterblast-acc"  >
Query sequence</text>
<line x1="10" y1="35" x2="778.0" y2="35" style="stroke-width:1; stroke:grey; "  />
<polygon points="111,35 116,30 129,30 129,40 116,40 111,35 " style="fill:white; stroke-width:1; stroke:black; " description="&lt;b&gt;cds61435_62263&lt;/b&gt;&lt;br&gt;hypothetical protein&lt;br&gt;Location: 61435 - 62263" locus_tag="cds61435_62263" class="clusterblast-orf" id="dummy-1_q0_0_all"  />
<polygon points="132,35 137,30 152,30 152,40 137,40 132,35 " style="fill:white; stroke-width:1; stroke:black; " description="&lt;b&gt;cds62425_63364&lt;/b&gt;&lt;br&gt;hypothetical protein&lt;br&gt;Location: 62425 - 63364" locus_tag="cds62425_63364" class="clusterblast-orf" id="dummy-1_q1_0_all"  />
<polygon points="165,40 178,40 183,35 178,30 165,30 165,40 " style="fill:white; stroke-width:1; stroke:black; " description="&lt;b&gt;cds63941_64766&lt;/b&gt;&lt;br&gt;hypothetical protein&lt;br&gt;Location: 63941 - 64766" locus_tag="cds63941_64766" class="clusterblast-orf" id="dummy-1_q2_0_all"  />
<polygon points="183,35 187,30 187,40 183,35 " style="fill:white; stroke-width:1; stroke:black; " description="&lt;b&gt;cds64775_64949&lt;/b&gt;&lt;br&gt;hypothetical protein&lt;br&gt;Location: 64775 - 64949" locus_tag="cds64775_64949" class="clusterblast-orf" id="dummy-1_q3_0_all"  />
<polygon points="188,35 193,30 202,30 202,40 193,40 188,35 " style="fill:#d81515; stroke-width:1; stroke:black; " description="&lt;b&gt;cds65016_65637&lt;/b&gt;&lt;br&gt;HTH-type transcriptional regulator PuuR&lt;br&gt;Location: 65016 - 65637" locus_tag="cds65016_65637" class="clusterblast-orf" id="dummy-1_q4_0_all"  />
<polygon points="203,35 208,30 233,30 233,40 208,40 203,35 " style="fill:#77d815; stroke-width:1; stroke:black; " description="&lt;b&gt;cds65693_67088&lt;/b&gt;&lt;br&gt;Aminotransferase PigE&lt;br&gt;Location: 65693 - 67088" locus_tag="cds65693_67088" class="clusterblast-orf" id="dummy-1_q5_0_all"  />
<polygon points="233,35 238,30 274,30 274,40 238,40 233,35 " style="fill:#15d8d8; stroke-width:1; stroke:black; " description="&lt;b&gt;cds67084_68995&lt;/b&gt;&lt;br&gt;1-deoxy-D-xylulose-5-phosphate synthase&lt;br&gt;Location: 67084 - 68995" locus_tag="cds67084_68995" class="clusterblast-orf" id="dummy-1_q6_0_all"  />
<polygon points="278,35 283,30 300,30 300,40 283,40 278,35 " style="fill:#7715d8; stroke-width:1; stroke:black; " description="&lt;b&gt;cds69168_70188&lt;/b&gt;&lt;br&gt;GTP 3',8-cyclase&lt;br&gt;Location: 69168 - 70188" locus_tag="cds69168_70188" class="clusterblast-orf" id="dummy-1_q7_0_all"  />
<polygon points="300,35 305,30 314,30 314,40 305,40 300,35 " style="fill:#d87715; stroke-width:1; stroke:black; " description="&lt;b&gt;cds70194_70854&lt;/b&gt;&lt;br&gt;hypothetical protein&lt;br&gt;Location: 70194 - 70854" locus_tag="cds70194_70854" class="clusterblast-orf" id="dummy-1_q8_0_all"  />
<polygon points="314,35 319,30 358,30 358,40 319,40 314,35 " style="fill:#15d815; stroke-width:1; stroke:black; " description="&lt;b&gt;cds70858_72871&lt;/b&gt;&lt;br&gt;Squalene--hopene cyclase&lt;br&gt;Location: 70858 - 72871" locus_tag="cds70858_72871" class="clusterblast-orf" id="dummy-1_q9_0_all"  />
<polygon points="360,35 365,30 384,30 384,40 365,40 360,35 " style="fill:#1577d8; stroke-width:1; stroke:black; " description="&lt;b&gt;cds72971_74075&lt;/b&gt;&lt;br&gt;(2E,6E)-farnesyl diphosphate synthase&lt;br&gt;Location: 72971 - 74075" locus_tag="cds72971_74075" class="clusterblast-orf" id="dummy-1_q10_0_all"  />
<polygon points="384,35 389,30 414,30 414,40 389,40 384,35 " style="fill:#d815d8; stroke-width:1; stroke:black; " description="&lt;b&gt;cds74071_75460&lt;/b&gt;&lt;br&gt;Hydroxysqualene dehydroxylase&lt;br&gt;Location: 74071 - 75460" locus_tag="cds74071_75460" class="clusterblast-orf" id="dummy-1_q11_0_all"  />
<polygon points="416,35 421,30 436,30 436,40 421,40 416,35 " style="fill:#d8d815; stroke-width:1; stroke:black; " description="&lt;b&gt;cds75548_76502&lt;/b&gt;&lt;br&gt;Phytoene synthase&lt;br&gt;Location: 75548 - 76502" locus_tag="cds75548_76502" class="clusterblast-orf" id="dummy-1_q12_0_all"  />
<polygon points="436,35 441,30 456,30 456,40 441,40 436,35 " style="fill:#15d877; stroke-width:1; stroke:black; " description="&lt;b&gt;cds76498_77416&lt;/b&gt;&lt;br&gt;hypothetical protein&lt;br&gt;Location: 76498 - 77416" locus_tag="cds76498_77416" class="clusterblast-orf" id="dummy-1_q13_0_all"  />
<polygon points="465,35 470,30 482,30 482,40 470,40 465,35 " style="fill:white; stroke-width:1; stroke:black; " description="&lt;b&gt;cds77840_78626&lt;/b&gt;&lt;br&gt;Vitamin B12 import ATP-binding protein BtuD&lt;br&gt;Location: 77840 - 78626" locus_tag="cds77840_78626" class="clusterblast-orf" id="dummy-1_q14_0_all"  />
<polygon points="482,35 487,30 502,30 502,40 487,40 482,35 " style="fill:white; stroke-width:1; stroke:black; " description="&lt;b&gt;cds78618_79548&lt;/b&gt;&lt;br&gt;hypothetical protein&lt;br&gt;Location: 78618 - 79548" locus_tag="cds78618_79548" class="clusterblast-orf" id="dummy-1_q15_0_all"  />
<polygon points="505,35 510,30 523,30 523,40 510,40 505,35 " style="fill:white; stroke-width:1; stroke:black; " description="&lt;b&gt;cds79656_80529&lt;/b&gt;&lt;br&gt;hypothetical protein&lt;br&gt;Location: 79656 - 80529" locus_tag="cds79656_80529" class="clusterblast-orf" id="dummy-1_q16_0_all"  />
<polygon points="524,35 529,30 540,30 540,40 529,40 524,35 " style="fill:white; stroke-width:1; stroke:black; " description="&lt;b&gt;cds80537_81317&lt;/b&gt;&lt;br&gt;hypothetical protein&lt;br&gt;Location: 80537 - 81317" locus_tag="cds80537_81317" class="clusterblast-orf" id="dummy-1_q17_0_all"  />
<polygon points="540,35 545,30 563,30 563,40 545,40 540,35 " style="fill:#1515d8; stroke-width:1; stroke:black; " description="&lt;b&gt;cds81294_82356&lt;/b&gt;&lt;br&gt;hypothetical protein&lt;br&gt;Location: 81294 - 82356" locus_tag="cds81294_82356" class="clusterblast-orf" id="dummy-1_q18_0_all"  />
<polygon points="563,35 568,30 579,30 579,40 568,40 563,35 " style="fill:#d81577; stroke-width:1; stroke:black; " description="&lt;b&gt;cds82343_83081&lt;/b&gt;&lt;br&gt;Glucose-1-phosphate adenylyltransferase&lt;br&gt;Location: 82343 - 83081" locus_tag="cds82343_83081" class="clusterblast-orf" id="dummy-1_q19_0_all"  />
<polygon points="578,35 583,30 616,30 616,40 583,40 578,35 " style="fill:white; stroke-width:1; stroke:black; " description="&lt;b&gt;cds83077_84832&lt;/b&gt;&lt;br&gt;hypothetical protein&lt;br&gt;Location: 83077 - 84832" locus_tag="cds83077_84832" class="clusterblast-orf" id="dummy-1_q20_0_all"  />
<polygon points="623,40 639,40 644,35 639,30 623,30 623,40 " style="fill:white; stroke-width:1; stroke:black; " description="&lt;b&gt;cds85141_86128&lt;/b&gt;&lt;br&gt;UDP-glucose 4-epimerase&lt;br&gt;Location: 85141 - 86128" locus_tag="cds85141_86128" class="clusterblast-orf" id="dummy-1_q21_0_all"  />
<polygon points="648,40 664,40 669,35 664,30 648,30 648,40 " style="fill:white; stroke-width:1; stroke:black; " description="&lt;b&gt;cds86309_87251&lt;/b&gt;&lt;br&gt;Metal cation efflux system protein CzcD&lt;br&gt;Location: 86309 - 87251" locus_tag="cds86309_87251" class="clusterblast-orf" id="dummy-1_q22_0_all"  />
</g>
<g label="BGC0000807" description="BGC0000807_c1: phosphonoglycans (6% of genes show similarity), Saccharide" class="clusterblast-cluster"  >
<text x="5" y="70" class="clusterblast-acc"  >
<a xlink:href="https://mibig.secondarymetabolites.org/go/BGC0000807/1" target="_blank">BGC0000807</a>:                                                                 phosphonoglycans (6% of genes show similarity), Saccharide</text>
<line x1="10" y1="85" x2="778.0" y2="85" style="stroke-width:1; stroke:grey; "  />
</g>
<g id="a1_000"  >
<polygon points="0,85 5,80 14,80 14,90 5,90 0,85 " style="fill:white; stroke-width:1; stroke:black; " description="&lt;b&gt;Snas_5651&lt;/b&gt;&lt;br&gt;transcriptional regulator, GntR family&lt;br&gt;Location: 1 - 660" locus_tag="Snas_5651" class="clusterblast-orf" id="dummy-1_h1_2_0"  />
</g>
<g id="a1_001"  >
<polygon points="15,90 20,90 25,85 20,80 15,80 15,90 " style="fill:white; stroke-width:1; stroke:black; " description="&lt;b&gt;Snas_5652&lt;/b&gt;&lt;br&gt;Glyoxalase/bleomycin resistance protein/dioxygenase&lt;br&gt;Location: 739 - 1170" locus_tag="Snas_5652" class="clusterblast-orf" id="dummy-1_h1_2_1"  />
</g>
<g id="a1_002"  >
<polygon points="25,90 35,90 40,85 35,80 25,80 25,90 " style="fill:white; stroke-width:1; stroke:black; " description="&lt;b&gt;Snas_5653&lt;/b&gt;&lt;br&gt;NAD-dependent epimerase/dehydratase&lt;br&gt;Location: 1198 - 1866" locus_tag="Snas_5653" class="clusterblast-orf" id="dummy-1_h1_2_2"  />
</g>
<g id="a1_003"  >
<polygon points="48,90 72,90 77,85 72,80 48,80 48,90 " style="fill:white; stroke-width:1; stroke:black; " description="&lt;b&gt;Snas_5654&lt;/b&gt;&lt;br&gt;Radical SAM domain protein&lt;br&gt;Location: 2238 - 3587" locus_tag="Snas_5654" class="clusterblast-orf" id="dummy-1_h1_2_3"  />
</g>
<g id="a1_004"  >
<polygon points="77,90 87,90 92,85 87,80 77,80 77,90 " style="fill:white; stroke-width:1; stroke:black; " description="&lt;b&gt;Snas_5655&lt;/b&gt;&lt;br&gt;flavoprotein&lt;br&gt;Location: 3584 - 4303" locus_tag="Snas_5655" class="clusterblast-orf" id="dummy-1_h1_2_4"  />
</g>
<g id="a1_005"  >
<polygon points="96,90 134,90 139,85 134,80 96,80 96,90 " style="fill:white; stroke-width:1; stroke:black; " description="&lt;b&gt;Snas_5656&lt;/b&gt;&lt;br&gt;major facilitator superfamily MFS 1&lt;br&gt;Location: 4475 - 6463" locus_tag="Snas_5656" class="clusterblast-orf" id="dummy-1_h1_2_5"  />
</g>
<g id="a1_006"  >
<polygon points="143,85 148,80 149,80 149,90 148,90 143,85 " style="fill:white; stroke-width:1; stroke:black; " description="&lt;b&gt;Snas_5657&lt;/b&gt;&lt;br&gt;hypothetical protein&lt;br&gt;Location: 6621 - 6929" locus_tag="Snas_5657" class="clusterblast-orf" id="dummy-1_h1_2_6"  />
</g>
<g id="a1_007"  >
<polygon points="150,85 155,80 163,80 163,90 155,90 150,85 " style="fill:white; stroke-width:1; stroke:black; " description="&lt;b&gt;Snas_5658&lt;/b&gt;&lt;br&gt;hypothetical protein&lt;br&gt;Location: 6953 - 7543" locus_tag="Snas_5658" class="clusterblast-orf" id="dummy-1_h1_2_7"  />
</g>
<g id="a1_008"  >
<polygon points="163,85 168,80 178,80 178,90 168,90 163,85 " style="fill:white; stroke-width:1; stroke:black; " description="&lt;b&gt;Snas_5659&lt;/b&gt;&lt;br&gt;hypothetical protein&lt;br&gt;Location: 7565 - 8278" locus_tag="Snas_5659" class="clusterblast-orf" id="dummy-1_h1_2_8"  />
</g>
<g id="a1_009"  >
<polygon points="179,85 184,80 185,80 185,90 184,90 179,85 " style="fill:white; stroke-width:1; stroke:black; " description="&lt;b&gt;Snas_5660&lt;/b&gt;&lt;br&gt;hypothetical protein&lt;br&gt;Location: 8283 - 8603" locus_tag="Snas_5660" class="clusterblast-orf" id="dummy-1_h1_2_9"  />
</g>
<g id="a1_0010"  >
<polygon points="186,85 191,80 195,80 195,90 191,90 186,85 " style="fill:white; stroke-width:1; stroke:black; " description="&lt;b&gt;Snas_5661&lt;/b&gt;&lt;br&gt;hypothetical protein&lt;br&gt;Location: 8609 - 9025" locus_tag="Snas_5661" class="clusterblast-orf" id="dummy-1_h1_2_10"  />
</g>
<g id="a1_0011"  >
<polygon points="198,85 203,80 214,80 214,90 203,90 198,85 " style="fill:white; stroke-width:1; stroke:black; " description="&lt;b&gt;Snas_5662&lt;/b&gt;&lt;br&gt;hypothetical protein&lt;br&gt;Location: 9189 - 9905" locus_tag="Snas_5662" class="clusterblast-orf" id="dummy-1_h1_2_11"  />
</g>
<g id="a1_0012"  >
<polygon points="218,85 223,80 243,80 243,90 223,90 218,85 " style="fill:white; stroke-width:1; stroke:black; " description="&lt;b&gt;Snas_5663&lt;/b&gt;&lt;br&gt;iron-containing alcohol dehydrogenase&lt;br&gt;Location: 10124 - 11284" locus_tag="Snas_5663" class="clusterblast-orf" id="dummy-1_h1_2_12"  />
</g>
<g id="a1_0013"  >
<polygon points="245,85 250,80 270,80 270,90 250,90 245,85 " style="fill:white; stroke-width:1; stroke:black; " description="&lt;b&gt;Snas_5664&lt;/b&gt;&lt;br&gt;phosphonopyruvate decarboxylase&lt;br&gt;Location: 11374 - 12495" locus_tag="Snas_5664" class="clusterblast-orf" id="dummy-1_h1_2_13"  />
</g>
<g id="a1_0014"  >
<polygon points="269,85 274,80 298,80 298,90 274,90 269,85 " style="fill:white; stroke-width:1; stroke:black; " description="&lt;b&gt;Snas_5665&lt;/b&gt;&lt;br&gt;phosphoenolpyruvate phosphomutase&lt;br&gt;Location: 12492 - 13805" locus_tag="Snas_5665" class="clusterblast-orf" id="dummy-1_h1_2_14"  />
</g>
<g id="a1_0015"  >
<polygon points="301,85 306,80 338,80 338,90 306,90 301,85 " style="fill:white; stroke-width:1; stroke:black; " description="&lt;b&gt;Snas_5666&lt;/b&gt;&lt;br&gt;hypothetical protein&lt;br&gt;Location: 13947 - 15656" locus_tag="Snas_5666" class="clusterblast-orf" id="dummy-1_h1_2_15"  />
</g>
<g id="a1_0016"  >
<polygon points="341,85 346,80 377,80 377,90 346,90 341,85 " style="fill:white; stroke-width:1; stroke:black; " description="&lt;b&gt;Snas_5667&lt;/b&gt;&lt;br&gt;hypothetical protein&lt;br&gt;Location: 15807 - 17462" locus_tag="Snas_5667" class="clusterblast-orf" id="dummy-1_h1_2_16"  />
</g>
<g id="a1_0017"  >
<polygon points="377,85 382,80 393,80 393,90 382,90 377,85 " style="fill:white; stroke-width:1; stroke:black; " description="&lt;b&gt;Snas_5668&lt;/b&gt;&lt;br&gt;2-C-methyl-D-erythritol 4-phosphate cytidylyltransferase&lt;br&gt;Location: 17467 - 18186" locus_tag="Snas_5668" class="clusterblast-orf" id="dummy-1_h1_2_17"  />
</g>
<g id="a1_0018"  >
<polygon points="392,85 397,80 411,80 411,90 397,90 392,85 " style="fill:white; stroke-width:1; stroke:black; " description="&lt;b&gt;Snas_5669&lt;/b&gt;&lt;br&gt;CDP-alcohol phosphatidyltransferase&lt;br&gt;Location: 18183 - 19058" locus_tag="Snas_5669" class="clusterblast-orf" id="dummy-1_h1_2_18"  />
</g>
<g id="a1_0019"  >
<polygon points="415,90 426,90 431,85 426,80 415,80 415,90 " style="fill:white; stroke-width:1; stroke:black; " description="&lt;b&gt;Snas_5670&lt;/b&gt;&lt;br&gt;ABC transporter related protein&lt;br&gt;Location: 19223 - 19984" locus_tag="Snas_5670" class="clusterblast-orf" id="dummy-1_h1_2_19"  />
</g>
<g id="a1_0020"  >
<polygon points="431,90 471,90 476,85 471,80 431,80 431,90 " style="fill:white; stroke-width:1; stroke:black; " description="&lt;b&gt;Snas_5671&lt;/b&gt;&lt;br&gt;CDP-alcohol phosphatidyltransferase&lt;br&gt;Location: 19984 - 22041" locus_tag="Snas_5671" class="clusterblast-orf" id="dummy-1_h1_2_20"  />
</g>
<g id="a1_0021"  >
<polygon points="483,90 517,90 522,85 517,80 483,80 483,90 " style="fill:white; stroke-width:1; stroke:black; " description="&lt;b&gt;Snas_5672&lt;/b&gt;&lt;br&gt;UDP-N-acetylglucosamine--lysosomal-enzyme N-acetylglucosamine phosphotransferase&lt;br&gt;Location: 22391 - 24172" locus_tag="Snas_5672" class="clusterblast-orf" id="dummy-1_h1_2_21"  />
</g>
<g id="a1_0022"  >
<polygon points="522,90 552,90 557,85 552,80 522,80 522,90 " style="fill:white; stroke-width:1; stroke:black; " description="&lt;b&gt;Snas_5673&lt;/b&gt;&lt;br&gt;UDP-N-acetylglucosamine--lysosomal-enzyme N-acetylglucosamine phosphotransferase&lt;br&gt;Location: 24160 - 25809" locus_tag="Snas_5673" class="clusterblast-orf" id="dummy-1_h1_2_22"  />
</g>
<g id="a1_0023"  >
<polygon points="557,90 602,90 607,85 602,80 557,80 557,90 " style="fill:white; stroke-width:1; stroke:black; " description="&lt;b&gt;Snas_5674&lt;/b&gt;&lt;br&gt;glycosyl transferase group 1&lt;br&gt;Location: 25806 - 28094" locus_tag="Snas_5674" class="clusterblast-orf" id="dummy-1_h1_2_23"  />
</g>
<g id="a1_0024"  >
<polygon points="608,90 648,90 653,85 648,80 608,80 608,90 " style="fill:white; stroke-width:1; stroke:black; " description="&lt;b&gt;Snas_5675&lt;/b&gt;&lt;br&gt;LmbE family protein&lt;br&gt;Location: 28140 - 30254" locus_tag="Snas_5675" class="clusterblast-orf" id="dummy-1_h1_2_24"  />
</g>
<g id="a1_0025"  >
<polygon points="654,85 659,80 666,80 666,90 659,90 654,85 " style="fill:white; stroke-width:1; stroke:black; " description="&lt;b&gt;Snas_5676&lt;/b&gt;&lt;br&gt;hypothetical protein&lt;br&gt;Location: 30274 - 30852" locus_tag="Snas_5676" class="clusterblast-orf" id="dummy-1_h1_2_25"  />
</g>
<g id="a1_0026"  >
<polygon points="669,85 674,80 689,80 689,90 674,90 669,85 " style="fill:white; stroke-width:1; stroke:black; " description="&lt;b&gt;Snas_5677&lt;/b&gt;&lt;br&gt;Endonuclease/exonuclease/phosphatase&lt;br&gt;Location: 30965 - 31897" locus_tag="Snas_5677" class="clusterblast-orf" id="dummy-1_h1_2_26"  />
</g>
<g id="a1_0027"  >
<polygon points="690,85 695,80 721,80 721,90 695,90 690,85 " style="fill:white; stroke-width:1; stroke:black; " description="&lt;b&gt;Snas_5678&lt;/b&gt;&lt;br&gt;nucleotide sugar dehydrogenase&lt;br&gt;Location: 31957 - 33381" locus_tag="Snas_5678" class="clusterblast-orf" id="dummy-1_h1_2_27"  />
</g>
<g id="a1_0028"  >
<polygon points="722,85 727,80 742,80 742,90 727,90 722,85 " style="fill:white; stroke-width:1; stroke:black; " description="&lt;b&gt;Snas_5679&lt;/b&gt;&lt;br&gt;ABC-2 type transporter&lt;br&gt;Location: 33447 - 34331" locus_tag="Snas_5679" class="clusterblast-orf" id="dummy-1_h1_2_28"  />
</g>
<g id="a1_0029"  >
<polygon points="741,85 746,80 764,80 764,90 746,90 741,85 " style="fill:#1515d8; stroke-width:1; stroke:black; " description="&lt;b&gt;Snas_5680&lt;/b&gt;&lt;br&gt;3-dehydroquinate synthase&lt;br&gt;Location: 34318 - 35373&lt;br&gt;&lt;br&gt;&lt;b&gt;BlastP hit with cds81294_82356&lt;/b&gt;&lt;br&gt;Percentage identity: 50&lt;br&gt;Percentage coverage: 98&lt;br&gt;BLAST bit score: 348&lt;br&gt;E-value: 1.4e-95" locus_tag="Snas_5680" class="clusterblast-orf" id="dummy-1_h1_2_29"  />
</g>
<g id="a1_0030"  >
<polygon points="764,85 769,80 780,80 780,90 769,90 764,85 " style="fill:#d81577; stroke-width:1; stroke:black; " description="&lt;b&gt;Snas_5681&lt;/b&gt;&lt;br&gt;nucleotidyl transferase&lt;br&gt;Location: 35361 - 36089&lt;br&gt;&lt;br&gt;&lt;b&gt;BlastP hit with cds82343_83081&lt;/b&gt;&lt;br&gt;Percentage identity: 53&lt;br&gt;Percentage coverage: 100&lt;br&gt;BLAST bit score: 245&lt;br&gt;E-value: 6.8e-65" locus_tag="Snas_5681" class="clusterblast-orf" id="dummy-1_h1_2_30"  />
</g>
</svg>
