<svg xmlns="http://www.w3.org/2000/svg" xmlns:xlink="http://www.w3.org/1999/xlink" version="1.1" x="0" y="0" height="230" width="800" viewBox="0 0 800 230" preserveAspectRatio="none"  >
<g label="Query sequence" class="clusterblast-cluster"  >
<text x="5" y="20" class="clusterblast-acc"  >
Query sequence</text>
<line x1="10" y1="35" x2="778.0" y2="35" style="stroke-width:1; stroke:grey; "  />
<polygon points="0,35 5,30 22,30 22,40 5,40 0,35 " style="fill:white; stroke-width:1; stroke:black; " description="&lt;b&gt;cds93049_94162&lt;/b&gt;&lt;br&gt;Transaldolase&lt;br&gt;Location: 93049 - 94162" locus_tag="cds93049_94162" class="clusterblast-orf" id="dummy-2_q0_0_all"  />
<polygon points="27,35 32,30 65,30 65,40 32,40 27,35 " style="fill:white; stroke-width:1; stroke:black; " description="&lt;b&gt;cds94422_96378&lt;/b&gt;&lt;br&gt;hypothetical protein&lt;br&gt;Location: 94422 - 96378" locus_tag="cds94422_96378" class="clusterblast-orf" id="dummy-2_q1_0_all"  />
<polygon points="70,40 80,40 85,35 80,30 70,30 70,40 " style="fill:white; stroke-width:1; stroke:black; " description="&lt;b&gt;cds96630_97377&lt;/b&gt;&lt;br&gt;Release factor glutamine methyltransferase&lt;br&gt;Location: 96630 - 97377" locus_tag="cds96630_97377" class="clusterblast-orf" id="dummy-2_q2_0_all"  />
<polygon points="87,40 125,40 130,35 125,30 87,30 87,40 " style="fill:white; stroke-width:1; stroke:black; " description="&lt;b&gt;cds97468_99643&lt;/b&gt;&lt;br&gt;Isochorismate synthase MenF&lt;br&gt;Location: 97468 - 99643" locus_tag="cds97468_99643" class="clusterblast-orf" id="dummy-2_q3_0_all"  />
<polygon points="135,40 154,40 159,35 154,30 135,30 135,40 " style="fill:white; stroke-width:1; stroke:black; " description="&lt;b&gt;cds99935_101153&lt;/b&gt;&lt;br&gt;hypothetical protein&lt;br&gt;Location: 99935 - 101153" locus_tag="cds99935_101153" class="clusterblast-orf" id="dummy-2_q4_0_all"  />
<polygon points="161,40 178,40 183,35 178,30 161,30 161,40 " style="fill:white; stroke-width:1; stroke:black; " description="&lt;b&gt;cds101246_102350&lt;/b&gt;&lt;br&gt;Transcriptional regulator NovG&lt;br&gt;Location: 101246 - 102350" locus_tag="cds101246_102350" class="clusterblast-orf" id="dummy-2_q5_0_all"  />
<polygon points="188,40 193,40 198,35 193,30 188,30 188,40 " style="fill:#d81515; stroke-width:1; stroke:black; " description="&lt;b&gt;cds102605_103100&lt;/b&gt;&lt;br&gt;Phenazine biosynthesis protein PhzB2&lt;br&gt;Location: 102605 - 103100" locus_tag="cds102605_103100" class="clusterblast-orf" id="dummy-2_q6_0_all"  />
<polygon points="199,40 217,40 222,35 217,30 199,30 199,40 " style="fill:#63d815; stroke-width:1; stroke:black; " description="&lt;b&gt;cds103152_104325&lt;/b&gt;&lt;br&gt;Phospho-2-dehydro-3-deoxyheptonate aldolase&lt;br&gt;Location: 103152 - 104325" locus_tag="cds103152_104325" class="clusterblast-orf" id="dummy-2_q7_0_all"  />
<polygon points="223,40 230,40 235,35 230,30 223,30 223,40 " style="fill:#15b1d8; stroke-width:1; stroke:black; " description="&lt;b&gt;cds104361_104985&lt;/b&gt;&lt;br&gt;Phenazine biosynthesis protein PhzD2&lt;br&gt;Location: 104361 - 104985" locus_tag="cds104361_104985" class="clusterblast-orf" id="dummy-2_q8_0_all"  />
<polygon points="235,40 269,40 274,35 269,30 235,30 235,40 " style="fill:#b115d8; stroke-width:1; stroke:black; " description="&lt;b&gt;cds104981_106976&lt;/b&gt;&lt;br&gt;Isochorismate synthase MenF&lt;br&gt;Location: 104981 - 106976" locus_tag="cds104981_106976" class="clusterblast-orf" id="dummy-2_q9_0_all"  />
<polygon points="276,40 287,40 292,35 287,30 276,30 276,40 " style="fill:#d86315; stroke-width:1; stroke:black; " description="&lt;b&gt;cds107064_107901&lt;/b&gt;&lt;br&gt;Trans-2,3-dihydro-3-hydroxyanthranilate isomerase&lt;br&gt;Location: 107064 - 107901" locus_tag="cds107064_107901" class="clusterblast-orf" id="dummy-2_q10_0_all"  />
<polygon points="295,40 302,40 307,35 302,30 295,30 295,40 " style="fill:#15d815; stroke-width:1; stroke:black; " description="&lt;b&gt;cds108031_108667&lt;/b&gt;&lt;br&gt;Phenazine biosynthesis protein PhzG&lt;br&gt;Location: 108031 - 108667" locus_tag="cds108031_108667" class="clusterblast-orf" id="dummy-2_q11_0_all"  />
<polygon points="311,40 314,40 319,35 314,30 311,30 311,40 " style="fill:white; stroke-width:1; stroke:black; " description="&lt;b&gt;cds108855_109236&lt;/b&gt;&lt;br&gt;hypothetical protein&lt;br&gt;Location: 108855 - 109236" locus_tag="cds108855_109236" class="clusterblast-orf" id="dummy-2_q12_0_all"  />
<polygon points="320,40 324,40 329,35 324,30 320,30 320,40 " style="fill:white; stroke-width:1; stroke:black; " description="&lt;b&gt;cds109329_109740&lt;/b&gt;&lt;br&gt;hypothetical protein&lt;br&gt;Location: 109329 - 109740" locus_tag="cds109329_109740" class="clusterblast-orf" id="dummy-2_q13_0_all"  />
<polygon points="330,40 341,40 346,35 341,30 330,30 330,40 " style="fill:white; stroke-width:1; stroke:black; " description="&lt;b&gt;cds109788_110601&lt;/b&gt;&lt;br&gt;Trans-aconitate 2-methyltransferase&lt;br&gt;Location: 109788 - 110601" locus_tag="cds109788_110601" class="clusterblast-orf" id="dummy-2_q14_0_all"  />
<polygon points="347,40 367,40 372,35 367,30 347,30 347,40 " style="fill:white; stroke-width:1; stroke:black; " description="&lt;b&gt;cds110686_111919&lt;/b&gt;&lt;br&gt;sugar efflux transporter&lt;br&gt;Location: 110686 - 111919" locus_tag="cds110686_111919" class="clusterblast-orf" id="dummy-2_q15_0_all"  />
<polygon points="375,40 392,40 397,35 392,30 375,30 375,40 " style="fill:white; stroke-width:1; stroke:black; " description="&lt;b&gt;cds112115_113201&lt;/b&gt;&lt;br&gt;hypothetical protein&lt;br&gt;Location: 112115 - 113201" locus_tag="cds112115_113201" class="clusterblast-orf" id="dummy-2_q16_0_all"  />
<polygon points="401,40 420,40 425,35 420,30 401,30 401,40 " style="fill:#1563d8; stroke-width:1; stroke:black; " description="&lt;b&gt;cds113397_114621&lt;/b&gt;&lt;br&gt;S-adenosylmethionine synthase&lt;br&gt;Location: 113397 - 114621" locus_tag="cds113397_114621" class="clusterblast-orf" id="dummy-2_q17_0_all"  />
<polygon points="425,40 440,40 445,35 440,30 425,30 425,40 " style="fill:#d815b1; stroke-width:1; stroke:black; " description="&lt;b&gt;cds114622_115660&lt;/b&gt;&lt;br&gt;Adenosine kinase&lt;br&gt;Location: 114622 - 115660" locus_tag="cds114622_115660" class="clusterblast-orf" id="dummy-2_q18_0_all"  />
<polygon points="445,40 458,40 463,35 458,30 445,30 445,40 " style="fill:#d8b115; stroke-width:1; stroke:black; " description="&lt;b&gt;cds115656_116574&lt;/b&gt;&lt;br&gt;5,10-methylenetetrahydrofolate reductase&lt;br&gt;Location: 115656 - 116574" locus_tag="cds115656_116574" class="clusterblast-orf" id="dummy-2_q19_0_all"  />
<polygon points="475,35 480,30 497,30 497,40 480,40 475,35 " style="fill:#15d863; stroke-width:1; stroke:black; " description="&lt;b&gt;cds117189_118269&lt;/b&gt;&lt;br&gt;putative 3-ketosteroid-9-alpha-monooxygenase, oxygenase component&lt;br&gt;Location: 117189 - 118269" locus_tag="cds117189_118269" class="clusterblast-orf" id="dummy-2_q20_0_all"  />
<polygon points="497,35 502,30 517,30 517,40 502,40 497,35 " style="fill:#1515d8; stroke-width:1; stroke:black; " description="&lt;b&gt;cds118265_119321&lt;/b&gt;&lt;br&gt;Putative NADP-dependent oxidoreductase YfmJ&lt;br&gt;Location: 118265 - 119321" locus_tag="cds118265_119321" class="clusterblast-orf" id="dummy-2_q21_0_all"  />
<polygon points="517,35 522,30 550,30 550,40 522,40 517,35 " style="fill:#d81563; stroke-width:1; stroke:black; " description="&lt;b&gt;cds119317_120976&lt;/b&gt;&lt;br&gt;Phytoene desaturase (lycopene-forming)&lt;br&gt;Location: 119317 - 120976" locus_tag="cds119317_120976" class="clusterblast-orf" id="dummy-2_q22_0_all"  />
<polygon points="550,35 555,30 583,30 583,40 555,40 550,35 " style="fill:#b1d815; stroke-width:1; stroke:black; " description="&lt;b&gt;cds120972_122658&lt;/b&gt;&lt;br&gt;hypothetical protein&lt;br&gt;Location: 120972 - 122658" locus_tag="cds120972_122658" class="clusterblast-orf" id="dummy-2_q23_0_all"  />
<polygon points="583,35 588,30 767,30 767,40 588,40 583,35 " style="fill:#15d8b1; stroke-width:1; stroke:black; " description="&lt;b&gt;cds122644_131968&lt;/b&gt;&lt;br&gt;D-alanine--D-alanyl carrier protein ligase&lt;br&gt;Location: 122644 - 131968" locus_tag="cds122644_131968" class="clusterblast-orf" id="dummy-2_q24_0_all"  />
<polygon points="769,35 774,30 780,30 780,40 774,40 769,35 " style="fill:#6315d8; stroke-width:1; stroke:black; " description="&lt;b&gt;cds132105_132633&lt;/b&gt;&lt;br&gt;hypothetical protein&lt;br&gt;Location: 132105 - 132633" locus_tag="cds132105_132633" class="clusterblast-orf" id="dummy-2_q25_0_all"  />
</g>
<g label="BGC0001221" description="BGC0001221_c1: marinophenazine A / phenaziterpene A (26% of genes show similarity), Other:Phenazine" class="clusterblast-cluster"  >
<text x="5" y="70" class="clusterblast-acc"  >
<a xlink:href="https://mibig.secondarymetabolites.org/go/BGC0001221/1" target="_blank">BGC0001221</a>:                                             marinophenazine A / phenaziterpene A (26% of genes show similarity), Other:Phenazine</text>
<line x1="10" y1="85" x2="778.0" y2="85" style="stroke-width:1; stroke:grey; "  />
</g>
<g id="a2_000"  >
<polygon points="148,90 164,90 169,85 164,80 148,80 148,90 " style="fill:white; stroke-width:1; stroke:black; " description="&lt;b&gt;AIT42134.1&lt;/b&gt;&lt;br&gt;putative phosphatase&lt;br&gt;Location: 24508 - 23474" locus_tag="AIT42134.1" class="clusterblast-orf" id="dummy-2_h2_9_0"  />
</g>
<g id="a2_001"  >
<polygon points="170,90 196,90 201,85 196,80 170,80 170,90 " style="fill:white; stroke-width:1; stroke:black; " description="&lt;b&gt;AIT42133.1&lt;/b&gt;&lt;br&gt;putative MFS transporter&lt;br&gt;Location: 23384 - 21837" locus_tag="AIT42133.1" class="clusterblast-orf" id="dummy-2_h2_9_1"  />
</g>
<g id="a2_002"  >
<polygon points="201,85 206,80 213,80 213,90 206,90 201,85 " style="fill:white; stroke-width:1; stroke:black; " description="&lt;b&gt;AIT42132.1&lt;/b&gt;&lt;br&gt;putative deaminase reductase&lt;br&gt;Location: 21812 - 21234" locus_tag="AIT42132.1" class="clusterblast-orf" id="dummy-2_h2_9_2"  />
</g>
<g id="a2_003"  >
<polygon points="216,90 224,90 229,85 224,80 216,80 216,90 " style="fill:white; stroke-width:1; stroke:black; " description="&lt;b&gt;AIT42131.1&lt;/b&gt;&lt;br&gt;putative cellulose-binding protein&lt;br&gt;Location: 21069 - 20392" locus_tag="AIT42131.1" class="clusterblast-orf" id="dummy-2_h2_9_3"  />
</g>
<g id="a2_004"  >
<polygon points="232,90 237,90 242,85 237,80 232,80 232,90 " style="fill:white; stroke-width:1; stroke:black; " description="&lt;b&gt;AIT42130.1&lt;/b&gt;&lt;br&gt;putative GntR family transcriptional regulator&lt;br&gt;Location: 20260 - 19739" locus_tag="AIT42130.1" class="clusterblast-orf" id="dummy-2_h2_9_4"  />
</g>
<g id="a2_005"  >
<polygon points="250,90 250,90 255,85 250,80 250,80 250,90 " style="fill:white; stroke-width:1; stroke:black; " description="&lt;b&gt;AIT42129.1&lt;/b&gt;&lt;br&gt;hypothetical protein&lt;br&gt;Location: 19353 - 19084" locus_tag="AIT42129.1" class="clusterblast-orf" id="dummy-2_h2_9_5"  />
</g>
<g id="a2_006"  >
<polygon points="259,90 277,90 282,85 277,80 259,80 259,90 " style="fill:white; stroke-width:1; stroke:black; " description="&lt;b&gt;AIT42128.1&lt;/b&gt;&lt;br&gt;hypothetical protein&lt;br&gt;Location: 18902 - 17706" locus_tag="AIT42128.1" class="clusterblast-orf" id="dummy-2_h2_9_6"  />
</g>
<g id="a2_007"  >
<polygon points="284,90 294,90 299,85 294,80 284,80 284,90 " style="fill:white; stroke-width:1; stroke:black; " description="&lt;b&gt;AIT42127.1&lt;/b&gt;&lt;br&gt;hypothetical protein&lt;br&gt;Location: 17637 - 16861" locus_tag="AIT42127.1" class="clusterblast-orf" id="dummy-2_h2_9_7"  />
</g>
<g id="a2_008"  >
<polygon points="306,90 319,90 324,85 319,80 306,80 306,90 " style="fill:white; stroke-width:1; stroke:black; " description="&lt;b&gt;AIT42126.1&lt;/b&gt;&lt;br&gt;putative prenyltransferase&lt;br&gt;Location: 16479 - 15577" locus_tag="AIT42126.1" class="clusterblast-orf" id="dummy-2_h2_9_8"  />
</g>
<g id="a2_009"  >
<polygon points="325,90 327,85 325,80 325,90 " style="fill:white; stroke-width:1; stroke:black; " description="&lt;b&gt;AIT42125.1&lt;/b&gt;&lt;br&gt;hypothetical protein&lt;br&gt;Location: 15539 - 15408" locus_tag="AIT42125.1" class="clusterblast-orf" id="dummy-2_h2_9_9"  />
</g>
<g id="a2_0010"  >
<polygon points="327,90 347,90 352,85 347,80 327,80 327,90 " style="fill:white; stroke-width:1; stroke:black; " description="&lt;b&gt;AIT42124.1&lt;/b&gt;&lt;br&gt;putative monooxygenase&lt;br&gt;Location: 15408 - 14182" locus_tag="AIT42124.1" class="clusterblast-orf" id="dummy-2_h2_9_10"  />
</g>
<g id="a2_0011"  >
<polygon points="357,90 362,90 367,85 362,80 357,80 357,90 " style="fill:#d81515; stroke-width:1; stroke:black; " description="&lt;b&gt;AIT42135.1&lt;/b&gt;&lt;br&gt;putative enzyme of phenazine biosynthesis&lt;br&gt;Location: 13891 - 13385&lt;br&gt;&lt;br&gt;&lt;b&gt;BlastP hit with cds102605_103100&lt;/b&gt;&lt;br&gt;Percentage identity: 49&lt;br&gt;Percentage coverage: 93&lt;br&gt;BLAST bit score: 178&lt;br&gt;E-value: 6.8e-45" locus_tag="AIT42135.1" class="clusterblast-orf" id="dummy-2_h2_9_11"  />
</g>
<g id="a2_0012"  >
<polygon points="370,90 372,90 377,85 372,80 370,80 370,90 " style="fill:white; stroke-width:1; stroke:black; " description="&lt;b&gt;AIT42123.1&lt;/b&gt;&lt;br&gt;hypothetical protein&lt;br&gt;Location: 13267 - 12914" locus_tag="AIT42123.1" class="clusterblast-orf" id="dummy-2_h2_9_12"  />
</g>
<g id="a2_0013"  >
<polygon points="379,85 384,80 396,80 396,90 384,90 379,85 " style="fill:white; stroke-width:1; stroke:black; " description="&lt;b&gt;AIT42122.1&lt;/b&gt;&lt;br&gt;putative streptogrisin A&lt;br&gt;Location: 12804 - 11908" locus_tag="AIT42122.1" class="clusterblast-orf" id="dummy-2_h2_9_13"  />
</g>
<g id="a2_0014"  >
<polygon points="412,90 416,90 421,85 416,80 412,80 412,90 " style="fill:#d81515; stroke-width:1; stroke:black; " description="&lt;b&gt;AIT42121.1&lt;/b&gt;&lt;br&gt;putative enzyme of phenazine biosynthesis&lt;br&gt;Location: 11125 - 10664&lt;br&gt;&lt;br&gt;&lt;b&gt;BlastP hit with cds102605_103100&lt;/b&gt;&lt;br&gt;Percentage identity: 71&lt;br&gt;Percentage coverage: 90&lt;br&gt;BLAST bit score: 240&lt;br&gt;E-value: 2.5e-63" locus_tag="AIT42121.1" class="clusterblast-orf" id="dummy-2_h2_9_14"  />
</g>
<g id="a2_0015"  >
<polygon points="422,90 440,90 445,85 440,80 422,80 422,90 " style="fill:#63d815; stroke-width:1; stroke:black; " description="&lt;b&gt;AIT42120.1&lt;/b&gt;&lt;br&gt;putative 3-deoxy-D-arabino-heptulosonic acid 7-phosphate synthase&lt;br&gt;Location: 10631 - 9438&lt;br&gt;&lt;br&gt;&lt;b&gt;BlastP hit with cds103152_104325&lt;/b&gt;&lt;br&gt;Percentage identity: 60&lt;br&gt;Percentage coverage: 97&lt;br&gt;BLAST bit score: 445&lt;br&gt;E-value: 9.3e-125" locus_tag="AIT42120.1" class="clusterblast-orf" id="dummy-2_h2_9_15"  />
</g>
<g id="a2_0016"  >
<polygon points="447,90 454,90 459,85 454,80 447,80 447,90 " style="fill:#15b1d8; stroke-width:1; stroke:black; " description="&lt;b&gt;AIT42119.1&lt;/b&gt;&lt;br&gt;putative 2,3-dihydro-3-hydroxy-anthranilate (DHHA) synthase&lt;br&gt;Location: 9345 - 8722&lt;br&gt;&lt;br&gt;&lt;b&gt;BlastP hit with cds104361_104985&lt;/b&gt;&lt;br&gt;Percentage identity: 66&lt;br&gt;Percentage coverage: 100&lt;br&gt;BLAST bit score: 289&lt;br&gt;E-value: 5.9e-78" locus_tag="AIT42119.1" class="clusterblast-orf" id="dummy-2_h2_9_16"  />
</g>
<g id="a2_0017"  >
<polygon points="459,90 494,90 499,85 494,80 459,80 459,90 " style="fill:#b115d8; stroke-width:1; stroke:black; " description="&lt;b&gt;AIT42118.1&lt;/b&gt;&lt;br&gt;putative 2-amino-2-desoxy-isochorismate synthase&lt;br&gt;Location: 8725 - 6710&lt;br&gt;&lt;br&gt;&lt;b&gt;BlastP hit with cds104981_106976&lt;/b&gt;&lt;br&gt;Percentage identity: 60&lt;br&gt;Percentage coverage: 100&lt;br&gt;BLAST bit score: 751&lt;br&gt;E-value: 1e-216" locus_tag="AIT42118.1" class="clusterblast-orf" id="dummy-2_h2_9_17"  />
</g>
<g id="a2_0018"  >
<polygon points="500,90 512,90 517,85 512,80 500,80 500,90 " style="fill:#d86315; stroke-width:1; stroke:black; " description="&lt;b&gt;AIT42117.1&lt;/b&gt;&lt;br&gt;putative trans-2,3-dihydro-3-hydroxyanthranilate isomerase&lt;br&gt;Location: 6632 - 5793&lt;br&gt;&lt;br&gt;&lt;b&gt;BlastP hit with cds107064_107901&lt;/b&gt;&lt;br&gt;Percentage identity: 67&lt;br&gt;Percentage coverage: 98&lt;br&gt;BLAST bit score: 367&lt;br&gt;E-value: 1.8e-101" locus_tag="AIT42117.1" class="clusterblast-orf" id="dummy-2_h2_9_18"  />
</g>
<g id="a2_0019"  >
<polygon points="518,90 525,90 530,85 525,80 518,80 518,90 " style="fill:#15d815; stroke-width:1; stroke:black; " description="&lt;b&gt;AIT42116.1&lt;/b&gt;&lt;br&gt;putative FMN-dependent oxidase&lt;br&gt;Location: 5750 - 5112&lt;br&gt;&lt;br&gt;&lt;b&gt;BlastP hit with cds108031_108667&lt;/b&gt;&lt;br&gt;Percentage identity: 51&lt;br&gt;Percentage coverage: 100&lt;br&gt;BLAST bit score: 215&lt;br&gt;E-value: 6.5e-56" locus_tag="AIT42116.1" class="clusterblast-orf" id="dummy-2_h2_9_19"  />
</g>
<g id="a2_0020"  >
<polygon points="533,85 538,80 553,80 553,90 538,90 533,85 " style="fill:white; stroke-width:1; stroke:black; " description="&lt;b&gt;AIT42115.1&lt;/b&gt;&lt;br&gt;putative methyltransferase&lt;br&gt;Location: 4985 - 3978" locus_tag="AIT42115.1" class="clusterblast-orf" id="dummy-2_h2_9_20"  />
</g>
<g id="a2_0021"  >
<polygon points="554,85 559,80 573,80 573,90 559,90 554,85 " style="fill:white; stroke-width:1; stroke:black; " description="&lt;b&gt;AIT42114.1&lt;/b&gt;&lt;br&gt;putative sigma factor&lt;br&gt;Location: 3889 - 2954" locus_tag="AIT42114.1" class="clusterblast-orf" id="dummy-2_h2_9_21"  />
</g>
<g id="a2_0022"  >
<polygon points="575,90 580,90 585,85 580,80 575,80 575,90 " style="fill:white; stroke-width:1; stroke:black; " description="&lt;b&gt;AIT42113.1&lt;/b&gt;&lt;br&gt;putative pyridoxamine 5'-phosphate oxidase&lt;br&gt;Location: 2842 - 2321" locus_tag="AIT42113.1" class="clusterblast-orf" id="dummy-2_h2_9_22"  />
</g>
<g id="a2_0023"  >
<polygon points="588,90 592,90 597,85 592,80 588,80 588,90 " style="fill:white; stroke-width:1; stroke:black; " description="&lt;b&gt;AIT42112.1&lt;/b&gt;&lt;br&gt;hypothetical protein&lt;br&gt;Location: 2208 - 1711" locus_tag="AIT42112.1" class="clusterblast-orf" id="dummy-2_h2_9_23"  />
</g>
<g id="a2_0024"  >
<polygon points="598,85 603,80 613,80 613,90 603,90 598,85 " style="fill:white; stroke-width:1; stroke:black; " description="&lt;b&gt;AIT42111.1&lt;/b&gt;&lt;br&gt;putative N-acylglucosamine-6-phosphate 2-epimerase&lt;br&gt;Location: 1657 - 944" locus_tag="AIT42111.1" class="clusterblast-orf" id="dummy-2_h2_9_24"  />
</g>
<g id="a2_0025"  >
<polygon points="612,85 617,80 631,80 631,90 617,90 612,85 " style="fill:white; stroke-width:1; stroke:black; " description="&lt;b&gt;AIT42110.1&lt;/b&gt;&lt;br&gt;putative transcriptional regulator&lt;br&gt;Location: 947 - 15" locus_tag="AIT42110.1" class="clusterblast-orf" id="dummy-2_h2_9_25"  />
</g>
</svg>
