<svg xmlns="http://www.w3.org/2000/svg" xmlns:xlink="http://www.w3.org/1999/xlink" version="1.1" x="0" y="0" height="230" width="800" viewBox="0 0 800 230" preserveAspectRatio="none"  >
<g label="Query sequence" class="clusterblast-cluster"  >
<text x="5" y="20" class="clusterblast-acc"  >
Query sequence</text>
<line x1="10" y1="35" x2="778.0" y2="35" style="stroke-width:1; stroke:grey; "  />
<polygon points="0,35 5,30 22,30 22,40 5,40 0,35 " style="fill:white; stroke-width:1; stroke:black; " description="&lt;b&gt;cds93049_94162&lt;/b&gt;&lt;br&gt;Transaldolase&lt;br&gt;Location: 93049 - 94162" locus_tag="cds93049_94162" class="clusterblast-orf" id="dummy-2_q0_0_all"  />
<polygon points="27,35 32,30 65,30 65,40 32,40 27,35 " style="fill:white; stroke-width:1; stroke:black; " description="&lt;b&gt;cds94422_96378&lt;/b&gt;&lt;br&gt;hypothetical protein&lt;br&gt;Location: 94422 - 96378" locus_tag="cds94422_96378" class="clusterblast-orf" id="dummy-2_q1_0_all"  />
<polygon points="70,40 80,40 85,35 80,30 70,30 70,40 " style="fill:white; stroke-width:1; stroke:black; " description="&lt;b&gt;cds96630_97377&lt;/b&gt;&lt;br&gt;Release factor glutamine methyltransferase&lt;br&gt;Location: 96630 - 97377" locus_tag="cds96630_97377" class="clusterblast-orf" id="dummy-2_q2_0_all"  />
<polygon points="87,40 125,40 130,35 125,30 87,30 87,40 " style="fill:white; stroke-width:1; stroke:black; " description="&lt;b&gt;cds97468_99643&lt;/b&gt;&lt;br&gt;Isochorismate synthase MenF&lt;br&gt;Location: 97468 - 99643" locus_tag="cds97468_99643" class="clusterblast-orf" id="dummy-2_q3_0_all"  />
<polygon points="135,40 154,40 159,35 154,30 135,30 135,40 " style="fill:white; stroke-width:1; stroke:black; " description="&lt;b&gt;cds99935_101153&lt;/b&gt;&lt;br&gt;hypothetical protein&lt;br&gt;Location: 99935 - 101153" locus_tag="cds99935_101153" class="clusterblast-orf" id="dummy-2_q4_0_all"  />
<polygon points="161,40 178,40 183,35 178,30 161,30 161,40 " style="fill:white; stroke-width:1; stroke:black; " description="&lt;b&gt;cds101246_102350&lt;/b&gt;&lt;br&gt;Transcriptional regulator NovG&lt;br&gt;Location: 101246 - 102350" locus_tag="cds101246_102350" class="clusterblast-orf" id="dummy-2_q5_0_all"  />
<polygon points="188,40 193,40 198,35 193,30 188,30 188,40 " style="fill:#d81515; stroke-width:1; stroke:black; " description="&lt;b&gt;cds102605_103100&lt;/b&gt;&lt;br&gt;Phenazine biosynthesis protein PhzB2&lt;br&gt;Location: 102605 - 103100" locus_tag="cds102605_103100" class="clusterblast-orf" id="dummy-2_q6_0_all"  />
<polygon points="199,40 217,40 222,35 217,30 199,30 199,40 " style="fill:#63d815; stroke-width:1; stroke:black; " description="&lt;b&gt;cds103152_104325&lt;/b&gt;&lt;br&gt;Phospho-2-dehydro-3-deoxyheptonate aldolase&lt;br&gt;Location: 103152 - 104325" locus_tag="cds103152_104325" class="clusterblast-orf" id="dummy-2_q7_0_all"  />
<polygon points="223,40 230,40 235,35 230,30 223,30 223,40 " style="fill:#15b1d8; stroke-width:1; stroke:black; " description="&lt;b&gt;cds104361_104985&lt;/b&gt;&lt;br&gt;Phenazine biosynthesis protein PhzD2&lt;br&gt;Location: 104361 - 104985" locus_tag="cds104361_104985" class="clusterblast-orf" id="dummy-2_q8_0_all"  />
<polygon points="235,40 269,40 274,35 269,30 235,30 235,40 " style="fill:#b115d8; stroke-width:1; stroke:black; " description="&lt;b&gt;cds104981_106976&lt;/b&gt;&lt;br&gt;Isochorismate synthase MenF&lt;br&gt;Location: 104981 - 106976" locus_tag="cds104981_106976" class="clusterblast-orf" id="dummy-2_q9_0_all"  />
<polygon points="276,40 287,40 292,35 287,30 276,30 276,40 " style="fill:#d86315; stroke-width:1; stroke:black; " description="&lt;b&gt;cds107064_107901&lt;/b&gt;&lt;br&gt;Trans-2,3-dihydro-3-hydroxyanthranilate isomerase&lt;br&gt;Location: 107064 - 107901" locus_tag="cds107064_107901" class="clusterblast-orf" id="dummy-2_q10_0_all"  />
<polygon points="295,40 302,40 307,35 302,30 295,30 295,40 " style="fill:#15d815; stroke-width:1; stroke:black; " description="&lt;b&gt;cds108031_108667&lt;/b&gt;&lt;br&gt;Phenazine biosynthesis protein PhzG&lt;br&gt;Location: 108031 - 108667" locus_tag="cds108031_108667" class="clusterblast-orf" id="dummy-2_q11_0_all"  />
<polygon points="311,40 314,40 319,35 314,30 311,30 311,40 " style="fill:white; stroke-width:1; stroke:black; " description="&lt;b&gt;cds108855_109236&lt;/b&gt;&lt;br&gt;hypothetical protein&lt;br&gt;Location: 108855 - 109236" locus_tag="cds108855_109236" class="clusterblast-orf" id="dummy-2_q12_0_all"  />
<polygon points="320,40 324,40 329,35 324,30 320,30 320,40 " style="fill:white; stroke-width:1; stroke:black; " description="&lt;b&gt;cds109329_109740&lt;/b&gt;&lt;br&gt;hypothetical protein&lt;br&gt;Location: 109329 - 109740" locus_tag="cds109329_109740" class="clusterblast-orf" id="dummy-2_q13_0_all"  />
<polygon points="330,40 341,40 346,35 341,30 330,30 330,40 " style="fill:white; stroke-width:1; stroke:black; " description="&lt;b&gt;cds109788_110601&lt;/b&gt;&lt;br&gt;Trans-aconitate 2-methyltransferase&lt;br&gt;Location: 109788 - 110601" locus_tag="cds109788_110601" class="clusterblast-orf" id="dummy-2_q14_0_all"  />
<polygon points="347,40 367,40 372,35 367,30 347,30 347,40 " style="fill:white; stroke-width:1; stroke:black; " description="&lt;b&gt;cds110686_111919&lt;/b&gt;&lt;br&gt;sugar efflux transporter&lt;br&gt;Location: 110686 - 111919" locus_tag="cds110686_111919" class="clusterblast-orf" id="dummy-2_q15_0_all"  />
<polygon points="375,40 392,40 397,35 392,30 375,30 375,40 " style="fill:white; stroke-width:1; stroke:black; " description="&lt;b&gt;cds112115_113201&lt;/b&gt;&lt;br&gt;hypothetical protein&lt;br&gt;Location: 112115 - 113201" locus_tag="cds112115_113201" class="clusterblast-orf" id="dummy-2_q16_0_all"  />
<polygon points="401,40 420,40 425,35 420,30 401,30 401,40 " style="fill:#1563d8; stroke-width:1; stroke:black; " description="&lt;b&gt;cds113397_114621&lt;/b&gt;&lt;br&gt;S-adenosylmethionine synthase&lt;br&gt;Location: 113397 - 114621" locus_tag="cds113397_114621" class="clusterblast-orf" id="dummy-2_q17_0_all"  />
<polygon points="425,40 440,40 445,35 440,30 425,30 425,40 " style="fill:#d815b1; stroke-width:1; stroke:black; " description="&lt;b&gt;cds114622_115660&lt;/b&gt;&lt;br&gt;Adenosine kinase&lt;br&gt;Location: 114622 - 115660" locus_tag="cds114622_115660" class="clusterblast-orf" id="dummy-2_q18_0_all"  />
<polygon points="445,40 458,40 463,35 458,30 445,30 445,40 " style="fill:#d8b115; stroke-width:1; stroke:black; " description="&lt;b&gt;cds115656_116574&lt;/b&gt;&lt;br&gt;5,10-methylenetetrahydrofolate reductase&lt;br&gt;Location: 115656 - 116574" locus_tag="cds115656_116574" class="clusterblast-orf" id="dummy-2_q19_0_all"  />
<polygon points="475,35 480,30 497,30 497,40 480,40 475,35 " style="fill:#15d863; stroke-width:1; stroke:black; " description="&lt;b&gt;cds117189_118269&lt;/b&gt;&lt;br&gt;putative 3-ketosteroid-9-alpha-monooxygenase, oxygenase component&lt;br&gt;Location: 117189 - 118269" locus_tag="cds117189_118269" class="clusterblast-orf" id="dummy-2_q20_0_all"  />
<polygon points="497,35 502,30 517,30 517,40 502,40 497,35 " style="fill:#1515d8; stroke-width:1; stroke:black; " description="&lt;b&gt;cds118265_119321&lt;/b&gt;&lt;br&gt;Putative NADP-dependent oxidoreductase YfmJ&lt;br&gt;Location: 118265 - 119321" locus_tag="cds118265_119321" class="clusterblast-orf" id="dummy-2_q21_0_all"  />
<polygon points="517,35 522,30 550,30 550,40 522,40 517,35 " style="fill:#d81563; stroke-width:1; stroke:black; " description="&lt;b&gt;cds119317_120976&lt;/b&gt;&lt;br&gt;Phytoene desaturase (lycopene-forming)&lt;br&gt;Location: 119317 - 120976" locus_tag="cds119317_120976" class="clusterblast-orf" id="dummy-2_q22_0_all"  />
<polygon points="550,35 555,30 583,30 583,40 555,40 550,35 " style="fill:#b1d815; stroke-width:1; stroke:black; " description="&lt;b&gt;cds120972_122658&lt;/b&gt;&lt;br&gt;hypothetical protein&lt;br&gt;Location: 120972 - 122658" locus_tag="cds120972_122658" class="clusterblast-orf" id="dummy-2_q23_0_all"  />
<polygon points="583,35 588,30 767,30 767,40 588,40 583,35 " style="fill:#15d8b1; stroke-width:1; stroke:black; " description="&lt;b&gt;cds122644_131968&lt;/b&gt;&lt;br&gt;D-alanine--D-alanyl carrier protein ligase&lt;br&gt;Location: 122644 - 131968" locus_tag="cds122644_131968" class="clusterblast-orf" id="dummy-2_q24_0_all"  />
<polygon points="769,35 774,30 780,30 780,40 774,40 769,35 " style="fill:#6315d8; stroke-width:1; stroke:black; " description="&lt;b&gt;cds132105_132633&lt;/b&gt;&lt;br&gt;hypothetical protein&lt;br&gt;Location: 132105 - 132633" locus_tag="cds132105_132633" class="clusterblast-orf" id="dummy-2_q25_0_all"  />
</g>
<g label="BGC0001080" description="BGC0001080_c1: endophenazine A / endophenazine B (38% of genes show similarity), Other:Phenazine" class="clusterblast-cluster"  >
<text x="5" y="70" class="clusterblast-acc"  >
<a xlink:href="https://mibig.secondarymetabolites.org/go/BGC0001080/1" target="_blank">BGC0001080</a>:                                                endophenazine A / endophenazine B (38% of genes show similarity), Other:Phenazine</text>
<line x1="10" y1="85" x2="778.0" y2="85" style="stroke-width:1; stroke:grey; "  />
</g>
<g id="a2_000"  >
<polygon points="214,90 219,90 224,85 219,80 214,80 214,90 " style="fill:#d81515; stroke-width:1; stroke:black; " description="&lt;b&gt;CAX48672.1&lt;/b&gt;&lt;br&gt;Phenazine biosynthesis protein PhzA&lt;br&gt;Location: 17804 - 17316&lt;br&gt;&lt;br&gt;&lt;b&gt;BlastP hit with cds102605_103100&lt;/b&gt;&lt;br&gt;Percentage identity: 83&lt;br&gt;Percentage coverage: 95&lt;br&gt;BLAST bit score: 290&lt;br&gt;E-value: 1.2e-78" locus_tag="CAX48672.1" class="clusterblast-orf" id="dummy-2_h2_7_0"  />
</g>
<g id="a2_001"  >
<polygon points="224,90 243,90 248,85 243,80 224,80 224,90 " style="fill:#63d815; stroke-width:1; stroke:black; " description="&lt;b&gt;CAX48671.1&lt;/b&gt;&lt;br&gt;3-deoxy-D-arabino-heptulosonic acid 7-phosphate synthase&lt;br&gt;Location: 17281 - 16103&lt;br&gt;&lt;br&gt;&lt;b&gt;BlastP hit with cds103152_104325&lt;/b&gt;&lt;br&gt;Percentage identity: 69&lt;br&gt;Percentage coverage: 100&lt;br&gt;BLAST bit score: 547&lt;br&gt;E-value: 1.7e-155" locus_tag="CAX48671.1" class="clusterblast-orf" id="dummy-2_h2_7_1"  />
</g>
<g id="a2_002"  >
<polygon points="249,90 256,90 261,85 256,80 249,80 249,90 " style="fill:#15b1d8; stroke-width:1; stroke:black; " description="&lt;b&gt;CAX48670.1&lt;/b&gt;&lt;br&gt;2,3-dihydro-3-hydroxy-anthranilate synthase&lt;br&gt;Location: 16024 - 15401&lt;br&gt;&lt;br&gt;&lt;b&gt;BlastP hit with cds104361_104985&lt;/b&gt;&lt;br&gt;Percentage identity: 67&lt;br&gt;Percentage coverage: 100&lt;br&gt;BLAST bit score: 292&lt;br&gt;E-value: 7e-79" locus_tag="CAX48670.1" class="clusterblast-orf" id="dummy-2_h2_7_2"  />
</g>
<g id="a2_003"  >
<polygon points="261,90 295,90 300,85 295,80 261,80 261,90 " style="fill:#b115d8; stroke-width:1; stroke:black; " description="&lt;b&gt;CAX48669.1&lt;/b&gt;&lt;br&gt;2-amino-2-desoxy-isochorismate synthase&lt;br&gt;Location: 15404 - 13464&lt;br&gt;&lt;br&gt;&lt;b&gt;BlastP hit with cds104981_106976&lt;/b&gt;&lt;br&gt;Percentage identity: 68&lt;br&gt;Percentage coverage: 94&lt;br&gt;BLAST bit score: 846&lt;br&gt;E-value: 3.1e-245" locus_tag="CAX48669.1" class="clusterblast-orf" id="dummy-2_h2_7_3"  />
</g>
<g id="a2_004"  >
<polygon points="302,90 313,90 318,85 313,80 302,80 302,90 " style="fill:#d86315; stroke-width:1; stroke:black; " description="&lt;b&gt;CAX48668.1&lt;/b&gt;&lt;br&gt;trans-2,3-dihydro-3-hydroxyanthranilate isomerase&lt;br&gt;Location: 13367 - 12528&lt;br&gt;&lt;br&gt;&lt;b&gt;BlastP hit with cds107064_107901&lt;/b&gt;&lt;br&gt;Percentage identity: 72&lt;br&gt;Percentage coverage: 99&lt;br&gt;BLAST bit score: 404&lt;br&gt;E-value: 1.7e-112" locus_tag="CAX48668.1" class="clusterblast-orf" id="dummy-2_h2_7_4"  />
</g>
<g id="a2_005"  >
<polygon points="318,90 327,90 332,85 327,80 318,80 318,90 " style="fill:#15d815; stroke-width:1; stroke:black; " description="&lt;b&gt;CAX48667.1&lt;/b&gt;&lt;br&gt;FMN-dependent oxidase&lt;br&gt;Location: 12535 - 11834&lt;br&gt;&lt;br&gt;&lt;b&gt;BlastP hit with cds108031_108667&lt;/b&gt;&lt;br&gt;Percentage identity: 56&lt;br&gt;Percentage coverage: 101&lt;br&gt;BLAST bit score: 227&lt;br&gt;E-value: 1.6e-59" locus_tag="CAX48667.1" class="clusterblast-orf" id="dummy-2_h2_7_5"  />
</g>
<g id="a2_006"  >
<polygon points="332,90 337,90 342,85 337,80 332,80 332,90 " style="fill:#d81515; stroke-width:1; stroke:black; " description="&lt;b&gt;CAX48666.1&lt;/b&gt;&lt;br&gt;Phenazine biosynthesis protein PhzB&lt;br&gt;Location: 11798 - 11292&lt;br&gt;&lt;br&gt;&lt;b&gt;BlastP hit with cds102605_103100&lt;/b&gt;&lt;br&gt;Percentage identity: 53&lt;br&gt;Percentage coverage: 93&lt;br&gt;BLAST bit score: 182&lt;br&gt;E-value: 4.7e-46" locus_tag="CAX48666.1" class="clusterblast-orf" id="dummy-2_h2_7_6"  />
</g>
<g id="a2_007"  >
<polygon points="344,90 359,90 364,85 359,80 344,80 344,90 " style="fill:white; stroke-width:1; stroke:black; " description="&lt;b&gt;CAX48665.1&lt;/b&gt;&lt;br&gt;phenazine N-methyltransferase&lt;br&gt;Location: 11232 - 10210" locus_tag="CAX48665.1" class="clusterblast-orf" id="dummy-2_h2_7_7"  />
</g>
<g id="a2_008"  >
<polygon points="365,90 373,90 378,85 373,80 365,80 365,90 " style="fill:white; stroke-width:1; stroke:black; " description="&lt;b&gt;CAX48664.1&lt;/b&gt;&lt;br&gt;conserved hypothetical protein ovmZ-like&lt;br&gt;Location: 10121 - 9501" locus_tag="CAX48664.1" class="clusterblast-orf" id="dummy-2_h2_7_8"  />
</g>
<g id="a2_009"  >
<polygon points="381,85 386,80 395,80 395,90 386,90 381,85 " style="fill:white; stroke-width:1; stroke:black; " description="&lt;b&gt;CAX48663.1&lt;/b&gt;&lt;br&gt;Flavodoxin&lt;br&gt;Location: 9353 - 8628" locus_tag="CAX48663.1" class="clusterblast-orf" id="dummy-2_h2_7_9"  />
</g>
<g id="a2_0010"  >
<polygon points="396,85 401,80 415,80 415,90 401,90 396,85 " style="fill:white; stroke-width:1; stroke:black; " description="&lt;b&gt;CAX48662.1&lt;/b&gt;&lt;br&gt;3-oxoacyl-[acyl-carrier-protein] synthase&lt;br&gt;Location: 8570 - 7587" locus_tag="CAX48662.1" class="clusterblast-orf" id="dummy-2_h2_7_10"  />
</g>
<g id="a2_0011"  >
<polygon points="417,85 422,80 440,80 440,90 422,90 417,85 " style="fill:white; stroke-width:1; stroke:black; " description="&lt;b&gt;CAX48661.1&lt;/b&gt;&lt;br&gt;3-hydroxy-3-methylglutaryl-CoA synthase&lt;br&gt;Location: 7528 - 6353" locus_tag="CAX48661.1" class="clusterblast-orf" id="dummy-2_h2_7_11"  />
</g>
<g id="a2_0012"  >
<polygon points="440,85 445,80 461,80 461,90 445,90 440,85 " style="fill:white; stroke-width:1; stroke:black; " description="&lt;b&gt;CAX48660.1&lt;/b&gt;&lt;br&gt;3-hydroxy-3-methylglutaryl-CoA reductase&lt;br&gt;Location: 6349 - 5288" locus_tag="CAX48660.1" class="clusterblast-orf" id="dummy-2_h2_7_12"  />
</g>
<g id="a2_0013"  >
<polygon points="461,85 466,80 482,80 482,90 466,90 461,85 " style="fill:white; stroke-width:1; stroke:black; " description="&lt;b&gt;CAX48659.1&lt;/b&gt;&lt;br&gt;type II isopentenyl diphosphate delta isomerase&lt;br&gt;Location: 5291 - 4200" locus_tag="CAX48659.1" class="clusterblast-orf" id="dummy-2_h2_7_13"  />
</g>
<g id="a2_0014"  >
<polygon points="482,85 487,80 504,80 504,90 487,90 482,85 " style="fill:white; stroke-width:1; stroke:black; " description="&lt;b&gt;CAX48658.1&lt;/b&gt;&lt;br&gt;phosphomevalonate kinase&lt;br&gt;Location: 4203 - 3088" locus_tag="CAX48658.1" class="clusterblast-orf" id="dummy-2_h2_7_14"  />
</g>
<g id="a2_0015"  >
<polygon points="504,85 509,80 525,80 525,90 509,90 504,85 " style="fill:white; stroke-width:1; stroke:black; " description="&lt;b&gt;CAX48657.1&lt;/b&gt;&lt;br&gt;diphosphomevalonate decarboxylase&lt;br&gt;Location: 3091 - 2036" locus_tag="CAX48657.1" class="clusterblast-orf" id="dummy-2_h2_7_15"  />
</g>
<g id="a2_0016"  >
<polygon points="525,85 530,80 545,80 545,90 530,90 525,85 " style="fill:white; stroke-width:1; stroke:black; " description="&lt;b&gt;CAX48656.1&lt;/b&gt;&lt;br&gt;mevalonate kinase&lt;br&gt;Location: 2046 - 1009" locus_tag="CAX48656.1" class="clusterblast-orf" id="dummy-2_h2_7_16"  />
</g>
<g id="a2_0017"  >
<polygon points="547,85 552,80 565,80 565,90 552,90 547,85 " style="fill:white; stroke-width:1; stroke:black; " description="&lt;b&gt;CAX48655.1&lt;/b&gt;&lt;br&gt;5,10-dihydrophenazine-1-carboxylate 9-dimethylallyltransferase (dihydro-PCA prenyltransferase)&lt;br&gt;Location: 900 - 1" locus_tag="CAX48655.1" class="clusterblast-orf" id="dummy-2_h2_7_17"  />
</g>
</svg>
