<svg xmlns="http://www.w3.org/2000/svg" xmlns:xlink="http://www.w3.org/1999/xlink" version="1.1" x="0" y="0" height="230" width="800" viewBox="0 0 800 230" preserveAspectRatio="none"  >
<g label="Query sequence" class="clusterblast-cluster"  >
<text x="5" y="20" class="clusterblast-acc"  >
Query sequence</text>
<line x1="10" y1="35" x2="778.0" y2="35" style="stroke-width:1; stroke:grey; "  />
<polygon points="0,40 5,40 10,35 5,30 0,30 0,40 " style="fill:#d81515; stroke-width:1; stroke:black; " description="&lt;b&gt;cds18113_18665&lt;/b&gt;&lt;br&gt;hypothetical protein&lt;br&gt;Location: 18113 - 18665" locus_tag="cds18113_18665" class="clusterblast-orf" id="dummy-1_q0_0_all"  />
<polygon points="11,40 23,40 28,35 23,30 11,30 11,40 " style="fill:#5cd815; stroke-width:1; stroke:black; " description="&lt;b&gt;cds18714_19635&lt;/b&gt;&lt;br&gt;hypothetical protein&lt;br&gt;Location: 18714 - 19635" locus_tag="cds18714_19635" class="clusterblast-orf" id="dummy-1_q1_0_all"  />
<polygon points="29,35 34,30 56,30 56,40 34,40 29,35 " style="fill:white; stroke-width:1; stroke:black; " description="&lt;b&gt;cds19700_21182&lt;/b&gt;&lt;br&gt;Spore coat protein A&lt;br&gt;Location: 19700 - 21182" locus_tag="cds19700_21182" class="clusterblast-orf" id="dummy-1_q2_0_all"  />
<polygon points="60,40 71,40 76,35 71,30 60,30 60,40 " style="fill:white; stroke-width:1; stroke:black; " description="&lt;b&gt;cds21412_22282&lt;/b&gt;&lt;br&gt;27-O-demethylrifamycin SV methyltransferase&lt;br&gt;Location: 21412 - 22282" locus_tag="cds21412_22282" class="clusterblast-orf" id="dummy-1_q3_0_all"  />
<polygon points="78,40 94,40 99,35 94,30 78,30 78,40 " style="fill:white; stroke-width:1; stroke:black; " description="&lt;b&gt;cds22348_23494&lt;/b&gt;&lt;br&gt;hypothetical protein&lt;br&gt;Location: 22348 - 23494" locus_tag="cds22348_23494" class="clusterblast-orf" id="dummy-1_q4_0_all"  />
<polygon points="100,35 105,30 126,30 126,40 105,40 100,35 " style="fill:white; stroke-width:1; stroke:black; " description="&lt;b&gt;cds23567_24962&lt;/b&gt;&lt;br&gt;Mitomycin radical oxidase&lt;br&gt;Location: 23567 - 24962" locus_tag="cds23567_24962" class="clusterblast-orf" id="dummy-1_q5_0_all"  />
<polygon points="126,35 131,30 155,30 155,40 131,40 126,35 " style="fill:#15a3d8; stroke-width:1; stroke:black; " description="&lt;b&gt;cds24958_26524&lt;/b&gt;&lt;br&gt;2-methoxy-6-polyprenyl-1,4-benzoquinol methylase, mitochondrial&lt;br&gt;Location: 24958 - 26524" locus_tag="cds24958_26524" class="clusterblast-orf" id="dummy-1_q6_0_all"  />
<polygon points="159,35 164,30 165,30 165,40 164,40 159,35 " style="fill:white; stroke-width:1; stroke:black; " description="&lt;b&gt;cds26746_27082&lt;/b&gt;&lt;br&gt;hypothetical protein&lt;br&gt;Location: 26746 - 27082" locus_tag="cds26746_27082" class="clusterblast-orf" id="dummy-1_q7_0_all"  />
<polygon points="166,35 171,30 209,30 209,40 171,40 166,35 " style="fill:white; stroke-width:1; stroke:black; " description="&lt;b&gt;cds27150_29475&lt;/b&gt;&lt;br&gt;Periplasmic nitrate reductase&lt;br&gt;Location: 27150 - 29475" locus_tag="cds27150_29475" class="clusterblast-orf" id="dummy-1_q8_0_all"  />
<polygon points="211,40 221,40 226,35 221,30 211,30 211,40 " style="fill:white; stroke-width:1; stroke:black; " description="&lt;b&gt;cds29596_30424&lt;/b&gt;&lt;br&gt;Levodione reductase&lt;br&gt;Location: 29596 - 30424" locus_tag="cds29596_30424" class="clusterblast-orf" id="dummy-1_q9_0_all"  />
<polygon points="227,40 239,40 244,35 239,30 227,30 227,40 " style="fill:white; stroke-width:1; stroke:black; " description="&lt;b&gt;cds30472_31354&lt;/b&gt;&lt;br&gt;F420-dependent glucose-6-phosphate dehydrogenase&lt;br&gt;Location: 30472 - 31354" locus_tag="cds30472_31354" class="clusterblast-orf" id="dummy-1_q10_0_all"  />
<polygon points="247,35 252,30 275,30 275,40 252,40 247,35 " style="fill:#9115d8; stroke-width:1; stroke:black; " description="&lt;b&gt;cds31534_33049&lt;/b&gt;&lt;br&gt;Aclacinomycin-N/aclacinomycin-A oxidase&lt;br&gt;Location: 31534 - 33049" locus_tag="cds31534_33049" class="clusterblast-orf" id="dummy-1_q11_0_all"  />
<polygon points="278,35 283,30 304,30 304,40 283,40 278,35 " style="fill:#d84a15; stroke-width:1; stroke:black; " description="&lt;b&gt;cds33232_34657&lt;/b&gt;&lt;br&gt;sn-glycerol-3-phosphate-binding periplasmic protein UgpB&lt;br&gt;Location: 33232 - 34657" locus_tag="cds33232_34657" class="clusterblast-orf" id="dummy-1_q12_0_all"  />
<polygon points="309,40 327,40 332,35 327,30 309,30 309,40 " style="fill:#27d815; stroke-width:1; stroke:black; " description="&lt;b&gt;cds34927_36169&lt;/b&gt;&lt;br&gt;Flavin-dependent monooxygenase, oxygenase subunit HsaA&lt;br&gt;Location: 34927 - 36169" locus_tag="cds34927_36169" class="clusterblast-orf" id="dummy-1_q13_0_all"  />
<polygon points="334,40 356,40 361,35 356,30 334,30 334,40 " style="fill:#156ed8; stroke-width:1; stroke:black; " description="&lt;b&gt;cds36277_37717&lt;/b&gt;&lt;br&gt;hypothetical protein&lt;br&gt;Location: 36277 - 37717" locus_tag="cds36277_37717" class="clusterblast-orf" id="dummy-1_q14_0_all"  />
<polygon points="361,40 408,40 413,35 408,30 361,30 361,40 " style="fill:white; stroke-width:1; stroke:black; " description="&lt;b&gt;cds37748_40562&lt;/b&gt;&lt;br&gt;Dimodular nonribosomal peptide synthase&lt;br&gt;Location: 37748 - 40562" locus_tag="cds37748_40562" class="clusterblast-orf" id="dummy-1_q15_0_all"  />
<polygon points="414,40 439,40 444,35 439,30 414,30 414,40 " style="fill:#c715d8; stroke-width:1; stroke:black; " description="&lt;b&gt;cds40635_42261&lt;/b&gt;&lt;br&gt;MIO-dependent tyrosine 2,3-aminomutase&lt;br&gt;Location: 40635 - 42261" locus_tag="cds40635_42261" class="clusterblast-orf" id="dummy-1_q16_0_all"  />
<polygon points="446,40 466,40 471,35 466,30 446,30 446,40 " style="fill:#d88015; stroke-width:1; stroke:black; " description="&lt;b&gt;cds42368_43712&lt;/b&gt;&lt;br&gt;Linear gramicidin synthase subunit B&lt;br&gt;Location: 42368 - 43712" locus_tag="cds42368_43712" class="clusterblast-orf" id="dummy-1_q17_0_all"  />
<polygon points="472,35 477,30 501,30 501,40 477,40 472,35 " style="fill:#15d839; stroke-width:1; stroke:black; " description="&lt;b&gt;cds43769_45353&lt;/b&gt;&lt;br&gt;4-nitrophenol 2-monooxygenase, oxygenase component&lt;br&gt;Location: 43769 - 45353" locus_tag="cds43769_45353" class="clusterblast-orf" id="dummy-1_q18_0_all"  />
<polygon points="506,40 523,40 528,35 523,30 506,30 506,40 " style="fill:#1539d8; stroke-width:1; stroke:black; " description="&lt;b&gt;cds45596_46781&lt;/b&gt;&lt;br&gt;Flavin-dependent monooxygenase, oxygenase subunit HsaA&lt;br&gt;Location: 45596 - 46781" locus_tag="cds45596_46781" class="clusterblast-orf" id="dummy-1_q19_0_all"  />
<polygon points="529,40 532,40 537,35 532,30 529,30 529,40 " style="fill:#d815b5; stroke-width:1; stroke:black; " description="&lt;b&gt;cds46844_47279&lt;/b&gt;&lt;br&gt;hypothetical protein&lt;br&gt;Location: 46844 - 47279" locus_tag="cds46844_47279" class="clusterblast-orf" id="dummy-1_q20_0_all"  />
<polygon points="538,35 543,30 561,30 561,40 543,40 538,35 " style="fill:#d8b515; stroke-width:1; stroke:black; " description="&lt;b&gt;cds47364_48612&lt;/b&gt;&lt;br&gt;2-hydroxy-5-methyl-1-naphthoate 7-hydroxylase&lt;br&gt;Location: 47364 - 48612" locus_tag="cds47364_48612" class="clusterblast-orf" id="dummy-1_q21_0_all"  />
<polygon points="563,35 568,30 579,30 579,40 568,40 563,35 " style="fill:white; stroke-width:1; stroke:black; " description="&lt;b&gt;cds48705_49569&lt;/b&gt;&lt;br&gt;hypothetical protein&lt;br&gt;Location: 48705 - 49569" locus_tag="cds48705_49569" class="clusterblast-orf" id="dummy-1_q22_0_all"  />
<polygon points="580,35 585,30 585,30 585,40 585,40 580,35 " style="fill:#15d86e; stroke-width:1; stroke:black; " description="&lt;b&gt;cds49631_49904&lt;/b&gt;&lt;br&gt;hypothetical protein&lt;br&gt;Location: 49631 - 49904" locus_tag="cds49631_49904" class="clusterblast-orf" id="dummy-1_q23_0_all"  />
<polygon points="588,35 593,30 604,30 604,40 593,40 588,35 " style="fill:#2715d8; stroke-width:1; stroke:black; " description="&lt;b&gt;cds50037_50910&lt;/b&gt;&lt;br&gt;Glucose-1-phosphate thymidylyltransferase 1&lt;br&gt;Location: 50037 - 50910" locus_tag="cds50037_50910" class="clusterblast-orf" id="dummy-1_q24_0_all"  />
<polygon points="605,35 610,30 627,30 627,40 610,40 605,35 " style="fill:#d81580; stroke-width:1; stroke:black; " description="&lt;b&gt;cds50964_52185&lt;/b&gt;&lt;br&gt;hypothetical protein&lt;br&gt;Location: 50964 - 52185" locus_tag="cds50964_52185" class="clusterblast-orf" id="dummy-1_q25_0_all"  />
<polygon points="630,35 635,30 653,30 653,40 635,40 630,35 " style="fill:#c7d815; stroke-width:1; stroke:black; " description="&lt;b&gt;cds52342_53581&lt;/b&gt;&lt;br&gt;hypothetical protein&lt;br&gt;Location: 52342 - 53581" locus_tag="cds52342_53581" class="clusterblast-orf" id="dummy-1_q26_0_all"  />
<polygon points="653,35 658,30 677,30 677,40 658,40 653,35 " style="fill:#15d8a3; stroke-width:1; stroke:black; " description="&lt;b&gt;cds53600_54893&lt;/b&gt;&lt;br&gt;Aclacinomycin-T 2-deoxy-L-fucose transferase&lt;br&gt;Location: 53600 - 54893" locus_tag="cds53600_54893" class="clusterblast-orf" id="dummy-1_q27_0_all"  />
<polygon points="678,35 683,30 699,30 699,40 683,40 678,35 " style="fill:#5c15d8; stroke-width:1; stroke:black; " description="&lt;b&gt;cds54963_56073&lt;/b&gt;&lt;br&gt;dTDP-3-amino-3,4,6-trideoxy-alpha-D-glucose transaminase&lt;br&gt;Location: 54963 - 56073" locus_tag="cds54963_56073" class="clusterblast-orf" id="dummy-1_q28_0_all"  />
<polygon points="703,35 708,30 728,30 728,40 708,40 703,35 " style="fill:#d8154a; stroke-width:1; stroke:black; " description="&lt;b&gt;cds56275_57670&lt;/b&gt;&lt;br&gt;dTDP-4-dehydro-6-deoxy-alpha-D-glucopyranose 2,3-dehydratase&lt;br&gt;Location: 56275 - 57670" locus_tag="cds56275_57670" class="clusterblast-orf" id="dummy-1_q29_0_all"  />
<polygon points="734,40 748,40 753,35 748,30 734,30 734,40 " style="fill:#91d815; stroke-width:1; stroke:black; " description="&lt;b&gt;cds57984_58992&lt;/b&gt;&lt;br&gt;dTDP-glucose 4,6-dehydratase&lt;br&gt;Location: 57984 - 58992" locus_tag="cds57984_58992" class="clusterblast-orf" id="dummy-1_q30_0_all"  />
<polygon points="753,35 758,30 780,30 780,40 758,40 753,35 " style="fill:#15d8d8; stroke-width:1; stroke:black; " description="&lt;b&gt;cds59038_60466&lt;/b&gt;&lt;br&gt;UDP-N-acetyl-D-glucosamine 6-dehydrogenase&lt;br&gt;Location: 59038 - 60466" locus_tag="cds59038_60466" class="clusterblast-orf" id="dummy-1_q31_0_all"  />
</g>
<g label="BGC0000212" description="BGC0000212_c1: cinerubin B (11% of genes show similarity), Polyketide:Type II" class="clusterblast-cluster"  >
<text x="5" y="70" class="clusterblast-acc"  >
<a xlink:href="https://mibig.secondarymetabolites.org/go/BGC0000212/1" target="_blank">BGC0000212</a>:                                                                      cinerubin B (11% of genes show similarity), Polyketide:Type II</text>
<line x1="10" y1="85" x2="778.0" y2="85" style="stroke-width:1; stroke:grey; "  />
</g>
<g id="a1_000"  >
<polygon points="66,90 79,90 84,85 79,80 66,80 66,90 " style="fill:white; stroke-width:1; stroke:black; " description="&lt;b&gt;SSBG_00514&lt;/b&gt;&lt;br&gt;transcriptional regulatory protein, C&lt;br&gt;Location: 35117 - 34158" locus_tag="SSBG_00514" class="clusterblast-orf" id="dummy-1_h1_8_0"  />
</g>
<g id="a1_001"  >
<polygon points="84,85 89,80 108,80 108,90 89,90 84,85 " style="fill:white; stroke-width:1; stroke:black; " description="&lt;b&gt;SSBG_00513&lt;/b&gt;&lt;br&gt;lipopolysaccharide biosynthesis protein RfbH&lt;br&gt;Location: 34142 - 32820" locus_tag="SSBG_00513" class="clusterblast-orf" id="dummy-1_h1_8_1"  />
</g>
<g id="a1_002"  >
<polygon points="111,90 123,90 128,85 123,80 111,80 111,90 " style="fill:white; stroke-width:1; stroke:black; " description="&lt;b&gt;SSBG_00512&lt;/b&gt;&lt;br&gt;oxidoreductase family, NAD-binding Rossmann fold protein&lt;br&gt;Location: 32675 - 31777" locus_tag="SSBG_00512" class="clusterblast-orf" id="dummy-1_h1_8_2"  />
</g>
<g id="a1_003"  >
<polygon points="132,85 137,80 150,80 150,90 137,90 132,85 " style="fill:white; stroke-width:1; stroke:black; " description="&lt;b&gt;SSBG_00511&lt;/b&gt;&lt;br&gt;dTDP-glucose 4,6-dehydratase&lt;br&gt;Location: 31534 - 30548" locus_tag="SSBG_00511" class="clusterblast-orf" id="dummy-1_h1_8_3"  />
</g>
<g id="a1_004"  >
<polygon points="150,85 155,80 174,80 174,90 155,90 150,85 " style="fill:white; stroke-width:1; stroke:black; " description="&lt;b&gt;SSBG_00510&lt;/b&gt;&lt;br&gt;glycosyltransferase family 28 domain-containing protein&lt;br&gt;Location: 30551 - 29235" locus_tag="SSBG_00510" class="clusterblast-orf" id="dummy-1_h1_8_4"  />
</g>
<g id="a1_005"  >
<polygon points="175,85 180,80 199,80 199,90 180,90 175,85 " style="fill:white; stroke-width:1; stroke:black; " description="&lt;b&gt;SSBG_00509&lt;/b&gt;&lt;br&gt;conserved hypothetical protein&lt;br&gt;Location: 29216 - 27879" locus_tag="SSBG_00509" class="clusterblast-orf" id="dummy-1_h1_8_5"  />
</g>
<g id="a1_006"  >
<polygon points="200,85 205,80 215,80 215,90 205,90 200,85 " style="fill:white; stroke-width:1; stroke:black; " description="&lt;b&gt;SSBG_00508&lt;/b&gt;&lt;br&gt;ketoreductase&lt;br&gt;Location: 27855 - 27025" locus_tag="SSBG_00508" class="clusterblast-orf" id="dummy-1_h1_8_6"  />
</g>
<g id="a1_007"  >
<polygon points="215,85 220,80 223,80 223,90 220,90 215,85 " style="fill:white; stroke-width:1; stroke:black; " description="&lt;b&gt;SSBG_00507&lt;/b&gt;&lt;br&gt;hydroxylacyl-CoA dehydrogenase&lt;br&gt;Location: 27041 - 26607" locus_tag="SSBG_00507" class="clusterblast-orf" id="dummy-1_h1_8_7"  />
</g>
<g id="a1_008"  >
<polygon points="227,90 236,90 241,85 236,80 227,80 227,90 " style="fill:white; stroke-width:1; stroke:black; " description="&lt;b&gt;SSBG_00505&lt;/b&gt;&lt;br&gt;cyclase superfamily protein&lt;br&gt;Location: 26407 - 25628" locus_tag="SSBG_00505" class="clusterblast-orf" id="dummy-1_h1_8_8"  />
</g>
<g id="a1_009"  >
<polygon points="242,90 251,90 256,85 251,80 242,80 242,90 " style="fill:white; stroke-width:1; stroke:black; " description="&lt;b&gt;SSBG_00504&lt;/b&gt;&lt;br&gt;methyltransferase type 11&lt;br&gt;Location: 25553 - 24834" locus_tag="SSBG_00504" class="clusterblast-orf" id="dummy-1_h1_8_9"  />
</g>
<g id="a1_0010"  >
<polygon points="257,85 262,80 273,80 273,90 262,90 257,85 " style="fill:#2715d8; stroke-width:1; stroke:black; " description="&lt;b&gt;SSBG_00503&lt;/b&gt;&lt;br&gt;glucose-1-phosphate thymidylyltransferase&lt;br&gt;Location: 24773 - 23898&lt;br&gt;&lt;br&gt;&lt;b&gt;BlastP hit with cds50037_50910&lt;/b&gt;&lt;br&gt;Percentage identity: 63&lt;br&gt;Percentage coverage: 99&lt;br&gt;BLAST bit score: 373&lt;br&gt;E-value: 2.6e-103" locus_tag="SSBG_00503" class="clusterblast-orf" id="dummy-1_h1_8_10"  />
</g>
<g id="a1_0011"  >
<polygon points="276,90 292,90 297,85 292,80 276,80 276,90 " style="fill:#5c15d8; stroke-width:1; stroke:black; " description="&lt;b&gt;SSBG_00502&lt;/b&gt;&lt;br&gt;daunorubicin biosynthesis sensory transduction protein DnrJ&lt;br&gt;Location: 23700 - 22591&lt;br&gt;&lt;br&gt;&lt;b&gt;BlastP hit with cds54963_56073&lt;/b&gt;&lt;br&gt;Percentage identity: 74&lt;br&gt;Percentage coverage: 99&lt;br&gt;BLAST bit score: 554&lt;br&gt;E-value: 1e-157" locus_tag="SSBG_00502" class="clusterblast-orf" id="dummy-1_h1_8_11"  />
</g>
<g id="a1_0012"  >
<polygon points="300,85 305,80 325,80 325,90 305,90 300,85 " style="fill:#d8154a; stroke-width:1; stroke:black; " description="&lt;b&gt;SSBG_00501&lt;/b&gt;&lt;br&gt;dTDP-4-keto-6-deoxy-L-hexose2,3-dehydratase&lt;br&gt;Location: 22425 - 21079&lt;br&gt;&lt;br&gt;&lt;b&gt;BlastP hit with cds56275_57670&lt;/b&gt;&lt;br&gt;Percentage identity: 46&lt;br&gt;Percentage coverage: 101&lt;br&gt;BLAST bit score: 396&lt;br&gt;E-value: 7.7e-110" locus_tag="SSBG_00501" class="clusterblast-orf" id="dummy-1_h1_8_12"  />
</g>
<g id="a1_0013"  >
<polygon points="328,85 333,80 346,80 346,90 333,90 328,85 " style="fill:white; stroke-width:1; stroke:black; " description="&lt;b&gt;SSBG_00500&lt;/b&gt;&lt;br&gt;NAD dependent epimerase/dehydratase&lt;br&gt;Location: 20871 - 19936" locus_tag="SSBG_00500" class="clusterblast-orf" id="dummy-1_h1_8_13"  />
</g>
<g id="a1_0014"  >
<polygon points="346,85 351,80 357,80 357,90 351,90 346,85 " style="fill:white; stroke-width:1; stroke:black; " description="&lt;b&gt;SSBG_00499&lt;/b&gt;&lt;br&gt;dTDP-4-dehydrorhamnose 3,5-epimerase&lt;br&gt;Location: 19939 - 19322" locus_tag="SSBG_00499" class="clusterblast-orf" id="dummy-1_h1_8_14"  />
</g>
<g id="a1_0015"  >
<polygon points="357,85 362,80 381,80 381,90 362,90 357,85 " style="fill:white; stroke-width:1; stroke:black; " description="&lt;b&gt;SSBG_00498&lt;/b&gt;&lt;br&gt;glycosyltransferase family 28 domain-containing protein&lt;br&gt;Location: 19321 - 17999" locus_tag="SSBG_00498" class="clusterblast-orf" id="dummy-1_h1_8_15"  />
</g>
<g id="a1_0016"  >
<polygon points="385,85 390,80 410,80 410,90 390,90 385,85 " style="fill:white; stroke-width:1; stroke:black; " description="&lt;b&gt;SSBG_00497&lt;/b&gt;&lt;br&gt;granaticin polyketide synthase bifunctional cyclase/dehydratase&lt;br&gt;Location: 17784 - 16432" locus_tag="SSBG_00497" class="clusterblast-orf" id="dummy-1_h1_8_16"  />
</g>
<g id="a1_0017"  >
<polygon points="411,85 416,80 426,80 426,90 416,90 411,85 " style="fill:white; stroke-width:1; stroke:black; " description="&lt;b&gt;SSBG_00496&lt;/b&gt;&lt;br&gt;monensin polyketide synthase ketoacyl reductase&lt;br&gt;Location: 16384 - 15599" locus_tag="SSBG_00496" class="clusterblast-orf" id="dummy-1_h1_8_17"  />
</g>
<g id="a1_0018"  >
<polygon points="430,90 431,90 436,85 431,80 430,80 430,90 " style="fill:white; stroke-width:1; stroke:black; " description="&lt;b&gt;SSBG_00495&lt;/b&gt;&lt;br&gt;antibiotic biosynthesis monooxygenase subfamily&lt;br&gt;Location: 15367 - 15011" locus_tag="SSBG_00495" class="clusterblast-orf" id="dummy-1_h1_8_18"  />
</g>
<g id="a1_0019"  >
<polygon points="436,90 455,90 460,85 455,80 436,80 436,90 " style="fill:white; stroke-width:1; stroke:black; " description="&lt;b&gt;SSBG_00494&lt;/b&gt;&lt;br&gt;tetracenomycin C polyketide beta-ketoacyl synthase 1&lt;br&gt;Location: 15014 - 13740" locus_tag="SSBG_00494" class="clusterblast-orf" id="dummy-1_h1_8_19"  />
</g>
<g id="a1_0020"  >
<polygon points="460,90 478,90 483,85 478,80 460,80 460,90 " style="fill:white; stroke-width:1; stroke:black; " description="&lt;b&gt;SSBG_00493&lt;/b&gt;&lt;br&gt;tetracenomycin C polyketide beta-ketoacyl synthase 2&lt;br&gt;Location: 13743 - 12505" locus_tag="SSBG_00493" class="clusterblast-orf" id="dummy-1_h1_8_20"  />
</g>
<g id="a1_0021"  >
<polygon points="484,90 484,90 489,85 484,80 484,80 484,90 " style="fill:white; stroke-width:1; stroke:black; " description="&lt;b&gt;SSBG_00492&lt;/b&gt;&lt;br&gt;oxytetracycline polyketide synthase acyl carrier protein (ACP)&lt;br&gt;Location: 12414 - 12136" locus_tag="SSBG_00492" class="clusterblast-orf" id="dummy-1_h1_8_21"  />
</g>
<g id="a1_0022"  >
<polygon points="489,90 504,90 509,85 504,80 489,80 489,90 " style="fill:white; stroke-width:1; stroke:black; " description="&lt;b&gt;SSBG_00491&lt;/b&gt;&lt;br&gt;3-oxoacyl-ACP synthase III&lt;br&gt;Location: 12139 - 11075" locus_tag="SSBG_00491" class="clusterblast-orf" id="dummy-1_h1_8_22"  />
</g>
<g id="a1_0023"  >
<polygon points="509,90 524,90 529,85 524,80 509,80 509,90 " style="fill:white; stroke-width:1; stroke:black; " description="&lt;b&gt;SSBG_00490&lt;/b&gt;&lt;br&gt;modular polyketide synthase&lt;br&gt;Location: 11078 - 9981" locus_tag="SSBG_00490" class="clusterblast-orf" id="dummy-1_h1_8_23"  />
</g>
<g id="a1_0024"  >
<polygon points="532,85 537,80 548,80 548,90 537,90 532,85 " style="fill:white; stroke-width:1; stroke:black; " description="&lt;b&gt;SSBG_00489&lt;/b&gt;&lt;br&gt;methyltransferase domain-containing protein&lt;br&gt;Location: 9838 - 8978" locus_tag="SSBG_00489" class="clusterblast-orf" id="dummy-1_h1_8_24"  />
</g>
<g id="a1_0025"  >
<polygon points="551,90 554,90 559,85 554,80 551,80 551,90 " style="fill:white; stroke-width:1; stroke:black; " description="&lt;b&gt;SSBG_00488&lt;/b&gt;&lt;br&gt;conserved hypothetical protein&lt;br&gt;Location: 8777 - 8343" locus_tag="SSBG_00488" class="clusterblast-orf" id="dummy-1_h1_8_25"  />
</g>
<g id="a1_0026"  >
<polygon points="560,90 571,90 576,85 571,80 560,80 560,90 " style="fill:white; stroke-width:1; stroke:black; " description="&lt;b&gt;SSBG_00487&lt;/b&gt;&lt;br&gt;transcriptional regulatory protein, C&lt;br&gt;Location: 8297 - 7452" locus_tag="SSBG_00487" class="clusterblast-orf" id="dummy-1_h1_8_26"  />
</g>
<g id="a1_0027"  >
<polygon points="577,90 581,90 586,85 581,80 577,80 577,90 " style="fill:white; stroke-width:1; stroke:black; " description="&lt;b&gt;SSBG_00486&lt;/b&gt;&lt;br&gt;conserved hypothetical protein&lt;br&gt;Location: 7361 - 6882" locus_tag="SSBG_00486" class="clusterblast-orf" id="dummy-1_h1_8_27"  />
</g>
<g id="a1_0028"  >
<polygon points="588,90 612,90 617,85 612,80 588,80 588,90 " style="fill:#9115d8; stroke-width:1; stroke:black; " description="&lt;b&gt;SSBG_00485&lt;/b&gt;&lt;br&gt;secreted FAD-binding protein&lt;br&gt;Location: 6776 - 5217&lt;br&gt;&lt;br&gt;&lt;b&gt;BlastP hit with cds31534_33049&lt;/b&gt;&lt;br&gt;Percentage identity: 50&lt;br&gt;Percentage coverage: 99&lt;br&gt;BLAST bit score: 488&lt;br&gt;E-value: 1.6e-137" locus_tag="SSBG_00485" class="clusterblast-orf" id="dummy-1_h1_8_28"  />
</g>
<g id="a1_0029"  >
<polygon points="619,85 624,80 633,80 633,90 624,90 619,85 " style="fill:white; stroke-width:1; stroke:black; " description="&lt;b&gt;SSBG_00484&lt;/b&gt;&lt;br&gt;methyltransferase type 11&lt;br&gt;Location: 5075 - 4347" locus_tag="SSBG_00484" class="clusterblast-orf" id="dummy-1_h1_8_29"  />
</g>
<g id="a1_0030"  >
<polygon points="633,85 638,80 648,80 648,90 638,90 633,85 " style="fill:white; stroke-width:1; stroke:black; " description="&lt;b&gt;SSBG_00483&lt;/b&gt;&lt;br&gt;NAD dependent epimerase/dehydratase&lt;br&gt;Location: 4333 - 3524" locus_tag="SSBG_00483" class="clusterblast-orf" id="dummy-1_h1_8_30"  />
</g>
<g id="a1_0031"  >
<polygon points="653,90 656,90 661,85 656,80 653,80 653,90 " style="fill:white; stroke-width:1; stroke:black; " description="&lt;b&gt;SSBG_00482&lt;/b&gt;&lt;br&gt;conserved hypothetical protein&lt;br&gt;Location: 3272 - 2838" locus_tag="SSBG_00482" class="clusterblast-orf" id="dummy-1_h1_8_31"  />
</g>
<g id="a1_0032"  >
<polygon points="664,90 670,90 675,85 670,80 664,80 664,90 " style="fill:white; stroke-width:1; stroke:black; " description="&lt;b&gt;SSBG_00481&lt;/b&gt;&lt;br&gt;transcriptional regulator&lt;br&gt;Location: 2659 - 2039" locus_tag="SSBG_00481" class="clusterblast-orf" id="dummy-1_h1_8_32"  />
</g>
<g id="a1_0033"  >
<polygon points="679,90 692,90 697,85 692,80 679,80 679,90 " style="fill:white; stroke-width:1; stroke:black; " description="&lt;b&gt;SSBG_00479&lt;/b&gt;&lt;br&gt;daunorubicin resistance ATP-binding protein DrrA&lt;br&gt;Location: 1832 - 852" locus_tag="SSBG_00479" class="clusterblast-orf" id="dummy-1_h1_8_33"  />
</g>
<g id="a1_0034"  >
<polygon points="697,90 708,90 713,85 708,80 697,80 697,90 " style="fill:white; stroke-width:1; stroke:black; " description="&lt;b&gt;SSBG_00478&lt;/b&gt;&lt;br&gt;daunorubicin resistance transmembrane protein&lt;br&gt;Location: 855 - 1" locus_tag="SSBG_00478" class="clusterblast-orf" id="dummy-1_h1_8_34"  />
</g>
</svg>
