<svg xmlns="http://www.w3.org/2000/svg" xmlns:xlink="http://www.w3.org/1999/xlink" version="1.1" x="0" y="0" height="230" width="800" viewBox="0 0 800 230" preserveAspectRatio="none"  >
<g label="Query sequence" class="clusterblast-cluster"  >
<text x="5" y="20" class="clusterblast-acc"  >
Query sequence</text>
<line x1="10" y1="35" x2="778.0" y2="35" style="stroke-width:1; stroke:grey; "  />
<polygon points="64,35 69,30 81,30 81,40 69,40 64,35 " style="fill:white; stroke-width:1; stroke:black; " description="&lt;b&gt;cds164_1667&lt;/b&gt;&lt;br&gt;Catalase&lt;br&gt;Location: 164 - 1667" locus_tag="cds164_1667" class="clusterblast-orf" id="dummy-1_q0_0_all"  />
<polygon points="81,35 86,30 86,30 86,40 86,40 81,35 " style="fill:white; stroke-width:1; stroke:black; " description="&lt;b&gt;cds1629_2067&lt;/b&gt;&lt;br&gt;Transcriptional regulator FurA&lt;br&gt;Location: 1629 - 2067" locus_tag="cds1629_2067" class="clusterblast-orf" id="dummy-1_q1_0_all"  />
<polygon points="88,40 100,40 105,35 100,30 88,30 88,40 " style="fill:white; stroke-width:1; stroke:black; " description="&lt;b&gt;cds2242_3730&lt;/b&gt;&lt;br&gt;putative bifunctional transcriptional activator/DNA repair enzyme AlkA&lt;br&gt;Location: 2242 - 3730" locus_tag="cds2242_3730" class="clusterblast-orf" id="dummy-1_q2_0_all"  />
<polygon points="106,40 107,40 112,35 107,30 106,30 106,40 " style="fill:white; stroke-width:1; stroke:black; " description="&lt;b&gt;cds3811_4321&lt;/b&gt;&lt;br&gt;Methylated-DNA--protein-cysteine methyltransferase&lt;br&gt;Location: 3811 - 4321" locus_tag="cds3811_4321" class="clusterblast-orf" id="dummy-1_q3_0_all"  />
<polygon points="115,40 115,40 120,35 115,30 115,30 115,40 " style="fill:white; stroke-width:1; stroke:black; " description="&lt;b&gt;cds4523_5027&lt;/b&gt;&lt;br&gt;hypothetical protein&lt;br&gt;Location: 4523 - 5027" locus_tag="cds4523_5027" class="clusterblast-orf" id="dummy-1_q4_0_all"  />
<polygon points="120,40 132,40 137,35 132,30 120,30 120,40 " style="fill:white; stroke-width:1; stroke:black; " description="&lt;b&gt;cds5026_6454&lt;/b&gt;&lt;br&gt;hypothetical protein&lt;br&gt;Location: 5026 - 6454" locus_tag="cds5026_6454" class="clusterblast-orf" id="dummy-1_q5_0_all"  />
<polygon points="137,40 149,40 154,35 149,30 137,30 137,40 " style="fill:white; stroke-width:1; stroke:black; " description="&lt;b&gt;cds6450_7866&lt;/b&gt;&lt;br&gt;hypothetical protein&lt;br&gt;Location: 6450 - 7866" locus_tag="cds6450_7866" class="clusterblast-orf" id="dummy-1_q6_0_all"  />
<polygon points="154,40 162,40 167,35 162,30 154,30 154,40 " style="fill:white; stroke-width:1; stroke:black; " description="&lt;b&gt;cds7916_9029&lt;/b&gt;&lt;br&gt;putative protein YehL&lt;br&gt;Location: 7916 - 9029" locus_tag="cds7916_9029" class="clusterblast-orf" id="dummy-1_q7_0_all"  />
<polygon points="167,40 195,40 200,35 195,30 167,30 167,40 " style="fill:white; stroke-width:1; stroke:black; " description="&lt;b&gt;cds9025_11821&lt;/b&gt;&lt;br&gt;hypothetical protein&lt;br&gt;Location: 9025 - 11821" locus_tag="cds9025_11821" class="clusterblast-orf" id="dummy-1_q8_0_all"  />
<polygon points="202,40 216,40 221,35 216,30 202,30 202,40 " style="fill:white; stroke-width:1; stroke:black; " description="&lt;b&gt;cds12033_13605&lt;/b&gt;&lt;br&gt;Proline/betaine transporter&lt;br&gt;Location: 12033 - 13605" locus_tag="cds12033_13605" class="clusterblast-orf" id="dummy-1_q9_0_all"  />
<polygon points="227,40 229,35 227,30 227,40 " style="fill:#d81515; stroke-width:1; stroke:black; " description="&lt;b&gt;cds14120_14339&lt;/b&gt;&lt;br&gt;Protein MbtH&lt;br&gt;Location: 14120 - 14339" locus_tag="cds14120_14339" class="clusterblast-orf" id="dummy-1_q10_0_all"  />
<polygon points="234,40 398,40 403,35 398,30 234,30 234,40 " style="fill:#15d8d8; stroke-width:1; stroke:black; " description="&lt;b&gt;cds14742_29220&lt;/b&gt;&lt;br&gt;Tyrocidine synthase 3&lt;br&gt;Location: 14742 - 29220" locus_tag="cds14742_29220" class="clusterblast-orf" id="dummy-1_q11_0_all"  />
<polygon points="403,40 486,40 491,35 486,30 403,30 403,40 " style="fill:#15d8d8; stroke-width:1; stroke:black; " description="&lt;b&gt;cds29216_36776&lt;/b&gt;&lt;br&gt;Linear gramicidin synthase subunit D&lt;br&gt;Location: 29216 - 36776" locus_tag="cds29216_36776" class="clusterblast-orf" id="dummy-1_q12_0_all"  />
<polygon points="491,40 491,40 496,35 491,30 491,30 491,40 " style="fill:white; stroke-width:1; stroke:black; " description="&lt;b&gt;cds36821_37274&lt;/b&gt;&lt;br&gt;hypothetical protein&lt;br&gt;Location: 36821 - 37274" locus_tag="cds36821_37274" class="clusterblast-orf" id="dummy-1_q13_0_all"  />
<polygon points="498,40 505,40 510,35 505,30 498,30 498,40 " style="fill:white; stroke-width:1; stroke:black; " description="&lt;b&gt;cds37373_38432&lt;/b&gt;&lt;br&gt;hypothetical protein&lt;br&gt;Location: 37373 - 38432" locus_tag="cds37373_38432" class="clusterblast-orf" id="dummy-1_q14_0_all"  />
<polygon points="513,40 521,40 526,35 521,30 513,30 513,40 " style="fill:white; stroke-width:1; stroke:black; " description="&lt;b&gt;cds38713_39781&lt;/b&gt;&lt;br&gt;hypothetical protein&lt;br&gt;Location: 38713 - 39781" locus_tag="cds38713_39781" class="clusterblast-orf" id="dummy-1_q15_0_all"  />
<polygon points="526,35 529,30 529,40 526,35 " style="fill:white; stroke-width:1; stroke:black; " description="&lt;b&gt;cds39842_40028&lt;/b&gt;&lt;br&gt;hypothetical protein&lt;br&gt;Location: 39842 - 40028" locus_tag="cds39842_40028" class="clusterblast-orf" id="dummy-1_q16_0_all"  />
<polygon points="529,35 532,30 532,40 529,35 " style="fill:white; stroke-width:1; stroke:black; " description="&lt;b&gt;cds40024_40312&lt;/b&gt;&lt;br&gt;hypothetical protein&lt;br&gt;Location: 40024 - 40312" locus_tag="cds40024_40312" class="clusterblast-orf" id="dummy-1_q17_0_all"  />
<polygon points="534,35 539,30 539,30 539,40 539,40 534,35 " style="fill:white; stroke-width:1; stroke:black; " description="&lt;b&gt;cds40480_40894&lt;/b&gt;&lt;br&gt;hypothetical protein&lt;br&gt;Location: 40480 - 40894" locus_tag="cds40480_40894" class="clusterblast-orf" id="dummy-1_q18_0_all"  />
<polygon points="547,35 552,30 555,30 555,40 552,40 547,35 " style="fill:white; stroke-width:1; stroke:black; " description="&lt;b&gt;cds41582_42332&lt;/b&gt;&lt;br&gt;Glucose 1-dehydrogenase&lt;br&gt;Location: 41582 - 42332" locus_tag="cds41582_42332" class="clusterblast-orf" id="dummy-1_q19_0_all"  />
<polygon points="557,40 559,40 564,35 559,30 557,30 557,40 " style="fill:white; stroke-width:1; stroke:black; " description="&lt;b&gt;cds42498_43035&lt;/b&gt;&lt;br&gt;HTH-type transcriptional repressor ComR&lt;br&gt;Location: 42498 - 43035" locus_tag="cds42498_43035" class="clusterblast-orf" id="dummy-1_q20_0_all"  />
<polygon points="564,35 569,30 577,30 577,40 569,40 564,35 " style="fill:white; stroke-width:1; stroke:black; " description="&lt;b&gt;cds43100_44174&lt;/b&gt;&lt;br&gt;N-ethylmaleimide reductase&lt;br&gt;Location: 43100 - 44174" locus_tag="cds43100_44174" class="clusterblast-orf" id="dummy-1_q21_0_all"  />
<polygon points="579,40 579,40 584,35 579,30 579,30 579,40 " style="fill:white; stroke-width:1; stroke:black; " description="&lt;b&gt;cds44329_44761&lt;/b&gt;&lt;br&gt;Mercuric resistance operon regulatory protein&lt;br&gt;Location: 44329 - 44761" locus_tag="cds44329_44761" class="clusterblast-orf" id="dummy-1_q22_0_all"  />
<polygon points="586,35 591,30 597,30 597,40 591,40 586,35 " style="fill:white; stroke-width:1; stroke:black; " description="&lt;b&gt;cds44928_45888&lt;/b&gt;&lt;br&gt;N-acetylmannosamine kinase&lt;br&gt;Location: 44928 - 45888" locus_tag="cds44928_45888" class="clusterblast-orf" id="dummy-1_q23_0_all"  />
<polygon points="609,40 619,40 624,35 619,30 609,30 609,40 " style="fill:white; stroke-width:1; stroke:black; " description="&lt;b&gt;cds46880_48188&lt;/b&gt;&lt;br&gt;Mannan endo-1,4-beta-mannosidase&lt;br&gt;Location: 46880 - 48188" locus_tag="cds46880_48188" class="clusterblast-orf" id="dummy-1_q24_0_all"  />
<polygon points="624,35 629,30 629,30 629,40 629,40 624,35 " style="fill:white; stroke-width:1; stroke:black; " description="&lt;b&gt;cds48212_48611&lt;/b&gt;&lt;br&gt;hypothetical protein&lt;br&gt;Location: 48212 - 48611" locus_tag="cds48212_48611" class="clusterblast-orf" id="dummy-1_q25_0_all"  />
<polygon points="629,35 634,30 634,30 634,40 634,40 629,35 " style="fill:white; stroke-width:1; stroke:black; " description="&lt;b&gt;cds48624_49035&lt;/b&gt;&lt;br&gt;hypothetical protein&lt;br&gt;Location: 48624 - 49035" locus_tag="cds48624_49035" class="clusterblast-orf" id="dummy-1_q26_0_all"  />
<polygon points="634,40 640,40 645,35 640,30 634,30 634,40 " style="fill:white; stroke-width:1; stroke:black; " description="&lt;b&gt;cds49084_49969&lt;/b&gt;&lt;br&gt;hypothetical protein&lt;br&gt;Location: 49084 - 49969" locus_tag="cds49084_49969" class="clusterblast-orf" id="dummy-1_q27_0_all"  />
<polygon points="648,35 653,30 657,30 657,40 653,40 648,35 " style="fill:white; stroke-width:1; stroke:black; " description="&lt;b&gt;cds50256_51051&lt;/b&gt;&lt;br&gt;2,5-dichloro-2,5-cyclohexadiene-1,4-diol dehydrogenase&lt;br&gt;Location: 50256 - 51051" locus_tag="cds50256_51051" class="clusterblast-orf" id="dummy-1_q28_0_all"  />
<polygon points="659,40 661,40 666,35 661,30 659,30 659,40 " style="fill:white; stroke-width:1; stroke:black; " description="&lt;b&gt;cds51229_51832&lt;/b&gt;&lt;br&gt;HTH-type transcriptional repressor ComR&lt;br&gt;Location: 51229 - 51832" locus_tag="cds51229_51832" class="clusterblast-orf" id="dummy-1_q29_0_all"  />
<polygon points="669,35 674,30 680,30 680,40 674,40 669,35 " style="fill:white; stroke-width:1; stroke:black; " description="&lt;b&gt;cds52033_52969&lt;/b&gt;&lt;br&gt;Haloalkane dehalogenase&lt;br&gt;Location: 52033 - 52969" locus_tag="cds52033_52969" class="clusterblast-orf" id="dummy-1_q30_0_all"  />
<polygon points="689,40 693,40 698,35 693,30 689,30 689,40 " style="fill:white; stroke-width:1; stroke:black; " description="&lt;b&gt;cds53803_54529&lt;/b&gt;&lt;br&gt;Endo-1,4-beta-xylanase C&lt;br&gt;Location: 53803 - 54529" locus_tag="cds53803_54529" class="clusterblast-orf" id="dummy-1_q31_0_all"  />
<polygon points="700,35 702,30 702,40 700,35 " style="fill:white; stroke-width:1; stroke:black; " description="&lt;b&gt;cds54707_54929&lt;/b&gt;&lt;br&gt;hypothetical protein&lt;br&gt;Location: 54707 - 54929" locus_tag="cds54707_54929" class="clusterblast-orf" id="dummy-1_q32_0_all"  />
<polygon points="703,35 708,30 715,30 715,40 708,40 703,35 " style="fill:white; stroke-width:1; stroke:black; " description="&lt;b&gt;cds55021_56050&lt;/b&gt;&lt;br&gt;HTH-type transcriptional regulator DegA&lt;br&gt;Location: 55021 - 56050" locus_tag="cds55021_56050" class="clusterblast-orf" id="dummy-1_q33_0_all"  />
</g>
<g label="BGC0001968" description="BGC0001968_c1: cadaside A / cadaside B (19% of genes show similarity), NRP" class="clusterblast-cluster"  >
<text x="5" y="70" class="clusterblast-acc"  >
<a xlink:href="https://mibig.secondarymetabolites.org/go/BGC0001968/1" target="_blank">BGC0001968</a>:                                                          cadaside A / cadaside B (19% of genes show similarity), NRP</text>
<line x1="10" y1="85" x2="778.0" y2="85" style="stroke-width:1; stroke:grey; "  />
</g>
<g id="a1_000"  >
<polygon points="0,90 9,90 14,85 9,80 0,80 0,90 " style="fill:white; stroke-width:1; stroke:black; " description="&lt;b&gt;QBC75013.1&lt;/b&gt;&lt;br&gt;cytochrome P450&lt;br&gt;Location: 3001 - 4227" locus_tag="QBC75013.1" class="clusterblast-orf" id="dummy-1_h1_1_0"  />
</g>
<g id="a1_001"  >
<polygon points="14,90 18,90 23,85 18,80 14,80 14,90 " style="fill:white; stroke-width:1; stroke:black; " description="&lt;b&gt;QBC75014.1&lt;/b&gt;&lt;br&gt;alpha/beta hydrolase&lt;br&gt;Location: 4248 - 5054" locus_tag="QBC75014.1" class="clusterblast-orf" id="dummy-1_h1_1_1"  />
</g>
<g id="a1_002"  >
<polygon points="24,85 29,80 34,80 34,90 29,90 24,85 " style="fill:white; stroke-width:1; stroke:black; " description="&lt;b&gt;QBC75015.1&lt;/b&gt;&lt;br&gt;ABC transporter permease&lt;br&gt;Location: 5077 - 5925" locus_tag="QBC75015.1" class="clusterblast-orf" id="dummy-1_h1_1_2"  />
</g>
<g id="a1_003"  >
<polygon points="34,85 39,80 45,80 45,90 39,90 34,85 " style="fill:white; stroke-width:1; stroke:black; " description="&lt;b&gt;QBC75016.1&lt;/b&gt;&lt;br&gt;daunorubicin/doxorubicin resistance ABC transporter&lt;br&gt;Location: 5955 - 6893" locus_tag="QBC75016.1" class="clusterblast-orf" id="dummy-1_h1_1_3"  />
</g>
<g id="a1_004"  >
<polygon points="51,90 66,90 71,85 66,80 51,80 51,90 " style="fill:white; stroke-width:1; stroke:black; " description="&lt;b&gt;QBC75017.1&lt;/b&gt;&lt;br&gt;acyl-CoA synthase&lt;br&gt;Location: 7390 - 9141" locus_tag="QBC75017.1" class="clusterblast-orf" id="dummy-1_h1_1_4"  />
</g>
<g id="a1_005"  >
<polygon points="72,90 87,90 92,85 87,80 72,80 72,90 " style="fill:white; stroke-width:1; stroke:black; " description="&lt;b&gt;QBC75018.1&lt;/b&gt;&lt;br&gt;acyl-CoA dehydrogenase&lt;br&gt;Location: 9218 - 10921" locus_tag="QBC75018.1" class="clusterblast-orf" id="dummy-1_h1_1_5"  />
</g>
<g id="a1_006"  >
<polygon points="92,90 107,90 112,85 107,80 92,80 92,90 " style="fill:white; stroke-width:1; stroke:black; " description="&lt;b&gt;QBC75019.1&lt;/b&gt;&lt;br&gt;acyl-CoA dehydrogenase&lt;br&gt;Location: 10918 - 12654" locus_tag="QBC75019.1" class="clusterblast-orf" id="dummy-1_h1_1_6"  />
</g>
<g id="a1_007"  >
<polygon points="113,90 116,85 113,80 113,90 " style="fill:white; stroke-width:1; stroke:black; " description="&lt;b&gt;QBC75020.1&lt;/b&gt;&lt;br&gt;acyl carrier protein&lt;br&gt;Location: 12742 - 13032" locus_tag="QBC75020.1" class="clusterblast-orf" id="dummy-1_h1_1_7"  />
</g>
<g id="a1_008"  >
<polygon points="117,90 365,90 370,85 365,80 117,80 117,90 " style="fill:#15d8d8; stroke-width:1; stroke:black; " description="&lt;b&gt;QBC75021.1&lt;/b&gt;&lt;br&gt;non-ribosomal peptide synthetase&lt;br&gt;Location: 13041 - 34754&lt;br&gt;&lt;br&gt;&lt;b&gt;BlastP hit with cds29216_36776&lt;/b&gt;&lt;br&gt;Percentage identity: 46&lt;br&gt;Percentage coverage: 85&lt;br&gt;BLAST bit score: 1574&lt;br&gt;E-value: 0.0" locus_tag="QBC75021.1" class="clusterblast-orf" id="dummy-1_h1_1_8"  />
</g>
<g id="a1_009"  >
<polygon points="370,90 565,90 570,85 565,80 370,80 370,90 " style="fill:#15d8d8; stroke-width:1; stroke:black; " description="&lt;b&gt;QBC75022.1&lt;/b&gt;&lt;br&gt;non-ribosomal peptide synthetase&lt;br&gt;Location: 34763 - 51889&lt;br&gt;&lt;br&gt;&lt;b&gt;BlastP hit with cds14742_29220&lt;/b&gt;&lt;br&gt;Percentage identity: 46&lt;br&gt;Percentage coverage: 102&lt;br&gt;BLAST bit score: 3562&lt;br&gt;E-value: 0.0&lt;br&gt;&lt;br&gt;&lt;b&gt;BlastP hit with cds29216_36776&lt;/b&gt;&lt;br&gt;Percentage identity: 46&lt;br&gt;Percentage coverage: 85&lt;br&gt;BLAST bit score: 1602&lt;br&gt;E-value: 0.0" locus_tag="QBC75022.1" class="clusterblast-orf" id="dummy-1_h1_1_9"  />
</g>
<g id="a1_0010"  >
<polygon points="570,90 662,90 667,85 662,80 570,80 570,90 " style="fill:#15d8d8; stroke-width:1; stroke:black; " description="&lt;b&gt;QBC75023.1&lt;/b&gt;&lt;br&gt;non-ribosomal peptide synthetase&lt;br&gt;Location: 51886 - 60240&lt;br&gt;&lt;br&gt;&lt;b&gt;BlastP hit with cds29216_36776&lt;/b&gt;&lt;br&gt;Percentage identity: 46&lt;br&gt;Percentage coverage: 80&lt;br&gt;BLAST bit score: 1540&lt;br&gt;E-value: 0.0" locus_tag="QBC75023.1" class="clusterblast-orf" id="dummy-1_h1_1_10"  />
</g>
<g id="a1_0011"  >
<polygon points="667,90 670,85 667,80 667,90 " style="fill:#d81515; stroke-width:1; stroke:black; " description="&lt;b&gt;QBC75024.1&lt;/b&gt;&lt;br&gt;MbtH-like protein&lt;br&gt;Location: 60264 - 60485&lt;br&gt;&lt;br&gt;&lt;b&gt;BlastP hit with cds14120_14339&lt;/b&gt;&lt;br&gt;Percentage identity: 61&lt;br&gt;Percentage coverage: 99&lt;br&gt;BLAST bit score: 101&lt;br&gt;E-value: 7.9e-22" locus_tag="QBC75024.1" class="clusterblast-orf" id="dummy-1_h1_1_11"  />
</g>
<g id="a1_0012"  >
<polygon points="672,90 675,90 680,85 675,80 672,80 672,90 " style="fill:white; stroke-width:1; stroke:black; " description="&lt;b&gt;QBC75025.1&lt;/b&gt;&lt;br&gt;phosphatase PAP2 family protein&lt;br&gt;Location: 60664 - 61395" locus_tag="QBC75025.1" class="clusterblast-orf" id="dummy-1_h1_1_12"  />
</g>
<g id="a1_0013"  >
<polygon points="681,90 687,90 692,85 687,80 681,80 681,90 " style="fill:white; stroke-width:1; stroke:black; " description="&lt;b&gt;QBC75026.1&lt;/b&gt;&lt;br&gt;alpha-ketoglutarate-dependent taurine dioxygenase&lt;br&gt;Location: 61437 - 62378" locus_tag="QBC75026.1" class="clusterblast-orf" id="dummy-1_h1_1_13"  />
</g>
<g id="a1_0014"  >
<polygon points="692,85 697,80 705,80 705,90 697,90 692,85 " style="fill:white; stroke-width:1; stroke:black; " description="&lt;b&gt;QBC75027.1&lt;/b&gt;&lt;br&gt;branched-chain amino acid aminotransferase&lt;br&gt;Location: 62433 - 63494" locus_tag="QBC75027.1" class="clusterblast-orf" id="dummy-1_h1_1_14"  />
</g>
<g id="a1_0015"  >
<polygon points="705,85 710,80 710,80 710,90 710,90 705,85 " style="fill:white; stroke-width:1; stroke:black; " description="&lt;b&gt;QBC75028.1&lt;/b&gt;&lt;br&gt;ketosteroid isomerase&lt;br&gt;Location: 63513 - 63899" locus_tag="QBC75028.1" class="clusterblast-orf" id="dummy-1_h1_1_15"  />
</g>
<g id="a1_0016"  >
<polygon points="712,90 715,90 720,85 715,80 712,80 712,90 " style="fill:white; stroke-width:1; stroke:black; " description="&lt;b&gt;QBC75029.1&lt;/b&gt;&lt;br&gt;phosphatase PAP2 family protein&lt;br&gt;Location: 64083 - 64778" locus_tag="QBC75029.1" class="clusterblast-orf" id="dummy-1_h1_1_16"  />
</g>
<g id="a1_0017"  >
<polygon points="724,90 736,90 741,85 736,80 724,80 724,90 " style="fill:white; stroke-width:1; stroke:black; " description="&lt;b&gt;QBC75030.1&lt;/b&gt;&lt;br&gt;sensor histidine kinase&lt;br&gt;Location: 65164 - 66618" locus_tag="QBC75030.1" class="clusterblast-orf" id="dummy-1_h1_1_17"  />
</g>
<g id="a1_0018"  >
<polygon points="742,90 745,90 750,85 745,80 742,80 742,90 " style="fill:white; stroke-width:1; stroke:black; " description="&lt;b&gt;QBC75031.1&lt;/b&gt;&lt;br&gt;DNA-binding response regulator&lt;br&gt;Location: 66711 - 67349" locus_tag="QBC75031.1" class="clusterblast-orf" id="dummy-1_h1_1_18"  />
</g>
<g id="a1_0019"  >
<polygon points="753,90 761,90 766,85 761,80 753,80 753,90 " style="fill:white; stroke-width:1; stroke:black; " description="&lt;b&gt;QBC75032.1&lt;/b&gt;&lt;br&gt;succinate-semialdehyde dehydrogenase&lt;br&gt;Location: 67625 - 68755" locus_tag="QBC75032.1" class="clusterblast-orf" id="dummy-1_h1_1_19"  />
</g>
<g id="a1_0020"  >
<polygon points="771,85 776,80 780,80 780,90 776,90 771,85 " style="fill:white; stroke-width:1; stroke:black; " description="&lt;b&gt;QBC75033.1&lt;/b&gt;&lt;br&gt;SDR family NAD(P)-dependent oxidoreductase&lt;br&gt;Location: 69171 - 69896" locus_tag="QBC75033.1" class="clusterblast-orf" id="dummy-1_h1_1_20"  />
</g>
</svg>
