<svg xmlns="http://www.w3.org/2000/svg" xmlns:xlink="http://www.w3.org/1999/xlink" version="1.1" x="0" y="0" height="230" width="800" viewBox="0 0 800 230" preserveAspectRatio="none"  >
<g label="Query sequence" class="clusterblast-cluster"  >
<text x="5" y="20" class="clusterblast-acc"  >
Query sequence</text>
<line x1="10" y1="35" x2="778.0" y2="35" style="stroke-width:1; stroke:grey; "  />
<polygon points="207,40 207,40 212,35 207,30 207,30 207,40 " style="fill:#d81515; stroke-width:1; stroke:black; " description="&lt;b&gt;cds18113_18665&lt;/b&gt;&lt;br&gt;hypothetical protein&lt;br&gt;Location: 18113 - 18665" locus_tag="cds18113_18665" class="clusterblast-orf" id="dummy-1_q0_0_all"  />
<polygon points="212,40 215,40 220,35 215,30 212,30 212,40 " style="fill:#5cd815; stroke-width:1; stroke:black; " description="&lt;b&gt;cds18714_19635&lt;/b&gt;&lt;br&gt;hypothetical protein&lt;br&gt;Location: 18714 - 19635" locus_tag="cds18714_19635" class="clusterblast-orf" id="dummy-1_q1_0_all"  />
<polygon points="220,35 225,30 233,30 233,40 225,40 220,35 " style="fill:white; stroke-width:1; stroke:black; " description="&lt;b&gt;cds19700_21182&lt;/b&gt;&lt;br&gt;Spore coat protein A&lt;br&gt;Location: 19700 - 21182" locus_tag="cds19700_21182" class="clusterblast-orf" id="dummy-1_q2_0_all"  />
<polygon points="235,40 238,40 243,35 238,30 235,30 235,40 " style="fill:white; stroke-width:1; stroke:black; " description="&lt;b&gt;cds21412_22282&lt;/b&gt;&lt;br&gt;27-O-demethylrifamycin SV methyltransferase&lt;br&gt;Location: 21412 - 22282" locus_tag="cds21412_22282" class="clusterblast-orf" id="dummy-1_q3_0_all"  />
<polygon points="243,40 248,40 253,35 248,30 243,30 243,40 " style="fill:white; stroke-width:1; stroke:black; " description="&lt;b&gt;cds22348_23494&lt;/b&gt;&lt;br&gt;hypothetical protein&lt;br&gt;Location: 22348 - 23494" locus_tag="cds22348_23494" class="clusterblast-orf" id="dummy-1_q4_0_all"  />
<polygon points="254,35 259,30 266,30 266,40 259,40 254,35 " style="fill:white; stroke-width:1; stroke:black; " description="&lt;b&gt;cds23567_24962&lt;/b&gt;&lt;br&gt;Mitomycin radical oxidase&lt;br&gt;Location: 23567 - 24962" locus_tag="cds23567_24962" class="clusterblast-orf" id="dummy-1_q5_0_all"  />
<polygon points="266,35 271,30 279,30 279,40 271,40 266,35 " style="fill:#15a3d8; stroke-width:1; stroke:black; " description="&lt;b&gt;cds24958_26524&lt;/b&gt;&lt;br&gt;2-methoxy-6-polyprenyl-1,4-benzoquinol methylase, mitochondrial&lt;br&gt;Location: 24958 - 26524" locus_tag="cds24958_26524" class="clusterblast-orf" id="dummy-1_q6_0_all"  />
<polygon points="281,35 284,30 284,40 281,35 " style="fill:white; stroke-width:1; stroke:black; " description="&lt;b&gt;cds26746_27082&lt;/b&gt;&lt;br&gt;hypothetical protein&lt;br&gt;Location: 26746 - 27082" locus_tag="cds26746_27082" class="clusterblast-orf" id="dummy-1_q7_0_all"  />
<polygon points="285,35 290,30 305,30 305,40 290,40 285,35 " style="fill:white; stroke-width:1; stroke:black; " description="&lt;b&gt;cds27150_29475&lt;/b&gt;&lt;br&gt;Periplasmic nitrate reductase&lt;br&gt;Location: 27150 - 29475" locus_tag="cds27150_29475" class="clusterblast-orf" id="dummy-1_q8_0_all"  />
<polygon points="306,40 308,40 313,35 308,30 306,30 306,40 " style="fill:white; stroke-width:1; stroke:black; " description="&lt;b&gt;cds29596_30424&lt;/b&gt;&lt;br&gt;Levodione reductase&lt;br&gt;Location: 29596 - 30424" locus_tag="cds29596_30424" class="clusterblast-orf" id="dummy-1_q9_0_all"  />
<polygon points="313,40 316,40 321,35 316,30 313,30 313,40 " style="fill:white; stroke-width:1; stroke:black; " description="&lt;b&gt;cds30472_31354&lt;/b&gt;&lt;br&gt;F420-dependent glucose-6-phosphate dehydrogenase&lt;br&gt;Location: 30472 - 31354" locus_tag="cds30472_31354" class="clusterblast-orf" id="dummy-1_q10_0_all"  />
<polygon points="323,35 328,30 336,30 336,40 328,40 323,35 " style="fill:#9115d8; stroke-width:1; stroke:black; " description="&lt;b&gt;cds31534_33049&lt;/b&gt;&lt;br&gt;Aclacinomycin-N/aclacinomycin-A oxidase&lt;br&gt;Location: 31534 - 33049" locus_tag="cds31534_33049" class="clusterblast-orf" id="dummy-1_q11_0_all"  />
<polygon points="337,35 342,30 350,30 350,40 342,40 337,35 " style="fill:#d84a15; stroke-width:1; stroke:black; " description="&lt;b&gt;cds33232_34657&lt;/b&gt;&lt;br&gt;sn-glycerol-3-phosphate-binding periplasmic protein UgpB&lt;br&gt;Location: 33232 - 34657" locus_tag="cds33232_34657" class="clusterblast-orf" id="dummy-1_q12_0_all"  />
<polygon points="352,40 358,40 363,35 358,30 352,30 352,40 " style="fill:#27d815; stroke-width:1; stroke:black; " description="&lt;b&gt;cds34927_36169&lt;/b&gt;&lt;br&gt;Flavin-dependent monooxygenase, oxygenase subunit HsaA&lt;br&gt;Location: 34927 - 36169" locus_tag="cds34927_36169" class="clusterblast-orf" id="dummy-1_q13_0_all"  />
<polygon points="364,40 371,40 376,35 371,30 364,30 364,40 " style="fill:#156ed8; stroke-width:1; stroke:black; " description="&lt;b&gt;cds36277_37717&lt;/b&gt;&lt;br&gt;hypothetical protein&lt;br&gt;Location: 36277 - 37717" locus_tag="cds36277_37717" class="clusterblast-orf" id="dummy-1_q14_0_all"  />
<polygon points="376,40 396,40 401,35 396,30 376,30 376,40 " style="fill:white; stroke-width:1; stroke:black; " description="&lt;b&gt;cds37748_40562&lt;/b&gt;&lt;br&gt;Dimodular nonribosomal peptide synthase&lt;br&gt;Location: 37748 - 40562" locus_tag="cds37748_40562" class="clusterblast-orf" id="dummy-1_q15_0_all"  />
<polygon points="401,40 410,40 415,35 410,30 401,30 401,40 " style="fill:#c715d8; stroke-width:1; stroke:black; " description="&lt;b&gt;cds40635_42261&lt;/b&gt;&lt;br&gt;MIO-dependent tyrosine 2,3-aminomutase&lt;br&gt;Location: 40635 - 42261" locus_tag="cds40635_42261" class="clusterblast-orf" id="dummy-1_q16_0_all"  />
<polygon points="416,40 423,40 428,35 423,30 416,30 416,40 " style="fill:#d88015; stroke-width:1; stroke:black; " description="&lt;b&gt;cds42368_43712&lt;/b&gt;&lt;br&gt;Linear gramicidin synthase subunit B&lt;br&gt;Location: 42368 - 43712" locus_tag="cds42368_43712" class="clusterblast-orf" id="dummy-1_q17_0_all"  />
<polygon points="428,35 433,30 442,30 442,40 433,40 428,35 " style="fill:#15d839; stroke-width:1; stroke:black; " description="&lt;b&gt;cds43769_45353&lt;/b&gt;&lt;br&gt;4-nitrophenol 2-monooxygenase, oxygenase component&lt;br&gt;Location: 43769 - 45353" locus_tag="cds43769_45353" class="clusterblast-orf" id="dummy-1_q18_0_all"  />
<polygon points="444,40 449,40 454,35 449,30 444,30 444,40 " style="fill:#1539d8; stroke-width:1; stroke:black; " description="&lt;b&gt;cds45596_46781&lt;/b&gt;&lt;br&gt;Flavin-dependent monooxygenase, oxygenase subunit HsaA&lt;br&gt;Location: 45596 - 46781" locus_tag="cds45596_46781" class="clusterblast-orf" id="dummy-1_q19_0_all"  />
<polygon points="455,40 459,35 455,30 455,40 " style="fill:#d815b5; stroke-width:1; stroke:black; " description="&lt;b&gt;cds46844_47279&lt;/b&gt;&lt;br&gt;hypothetical protein&lt;br&gt;Location: 46844 - 47279" locus_tag="cds46844_47279" class="clusterblast-orf" id="dummy-1_q20_0_all"  />
<polygon points="459,35 464,30 470,30 470,40 464,40 459,35 " style="fill:#d8b515; stroke-width:1; stroke:black; " description="&lt;b&gt;cds47364_48612&lt;/b&gt;&lt;br&gt;2-hydroxy-5-methyl-1-naphthoate 7-hydroxylase&lt;br&gt;Location: 47364 - 48612" locus_tag="cds47364_48612" class="clusterblast-orf" id="dummy-1_q21_0_all"  />
<polygon points="471,35 476,30 478,30 478,40 476,40 471,35 " style="fill:white; stroke-width:1; stroke:black; " description="&lt;b&gt;cds48705_49569&lt;/b&gt;&lt;br&gt;hypothetical protein&lt;br&gt;Location: 48705 - 49569" locus_tag="cds48705_49569" class="clusterblast-orf" id="dummy-1_q22_0_all"  />
<polygon points="479,35 481,30 481,40 479,35 " style="fill:#15d86e; stroke-width:1; stroke:black; " description="&lt;b&gt;cds49631_49904&lt;/b&gt;&lt;br&gt;hypothetical protein&lt;br&gt;Location: 49631 - 49904" locus_tag="cds49631_49904" class="clusterblast-orf" id="dummy-1_q23_0_all"  />
<polygon points="482,35 487,30 490,30 490,40 487,40 482,35 " style="fill:#2715d8; stroke-width:1; stroke:black; " description="&lt;b&gt;cds50037_50910&lt;/b&gt;&lt;br&gt;Glucose-1-phosphate thymidylyltransferase 1&lt;br&gt;Location: 50037 - 50910" locus_tag="cds50037_50910" class="clusterblast-orf" id="dummy-1_q24_0_all"  />
<polygon points="490,35 495,30 501,30 501,40 495,40 490,35 " style="fill:#d81580; stroke-width:1; stroke:black; " description="&lt;b&gt;cds50964_52185&lt;/b&gt;&lt;br&gt;hypothetical protein&lt;br&gt;Location: 50964 - 52185" locus_tag="cds50964_52185" class="clusterblast-orf" id="dummy-1_q25_0_all"  />
<polygon points="502,35 507,30 513,30 513,40 507,40 502,35 " style="fill:#c7d815; stroke-width:1; stroke:black; " description="&lt;b&gt;cds52342_53581&lt;/b&gt;&lt;br&gt;hypothetical protein&lt;br&gt;Location: 52342 - 53581" locus_tag="cds52342_53581" class="clusterblast-orf" id="dummy-1_q26_0_all"  />
<polygon points="513,35 518,30 524,30 524,40 518,40 513,35 " style="fill:#15d8a3; stroke-width:1; stroke:black; " description="&lt;b&gt;cds53600_54893&lt;/b&gt;&lt;br&gt;Aclacinomycin-T 2-deoxy-L-fucose transferase&lt;br&gt;Location: 53600 - 54893" locus_tag="cds53600_54893" class="clusterblast-orf" id="dummy-1_q27_0_all"  />
<polygon points="525,35 530,30 534,30 534,40 530,40 525,35 " style="fill:#5c15d8; stroke-width:1; stroke:black; " description="&lt;b&gt;cds54963_56073&lt;/b&gt;&lt;br&gt;dTDP-3-amino-3,4,6-trideoxy-alpha-D-glucose transaminase&lt;br&gt;Location: 54963 - 56073" locus_tag="cds54963_56073" class="clusterblast-orf" id="dummy-1_q28_0_all"  />
<polygon points="536,35 541,30 548,30 548,40 541,40 536,35 " style="fill:#d8154a; stroke-width:1; stroke:black; " description="&lt;b&gt;cds56275_57670&lt;/b&gt;&lt;br&gt;dTDP-4-dehydro-6-deoxy-alpha-D-glucopyranose 2,3-dehydratase&lt;br&gt;Location: 56275 - 57670" locus_tag="cds56275_57670" class="clusterblast-orf" id="dummy-1_q29_0_all"  />
<polygon points="551,40 555,40 560,35 555,30 551,30 551,40 " style="fill:#91d815; stroke-width:1; stroke:black; " description="&lt;b&gt;cds57984_58992&lt;/b&gt;&lt;br&gt;dTDP-glucose 4,6-dehydratase&lt;br&gt;Location: 57984 - 58992" locus_tag="cds57984_58992" class="clusterblast-orf" id="dummy-1_q30_0_all"  />
<polygon points="560,35 565,30 572,30 572,40 565,40 560,35 " style="fill:#15d8d8; stroke-width:1; stroke:black; " description="&lt;b&gt;cds59038_60466&lt;/b&gt;&lt;br&gt;UDP-N-acetyl-D-glucosamine 6-dehydrogenase&lt;br&gt;Location: 59038 - 60466" locus_tag="cds59038_60466" class="clusterblast-orf" id="dummy-1_q31_0_all"  />
</g>
<g label="BGC0000033" description="BGC0000033_c1: calicheamicin (5% of genes show similarity), Polyketide" class="clusterblast-cluster"  >
<text x="5" y="70" class="clusterblast-acc"  >
<a xlink:href="https://mibig.secondarymetabolites.org/go/BGC0000033/1" target="_blank">BGC0000033</a>:                                                                    calicheamicin (5% of genes show similarity), Polyketide</text>
<line x1="10" y1="85" x2="778.0" y2="85" style="stroke-width:1; stroke:grey; "  />
</g>
<g id="a1_000"  >
<polygon points="0,90 2,90 7,85 2,80 0,80 0,90 " style="fill:white; stroke-width:1; stroke:black; " description="&lt;b&gt;AAM94759.1&lt;/b&gt;&lt;br&gt;CalU1&lt;br&gt;Location: 1 - 873" locus_tag="AAM94759.1" class="clusterblast-orf" id="dummy-1_h1_9_0"  />
</g>
<g id="a1_001"  >
<polygon points="7,90 10,90 15,85 10,80 7,80 7,90 " style="fill:white; stroke-width:1; stroke:black; " description="&lt;b&gt;AAM94760.1&lt;/b&gt;&lt;br&gt;CalU2&lt;br&gt;Location: 880 - 1827" locus_tag="AAM94760.1" class="clusterblast-orf" id="dummy-1_h1_9_1"  />
</g>
<g id="a1_002"  >
<polygon points="16,90 20,90 25,85 20,80 16,80 16,90 " style="fill:white; stroke-width:1; stroke:black; " description="&lt;b&gt;AAM94761.1&lt;/b&gt;&lt;br&gt;CalU3&lt;br&gt;Location: 1874 - 2935" locus_tag="AAM94761.1" class="clusterblast-orf" id="dummy-1_h1_9_2"  />
</g>
<g id="a1_003"  >
<polygon points="25,90 27,90 32,85 27,80 25,80 25,90 " style="fill:white; stroke-width:1; stroke:black; " description="&lt;b&gt;AAM94762.1&lt;/b&gt;&lt;br&gt;CalU4&lt;br&gt;Location: 2932 - 3726" locus_tag="AAM94762.1" class="clusterblast-orf" id="dummy-1_h1_9_3"  />
</g>
<g id="a1_004"  >
<polygon points="32,90 38,90 43,85 38,80 32,80 32,90 " style="fill:white; stroke-width:1; stroke:black; " description="&lt;b&gt;AAM94763.1&lt;/b&gt;&lt;br&gt;CalE1&lt;br&gt;Location: 3723 - 5048" locus_tag="AAM94763.1" class="clusterblast-orf" id="dummy-1_h1_9_4"  />
</g>
<g id="a1_005"  >
<polygon points="43,90 46,90 51,85 46,80 43,80 43,90 " style="fill:white; stroke-width:1; stroke:black; " description="&lt;b&gt;AAM94764.1&lt;/b&gt;&lt;br&gt;CalU5&lt;br&gt;Location: 5045 - 5941" locus_tag="AAM94764.1" class="clusterblast-orf" id="dummy-1_h1_9_5"  />
</g>
<g id="a1_006"  >
<polygon points="51,85 56,80 65,80 65,90 56,90 51,85 " style="fill:white; stroke-width:1; stroke:black; " description="&lt;b&gt;AAM94765.1&lt;/b&gt;&lt;br&gt;CalT1&lt;br&gt;Location: 6006 - 7595" locus_tag="AAM94765.1" class="clusterblast-orf" id="dummy-1_h1_9_6"  />
</g>
<g id="a1_007"  >
<polygon points="66,85 71,80 71,80 71,90 71,90 66,85 " style="fill:white; stroke-width:1; stroke:black; " description="&lt;b&gt;AAM94766.1&lt;/b&gt;&lt;br&gt;CalR1&lt;br&gt;Location: 7665 - 8285" locus_tag="AAM94766.1" class="clusterblast-orf" id="dummy-1_h1_9_7"  />
</g>
<g id="a1_008"  >
<polygon points="72,90 75,90 80,85 75,80 72,80 72,90 " style="fill:white; stroke-width:1; stroke:black; " description="&lt;b&gt;AAM94767.1&lt;/b&gt;&lt;br&gt;CalU6&lt;br&gt;Location: 8447 - 9382" locus_tag="AAM94767.1" class="clusterblast-orf" id="dummy-1_h1_9_8"  />
</g>
<g id="a1_009"  >
<polygon points="81,85 86,80 86,80 86,90 86,90 81,85 " style="fill:white; stroke-width:1; stroke:black; " description="&lt;b&gt;AAM94768.1&lt;/b&gt;&lt;br&gt;CalS1&lt;br&gt;Location: 9415 - 9987" locus_tag="AAM94768.1" class="clusterblast-orf" id="dummy-1_h1_9_9"  />
</g>
<g id="a1_0010"  >
<polygon points="87,90 90,90 95,85 90,80 87,80 87,90 " style="fill:white; stroke-width:1; stroke:black; " description="&lt;b&gt;AAM94769.1&lt;/b&gt;&lt;br&gt;CalS2&lt;br&gt;Location: 10158 - 11081" locus_tag="AAM94769.1" class="clusterblast-orf" id="dummy-1_h1_9_10"  />
</g>
<g id="a1_0011"  >
<polygon points="95,90 99,90 104,85 99,80 95,80 95,90 " style="fill:white; stroke-width:1; stroke:black; " description="&lt;b&gt;AAM94770.1&lt;/b&gt;&lt;br&gt;CalS3&lt;br&gt;Location: 11078 - 12109" locus_tag="AAM94770.1" class="clusterblast-orf" id="dummy-1_h1_9_11"  />
</g>
<g id="a1_0012"  >
<polygon points="104,85 107,80 107,90 104,85 " style="fill:white; stroke-width:1; stroke:black; " description="&lt;b&gt;AAM94771.1&lt;/b&gt;&lt;br&gt;CalU7&lt;br&gt;Location: 12161 - 12490" locus_tag="AAM94771.1" class="clusterblast-orf" id="dummy-1_h1_9_12"  />
</g>
<g id="a1_0013"  >
<polygon points="110,90 115,90 120,85 115,80 110,80 110,90 " style="fill:white; stroke-width:1; stroke:black; " description="&lt;b&gt;AAM94772.1&lt;/b&gt;&lt;br&gt;CalS4&lt;br&gt;Location: 12764 - 13918" locus_tag="AAM94772.1" class="clusterblast-orf" id="dummy-1_h1_9_13"  />
</g>
<g id="a1_0014"  >
<polygon points="121,90 124,90 129,85 124,80 121,80 121,90 " style="fill:white; stroke-width:1; stroke:black; " description="&lt;b&gt;AAM94773.1&lt;/b&gt;&lt;br&gt;CalE2&lt;br&gt;Location: 14103 - 15017" locus_tag="AAM94773.1" class="clusterblast-orf" id="dummy-1_h1_9_14"  />
</g>
<g id="a1_0015"  >
<polygon points="129,85 134,80 138,80 138,90 134,90 129,85 " style="fill:white; stroke-width:1; stroke:black; " description="&lt;b&gt;AAM94774.1&lt;/b&gt;&lt;br&gt;CalS5&lt;br&gt;Location: 15028 - 16092" locus_tag="AAM94774.1" class="clusterblast-orf" id="dummy-1_h1_9_15"  />
</g>
<g id="a1_0016"  >
<polygon points="140,90 141,90 146,85 141,80 140,80 140,90 " style="fill:white; stroke-width:1; stroke:black; " description="&lt;b&gt;AAM94775.1&lt;/b&gt;&lt;br&gt;CalU8&lt;br&gt;Location: 16249 - 16962" locus_tag="AAM94775.1" class="clusterblast-orf" id="dummy-1_h1_9_16"  />
</g>
<g id="a1_0017"  >
<polygon points="145,85 150,80 152,80 152,90 150,90 145,85 " style="fill:white; stroke-width:1; stroke:black; " description="&lt;b&gt;AAM94776.1&lt;/b&gt;&lt;br&gt;CalS6&lt;br&gt;Location: 16890 - 17672" locus_tag="AAM94776.1" class="clusterblast-orf" id="dummy-1_h1_9_17"  />
</g>
<g id="a1_0018"  >
<polygon points="155,90 166,90 171,85 166,80 155,80 155,90 " style="fill:white; stroke-width:1; stroke:black; " description="&lt;b&gt;AAM94777.1&lt;/b&gt;&lt;br&gt;CalR2&lt;br&gt;Location: 17960 - 19825" locus_tag="AAM94777.1" class="clusterblast-orf" id="dummy-1_h1_9_18"  />
</g>
<g id="a1_0019"  >
<polygon points="171,90 174,90 179,85 174,80 171,80 171,90 " style="fill:white; stroke-width:1; stroke:black; " description="&lt;b&gt;AAM94778.1&lt;/b&gt;&lt;br&gt;CalE3&lt;br&gt;Location: 19901 - 20794" locus_tag="AAM94778.1" class="clusterblast-orf" id="dummy-1_h1_9_19"  />
</g>
<g id="a1_0020"  >
<polygon points="179,90 179,90 184,85 179,80 179,80 179,90 " style="fill:white; stroke-width:1; stroke:black; " description="&lt;b&gt;AAM94779.1&lt;/b&gt;&lt;br&gt;CalU9&lt;br&gt;Location: 20791 - 21426" locus_tag="AAM94779.1" class="clusterblast-orf" id="dummy-1_h1_9_20"  />
</g>
<g id="a1_0021"  >
<polygon points="184,90 192,90 197,85 192,80 184,80 184,90 " style="fill:white; stroke-width:1; stroke:black; " description="&lt;b&gt;AAM94780.1&lt;/b&gt;&lt;br&gt;CalR3&lt;br&gt;Location: 21423 - 22826" locus_tag="AAM94780.1" class="clusterblast-orf" id="dummy-1_h1_9_21"  />
</g>
<g id="a1_0022"  >
<polygon points="198,85 203,80 211,80 211,90 203,90 198,85 " style="fill:white; stroke-width:1; stroke:black; " description="&lt;b&gt;AAM94781.1&lt;/b&gt;&lt;br&gt;CalT2&lt;br&gt;Location: 22968 - 24506" locus_tag="AAM94781.1" class="clusterblast-orf" id="dummy-1_h1_9_22"  />
</g>
<g id="a1_0023"  >
<polygon points="211,85 216,80 232,80 232,90 216,90 211,85 " style="fill:white; stroke-width:1; stroke:black; " description="&lt;b&gt;AAM94782.1&lt;/b&gt;&lt;br&gt;CalR4&lt;br&gt;Location: 24503 - 26896" locus_tag="AAM94782.1" class="clusterblast-orf" id="dummy-1_h1_9_23"  />
</g>
<g id="a1_0024"  >
<polygon points="233,85 238,80 244,80 244,90 238,90 233,85 " style="fill:white; stroke-width:1; stroke:black; " description="&lt;b&gt;AAM94783.1&lt;/b&gt;&lt;br&gt;CalU10&lt;br&gt;Location: 27102 - 28304" locus_tag="AAM94783.1" class="clusterblast-orf" id="dummy-1_h1_9_24"  />
</g>
<g id="a1_0025"  >
<polygon points="247,85 252,80 259,80 259,90 252,90 247,85 " style="fill:white; stroke-width:1; stroke:black; " description="&lt;b&gt;AAM94784.1&lt;/b&gt;&lt;br&gt;CalR5&lt;br&gt;Location: 28696 - 30072" locus_tag="AAM94784.1" class="clusterblast-orf" id="dummy-1_h1_9_25"  />
</g>
<g id="a1_0026"  >
<polygon points="259,85 264,80 272,80 272,90 264,90 259,85 " style="fill:white; stroke-width:1; stroke:black; " description="&lt;b&gt;AAM94785.1&lt;/b&gt;&lt;br&gt;CalR6&lt;br&gt;Location: 30069 - 31592" locus_tag="AAM94785.1" class="clusterblast-orf" id="dummy-1_h1_9_26"  />
</g>
<g id="a1_0027"  >
<polygon points="272,85 277,80 283,80 283,90 277,90 272,85 " style="fill:white; stroke-width:1; stroke:black; " description="&lt;b&gt;AAM94786.1&lt;/b&gt;&lt;br&gt;CalE4&lt;br&gt;Location: 31589 - 32797" locus_tag="AAM94786.1" class="clusterblast-orf" id="dummy-1_h1_9_27"  />
</g>
<g id="a1_0028"  >
<polygon points="283,85 288,80 290,80 290,90 288,90 283,85 " style="fill:white; stroke-width:1; stroke:black; " description="&lt;b&gt;AAM94787.1&lt;/b&gt;&lt;br&gt;CalU11&lt;br&gt;Location: 32854 - 33672" locus_tag="AAM94787.1" class="clusterblast-orf" id="dummy-1_h1_9_28"  />
</g>
<g id="a1_0029"  >
<polygon points="290,85 295,80 298,80 298,90 295,90 290,85 " style="fill:white; stroke-width:1; stroke:black; " description="&lt;b&gt;AAM94788.1&lt;/b&gt;&lt;br&gt;CalE5&lt;br&gt;Location: 33669 - 34553" locus_tag="AAM94788.1" class="clusterblast-orf" id="dummy-1_h1_9_29"  />
</g>
<g id="a1_0030"  >
<polygon points="299,85 304,80 307,80 307,90 304,90 299,85 " style="fill:#2715d8; stroke-width:1; stroke:black; " description="&lt;b&gt;AAM94789.1&lt;/b&gt;&lt;br&gt;CalS7&lt;br&gt;Location: 34687 - 35580&lt;br&gt;&lt;br&gt;&lt;b&gt;BlastP hit with cds50037_50910&lt;/b&gt;&lt;br&gt;Percentage identity: 50&lt;br&gt;Percentage coverage: 98&lt;br&gt;BLAST bit score: 274&lt;br&gt;E-value: 2.1e-73" locus_tag="AAM94789.1" class="clusterblast-orf" id="dummy-1_h1_9_30"  />
</g>
<g id="a1_0031"  >
<polygon points="308,90 309,90 314,85 309,80 308,80 308,90 " style="fill:white; stroke-width:1; stroke:black; " description="&lt;b&gt;AAM94790.1&lt;/b&gt;&lt;br&gt;CalU12&lt;br&gt;Location: 35749 - 36411" locus_tag="AAM94790.1" class="clusterblast-orf" id="dummy-1_h1_9_31"  />
</g>
<g id="a1_0032"  >
<polygon points="314,85 319,80 320,80 320,90 319,90 314,85 " style="fill:white; stroke-width:1; stroke:black; " description="&lt;b&gt;AAM94791.1&lt;/b&gt;&lt;br&gt;CalU13&lt;br&gt;Location: 36452 - 37111" locus_tag="AAM94791.1" class="clusterblast-orf" id="dummy-1_h1_9_32"  />
</g>
<g id="a1_0033"  >
<polygon points="320,85 325,80 330,80 330,90 325,90 320,85 " style="fill:white; stroke-width:1; stroke:black; " description="&lt;b&gt;AAM94792.1&lt;/b&gt;&lt;br&gt;CalE6&lt;br&gt;Location: 37168 - 38313" locus_tag="AAM94792.1" class="clusterblast-orf" id="dummy-1_h1_9_33"  />
</g>
<g id="a1_0034"  >
<polygon points="330,85 334,80 334,90 330,85 " style="fill:white; stroke-width:1; stroke:black; " description="&lt;b&gt;AAM94793.1&lt;/b&gt;&lt;br&gt;CalE7&lt;br&gt;Location: 38310 - 38756" locus_tag="AAM94793.1" class="clusterblast-orf" id="dummy-1_h1_9_34"  />
</g>
<g id="a1_0035"  >
<polygon points="334,85 339,80 384,80 384,90 339,90 334,85 " style="fill:white; stroke-width:1; stroke:black; " description="&lt;b&gt;AAM94794.1&lt;/b&gt;&lt;br&gt;CalE8&lt;br&gt;Location: 38753 - 44512" locus_tag="AAM94794.1" class="clusterblast-orf" id="dummy-1_h1_9_35"  />
</g>
<g id="a1_0036"  >
<polygon points="384,85 389,80 392,80 392,90 389,90 384,85 " style="fill:white; stroke-width:1; stroke:black; " description="&lt;b&gt;AAM94795.1&lt;/b&gt;&lt;br&gt;CalT3&lt;br&gt;Location: 44509 - 45474" locus_tag="AAM94795.1" class="clusterblast-orf" id="dummy-1_h1_9_36"  />
</g>
<g id="a1_0037"  >
<polygon points="392,85 397,80 409,80 409,90 397,90 392,85 " style="fill:white; stroke-width:1; stroke:black; " description="&lt;b&gt;AAM70329.1&lt;/b&gt;&lt;br&gt;CalU14&lt;br&gt;Location: 45471 - 47426" locus_tag="AAM70329.1" class="clusterblast-orf" id="dummy-1_h1_9_37"  />
</g>
<g id="a1_0038"  >
<polygon points="409,85 414,80 417,80 417,90 414,90 409,85 " style="fill:white; stroke-width:1; stroke:black; " description="&lt;b&gt;AAM70330.1&lt;/b&gt;&lt;br&gt;CalU15&lt;br&gt;Location: 47448 - 48416" locus_tag="AAM70330.1" class="clusterblast-orf" id="dummy-1_h1_9_38"  />
</g>
<g id="a1_0039"  >
<polygon points="420,90 422,90 427,85 422,80 420,80 420,90 " style="fill:white; stroke-width:1; stroke:black; " description="&lt;b&gt;AAM70331.1&lt;/b&gt;&lt;br&gt;CalR7&lt;br&gt;Location: 48717 - 49559" locus_tag="AAM70331.1" class="clusterblast-orf" id="dummy-1_h1_9_39"  />
</g>
<g id="a1_0040"  >
<polygon points="428,90 435,90 440,85 435,80 428,80 428,90 " style="fill:#15d8d8; stroke-width:1; stroke:black; " description="&lt;b&gt;AAM70332.1&lt;/b&gt;&lt;br&gt;CalS8&lt;br&gt;Location: 49636 - 50997&lt;br&gt;&lt;br&gt;&lt;b&gt;BlastP hit with cds59038_60466&lt;/b&gt;&lt;br&gt;Percentage identity: 53&lt;br&gt;Percentage coverage: 95&lt;br&gt;BLAST bit score: 455&lt;br&gt;E-value: 8.4e-128" locus_tag="AAM70332.1" class="clusterblast-orf" id="dummy-1_h1_9_40"  />
</g>
<g id="a1_0041"  >
<polygon points="440,90 443,90 448,85 443,80 440,80 440,90 " style="fill:#91d815; stroke-width:1; stroke:black; " description="&lt;b&gt;AAM70333.1&lt;/b&gt;&lt;br&gt;CalS9&lt;br&gt;Location: 51004 - 51993&lt;br&gt;&lt;br&gt;&lt;b&gt;BlastP hit with cds57984_58992&lt;/b&gt;&lt;br&gt;Percentage identity: 58&lt;br&gt;Percentage coverage: 97&lt;br&gt;BLAST bit score: 374&lt;br&gt;E-value: 1.3e-103" locus_tag="AAM70333.1" class="clusterblast-orf" id="dummy-1_h1_9_41"  />
</g>
<g id="a1_0042"  >
<polygon points="450,85 455,80 457,80 457,90 455,90 450,85 " style="fill:white; stroke-width:1; stroke:black; " description="&lt;b&gt;AAM70334.1&lt;/b&gt;&lt;br&gt;CalS10&lt;br&gt;Location: 52213 - 52950" locus_tag="AAM70334.1" class="clusterblast-orf" id="dummy-1_h1_9_42"  />
</g>
<g id="a1_0043"  >
<polygon points="458,90 461,85 458,80 458,90 " style="fill:white; stroke-width:1; stroke:black; " description="&lt;b&gt;AAM70335.1&lt;/b&gt;&lt;br&gt;CalR8&lt;br&gt;Location: 53061 - 53453" locus_tag="AAM70335.1" class="clusterblast-orf" id="dummy-1_h1_9_43"  />
</g>
<g id="a1_0044"  >
<polygon points="461,85 466,80 472,80 472,90 466,90 461,85 " style="fill:white; stroke-width:1; stroke:black; " description="&lt;b&gt;AAM70336.1&lt;/b&gt;&lt;br&gt;CalG1&lt;br&gt;Location: 53511 - 54689" locus_tag="AAM70336.1" class="clusterblast-orf" id="dummy-1_h1_9_44"  />
</g>
<g id="a1_0045"  >
<polygon points="473,90 475,90 480,85 475,80 473,80 473,90 " style="fill:white; stroke-width:1; stroke:black; " description="&lt;b&gt;AAM70337.1&lt;/b&gt;&lt;br&gt;CalS11&lt;br&gt;Location: 54904 - 55677" locus_tag="AAM70337.1" class="clusterblast-orf" id="dummy-1_h1_9_45"  />
</g>
<g id="a1_0046"  >
<polygon points="482,90 486,85 482,80 482,90 " style="fill:white; stroke-width:1; stroke:black; " description="&lt;b&gt;AAM70338.1&lt;/b&gt;&lt;br&gt;CalC&lt;br&gt;Location: 55857 - 56402" locus_tag="AAM70338.1" class="clusterblast-orf" id="dummy-1_h1_9_46"  />
</g>
<g id="a1_0047"  >
<polygon points="487,90 491,85 487,80 487,90 " style="fill:white; stroke-width:1; stroke:black; " description="&lt;b&gt;AAM70339.1&lt;/b&gt;&lt;br&gt;CalU16&lt;br&gt;Location: 56411 - 56959" locus_tag="AAM70339.1" class="clusterblast-orf" id="dummy-1_h1_9_47"  />
</g>
<g id="a1_0048"  >
<polygon points="494,85 499,80 501,80 501,90 499,90 494,85 " style="fill:white; stroke-width:1; stroke:black; " description="&lt;b&gt;AAM70340.1&lt;/b&gt;&lt;br&gt;CalT4&lt;br&gt;Location: 57266 - 58108" locus_tag="AAM70340.1" class="clusterblast-orf" id="dummy-1_h1_9_48"  />
</g>
<g id="a1_0049"  >
<polygon points="501,85 506,80 510,80 510,90 506,90 501,85 " style="fill:white; stroke-width:1; stroke:black; " description="&lt;b&gt;AAM70341.1&lt;/b&gt;&lt;br&gt;CalT5&lt;br&gt;Location: 58105 - 59091" locus_tag="AAM70341.1" class="clusterblast-orf" id="dummy-1_h1_9_49"  />
</g>
<g id="a1_0050"  >
<polygon points="511,85 516,80 525,80 525,90 516,90 511,85 " style="fill:white; stroke-width:1; stroke:black; " description="&lt;b&gt;AAM70342.1&lt;/b&gt;&lt;br&gt;CalT6&lt;br&gt;Location: 59208 - 60914" locus_tag="AAM70342.1" class="clusterblast-orf" id="dummy-1_h1_9_50"  />
</g>
<g id="a1_0051"  >
<polygon points="526,85 531,80 535,80 535,90 531,90 526,85 " style="fill:white; stroke-width:1; stroke:black; " description="&lt;b&gt;AAM70343.1&lt;/b&gt;&lt;br&gt;CalO1&lt;br&gt;Location: 60938 - 61975" locus_tag="AAM70343.1" class="clusterblast-orf" id="dummy-1_h1_9_51"  />
</g>
<g id="a1_0052"  >
<polygon points="536,90 542,90 547,85 542,80 536,80 536,90 " style="fill:white; stroke-width:1; stroke:black; " description="&lt;b&gt;AAM94796.1&lt;/b&gt;&lt;br&gt;CalE9&lt;br&gt;Location: 62177 - 63463" locus_tag="AAM94796.1" class="clusterblast-orf" id="dummy-1_h1_9_52"  />
</g>
<g id="a1_0053"  >
<polygon points="548,85 553,80 558,80 558,90 553,90 548,85 " style="fill:white; stroke-width:1; stroke:black; " description="&lt;b&gt;AAM70345.1&lt;/b&gt;&lt;br&gt;IS&lt;br&gt;Location: 63477 - 64685" locus_tag="AAM70345.1" class="clusterblast-orf" id="dummy-1_h1_9_53"  />
</g>
<g id="a1_0054"  >
<polygon points="559,90 568,90 573,85 568,80 559,80 559,90 " style="fill:white; stroke-width:1; stroke:black; " description="&lt;b&gt;AAM70346.1&lt;/b&gt;&lt;br&gt;CalT7&lt;br&gt;Location: 64779 - 66461" locus_tag="AAM70346.1" class="clusterblast-orf" id="dummy-1_h1_9_54"  />
</g>
<g id="a1_0055"  >
<polygon points="573,90 579,90 584,85 579,80 573,80 573,90 " style="fill:white; stroke-width:1; stroke:black; " description="&lt;b&gt;AAM70347.1&lt;/b&gt;&lt;br&gt;CalR9&lt;br&gt;Location: 66458 - 67705" locus_tag="AAM70347.1" class="clusterblast-orf" id="dummy-1_h1_9_55"  />
</g>
<g id="a1_0056"  >
<polygon points="585,85 590,80 595,80 595,90 590,90 585,85 " style="fill:white; stroke-width:1; stroke:black; " description="&lt;b&gt;AAM70348.1&lt;/b&gt;&lt;br&gt;CalG2&lt;br&gt;Location: 67788 - 68981" locus_tag="AAM70348.1" class="clusterblast-orf" id="dummy-1_h1_9_56"  />
</g>
<g id="a1_0057"  >
<polygon points="595,85 600,80 604,80 604,90 600,90 595,85 " style="fill:white; stroke-width:1; stroke:black; " description="&lt;b&gt;AAM70349.1&lt;/b&gt;&lt;br&gt;CalS12&lt;br&gt;Location: 69032 - 70024" locus_tag="AAM70349.1" class="clusterblast-orf" id="dummy-1_h1_9_57"  />
</g>
<g id="a1_0058"  >
<polygon points="606,90 610,90 615,85 610,80 606,80 606,90 " style="fill:white; stroke-width:1; stroke:black; " description="&lt;b&gt;AAM94797.1&lt;/b&gt;&lt;br&gt;CalS13&lt;br&gt;Location: 70221 - 71351" locus_tag="AAM94797.1" class="clusterblast-orf" id="dummy-1_h1_9_58"  />
</g>
<g id="a1_0059"  >
<polygon points="616,90 621,90 626,85 621,80 616,80 616,90 " style="fill:white; stroke-width:1; stroke:black; " description="&lt;b&gt;AAM94798.1&lt;/b&gt;&lt;br&gt;CalG3&lt;br&gt;Location: 71392 - 72522" locus_tag="AAM94798.1" class="clusterblast-orf" id="dummy-1_h1_9_59"  />
</g>
<g id="a1_0060"  >
<polygon points="626,90 632,90 637,85 632,80 626,80 626,90 " style="fill:white; stroke-width:1; stroke:black; " description="&lt;b&gt;AAM94799.1&lt;/b&gt;&lt;br&gt;CalO2&lt;br&gt;Location: 72606 - 73799" locus_tag="AAM94799.1" class="clusterblast-orf" id="dummy-1_h1_9_60"  />
</g>
<g id="a1_0061"  >
<polygon points="637,90 643,90 648,85 643,80 637,80 637,90 " style="fill:white; stroke-width:1; stroke:black; " description="&lt;b&gt;AAM70353.1&lt;/b&gt;&lt;br&gt;CalO3&lt;br&gt;Location: 73840 - 75102" locus_tag="AAM70353.1" class="clusterblast-orf" id="dummy-1_h1_9_61"  />
</g>
<g id="a1_0062"  >
<polygon points="648,90 652,90 657,85 652,80 648,80 648,90 " style="fill:white; stroke-width:1; stroke:black; " description="&lt;b&gt;AAM70354.1&lt;/b&gt;&lt;br&gt;CalO4&lt;br&gt;Location: 75152 - 76186" locus_tag="AAM70354.1" class="clusterblast-orf" id="dummy-1_h1_9_62"  />
</g>
<g id="a1_0063"  >
<polygon points="658,90 686,90 691,85 686,80 658,80 658,90 " style="fill:white; stroke-width:1; stroke:black; " description="&lt;b&gt;AAM70355.1&lt;/b&gt;&lt;br&gt;CalO5&lt;br&gt;Location: 76231 - 80046" locus_tag="AAM70355.1" class="clusterblast-orf" id="dummy-1_h1_9_63"  />
</g>
<g id="a1_0064"  >
<polygon points="691,90 695,90 700,85 695,80 691,80 691,90 " style="fill:white; stroke-width:1; stroke:black; " description="&lt;b&gt;AAM70356.1&lt;/b&gt;&lt;br&gt;CalO6&lt;br&gt;Location: 80077 - 81147" locus_tag="AAM70356.1" class="clusterblast-orf" id="dummy-1_h1_9_64"  />
</g>
<g id="a1_0065"  >
<polygon points="700,90 703,90 708,85 703,80 700,80 700,90 " style="fill:white; stroke-width:1; stroke:black; " description="&lt;b&gt;AAM70357.1&lt;/b&gt;&lt;br&gt;CalU17&lt;br&gt;Location: 81152 - 82102" locus_tag="AAM70357.1" class="clusterblast-orf" id="dummy-1_h1_9_65"  />
</g>
<g id="a1_0066"  >
<polygon points="708,90 711,85 708,80 708,90 " style="fill:white; stroke-width:1; stroke:black; " description="&lt;b&gt;AAM70358.1&lt;/b&gt;&lt;br&gt;CalU18&lt;br&gt;Location: 82105 - 82371" locus_tag="AAM70358.1" class="clusterblast-orf" id="dummy-1_h1_9_66"  />
</g>
<g id="a1_0067"  >
<polygon points="711,90 719,90 724,85 719,80 711,80 711,90 " style="fill:#d8154a; stroke-width:1; stroke:black; " description="&lt;b&gt;AAM70359.1&lt;/b&gt;&lt;br&gt;CalS14&lt;br&gt;Location: 82456 - 83886&lt;br&gt;&lt;br&gt;&lt;b&gt;BlastP hit with cds56275_57670&lt;/b&gt;&lt;br&gt;Percentage identity: 51&lt;br&gt;Percentage coverage: 99&lt;br&gt;BLAST bit score: 456&lt;br&gt;E-value: 4.8e-128" locus_tag="AAM70359.1" class="clusterblast-orf" id="dummy-1_h1_9_67"  />
</g>
<g id="a1_0068"  >
<polygon points="725,90 730,90 735,85 730,80 725,80 725,90 " style="fill:white; stroke-width:1; stroke:black; " description="&lt;b&gt;AAM94800.1&lt;/b&gt;&lt;br&gt;CalE10&lt;br&gt;Location: 84045 - 85229" locus_tag="AAM94800.1" class="clusterblast-orf" id="dummy-1_h1_9_68"  />
</g>
<g id="a1_0069"  >
<polygon points="736,85 741,80 742,80 742,90 741,90 736,85 " style="fill:white; stroke-width:1; stroke:black; " description="&lt;b&gt;AAM70361.1&lt;/b&gt;&lt;br&gt;CalU19&lt;br&gt;Location: 85300 - 85998" locus_tag="AAM70361.1" class="clusterblast-orf" id="dummy-1_h1_9_69"  />
</g>
<g id="a1_0070"  >
<polygon points="743,85 748,80 748,80 748,90 748,90 743,85 " style="fill:white; stroke-width:1; stroke:black; " description="&lt;b&gt;AAM70362.1&lt;/b&gt;&lt;br&gt;CalU20&lt;br&gt;Location: 86118 - 86669" locus_tag="AAM70362.1" class="clusterblast-orf" id="dummy-1_h1_9_70"  />
</g>
<g id="a1_0071"  >
<polygon points="748,85 753,80 753,80 753,90 753,90 748,85 " style="fill:white; stroke-width:1; stroke:black; " description="&lt;b&gt;AAM70363.1&lt;/b&gt;&lt;br&gt;CalU21&lt;br&gt;Location: 86678 - 87271" locus_tag="AAM70363.1" class="clusterblast-orf" id="dummy-1_h1_9_71"  />
</g>
<g id="a1_0072"  >
<polygon points="754,85 759,80 767,80 767,90 759,90 754,85 " style="fill:white; stroke-width:1; stroke:black; " description="&lt;b&gt;AAM94801.1&lt;/b&gt;&lt;br&gt;CalU22&lt;br&gt;Location: 87351 - 88853" locus_tag="AAM94801.1" class="clusterblast-orf" id="dummy-1_h1_9_72"  />
</g>
<g id="a1_0073"  >
<polygon points="769,85 774,80 780,80 780,90 774,90 769,85 " style="fill:white; stroke-width:1; stroke:black; " description="&lt;b&gt;AAM70365.1&lt;/b&gt;&lt;br&gt;CalG4&lt;br&gt;Location: 89143 - 90348" locus_tag="AAM70365.1" class="clusterblast-orf" id="dummy-1_h1_9_73"  />
</g>
</svg>
