<svg xmlns="http://www.w3.org/2000/svg" xmlns:xlink="http://www.w3.org/1999/xlink" version="1.1" x="0" y="0" height="230" width="800" viewBox="0 0 800 230" preserveAspectRatio="none"  >
<g label="Query sequence" class="clusterblast-cluster"  >
<text x="5" y="20" class="clusterblast-acc"  >
Query sequence</text>
<line x1="10" y1="35" x2="778.0" y2="35" style="stroke-width:1; stroke:grey; "  />
<polygon points="273,40 279,40 284,35 279,30 273,30 273,40 " style="fill:white; stroke-width:1; stroke:black; " description="&lt;b&gt;cds150253_151885&lt;/b&gt;&lt;br&gt;Apolipoprotein N-acyltransferase&lt;br&gt;Location: 150253 - 151885" locus_tag="cds150253_151885" class="clusterblast-orf" id="dummy-2_q0_0_all"  />
<polygon points="284,40 288,35 284,30 284,40 " style="fill:white; stroke-width:1; stroke:black; " description="&lt;b&gt;cds151895_152375&lt;/b&gt;&lt;br&gt;hypothetical protein&lt;br&gt;Location: 151895 - 152375" locus_tag="cds151895_152375" class="clusterblast-orf" id="dummy-2_q1_0_all"  />
<polygon points="288,35 293,30 297,30 297,40 293,40 288,35 " style="fill:white; stroke-width:1; stroke:black; " description="&lt;b&gt;cds152427_153816&lt;/b&gt;&lt;br&gt;Fosfomycin resistance protein AbaF&lt;br&gt;Location: 152427 - 153816" locus_tag="cds152427_153816" class="clusterblast-orf" id="dummy-2_q2_0_all"  />
<polygon points="299,35 304,30 307,30 307,40 304,40 299,35 " style="fill:#d81515; stroke-width:1; stroke:black; " description="&lt;b&gt;cds154037_155303&lt;/b&gt;&lt;br&gt;hypothetical protein&lt;br&gt;Location: 154037 - 155303" locus_tag="cds154037_155303" class="clusterblast-orf" id="dummy-2_q3_0_all"  />
<polygon points="308,40 309,40 314,35 309,30 308,30 308,40 " style="fill:#63d815; stroke-width:1; stroke:black; " description="&lt;b&gt;cds155435_156371&lt;/b&gt;&lt;br&gt;HTH-type transcriptional regulator HdfR&lt;br&gt;Location: 155435 - 156371" locus_tag="cds155435_156371" class="clusterblast-orf" id="dummy-2_q4_0_all"  />
<polygon points="315,40 315,40 320,35 315,30 315,30 315,40 " style="fill:white; stroke-width:1; stroke:black; " description="&lt;b&gt;cds156490_157264&lt;/b&gt;&lt;br&gt;Methionine aminopeptidase 1&lt;br&gt;Location: 156490 - 157264" locus_tag="cds156490_157264" class="clusterblast-orf" id="dummy-2_q5_0_all"  />
<polygon points="321,35 326,30 327,30 327,40 326,40 321,35 " style="fill:#15b1d8; stroke-width:1; stroke:black; " description="&lt;b&gt;cds157392_158280&lt;/b&gt;&lt;br&gt;L-arabinose transport system permease protein AraQ&lt;br&gt;Location: 157392 - 158280" locus_tag="cds157392_158280" class="clusterblast-orf" id="dummy-2_q6_0_all"  />
<polygon points="327,35 332,30 334,30 334,40 332,40 327,35 " style="fill:#b115d8; stroke-width:1; stroke:black; " description="&lt;b&gt;cds158276_159263&lt;/b&gt;&lt;br&gt;hypothetical protein&lt;br&gt;Location: 158276 - 159263" locus_tag="cds158276_159263" class="clusterblast-orf" id="dummy-2_q7_0_all"  />
<polygon points="334,35 339,30 343,30 343,40 339,40 334,35 " style="fill:#d86315; stroke-width:1; stroke:black; " description="&lt;b&gt;cds159339_160662&lt;/b&gt;&lt;br&gt;hypothetical protein&lt;br&gt;Location: 159339 - 160662" locus_tag="cds159339_160662" class="clusterblast-orf" id="dummy-2_q8_0_all"  />
<polygon points="345,40 356,40 361,35 356,30 345,30 345,40 " style="fill:#15d815; stroke-width:1; stroke:black; " description="&lt;b&gt;cds160929_163353&lt;/b&gt;&lt;br&gt;hypothetical protein&lt;br&gt;Location: 160929 - 163353" locus_tag="cds160929_163353" class="clusterblast-orf" id="dummy-2_q9_0_all"  />
<polygon points="361,40 363,40 368,35 363,30 361,30 361,40 " style="fill:#1563d8; stroke-width:1; stroke:black; " description="&lt;b&gt;cds163349_164375&lt;/b&gt;&lt;br&gt;HTH-type transcriptional repressor CytR&lt;br&gt;Location: 163349 - 164375" locus_tag="cds163349_164375" class="clusterblast-orf" id="dummy-2_q10_0_all"  />
<polygon points="369,35 372,30 372,40 369,35 " style="fill:white; stroke-width:1; stroke:black; " description="&lt;b&gt;cds164401_164872&lt;/b&gt;&lt;br&gt;hypothetical protein&lt;br&gt;Location: 164401 - 164872" locus_tag="cds164401_164872" class="clusterblast-orf" id="dummy-2_q11_0_all"  />
<polygon points="374,40 376,35 374,30 374,40 " style="fill:#d815b1; stroke-width:1; stroke:black; " description="&lt;b&gt;cds165230_165473&lt;/b&gt;&lt;br&gt;Isochorismatase&lt;br&gt;Location: 165230 - 165473" locus_tag="cds165230_165473" class="clusterblast-orf" id="dummy-2_q12_0_all"  />
<polygon points="376,40 376,40 381,35 376,30 376,30 376,40 " style="fill:#d8b115; stroke-width:1; stroke:black; " description="&lt;b&gt;cds165469_166321&lt;/b&gt;&lt;br&gt;Vibriobactin utilization protein ViuB&lt;br&gt;Location: 165469 - 166321" locus_tag="cds165469_166321" class="clusterblast-orf" id="dummy-2_q13_0_all"  />
<polygon points="382,40 384,40 389,35 384,30 382,30 382,40 " style="fill:#15d863; stroke-width:1; stroke:black; " description="&lt;b&gt;cds166422_167427&lt;/b&gt;&lt;br&gt;Iron(3+)-hydroxamate-binding protein YxeB&lt;br&gt;Location: 166422 - 167427" locus_tag="cds166422_167427" class="clusterblast-orf" id="dummy-2_q14_0_all"  />
<polygon points="389,40 391,40 396,35 391,30 389,30 389,40 " style="fill:#1515d8; stroke-width:1; stroke:black; " description="&lt;b&gt;cds167423_168449&lt;/b&gt;&lt;br&gt;Ferric enterobactin transport system permease protein FepD&lt;br&gt;Location: 167423 - 168449" locus_tag="cds167423_168449" class="clusterblast-orf" id="dummy-2_q15_0_all"  />
<polygon points="396,40 397,40 402,35 397,30 396,30 396,40 " style="fill:#d81563; stroke-width:1; stroke:black; " description="&lt;b&gt;cds168445_169441&lt;/b&gt;&lt;br&gt;Ferric enterobactin transport system permease protein FepG&lt;br&gt;Location: 168445 - 169441" locus_tag="cds168445_169441" class="clusterblast-orf" id="dummy-2_q16_0_all"  />
<polygon points="402,40 403,40 408,35 403,30 402,30 402,40 " style="fill:#b1d815; stroke-width:1; stroke:black; " description="&lt;b&gt;cds169437_170223&lt;/b&gt;&lt;br&gt;Ferric enterobactin transport ATP-binding protein FepC&lt;br&gt;Location: 169437 - 170223" locus_tag="cds169437_170223" class="clusterblast-orf" id="dummy-2_q17_0_all"  />
<polygon points="408,40 470,40 475,35 470,30 408,30 408,40 " style="fill:#15d8b1; stroke-width:1; stroke:black; " description="&lt;b&gt;cds170224_180199&lt;/b&gt;&lt;br&gt;Linear gramicidin synthase subunit D&lt;br&gt;Location: 170224 - 180199" locus_tag="cds170224_180199" class="clusterblast-orf" id="dummy-2_q18_0_all"  />
<polygon points="475,40 479,40 484,35 479,30 475,30 475,40 " style="fill:#6315d8; stroke-width:1; stroke:black; " description="&lt;b&gt;cds180195_181596&lt;/b&gt;&lt;br&gt;putative transport protein HsrA&lt;br&gt;Location: 180195 - 181596" locus_tag="cds180195_181596" class="clusterblast-orf" id="dummy-2_q19_0_all"  />
<polygon points="486,40 501,40 506,35 501,30 486,30 486,40 " style="fill:white; stroke-width:1; stroke:black; " description="&lt;b&gt;cds181801_184810&lt;/b&gt;&lt;br&gt;hypothetical protein&lt;br&gt;Location: 181801 - 184810" locus_tag="cds181801_184810" class="clusterblast-orf" id="dummy-2_q20_0_all"  />
</g>
<g label="BGC0000341" description="BGC0000341_c1: enduracidin (10% of genes show similarity), NRP" class="clusterblast-cluster"  >
<text x="5" y="70" class="clusterblast-acc"  >
<a xlink:href="https://mibig.secondarymetabolites.org/go/BGC0000341/1" target="_blank">BGC0000341</a>:                                                                      enduracidin (10% of genes show similarity), NRP</text>
<line x1="10" y1="85" x2="778.0" y2="85" style="stroke-width:1; stroke:grey; "  />
</g>
<g id="a2_000"  >
<polygon points="0,90 2,85 0,80 0,90 " style="fill:white; stroke-width:1; stroke:black; " description="&lt;b&gt;ABD65968.1&lt;/b&gt;&lt;br&gt;integral membrane protein&lt;br&gt;Location: 115946 - 115590" locus_tag="ABD65968.1" class="clusterblast-orf" id="dummy-2_h2_2_0"  />
</g>
<g id="a2_001"  >
<polygon points="2,90 2,90 7,85 2,80 2,80 2,90 " style="fill:white; stroke-width:1; stroke:black; " description="&lt;b&gt;ABD65967.1&lt;/b&gt;&lt;br&gt;integral membrane protein&lt;br&gt;Location: 115614 - 114877" locus_tag="ABD65967.1" class="clusterblast-orf" id="dummy-2_h2_2_1"  />
</g>
<g id="a2_002"  >
<polygon points="8,90 10,85 8,80 8,90 " style="fill:white; stroke-width:1; stroke:black; " description="&lt;b&gt;ABD65966.1&lt;/b&gt;&lt;br&gt;MbtH-like protein&lt;br&gt;Location: 114619 - 114404" locus_tag="ABD65966.1" class="clusterblast-orf" id="dummy-2_h2_2_2"  />
</g>
<g id="a2_003"  >
<polygon points="10,90 29,90 34,85 29,80 10,80 10,90 " style="fill:white; stroke-width:1; stroke:black; " description="&lt;b&gt;ABD65965.1&lt;/b&gt;&lt;br&gt;acyl-CoA ligase/dehydrogenase fusion protein&lt;br&gt;Location: 114399 - 110866" locus_tag="ABD65965.1" class="clusterblast-orf" id="dummy-2_h2_2_3"  />
</g>
<g id="a2_004"  >
<polygon points="32,90 40,90 45,85 40,80 32,80 32,90 " style="fill:white; stroke-width:1; stroke:black; " description="&lt;b&gt;ABD65964.1&lt;/b&gt;&lt;br&gt;acyl-CoA dehydrogenase&lt;br&gt;Location: 111058 - 109184" locus_tag="ABD65964.1" class="clusterblast-orf" id="dummy-2_h2_2_4"  />
</g>
<g id="a2_005"  >
<polygon points="46,90 49,85 46,80 46,90 " style="fill:white; stroke-width:1; stroke:black; " description="&lt;b&gt;ABD65963.1&lt;/b&gt;&lt;br&gt;two-component system sensor kinase&lt;br&gt;Location: 109083 - 108538" locus_tag="ABD65963.1" class="clusterblast-orf" id="dummy-2_h2_2_5"  />
</g>
<g id="a2_006"  >
<polygon points="50,90 53,90 58,85 53,80 50,80 50,90 " style="fill:white; stroke-width:1; stroke:black; " description="&lt;b&gt;ABD65962.1&lt;/b&gt;&lt;br&gt;two-component system sensor kinase&lt;br&gt;Location: 108386 - 107274" locus_tag="ABD65962.1" class="clusterblast-orf" id="dummy-2_h2_2_6"  />
</g>
<g id="a2_007"  >
<polygon points="58,90 62,85 58,80 58,90 " style="fill:white; stroke-width:1; stroke:black; " description="&lt;b&gt;ABD65961.1&lt;/b&gt;&lt;br&gt;two-component system response regulator&lt;br&gt;Location: 107277 - 106606" locus_tag="ABD65961.1" class="clusterblast-orf" id="dummy-2_h2_2_7"  />
</g>
<g id="a2_008"  >
<polygon points="63,85 68,80 80,80 80,90 68,90 63,85 " style="fill:white; stroke-width:1; stroke:black; " description="&lt;b&gt;ABD65960.1&lt;/b&gt;&lt;br&gt;nonribosomal peptide synthetase&lt;br&gt;Location: 106581 - 104002" locus_tag="ABD65960.1" class="clusterblast-orf" id="dummy-2_h2_2_8"  />
</g>
<g id="a2_009"  >
<polygon points="80,85 85,80 86,80 86,90 85,90 80,85 " style="fill:white; stroke-width:1; stroke:black; " description="&lt;b&gt;ABD65959.1&lt;/b&gt;&lt;br&gt;acyl-CoA dehydrogenase/reductase&lt;br&gt;Location: 103984 - 103160" locus_tag="ABD65959.1" class="clusterblast-orf" id="dummy-2_h2_2_9"  />
</g>
<g id="a2_0010"  >
<polygon points="86,85 91,80 267,80 267,90 91,90 86,85 " style="fill:white; stroke-width:1; stroke:black; " description="&lt;b&gt;ABD65958.1&lt;/b&gt;&lt;br&gt;nonribosomal peptide synthetase&lt;br&gt;Location: 103151 - 76191" locus_tag="ABD65958.1" class="clusterblast-orf" id="dummy-2_h2_2_10"  />
</g>
<g id="a2_0011"  >
<polygon points="267,85 272,80 407,80 407,90 272,90 267,85 " style="fill:white; stroke-width:1; stroke:black; " description="&lt;b&gt;ABD65957.1&lt;/b&gt;&lt;br&gt;nonribosomal peptide synthetase&lt;br&gt;Location: 76194 - 55363" locus_tag="ABD65957.1" class="clusterblast-orf" id="dummy-2_h2_2_11"  />
</g>
<g id="a2_0012"  >
<polygon points="407,85 412,80 450,80 450,90 412,90 407,85 " style="fill:white; stroke-width:1; stroke:black; " description="&lt;b&gt;ABD65956.1&lt;/b&gt;&lt;br&gt;nonribosomal peptide synthetase&lt;br&gt;Location: 55346 - 49041" locus_tag="ABD65956.1" class="clusterblast-orf" id="dummy-2_h2_2_12"  />
</g>
<g id="a2_0013"  >
<polygon points="450,85 452,80 452,90 450,85 " style="fill:white; stroke-width:1; stroke:black; " description="&lt;b&gt;ABD65955.1&lt;/b&gt;&lt;br&gt;peptidyl carrier protein&lt;br&gt;Location: 49019 - 48747" locus_tag="ABD65955.1" class="clusterblast-orf" id="dummy-2_h2_2_13"  />
</g>
<g id="a2_0014"  >
<polygon points="454,90 454,90 459,85 454,80 454,80 454,90 " style="fill:white; stroke-width:1; stroke:black; " description="&lt;b&gt;ABD65954.1&lt;/b&gt;&lt;br&gt;type II thioesterase&lt;br&gt;Location: 48424 - 47597" locus_tag="ABD65954.1" class="clusterblast-orf" id="dummy-2_h2_2_14"  />
</g>
<g id="a2_0015"  >
<polygon points="460,90 468,90 473,85 468,80 460,80 460,90 " style="fill:white; stroke-width:1; stroke:black; " description="&lt;b&gt;ABD65953.1&lt;/b&gt;&lt;br&gt;ABC transporter&lt;br&gt;Location: 47514 - 45559" locus_tag="ABD65953.1" class="clusterblast-orf" id="dummy-2_h2_2_15"  />
</g>
<g id="a2_0016"  >
<polygon points="473,90 474,90 479,85 474,80 473,80 473,90 " style="fill:white; stroke-width:1; stroke:black; " description="&lt;b&gt;ABD65952.1&lt;/b&gt;&lt;br&gt;ABC transporter&lt;br&gt;Location: 45524 - 44601" locus_tag="ABD65952.1" class="clusterblast-orf" id="dummy-2_h2_2_16"  />
</g>
<g id="a2_0017"  >
<polygon points="479,90 481,90 486,85 481,80 479,80 479,90 " style="fill:white; stroke-width:1; stroke:black; " description="&lt;b&gt;ABD65951.1&lt;/b&gt;&lt;br&gt;transmembrane transport protein&lt;br&gt;Location: 44604 - 43579" locus_tag="ABD65951.1" class="clusterblast-orf" id="dummy-2_h2_2_17"  />
</g>
<g id="a2_0018"  >
<polygon points="488,90 493,90 498,85 493,80 488,80 488,90 " style="fill:white; stroke-width:1; stroke:black; " description="&lt;b&gt;ABD65950.1&lt;/b&gt;&lt;br&gt;halogenase&lt;br&gt;Location: 43404 - 41890" locus_tag="ABD65950.1" class="clusterblast-orf" id="dummy-2_h2_2_18"  />
</g>
<g id="a2_0019"  >
<polygon points="498,85 503,80 514,80 514,90 503,90 498,85 " style="fill:white; stroke-width:1; stroke:black; " description="&lt;b&gt;ABD65949.1&lt;/b&gt;&lt;br&gt;hydroxyphenylglycine aminotransferase/hydroxymandelate oxidase fusion protein&lt;br&gt;Location: 41829 - 39403" locus_tag="ABD65949.1" class="clusterblast-orf" id="dummy-2_h2_2_19"  />
</g>
<g id="a2_0020"  >
<polygon points="519,90 520,90 525,85 520,80 519,80 519,90 " style="fill:white; stroke-width:1; stroke:black; " description="&lt;b&gt;ABD65947.1&lt;/b&gt;&lt;br&gt;PLP-dependent aminotransferase&lt;br&gt;Location: 38768 - 37887" locus_tag="ABD65947.1" class="clusterblast-orf" id="dummy-2_h2_2_20"  />
</g>
<g id="a2_0021"  >
<polygon points="525,90 528,90 533,85 528,80 525,80 525,90 " style="fill:white; stroke-width:1; stroke:black; " description="&lt;b&gt;ABD65948.1&lt;/b&gt;&lt;br&gt;PLP-dependent aminotransferse&lt;br&gt;Location: 37887 - 36628" locus_tag="ABD65948.1" class="clusterblast-orf" id="dummy-2_h2_2_21"  />
</g>
<g id="a2_0022"  >
<polygon points="533,90 534,90 539,85 534,80 533,80 533,90 " style="fill:white; stroke-width:1; stroke:black; " description="&lt;b&gt;ABD65946.1&lt;/b&gt;&lt;br&gt;unknown&lt;br&gt;Location: 36631 - 35792" locus_tag="ABD65946.1" class="clusterblast-orf" id="dummy-2_h2_2_22"  />
</g>
<g id="a2_0023"  >
<polygon points="539,85 544,80 546,80 546,90 544,90 539,85 " style="fill:white; stroke-width:1; stroke:black; " description="&lt;b&gt;ABD65945.1&lt;/b&gt;&lt;br&gt;4-hydroxyphenylpyruvate dioxygenase&lt;br&gt;Location: 35714 - 34644" locus_tag="ABD65945.1" class="clusterblast-orf" id="dummy-2_h2_2_23"  />
</g>
<g id="a2_0024"  >
<polygon points="547,85 552,80 553,80 553,90 552,90 547,85 " style="fill:white; stroke-width:1; stroke:black; " description="&lt;b&gt;ABD65944.1&lt;/b&gt;&lt;br&gt;unknown&lt;br&gt;Location: 34565 - 33630" locus_tag="ABD65944.1" class="clusterblast-orf" id="dummy-2_h2_2_24"  />
</g>
<g id="a2_0025"  >
<polygon points="555,90 557,90 562,85 557,80 555,80 555,90 " style="fill:white; stroke-width:1; stroke:black; " description="&lt;b&gt;ABD65943.1&lt;/b&gt;&lt;br&gt;prephenate dehydrogenase&lt;br&gt;Location: 33354 - 32266" locus_tag="ABD65943.1" class="clusterblast-orf" id="dummy-2_h2_2_25"  />
</g>
<g id="a2_0026"  >
<polygon points="563,85 568,80 570,80 570,90 568,90 563,85 " style="fill:white; stroke-width:1; stroke:black; " description="&lt;b&gt;ABD65942.1&lt;/b&gt;&lt;br&gt;StrR-like regulatory protein&lt;br&gt;Location: 32133 - 31147" locus_tag="ABD65942.1" class="clusterblast-orf" id="dummy-2_h2_2_26"  />
</g>
<g id="a2_0027"  >
<polygon points="573,85 578,80 586,80 586,90 578,90 573,85 " style="fill:white; stroke-width:1; stroke:black; " description="&lt;b&gt;ABD65941.1&lt;/b&gt;&lt;br&gt;PAS protein phosphatase 2C-like protein&lt;br&gt;Location: 30746 - 28752" locus_tag="ABD65941.1" class="clusterblast-orf" id="dummy-2_h2_2_27"  />
</g>
<g id="a2_0028"  >
<polygon points="587,85 592,80 594,80 594,90 592,90 587,85 " style="fill:white; stroke-width:1; stroke:black; " description="&lt;b&gt;ABD65940.1&lt;/b&gt;&lt;br&gt;uroporphyrinogen decarboxylase&lt;br&gt;Location: 28638 - 27544" locus_tag="ABD65940.1" class="clusterblast-orf" id="dummy-2_h2_2_28"  />
</g>
<g id="a2_0029"  >
<polygon points="595,90 595,90 600,85 595,80 595,80 595,90 " style="fill:white; stroke-width:1; stroke:black; " description="&lt;b&gt;ABD65939.1&lt;/b&gt;&lt;br&gt;unknown&lt;br&gt;Location: 27398 - 26724" locus_tag="ABD65939.1" class="clusterblast-orf" id="dummy-2_h2_2_29"  />
</g>
<g id="a2_0030"  >
<polygon points="602,90 606,85 602,80 602,90 " style="fill:white; stroke-width:1; stroke:black; " description="&lt;b&gt;ABD65938.1&lt;/b&gt;&lt;br&gt;two-component response regulator&lt;br&gt;Location: 26454 - 25792" locus_tag="ABD65938.1" class="clusterblast-orf" id="dummy-2_h2_2_30"  />
</g>
<g id="a2_0031"  >
<polygon points="607,90 611,90 616,85 611,80 607,80 607,90 " style="fill:white; stroke-width:1; stroke:black; " description="&lt;b&gt;ABD65937.1&lt;/b&gt;&lt;br&gt;ribonuclease D&lt;br&gt;Location: 25633 - 24341" locus_tag="ABD65937.1" class="clusterblast-orf" id="dummy-2_h2_2_31"  />
</g>
<g id="a2_0032"  >
<polygon points="616,85 621,80 621,80 621,90 621,90 616,85 " style="fill:#15b1d8; stroke-width:1; stroke:black; " description="&lt;b&gt;ABD65936.1&lt;/b&gt;&lt;br&gt;sugar transport system permease protein&lt;br&gt;Location: 24363 - 23533&lt;br&gt;&lt;br&gt;&lt;b&gt;BlastP hit with cds157392_158280&lt;/b&gt;&lt;br&gt;Percentage identity: 73&lt;br&gt;Percentage coverage: 93&lt;br&gt;BLAST bit score: 392&lt;br&gt;E-value: 7.1e-109" locus_tag="ABD65936.1" class="clusterblast-orf" id="dummy-2_h2_2_32"  />
</g>
<g id="a2_0033"  >
<polygon points="621,85 626,80 626,80 626,90 626,90 621,85 " style="fill:#b115d8; stroke-width:1; stroke:black; " description="&lt;b&gt;ABD65935.1&lt;/b&gt;&lt;br&gt;sugar transport system permease protein&lt;br&gt;Location: 23536 - 22760&lt;br&gt;&lt;br&gt;&lt;b&gt;BlastP hit with cds158276_159263&lt;/b&gt;&lt;br&gt;Percentage identity: 81&lt;br&gt;Percentage coverage: 79&lt;br&gt;BLAST bit score: 401&lt;br&gt;E-value: 1.3e-111" locus_tag="ABD65935.1" class="clusterblast-orf" id="dummy-2_h2_2_33"  />
</g>
<g id="a2_0034"  >
<polygon points="628,85 633,80 636,80 636,90 633,90 628,85 " style="fill:#d86315; stroke-width:1; stroke:black; " description="&lt;b&gt;ABD65934.1&lt;/b&gt;&lt;br&gt;probable sugar transport system sugar-binding lipoprotein&lt;br&gt;Location: 22582 - 21260&lt;br&gt;&lt;br&gt;&lt;b&gt;BlastP hit with cds159339_160662&lt;/b&gt;&lt;br&gt;Percentage identity: 58&lt;br&gt;Percentage coverage: 100&lt;br&gt;BLAST bit score: 520&lt;br&gt;E-value: 2.6e-147" locus_tag="ABD65934.1" class="clusterblast-orf" id="dummy-2_h2_2_34"  />
</g>
<g id="a2_0035"  >
<polygon points="637,90 648,90 653,85 648,80 637,80 637,90 " style="fill:#15d815; stroke-width:1; stroke:black; " description="&lt;b&gt;ABD65933.1&lt;/b&gt;&lt;br&gt;beta-mannosidase&lt;br&gt;Location: 21112 - 18731&lt;br&gt;&lt;br&gt;&lt;b&gt;BlastP hit with cds160929_163353&lt;/b&gt;&lt;br&gt;Percentage identity: 69&lt;br&gt;Percentage coverage: 100&lt;br&gt;BLAST bit score: 1157&lt;br&gt;E-value: 0.0" locus_tag="ABD65933.1" class="clusterblast-orf" id="dummy-2_h2_2_35"  />
</g>
<g id="a2_0036"  >
<polygon points="653,90 655,90 660,85 655,80 653,80 653,90 " style="fill:#1563d8; stroke-width:1; stroke:black; " description="&lt;b&gt;ABD65932.1&lt;/b&gt;&lt;br&gt;transcriptional regulator&lt;br&gt;Location: 18734 - 17697&lt;br&gt;&lt;br&gt;&lt;b&gt;BlastP hit with cds163349_164375&lt;/b&gt;&lt;br&gt;Percentage identity: 71&lt;br&gt;Percentage coverage: 99&lt;br&gt;BLAST bit score: 465&lt;br&gt;E-value: 5.8e-131" locus_tag="ABD65932.1" class="clusterblast-orf" id="dummy-2_h2_2_36"  />
</g>
<g id="a2_0037"  >
<polygon points="662,90 665,90 670,85 665,80 662,80 662,90 " style="fill:white; stroke-width:1; stroke:black; " description="&lt;b&gt;ABD65931.1&lt;/b&gt;&lt;br&gt;acetyl-CoA acetyltransferase&lt;br&gt;Location: 17517 - 16300" locus_tag="ABD65931.1" class="clusterblast-orf" id="dummy-2_h2_2_37"  />
</g>
<g id="a2_0038"  >
<polygon points="670,90 679,90 684,85 679,80 670,80 670,90 " style="fill:white; stroke-width:1; stroke:black; " description="&lt;b&gt;ABD65930.1&lt;/b&gt;&lt;br&gt;fatty acid oxidation complex alpha-subunit&lt;br&gt;Location: 16303 - 14174" locus_tag="ABD65930.1" class="clusterblast-orf" id="dummy-2_h2_2_38"  />
</g>
<g id="a2_0039"  >
<polygon points="685,85 690,80 695,80 695,90 690,90 685,85 " style="fill:white; stroke-width:1; stroke:black; " description="&lt;b&gt;ABD65929.1&lt;/b&gt;&lt;br&gt;unknown&lt;br&gt;Location: 14100 - 12610" locus_tag="ABD65929.1" class="clusterblast-orf" id="dummy-2_h2_2_39"  />
</g>
<g id="a2_0040"  >
<polygon points="695,85 700,80 705,80 705,90 700,90 695,85 " style="fill:white; stroke-width:1; stroke:black; " description="&lt;b&gt;ABD65928.1&lt;/b&gt;&lt;br&gt;unknown&lt;br&gt;Location: 12566 - 11118" locus_tag="ABD65928.1" class="clusterblast-orf" id="dummy-2_h2_2_40"  />
</g>
<g id="a2_0041"  >
<polygon points="706,90 707,90 712,85 707,80 706,80 706,90 " style="fill:white; stroke-width:1; stroke:black; " description="&lt;b&gt;ABD65927.1&lt;/b&gt;&lt;br&gt;unknown&lt;br&gt;Location: 10988 - 10071" locus_tag="ABD65927.1" class="clusterblast-orf" id="dummy-2_h2_2_41"  />
</g>
<g id="a2_0042"  >
<polygon points="713,85 718,80 739,80 739,90 718,90 713,85 " style="fill:white; stroke-width:1; stroke:black; " description="&lt;b&gt;ABD65926.1&lt;/b&gt;&lt;br&gt;glycosyltransferase&lt;br&gt;Location: 9925 - 6053" locus_tag="ABD65926.1" class="clusterblast-orf" id="dummy-2_h2_2_42"  />
</g>
<g id="a2_0043"  >
<polygon points="741,90 744,90 749,85 744,80 741,80 741,90 " style="fill:white; stroke-width:1; stroke:black; " description="&lt;b&gt;ABD65925.1&lt;/b&gt;&lt;br&gt;transcriptional regulator&lt;br&gt;Location: 5688 - 4606" locus_tag="ABD65925.1" class="clusterblast-orf" id="dummy-2_h2_2_43"  />
</g>
<g id="a2_0044"  >
<polygon points="749,85 754,80 756,80 756,90 754,90 749,85 " style="fill:white; stroke-width:1; stroke:black; " description="&lt;b&gt;ABD65924.1&lt;/b&gt;&lt;br&gt;unknown&lt;br&gt;Location: 4582 - 3461" locus_tag="ABD65924.1" class="clusterblast-orf" id="dummy-2_h2_2_44"  />
</g>
<g id="a2_0045"  >
<polygon points="757,90 760,85 757,80 757,90 " style="fill:white; stroke-width:1; stroke:black; " description="&lt;b&gt;ABD65923.1&lt;/b&gt;&lt;br&gt;unknown&lt;br&gt;Location: 3297 - 2896" locus_tag="ABD65923.1" class="clusterblast-orf" id="dummy-2_h2_2_45"  />
</g>
<g id="a2_0046"  >
<polygon points="760,85 765,80 770,80 770,90 765,90 760,85 " style="fill:white; stroke-width:1; stroke:black; " description="&lt;b&gt;ABD65922.1&lt;/b&gt;&lt;br&gt;cationic amino acid transporter&lt;br&gt;Location: 2877 - 1381" locus_tag="ABD65922.1" class="clusterblast-orf" id="dummy-2_h2_2_46"  />
</g>
<g id="a2_0047"  >
<polygon points="771,85 776,80 780,80 780,90 776,90 771,85 " style="fill:white; stroke-width:1; stroke:black; " description="&lt;b&gt;ABD65921.1&lt;/b&gt;&lt;br&gt;DXP synthase 2&lt;br&gt;Location: 1230 - 1" locus_tag="ABD65921.1" class="clusterblast-orf" id="dummy-2_h2_2_47"  />
</g>
</svg>
