<svg xmlns="http://www.w3.org/2000/svg" xmlns:xlink="http://www.w3.org/1999/xlink" version="1.1" x="0" y="0" height="230" width="800" viewBox="0 0 800 230" preserveAspectRatio="none"  >
<g label="Query sequence" class="clusterblast-cluster"  >
<text x="5" y="20" class="clusterblast-acc"  >
Query sequence</text>
<line x1="10" y1="35" x2="778.0" y2="35" style="stroke-width:1; stroke:grey; "  />
<polygon points="225,40 231,40 236,35 231,30 225,30 225,40 " style="fill:white; stroke-width:1; stroke:black; " description="&lt;b&gt;cds188_1109&lt;/b&gt;&lt;br&gt;hypothetical protein&lt;br&gt;Location: 188 - 1109" locus_tag="cds188_1109" class="clusterblast-orf" id="dummy-1_q0_0_all"  />
<polygon points="235,35 240,30 241,30 241,40 240,40 235,35 " style="fill:#d81515; stroke-width:1; stroke:black; " description="&lt;b&gt;cds970_1519&lt;/b&gt;&lt;br&gt;FMN reductase (NADH) NtaB&lt;br&gt;Location: 970 - 1519" locus_tag="cds970_1519" class="clusterblast-orf" id="dummy-1_q1_0_all"  />
<polygon points="241,35 246,30 247,30 247,40 246,40 241,35 " style="fill:#4dd815; stroke-width:1; stroke:black; " description="&lt;b&gt;cds1515_1989&lt;/b&gt;&lt;br&gt;hypothetical protein&lt;br&gt;Location: 1515 - 1989" locus_tag="cds1515_1989" class="clusterblast-orf" id="dummy-1_q2_0_all"  />
<polygon points="247,35 252,30 320,30 320,40 252,40 247,35 " style="fill:#1585d8; stroke-width:1; stroke:black; " description="&lt;b&gt;cds1985_7793&lt;/b&gt;&lt;br&gt;hypothetical protein&lt;br&gt;Location: 1985 - 7793" locus_tag="cds1985_7793" class="clusterblast-orf" id="dummy-1_q3_0_all"  />
<polygon points="319,35 324,30 333,30 333,40 324,40 319,35 " style="fill:#a115d8; stroke-width:1; stroke:black; " description="&lt;b&gt;cds7789_8875&lt;/b&gt;&lt;br&gt;hypothetical protein&lt;br&gt;Location: 7789 - 8875" locus_tag="cds7789_8875" class="clusterblast-orf" id="dummy-1_q4_0_all"  />
<polygon points="333,35 338,30 357,30 357,40 338,40 333,35 " style="fill:#d86915; stroke-width:1; stroke:black; " description="&lt;b&gt;cds8876_10805&lt;/b&gt;&lt;br&gt;hypothetical protein&lt;br&gt;Location: 8876 - 10805" locus_tag="cds8876_10805" class="clusterblast-orf" id="dummy-1_q5_0_all"  />
<polygon points="357,35 362,30 369,30 369,40 362,40 357,35 " style="fill:#15d831; stroke-width:1; stroke:black; " description="&lt;b&gt;cds10801_11788&lt;/b&gt;&lt;br&gt;hypothetical protein&lt;br&gt;Location: 10801 - 11788" locus_tag="cds10801_11788" class="clusterblast-orf" id="dummy-1_q6_0_all"  />
<polygon points="370,35 375,30 383,30 383,40 375,40 370,35 " style="fill:#1531d8; stroke-width:1; stroke:black; " description="&lt;b&gt;cds11883_12864&lt;/b&gt;&lt;br&gt;hypothetical protein&lt;br&gt;Location: 11883 - 12864" locus_tag="cds11883_12864" class="clusterblast-orf" id="dummy-1_q7_0_all"  />
<polygon points="384,35 389,30 390,30 390,40 389,40 384,35 " style="fill:#d815bc; stroke-width:1; stroke:black; " description="&lt;b&gt;cds13002_13446&lt;/b&gt;&lt;br&gt;putative HTH-type transcriptional regulator&lt;br&gt;Location: 13002 - 13446" locus_tag="cds13002_13446" class="clusterblast-orf" id="dummy-1_q8_0_all"  />
<polygon points="392,40 394,40 399,35 394,30 392,30 392,40 " style="fill:#d8bc15; stroke-width:1; stroke:black; " description="&lt;b&gt;cds13584_14148&lt;/b&gt;&lt;br&gt;hypothetical protein&lt;br&gt;Location: 13584 - 14148" locus_tag="cds13584_14148" class="clusterblast-orf" id="dummy-1_q9_0_all"  />
<polygon points="399,40 400,40 405,35 400,30 399,30 399,40 " style="fill:#15d885; stroke-width:1; stroke:black; " description="&lt;b&gt;cds14158_14632&lt;/b&gt;&lt;br&gt;hypothetical protein&lt;br&gt;Location: 14158 - 14632" locus_tag="cds14158_14632" class="clusterblast-orf" id="dummy-1_q10_0_all"  />
<polygon points="408,35 413,30 424,30 424,40 413,40 408,35 " style="fill:#4d15d8; stroke-width:1; stroke:black; " description="&lt;b&gt;cds14902_16138&lt;/b&gt;&lt;br&gt;IS701 family transposase ISSav4&lt;br&gt;Location: 14902 - 16138" locus_tag="cds14902_16138" class="clusterblast-orf" id="dummy-1_q11_0_all"  />
<polygon points="427,40 430,40 435,35 430,30 427,30 427,40 " style="fill:white; stroke-width:1; stroke:black; " description="&lt;b&gt;cds16456_17056&lt;/b&gt;&lt;br&gt;A-factor receptor protein&lt;br&gt;Location: 16456 - 17056" locus_tag="cds16456_17056" class="clusterblast-orf" id="dummy-1_q12_0_all"  />
<polygon points="436,35 441,30 446,30 446,40 441,40 436,35 " style="fill:white; stroke-width:1; stroke:black; " description="&lt;b&gt;cds17181_17952&lt;/b&gt;&lt;br&gt;A-factor type gamma-butyrolactone 1'-reductase (1S-forming)&lt;br&gt;Location: 17181 - 17952" locus_tag="cds17181_17952" class="clusterblast-orf" id="dummy-1_q13_0_all"  />
<polygon points="448,35 453,30 456,30 456,40 453,40 448,35 " style="fill:white; stroke-width:1; stroke:black; " description="&lt;b&gt;cds18115_18766&lt;/b&gt;&lt;br&gt;A-factor receptor protein&lt;br&gt;Location: 18115 - 18766" locus_tag="cds18115_18766" class="clusterblast-orf" id="dummy-1_q14_0_all"  />
<polygon points="458,40 464,40 469,35 464,30 458,30 458,40 " style="fill:white; stroke-width:1; stroke:black; " description="&lt;b&gt;cds18885_19803&lt;/b&gt;&lt;br&gt;hypothetical protein&lt;br&gt;Location: 18885 - 19803" locus_tag="cds18885_19803" class="clusterblast-orf" id="dummy-1_q15_0_all"  />
<polygon points="473,40 486,40 491,35 486,30 473,30 473,40 " style="fill:#d81569; stroke-width:1; stroke:black; " description="&lt;b&gt;cds20145_21585&lt;/b&gt;&lt;br&gt;hypothetical protein&lt;br&gt;Location: 20145 - 21585" locus_tag="cds20145_21585" class="clusterblast-orf" id="dummy-1_q16_0_all"  />
<polygon points="494,35 499,30 500,30 500,40 499,40 494,35 " style="fill:white; stroke-width:1; stroke:black; " description="&lt;b&gt;cds21807_22245&lt;/b&gt;&lt;br&gt;hypothetical protein&lt;br&gt;Location: 21807 - 22245" locus_tag="cds21807_22245" class="clusterblast-orf" id="dummy-1_q17_0_all"  />
<polygon points="501,35 506,30 512,30 512,40 506,40 501,35 " style="fill:#a1d815; stroke-width:1; stroke:black; " description="&lt;b&gt;cds22347_23226&lt;/b&gt;&lt;br&gt;hypothetical protein&lt;br&gt;Location: 22347 - 23226" locus_tag="cds22347_23226" class="clusterblast-orf" id="dummy-1_q18_0_all"  />
<polygon points="516,35 521,30 521,30 521,40 521,40 516,35 " style="fill:#15d8d8; stroke-width:1; stroke:black; " description="&lt;b&gt;cds23601_24003&lt;/b&gt;&lt;br&gt;hypothetical protein&lt;br&gt;Location: 23601 - 24003" locus_tag="cds23601_24003" class="clusterblast-orf" id="dummy-1_q19_0_all"  />
<polygon points="521,35 526,30 541,30 541,40 526,40 521,35 " style="fill:#d81569; stroke-width:1; stroke:black; " description="&lt;b&gt;cds23999_25532&lt;/b&gt;&lt;br&gt;hypothetical protein&lt;br&gt;Location: 23999 - 25532" locus_tag="cds23999_25532" class="clusterblast-orf" id="dummy-1_q20_0_all"  />
<polygon points="540,35 545,30 554,30 554,40 545,40 540,35 " style="fill:white; stroke-width:1; stroke:black; " description="&lt;b&gt;cds25521_26649&lt;/b&gt;&lt;br&gt;hypothetical protein&lt;br&gt;Location: 25521 - 26649" locus_tag="cds25521_26649" class="clusterblast-orf" id="dummy-1_q21_0_all"  />
</g>
<g label="BGC0000112" description="BGC0000112_c1: neocarzinostatin (21% of genes show similarity), Polyketide:Iterative type I + Polyketide:Enediyne type I" class="clusterblast-cluster"  >
<text x="5" y="70" class="clusterblast-acc"  >
<a xlink:href="https://mibig.secondarymetabolites.org/go/BGC0000112/1" target="_blank">BGC0000112</a>:                                                                 neocarzinostatin (21% of genes show similarity), Polyketide:Iterative type I + Polyketide:Enediyne type I</text>
<line x1="10" y1="85" x2="778.0" y2="85" style="stroke-width:1; stroke:grey; "  />
</g>
<g id="a1_000"  >
<polygon points="0,90 4,90 9,85 4,80 0,80 0,90 " style="fill:white; stroke-width:1; stroke:black; " description="&lt;b&gt;AAM77980.1&lt;/b&gt;&lt;br&gt;NDP-hexose-4-ketoreductase&lt;br&gt;Location: 1 - 798" locus_tag="AAM77980.1" class="clusterblast-orf" id="dummy-1_h1_4_0"  />
</g>
<g id="a1_001"  >
<polygon points="13,90 28,90 33,85 28,80 13,80 13,90 " style="fill:white; stroke-width:1; stroke:black; " description="&lt;b&gt;AAM77981.1&lt;/b&gt;&lt;br&gt;aminotransferase&lt;br&gt;Location: 1074 - 2654" locus_tag="AAM77981.1" class="clusterblast-orf" id="dummy-1_h1_4_1"  />
</g>
<g id="a1_002"  >
<polygon points="33,90 37,90 42,85 37,80 33,80 33,90 " style="fill:white; stroke-width:1; stroke:black; " description="&lt;b&gt;AAM77982.1&lt;/b&gt;&lt;br&gt;Unknown&lt;br&gt;Location: 2727 - 3407" locus_tag="AAM77982.1" class="clusterblast-orf" id="dummy-1_h1_4_2"  />
</g>
<g id="a1_003"  >
<polygon points="42,90 50,90 55,85 50,80 42,80 42,90 " style="fill:white; stroke-width:1; stroke:black; " description="&lt;b&gt;AAM77983.1&lt;/b&gt;&lt;br&gt;Unknown&lt;br&gt;Location: 3404 - 4447" locus_tag="AAM77983.1" class="clusterblast-orf" id="dummy-1_h1_4_3"  />
</g>
<g id="a1_004"  >
<polygon points="57,90 64,90 69,85 64,80 57,80 57,90 " style="fill:white; stroke-width:1; stroke:black; " description="&lt;b&gt;AAM77984.1&lt;/b&gt;&lt;br&gt;O-methyltransferase&lt;br&gt;Location: 4578 - 5576" locus_tag="AAM77984.1" class="clusterblast-orf" id="dummy-1_h1_4_4"  />
</g>
<g id="a1_005"  >
<polygon points="70,90 71,90 76,85 71,80 70,80 70,90 " style="fill:white; stroke-width:1; stroke:black; " description="&lt;b&gt;AAM77985.1&lt;/b&gt;&lt;br&gt;Unknown&lt;br&gt;Location: 5690 - 6124" locus_tag="AAM77985.1" class="clusterblast-orf" id="dummy-1_h1_4_5"  />
</g>
<g id="a1_006"  >
<polygon points="82,85 87,80 148,80 148,90 87,90 82,85 " style="fill:white; stroke-width:1; stroke:black; " description="&lt;b&gt;AAM77986.1&lt;/b&gt;&lt;br&gt;iterative type I polyketide synthase&lt;br&gt;Location: 6658 - 11919" locus_tag="AAM77986.1" class="clusterblast-orf" id="dummy-1_h1_4_6"  />
</g>
<g id="a1_007"  >
<polygon points="154,90 170,90 175,85 170,80 154,80 154,90 " style="fill:white; stroke-width:1; stroke:black; " description="&lt;b&gt;AAM77987.1&lt;/b&gt;&lt;br&gt;adenylate ligase&lt;br&gt;Location: 12383 - 14059" locus_tag="AAM77987.1" class="clusterblast-orf" id="dummy-1_h1_4_7"  />
</g>
<g id="a1_008"  >
<polygon points="175,85 180,80 202,80 202,90 180,90 175,85 " style="fill:white; stroke-width:1; stroke:black; " description="&lt;b&gt;AAM77988.1&lt;/b&gt;&lt;br&gt;membrane protein&lt;br&gt;Location: 14119 - 16281" locus_tag="AAM77988.1" class="clusterblast-orf" id="dummy-1_h1_4_8"  />
</g>
<g id="a1_009"  >
<polygon points="204,85 209,80 212,80 212,90 209,90 204,85 " style="fill:white; stroke-width:1; stroke:black; " description="&lt;b&gt;AAM77989.1&lt;/b&gt;&lt;br&gt;NDP-hexose synthetase&lt;br&gt;Location: 16379 - 17083" locus_tag="AAM77989.1" class="clusterblast-orf" id="dummy-1_h1_4_9"  />
</g>
<g id="a1_0010"  >
<polygon points="213,85 218,80 225,80 225,90 218,90 213,85 " style="fill:white; stroke-width:1; stroke:black; " description="&lt;b&gt;AAM77990.1&lt;/b&gt;&lt;br&gt;NDP-hexose-4,6-dehydratase&lt;br&gt;Location: 17107 - 18102" locus_tag="AAM77990.1" class="clusterblast-orf" id="dummy-1_h1_4_10"  />
</g>
<g id="a1_0011"  >
<polygon points="227,85 232,80 236,80 236,90 232,90 227,85 " style="fill:white; stroke-width:1; stroke:black; " description="&lt;b&gt;AAM77991.1&lt;/b&gt;&lt;br&gt;N-methyltransferase&lt;br&gt;Location: 18245 - 18964" locus_tag="AAM77991.1" class="clusterblast-orf" id="dummy-1_h1_4_11"  />
</g>
<g id="a1_0012"  >
<polygon points="239,90 249,90 254,85 249,80 239,80 239,90 " style="fill:white; stroke-width:1; stroke:black; " description="&lt;b&gt;AAM77992.1&lt;/b&gt;&lt;br&gt;glycosyltransferase&lt;br&gt;Location: 19189 - 20397" locus_tag="AAM77992.1" class="clusterblast-orf" id="dummy-1_h1_4_12"  />
</g>
<g id="a1_0013"  >
<polygon points="254,90 260,90 265,85 260,80 254,80 254,90 " style="fill:white; stroke-width:1; stroke:black; " description="&lt;b&gt;AAM77993.1&lt;/b&gt;&lt;br&gt;Unknown&lt;br&gt;Location: 20394 - 21287" locus_tag="AAM77993.1" class="clusterblast-orf" id="dummy-1_h1_4_13"  />
</g>
<g id="a1_0014"  >
<polygon points="266,85 271,80 271,80 271,90 271,90 266,85 " style="fill:white; stroke-width:1; stroke:black; " description="&lt;b&gt;AAM77994.1&lt;/b&gt;&lt;br&gt;neocarzinostatin apoprotein&lt;br&gt;Location: 21379 - 21822" locus_tag="AAM77994.1" class="clusterblast-orf" id="dummy-1_h1_4_14"  />
</g>
<g id="a1_0015"  >
<polygon points="282,90 291,90 296,85 291,80 282,80 282,90 " style="fill:white; stroke-width:1; stroke:black; " description="&lt;b&gt;AAM77995.1&lt;/b&gt;&lt;br&gt;epoxide hydrolase&lt;br&gt;Location: 22669 - 23826" locus_tag="AAM77995.1" class="clusterblast-orf" id="dummy-1_h1_4_15"  />
</g>
<g id="a1_0016"  >
<polygon points="302,85 307,80 312,80 312,90 307,90 302,85 " style="fill:white; stroke-width:1; stroke:black; " description="&lt;b&gt;AAM77996.1&lt;/b&gt;&lt;br&gt;esterase/hydrolase&lt;br&gt;Location: 24324 - 25094" locus_tag="AAM77996.1" class="clusterblast-orf" id="dummy-1_h1_4_16"  />
</g>
<g id="a1_0017"  >
<polygon points="315,85 320,80 330,80 330,90 320,90 315,85 " style="fill:white; stroke-width:1; stroke:black; " description="&lt;b&gt;AAM77997.1&lt;/b&gt;&lt;br&gt;cytochrome P-450&lt;br&gt;Location: 25294 - 26526" locus_tag="AAM77997.1" class="clusterblast-orf" id="dummy-1_h1_4_17"  />
</g>
<g id="a1_0018"  >
<polygon points="334,85 338,80 338,90 334,85 " style="fill:white; stroke-width:1; stroke:black; " description="&lt;b&gt;AAM77998.1&lt;/b&gt;&lt;br&gt;hydroxylase&lt;br&gt;Location: 26841 - 27212" locus_tag="AAM77998.1" class="clusterblast-orf" id="dummy-1_h1_4_18"  />
</g>
<g id="a1_0019"  >
<polygon points="340,85 345,80 358,80 358,90 345,90 340,85 " style="fill:white; stroke-width:1; stroke:black; " description="&lt;b&gt;AAM77999.1&lt;/b&gt;&lt;br&gt;transmembrane transporter&lt;br&gt;Location: 27326 - 28810" locus_tag="AAM77999.1" class="clusterblast-orf" id="dummy-1_h1_4_19"  />
</g>
<g id="a1_0020"  >
<polygon points="365,90 368,90 373,85 368,80 365,80 365,90 " style="fill:white; stroke-width:1; stroke:black; " description="&lt;b&gt;AAM78000.1&lt;/b&gt;&lt;br&gt;transcriptional regulator&lt;br&gt;Location: 29363 - 29980" locus_tag="AAM78000.1" class="clusterblast-orf" id="dummy-1_h1_4_20"  />
</g>
<g id="a1_0021"  >
<polygon points="377,90 389,90 394,85 389,80 377,80 377,90 " style="fill:white; stroke-width:1; stroke:black; " description="&lt;b&gt;AAM78001.1&lt;/b&gt;&lt;br&gt;oxidase&lt;br&gt;Location: 30272 - 31648" locus_tag="AAM78001.1" class="clusterblast-orf" id="dummy-1_h1_4_21"  />
</g>
<g id="a1_0022"  >
<polygon points="396,85 401,80 411,80 411,90 401,90 396,85 " style="fill:white; stroke-width:1; stroke:black; " description="&lt;b&gt;AAM78002.1&lt;/b&gt;&lt;br&gt;epoxide hydrolase&lt;br&gt;Location: 31855 - 33018" locus_tag="AAM78002.1" class="clusterblast-orf" id="dummy-1_h1_4_22"  />
</g>
<g id="a1_0023"  >
<polygon points="414,90 425,90 430,85 425,80 414,80 414,90 " style="fill:white; stroke-width:1; stroke:black; " description="&lt;b&gt;AAM78003.1&lt;/b&gt;&lt;br&gt;hydroxylase&lt;br&gt;Location: 33249 - 34574" locus_tag="AAM78003.1" class="clusterblast-orf" id="dummy-1_h1_4_23"  />
</g>
<g id="a1_0024"  >
<polygon points="431,85 436,80 441,80 441,90 436,90 431,85 " style="fill:white; stroke-width:1; stroke:black; " description="&lt;b&gt;AAM78004.1&lt;/b&gt;&lt;br&gt;Unknown&lt;br&gt;Location: 34679 - 35482" locus_tag="AAM78004.1" class="clusterblast-orf" id="dummy-1_h1_4_24"  />
</g>
<g id="a1_0025"  >
<polygon points="443,85 448,80 464,80 464,90 448,90 443,85 " style="fill:white; stroke-width:1; stroke:black; " description="&lt;b&gt;AAM78005.1&lt;/b&gt;&lt;br&gt;oxidoreductase&lt;br&gt;Location: 35619 - 37277" locus_tag="AAM78005.1" class="clusterblast-orf" id="dummy-1_h1_4_25"  />
</g>
<g id="a1_0026"  >
<polygon points="464,85 469,80 471,80 471,90 469,90 464,85 " style="fill:white; stroke-width:1; stroke:black; " description="&lt;b&gt;AAM78006.1&lt;/b&gt;&lt;br&gt;Unknown&lt;br&gt;Location: 37274 - 37873" locus_tag="AAM78006.1" class="clusterblast-orf" id="dummy-1_h1_4_26"  />
</g>
<g id="a1_0027"  >
<polygon points="475,90 483,90 488,85 483,80 475,80 475,90 " style="fill:white; stroke-width:1; stroke:black; " description="&lt;b&gt;AAM78007.1&lt;/b&gt;&lt;br&gt;transcriptional regulator&lt;br&gt;Location: 38141 - 39205" locus_tag="AAM78007.1" class="clusterblast-orf" id="dummy-1_h1_4_27"  />
</g>
<g id="a1_0028"  >
<polygon points="488,90 493,90 498,85 493,80 488,80 488,90 " style="fill:white; stroke-width:1; stroke:black; " description="&lt;b&gt;AAM78008.1&lt;/b&gt;&lt;br&gt;transcriptional regulator&lt;br&gt;Location: 39249 - 40043" locus_tag="AAM78008.1" class="clusterblast-orf" id="dummy-1_h1_4_28"  />
</g>
<g id="a1_0029"  >
<polygon points="499,85 504,80 516,80 516,90 504,90 499,85 " style="fill:white; stroke-width:1; stroke:black; " description="&lt;b&gt;AAM78009.1&lt;/b&gt;&lt;br&gt;cytochrome P-450&lt;br&gt;Location: 40103 - 41455" locus_tag="AAM78009.1" class="clusterblast-orf" id="dummy-1_h1_4_29"  />
</g>
<g id="a1_0030"  >
<polygon points="516,85 521,80 523,80 523,90 521,90 516,85 " style="fill:#d81515; stroke-width:1; stroke:black; " description="&lt;b&gt;AAM78010.1&lt;/b&gt;&lt;br&gt;flavin reductase&lt;br&gt;Location: 41452 - 42000&lt;br&gt;&lt;br&gt;&lt;b&gt;BlastP hit with cds970_1519&lt;/b&gt;&lt;br&gt;Percentage identity: 62&lt;br&gt;Percentage coverage: 91&lt;br&gt;BLAST bit score: 213&lt;br&gt;E-value: 2.8e-55" locus_tag="AAM78010.1" class="clusterblast-orf" id="dummy-1_h1_4_30"  />
</g>
<g id="a1_0031"  >
<polygon points="523,85 528,80 528,80 528,90 528,90 523,85 " style="fill:#4dd815; stroke-width:1; stroke:black; " description="&lt;b&gt;AAM78011.1&lt;/b&gt;&lt;br&gt;thioesterase&lt;br&gt;Location: 41997 - 42458&lt;br&gt;&lt;br&gt;&lt;b&gt;BlastP hit with cds1515_1989&lt;/b&gt;&lt;br&gt;Percentage identity: 51&lt;br&gt;Percentage coverage: 94&lt;br&gt;BLAST bit score: 144&lt;br&gt;E-value: 1e-34" locus_tag="AAM78011.1" class="clusterblast-orf" id="dummy-1_h1_4_31"  />
</g>
<g id="a1_0032"  >
<polygon points="528,85 533,80 602,80 602,90 533,90 528,85 " style="fill:#1585d8; stroke-width:1; stroke:black; " description="&lt;b&gt;AAM78012.1&lt;/b&gt;&lt;br&gt;warhead-forming iterative polyketide synthase&lt;br&gt;Location: 42448 - 48381&lt;br&gt;&lt;br&gt;&lt;b&gt;BlastP hit with cds1985_7793&lt;/b&gt;&lt;br&gt;Percentage identity: 70&lt;br&gt;Percentage coverage: 101&lt;br&gt;BLAST bit score: 2619&lt;br&gt;E-value: 0.0" locus_tag="AAM78012.1" class="clusterblast-orf" id="dummy-1_h1_4_32"  />
</g>
<g id="a1_0033"  >
<polygon points="602,85 607,80 616,80 616,90 607,90 602,85 " style="fill:#a115d8; stroke-width:1; stroke:black; " description="&lt;b&gt;AAM78013.1&lt;/b&gt;&lt;br&gt;putative transporter&lt;br&gt;Location: 48378 - 49472&lt;br&gt;&lt;br&gt;&lt;b&gt;BlastP hit with cds7789_8875&lt;/b&gt;&lt;br&gt;Percentage identity: 67&lt;br&gt;Percentage coverage: 98&lt;br&gt;BLAST bit score: 468&lt;br&gt;E-value: 7.3e-132" locus_tag="AAM78013.1" class="clusterblast-orf" id="dummy-1_h1_4_33"  />
</g>
<g id="a1_0034"  >
<polygon points="616,85 621,80 640,80 640,90 621,90 616,85 " style="fill:#d86915; stroke-width:1; stroke:black; " description="&lt;b&gt;AAM78014.1&lt;/b&gt;&lt;br&gt;Unknown&lt;br&gt;Location: 49469 - 51379&lt;br&gt;&lt;br&gt;&lt;b&gt;BlastP hit with cds8876_10805&lt;/b&gt;&lt;br&gt;Percentage identity: 67&lt;br&gt;Percentage coverage: 100&lt;br&gt;BLAST bit score: 905&lt;br&gt;E-value: 4.1e-263" locus_tag="AAM78014.1" class="clusterblast-orf" id="dummy-1_h1_4_34"  />
</g>
<g id="a1_0035"  >
<polygon points="639,85 644,80 652,80 652,90 644,90 639,85 " style="fill:#15d831; stroke-width:1; stroke:black; " description="&lt;b&gt;AAM78015.1&lt;/b&gt;&lt;br&gt;Unknown&lt;br&gt;Location: 51376 - 52362&lt;br&gt;&lt;br&gt;&lt;b&gt;BlastP hit with cds10801_11788&lt;/b&gt;&lt;br&gt;Percentage identity: 61&lt;br&gt;Percentage coverage: 98&lt;br&gt;BLAST bit score: 402&lt;br&gt;E-value: 7.6e-112" locus_tag="AAM78015.1" class="clusterblast-orf" id="dummy-1_h1_4_35"  />
</g>
<g id="a1_0036"  >
<polygon points="653,85 658,80 665,80 665,90 658,90 653,85 " style="fill:#1531d8; stroke-width:1; stroke:black; " description="&lt;b&gt;AAM78016.1&lt;/b&gt;&lt;br&gt;Unknown&lt;br&gt;Location: 52446 - 53426&lt;br&gt;&lt;br&gt;&lt;b&gt;BlastP hit with cds11883_12864&lt;/b&gt;&lt;br&gt;Percentage identity: 68&lt;br&gt;Percentage coverage: 98&lt;br&gt;BLAST bit score: 420&lt;br&gt;E-value: 2.7e-117" locus_tag="AAM78016.1" class="clusterblast-orf" id="dummy-1_h1_4_36"  />
</g>
<g id="a1_0037"  >
<polygon points="666,85 671,80 672,80 672,90 671,90 666,85 " style="fill:#d815bc; stroke-width:1; stroke:black; " description="&lt;b&gt;AAM78017.1&lt;/b&gt;&lt;br&gt;Unknown&lt;br&gt;Location: 53529 - 53972&lt;br&gt;&lt;br&gt;&lt;b&gt;BlastP hit with cds13002_13446&lt;/b&gt;&lt;br&gt;Percentage identity: 72&lt;br&gt;Percentage coverage: 100&lt;br&gt;BLAST bit score: 227&lt;br&gt;E-value: 2e-59" locus_tag="AAM78017.1" class="clusterblast-orf" id="dummy-1_h1_4_37"  />
</g>
<g id="a1_0038"  >
<polygon points="676,90 685,90 690,85 685,80 676,80 676,90 " style="fill:white; stroke-width:1; stroke:black; " description="&lt;b&gt;AAM78018.1&lt;/b&gt;&lt;br&gt;transposase&lt;br&gt;Location: 54268 - 55470" locus_tag="AAM78018.1" class="clusterblast-orf" id="dummy-1_h1_4_38"  />
</g>
<g id="a1_0039"  >
<polygon points="692,85 697,80 707,80 707,90 697,90 692,85 " style="fill:#4d15d8; stroke-width:1; stroke:black; " description="&lt;b&gt;AAM78019.1&lt;/b&gt;&lt;br&gt;transcriptional regulator&lt;br&gt;Location: 55586 - 56764&lt;br&gt;&lt;br&gt;&lt;b&gt;BlastP hit with cds14902_16138&lt;/b&gt;&lt;br&gt;Percentage identity: 53&lt;br&gt;Percentage coverage: 93&lt;br&gt;BLAST bit score: 383&lt;br&gt;E-value: 3.5e-106" locus_tag="AAM78019.1" class="clusterblast-orf" id="dummy-1_h1_4_39"  />
</g>
<g id="a1_0040"  >
<polygon points="710,90 713,90 718,85 713,80 710,80 710,90 " style="fill:white; stroke-width:1; stroke:black; " description="&lt;b&gt;AAM78020.1&lt;/b&gt;&lt;br&gt;transcriptional regulator&lt;br&gt;Location: 57070 - 57690" locus_tag="AAM78020.1" class="clusterblast-orf" id="dummy-1_h1_4_40"  />
</g>
<g id="a1_0041"  >
<polygon points="719,85 724,80 731,80 731,90 724,90 719,85 " style="fill:white; stroke-width:1; stroke:black; " description="&lt;b&gt;AAM78021.1&lt;/b&gt;&lt;br&gt;NDP-hexose-2,3-dehydratase&lt;br&gt;Location: 57735 - 58715" locus_tag="AAM78021.1" class="clusterblast-orf" id="dummy-1_h1_4_41"  />
</g>
<g id="a1_0042"  >
<polygon points="731,85 736,80 739,80 739,90 736,90 731,85 " style="fill:white; stroke-width:1; stroke:black; " description="&lt;b&gt;AAM78022.1&lt;/b&gt;&lt;br&gt;butyrolactone receptor&lt;br&gt;Location: 58712 - 59338" locus_tag="AAM78022.1" class="clusterblast-orf" id="dummy-1_h1_4_42"  />
</g>
<g id="a1_0043"  >
<polygon points="740,90 747,90 752,85 747,80 740,80 740,90 " style="fill:white; stroke-width:1; stroke:black; " description="&lt;b&gt;AAM78023.1&lt;/b&gt;&lt;br&gt;transcriptional regulator&lt;br&gt;Location: 59458 - 60411" locus_tag="AAM78023.1" class="clusterblast-orf" id="dummy-1_h1_4_43"  />
</g>
<g id="a1_0044"  >
<polygon points="756,85 761,80 766,80 766,90 761,90 756,85 " style="fill:white; stroke-width:1; stroke:black; " description="&lt;b&gt;AAM78024.1&lt;/b&gt;&lt;br&gt;Unknown&lt;br&gt;Location: 60721 - 61515" locus_tag="AAM78024.1" class="clusterblast-orf" id="dummy-1_h1_4_44"  />
</g>
<g id="a1_0045"  >
<polygon points="767,85 772,80 780,80 780,90 772,90 767,85 " style="fill:#a1d815; stroke-width:1; stroke:black; " description="&lt;b&gt;AAM78025.1&lt;/b&gt;&lt;br&gt;Unknown&lt;br&gt;Location: 61642 - 62616&lt;br&gt;&lt;br&gt;&lt;b&gt;BlastP hit with cds22347_23226&lt;/b&gt;&lt;br&gt;Percentage identity: 69&lt;br&gt;Percentage coverage: 100&lt;br&gt;BLAST bit score: 409&lt;br&gt;E-value: 4.2e-114" locus_tag="AAM78025.1" class="clusterblast-orf" id="dummy-1_h1_4_45"  />
</g>
</svg>
