<svg xmlns="http://www.w3.org/2000/svg" xmlns:xlink="http://www.w3.org/1999/xlink" version="1.1" x="0" y="0" height="230" width="800" viewBox="0 0 800 230" preserveAspectRatio="none"  >
<g label="Query sequence" class="clusterblast-cluster"  >
<text x="5" y="20" class="clusterblast-acc"  >
Query sequence</text>
<line x1="10" y1="35" x2="778.0" y2="35" style="stroke-width:1; stroke:grey; "  />
<polygon points="0,40 32,40 37,35 32,30 0,30 0,40 " style="fill:white; stroke-width:1; stroke:black; " description="&lt;b&gt;cds150253_151885&lt;/b&gt;&lt;br&gt;Apolipoprotein N-acyltransferase&lt;br&gt;Location: 150253 - 151885" locus_tag="cds150253_151885" class="clusterblast-orf" id="dummy-2_q0_0_all"  />
<polygon points="37,40 43,40 48,35 43,30 37,30 37,40 " style="fill:white; stroke-width:1; stroke:black; " description="&lt;b&gt;cds151895_152375&lt;/b&gt;&lt;br&gt;hypothetical protein&lt;br&gt;Location: 151895 - 152375" locus_tag="cds151895_152375" class="clusterblast-orf" id="dummy-2_q1_0_all"  />
<polygon points="49,35 54,30 80,30 80,40 54,40 49,35 " style="fill:white; stroke-width:1; stroke:black; " description="&lt;b&gt;cds152427_153816&lt;/b&gt;&lt;br&gt;Fosfomycin resistance protein AbaF&lt;br&gt;Location: 152427 - 153816" locus_tag="cds152427_153816" class="clusterblast-orf" id="dummy-2_q2_0_all"  />
<polygon points="85,35 90,30 114,30 114,40 90,40 85,35 " style="fill:#d81515; stroke-width:1; stroke:black; " description="&lt;b&gt;cds154037_155303&lt;/b&gt;&lt;br&gt;hypothetical protein&lt;br&gt;Location: 154037 - 155303" locus_tag="cds154037_155303" class="clusterblast-orf" id="dummy-2_q3_0_all"  />
<polygon points="117,40 133,40 138,35 133,30 117,30 117,40 " style="fill:#63d815; stroke-width:1; stroke:black; " description="&lt;b&gt;cds155435_156371&lt;/b&gt;&lt;br&gt;HTH-type transcriptional regulator HdfR&lt;br&gt;Location: 155435 - 156371" locus_tag="cds155435_156371" class="clusterblast-orf" id="dummy-2_q4_0_all"  />
<polygon points="141,40 153,40 158,35 153,30 141,30 141,40 " style="fill:white; stroke-width:1; stroke:black; " description="&lt;b&gt;cds156490_157264&lt;/b&gt;&lt;br&gt;Methionine aminopeptidase 1&lt;br&gt;Location: 156490 - 157264" locus_tag="cds156490_157264" class="clusterblast-orf" id="dummy-2_q5_0_all"  />
<polygon points="161,35 166,30 181,30 181,40 166,40 161,35 " style="fill:#15b1d8; stroke-width:1; stroke:black; " description="&lt;b&gt;cds157392_158280&lt;/b&gt;&lt;br&gt;L-arabinose transport system permease protein AraQ&lt;br&gt;Location: 157392 - 158280" locus_tag="cds157392_158280" class="clusterblast-orf" id="dummy-2_q6_0_all"  />
<polygon points="181,35 186,30 203,30 203,40 186,40 181,35 " style="fill:#b115d8; stroke-width:1; stroke:black; " description="&lt;b&gt;cds158276_159263&lt;/b&gt;&lt;br&gt;hypothetical protein&lt;br&gt;Location: 158276 - 159263" locus_tag="cds158276_159263" class="clusterblast-orf" id="dummy-2_q7_0_all"  />
<polygon points="205,35 210,30 235,30 235,40 210,40 205,35 " style="fill:#d86315; stroke-width:1; stroke:black; " description="&lt;b&gt;cds159339_160662&lt;/b&gt;&lt;br&gt;hypothetical protein&lt;br&gt;Location: 159339 - 160662" locus_tag="cds159339_160662" class="clusterblast-orf" id="dummy-2_q8_0_all"  />
<polygon points="241,40 290,40 295,35 290,30 241,30 241,40 " style="fill:#15d815; stroke-width:1; stroke:black; " description="&lt;b&gt;cds160929_163353&lt;/b&gt;&lt;br&gt;hypothetical protein&lt;br&gt;Location: 160929 - 163353" locus_tag="cds160929_163353" class="clusterblast-orf" id="dummy-2_q9_0_all"  />
<polygon points="295,40 313,40 318,35 313,30 295,30 295,40 " style="fill:#1563d8; stroke-width:1; stroke:black; " description="&lt;b&gt;cds163349_164375&lt;/b&gt;&lt;br&gt;HTH-type transcriptional repressor CytR&lt;br&gt;Location: 163349 - 164375" locus_tag="cds163349_164375" class="clusterblast-orf" id="dummy-2_q10_0_all"  />
<polygon points="319,35 324,30 330,30 330,40 324,40 319,35 " style="fill:white; stroke-width:1; stroke:black; " description="&lt;b&gt;cds164401_164872&lt;/b&gt;&lt;br&gt;hypothetical protein&lt;br&gt;Location: 164401 - 164872" locus_tag="cds164401_164872" class="clusterblast-orf" id="dummy-2_q11_0_all"  />
<polygon points="338,40 338,40 343,35 338,30 338,30 338,40 " style="fill:#d815b1; stroke-width:1; stroke:black; " description="&lt;b&gt;cds165230_165473&lt;/b&gt;&lt;br&gt;Isochorismatase&lt;br&gt;Location: 165230 - 165473" locus_tag="cds165230_165473" class="clusterblast-orf" id="dummy-2_q12_0_all"  />
<polygon points="343,40 357,40 362,35 357,30 343,30 343,40 " style="fill:#d8b115; stroke-width:1; stroke:black; " description="&lt;b&gt;cds165469_166321&lt;/b&gt;&lt;br&gt;Vibriobactin utilization protein ViuB&lt;br&gt;Location: 165469 - 166321" locus_tag="cds165469_166321" class="clusterblast-orf" id="dummy-2_q13_0_all"  />
<polygon points="365,40 382,40 387,35 382,30 365,30 365,40 " style="fill:#15d863; stroke-width:1; stroke:black; " description="&lt;b&gt;cds166422_167427&lt;/b&gt;&lt;br&gt;Iron(3+)-hydroxamate-binding protein YxeB&lt;br&gt;Location: 166422 - 167427" locus_tag="cds166422_167427" class="clusterblast-orf" id="dummy-2_q14_0_all"  />
<polygon points="387,40 405,40 410,35 405,30 387,30 387,40 " style="fill:#1515d8; stroke-width:1; stroke:black; " description="&lt;b&gt;cds167423_168449&lt;/b&gt;&lt;br&gt;Ferric enterobactin transport system permease protein FepD&lt;br&gt;Location: 167423 - 168449" locus_tag="cds167423_168449" class="clusterblast-orf" id="dummy-2_q15_0_all"  />
<polygon points="410,40 428,40 433,35 428,30 410,30 410,40 " style="fill:#d81563; stroke-width:1; stroke:black; " description="&lt;b&gt;cds168445_169441&lt;/b&gt;&lt;br&gt;Ferric enterobactin transport system permease protein FepG&lt;br&gt;Location: 168445 - 169441" locus_tag="cds168445_169441" class="clusterblast-orf" id="dummy-2_q16_0_all"  />
<polygon points="433,40 445,40 450,35 445,30 433,30 433,40 " style="fill:#b1d815; stroke-width:1; stroke:black; " description="&lt;b&gt;cds169437_170223&lt;/b&gt;&lt;br&gt;Ferric enterobactin transport ATP-binding protein FepC&lt;br&gt;Location: 169437 - 170223" locus_tag="cds169437_170223" class="clusterblast-orf" id="dummy-2_q17_0_all"  />
<polygon points="450,40 671,40 676,35 671,30 450,30 450,40 " style="fill:#15d8b1; stroke-width:1; stroke:black; " description="&lt;b&gt;cds170224_180199&lt;/b&gt;&lt;br&gt;Linear gramicidin synthase subunit D&lt;br&gt;Location: 170224 - 180199" locus_tag="cds170224_180199" class="clusterblast-orf" id="dummy-2_q18_0_all"  />
<polygon points="676,40 702,40 707,35 702,30 676,30 676,40 " style="fill:#6315d8; stroke-width:1; stroke:black; " description="&lt;b&gt;cds180195_181596&lt;/b&gt;&lt;br&gt;putative transport protein HsrA&lt;br&gt;Location: 180195 - 181596" locus_tag="cds180195_181596" class="clusterblast-orf" id="dummy-2_q19_0_all"  />
<polygon points="712,40 775,40 780,35 775,30 712,30 712,40 " style="fill:white; stroke-width:1; stroke:black; " description="&lt;b&gt;cds181801_184810&lt;/b&gt;&lt;br&gt;hypothetical protein&lt;br&gt;Location: 181801 - 184810" locus_tag="cds181801_184810" class="clusterblast-orf" id="dummy-2_q20_0_all"  />
</g>
<g label="BGC0000368" description="BGC0000368_c1: streptobactin (11% of genes show similarity), NRP" class="clusterblast-cluster"  >
<text x="5" y="70" class="clusterblast-acc"  >
<a xlink:href="https://mibig.secondarymetabolites.org/go/BGC0000368/1" target="_blank">BGC0000368</a>:                                                                    streptobactin (11% of genes show similarity), NRP</text>
<line x1="10" y1="85" x2="778.0" y2="85" style="stroke-width:1; stroke:grey; "  />
</g>
<g id="a2_000"  >
<polygon points="92,90 124,90 129,85 124,80 92,80 92,90 " style="fill:white; stroke-width:1; stroke:black; " description="&lt;b&gt;CBA63649.1&lt;/b&gt;&lt;br&gt;phosphoglucomutase&lt;br&gt;Location: 84 - 1727" locus_tag="CBA63649.1" class="clusterblast-orf" id="dummy-2_h2_5_0"  />
</g>
<g id="a2_001"  >
<polygon points="129,85 134,80 157,80 157,90 134,90 129,85 " style="fill:white; stroke-width:1; stroke:black; " description="&lt;b&gt;CBA63652.1&lt;/b&gt;&lt;br&gt;hypothetical protein&lt;br&gt;Location: 1724 - 2992" locus_tag="CBA63652.1" class="clusterblast-orf" id="dummy-2_h2_5_1"  />
</g>
<g id="a2_002"  >
<polygon points="162,85 167,80 167,80 167,90 167,90 162,85 " style="fill:#d815b1; stroke-width:1; stroke:black; " description="&lt;b&gt;CBA63655.1&lt;/b&gt;&lt;br&gt;aryl carrier for 2,3-dihydroxybenzoate&lt;br&gt;Location: 3183 - 3422&lt;br&gt;&lt;br&gt;&lt;b&gt;BlastP hit with cds165230_165473&lt;/b&gt;&lt;br&gt;Percentage identity: 49&lt;br&gt;Percentage coverage: 94&lt;br&gt;BLAST bit score: 73&lt;br&gt;E-value: 1.5e-13" locus_tag="CBA63655.1" class="clusterblast-orf" id="dummy-2_h2_5_2"  />
</g>
<g id="a2_003"  >
<polygon points="167,85 172,80 181,80 181,90 172,90 167,85 " style="fill:white; stroke-width:1; stroke:black; " description="&lt;b&gt;CBA63658.1&lt;/b&gt;&lt;br&gt;isochorismatase&lt;br&gt;Location: 3419 - 4051" locus_tag="CBA63658.1" class="clusterblast-orf" id="dummy-2_h2_5_3"  />
</g>
<g id="a2_004"  >
<polygon points="183,85 188,80 220,80 220,90 188,90 183,85 " style="fill:white; stroke-width:1; stroke:black; " description="&lt;b&gt;CBA63660.1&lt;/b&gt;&lt;br&gt;2,3-dihydroxybenzoate-AMP ligase&lt;br&gt;Location: 4115 - 5752" locus_tag="CBA63660.1" class="clusterblast-orf" id="dummy-2_h2_5_4"  />
</g>
<g id="a2_005"  >
<polygon points="220,85 225,80 247,80 247,90 225,90 220,85 " style="fill:white; stroke-width:1; stroke:black; " description="&lt;b&gt;CBA63662.1&lt;/b&gt;&lt;br&gt;isochorismate synthase&lt;br&gt;Location: 5749 - 6954" locus_tag="CBA63662.1" class="clusterblast-orf" id="dummy-2_h2_5_5"  />
</g>
<g id="a2_006"  >
<polygon points="249,85 254,80 268,80 268,90 254,90 249,85 " style="fill:white; stroke-width:1; stroke:black; " description="&lt;b&gt;CBA63665.1&lt;/b&gt;&lt;br&gt;2,3-dihydro-2,3-dihydroxybenzoate dehydrogenase&lt;br&gt;Location: 7063 - 7893" locus_tag="CBA63665.1" class="clusterblast-orf" id="dummy-2_h2_5_6"  />
</g>
<g id="a2_007"  >
<polygon points="272,90 319,90 324,85 319,80 272,80 272,90 " style="fill:white; stroke-width:1; stroke:black; " description="&lt;b&gt;CBA63668.1&lt;/b&gt;&lt;br&gt;siderophore uptake membrane transporter&lt;br&gt;Location: 8057 - 10396" locus_tag="CBA63668.1" class="clusterblast-orf" id="dummy-2_h2_5_7"  />
</g>
<g id="a2_008"  >
<polygon points="327,90 351,90 356,85 351,80 327,80 327,90 " style="fill:white; stroke-width:1; stroke:black; " description="&lt;b&gt;CBA63671.1&lt;/b&gt;&lt;br&gt;griseobactin esterase&lt;br&gt;Location: 10502 - 11776" locus_tag="CBA63671.1" class="clusterblast-orf" id="dummy-2_h2_5_8"  />
</g>
<g id="a2_009"  >
<polygon points="361,85 366,80 391,80 391,90 366,90 361,85 " style="fill:white; stroke-width:1; stroke:black; " description="&lt;b&gt;CBA63674.1&lt;/b&gt;&lt;br&gt;MFS griseobactin exporter&lt;br&gt;Location: 12012 - 13331" locus_tag="CBA63674.1" class="clusterblast-orf" id="dummy-2_h2_5_9"  />
</g>
<g id="a2_0010"  >
<polygon points="391,85 395,80 395,90 391,85 " style="fill:white; stroke-width:1; stroke:black; " description="&lt;b&gt;CBA63677.1&lt;/b&gt;&lt;br&gt;MbtH-like protein&lt;br&gt;Location: 13328 - 13531" locus_tag="CBA63677.1" class="clusterblast-orf" id="dummy-2_h2_5_10"  />
</g>
<g id="a2_0011"  >
<polygon points="395,85 400,80 562,80 562,90 400,90 395,85 " style="fill:white; stroke-width:1; stroke:black; " description="&lt;b&gt;CBA63680.1&lt;/b&gt;&lt;br&gt;nonribosomal peptide synthetase NRPS&lt;br&gt;Location: 13537 - 20943" locus_tag="CBA63680.1" class="clusterblast-orf" id="dummy-2_h2_5_11"  />
</g>
<g id="a2_0012"  >
<polygon points="566,90 587,90 592,85 587,80 566,80 566,90 " style="fill:white; stroke-width:1; stroke:black; " description="&lt;b&gt;CBA63682.1&lt;/b&gt;&lt;br&gt;amidohydrolase&lt;br&gt;Location: 21080 - 22273" locus_tag="CBA63682.1" class="clusterblast-orf" id="dummy-2_h2_5_12"  />
</g>
<g id="a2_0013"  >
<polygon points="594,85 599,80 617,80 617,90 599,90 594,85 " style="fill:white; stroke-width:1; stroke:black; " description="&lt;b&gt;CBA63685.1&lt;/b&gt;&lt;br&gt;griseobactin-binding lipoprotein&lt;br&gt;Location: 22350 - 23357" locus_tag="CBA63685.1" class="clusterblast-orf" id="dummy-2_h2_5_13"  />
</g>
<g id="a2_0014"  >
<polygon points="620,90 633,90 638,85 633,80 620,80 620,90 " style="fill:#b1d815; stroke-width:1; stroke:black; " description="&lt;b&gt;CBA63688.1&lt;/b&gt;&lt;br&gt;ATPase of griseobactin uptake ABC transporter&lt;br&gt;Location: 23507 - 24298&lt;br&gt;&lt;br&gt;&lt;b&gt;BlastP hit with cds169437_170223&lt;/b&gt;&lt;br&gt;Percentage identity: 46&lt;br&gt;Percentage coverage: 97&lt;br&gt;BLAST bit score: 234&lt;br&gt;E-value: 1.7e-61" locus_tag="CBA63688.1" class="clusterblast-orf" id="dummy-2_h2_5_14"  />
</g>
<g id="a2_0015"  >
<polygon points="640,85 645,80 663,80 663,90 645,90 640,85 " style="fill:white; stroke-width:1; stroke:black; " description="&lt;b&gt;CBA63690.1&lt;/b&gt;&lt;br&gt;lysine arginine ornithine transport system kinase&lt;br&gt;Location: 24396 - 25415" locus_tag="CBA63690.1" class="clusterblast-orf" id="dummy-2_h2_5_15"  />
</g>
<g id="a2_0016"  >
<polygon points="664,85 669,80 687,80 687,90 669,90 664,85 " style="fill:white; stroke-width:1; stroke:black; " description="&lt;b&gt;CBA63693.1&lt;/b&gt;&lt;br&gt;methylmalonyl-CoA mutase, large subunit&lt;br&gt;Location: 25428 - 26477" locus_tag="CBA63693.1" class="clusterblast-orf" id="dummy-2_h2_5_16"  />
</g>
</svg>
