<svg xmlns="http://www.w3.org/2000/svg" xmlns:xlink="http://www.w3.org/1999/xlink" version="1.1" x="0" y="0" height="50" width="800" viewBox="0 0 800 50" preserveAspectRatio="none"  >
<g label="Query sequence" class="clusterblast-cluster"  >
<text x="5" y="20" class="clusterblast-acc"  >
Query sequence</text>
<line x1="10" y1="35" x2="778.0" y2="35" style="stroke-width:1; stroke:grey; "  />
<polygon points="0,35 5,30 67,30 67,40 5,40 0,35 " style="fill:white; stroke-width:1; stroke:black; " description="&lt;b&gt;cds81141_82284&lt;/b&gt;&lt;br&gt;hypothetical protein&lt;br&gt;Location: 81141 - 82284" locus_tag="cds81141_82284" class="clusterblast-orf" id="knownclusterblast-1_q0_0_all"  />
<polygon points="67,35 72,30 195,30 195,40 72,40 67,35 " style="fill:white; stroke-width:1; stroke:black; " description="&lt;b&gt;cds82280_84455&lt;/b&gt;&lt;br&gt;hypothetical protein&lt;br&gt;Location: 82280 - 84455" locus_tag="cds82280_84455" class="clusterblast-orf" id="knownclusterblast-1_q1_0_all"  />
<polygon points="195,35 200,30 237,30 237,40 200,40 195,35 " style="fill:white; stroke-width:1; stroke:black; " description="&lt;b&gt;cds84451_85156&lt;/b&gt;&lt;br&gt;hypothetical protein&lt;br&gt;Location: 84451 - 85156" locus_tag="cds84451_85156" class="clusterblast-orf" id="knownclusterblast-1_q2_0_all"  />
<polygon points="248,35 253,30 274,30 274,40 253,40 248,35 " style="fill:white; stroke-width:1; stroke:black; " description="&lt;b&gt;cds85343_85799&lt;/b&gt;&lt;br&gt;Protein-L-isoaspartate O-methyltransferase&lt;br&gt;Location: 85343 - 85799" locus_tag="cds85343_85799" class="clusterblast-orf" id="knownclusterblast-1_q3_0_all"  />
<polygon points="281,35 286,30 395,30 395,40 286,40 281,35 " style="fill:white; stroke-width:1; stroke:black; " description="&lt;b&gt;cds85905_87846&lt;/b&gt;&lt;br&gt;Vitamin B12 import ATP-binding protein BtuD&lt;br&gt;Location: 85905 - 87846" locus_tag="cds85905_87846" class="clusterblast-orf" id="knownclusterblast-1_q4_0_all"  />
<polygon points="409,35 414,30 432,30 432,40 414,40 409,35 " style="fill:white; stroke-width:1; stroke:black; " description="&lt;b&gt;cds88079_88466&lt;/b&gt;&lt;br&gt;hypothetical protein&lt;br&gt;Location: 88079 - 88466" locus_tag="cds88079_88466" class="clusterblast-orf" id="knownclusterblast-1_q5_0_all"  />
<polygon points="430,35 435,30 474,30 474,40 435,40 430,35 " style="fill:white; stroke-width:1; stroke:black; " description="&lt;b&gt;cds88435_89191&lt;/b&gt;&lt;br&gt;hypothetical protein&lt;br&gt;Location: 88435 - 89191" locus_tag="cds88435_89191" class="clusterblast-orf" id="knownclusterblast-1_q6_0_all"  />
<polygon points="474,35 479,30 595,30 595,40 479,40 474,35 " style="fill:white; stroke-width:1; stroke:black; " description="&lt;b&gt;cds89195_91241&lt;/b&gt;&lt;br&gt;Protein-L-isoaspartate O-methyltransferase&lt;br&gt;Location: 89195 - 91241" locus_tag="cds89195_91241" class="clusterblast-orf" id="knownclusterblast-1_q7_0_all"  />
<polygon points="597,35 602,30 660,30 660,40 602,40 597,35 " style="fill:white; stroke-width:1; stroke:black; " description="&lt;b&gt;cds91277_92348&lt;/b&gt;&lt;br&gt;hypothetical protein&lt;br&gt;Location: 91277 - 92348" locus_tag="cds91277_92348" class="clusterblast-orf" id="knownclusterblast-1_q8_0_all"  />
<polygon points="660,35 665,30 780,30 780,40 665,40 660,35 " style="fill:white; stroke-width:1; stroke:black; " description="&lt;b&gt;cds92344_94384&lt;/b&gt;&lt;br&gt;hypothetical protein&lt;br&gt;Location: 92344 - 94384" locus_tag="cds92344_94384" class="clusterblast-orf" id="knownclusterblast-1_q9_0_all"  />
</g>
</svg>
