<svg xmlns="http://www.w3.org/2000/svg" xmlns:xlink="http://www.w3.org/1999/xlink" version="1.1" x="0" y="0" height="230" width="800" viewBox="0 0 800 230" preserveAspectRatio="none"  >
<g label="Query sequence" class="clusterblast-cluster"  >
<text x="5" y="20" class="clusterblast-acc"  >
Query sequence</text>
<line x1="10" y1="35" x2="778.0" y2="35" style="stroke-width:1; stroke:grey; "  />
<polygon points="0,35 5,30 19,30 19,40 5,40 0,35 " style="fill:white; stroke-width:1; stroke:black; " description="&lt;b&gt;cds63_924&lt;/b&gt;&lt;br&gt;hypothetical protein&lt;br&gt;Location: 63 - 924" locus_tag="cds63_924" class="clusterblast-orf" id="dummy-1_q0_0_all"  />
<polygon points="22,35 27,30 31,30 31,40 27,40 22,35 " style="fill:white; stroke-width:1; stroke:black; " description="&lt;b&gt;cds1063_1474&lt;/b&gt;&lt;br&gt;hypothetical protein&lt;br&gt;Location: 1063 - 1474" locus_tag="cds1063_1474" class="clusterblast-orf" id="dummy-1_q1_0_all"  />
<polygon points="37,40 38,40 43,35 38,30 37,30 37,40 " style="fill:white; stroke-width:1; stroke:black; " description="&lt;b&gt;cds1786_2032&lt;/b&gt;&lt;br&gt;hypothetical protein&lt;br&gt;Location: 1786 - 2032" locus_tag="cds1786_2032" class="clusterblast-orf" id="dummy-1_q2_0_all"  />
<polygon points="45,35 49,30 49,40 45,35 " style="fill:white; stroke-width:1; stroke:black; " description="&lt;b&gt;cds2110_2305&lt;/b&gt;&lt;br&gt;hypothetical protein&lt;br&gt;Location: 2110 - 2305" locus_tag="cds2110_2305" class="clusterblast-orf" id="dummy-1_q3_0_all"  />
<polygon points="49,35 54,30 65,30 65,40 54,40 49,35 " style="fill:white; stroke-width:1; stroke:black; " description="&lt;b&gt;cds2301_3054&lt;/b&gt;&lt;br&gt;hypothetical protein&lt;br&gt;Location: 2301 - 3054" locus_tag="cds2301_3054" class="clusterblast-orf" id="dummy-1_q4_0_all"  />
<polygon points="70,40 74,40 79,35 74,30 70,30 70,40 " style="fill:white; stroke-width:1; stroke:black; " description="&lt;b&gt;cds3251_3692&lt;/b&gt;&lt;br&gt;hypothetical protein&lt;br&gt;Location: 3251 - 3692" locus_tag="cds3251_3692" class="clusterblast-orf" id="dummy-1_q5_0_all"  />
<polygon points="84,40 94,40 99,35 94,30 84,30 84,40 " style="fill:white; stroke-width:1; stroke:black; " description="&lt;b&gt;cds3911_4616&lt;/b&gt;&lt;br&gt;hypothetical protein&lt;br&gt;Location: 3911 - 4616" locus_tag="cds3911_4616" class="clusterblast-orf" id="dummy-1_q6_0_all"  />
<polygon points="106,40 109,40 114,35 109,30 106,30 106,40 " style="fill:#d81515; stroke-width:1; stroke:black; " description="&lt;b&gt;cds4897_5269&lt;/b&gt;&lt;br&gt;30S ribosomal protein S12&lt;br&gt;Location: 4897 - 5269" locus_tag="cds4897_5269" class="clusterblast-orf" id="dummy-1_q7_0_all"  />
<polygon points="114,40 119,40 124,35 119,30 114,30 114,40 " style="fill:#5cd815; stroke-width:1; stroke:black; " description="&lt;b&gt;cds5271_5742&lt;/b&gt;&lt;br&gt;30S ribosomal protein S7&lt;br&gt;Location: 5271 - 5742" locus_tag="cds5271_5742" class="clusterblast-orf" id="dummy-1_q8_0_all"  />
<polygon points="125,40 167,40 172,35 167,30 125,30 125,40 " style="fill:#15a3d8; stroke-width:1; stroke:black; " description="&lt;b&gt;cds5780_7910&lt;/b&gt;&lt;br&gt;Elongation factor G&lt;br&gt;Location: 5780 - 7910" locus_tag="cds5780_7910" class="clusterblast-orf" id="dummy-1_q9_0_all"  />
<polygon points="175,40 196,40 201,35 196,30 175,30 175,40 " style="fill:#9115d8; stroke-width:1; stroke:black; " description="&lt;b&gt;cds8057_9251&lt;/b&gt;&lt;br&gt;Elongation factor Tu&lt;br&gt;Location: 8057 - 9251" locus_tag="cds8057_9251" class="clusterblast-orf" id="dummy-1_q10_0_all"  />
<polygon points="206,35 211,30 214,30 214,40 211,40 206,35 " style="fill:#d84a15; stroke-width:1; stroke:black; " description="&lt;b&gt;cds9466_9859&lt;/b&gt;&lt;br&gt;hypothetical protein&lt;br&gt;Location: 9466 - 9859" locus_tag="cds9466_9859" class="clusterblast-orf" id="dummy-1_q11_0_all"  />
<polygon points="214,35 219,30 229,30 229,40 219,40 214,35 " style="fill:#27d815; stroke-width:1; stroke:black; " description="&lt;b&gt;cds9855_10533&lt;/b&gt;&lt;br&gt;hypothetical protein&lt;br&gt;Location: 9855 - 10533" locus_tag="cds9855_10533" class="clusterblast-orf" id="dummy-1_q12_0_all"  />
<polygon points="229,35 234,30 272,30 272,40 234,40 229,35 " style="fill:#156ed8; stroke-width:1; stroke:black; " description="&lt;b&gt;cds10547_12503&lt;/b&gt;&lt;br&gt;hypothetical protein&lt;br&gt;Location: 10547 - 12503" locus_tag="cds10547_12503" class="clusterblast-orf" id="dummy-1_q13_0_all"  />
<polygon points="273,35 278,30 297,30 297,40 278,40 273,35 " style="fill:#c715d8; stroke-width:1; stroke:black; " description="&lt;b&gt;cds12521_13655&lt;/b&gt;&lt;br&gt;hypothetical protein&lt;br&gt;Location: 12521 - 13655" locus_tag="cds12521_13655" class="clusterblast-orf" id="dummy-1_q14_0_all"  />
<polygon points="300,35 303,30 303,40 300,35 " style="fill:#d88015; stroke-width:1; stroke:black; " description="&lt;b&gt;cds13773_13926&lt;/b&gt;&lt;br&gt;hypothetical protein&lt;br&gt;Location: 13773 - 13926" locus_tag="cds13773_13926" class="clusterblast-orf" id="dummy-1_q15_0_all"  />
<polygon points="306,35 310,30 310,40 306,35 " style="fill:#15d839; stroke-width:1; stroke:black; " description="&lt;b&gt;cds14028_14223&lt;/b&gt;&lt;br&gt;hypothetical protein&lt;br&gt;Location: 14028 - 14223" locus_tag="cds14028_14223" class="clusterblast-orf" id="dummy-1_q16_0_all"  />
<polygon points="311,35 316,30 332,30 332,40 316,40 311,35 " style="fill:#1539d8; stroke-width:1; stroke:black; " description="&lt;b&gt;cds14277_15255&lt;/b&gt;&lt;br&gt;hypothetical protein&lt;br&gt;Location: 14277 - 15255" locus_tag="cds14277_15255" class="clusterblast-orf" id="dummy-1_q17_0_all"  />
<polygon points="332,35 337,30 390,30 390,40 337,40 332,35 " style="fill:#d815b5; stroke-width:1; stroke:black; " description="&lt;b&gt;cds15235_17896&lt;/b&gt;&lt;br&gt;hypothetical protein&lt;br&gt;Location: 15235 - 17896" locus_tag="cds15235_17896" class="clusterblast-orf" id="dummy-1_q18_0_all"  />
<polygon points="391,35 396,30 433,30 433,40 396,40 391,35 " style="fill:#d8b515; stroke-width:1; stroke:black; " description="&lt;b&gt;cds17924_19844&lt;/b&gt;&lt;br&gt;hypothetical protein&lt;br&gt;Location: 17924 - 19844" locus_tag="cds17924_19844" class="clusterblast-orf" id="dummy-1_q19_0_all"  />
<polygon points="433,35 438,30 471,30 471,40 438,40 433,35 " style="fill:#15d86e; stroke-width:1; stroke:black; " description="&lt;b&gt;cds19840_21598&lt;/b&gt;&lt;br&gt;hypothetical protein&lt;br&gt;Location: 19840 - 21598" locus_tag="cds19840_21598" class="clusterblast-orf" id="dummy-1_q20_0_all"  />
<polygon points="472,35 477,30 487,30 487,40 477,40 472,35 " style="fill:#2715d8; stroke-width:1; stroke:black; " description="&lt;b&gt;cds21626_22331&lt;/b&gt;&lt;br&gt;hypothetical protein&lt;br&gt;Location: 21626 - 22331" locus_tag="cds21626_22331" class="clusterblast-orf" id="dummy-1_q21_0_all"  />
<polygon points="488,35 493,30 523,30 523,40 493,40 488,35 " style="fill:#d81580; stroke-width:1; stroke:black; " description="&lt;b&gt;cds22334_23948&lt;/b&gt;&lt;br&gt;hypothetical protein&lt;br&gt;Location: 22334 - 23948" locus_tag="cds22334_23948" class="clusterblast-orf" id="dummy-1_q22_0_all"  />
<polygon points="524,35 529,30 537,30 537,40 529,40 524,35 " style="fill:#c7d815; stroke-width:1; stroke:black; " description="&lt;b&gt;cds23989_24595&lt;/b&gt;&lt;br&gt;hypothetical protein&lt;br&gt;Location: 23989 - 24595" locus_tag="cds23989_24595" class="clusterblast-orf" id="dummy-1_q23_0_all"  />
<polygon points="538,35 543,30 567,30 567,40 543,40 538,35 " style="fill:#15d8a3; stroke-width:1; stroke:black; " description="&lt;b&gt;cds24615_25944&lt;/b&gt;&lt;br&gt;hypothetical protein&lt;br&gt;Location: 24615 - 25944" locus_tag="cds24615_25944" class="clusterblast-orf" id="dummy-1_q24_0_all"  />
<polygon points="577,40 586,40 591,35 586,30 577,30 577,40 " style="fill:#5c15d8; stroke-width:1; stroke:black; " description="&lt;b&gt;cds26401_27034&lt;/b&gt;&lt;br&gt;2-methoxy-6-polyprenyl-1,4-benzoquinol methylase, mitochondrial&lt;br&gt;Location: 26401 - 27034" locus_tag="cds26401_27034" class="clusterblast-orf" id="dummy-1_q25_0_all"  />
<polygon points="595,40 616,40 621,35 616,30 595,30 595,40 " style="fill:#d8154a; stroke-width:1; stroke:black; " description="&lt;b&gt;cds27231_28431&lt;/b&gt;&lt;br&gt;Erythromycin C-12 hydroxylase&lt;br&gt;Location: 27231 - 28431" locus_tag="cds27231_28431" class="clusterblast-orf" id="dummy-1_q26_0_all"  />
<polygon points="623,40 635,40 640,35 635,30 623,30 623,40 " style="fill:#91d815; stroke-width:1; stroke:black; " description="&lt;b&gt;cds28501_29305&lt;/b&gt;&lt;br&gt;23S rRNA (adenosine(1067)-2'-O)-methyltransferase&lt;br&gt;Location: 28501 - 29305" locus_tag="cds28501_29305" class="clusterblast-orf" id="dummy-1_q27_0_all"  />
<polygon points="642,35 647,30 689,30 689,40 647,40 642,35 " style="fill:#15d8d8; stroke-width:1; stroke:black; " description="&lt;b&gt;cds29404_31543&lt;/b&gt;&lt;br&gt;hypothetical protein&lt;br&gt;Location: 29404 - 31543" locus_tag="cds29404_31543" class="clusterblast-orf" id="dummy-1_q28_0_all"  />
<polygon points="693,35 698,30 714,30 714,40 698,40 693,35 " style="fill:white; stroke-width:1; stroke:black; " description="&lt;b&gt;cds31727_32669&lt;/b&gt;&lt;br&gt;hypothetical protein&lt;br&gt;Location: 31727 - 32669" locus_tag="cds31727_32669" class="clusterblast-orf" id="dummy-1_q29_0_all"  />
<polygon points="723,40 745,40 750,35 745,30 723,30 723,40 " style="fill:white; stroke-width:1; stroke:black; " description="&lt;b&gt;cds33101_34295&lt;/b&gt;&lt;br&gt;hypothetical protein&lt;br&gt;Location: 33101 - 34295" locus_tag="cds33101_34295" class="clusterblast-orf" id="dummy-1_q30_0_all"  />
<polygon points="750,35 755,30 760,30 760,40 755,40 750,35 " style="fill:white; stroke-width:1; stroke:black; " description="&lt;b&gt;cds34307_34760&lt;/b&gt;&lt;br&gt;IS1595 family transposase ISPaen4&lt;br&gt;Location: 34307 - 34760" locus_tag="cds34307_34760" class="clusterblast-orf" id="dummy-1_q31_0_all"  />
<polygon points="760,35 765,30 780,30 780,40 765,40 760,35 " style="fill:white; stroke-width:1; stroke:black; " description="&lt;b&gt;cds34793_35672&lt;/b&gt;&lt;br&gt;hypothetical protein&lt;br&gt;Location: 34793 - 35672" locus_tag="cds34793_35672" class="clusterblast-orf" id="dummy-1_q32_0_all"  />
</g>
<g label="BGC0000610" description="BGC0000610_c1: nosiheptide (15% of genes show similarity), RiPP:Thiopeptide" class="clusterblast-cluster"  >
<text x="5" y="70" class="clusterblast-acc"  >
<a xlink:href="https://mibig.secondarymetabolites.org/go/BGC0000610/1" target="_blank">BGC0000610</a>:                                                                      nosiheptide (15% of genes show similarity), RiPP:Thiopeptide</text>
<line x1="10" y1="85" x2="778.0" y2="85" style="stroke-width:1; stroke:grey; "  />
</g>
<g id="a1_000"  >
<polygon points="11,90 22,90 27,85 22,80 11,80 11,90 " style="fill:white; stroke-width:1; stroke:black; " description="&lt;b&gt;ACR48352.1&lt;/b&gt;&lt;br&gt;Nos10&lt;br&gt;Location: 34546 - 33821" locus_tag="ACR48352.1" class="clusterblast-orf" id="dummy-1_h1_4_0"  />
</g>
<g id="a1_001"  >
<polygon points="30,90 44,90 49,85 44,80 30,80 30,90 " style="fill:white; stroke-width:1; stroke:black; " description="&lt;b&gt;ACR48351.1&lt;/b&gt;&lt;br&gt;Nos9&lt;br&gt;Location: 33700 - 32807" locus_tag="ACR48351.1" class="clusterblast-orf" id="dummy-1_h1_4_1"  />
</g>
<g id="a1_002"  >
<polygon points="51,90 64,90 69,85 64,80 51,80 51,90 " style="fill:white; stroke-width:1; stroke:black; " description="&lt;b&gt;ACR48350.1&lt;/b&gt;&lt;br&gt;Nos8&lt;br&gt;Location: 32720 - 31902" locus_tag="ACR48350.1" class="clusterblast-orf" id="dummy-1_h1_4_2"  />
</g>
<g id="a1_003"  >
<polygon points="75,90 82,90 87,85 82,80 75,80 75,90 " style="fill:white; stroke-width:1; stroke:black; " description="&lt;b&gt;ACR48349.1&lt;/b&gt;&lt;br&gt;Nos7&lt;br&gt;Location: 31610 - 31080" locus_tag="ACR48349.1" class="clusterblast-orf" id="dummy-1_h1_4_3"  />
</g>
<g id="a1_004"  >
<polygon points="90,90 93,90 98,85 93,80 90,80 90,90 " style="fill:white; stroke-width:1; stroke:black; " description="&lt;b&gt;ACR48348.1&lt;/b&gt;&lt;br&gt;Nos6&lt;br&gt;Location: 30962 - 30573" locus_tag="ACR48348.1" class="clusterblast-orf" id="dummy-1_h1_4_4"  />
</g>
<g id="a1_005"  >
<polygon points="109,90 181,90 186,85 181,80 109,80 109,90 " style="fill:white; stroke-width:1; stroke:black; " description="&lt;b&gt;ACR48347.1&lt;/b&gt;&lt;br&gt;Nos5&lt;br&gt;Location: 30094 - 26549" locus_tag="ACR48347.1" class="clusterblast-orf" id="dummy-1_h1_4_5"  />
</g>
<g id="a1_006"  >
<polygon points="189,90 269,90 274,85 269,80 189,80 189,90 " style="fill:white; stroke-width:1; stroke:black; " description="&lt;b&gt;ACR48346.1&lt;/b&gt;&lt;br&gt;Nos4&lt;br&gt;Location: 26441 - 22542" locus_tag="ACR48346.1" class="clusterblast-orf" id="dummy-1_h1_4_6"  />
</g>
<g id="a1_007"  >
<polygon points="276,85 281,80 297,80 297,90 281,90 276,85 " style="fill:white; stroke-width:1; stroke:black; " description="&lt;b&gt;ACR48345.1&lt;/b&gt;&lt;br&gt;NosP&lt;br&gt;Location: 22468 - 21497" locus_tag="ACR48345.1" class="clusterblast-orf" id="dummy-1_h1_4_7"  />
</g>
<g id="a1_008"  >
<polygon points="304,85 309,80 328,80 328,90 309,90 304,85 " style="fill:white; stroke-width:1; stroke:black; " description="&lt;b&gt;ACR48344.1&lt;/b&gt;&lt;br&gt;NosO&lt;br&gt;Location: 21187 - 20075" locus_tag="ACR48344.1" class="clusterblast-orf" id="dummy-1_h1_4_8"  />
</g>
<g id="a1_009"  >
<polygon points="328,85 333,80 354,80 354,90 333,90 328,85 " style="fill:white; stroke-width:1; stroke:black; " description="&lt;b&gt;ACR48343.1&lt;/b&gt;&lt;br&gt;NosN&lt;br&gt;Location: 20078 - 18891" locus_tag="ACR48343.1" class="clusterblast-orf" id="dummy-1_h1_4_9"  />
</g>
<g id="a1_0010"  >
<polygon points="356,85 359,80 359,90 356,85 " style="fill:white; stroke-width:1; stroke:black; " description="&lt;b&gt;ACR48342.1&lt;/b&gt;&lt;br&gt;NosM&lt;br&gt;Location: 18820 - 18668" locus_tag="ACR48342.1" class="clusterblast-orf" id="dummy-1_h1_4_10"  />
</g>
<g id="a1_0011"  >
<polygon points="367,90 388,90 393,85 388,80 367,80 367,90 " style="fill:white; stroke-width:1; stroke:black; " description="&lt;b&gt;ACR48341.1&lt;/b&gt;&lt;br&gt;NosL&lt;br&gt;Location: 18316 - 17114" locus_tag="ACR48341.1" class="clusterblast-orf" id="dummy-1_h1_4_11"  />
</g>
<g id="a1_0012"  >
<polygon points="393,90 406,90 411,85 406,80 393,80 393,90 " style="fill:white; stroke-width:1; stroke:black; " description="&lt;b&gt;ACR48340.1&lt;/b&gt;&lt;br&gt;NosK&lt;br&gt;Location: 17106 - 16294" locus_tag="ACR48340.1" class="clusterblast-orf" id="dummy-1_h1_4_12"  />
</g>
<g id="a1_0013"  >
<polygon points="411,90 411,90 416,85 411,80 411,80 411,90 " style="fill:white; stroke-width:1; stroke:black; " description="&lt;b&gt;ACR48339.1&lt;/b&gt;&lt;br&gt;NosJ&lt;br&gt;Location: 16297 - 16058" locus_tag="ACR48339.1" class="clusterblast-orf" id="dummy-1_h1_4_13"  />
</g>
<g id="a1_0014"  >
<polygon points="415,90 439,90 444,85 439,80 415,80 415,90 " style="fill:white; stroke-width:1; stroke:black; " description="&lt;b&gt;ACR48338.1&lt;/b&gt;&lt;br&gt;NosI&lt;br&gt;Location: 16097 - 14763" locus_tag="ACR48338.1" class="clusterblast-orf" id="dummy-1_h1_4_14"  />
</g>
<g id="a1_0015"  >
<polygon points="445,90 483,90 488,85 483,80 445,80 445,90 " style="fill:white; stroke-width:1; stroke:black; " description="&lt;b&gt;ACR48337.1&lt;/b&gt;&lt;br&gt;NosH&lt;br&gt;Location: 14761 - 12797" locus_tag="ACR48337.1" class="clusterblast-orf" id="dummy-1_h1_4_15"  />
</g>
<g id="a1_0016"  >
<polygon points="487,90 526,90 531,85 526,80 487,80 487,90 " style="fill:white; stroke-width:1; stroke:black; " description="&lt;b&gt;ACR48336.1&lt;/b&gt;&lt;br&gt;NosG&lt;br&gt;Location: 12800 - 10830" locus_tag="ACR48336.1" class="clusterblast-orf" id="dummy-1_h1_4_16"  />
</g>
<g id="a1_0017"  >
<polygon points="532,90 563,90 568,85 563,80 532,80 532,90 " style="fill:white; stroke-width:1; stroke:black; " description="&lt;b&gt;ACR48335.1&lt;/b&gt;&lt;br&gt;NosF&lt;br&gt;Location: 10778 - 9129" locus_tag="ACR48335.1" class="clusterblast-orf" id="dummy-1_h1_4_17"  />
</g>
<g id="a1_0018"  >
<polygon points="568,90 624,90 629,85 624,80 568,80 568,90 " style="fill:white; stroke-width:1; stroke:black; " description="&lt;b&gt;ACR48334.1&lt;/b&gt;&lt;br&gt;NosE&lt;br&gt;Location: 9114 - 6352" locus_tag="ACR48334.1" class="clusterblast-orf" id="dummy-1_h1_4_18"  />
</g>
<g id="a1_0019"  >
<polygon points="628,90 646,90 651,85 646,80 628,80 628,90 " style="fill:white; stroke-width:1; stroke:black; " description="&lt;b&gt;ACR48333.1&lt;/b&gt;&lt;br&gt;NosD&lt;br&gt;Location: 6365 - 5328" locus_tag="ACR48333.1" class="clusterblast-orf" id="dummy-1_h1_4_19"  />
</g>
<g id="a1_0020"  >
<polygon points="652,90 673,90 678,85 673,80 652,80 652,90 " style="fill:white; stroke-width:1; stroke:black; " description="&lt;b&gt;ACR48332.1&lt;/b&gt;&lt;br&gt;NosC&lt;br&gt;Location: 5309 - 4083" locus_tag="ACR48332.1" class="clusterblast-orf" id="dummy-1_h1_4_20"  />
</g>
<g id="a1_0021"  >
<polygon points="679,90 704,90 709,85 704,80 679,80 679,90 " style="fill:white; stroke-width:1; stroke:black; " description="&lt;b&gt;ACR48331.1&lt;/b&gt;&lt;br&gt;NosB&lt;br&gt;Location: 4068 - 2701" locus_tag="ACR48331.1" class="clusterblast-orf" id="dummy-1_h1_4_21"  />
</g>
<g id="a1_0022"  >
<polygon points="709,90 714,90 719,85 714,80 709,80 709,90 " style="fill:#d84a15; stroke-width:1; stroke:black; " description="&lt;b&gt;ACR48330.1&lt;/b&gt;&lt;br&gt;NosA&lt;br&gt;Location: 2704 - 2249&lt;br&gt;&lt;br&gt;&lt;b&gt;BlastP hit with cds9466_9859&lt;/b&gt;&lt;br&gt;Percentage identity: 49&lt;br&gt;Percentage coverage: 75&lt;br&gt;BLAST bit score: 97&lt;br&gt;E-value: 1.2e-20" locus_tag="ACR48330.1" class="clusterblast-orf" id="dummy-1_h1_4_22"  />
</g>
<g id="a1_0023"  >
<polygon points="727,90 730,90 735,85 730,80 727,80 727,90 " style="fill:#d81515; stroke-width:1; stroke:black; " description="&lt;b&gt;ACR48329.1&lt;/b&gt;&lt;br&gt;Nos3&lt;br&gt;Location: 1862 - 1491&lt;br&gt;&lt;br&gt;&lt;b&gt;BlastP hit with cds4897_5269&lt;/b&gt;&lt;br&gt;Percentage identity: 100&lt;br&gt;Percentage coverage: 100&lt;br&gt;BLAST bit score: 241&lt;br&gt;E-value: 6.4e-64" locus_tag="ACR48329.1" class="clusterblast-orf" id="dummy-1_h1_4_23"  />
</g>
<g id="a1_0024"  >
<polygon points="735,90 741,90 746,85 741,80 735,80 735,90 " style="fill:#5cd815; stroke-width:1; stroke:black; " description="&lt;b&gt;ACR48328.1&lt;/b&gt;&lt;br&gt;Nos2&lt;br&gt;Location: 1488 - 1018&lt;br&gt;&lt;br&gt;&lt;b&gt;BlastP hit with cds5271_5742&lt;/b&gt;&lt;br&gt;Percentage identity: 94&lt;br&gt;Percentage coverage: 100&lt;br&gt;BLAST bit score: 293&lt;br&gt;E-value: 2.4e-79" locus_tag="ACR48328.1" class="clusterblast-orf" id="dummy-1_h1_4_24"  />
</g>
<g id="a1_0025"  >
<polygon points="746,90 763,90 768,85 763,80 746,80 746,90 " style="fill:#15a3d8; stroke-width:1; stroke:black; " description="&lt;b&gt;ACR48327.1&lt;/b&gt;&lt;br&gt;Nos1&lt;br&gt;Location: 978 - 1&lt;br&gt;&lt;br&gt;&lt;b&gt;BlastP hit with cds5780_7910&lt;/b&gt;&lt;br&gt;Percentage identity: 86&lt;br&gt;Percentage coverage: 46&lt;br&gt;BLAST bit score: 560&lt;br&gt;E-value: 4.7e-159" locus_tag="ACR48327.1" class="clusterblast-orf" id="dummy-1_h1_4_25"  />
</g>
</svg>
