<svg xmlns="http://www.w3.org/2000/svg" xmlns:xlink="http://www.w3.org/1999/xlink" version="1.1" x="0" y="0" height="230" width="800" viewBox="0 0 800 230" preserveAspectRatio="none"  >
<g label="Query sequence" class="clusterblast-cluster"  >
<text x="5" y="20" class="clusterblast-acc"  >
Query sequence</text>
<line x1="10" y1="35" x2="778.0" y2="35" style="stroke-width:1; stroke:grey; "  />
<polygon points="211,40 247,40 252,35 247,30 211,30 211,40 " style="fill:white; stroke-width:1; stroke:black; " description="&lt;b&gt;cds52060_54325&lt;/b&gt;&lt;br&gt;Glutaryl-7-aminocephalosporanic-acid acylase&lt;br&gt;Location: 52060 - 54325" locus_tag="cds52060_54325" class="clusterblast-orf" id="dummy-1_q0_0_all"  />
<polygon points="253,35 258,30 266,30 266,40 258,40 253,35 " style="fill:white; stroke-width:1; stroke:black; " description="&lt;b&gt;cds54395_55094&lt;/b&gt;&lt;br&gt;hypothetical protein&lt;br&gt;Location: 54395 - 55094" locus_tag="cds54395_55094" class="clusterblast-orf" id="dummy-1_q1_0_all"  />
<polygon points="267,35 272,30 298,30 298,40 272,40 267,35 " style="fill:#d81515; stroke-width:1; stroke:black; " description="&lt;b&gt;cds55180_56872&lt;/b&gt;&lt;br&gt;Tryptophan 2-monooxygenase&lt;br&gt;Location: 55180 - 56872" locus_tag="cds55180_56872" class="clusterblast-orf" id="dummy-1_q2_0_all"  />
<polygon points="299,35 304,30 314,30 314,40 304,40 299,35 " style="fill:#3cd815; stroke-width:1; stroke:black; " description="&lt;b&gt;cds56918_57716&lt;/b&gt;&lt;br&gt;(R)-stereoselective amidase&lt;br&gt;Location: 56918 - 57716" locus_tag="cds56918_57716" class="clusterblast-orf" id="dummy-1_q3_0_all"  />
<polygon points="318,35 323,30 326,30 326,40 323,40 318,35 " style="fill:white; stroke-width:1; stroke:black; " description="&lt;b&gt;cds57926_58385&lt;/b&gt;&lt;br&gt;Regulatory protein AsnC&lt;br&gt;Location: 57926 - 58385" locus_tag="cds57926_58385" class="clusterblast-orf" id="dummy-1_q4_0_all"  />
<polygon points="328,35 333,30 354,30 354,40 333,40 328,35 " style="fill:white; stroke-width:1; stroke:black; " description="&lt;b&gt;cds58486_59947&lt;/b&gt;&lt;br&gt;Benzaldehyde dehydrogenase YfmT&lt;br&gt;Location: 58486 - 59947" locus_tag="cds58486_59947" class="clusterblast-orf" id="dummy-1_q5_0_all"  />
<polygon points="358,35 363,30 387,30 387,40 363,40 358,35 " style="fill:#1563d8; stroke-width:1; stroke:black; " description="&lt;b&gt;cds60142_61738&lt;/b&gt;&lt;br&gt;putative oxidoreductase&lt;br&gt;Location: 60142 - 61738" locus_tag="cds60142_61738" class="clusterblast-orf" id="dummy-1_q6_0_all"  />
<polygon points="390,40 404,40 409,35 404,30 390,30 390,40 " style="fill:white; stroke-width:1; stroke:black; " description="&lt;b&gt;cds61903_62956&lt;/b&gt;&lt;br&gt;Germacrene A synthase&lt;br&gt;Location: 61903 - 62956" locus_tag="cds61903_62956" class="clusterblast-orf" id="dummy-1_q7_0_all"  />
<polygon points="410,35 415,30 429,30 429,40 415,40 410,35 " style="fill:#b115d8; stroke-width:1; stroke:black; " description="&lt;b&gt;cds63013_64036&lt;/b&gt;&lt;br&gt;Sorbitol operon regulator&lt;br&gt;Location: 63013 - 64036" locus_tag="cds63013_64036" class="clusterblast-orf" id="dummy-1_q8_0_all"  />
<polygon points="431,35 436,30 443,30 443,40 436,40 431,35 " style="fill:#d88a15; stroke-width:1; stroke:black; " description="&lt;b&gt;cds64138_64822&lt;/b&gt;&lt;br&gt;Ribulose-phosphate 3-epimerase&lt;br&gt;Location: 64138 - 64822" locus_tag="cds64138_64822" class="clusterblast-orf" id="dummy-1_q9_0_all"  />
<polygon points="446,35 451,30 472,30 472,40 451,40 446,35 " style="fill:#15d863; stroke-width:1; stroke:black; " description="&lt;b&gt;cds64989_66423&lt;/b&gt;&lt;br&gt;Putative methyltransferase&lt;br&gt;Location: 64989 - 66423" locus_tag="cds64989_66423" class="clusterblast-orf" id="dummy-1_q10_0_all"  />
<polygon points="474,35 479,30 491,30 491,40 479,40 474,35 " style="fill:#3c15d8; stroke-width:1; stroke:black; " description="&lt;b&gt;cds66502_67435&lt;/b&gt;&lt;br&gt;Methionyl-tRNA formyltransferase&lt;br&gt;Location: 66502 - 67435" locus_tag="cds66502_67435" class="clusterblast-orf" id="dummy-1_q11_0_all"  />
<polygon points="495,40 500,40 505,35 500,30 495,30 495,40 " style="fill:#d8158a; stroke-width:1; stroke:black; " description="&lt;b&gt;cds67695_68208&lt;/b&gt;&lt;br&gt;hypothetical protein&lt;br&gt;Location: 67695 - 68208" locus_tag="cds67695_68208" class="clusterblast-orf" id="dummy-1_q12_0_all"  />
<polygon points="505,35 510,30 545,30 545,40 510,40 505,35 " style="fill:#b1d815; stroke-width:1; stroke:black; " description="&lt;b&gt;cds68246_70391&lt;/b&gt;&lt;br&gt;putative primosomal protein N'&lt;br&gt;Location: 68246 - 70391" locus_tag="cds68246_70391" class="clusterblast-orf" id="dummy-1_q13_0_all"  />
<polygon points="547,35 552,30 569,30 569,40 552,40 547,35 " style="fill:#15d8d8; stroke-width:1; stroke:black; " description="&lt;b&gt;cds70508_71717&lt;/b&gt;&lt;br&gt;S-adenosylmethionine synthase&lt;br&gt;Location: 70508 - 71717" locus_tag="cds70508_71717" class="clusterblast-orf" id="dummy-1_q14_0_all"  />
</g>
<g label="BGC0000273" description="BGC0000273_c1: steffimycin D (19% of genes show similarity), Polyketide:Type II + Saccharide:Hybrid/tailoring" class="clusterblast-cluster"  >
<text x="5" y="70" class="clusterblast-acc"  >
<a xlink:href="https://mibig.secondarymetabolites.org/go/BGC0000273/1" target="_blank">BGC0000273</a>:                                                                    steffimycin D (19% of genes show similarity), Polyketide:Type II + Saccharide:Hybrid/tailoring</text>
<line x1="10" y1="85" x2="778.0" y2="85" style="stroke-width:1; stroke:grey; "  />
</g>
<g id="a1_000"  >
<polygon points="0,85 5,80 26,80 26,90 5,90 0,85 " style="fill:#1563d8; stroke-width:1; stroke:black; " description="&lt;b&gt;CAJ42313.1&lt;/b&gt;&lt;br&gt;putative inosine monophosphate dehydrogenase&lt;br&gt;Location: 51 - 1502&lt;br&gt;&lt;br&gt;&lt;b&gt;BlastP hit with cds60142_61738&lt;/b&gt;&lt;br&gt;Percentage identity: 87&lt;br&gt;Percentage coverage: 89&lt;br&gt;BLAST bit score: 800&lt;br&gt;E-value: 1.5e-231" locus_tag="CAJ42313.1" class="clusterblast-orf" id="dummy-1_h1_1_0"  />
</g>
<g id="a1_001"  >
<polygon points="28,85 33,80 34,80 34,90 33,90 28,85 " style="fill:white; stroke-width:1; stroke:black; " description="&lt;b&gt;CAJ42314.1&lt;/b&gt;&lt;br&gt;hypothetical protein&lt;br&gt;Location: 1602 - 1955" locus_tag="CAJ42314.1" class="clusterblast-orf" id="dummy-1_h1_1_1"  />
</g>
<g id="a1_002"  >
<polygon points="35,85 40,80 54,80 54,90 40,90 35,85 " style="fill:#b115d8; stroke-width:1; stroke:black; " description="&lt;b&gt;CAJ42315.1&lt;/b&gt;&lt;br&gt;putative transcriptional regulator&lt;br&gt;Location: 1980 - 3023&lt;br&gt;&lt;br&gt;&lt;b&gt;BlastP hit with cds63013_64036&lt;/b&gt;&lt;br&gt;Percentage identity: 91&lt;br&gt;Percentage coverage: 100&lt;br&gt;BLAST bit score: 577&lt;br&gt;E-value: 1.8e-164" locus_tag="CAJ42315.1" class="clusterblast-orf" id="dummy-1_h1_1_2"  />
</g>
<g id="a1_003"  >
<polygon points="55,85 60,80 68,80 68,90 60,90 55,85 " style="fill:#d88a15; stroke-width:1; stroke:black; " description="&lt;b&gt;CAJ42316.1&lt;/b&gt;&lt;br&gt;putative ribulose-phosphate 3-epimerase&lt;br&gt;Location: 3102 - 3788&lt;br&gt;&lt;br&gt;&lt;b&gt;BlastP hit with cds64138_64822&lt;/b&gt;&lt;br&gt;Percentage identity: 92&lt;br&gt;Percentage coverage: 99&lt;br&gt;BLAST bit score: 415&lt;br&gt;E-value: 7.8e-116" locus_tag="CAJ42316.1" class="clusterblast-orf" id="dummy-1_h1_1_3"  />
</g>
<g id="a1_004"  >
<polygon points="71,90 105,90 110,85 105,80 71,80 71,90 " style="fill:white; stroke-width:1; stroke:black; " description="&lt;b&gt;CAJ42317.1&lt;/b&gt;&lt;br&gt;putative membrane protein&lt;br&gt;Location: 3953 - 6091" locus_tag="CAJ42317.1" class="clusterblast-orf" id="dummy-1_h1_1_4"  />
</g>
<g id="a1_005"  >
<polygon points="110,85 115,80 115,80 115,90 115,90 110,85 " style="fill:white; stroke-width:1; stroke:black; " description="&lt;b&gt;CAJ42318.1&lt;/b&gt;&lt;br&gt;acyl carrier protein&lt;br&gt;Location: 6118 - 6378" locus_tag="CAJ42318.1" class="clusterblast-orf" id="dummy-1_h1_1_5"  />
</g>
<g id="a1_006"  >
<polygon points="115,85 120,80 137,80 137,90 120,90 115,85 " style="fill:white; stroke-width:1; stroke:black; " description="&lt;b&gt;CAJ42319.1&lt;/b&gt;&lt;br&gt;chain length factor&lt;br&gt;Location: 6391 - 7611" locus_tag="CAJ42319.1" class="clusterblast-orf" id="dummy-1_h1_1_6"  />
</g>
<g id="a1_007"  >
<polygon points="137,85 142,80 160,80 160,90 142,90 137,85 " style="fill:white; stroke-width:1; stroke:black; " description="&lt;b&gt;CAJ42320.1&lt;/b&gt;&lt;br&gt;ketoacyl synthase&lt;br&gt;Location: 7620 - 8888" locus_tag="CAJ42320.1" class="clusterblast-orf" id="dummy-1_h1_1_7"  />
</g>
<g id="a1_008"  >
<polygon points="160,85 165,80 167,80 167,90 165,90 160,85 " style="fill:white; stroke-width:1; stroke:black; " description="&lt;b&gt;CAJ42321.1&lt;/b&gt;&lt;br&gt;monooxygenase&lt;br&gt;Location: 8890 - 9225" locus_tag="CAJ42321.1" class="clusterblast-orf" id="dummy-1_h1_1_8"  />
</g>
<g id="a1_009"  >
<polygon points="169,85 174,80 184,80 184,90 174,90 169,85 " style="fill:white; stroke-width:1; stroke:black; " description="&lt;b&gt;CAJ42322.1&lt;/b&gt;&lt;br&gt;ketoreductase&lt;br&gt;Location: 9351 - 10175" locus_tag="CAJ42322.1" class="clusterblast-orf" id="dummy-1_h1_1_9"  />
</g>
<g id="a1_0010"  >
<polygon points="184,85 189,80 192,80 192,90 189,90 184,85 " style="fill:white; stroke-width:1; stroke:black; " description="&lt;b&gt;CAJ42323.1&lt;/b&gt;&lt;br&gt;cyclase&lt;br&gt;Location: 10200 - 10640" locus_tag="CAJ42323.1" class="clusterblast-orf" id="dummy-1_h1_1_10"  />
</g>
<g id="a1_0011"  >
<polygon points="196,90 205,90 210,85 205,80 196,80 196,90 " style="fill:white; stroke-width:1; stroke:black; " description="&lt;b&gt;CAJ42324.1&lt;/b&gt;&lt;br&gt;cyclase&lt;br&gt;Location: 10818 - 11597" locus_tag="CAJ42324.1" class="clusterblast-orf" id="dummy-1_h1_1_11"  />
</g>
<g id="a1_0012"  >
<polygon points="213,90 224,90 229,85 224,80 213,80 213,90 " style="fill:white; stroke-width:1; stroke:black; " description="&lt;b&gt;CAJ42325.1&lt;/b&gt;&lt;br&gt;SARP family regulator&lt;br&gt;Location: 11796 - 12668" locus_tag="CAJ42325.1" class="clusterblast-orf" id="dummy-1_h1_1_12"  />
</g>
<g id="a1_0013"  >
<polygon points="230,85 235,80 241,80 241,90 235,90 230,85 " style="fill:white; stroke-width:1; stroke:black; " description="&lt;b&gt;CAJ42326.1&lt;/b&gt;&lt;br&gt;transcriptional regulator&lt;br&gt;Location: 12711 - 13301" locus_tag="CAJ42326.1" class="clusterblast-orf" id="dummy-1_h1_1_13"  />
</g>
<g id="a1_0014"  >
<polygon points="248,90 260,90 265,85 260,80 248,80 248,90 " style="fill:white; stroke-width:1; stroke:black; " description="&lt;b&gt;CAJ42327.1&lt;/b&gt;&lt;br&gt;aromatase&lt;br&gt;Location: 13694 - 14623" locus_tag="CAJ42327.1" class="clusterblast-orf" id="dummy-1_h1_1_14"  />
</g>
<g id="a1_0015"  >
<polygon points="265,90 272,90 277,85 272,80 265,80 265,90 " style="fill:white; stroke-width:1; stroke:black; " description="&lt;b&gt;CAJ42328.1&lt;/b&gt;&lt;br&gt;O-methyl transferase&lt;br&gt;Location: 14616 - 15293" locus_tag="CAJ42328.1" class="clusterblast-orf" id="dummy-1_h1_1_15"  />
</g>
<g id="a1_0016"  >
<polygon points="279,85 284,80 290,80 290,90 284,90 279,85 " style="fill:white; stroke-width:1; stroke:black; " description="&lt;b&gt;CAJ42329.1&lt;/b&gt;&lt;br&gt;SWIM Zn-finger&lt;br&gt;Location: 15424 - 15987" locus_tag="CAJ42329.1" class="clusterblast-orf" id="dummy-1_h1_1_16"  />
</g>
<g id="a1_0017"  >
<polygon points="290,85 295,80 323,80 323,90 295,90 290,85 " style="fill:white; stroke-width:1; stroke:black; " description="&lt;b&gt;CAJ42330.1&lt;/b&gt;&lt;br&gt;SNF2 related domain&lt;br&gt;Location: 15984 - 17840" locus_tag="CAJ42330.1" class="clusterblast-orf" id="dummy-1_h1_1_17"  />
</g>
<g id="a1_0018"  >
<polygon points="323,85 328,80 351,80 351,90 328,90 323,85 " style="fill:white; stroke-width:1; stroke:black; " description="&lt;b&gt;CAJ42331.1&lt;/b&gt;&lt;br&gt;putative transmembrane efflux protein&lt;br&gt;Location: 17833 - 19341" locus_tag="CAJ42331.1" class="clusterblast-orf" id="dummy-1_h1_1_18"  />
</g>
<g id="a1_0019"  >
<polygon points="352,90 356,90 361,85 356,80 352,80 352,90 " style="fill:white; stroke-width:1; stroke:black; " description="&lt;b&gt;CAJ42332.1&lt;/b&gt;&lt;br&gt;putative transcriptional regulator&lt;br&gt;Location: 19419 - 19919" locus_tag="CAJ42332.1" class="clusterblast-orf" id="dummy-1_h1_1_19"  />
</g>
<g id="a1_0020"  >
<polygon points="363,90 380,90 385,85 380,80 363,80 363,90 " style="fill:white; stroke-width:1; stroke:black; " description="&lt;b&gt;CAJ42333.1&lt;/b&gt;&lt;br&gt;cytochrome P450&lt;br&gt;Location: 19995 - 21203" locus_tag="CAJ42333.1" class="clusterblast-orf" id="dummy-1_h1_1_20"  />
</g>
<g id="a1_0021"  >
<polygon points="386,90 409,90 414,85 409,80 386,80 386,90 " style="fill:white; stroke-width:1; stroke:black; " description="&lt;b&gt;CAJ42334.1&lt;/b&gt;&lt;br&gt;dehydrogenase&lt;br&gt;Location: 21249 - 22829" locus_tag="CAJ42334.1" class="clusterblast-orf" id="dummy-1_h1_1_21"  />
</g>
<g id="a1_0022"  >
<polygon points="415,85 420,80 437,80 437,90 420,90 415,85 " style="fill:white; stroke-width:1; stroke:black; " description="&lt;b&gt;CAJ42335.1&lt;/b&gt;&lt;br&gt;putative oxygenase&lt;br&gt;Location: 22887 - 24050" locus_tag="CAJ42335.1" class="clusterblast-orf" id="dummy-1_h1_1_22"  />
</g>
<g id="a1_0023"  >
<polygon points="437,85 442,80 458,80 458,90 442,90 437,85 " style="fill:white; stroke-width:1; stroke:black; " description="&lt;b&gt;CAJ42336.1&lt;/b&gt;&lt;br&gt;O-methyl transferase&lt;br&gt;Location: 24068 - 25243" locus_tag="CAJ42336.1" class="clusterblast-orf" id="dummy-1_h1_1_23"  />
</g>
<g id="a1_0024"  >
<polygon points="458,85 463,80 464,80 464,90 463,90 458,85 " style="fill:white; stroke-width:1; stroke:black; " description="&lt;b&gt;CAJ42337.1&lt;/b&gt;&lt;br&gt;putative 5-chloromuconolactone dehalogenase&lt;br&gt;Location: 25233 - 25574" locus_tag="CAJ42337.1" class="clusterblast-orf" id="dummy-1_h1_1_24"  />
</g>
<g id="a1_0025"  >
<polygon points="466,85 471,80 489,80 489,90 471,90 466,85 " style="fill:white; stroke-width:1; stroke:black; " description="&lt;b&gt;CAJ42338.1&lt;/b&gt;&lt;br&gt;glycosyltransferase&lt;br&gt;Location: 25654 - 26916" locus_tag="CAJ42338.1" class="clusterblast-orf" id="dummy-1_h1_1_25"  />
</g>
<g id="a1_0026"  >
<polygon points="490,85 495,80 510,80 510,90 495,90 490,85 " style="fill:white; stroke-width:1; stroke:black; " description="&lt;b&gt;CAJ42339.1&lt;/b&gt;&lt;br&gt;cytochrome P450-like&lt;br&gt;Location: 26977 - 28077" locus_tag="CAJ42339.1" class="clusterblast-orf" id="dummy-1_h1_1_26"  />
</g>
<g id="a1_0027"  >
<polygon points="513,90 529,90 534,85 529,80 513,80 513,90 " style="fill:white; stroke-width:1; stroke:black; " description="&lt;b&gt;CAJ42340.1&lt;/b&gt;&lt;br&gt;O-methyl transferase&lt;br&gt;Location: 28239 - 29417" locus_tag="CAJ42340.1" class="clusterblast-orf" id="dummy-1_h1_1_27"  />
</g>
<g id="a1_0028"  >
<polygon points="537,85 542,80 614,80 614,90 542,90 537,85 " style="fill:white; stroke-width:1; stroke:black; " description="&lt;b&gt;CAJ42341.1&lt;/b&gt;&lt;br&gt;hypothetical protein&lt;br&gt;Location: 29583 - 33797" locus_tag="CAJ42341.1" class="clusterblast-orf" id="dummy-1_h1_1_28"  />
</g>
<g id="a1_0029"  >
<polygon points="615,85 620,80 636,80 636,90 620,90 615,85 " style="fill:white; stroke-width:1; stroke:black; " description="&lt;b&gt;CAJ42342.1&lt;/b&gt;&lt;br&gt;hypothetical protein&lt;br&gt;Location: 33847 - 34971" locus_tag="CAJ42342.1" class="clusterblast-orf" id="dummy-1_h1_1_29"  />
</g>
<g id="a1_0030"  >
<polygon points="636,85 641,80 654,80 654,90 641,90 636,85 " style="fill:white; stroke-width:1; stroke:black; " description="&lt;b&gt;CAJ42343.1&lt;/b&gt;&lt;br&gt;putative trypsin-like serine protease&lt;br&gt;Location: 34976 - 36010" locus_tag="CAJ42343.1" class="clusterblast-orf" id="dummy-1_h1_1_30"  />
</g>
<g id="a1_0031"  >
<polygon points="655,85 660,80 678,80 678,90 660,90 655,85 " style="fill:white; stroke-width:1; stroke:black; " description="&lt;b&gt;CAJ42344.1&lt;/b&gt;&lt;br&gt;hypothetical protein&lt;br&gt;Location: 36061 - 37308" locus_tag="CAJ42344.1" class="clusterblast-orf" id="dummy-1_h1_1_31"  />
</g>
<g id="a1_0032"  >
<polygon points="687,85 692,80 713,80 713,90 692,90 687,85 " style="fill:#15d863; stroke-width:1; stroke:black; " description="&lt;b&gt;CAJ42345.1&lt;/b&gt;&lt;br&gt;hypothetical Sun-family protein&lt;br&gt;Location: 37796 - 39223&lt;br&gt;&lt;br&gt;&lt;b&gt;BlastP hit with cds64989_66423&lt;/b&gt;&lt;br&gt;Percentage identity: 79&lt;br&gt;Percentage coverage: 101&lt;br&gt;BLAST bit score: 762&lt;br&gt;E-value: 3.2e-220" locus_tag="CAJ42345.1" class="clusterblast-orf" id="dummy-1_h1_1_32"  />
</g>
<g id="a1_0033"  >
<polygon points="721,85 726,80 738,80 738,90 726,90 721,85 " style="fill:#3c15d8; stroke-width:1; stroke:black; " description="&lt;b&gt;CAJ42346.1&lt;/b&gt;&lt;br&gt;putative methionyl-tRNA formyltransferase&lt;br&gt;Location: 39673 - 40605&lt;br&gt;&lt;br&gt;&lt;b&gt;BlastP hit with cds66502_67435&lt;/b&gt;&lt;br&gt;Percentage identity: 86&lt;br&gt;Percentage coverage: 100&lt;br&gt;BLAST bit score: 548&lt;br&gt;E-value: 8.1e-156" locus_tag="CAJ42346.1" class="clusterblast-orf" id="dummy-1_h1_1_33"  />
</g>
<g id="a1_0034"  >
<polygon points="744,90 749,90 754,85 749,80 744,80 744,90 " style="fill:#d8158a; stroke-width:1; stroke:black; " description="&lt;b&gt;CAJ42347.1&lt;/b&gt;&lt;br&gt;hypothetical protein&lt;br&gt;Location: 40935 - 41486&lt;br&gt;&lt;br&gt;&lt;b&gt;BlastP hit with cds67695_68208&lt;/b&gt;&lt;br&gt;Percentage identity: 75&lt;br&gt;Percentage coverage: 108&lt;br&gt;BLAST bit score: 231&lt;br&gt;E-value: 9.2e-61" locus_tag="CAJ42347.1" class="clusterblast-orf" id="dummy-1_h1_1_34"  />
</g>
<g id="a1_0035"  >
<polygon points="756,85 761,80 780,80 780,90 761,90 756,85 " style="fill:#b1d815; stroke-width:1; stroke:black; " description="&lt;b&gt;CAJ42348.1&lt;/b&gt;&lt;br&gt;putative primosomal protein N'&lt;br&gt;Location: 41608 - 42877&lt;br&gt;&lt;br&gt;&lt;b&gt;BlastP hit with cds68246_70391&lt;/b&gt;&lt;br&gt;Percentage identity: 77&lt;br&gt;Percentage coverage: 59&lt;br&gt;BLAST bit score: 646&lt;br&gt;E-value: 5e-185" locus_tag="CAJ42348.1" class="clusterblast-orf" id="dummy-1_h1_1_35"  />
</g>
</svg>
