<svg xmlns="http://www.w3.org/2000/svg" xmlns:xlink="http://www.w3.org/1999/xlink" version="1.1" x="0" y="0" height="230" width="800" viewBox="0 0 800 230" preserveAspectRatio="none"  >
<g label="Query sequence" class="clusterblast-cluster"  >
<text x="5" y="20" class="clusterblast-acc"  >
Query sequence</text>
<line x1="10" y1="35" x2="778.0" y2="35" style="stroke-width:1; stroke:grey; "  />
<polygon points="0,35 5,30 19,30 19,40 5,40 0,35 " style="fill:white; stroke-width:1; stroke:black; " description="&lt;b&gt;cds63_924&lt;/b&gt;&lt;br&gt;hypothetical protein&lt;br&gt;Location: 63 - 924" locus_tag="cds63_924" class="clusterblast-orf" id="dummy-1_q0_0_all"  />
<polygon points="22,35 27,30 31,30 31,40 27,40 22,35 " style="fill:white; stroke-width:1; stroke:black; " description="&lt;b&gt;cds1063_1474&lt;/b&gt;&lt;br&gt;hypothetical protein&lt;br&gt;Location: 1063 - 1474" locus_tag="cds1063_1474" class="clusterblast-orf" id="dummy-1_q1_0_all"  />
<polygon points="37,40 38,40 43,35 38,30 37,30 37,40 " style="fill:white; stroke-width:1; stroke:black; " description="&lt;b&gt;cds1786_2032&lt;/b&gt;&lt;br&gt;hypothetical protein&lt;br&gt;Location: 1786 - 2032" locus_tag="cds1786_2032" class="clusterblast-orf" id="dummy-1_q2_0_all"  />
<polygon points="45,35 49,30 49,40 45,35 " style="fill:white; stroke-width:1; stroke:black; " description="&lt;b&gt;cds2110_2305&lt;/b&gt;&lt;br&gt;hypothetical protein&lt;br&gt;Location: 2110 - 2305" locus_tag="cds2110_2305" class="clusterblast-orf" id="dummy-1_q3_0_all"  />
<polygon points="49,35 54,30 65,30 65,40 54,40 49,35 " style="fill:white; stroke-width:1; stroke:black; " description="&lt;b&gt;cds2301_3054&lt;/b&gt;&lt;br&gt;hypothetical protein&lt;br&gt;Location: 2301 - 3054" locus_tag="cds2301_3054" class="clusterblast-orf" id="dummy-1_q4_0_all"  />
<polygon points="70,40 74,40 79,35 74,30 70,30 70,40 " style="fill:white; stroke-width:1; stroke:black; " description="&lt;b&gt;cds3251_3692&lt;/b&gt;&lt;br&gt;hypothetical protein&lt;br&gt;Location: 3251 - 3692" locus_tag="cds3251_3692" class="clusterblast-orf" id="dummy-1_q5_0_all"  />
<polygon points="84,40 94,40 99,35 94,30 84,30 84,40 " style="fill:white; stroke-width:1; stroke:black; " description="&lt;b&gt;cds3911_4616&lt;/b&gt;&lt;br&gt;hypothetical protein&lt;br&gt;Location: 3911 - 4616" locus_tag="cds3911_4616" class="clusterblast-orf" id="dummy-1_q6_0_all"  />
<polygon points="106,40 109,40 114,35 109,30 106,30 106,40 " style="fill:#d81515; stroke-width:1; stroke:black; " description="&lt;b&gt;cds4897_5269&lt;/b&gt;&lt;br&gt;30S ribosomal protein S12&lt;br&gt;Location: 4897 - 5269" locus_tag="cds4897_5269" class="clusterblast-orf" id="dummy-1_q7_0_all"  />
<polygon points="114,40 119,40 124,35 119,30 114,30 114,40 " style="fill:#5cd815; stroke-width:1; stroke:black; " description="&lt;b&gt;cds5271_5742&lt;/b&gt;&lt;br&gt;30S ribosomal protein S7&lt;br&gt;Location: 5271 - 5742" locus_tag="cds5271_5742" class="clusterblast-orf" id="dummy-1_q8_0_all"  />
<polygon points="125,40 167,40 172,35 167,30 125,30 125,40 " style="fill:#15a3d8; stroke-width:1; stroke:black; " description="&lt;b&gt;cds5780_7910&lt;/b&gt;&lt;br&gt;Elongation factor G&lt;br&gt;Location: 5780 - 7910" locus_tag="cds5780_7910" class="clusterblast-orf" id="dummy-1_q9_0_all"  />
<polygon points="175,40 196,40 201,35 196,30 175,30 175,40 " style="fill:#9115d8; stroke-width:1; stroke:black; " description="&lt;b&gt;cds8057_9251&lt;/b&gt;&lt;br&gt;Elongation factor Tu&lt;br&gt;Location: 8057 - 9251" locus_tag="cds8057_9251" class="clusterblast-orf" id="dummy-1_q10_0_all"  />
<polygon points="206,35 211,30 214,30 214,40 211,40 206,35 " style="fill:#d84a15; stroke-width:1; stroke:black; " description="&lt;b&gt;cds9466_9859&lt;/b&gt;&lt;br&gt;hypothetical protein&lt;br&gt;Location: 9466 - 9859" locus_tag="cds9466_9859" class="clusterblast-orf" id="dummy-1_q11_0_all"  />
<polygon points="214,35 219,30 229,30 229,40 219,40 214,35 " style="fill:#27d815; stroke-width:1; stroke:black; " description="&lt;b&gt;cds9855_10533&lt;/b&gt;&lt;br&gt;hypothetical protein&lt;br&gt;Location: 9855 - 10533" locus_tag="cds9855_10533" class="clusterblast-orf" id="dummy-1_q12_0_all"  />
<polygon points="229,35 234,30 272,30 272,40 234,40 229,35 " style="fill:#156ed8; stroke-width:1; stroke:black; " description="&lt;b&gt;cds10547_12503&lt;/b&gt;&lt;br&gt;hypothetical protein&lt;br&gt;Location: 10547 - 12503" locus_tag="cds10547_12503" class="clusterblast-orf" id="dummy-1_q13_0_all"  />
<polygon points="273,35 278,30 297,30 297,40 278,40 273,35 " style="fill:#c715d8; stroke-width:1; stroke:black; " description="&lt;b&gt;cds12521_13655&lt;/b&gt;&lt;br&gt;hypothetical protein&lt;br&gt;Location: 12521 - 13655" locus_tag="cds12521_13655" class="clusterblast-orf" id="dummy-1_q14_0_all"  />
<polygon points="300,35 303,30 303,40 300,35 " style="fill:#d88015; stroke-width:1; stroke:black; " description="&lt;b&gt;cds13773_13926&lt;/b&gt;&lt;br&gt;hypothetical protein&lt;br&gt;Location: 13773 - 13926" locus_tag="cds13773_13926" class="clusterblast-orf" id="dummy-1_q15_0_all"  />
<polygon points="306,35 310,30 310,40 306,35 " style="fill:#15d839; stroke-width:1; stroke:black; " description="&lt;b&gt;cds14028_14223&lt;/b&gt;&lt;br&gt;hypothetical protein&lt;br&gt;Location: 14028 - 14223" locus_tag="cds14028_14223" class="clusterblast-orf" id="dummy-1_q16_0_all"  />
<polygon points="311,35 316,30 332,30 332,40 316,40 311,35 " style="fill:#1539d8; stroke-width:1; stroke:black; " description="&lt;b&gt;cds14277_15255&lt;/b&gt;&lt;br&gt;hypothetical protein&lt;br&gt;Location: 14277 - 15255" locus_tag="cds14277_15255" class="clusterblast-orf" id="dummy-1_q17_0_all"  />
<polygon points="332,35 337,30 390,30 390,40 337,40 332,35 " style="fill:#d815b5; stroke-width:1; stroke:black; " description="&lt;b&gt;cds15235_17896&lt;/b&gt;&lt;br&gt;hypothetical protein&lt;br&gt;Location: 15235 - 17896" locus_tag="cds15235_17896" class="clusterblast-orf" id="dummy-1_q18_0_all"  />
<polygon points="391,35 396,30 433,30 433,40 396,40 391,35 " style="fill:#d8b515; stroke-width:1; stroke:black; " description="&lt;b&gt;cds17924_19844&lt;/b&gt;&lt;br&gt;hypothetical protein&lt;br&gt;Location: 17924 - 19844" locus_tag="cds17924_19844" class="clusterblast-orf" id="dummy-1_q19_0_all"  />
<polygon points="433,35 438,30 471,30 471,40 438,40 433,35 " style="fill:#15d86e; stroke-width:1; stroke:black; " description="&lt;b&gt;cds19840_21598&lt;/b&gt;&lt;br&gt;hypothetical protein&lt;br&gt;Location: 19840 - 21598" locus_tag="cds19840_21598" class="clusterblast-orf" id="dummy-1_q20_0_all"  />
<polygon points="472,35 477,30 487,30 487,40 477,40 472,35 " style="fill:#2715d8; stroke-width:1; stroke:black; " description="&lt;b&gt;cds21626_22331&lt;/b&gt;&lt;br&gt;hypothetical protein&lt;br&gt;Location: 21626 - 22331" locus_tag="cds21626_22331" class="clusterblast-orf" id="dummy-1_q21_0_all"  />
<polygon points="488,35 493,30 523,30 523,40 493,40 488,35 " style="fill:#d81580; stroke-width:1; stroke:black; " description="&lt;b&gt;cds22334_23948&lt;/b&gt;&lt;br&gt;hypothetical protein&lt;br&gt;Location: 22334 - 23948" locus_tag="cds22334_23948" class="clusterblast-orf" id="dummy-1_q22_0_all"  />
<polygon points="524,35 529,30 537,30 537,40 529,40 524,35 " style="fill:#c7d815; stroke-width:1; stroke:black; " description="&lt;b&gt;cds23989_24595&lt;/b&gt;&lt;br&gt;hypothetical protein&lt;br&gt;Location: 23989 - 24595" locus_tag="cds23989_24595" class="clusterblast-orf" id="dummy-1_q23_0_all"  />
<polygon points="538,35 543,30 567,30 567,40 543,40 538,35 " style="fill:#15d8a3; stroke-width:1; stroke:black; " description="&lt;b&gt;cds24615_25944&lt;/b&gt;&lt;br&gt;hypothetical protein&lt;br&gt;Location: 24615 - 25944" locus_tag="cds24615_25944" class="clusterblast-orf" id="dummy-1_q24_0_all"  />
<polygon points="577,40 586,40 591,35 586,30 577,30 577,40 " style="fill:#5c15d8; stroke-width:1; stroke:black; " description="&lt;b&gt;cds26401_27034&lt;/b&gt;&lt;br&gt;2-methoxy-6-polyprenyl-1,4-benzoquinol methylase, mitochondrial&lt;br&gt;Location: 26401 - 27034" locus_tag="cds26401_27034" class="clusterblast-orf" id="dummy-1_q25_0_all"  />
<polygon points="595,40 616,40 621,35 616,30 595,30 595,40 " style="fill:#d8154a; stroke-width:1; stroke:black; " description="&lt;b&gt;cds27231_28431&lt;/b&gt;&lt;br&gt;Erythromycin C-12 hydroxylase&lt;br&gt;Location: 27231 - 28431" locus_tag="cds27231_28431" class="clusterblast-orf" id="dummy-1_q26_0_all"  />
<polygon points="623,40 635,40 640,35 635,30 623,30 623,40 " style="fill:#91d815; stroke-width:1; stroke:black; " description="&lt;b&gt;cds28501_29305&lt;/b&gt;&lt;br&gt;23S rRNA (adenosine(1067)-2'-O)-methyltransferase&lt;br&gt;Location: 28501 - 29305" locus_tag="cds28501_29305" class="clusterblast-orf" id="dummy-1_q27_0_all"  />
<polygon points="642,35 647,30 689,30 689,40 647,40 642,35 " style="fill:#15d8d8; stroke-width:1; stroke:black; " description="&lt;b&gt;cds29404_31543&lt;/b&gt;&lt;br&gt;hypothetical protein&lt;br&gt;Location: 29404 - 31543" locus_tag="cds29404_31543" class="clusterblast-orf" id="dummy-1_q28_0_all"  />
<polygon points="693,35 698,30 714,30 714,40 698,40 693,35 " style="fill:white; stroke-width:1; stroke:black; " description="&lt;b&gt;cds31727_32669&lt;/b&gt;&lt;br&gt;hypothetical protein&lt;br&gt;Location: 31727 - 32669" locus_tag="cds31727_32669" class="clusterblast-orf" id="dummy-1_q29_0_all"  />
<polygon points="723,40 745,40 750,35 745,30 723,30 723,40 " style="fill:white; stroke-width:1; stroke:black; " description="&lt;b&gt;cds33101_34295&lt;/b&gt;&lt;br&gt;hypothetical protein&lt;br&gt;Location: 33101 - 34295" locus_tag="cds33101_34295" class="clusterblast-orf" id="dummy-1_q30_0_all"  />
<polygon points="750,35 755,30 760,30 760,40 755,40 750,35 " style="fill:white; stroke-width:1; stroke:black; " description="&lt;b&gt;cds34307_34760&lt;/b&gt;&lt;br&gt;IS1595 family transposase ISPaen4&lt;br&gt;Location: 34307 - 34760" locus_tag="cds34307_34760" class="clusterblast-orf" id="dummy-1_q31_0_all"  />
<polygon points="760,35 765,30 780,30 780,40 765,40 760,35 " style="fill:white; stroke-width:1; stroke:black; " description="&lt;b&gt;cds34793_35672&lt;/b&gt;&lt;br&gt;hypothetical protein&lt;br&gt;Location: 34793 - 35672" locus_tag="cds34793_35672" class="clusterblast-orf" id="dummy-1_q32_0_all"  />
</g>
<g label="BGC0001472" description="BGC0001472_c1: berninamycin A (86% of genes show similarity), RiPP" class="clusterblast-cluster"  >
<text x="5" y="70" class="clusterblast-acc"  >
<a xlink:href="https://mibig.secondarymetabolites.org/go/BGC0001472/1" target="_blank">BGC0001472</a>:                                                                   berninamycin A (86% of genes show similarity), RiPP</text>
<line x1="10" y1="85" x2="778.0" y2="85" style="stroke-width:1; stroke:grey; "  />
</g>
<g id="a1_000"  >
<polygon points="179,90 183,90 188,85 183,80 179,80 179,90 " style="fill:#d81515; stroke-width:1; stroke:black; " description="&lt;b&gt;AGN11663.1&lt;/b&gt;&lt;br&gt;S12 ribosomal protein&lt;br&gt;Location: 264 - 683&lt;br&gt;&lt;br&gt;&lt;b&gt;BlastP hit with cds4897_5269&lt;/b&gt;&lt;br&gt;Percentage identity: 99&lt;br&gt;Percentage coverage: 100&lt;br&gt;BLAST bit score: 240&lt;br&gt;E-value: 1.9e-63" locus_tag="AGN11663.1" class="clusterblast-orf" id="dummy-1_h1_2_0"  />
</g>
<g id="a1_001"  >
<polygon points="188,90 194,90 199,85 194,80 188,80 188,90 " style="fill:#5cd815; stroke-width:1; stroke:black; " description="&lt;b&gt;AGN11664.1&lt;/b&gt;&lt;br&gt;S7 ribosomal protein&lt;br&gt;Location: 686 - 1156&lt;br&gt;&lt;br&gt;&lt;b&gt;BlastP hit with cds5271_5742&lt;/b&gt;&lt;br&gt;Percentage identity: 100&lt;br&gt;Percentage coverage: 100&lt;br&gt;BLAST bit score: 305&lt;br&gt;E-value: 3.5e-83" locus_tag="AGN11664.1" class="clusterblast-orf" id="dummy-1_h1_2_1"  />
</g>
<g id="a1_002"  >
<polygon points="199,90 241,90 246,85 241,80 199,80 199,90 " style="fill:#15a3d8; stroke-width:1; stroke:black; " description="&lt;b&gt;AGN11662.1&lt;/b&gt;&lt;br&gt;elongation factor G&lt;br&gt;Location: 1195 - 3324&lt;br&gt;&lt;br&gt;&lt;b&gt;BlastP hit with cds5780_7910&lt;/b&gt;&lt;br&gt;Percentage identity: 99&lt;br&gt;Percentage coverage: 100&lt;br&gt;BLAST bit score: 1396&lt;br&gt;E-value: 0.0" locus_tag="AGN11662.1" class="clusterblast-orf" id="dummy-1_h1_2_2"  />
</g>
<g id="a1_003"  >
<polygon points="249,90 270,90 275,85 270,80 249,80 249,90 " style="fill:#9115d8; stroke-width:1; stroke:black; " description="&lt;b&gt;AGN11675.1&lt;/b&gt;&lt;br&gt;elongation factor Tu&lt;br&gt;Location: 3472 - 4665&lt;br&gt;&lt;br&gt;&lt;b&gt;BlastP hit with cds8057_9251&lt;/b&gt;&lt;br&gt;Percentage identity: 100&lt;br&gt;Percentage coverage: 100&lt;br&gt;BLAST bit score: 780&lt;br&gt;E-value: 9.5e-226" locus_tag="AGN11675.1" class="clusterblast-orf" id="dummy-1_h1_2_3"  />
</g>
<g id="a1_004"  >
<polygon points="280,85 285,80 295,80 295,90 285,90 280,85 " style="fill:#2715d8; stroke-width:1; stroke:black; " description="&lt;b&gt;AGN11666.1&lt;/b&gt;&lt;br&gt;BerE1&lt;br&gt;Location: 4869 - 5570&lt;br&gt;&lt;br&gt;&lt;b&gt;BlastP hit with cds21626_22331&lt;/b&gt;&lt;br&gt;Percentage identity: 53&lt;br&gt;Percentage coverage: 99&lt;br&gt;BLAST bit score: 247&lt;br&gt;E-value: 2.2e-65" locus_tag="AGN11666.1" class="clusterblast-orf" id="dummy-1_h1_2_4"  />
</g>
<g id="a1_005"  >
<polygon points="295,85 300,80 331,80 331,90 300,90 295,85 " style="fill:#d81580; stroke-width:1; stroke:black; " description="&lt;b&gt;AGN11665.1&lt;/b&gt;&lt;br&gt;BerE2&lt;br&gt;Location: 5567 - 7195&lt;br&gt;&lt;br&gt;&lt;b&gt;BlastP hit with cds22334_23948&lt;/b&gt;&lt;br&gt;Percentage identity: 49&lt;br&gt;Percentage coverage: 101&lt;br&gt;BLAST bit score: 496&lt;br&gt;E-value: 6.3e-140" locus_tag="AGN11665.1" class="clusterblast-orf" id="dummy-1_h1_2_5"  />
</g>
<g id="a1_006"  >
<polygon points="331,85 336,80 344,80 344,90 336,90 331,85 " style="fill:#c7d815; stroke-width:1; stroke:black; " description="&lt;b&gt;AGN11667.1&lt;/b&gt;&lt;br&gt;BerG1&lt;br&gt;Location: 7210 - 7821&lt;br&gt;&lt;br&gt;&lt;b&gt;BlastP hit with cds23989_24595&lt;/b&gt;&lt;br&gt;Percentage identity: 52&lt;br&gt;Percentage coverage: 94&lt;br&gt;BLAST bit score: 198&lt;br&gt;E-value: 7.8e-51" locus_tag="AGN11667.1" class="clusterblast-orf" id="dummy-1_h1_2_6"  />
</g>
<g id="a1_007"  >
<polygon points="345,85 350,80 375,80 375,90 350,90 345,85 " style="fill:#15d8a3; stroke-width:1; stroke:black; " description="&lt;b&gt;AGN11668.1&lt;/b&gt;&lt;br&gt;BerG2&lt;br&gt;Location: 7845 - 9191&lt;br&gt;&lt;br&gt;&lt;b&gt;BlastP hit with cds24615_25944&lt;/b&gt;&lt;br&gt;Percentage identity: 65&lt;br&gt;Percentage coverage: 99&lt;br&gt;BLAST bit score: 563&lt;br&gt;E-value: 3.5e-160" locus_tag="AGN11668.1" class="clusterblast-orf" id="dummy-1_h1_2_7"  />
</g>
<g id="a1_008"  >
<polygon points="376,85 381,80 401,80 401,90 381,90 376,85 " style="fill:white; stroke-width:1; stroke:black; " description="&lt;b&gt;AGN11669.1&lt;/b&gt;&lt;br&gt;BerD&lt;br&gt;Location: 9238 - 10392" locus_tag="AGN11669.1" class="clusterblast-orf" id="dummy-1_h1_2_8"  />
</g>
<g id="a1_009"  >
<polygon points="403,90 407,85 403,80 403,90 " style="fill:white; stroke-width:1; stroke:black; " description="&lt;b&gt;AGN11670.1&lt;/b&gt;&lt;br&gt;BerA&lt;br&gt;Location: 10511 - 10654" locus_tag="AGN11670.1" class="clusterblast-orf" id="dummy-1_h1_2_9"  />
</g>
<g id="a1_0010"  >
<polygon points="414,90 467,90 472,85 467,80 414,80 414,90 " style="fill:#d815b5; stroke-width:1; stroke:black; " description="&lt;b&gt;AGN11671.1&lt;/b&gt;&lt;br&gt;BerB&lt;br&gt;Location: 10977 - 13634&lt;br&gt;&lt;br&gt;&lt;b&gt;BlastP hit with cds15235_17896&lt;/b&gt;&lt;br&gt;Percentage identity: 49&lt;br&gt;Percentage coverage: 100&lt;br&gt;BLAST bit score: 816&lt;br&gt;E-value: 3.5e-236" locus_tag="AGN11671.1" class="clusterblast-orf" id="dummy-1_h1_2_10"  />
</g>
<g id="a1_0011"  >
<polygon points="476,90 487,90 492,85 487,80 476,80 476,90 " style="fill:#1539d8; stroke-width:1; stroke:black; " description="&lt;b&gt;AGN11672.1&lt;/b&gt;&lt;br&gt;BerC&lt;br&gt;Location: 13804 - 14571&lt;br&gt;&lt;br&gt;&lt;b&gt;BlastP hit with cds14277_15255&lt;/b&gt;&lt;br&gt;Percentage identity: 46&lt;br&gt;Percentage coverage: 76&lt;br&gt;BLAST bit score: 205&lt;br&gt;E-value: 1.3e-52" locus_tag="AGN11672.1" class="clusterblast-orf" id="dummy-1_h1_2_11"  />
</g>
<g id="a1_0012"  >
<polygon points="526,90 531,90 536,85 531,80 526,80 526,90 " style="fill:#d84a15; stroke-width:1; stroke:black; " description="&lt;b&gt;AGN11673.1&lt;/b&gt;&lt;br&gt;BerI&lt;br&gt;Location: 16103 - 16564&lt;br&gt;&lt;br&gt;&lt;b&gt;BlastP hit with cds9466_9859&lt;/b&gt;&lt;br&gt;Percentage identity: 62&lt;br&gt;Percentage coverage: 80&lt;br&gt;BLAST bit score: 132&lt;br&gt;E-value: 5.8e-31" locus_tag="AGN11673.1" class="clusterblast-orf" id="dummy-1_h1_2_12"  />
</g>
<g id="a1_0013"  >
<polygon points="544,90 557,90 562,85 557,80 544,80 544,90 " style="fill:#91d815; stroke-width:1; stroke:black; " description="&lt;b&gt;AGN11674.1&lt;/b&gt;&lt;br&gt;BerJ&lt;br&gt;Location: 16926 - 17729&lt;br&gt;&lt;br&gt;&lt;b&gt;BlastP hit with cds28501_29305&lt;/b&gt;&lt;br&gt;Percentage identity: 85&lt;br&gt;Percentage coverage: 100&lt;br&gt;BLAST bit score: 431&lt;br&gt;E-value: 9.5e-121" locus_tag="AGN11674.1" class="clusterblast-orf" id="dummy-1_h1_2_13"  />
</g>
<g id="a1_0014"  >
<polygon points="563,85 568,80 600,80 600,90 568,90 563,85 " style="fill:#15d8d8; stroke-width:1; stroke:black; " description="&lt;b&gt;AGN11661.1&lt;/b&gt;&lt;br&gt;LmbE family protein&lt;br&gt;Location: 17815 - 19486&lt;br&gt;&lt;br&gt;&lt;b&gt;BlastP hit with cds29404_31543&lt;/b&gt;&lt;br&gt;Percentage identity: 86&lt;br&gt;Percentage coverage: 79&lt;br&gt;BLAST bit score: 990&lt;br&gt;E-value: 1.1e-288" locus_tag="AGN11661.1" class="clusterblast-orf" id="dummy-1_h1_2_14"  />
</g>
</svg>
