<svg xmlns="http://www.w3.org/2000/svg" xmlns:xlink="http://www.w3.org/1999/xlink" version="1.1" x="0" y="0" height="230" width="800" viewBox="0 0 800 230" preserveAspectRatio="none"  >
<g label="Query sequence" class="clusterblast-cluster"  >
<text x="5" y="20" class="clusterblast-acc"  >
Query sequence</text>
<line x1="10" y1="35" x2="778.0" y2="35" style="stroke-width:1; stroke:grey; "  />
<polygon points="283,40 298,40 303,35 298,30 283,30 283,40 " style="fill:white; stroke-width:1; stroke:black; " description="&lt;b&gt;cds172_3241&lt;/b&gt;&lt;br&gt;Regulatory protein AfsR&lt;br&gt;Location: 172 - 3241" locus_tag="cds172_3241" class="clusterblast-orf" id="dummy-1_q0_0_all"  />
<polygon points="303,35 305,30 305,40 303,35 " style="fill:white; stroke-width:1; stroke:black; " description="&lt;b&gt;cds3274_3463&lt;/b&gt;&lt;br&gt;hypothetical protein&lt;br&gt;Location: 3274 - 3463" locus_tag="cds3274_3463" class="clusterblast-orf" id="dummy-1_q1_0_all"  />
<polygon points="305,35 309,30 309,40 305,35 " style="fill:white; stroke-width:1; stroke:black; " description="&lt;b&gt;cds3561_4200&lt;/b&gt;&lt;br&gt;hypothetical protein&lt;br&gt;Location: 3561 - 4200" locus_tag="cds3561_4200" class="clusterblast-orf" id="dummy-1_q2_0_all"  />
<polygon points="309,35 314,30 318,30 318,40 314,40 309,35 " style="fill:white; stroke-width:1; stroke:black; " description="&lt;b&gt;cds4199_5465&lt;/b&gt;&lt;br&gt;N-acetylcysteine deacetylase&lt;br&gt;Location: 4199 - 5465" locus_tag="cds4199_5465" class="clusterblast-orf" id="dummy-1_q3_0_all"  />
<polygon points="318,35 323,30 326,30 326,40 323,40 318,35 " style="fill:white; stroke-width:1; stroke:black; " description="&lt;b&gt;cds5461_6736&lt;/b&gt;&lt;br&gt;2-aminoadipate transaminase&lt;br&gt;Location: 5461 - 6736" locus_tag="cds5461_6736" class="clusterblast-orf" id="dummy-1_q4_0_all"  />
<polygon points="327,35 332,30 335,30 335,40 332,40 327,35 " style="fill:white; stroke-width:1; stroke:black; " description="&lt;b&gt;cds6807_8067&lt;/b&gt;&lt;br&gt;hypothetical protein&lt;br&gt;Location: 6807 - 8067" locus_tag="cds6807_8067" class="clusterblast-orf" id="dummy-1_q5_0_all"  />
<polygon points="335,35 340,30 342,30 342,40 340,40 335,35 " style="fill:white; stroke-width:1; stroke:black; " description="&lt;b&gt;cds8063_9062&lt;/b&gt;&lt;br&gt;Putative NADP-dependent oxidoreductase YfmJ&lt;br&gt;Location: 8063 - 9062" locus_tag="cds8063_9062" class="clusterblast-orf" id="dummy-1_q6_0_all"  />
<polygon points="342,35 347,30 355,30 355,40 347,40 342,35 " style="fill:white; stroke-width:1; stroke:black; " description="&lt;b&gt;cds9121_11056&lt;/b&gt;&lt;br&gt;hypothetical protein&lt;br&gt;Location: 9121 - 11056" locus_tag="cds9121_11056" class="clusterblast-orf" id="dummy-1_q7_0_all"  />
<polygon points="355,35 360,30 363,30 363,40 360,40 355,35 " style="fill:white; stroke-width:1; stroke:black; " description="&lt;b&gt;cds11052_12261&lt;/b&gt;&lt;br&gt;hypothetical protein&lt;br&gt;Location: 11052 - 12261" locus_tag="cds11052_12261" class="clusterblast-orf" id="dummy-1_q8_0_all"  />
<polygon points="363,35 368,30 369,30 369,40 368,40 363,35 " style="fill:white; stroke-width:1; stroke:black; " description="&lt;b&gt;cds12257_13217&lt;/b&gt;&lt;br&gt;hypothetical protein&lt;br&gt;Location: 12257 - 13217" locus_tag="cds12257_13217" class="clusterblast-orf" id="dummy-1_q9_0_all"  />
<polygon points="369,35 374,30 375,30 375,40 374,40 369,35 " style="fill:white; stroke-width:1; stroke:black; " description="&lt;b&gt;cds13204_14098&lt;/b&gt;&lt;br&gt;Alpha-ketoglutarate-dependent taurine dioxygenase&lt;br&gt;Location: 13204 - 14098" locus_tag="cds13204_14098" class="clusterblast-orf" id="dummy-1_q10_0_all"  />
<polygon points="376,35 381,30 384,30 384,40 381,40 376,35 " style="fill:white; stroke-width:1; stroke:black; " description="&lt;b&gt;cds14171_15392&lt;/b&gt;&lt;br&gt;5-aminolevulinate synthase&lt;br&gt;Location: 14171 - 15392" locus_tag="cds14171_15392" class="clusterblast-orf" id="dummy-1_q11_0_all"  />
<polygon points="385,35 387,30 387,40 385,35 " style="fill:#d81515; stroke-width:1; stroke:black; " description="&lt;b&gt;cds15523_15925&lt;/b&gt;&lt;br&gt;hypothetical protein&lt;br&gt;Location: 15523 - 15925" locus_tag="cds15523_15925" class="clusterblast-orf" id="dummy-1_q12_0_all"  />
<polygon points="388,40 391,35 388,30 388,40 " style="fill:#15d863; stroke-width:1; stroke:black; " description="&lt;b&gt;cds16052_16460&lt;/b&gt;&lt;br&gt;hypothetical protein&lt;br&gt;Location: 16052 - 16460" locus_tag="cds16052_16460" class="clusterblast-orf" id="dummy-1_q13_0_all"  />
<polygon points="391,35 396,30 396,30 396,40 396,40 391,35 " style="fill:white; stroke-width:1; stroke:black; " description="&lt;b&gt;cds16449_17196&lt;/b&gt;&lt;br&gt;Trans-aconitate 2-methyltransferase&lt;br&gt;Location: 16449 - 17196" locus_tag="cds16449_17196" class="clusterblast-orf" id="dummy-1_q14_0_all"  />
<polygon points="397,35 402,30 406,30 406,40 402,40 397,35 " style="fill:white; stroke-width:1; stroke:black; " description="&lt;b&gt;cds17442_18804&lt;/b&gt;&lt;br&gt;hypothetical protein&lt;br&gt;Location: 17442 - 18804" locus_tag="cds17442_18804" class="clusterblast-orf" id="dummy-1_q15_0_all"  />
<polygon points="408,40 418,40 423,35 418,30 408,30 408,40 " style="fill:white; stroke-width:1; stroke:black; " description="&lt;b&gt;cds19013_21278&lt;/b&gt;&lt;br&gt;ATP-dependent RecD-like DNA helicase&lt;br&gt;Location: 19013 - 21278" locus_tag="cds19013_21278" class="clusterblast-orf" id="dummy-1_q16_0_all"  />
<polygon points="424,40 428,40 433,35 428,30 424,30 424,40 " style="fill:white; stroke-width:1; stroke:black; " description="&lt;b&gt;cds21475_22774&lt;/b&gt;&lt;br&gt;Citrate synthase 1&lt;br&gt;Location: 21475 - 22774" locus_tag="cds21475_22774" class="clusterblast-orf" id="dummy-1_q17_0_all"  />
<polygon points="434,40 453,40 458,35 453,30 434,30 434,40 " style="fill:white; stroke-width:1; stroke:black; " description="&lt;b&gt;cds22968_26583&lt;/b&gt;&lt;br&gt;hypothetical protein&lt;br&gt;Location: 22968 - 26583" locus_tag="cds22968_26583" class="clusterblast-orf" id="dummy-1_q18_0_all"  />
<polygon points="463,35 465,30 465,40 463,35 " style="fill:white; stroke-width:1; stroke:black; " description="&lt;b&gt;cds27288_27594&lt;/b&gt;&lt;br&gt;hypothetical protein&lt;br&gt;Location: 27288 - 27594" locus_tag="cds27288_27594" class="clusterblast-orf" id="dummy-1_q19_0_all"  />
<polygon points="466,40 468,40 473,35 468,30 466,30 466,40 " style="fill:#1563d8; stroke-width:1; stroke:black; " description="&lt;b&gt;cds27818_28868&lt;/b&gt;&lt;br&gt;Alcohol dehydrogenase&lt;br&gt;Location: 27818 - 28868" locus_tag="cds27818_28868" class="clusterblast-orf" id="dummy-1_q20_0_all"  />
<polygon points="473,35 475,30 475,40 473,35 " style="fill:white; stroke-width:1; stroke:black; " description="&lt;b&gt;cds28887_29079&lt;/b&gt;&lt;br&gt;hypothetical protein&lt;br&gt;Location: 28887 - 29079" locus_tag="cds28887_29079" class="clusterblast-orf" id="dummy-1_q21_0_all"  />
<polygon points="476,35 481,30 482,30 482,40 481,40 476,35 " style="fill:white; stroke-width:1; stroke:black; " description="&lt;b&gt;cds29248_30175&lt;/b&gt;&lt;br&gt;Inosose dehydratase&lt;br&gt;Location: 29248 - 30175" locus_tag="cds29248_30175" class="clusterblast-orf" id="dummy-1_q22_0_all"  />
<polygon points="483,40 486,40 491,35 486,30 483,30 483,40 " style="fill:#b115d8; stroke-width:1; stroke:black; " description="&lt;b&gt;cds30343_31471&lt;/b&gt;&lt;br&gt;5-dehydro-2-deoxygluconokinase&lt;br&gt;Location: 30343 - 31471" locus_tag="cds30343_31471" class="clusterblast-orf" id="dummy-1_q23_0_all"  />
<polygon points="491,40 491,40 496,35 491,30 491,30 491,40 " style="fill:#b1d815; stroke-width:1; stroke:black; " description="&lt;b&gt;cds31467_32358&lt;/b&gt;&lt;br&gt;hypothetical protein&lt;br&gt;Location: 31467 - 32358" locus_tag="cds31467_32358" class="clusterblast-orf" id="dummy-1_q24_0_all"  />
</g>
<g label="BGC0001523" description="BGC0001523_c1: azalomycin F3a (8% of genes show similarity), Polyketide" class="clusterblast-cluster"  >
<text x="5" y="70" class="clusterblast-acc"  >
<a xlink:href="https://mibig.secondarymetabolites.org/go/BGC0001523/1" target="_blank">BGC0001523</a>:                                                                   azalomycin F3a (8% of genes show similarity), Polyketide</text>
<line x1="10" y1="85" x2="778.0" y2="85" style="stroke-width:1; stroke:grey; "  />
</g>
<g id="a1_000"  >
<polygon points="0,90 0,90 5,85 0,80 0,80 0,90 " style="fill:white; stroke-width:1; stroke:black; " description="&lt;b&gt;ARM20296.1&lt;/b&gt;&lt;br&gt;AraC-family transcriptional regulator&lt;br&gt;Location: 127283 - 126417" locus_tag="ARM20296.1" class="clusterblast-orf" id="dummy-1_h1_3_0"  />
</g>
<g id="a1_001"  >
<polygon points="6,85 11,80 15,80 15,90 11,90 6,85 " style="fill:white; stroke-width:1; stroke:black; " description="&lt;b&gt;ARM20295.1&lt;/b&gt;&lt;br&gt;amino acid permease&lt;br&gt;Location: 126353 - 124917" locus_tag="ARM20295.1" class="clusterblast-orf" id="dummy-1_h1_3_1"  />
</g>
<g id="a1_002"  >
<polygon points="15,85 20,80 21,80 21,90 20,90 15,85 " style="fill:white; stroke-width:1; stroke:black; " description="&lt;b&gt;ARM20294.1&lt;/b&gt;&lt;br&gt;4-guanidinobutyramide hydrolase&lt;br&gt;Location: 124923 - 124120" locus_tag="ARM20294.1" class="clusterblast-orf" id="dummy-1_h1_3_2"  />
</g>
<g id="a1_003"  >
<polygon points="21,90 22,90 27,85 22,80 21,80 21,90 " style="fill:white; stroke-width:1; stroke:black; " description="&lt;b&gt;ARM20293.1&lt;/b&gt;&lt;br&gt;GntR-family transcriptional regulator&lt;br&gt;Location: 123999 - 123199" locus_tag="ARM20293.1" class="clusterblast-orf" id="dummy-1_h1_3_3"  />
</g>
<g id="a1_004"  >
<polygon points="29,90 32,90 37,85 32,80 29,80 29,90 " style="fill:white; stroke-width:1; stroke:black; " description="&lt;b&gt;ARM20292.1&lt;/b&gt;&lt;br&gt;hypothetical protein&lt;br&gt;Location: 122900 - 121620" locus_tag="ARM20292.1" class="clusterblast-orf" id="dummy-1_h1_3_4"  />
</g>
<g id="a1_005"  >
<polygon points="38,85 43,80 44,80 44,90 43,90 38,85 " style="fill:white; stroke-width:1; stroke:black; " description="&lt;b&gt;ARM20291.1&lt;/b&gt;&lt;br&gt;cellulose-binding family II&lt;br&gt;Location: 121438 - 120650" locus_tag="ARM20291.1" class="clusterblast-orf" id="dummy-1_h1_3_5"  />
</g>
<g id="a1_006"  >
<polygon points="46,90 48,85 46,80 46,90 " style="fill:#15d863; stroke-width:1; stroke:black; " description="&lt;b&gt;ARM20290.1&lt;/b&gt;&lt;br&gt;endoribonuclease L-PSP&lt;br&gt;Location: 120329 - 119922&lt;br&gt;&lt;br&gt;&lt;b&gt;BlastP hit with cds16052_16460&lt;/b&gt;&lt;br&gt;Percentage identity: 76&lt;br&gt;Percentage coverage: 100&lt;br&gt;BLAST bit score: 208&lt;br&gt;E-value: 8.6e-54" locus_tag="ARM20290.1" class="clusterblast-orf" id="dummy-1_h1_3_6"  />
</g>
<g id="a1_007"  >
<polygon points="49,85 51,80 51,90 49,85 " style="fill:#d81515; stroke-width:1; stroke:black; " description="&lt;b&gt;ARM20289.1&lt;/b&gt;&lt;br&gt;Hxl-family transcriptional regulator&lt;br&gt;Location: 119854 - 119474&lt;br&gt;&lt;br&gt;&lt;b&gt;BlastP hit with cds15523_15925&lt;/b&gt;&lt;br&gt;Percentage identity: 77&lt;br&gt;Percentage coverage: 93&lt;br&gt;BLAST bit score: 190&lt;br&gt;E-value: 2.4e-48" locus_tag="ARM20289.1" class="clusterblast-orf" id="dummy-1_h1_3_7"  />
</g>
<g id="a1_008"  >
<polygon points="52,85 57,80 58,80 58,90 57,90 52,85 " style="fill:white; stroke-width:1; stroke:black; " description="&lt;b&gt;ARM20288.1&lt;/b&gt;&lt;br&gt;hydrolase&lt;br&gt;Location: 119407 - 118523" locus_tag="ARM20288.1" class="clusterblast-orf" id="dummy-1_h1_3_8"  />
</g>
<g id="a1_009"  >
<polygon points="58,85 62,80 62,90 58,85 " style="fill:white; stroke-width:1; stroke:black; " description="&lt;b&gt;ARM20287.1&lt;/b&gt;&lt;br&gt;TetR-family transcriptional regulator&lt;br&gt;Location: 118405 - 117797" locus_tag="ARM20287.1" class="clusterblast-orf" id="dummy-1_h1_3_9"  />
</g>
<g id="a1_0010"  >
<polygon points="63,85 68,80 70,80 70,90 68,90 63,85 " style="fill:white; stroke-width:1; stroke:black; " description="&lt;b&gt;ARM20286.1&lt;/b&gt;&lt;br&gt;4-guanidinobutyryl-CoA:ACP acyltransferase&lt;br&gt;Location: 117706 - 116672" locus_tag="ARM20286.1" class="clusterblast-orf" id="dummy-1_h1_3_10"  />
</g>
<g id="a1_0011"  >
<polygon points="70,85 75,80 79,80 79,90 75,90 70,85 " style="fill:white; stroke-width:1; stroke:black; " description="&lt;b&gt;ARM20285.1&lt;/b&gt;&lt;br&gt;4-guanidinobutanoate:CoA ligase&lt;br&gt;Location: 116675 - 115239" locus_tag="ARM20285.1" class="clusterblast-orf" id="dummy-1_h1_3_11"  />
</g>
<g id="a1_0012"  >
<polygon points="80,85 85,80 126,80 126,90 85,90 80,85 " style="fill:white; stroke-width:1; stroke:black; " description="&lt;b&gt;ARM20284.1&lt;/b&gt;&lt;br&gt;polyketide synthase&lt;br&gt;Location: 115108 - 108209" locus_tag="ARM20284.1" class="clusterblast-orf" id="dummy-1_h1_3_12"  />
</g>
<g id="a1_0013"  >
<polygon points="127,85 132,80 169,80 169,90 132,90 127,85 " style="fill:white; stroke-width:1; stroke:black; " description="&lt;b&gt;ARM20283.1&lt;/b&gt;&lt;br&gt;polyketide synthase&lt;br&gt;Location: 108094 - 101756" locus_tag="ARM20283.1" class="clusterblast-orf" id="dummy-1_h1_3_13"  />
</g>
<g id="a1_0014"  >
<polygon points="169,85 174,80 238,80 238,90 174,90 169,85 " style="fill:white; stroke-width:1; stroke:black; " description="&lt;b&gt;ARM20282.1&lt;/b&gt;&lt;br&gt;polyketide synthase&lt;br&gt;Location: 101703 - 91333" locus_tag="ARM20282.1" class="clusterblast-orf" id="dummy-1_h1_3_14"  />
</g>
<g id="a1_0015"  >
<polygon points="239,85 244,80 302,80 302,90 244,90 239,85 " style="fill:white; stroke-width:1; stroke:black; " description="&lt;b&gt;ARM20281.1&lt;/b&gt;&lt;br&gt;polyketide synthase&lt;br&gt;Location: 91290 - 81679" locus_tag="ARM20281.1" class="clusterblast-orf" id="dummy-1_h1_3_15"  />
</g>
<g id="a1_0016"  >
<polygon points="303,85 308,80 467,80 467,90 308,90 303,85 " style="fill:white; stroke-width:1; stroke:black; " description="&lt;b&gt;ARM20280.1&lt;/b&gt;&lt;br&gt;polyketide synthase&lt;br&gt;Location: 81633 - 56839" locus_tag="ARM20280.1" class="clusterblast-orf" id="dummy-1_h1_3_16"  />
</g>
<g id="a1_0017"  >
<polygon points="468,85 473,80 563,80 563,90 473,90 468,85 " style="fill:white; stroke-width:1; stroke:black; " description="&lt;b&gt;ARM20279.1&lt;/b&gt;&lt;br&gt;polyketide synthase&lt;br&gt;Location: 56761 - 42419" locus_tag="ARM20279.1" class="clusterblast-orf" id="dummy-1_h1_3_17"  />
</g>
<g id="a1_0018"  >
<polygon points="563,85 568,80 630,80 630,90 568,90 563,85 " style="fill:white; stroke-width:1; stroke:black; " description="&lt;b&gt;ARM20278.1&lt;/b&gt;&lt;br&gt;polyketide synthase&lt;br&gt;Location: 42459 - 32356" locus_tag="ARM20278.1" class="clusterblast-orf" id="dummy-1_h1_3_18"  />
</g>
<g id="a1_0019"  >
<polygon points="630,85 635,80 734,80 734,90 635,90 630,85 " style="fill:white; stroke-width:1; stroke:black; " description="&lt;b&gt;ARM20277.1&lt;/b&gt;&lt;br&gt;polyketide synthase&lt;br&gt;Location: 32273 - 16698" locus_tag="ARM20277.1" class="clusterblast-orf" id="dummy-1_h1_3_19"  />
</g>
<g id="a1_0020"  >
<polygon points="736,85 737,80 737,90 736,85 " style="fill:white; stroke-width:1; stroke:black; " description="&lt;b&gt;ARM20276.1&lt;/b&gt;&lt;br&gt;ferredoxin&lt;br&gt;Location: 16446 - 16240" locus_tag="ARM20276.1" class="clusterblast-orf" id="dummy-1_h1_3_20"  />
</g>
<g id="a1_0021"  >
<polygon points="738,85 743,80 746,80 746,90 743,90 738,85 " style="fill:white; stroke-width:1; stroke:black; " description="&lt;b&gt;ARM20275.1&lt;/b&gt;&lt;br&gt;cytochrome P450&lt;br&gt;Location: 16110 - 14935" locus_tag="ARM20275.1" class="clusterblast-orf" id="dummy-1_h1_3_21"  />
</g>
<g id="a1_0022"  >
<polygon points="748,90 775,90 780,85 775,80 748,80 748,90 " style="fill:white; stroke-width:1; stroke:black; " description="&lt;b&gt;ARM20274.1&lt;/b&gt;&lt;br&gt;membrane protein&lt;br&gt;Location: 14578 - 9830" locus_tag="ARM20274.1" class="clusterblast-orf" id="dummy-1_h1_3_22"  />
</g>
</svg>
