<svg xmlns="http://www.w3.org/2000/svg" xmlns:xlink="http://www.w3.org/1999/xlink" version="1.1" x="0" y="0" height="230" width="800" viewBox="0 0 800 230" preserveAspectRatio="none"  >
<g label="Query sequence" class="clusterblast-cluster"  >
<text x="5" y="20" class="clusterblast-acc"  >
Query sequence</text>
<line x1="10" y1="35" x2="778.0" y2="35" style="stroke-width:1; stroke:grey; "  />
<polygon points="113,40 115,40 120,35 115,30 113,30 113,40 " style="fill:#d81515; stroke-width:1; stroke:black; " description="&lt;b&gt;cds18113_18665&lt;/b&gt;&lt;br&gt;hypothetical protein&lt;br&gt;Location: 18113 - 18665" locus_tag="cds18113_18665" class="clusterblast-orf" id="dummy-1_q0_0_all"  />
<polygon points="121,40 128,40 133,35 128,30 121,30 121,40 " style="fill:#5cd815; stroke-width:1; stroke:black; " description="&lt;b&gt;cds18714_19635&lt;/b&gt;&lt;br&gt;hypothetical protein&lt;br&gt;Location: 18714 - 19635" locus_tag="cds18714_19635" class="clusterblast-orf" id="dummy-1_q1_0_all"  />
<polygon points="134,35 139,30 153,30 153,40 139,40 134,35 " style="fill:white; stroke-width:1; stroke:black; " description="&lt;b&gt;cds19700_21182&lt;/b&gt;&lt;br&gt;Spore coat protein A&lt;br&gt;Location: 19700 - 21182" locus_tag="cds19700_21182" class="clusterblast-orf" id="dummy-1_q2_0_all"  />
<polygon points="156,40 162,40 167,35 162,30 156,30 156,40 " style="fill:white; stroke-width:1; stroke:black; " description="&lt;b&gt;cds21412_22282&lt;/b&gt;&lt;br&gt;27-O-demethylrifamycin SV methyltransferase&lt;br&gt;Location: 21412 - 22282" locus_tag="cds21412_22282" class="clusterblast-orf" id="dummy-1_q3_0_all"  />
<polygon points="168,40 178,40 183,35 178,30 168,30 168,40 " style="fill:white; stroke-width:1; stroke:black; " description="&lt;b&gt;cds22348_23494&lt;/b&gt;&lt;br&gt;hypothetical protein&lt;br&gt;Location: 22348 - 23494" locus_tag="cds22348_23494" class="clusterblast-orf" id="dummy-1_q4_0_all"  />
<polygon points="184,35 189,30 202,30 202,40 189,40 184,35 " style="fill:white; stroke-width:1; stroke:black; " description="&lt;b&gt;cds23567_24962&lt;/b&gt;&lt;br&gt;Mitomycin radical oxidase&lt;br&gt;Location: 23567 - 24962" locus_tag="cds23567_24962" class="clusterblast-orf" id="dummy-1_q5_0_all"  />
<polygon points="202,35 207,30 223,30 223,40 207,40 202,35 " style="fill:#15a3d8; stroke-width:1; stroke:black; " description="&lt;b&gt;cds24958_26524&lt;/b&gt;&lt;br&gt;2-methoxy-6-polyprenyl-1,4-benzoquinol methylase, mitochondrial&lt;br&gt;Location: 24958 - 26524" locus_tag="cds24958_26524" class="clusterblast-orf" id="dummy-1_q6_0_all"  />
<polygon points="226,35 230,30 230,40 226,35 " style="fill:white; stroke-width:1; stroke:black; " description="&lt;b&gt;cds26746_27082&lt;/b&gt;&lt;br&gt;hypothetical protein&lt;br&gt;Location: 26746 - 27082" locus_tag="cds26746_27082" class="clusterblast-orf" id="dummy-1_q7_0_all"  />
<polygon points="231,35 236,30 261,30 261,40 236,40 231,35 " style="fill:white; stroke-width:1; stroke:black; " description="&lt;b&gt;cds27150_29475&lt;/b&gt;&lt;br&gt;Periplasmic nitrate reductase&lt;br&gt;Location: 27150 - 29475" locus_tag="cds27150_29475" class="clusterblast-orf" id="dummy-1_q8_0_all"  />
<polygon points="263,40 269,40 274,35 269,30 263,30 263,40 " style="fill:white; stroke-width:1; stroke:black; " description="&lt;b&gt;cds29596_30424&lt;/b&gt;&lt;br&gt;Levodione reductase&lt;br&gt;Location: 29596 - 30424" locus_tag="cds29596_30424" class="clusterblast-orf" id="dummy-1_q9_0_all"  />
<polygon points="274,40 281,40 286,35 281,30 274,30 274,40 " style="fill:white; stroke-width:1; stroke:black; " description="&lt;b&gt;cds30472_31354&lt;/b&gt;&lt;br&gt;F420-dependent glucose-6-phosphate dehydrogenase&lt;br&gt;Location: 30472 - 31354" locus_tag="cds30472_31354" class="clusterblast-orf" id="dummy-1_q10_0_all"  />
<polygon points="288,35 293,30 308,30 308,40 293,40 288,35 " style="fill:#9115d8; stroke-width:1; stroke:black; " description="&lt;b&gt;cds31534_33049&lt;/b&gt;&lt;br&gt;Aclacinomycin-N/aclacinomycin-A oxidase&lt;br&gt;Location: 31534 - 33049" locus_tag="cds31534_33049" class="clusterblast-orf" id="dummy-1_q11_0_all"  />
<polygon points="310,35 315,30 329,30 329,40 315,40 310,35 " style="fill:#d84a15; stroke-width:1; stroke:black; " description="&lt;b&gt;cds33232_34657&lt;/b&gt;&lt;br&gt;sn-glycerol-3-phosphate-binding periplasmic protein UgpB&lt;br&gt;Location: 33232 - 34657" locus_tag="cds33232_34657" class="clusterblast-orf" id="dummy-1_q12_0_all"  />
<polygon points="333,40 344,40 349,35 344,30 333,30 333,40 " style="fill:#27d815; stroke-width:1; stroke:black; " description="&lt;b&gt;cds34927_36169&lt;/b&gt;&lt;br&gt;Flavin-dependent monooxygenase, oxygenase subunit HsaA&lt;br&gt;Location: 34927 - 36169" locus_tag="cds34927_36169" class="clusterblast-orf" id="dummy-1_q13_0_all"  />
<polygon points="350,40 364,40 369,35 364,30 350,30 350,40 " style="fill:#156ed8; stroke-width:1; stroke:black; " description="&lt;b&gt;cds36277_37717&lt;/b&gt;&lt;br&gt;hypothetical protein&lt;br&gt;Location: 36277 - 37717" locus_tag="cds36277_37717" class="clusterblast-orf" id="dummy-1_q14_0_all"  />
<polygon points="369,40 401,40 406,35 401,30 369,30 369,40 " style="fill:white; stroke-width:1; stroke:black; " description="&lt;b&gt;cds37748_40562&lt;/b&gt;&lt;br&gt;Dimodular nonribosomal peptide synthase&lt;br&gt;Location: 37748 - 40562" locus_tag="cds37748_40562" class="clusterblast-orf" id="dummy-1_q15_0_all"  />
<polygon points="407,40 423,40 428,35 423,30 407,30 407,40 " style="fill:#c715d8; stroke-width:1; stroke:black; " description="&lt;b&gt;cds40635_42261&lt;/b&gt;&lt;br&gt;MIO-dependent tyrosine 2,3-aminomutase&lt;br&gt;Location: 40635 - 42261" locus_tag="cds40635_42261" class="clusterblast-orf" id="dummy-1_q16_0_all"  />
<polygon points="430,40 442,40 447,35 442,30 430,30 430,40 " style="fill:#d88015; stroke-width:1; stroke:black; " description="&lt;b&gt;cds42368_43712&lt;/b&gt;&lt;br&gt;Linear gramicidin synthase subunit B&lt;br&gt;Location: 42368 - 43712" locus_tag="cds42368_43712" class="clusterblast-orf" id="dummy-1_q17_0_all"  />
<polygon points="448,35 453,30 469,30 469,40 453,40 448,35 " style="fill:#15d839; stroke-width:1; stroke:black; " description="&lt;b&gt;cds43769_45353&lt;/b&gt;&lt;br&gt;4-nitrophenol 2-monooxygenase, oxygenase component&lt;br&gt;Location: 43769 - 45353" locus_tag="cds43769_45353" class="clusterblast-orf" id="dummy-1_q18_0_all"  />
<polygon points="472,40 483,40 488,35 483,30 472,30 472,40 " style="fill:#1539d8; stroke-width:1; stroke:black; " description="&lt;b&gt;cds45596_46781&lt;/b&gt;&lt;br&gt;Flavin-dependent monooxygenase, oxygenase subunit HsaA&lt;br&gt;Location: 45596 - 46781" locus_tag="cds45596_46781" class="clusterblast-orf" id="dummy-1_q19_0_all"  />
<polygon points="488,40 489,40 494,35 489,30 488,30 488,40 " style="fill:#d815b5; stroke-width:1; stroke:black; " description="&lt;b&gt;cds46844_47279&lt;/b&gt;&lt;br&gt;hypothetical protein&lt;br&gt;Location: 46844 - 47279" locus_tag="cds46844_47279" class="clusterblast-orf" id="dummy-1_q20_0_all"  />
<polygon points="495,35 500,30 511,30 511,40 500,40 495,35 " style="fill:#d8b515; stroke-width:1; stroke:black; " description="&lt;b&gt;cds47364_48612&lt;/b&gt;&lt;br&gt;2-hydroxy-5-methyl-1-naphthoate 7-hydroxylase&lt;br&gt;Location: 47364 - 48612" locus_tag="cds47364_48612" class="clusterblast-orf" id="dummy-1_q21_0_all"  />
<polygon points="513,35 518,30 524,30 524,40 518,40 513,35 " style="fill:white; stroke-width:1; stroke:black; " description="&lt;b&gt;cds48705_49569&lt;/b&gt;&lt;br&gt;hypothetical protein&lt;br&gt;Location: 48705 - 49569" locus_tag="cds48705_49569" class="clusterblast-orf" id="dummy-1_q22_0_all"  />
<polygon points="525,35 528,30 528,40 525,35 " style="fill:#15d86e; stroke-width:1; stroke:black; " description="&lt;b&gt;cds49631_49904&lt;/b&gt;&lt;br&gt;hypothetical protein&lt;br&gt;Location: 49631 - 49904" locus_tag="cds49631_49904" class="clusterblast-orf" id="dummy-1_q23_0_all"  />
<polygon points="530,35 535,30 541,30 541,40 535,40 530,35 " style="fill:#2715d8; stroke-width:1; stroke:black; " description="&lt;b&gt;cds50037_50910&lt;/b&gt;&lt;br&gt;Glucose-1-phosphate thymidylyltransferase 1&lt;br&gt;Location: 50037 - 50910" locus_tag="cds50037_50910" class="clusterblast-orf" id="dummy-1_q24_0_all"  />
<polygon points="542,35 547,30 558,30 558,40 547,40 542,35 " style="fill:#d81580; stroke-width:1; stroke:black; " description="&lt;b&gt;cds50964_52185&lt;/b&gt;&lt;br&gt;hypothetical protein&lt;br&gt;Location: 50964 - 52185" locus_tag="cds50964_52185" class="clusterblast-orf" id="dummy-1_q25_0_all"  />
<polygon points="560,35 565,30 576,30 576,40 565,40 560,35 " style="fill:#c7d815; stroke-width:1; stroke:black; " description="&lt;b&gt;cds52342_53581&lt;/b&gt;&lt;br&gt;hypothetical protein&lt;br&gt;Location: 52342 - 53581" locus_tag="cds52342_53581" class="clusterblast-orf" id="dummy-1_q26_0_all"  />
<polygon points="577,35 582,30 594,30 594,40 582,40 577,35 " style="fill:#15d8a3; stroke-width:1; stroke:black; " description="&lt;b&gt;cds53600_54893&lt;/b&gt;&lt;br&gt;Aclacinomycin-T 2-deoxy-L-fucose transferase&lt;br&gt;Location: 53600 - 54893" locus_tag="cds53600_54893" class="clusterblast-orf" id="dummy-1_q27_0_all"  />
<polygon points="594,35 599,30 609,30 609,40 599,40 594,35 " style="fill:#5c15d8; stroke-width:1; stroke:black; " description="&lt;b&gt;cds54963_56073&lt;/b&gt;&lt;br&gt;dTDP-3-amino-3,4,6-trideoxy-alpha-D-glucose transaminase&lt;br&gt;Location: 54963 - 56073" locus_tag="cds54963_56073" class="clusterblast-orf" id="dummy-1_q28_0_all"  />
<polygon points="612,35 617,30 630,30 630,40 617,40 612,35 " style="fill:#d8154a; stroke-width:1; stroke:black; " description="&lt;b&gt;cds56275_57670&lt;/b&gt;&lt;br&gt;dTDP-4-dehydro-6-deoxy-alpha-D-glucopyranose 2,3-dehydratase&lt;br&gt;Location: 56275 - 57670" locus_tag="cds56275_57670" class="clusterblast-orf" id="dummy-1_q29_0_all"  />
<polygon points="634,40 642,40 647,35 642,30 634,30 634,40 " style="fill:#91d815; stroke-width:1; stroke:black; " description="&lt;b&gt;cds57984_58992&lt;/b&gt;&lt;br&gt;dTDP-glucose 4,6-dehydratase&lt;br&gt;Location: 57984 - 58992" locus_tag="cds57984_58992" class="clusterblast-orf" id="dummy-1_q30_0_all"  />
<polygon points="648,35 653,30 666,30 666,40 653,40 648,35 " style="fill:#15d8d8; stroke-width:1; stroke:black; " description="&lt;b&gt;cds59038_60466&lt;/b&gt;&lt;br&gt;UDP-N-acetyl-D-glucosamine 6-dehydrogenase&lt;br&gt;Location: 59038 - 60466" locus_tag="cds59038_60466" class="clusterblast-orf" id="dummy-1_q31_0_all"  />
</g>
<g label="BGC0000150" description="BGC0000150_c1: sporolide A / sporolide B (17% of genes show similarity), NRP + Polyketide:Enediyne type I" class="clusterblast-cluster"  >
<text x="5" y="70" class="clusterblast-acc"  >
<a xlink:href="https://mibig.secondarymetabolites.org/go/BGC0000150/1" target="_blank">BGC0000150</a>:                                                        sporolide A / sporolide B (17% of genes show similarity), NRP + Polyketide:Enediyne type I</text>
<line x1="10" y1="85" x2="778.0" y2="85" style="stroke-width:1; stroke:grey; "  />
</g>
<g id="a1_000"  >
<polygon points="0,85 4,80 4,90 0,85 " style="fill:white; stroke-width:1; stroke:black; " description="&lt;b&gt;Strop_2691&lt;/b&gt;&lt;br&gt;hypothetical protein&lt;br&gt;Location: 1 - 330" locus_tag="Strop_2691" class="clusterblast-orf" id="dummy-1_h1_6_0"  />
</g>
<g id="a1_001"  >
<polygon points="5,85 10,80 13,80 13,90 10,90 5,85 " style="fill:white; stroke-width:1; stroke:black; " description="&lt;b&gt;Strop_2692&lt;/b&gt;&lt;br&gt;transcriptional regulator&lt;br&gt;Location: 434 - 1066" locus_tag="Strop_2692" class="clusterblast-orf" id="dummy-1_h1_6_1"  />
</g>
<g id="a1_002"  >
<polygon points="20,90 25,90 30,85 25,80 20,80 20,90 " style="fill:white; stroke-width:1; stroke:black; " description="&lt;b&gt;Strop_2693&lt;/b&gt;&lt;br&gt;transcriptional regulator, AraC family&lt;br&gt;Location: 1558 - 2343" locus_tag="Strop_2693" class="clusterblast-orf" id="dummy-1_h1_6_2"  />
</g>
<g id="a1_003"  >
<polygon points="32,85 37,80 50,80 50,90 37,90 32,85 " style="fill:white; stroke-width:1; stroke:black; " description="&lt;b&gt;Strop_2694&lt;/b&gt;&lt;br&gt;cytochrome P450&lt;br&gt;Location: 2515 - 3873" locus_tag="Strop_2694" class="clusterblast-orf" id="dummy-1_h1_6_3"  />
</g>
<g id="a1_004"  >
<polygon points="50,85 55,80 57,80 57,90 55,90 50,85 " style="fill:white; stroke-width:1; stroke:black; " description="&lt;b&gt;Strop_2695&lt;/b&gt;&lt;br&gt;flavin reductase domain protein, FMN-binding&lt;br&gt;Location: 3870 - 4406" locus_tag="Strop_2695" class="clusterblast-orf" id="dummy-1_h1_6_4"  />
</g>
<g id="a1_005"  >
<polygon points="57,85 62,80 63,80 63,90 62,90 57,85 " style="fill:white; stroke-width:1; stroke:black; " description="&lt;b&gt;Strop_2696&lt;/b&gt;&lt;br&gt;hypothetical protein&lt;br&gt;Location: 4406 - 4870" locus_tag="Strop_2696" class="clusterblast-orf" id="dummy-1_h1_6_5"  />
</g>
<g id="a1_006"  >
<polygon points="63,85 68,80 139,80 139,90 68,90 63,85 " style="fill:white; stroke-width:1; stroke:black; " description="&lt;b&gt;Strop_2697&lt;/b&gt;&lt;br&gt;beta-ketoacyl synthase&lt;br&gt;Location: 4876 - 10647" locus_tag="Strop_2697" class="clusterblast-orf" id="dummy-1_h1_6_6"  />
</g>
<g id="a1_007"  >
<polygon points="139,85 144,80 151,80 151,90 144,90 139,85 " style="fill:white; stroke-width:1; stroke:black; " description="&lt;b&gt;Strop_2698&lt;/b&gt;&lt;br&gt;hypothetical protein&lt;br&gt;Location: 10644 - 11630" locus_tag="Strop_2698" class="clusterblast-orf" id="dummy-1_h1_6_7"  />
</g>
<g id="a1_008"  >
<polygon points="152,85 157,80 177,80 177,90 157,90 152,85 " style="fill:white; stroke-width:1; stroke:black; " description="&lt;b&gt;Strop_2699&lt;/b&gt;&lt;br&gt;ASPIC/UnbV domain protein&lt;br&gt;Location: 11636 - 13603" locus_tag="Strop_2699" class="clusterblast-orf" id="dummy-1_h1_6_8"  />
</g>
<g id="a1_009"  >
<polygon points="177,85 182,80 190,80 190,90 182,90 177,85 " style="fill:white; stroke-width:1; stroke:black; " description="&lt;b&gt;Strop_2700&lt;/b&gt;&lt;br&gt;protein of unknown function DUF1702&lt;br&gt;Location: 13607 - 14605" locus_tag="Strop_2700" class="clusterblast-orf" id="dummy-1_h1_6_9"  />
</g>
<g id="a1_0010"  >
<polygon points="193,85 198,80 205,80 205,90 198,90 193,85 " style="fill:white; stroke-width:1; stroke:black; " description="&lt;b&gt;Strop_2701&lt;/b&gt;&lt;br&gt;protein of unknown function DUF1702&lt;br&gt;Location: 14788 - 15765" locus_tag="Strop_2701" class="clusterblast-orf" id="dummy-1_h1_6_10"  />
</g>
<g id="a1_0011"  >
<polygon points="209,90 218,90 223,85 218,80 209,80 209,90 " style="fill:white; stroke-width:1; stroke:black; " description="&lt;b&gt;Strop_2702&lt;/b&gt;&lt;br&gt;NAD-dependent epimerase/dehydratase&lt;br&gt;Location: 16054 - 17118" locus_tag="Strop_2702" class="clusterblast-orf" id="dummy-1_h1_6_11"  />
</g>
<g id="a1_0012"  >
<polygon points="222,85 227,80 236,80 236,90 227,90 222,85 " style="fill:white; stroke-width:1; stroke:black; " description="&lt;b&gt;Strop_2703&lt;/b&gt;&lt;br&gt;alkylhydroperoxidase like protein, AhpD family&lt;br&gt;Location: 17042 - 18124" locus_tag="Strop_2703" class="clusterblast-orf" id="dummy-1_h1_6_12"  />
</g>
<g id="a1_0013"  >
<polygon points="237,85 242,80 259,80 259,90 242,90 237,85 " style="fill:white; stroke-width:1; stroke:black; " description="&lt;b&gt;Strop_2704&lt;/b&gt;&lt;br&gt;glucose-methanol-choline oxidoreductase&lt;br&gt;Location: 18207 - 19859" locus_tag="Strop_2704" class="clusterblast-orf" id="dummy-1_h1_6_13"  />
</g>
<g id="a1_0014"  >
<polygon points="259,85 264,80 266,80 266,90 264,90 259,85 " style="fill:white; stroke-width:1; stroke:black; " description="&lt;b&gt;Strop_2705&lt;/b&gt;&lt;br&gt;hypothetical protein&lt;br&gt;Location: 19856 - 20419" locus_tag="Strop_2705" class="clusterblast-orf" id="dummy-1_h1_6_14"  />
</g>
<g id="a1_0015"  >
<polygon points="272,90 279,90 284,85 279,80 272,80 272,90 " style="fill:white; stroke-width:1; stroke:black; " description="&lt;b&gt;Strop_2706&lt;/b&gt;&lt;br&gt;Wyosine base formation&lt;br&gt;Location: 20845 - 21765" locus_tag="Strop_2706" class="clusterblast-orf" id="dummy-1_h1_6_15"  />
</g>
<g id="a1_0016"  >
<polygon points="286,90 289,90 294,85 289,80 286,80 286,90 " style="fill:white; stroke-width:1; stroke:black; " description="&lt;b&gt;Strop_2707&lt;/b&gt;&lt;br&gt;hypothetical protein&lt;br&gt;Location: 21914 - 22525" locus_tag="Strop_2707" class="clusterblast-orf" id="dummy-1_h1_6_16"  />
</g>
<g id="a1_0017"  >
<polygon points="298,90 309,90 314,85 309,80 298,80 298,90 " style="fill:#1539d8; stroke-width:1; stroke:black; " description="&lt;b&gt;Strop_2708&lt;/b&gt;&lt;br&gt;Acyl-CoA dehydrogenase, type 2, C-terminal domain&lt;br&gt;Location: 22862 - 24034&lt;br&gt;&lt;br&gt;&lt;b&gt;BlastP hit with cds45596_46781&lt;/b&gt;&lt;br&gt;Percentage identity: 58&lt;br&gt;Percentage coverage: 99&lt;br&gt;BLAST bit score: 467&lt;br&gt;E-value: 3e-131" locus_tag="Strop_2708" class="clusterblast-orf" id="dummy-1_h1_6_17"  />
</g>
<g id="a1_0018"  >
<polygon points="316,90 316,90 321,85 316,80 316,80 316,90 " style="fill:#d815b5; stroke-width:1; stroke:black; " description="&lt;b&gt;Strop_2709&lt;/b&gt;&lt;br&gt;hypothetical protein&lt;br&gt;Location: 24193 - 24612&lt;br&gt;&lt;br&gt;&lt;b&gt;BlastP hit with cds46844_47279&lt;/b&gt;&lt;br&gt;Percentage identity: 57&lt;br&gt;Percentage coverage: 88&lt;br&gt;BLAST bit score: 152&lt;br&gt;E-value: 6e-37" locus_tag="Strop_2709" class="clusterblast-orf" id="dummy-1_h1_6_18"  />
</g>
<g id="a1_0019"  >
<polygon points="321,90 334,90 339,85 334,80 321,80 321,90 " style="fill:#156ed8; stroke-width:1; stroke:black; " description="&lt;b&gt;Strop_2710&lt;/b&gt;&lt;br&gt;monooxygenase, FAD-binding&lt;br&gt;Location: 24642 - 26021&lt;br&gt;&lt;br&gt;&lt;b&gt;BlastP hit with cds36277_37717&lt;/b&gt;&lt;br&gt;Percentage identity: 54&lt;br&gt;Percentage coverage: 92&lt;br&gt;BLAST bit score: 481&lt;br&gt;E-value: 1.4e-135" locus_tag="Strop_2710" class="clusterblast-orf" id="dummy-1_h1_6_19"  />
</g>
<g id="a1_0020"  >
<polygon points="340,90 350,90 355,85 350,80 340,80 340,90 " style="fill:white; stroke-width:1; stroke:black; " description="&lt;b&gt;Strop_2711&lt;/b&gt;&lt;br&gt;Epoxide hydrolase domain protein&lt;br&gt;Location: 26036 - 27193" locus_tag="Strop_2711" class="clusterblast-orf" id="dummy-1_h1_6_20"  />
</g>
<g id="a1_0021"  >
<polygon points="357,90 368,90 373,85 368,80 357,80 357,90 " style="fill:white; stroke-width:1; stroke:black; " description="&lt;b&gt;Strop_2712&lt;/b&gt;&lt;br&gt;luciferase family protein&lt;br&gt;Location: 27394 - 28560" locus_tag="Strop_2712" class="clusterblast-orf" id="dummy-1_h1_6_21"  />
</g>
<g id="a1_0022"  >
<polygon points="374,90 389,90 394,85 389,80 374,80 374,90 " style="fill:#15d839; stroke-width:1; stroke:black; " description="&lt;b&gt;Strop_2713&lt;/b&gt;&lt;br&gt;4-hydroxyphenylacetate 3-hydroxylase&lt;br&gt;Location: 28640 - 30190&lt;br&gt;&lt;br&gt;&lt;b&gt;BlastP hit with cds43769_45353&lt;/b&gt;&lt;br&gt;Percentage identity: 79&lt;br&gt;Percentage coverage: 97&lt;br&gt;BLAST bit score: 883&lt;br&gt;E-value: 1.4e-256" locus_tag="Strop_2713" class="clusterblast-orf" id="dummy-1_h1_6_22"  />
</g>
<g id="a1_0023"  >
<polygon points="396,85 401,80 413,80 413,90 401,90 396,85 " style="fill:white; stroke-width:1; stroke:black; " description="&lt;b&gt;Strop_2714&lt;/b&gt;&lt;br&gt;Sigma-70, region 4 type 2&lt;br&gt;Location: 30307 - 31617" locus_tag="Strop_2714" class="clusterblast-orf" id="dummy-1_h1_6_23"  />
</g>
<g id="a1_0024"  >
<polygon points="413,85 418,80 418,80 418,90 418,90 413,85 " style="fill:white; stroke-width:1; stroke:black; " description="&lt;b&gt;Strop_2715&lt;/b&gt;&lt;br&gt;DGPFAETKE family protein&lt;br&gt;Location: 31614 - 31994" locus_tag="Strop_2715" class="clusterblast-orf" id="dummy-1_h1_6_24"  />
</g>
<g id="a1_0025"  >
<polygon points="427,90 431,85 427,80 427,90 " style="fill:white; stroke-width:1; stroke:black; " description="&lt;b&gt;Strop_2716&lt;/b&gt;&lt;br&gt;hypothetical protein&lt;br&gt;Location: 32749 - 33039" locus_tag="Strop_2716" class="clusterblast-orf" id="dummy-1_h1_6_25"  />
</g>
<g id="a1_0026"  >
<polygon points="431,90 438,90 443,85 438,80 431,80 431,90 " style="fill:white; stroke-width:1; stroke:black; " description="&lt;b&gt;Strop_2717&lt;/b&gt;&lt;br&gt;hypothetical protein&lt;br&gt;Location: 33040 - 33963" locus_tag="Strop_2717" class="clusterblast-orf" id="dummy-1_h1_6_26"  />
</g>
<g id="a1_0027"  >
<polygon points="449,85 454,80 470,80 470,90 454,90 449,85 " style="fill:white; stroke-width:1; stroke:black; " description="&lt;b&gt;Strop_2718&lt;/b&gt;&lt;br&gt;major facilitator superfamily MFS 1&lt;br&gt;Location: 34438 - 36024" locus_tag="Strop_2718" class="clusterblast-orf" id="dummy-1_h1_6_27"  />
</g>
<g id="a1_0028"  >
<polygon points="476,90 476,90 481,85 476,80 476,80 476,90 " style="fill:white; stroke-width:1; stroke:black; " description="&lt;b&gt;Strop_2719&lt;/b&gt;&lt;br&gt;DGPFAETKE family protein&lt;br&gt;Location: 36472 - 36831" locus_tag="Strop_2719" class="clusterblast-orf" id="dummy-1_h1_6_28"  />
</g>
<g id="a1_0029"  >
<polygon points="483,85 488,80 499,80 499,90 488,90 483,85 " style="fill:#27d815; stroke-width:1; stroke:black; " description="&lt;b&gt;Strop_2720&lt;/b&gt;&lt;br&gt;Acyl-CoA dehydrogenase, type 2, C-terminal domain&lt;br&gt;Location: 37011 - 38255&lt;br&gt;&lt;br&gt;&lt;b&gt;BlastP hit with cds34927_36169&lt;/b&gt;&lt;br&gt;Percentage identity: 65&lt;br&gt;Percentage coverage: 99&lt;br&gt;BLAST bit score: 570&lt;br&gt;E-value: 2e-162" locus_tag="Strop_2720" class="clusterblast-orf" id="dummy-1_h1_6_29"  />
</g>
<g id="a1_0030"  >
<polygon points="502,90 514,90 519,85 514,80 502,80 502,90 " style="fill:white; stroke-width:1; stroke:black; " description="&lt;b&gt;Strop_2721&lt;/b&gt;&lt;br&gt;condensation domain protein&lt;br&gt;Location: 38443 - 39774" locus_tag="Strop_2721" class="clusterblast-orf" id="dummy-1_h1_6_30"  />
</g>
<g id="a1_0031"  >
<polygon points="521,85 526,80 538,80 538,90 526,90 521,85 " style="fill:#d84a15; stroke-width:1; stroke:black; " description="&lt;b&gt;Strop_2722&lt;/b&gt;&lt;br&gt;hypothetical protein&lt;br&gt;Location: 39879 - 41219&lt;br&gt;&lt;br&gt;&lt;b&gt;BlastP hit with cds33232_34657&lt;/b&gt;&lt;br&gt;Percentage identity: 51&lt;br&gt;Percentage coverage: 91&lt;br&gt;BLAST bit score: 423&lt;br&gt;E-value: 4.6e-118" locus_tag="Strop_2722" class="clusterblast-orf" id="dummy-1_h1_6_31"  />
</g>
<g id="a1_0032"  >
<polygon points="538,85 543,80 552,80 552,90 543,90 538,85 " style="fill:white; stroke-width:1; stroke:black; " description="&lt;b&gt;Strop_2723&lt;/b&gt;&lt;br&gt;Alcohol dehydrogenase GroES domain protein&lt;br&gt;Location: 41232 - 42248" locus_tag="Strop_2723" class="clusterblast-orf" id="dummy-1_h1_6_32"  />
</g>
<g id="a1_0033"  >
<polygon points="551,85 556,80 568,80 568,90 556,90 551,85 " style="fill:#d8b515; stroke-width:1; stroke:black; " description="&lt;b&gt;Strop_2724&lt;/b&gt;&lt;br&gt;cytochrome P450&lt;br&gt;Location: 42245 - 43474&lt;br&gt;&lt;br&gt;&lt;b&gt;BlastP hit with cds47364_48612&lt;/b&gt;&lt;br&gt;Percentage identity: 51&lt;br&gt;Percentage coverage: 98&lt;br&gt;BLAST bit score: 432&lt;br&gt;E-value: 8.7e-121" locus_tag="Strop_2724" class="clusterblast-orf" id="dummy-1_h1_6_33"  />
</g>
<g id="a1_0034"  >
<polygon points="573,90 591,90 596,85 591,80 573,80 573,90 " style="fill:white; stroke-width:1; stroke:black; " description="&lt;b&gt;Strop_2725&lt;/b&gt;&lt;br&gt;amino acid adenylation domain&lt;br&gt;Location: 43884 - 45650" locus_tag="Strop_2725" class="clusterblast-orf" id="dummy-1_h1_6_34"  />
</g>
<g id="a1_0035"  >
<polygon points="596,90 599,85 596,80 596,90 " style="fill:white; stroke-width:1; stroke:black; " description="&lt;b&gt;Strop_2726&lt;/b&gt;&lt;br&gt;MbtH domain protein&lt;br&gt;Location: 45647 - 45856" locus_tag="Strop_2726" class="clusterblast-orf" id="dummy-1_h1_6_35"  />
</g>
<g id="a1_0036"  >
<polygon points="599,90 608,90 613,85 608,80 599,80 599,90 " style="fill:white; stroke-width:1; stroke:black; " description="&lt;b&gt;Strop_2727&lt;/b&gt;&lt;br&gt;4-hydroxyphenylpyruvate dioxygenase&lt;br&gt;Location: 45884 - 46960" locus_tag="Strop_2727" class="clusterblast-orf" id="dummy-1_h1_6_36"  />
</g>
<g id="a1_0037"  >
<polygon points="613,90 620,90 625,85 620,80 613,80 613,90 " style="fill:white; stroke-width:1; stroke:black; " description="&lt;b&gt;Strop_2728&lt;/b&gt;&lt;br&gt;hypothetical protein&lt;br&gt;Location: 46957 - 47859" locus_tag="Strop_2728" class="clusterblast-orf" id="dummy-1_h1_6_37"  />
</g>
<g id="a1_0038"  >
<polygon points="629,90 633,85 629,80 629,90 " style="fill:white; stroke-width:1; stroke:black; " description="&lt;b&gt;Strop_2729&lt;/b&gt;&lt;br&gt;hypothetical protein&lt;br&gt;Location: 48192 - 48488" locus_tag="Strop_2729" class="clusterblast-orf" id="dummy-1_h1_6_38"  />
</g>
<g id="a1_0039"  >
<polygon points="634,90 636,90 641,85 636,80 634,80 634,90 " style="fill:white; stroke-width:1; stroke:black; " description="&lt;b&gt;Strop_2730&lt;/b&gt;&lt;br&gt;hypothetical protein&lt;br&gt;Location: 48526 - 49083" locus_tag="Strop_2730" class="clusterblast-orf" id="dummy-1_h1_6_39"  />
</g>
<g id="a1_0040"  >
<polygon points="647,85 652,80 665,80 665,90 652,90 647,85 " style="fill:white; stroke-width:1; stroke:black; " description="&lt;b&gt;Strop_2731&lt;/b&gt;&lt;br&gt;FAD linked oxidase domain protein&lt;br&gt;Location: 49539 - 50957" locus_tag="Strop_2731" class="clusterblast-orf" id="dummy-1_h1_6_40"  />
</g>
<g id="a1_0041"  >
<polygon points="666,90 675,90 680,85 675,80 666,80 666,90 " style="fill:white; stroke-width:1; stroke:black; " description="&lt;b&gt;Strop_2732&lt;/b&gt;&lt;br&gt;hypothetical protein&lt;br&gt;Location: 51037 - 52107" locus_tag="Strop_2732" class="clusterblast-orf" id="dummy-1_h1_6_41"  />
</g>
<g id="a1_0042"  >
<polygon points="681,90 695,90 700,85 695,80 681,80 681,90 " style="fill:#15a3d8; stroke-width:1; stroke:black; " description="&lt;b&gt;Strop_2733&lt;/b&gt;&lt;br&gt;Methyltransferase type 11&lt;br&gt;Location: 52120 - 53640&lt;br&gt;&lt;br&gt;&lt;b&gt;BlastP hit with cds24958_26524&lt;/b&gt;&lt;br&gt;Percentage identity: 46&lt;br&gt;Percentage coverage: 98&lt;br&gt;BLAST bit score: 441&lt;br&gt;E-value: 1.4e-123" locus_tag="Strop_2733" class="clusterblast-orf" id="dummy-1_h1_6_42"  />
</g>
<g id="a1_0043"  >
<polygon points="701,90 705,85 701,80 701,90 " style="fill:white; stroke-width:1; stroke:black; " description="&lt;b&gt;Strop_2734&lt;/b&gt;&lt;br&gt;hypothetical protein&lt;br&gt;Location: 53713 - 53970" locus_tag="Strop_2734" class="clusterblast-orf" id="dummy-1_h1_6_43"  />
</g>
<g id="a1_0044"  >
<polygon points="706,85 711,80 725,80 725,90 711,90 706,85 " style="fill:white; stroke-width:1; stroke:black; " description="&lt;b&gt;Strop_2735&lt;/b&gt;&lt;br&gt;major facilitator superfamily MFS 1&lt;br&gt;Location: 54097 - 55542" locus_tag="Strop_2735" class="clusterblast-orf" id="dummy-1_h1_6_44"  />
</g>
<g id="a1_0045"  >
<polygon points="726,85 731,80 734,80 734,90 731,90 726,85 " style="fill:white; stroke-width:1; stroke:black; " description="&lt;b&gt;Strop_2736&lt;/b&gt;&lt;br&gt;protein of unknown function DUF899, thioredoxin family protein&lt;br&gt;Location: 55580 - 56248" locus_tag="Strop_2736" class="clusterblast-orf" id="dummy-1_h1_6_45"  />
</g>
<g id="a1_0046"  >
<polygon points="736,90 775,90 780,85 775,80 736,80 736,90 " style="fill:white; stroke-width:1; stroke:black; " description="&lt;b&gt;Strop_2737&lt;/b&gt;&lt;br&gt;transcriptional activator domain&lt;br&gt;Location: 56386 - 59694" locus_tag="Strop_2737" class="clusterblast-orf" id="dummy-1_h1_6_46"  />
</g>
</svg>
