<svg xmlns="http://www.w3.org/2000/svg" xmlns:xlink="http://www.w3.org/1999/xlink" version="1.1" x="0" y="0" height="230" width="800" viewBox="0 0 800 230" preserveAspectRatio="none"  >
<g label="Query sequence" class="clusterblast-cluster"  >
<text x="5" y="20" class="clusterblast-acc"  >
Query sequence</text>
<line x1="10" y1="35" x2="778.0" y2="35" style="stroke-width:1; stroke:grey; "  />
<polygon points="144,35 149,30 160,30 160,40 149,40 144,35 " style="fill:white; stroke-width:1; stroke:black; " description="&lt;b&gt;cds61435_62263&lt;/b&gt;&lt;br&gt;hypothetical protein&lt;br&gt;Location: 61435 - 62263" locus_tag="cds61435_62263" class="clusterblast-orf" id="dummy-1_q0_0_all"  />
<polygon points="163,35 168,30 181,30 181,40 168,40 163,35 " style="fill:white; stroke-width:1; stroke:black; " description="&lt;b&gt;cds62425_63364&lt;/b&gt;&lt;br&gt;hypothetical protein&lt;br&gt;Location: 62425 - 63364" locus_tag="cds62425_63364" class="clusterblast-orf" id="dummy-1_q1_0_all"  />
<polygon points="192,40 202,40 207,35 202,30 192,30 192,40 " style="fill:white; stroke-width:1; stroke:black; " description="&lt;b&gt;cds63941_64766&lt;/b&gt;&lt;br&gt;hypothetical protein&lt;br&gt;Location: 63941 - 64766" locus_tag="cds63941_64766" class="clusterblast-orf" id="dummy-1_q2_0_all"  />
<polygon points="208,35 211,30 211,40 208,35 " style="fill:white; stroke-width:1; stroke:black; " description="&lt;b&gt;cds64775_64949&lt;/b&gt;&lt;br&gt;hypothetical protein&lt;br&gt;Location: 64775 - 64949" locus_tag="cds64775_64949" class="clusterblast-orf" id="dummy-1_q3_0_all"  />
<polygon points="212,35 217,30 224,30 224,40 217,40 212,35 " style="fill:#d81515; stroke-width:1; stroke:black; " description="&lt;b&gt;cds65016_65637&lt;/b&gt;&lt;br&gt;HTH-type transcriptional regulator PuuR&lt;br&gt;Location: 65016 - 65637" locus_tag="cds65016_65637" class="clusterblast-orf" id="dummy-1_q4_0_all"  />
<polygon points="225,35 230,30 252,30 252,40 230,40 225,35 " style="fill:#77d815; stroke-width:1; stroke:black; " description="&lt;b&gt;cds65693_67088&lt;/b&gt;&lt;br&gt;Aminotransferase PigE&lt;br&gt;Location: 65693 - 67088" locus_tag="cds65693_67088" class="clusterblast-orf" id="dummy-1_q5_0_all"  />
<polygon points="252,35 257,30 288,30 288,40 257,40 252,35 " style="fill:#15d8d8; stroke-width:1; stroke:black; " description="&lt;b&gt;cds67084_68995&lt;/b&gt;&lt;br&gt;1-deoxy-D-xylulose-5-phosphate synthase&lt;br&gt;Location: 67084 - 68995" locus_tag="cds67084_68995" class="clusterblast-orf" id="dummy-1_q6_0_all"  />
<polygon points="291,35 296,30 311,30 311,40 296,40 291,35 " style="fill:#7715d8; stroke-width:1; stroke:black; " description="&lt;b&gt;cds69168_70188&lt;/b&gt;&lt;br&gt;GTP 3',8-cyclase&lt;br&gt;Location: 69168 - 70188" locus_tag="cds69168_70188" class="clusterblast-orf" id="dummy-1_q7_0_all"  />
<polygon points="311,35 316,30 323,30 323,40 316,40 311,35 " style="fill:#d87715; stroke-width:1; stroke:black; " description="&lt;b&gt;cds70194_70854&lt;/b&gt;&lt;br&gt;hypothetical protein&lt;br&gt;Location: 70194 - 70854" locus_tag="cds70194_70854" class="clusterblast-orf" id="dummy-1_q8_0_all"  />
<polygon points="323,35 328,30 362,30 362,40 328,40 323,35 " style="fill:#15d815; stroke-width:1; stroke:black; " description="&lt;b&gt;cds70858_72871&lt;/b&gt;&lt;br&gt;Squalene--hopene cyclase&lt;br&gt;Location: 70858 - 72871" locus_tag="cds70858_72871" class="clusterblast-orf" id="dummy-1_q9_0_all"  />
<polygon points="364,35 369,30 385,30 385,40 369,40 364,35 " style="fill:#1577d8; stroke-width:1; stroke:black; " description="&lt;b&gt;cds72971_74075&lt;/b&gt;&lt;br&gt;(2E,6E)-farnesyl diphosphate synthase&lt;br&gt;Location: 72971 - 74075" locus_tag="cds72971_74075" class="clusterblast-orf" id="dummy-1_q10_0_all"  />
<polygon points="385,35 390,30 411,30 411,40 390,40 385,35 " style="fill:#d815d8; stroke-width:1; stroke:black; " description="&lt;b&gt;cds74071_75460&lt;/b&gt;&lt;br&gt;Hydroxysqualene dehydroxylase&lt;br&gt;Location: 74071 - 75460" locus_tag="cds74071_75460" class="clusterblast-orf" id="dummy-1_q11_0_all"  />
<polygon points="413,35 418,30 431,30 431,40 418,40 413,35 " style="fill:#d8d815; stroke-width:1; stroke:black; " description="&lt;b&gt;cds75548_76502&lt;/b&gt;&lt;br&gt;Phytoene synthase&lt;br&gt;Location: 75548 - 76502" locus_tag="cds75548_76502" class="clusterblast-orf" id="dummy-1_q12_0_all"  />
<polygon points="431,35 436,30 448,30 448,40 436,40 431,35 " style="fill:#15d877; stroke-width:1; stroke:black; " description="&lt;b&gt;cds76498_77416&lt;/b&gt;&lt;br&gt;hypothetical protein&lt;br&gt;Location: 76498 - 77416" locus_tag="cds76498_77416" class="clusterblast-orf" id="dummy-1_q13_0_all"  />
<polygon points="456,35 461,30 471,30 471,40 461,40 456,35 " style="fill:white; stroke-width:1; stroke:black; " description="&lt;b&gt;cds77840_78626&lt;/b&gt;&lt;br&gt;Vitamin B12 import ATP-binding protein BtuD&lt;br&gt;Location: 77840 - 78626" locus_tag="cds77840_78626" class="clusterblast-orf" id="dummy-1_q14_0_all"  />
<polygon points="471,35 476,30 489,30 489,40 476,40 471,35 " style="fill:white; stroke-width:1; stroke:black; " description="&lt;b&gt;cds78618_79548&lt;/b&gt;&lt;br&gt;hypothetical protein&lt;br&gt;Location: 78618 - 79548" locus_tag="cds78618_79548" class="clusterblast-orf" id="dummy-1_q15_0_all"  />
<polygon points="491,35 496,30 507,30 507,40 496,40 491,35 " style="fill:white; stroke-width:1; stroke:black; " description="&lt;b&gt;cds79656_80529&lt;/b&gt;&lt;br&gt;hypothetical protein&lt;br&gt;Location: 79656 - 80529" locus_tag="cds79656_80529" class="clusterblast-orf" id="dummy-1_q16_0_all"  />
<polygon points="508,35 513,30 522,30 522,40 513,40 508,35 " style="fill:white; stroke-width:1; stroke:black; " description="&lt;b&gt;cds80537_81317&lt;/b&gt;&lt;br&gt;hypothetical protein&lt;br&gt;Location: 80537 - 81317" locus_tag="cds80537_81317" class="clusterblast-orf" id="dummy-1_q17_0_all"  />
<polygon points="522,35 527,30 542,30 542,40 527,40 522,35 " style="fill:#1515d8; stroke-width:1; stroke:black; " description="&lt;b&gt;cds81294_82356&lt;/b&gt;&lt;br&gt;hypothetical protein&lt;br&gt;Location: 81294 - 82356" locus_tag="cds81294_82356" class="clusterblast-orf" id="dummy-1_q18_0_all"  />
<polygon points="542,35 547,30 556,30 556,40 547,40 542,35 " style="fill:#d81577; stroke-width:1; stroke:black; " description="&lt;b&gt;cds82343_83081&lt;/b&gt;&lt;br&gt;Glucose-1-phosphate adenylyltransferase&lt;br&gt;Location: 82343 - 83081" locus_tag="cds82343_83081" class="clusterblast-orf" id="dummy-1_q19_0_all"  />
<polygon points="556,35 561,30 589,30 589,40 561,40 556,35 " style="fill:white; stroke-width:1; stroke:black; " description="&lt;b&gt;cds83077_84832&lt;/b&gt;&lt;br&gt;hypothetical protein&lt;br&gt;Location: 83077 - 84832" locus_tag="cds83077_84832" class="clusterblast-orf" id="dummy-1_q20_0_all"  />
<polygon points="595,40 609,40 614,35 609,30 595,30 595,40 " style="fill:white; stroke-width:1; stroke:black; " description="&lt;b&gt;cds85141_86128&lt;/b&gt;&lt;br&gt;UDP-glucose 4-epimerase&lt;br&gt;Location: 85141 - 86128" locus_tag="cds85141_86128" class="clusterblast-orf" id="dummy-1_q21_0_all"  />
<polygon points="617,40 630,40 635,35 630,30 617,30 617,40 " style="fill:white; stroke-width:1; stroke:black; " description="&lt;b&gt;cds86309_87251&lt;/b&gt;&lt;br&gt;Metal cation efflux system protein CzcD&lt;br&gt;Location: 86309 - 87251" locus_tag="cds86309_87251" class="clusterblast-orf" id="dummy-1_q22_0_all"  />
</g>
<g label="BGC0001140" description="BGC0001140_c1: platensimycin / platencin (5% of genes show similarity), Terpene" class="clusterblast-cluster"  >
<text x="5" y="70" class="clusterblast-acc"  >
<a xlink:href="https://mibig.secondarymetabolites.org/go/BGC0001140/1" target="_blank">BGC0001140</a>:                                                        platensimycin / platencin (5% of genes show similarity), Terpene</text>
<line x1="10" y1="85" x2="778.0" y2="85" style="stroke-width:1; stroke:grey; "  />
</g>
<g id="a1_000"  >
<polygon points="0,85 5,80 6,80 6,90 5,90 0,85 " style="fill:white; stroke-width:1; stroke:black; " description="&lt;b&gt;ACS13712.1&lt;/b&gt;&lt;br&gt;PtmO9&lt;br&gt;Location: 45606 - 45271" locus_tag="ACS13712.1" class="clusterblast-orf" id="dummy-1_h1_6_0"  />
</g>
<g id="a1_001"  >
<polygon points="6,85 11,80 37,80 37,90 11,90 6,85 " style="fill:white; stroke-width:1; stroke:black; " description="&lt;b&gt;ACS13711.1&lt;/b&gt;&lt;br&gt;PtmP4&lt;br&gt;Location: 45247 - 43625" locus_tag="ACS13711.1" class="clusterblast-orf" id="dummy-1_h1_6_1"  />
</g>
<g id="a1_002"  >
<polygon points="39,85 44,80 63,80 63,90 44,90 39,85 " style="fill:white; stroke-width:1; stroke:black; " description="&lt;b&gt;ACS13710.1&lt;/b&gt;&lt;br&gt;PtmP3&lt;br&gt;Location: 43507 - 42293" locus_tag="ACS13710.1" class="clusterblast-orf" id="dummy-1_h1_6_2"  />
</g>
<g id="a1_003"  >
<polygon points="66,85 71,80 96,80 96,90 71,90 66,85 " style="fill:white; stroke-width:1; stroke:black; " description="&lt;b&gt;ACO31297.1&lt;/b&gt;&lt;br&gt;PtmA3&lt;br&gt;Location: 42125 - 40542" locus_tag="ACO31297.1" class="clusterblast-orf" id="dummy-1_h1_6_3"  />
</g>
<g id="a1_004"  >
<polygon points="97,85 102,80 131,80 131,90 102,90 97,85 " style="fill:white; stroke-width:1; stroke:black; " description="&lt;b&gt;ACO31296.1&lt;/b&gt;&lt;br&gt;PtmU4&lt;br&gt;Location: 40503 - 38713" locus_tag="ACO31296.1" class="clusterblast-orf" id="dummy-1_h1_6_4"  />
</g>
<g id="a1_005"  >
<polygon points="131,85 136,80 147,80 147,90 136,90 131,85 " style="fill:white; stroke-width:1; stroke:black; " description="&lt;b&gt;ACO31295.1&lt;/b&gt;&lt;br&gt;PtmO8&lt;br&gt;Location: 38716 - 37880" locus_tag="ACO31295.1" class="clusterblast-orf" id="dummy-1_h1_6_5"  />
</g>
<g id="a1_006"  >
<polygon points="152,90 161,90 166,85 161,80 152,80 152,90 " style="fill:white; stroke-width:1; stroke:black; " description="&lt;b&gt;ACO31294.1&lt;/b&gt;&lt;br&gt;PtmR1&lt;br&gt;Location: 37588 - 36872" locus_tag="ACO31294.1" class="clusterblast-orf" id="dummy-1_h1_6_6"  />
</g>
<g id="a1_007"  >
<polygon points="166,85 171,80 184,80 184,90 171,90 166,85 " style="fill:white; stroke-width:1; stroke:black; " description="&lt;b&gt;ACO31293.1&lt;/b&gt;&lt;br&gt;PtmO7&lt;br&gt;Location: 36839 - 35934" locus_tag="ACO31293.1" class="clusterblast-orf" id="dummy-1_h1_6_7"  />
</g>
<g id="a1_008"  >
<polygon points="184,85 189,80 208,80 208,90 189,90 184,85 " style="fill:white; stroke-width:1; stroke:black; " description="&lt;b&gt;ACO31292.1&lt;/b&gt;&lt;br&gt;PtmP2&lt;br&gt;Location: 35919 - 34675" locus_tag="ACO31292.1" class="clusterblast-orf" id="dummy-1_h1_6_8"  />
</g>
<g id="a1_009"  >
<polygon points="209,90 231,90 236,85 231,80 209,80 209,90 " style="fill:white; stroke-width:1; stroke:black; " description="&lt;b&gt;ACO31291.1&lt;/b&gt;&lt;br&gt;PtmP1&lt;br&gt;Location: 34603 - 33179" locus_tag="ACO31291.1" class="clusterblast-orf" id="dummy-1_h1_6_9"  />
</g>
<g id="a1_0010"  >
<polygon points="238,85 243,80 254,80 254,90 243,90 238,85 " style="fill:white; stroke-width:1; stroke:black; " description="&lt;b&gt;ACO31290.1&lt;/b&gt;&lt;br&gt;PtmC&lt;br&gt;Location: 33093 - 32218" locus_tag="ACO31290.1" class="clusterblast-orf" id="dummy-1_h1_6_10"  />
</g>
<g id="a1_0011"  >
<polygon points="255,85 260,80 278,80 278,90 260,90 255,85 " style="fill:white; stroke-width:1; stroke:black; " description="&lt;b&gt;ACO31289.1&lt;/b&gt;&lt;br&gt;PtmB3&lt;br&gt;Location: 32159 - 30969" locus_tag="ACO31289.1" class="clusterblast-orf" id="dummy-1_h1_6_11"  />
</g>
<g id="a1_0012"  >
<polygon points="278,85 283,80 299,80 299,90 283,90 278,85 " style="fill:white; stroke-width:1; stroke:black; " description="&lt;b&gt;ACO31288.1&lt;/b&gt;&lt;br&gt;PtmB2&lt;br&gt;Location: 30963 - 29857" locus_tag="ACO31288.1" class="clusterblast-orf" id="dummy-1_h1_6_12"  />
</g>
<g id="a1_0013"  >
<polygon points="300,85 305,80 316,80 316,90 305,90 300,85 " style="fill:white; stroke-width:1; stroke:black; " description="&lt;b&gt;ACO31287.1&lt;/b&gt;&lt;br&gt;PtmB1&lt;br&gt;Location: 29805 - 28972" locus_tag="ACO31287.1" class="clusterblast-orf" id="dummy-1_h1_6_13"  />
</g>
<g id="a1_0014"  >
<polygon points="318,85 323,80 351,80 351,90 323,90 318,85 " style="fill:#15d8d8; stroke-width:1; stroke:black; " description="&lt;b&gt;ACO31286.1&lt;/b&gt;&lt;br&gt;PtmM3&lt;br&gt;Location: 28894 - 27131&lt;br&gt;&lt;br&gt;&lt;b&gt;BlastP hit with cds67084_68995&lt;/b&gt;&lt;br&gt;Percentage identity: 59&lt;br&gt;Percentage coverage: 95&lt;br&gt;BLAST bit score: 675&lt;br&gt;E-value: 1.2e-193" locus_tag="ACO31286.1" class="clusterblast-orf" id="dummy-1_h1_6_14"  />
</g>
<g id="a1_0015"  >
<polygon points="351,85 356,80 372,80 372,90 356,90 351,85 " style="fill:white; stroke-width:1; stroke:black; " description="&lt;b&gt;ACO31285.1&lt;/b&gt;&lt;br&gt;PtmM2&lt;br&gt;Location: 27144 - 26044" locus_tag="ACO31285.1" class="clusterblast-orf" id="dummy-1_h1_6_15"  />
</g>
<g id="a1_0016"  >
<polygon points="372,85 377,80 398,80 398,90 377,90 372,85 " style="fill:white; stroke-width:1; stroke:black; " description="&lt;b&gt;ACO31284.1&lt;/b&gt;&lt;br&gt;PtmM1&lt;br&gt;Location: 26036 - 24690" locus_tag="ACO31284.1" class="clusterblast-orf" id="dummy-1_h1_6_16"  />
</g>
<g id="a1_0017"  >
<polygon points="398,85 403,80 418,80 418,90 403,90 398,85 " style="fill:#1577d8; stroke-width:1; stroke:black; " description="&lt;b&gt;ACO31283.1&lt;/b&gt;&lt;br&gt;PtmT4&lt;br&gt;Location: 24690 - 23644&lt;br&gt;&lt;br&gt;&lt;b&gt;BlastP hit with cds72971_74075&lt;/b&gt;&lt;br&gt;Percentage identity: 46&lt;br&gt;Percentage coverage: 91&lt;br&gt;BLAST bit score: 252&lt;br&gt;E-value: 8.3e-67" locus_tag="ACO31283.1" class="clusterblast-orf" id="dummy-1_h1_6_17"  />
</g>
<g id="a1_0018"  >
<polygon points="419,85 424,80 435,80 435,90 424,90 419,85 " style="fill:white; stroke-width:1; stroke:black; " description="&lt;b&gt;ACO31282.1&lt;/b&gt;&lt;br&gt;PtmO6&lt;br&gt;Location: 23587 - 22745" locus_tag="ACO31282.1" class="clusterblast-orf" id="dummy-1_h1_6_18"  />
</g>
<g id="a1_0019"  >
<polygon points="436,85 441,80 457,80 457,90 441,90 436,85 " style="fill:white; stroke-width:1; stroke:black; " description="&lt;b&gt;ACO31281.1&lt;/b&gt;&lt;br&gt;PtmR3&lt;br&gt;Location: 22657 - 21590" locus_tag="ACO31281.1" class="clusterblast-orf" id="dummy-1_h1_6_19"  />
</g>
<g id="a1_0020"  >
<polygon points="457,85 462,80 481,80 481,90 462,90 457,85 " style="fill:white; stroke-width:1; stroke:black; " description="&lt;b&gt;ACO31280.1&lt;/b&gt;&lt;br&gt;PtmO5&lt;br&gt;Location: 21593 - 20301" locus_tag="ACO31280.1" class="clusterblast-orf" id="dummy-1_h1_6_20"  />
</g>
<g id="a1_0021"  >
<polygon points="482,85 487,80 500,80 500,90 487,90 482,85 " style="fill:white; stroke-width:1; stroke:black; " description="&lt;b&gt;ACO31279.1&lt;/b&gt;&lt;br&gt;PtmT3&lt;br&gt;Location: 20260 - 19331" locus_tag="ACO31279.1" class="clusterblast-orf" id="dummy-1_h1_6_21"  />
</g>
<g id="a1_0022"  >
<polygon points="500,85 505,80 522,80 522,90 505,90 500,85 " style="fill:white; stroke-width:1; stroke:black; " description="&lt;b&gt;ACO31278.1&lt;/b&gt;&lt;br&gt;PtmO4&lt;br&gt;Location: 19334 - 18168" locus_tag="ACO31278.1" class="clusterblast-orf" id="dummy-1_h1_6_22"  />
</g>
<g id="a1_0023"  >
<polygon points="522,85 527,80 538,80 538,90 527,90 522,85 " style="fill:white; stroke-width:1; stroke:black; " description="&lt;b&gt;ACO31277.1&lt;/b&gt;&lt;br&gt;PtmO3&lt;br&gt;Location: 18168 - 17311" locus_tag="ACO31277.1" class="clusterblast-orf" id="dummy-1_h1_6_23"  />
</g>
<g id="a1_0024"  >
<polygon points="541,90 566,90 571,85 566,80 541,80 541,90 " style="fill:white; stroke-width:1; stroke:black; " description="&lt;b&gt;ACO31276.1&lt;/b&gt;&lt;br&gt;PtmT2&lt;br&gt;Location: 17173 - 15572" locus_tag="ACO31276.1" class="clusterblast-orf" id="dummy-1_h1_6_24"  />
</g>
<g id="a1_0025"  >
<polygon points="571,90 591,90 596,85 591,80 571,80 571,90 " style="fill:white; stroke-width:1; stroke:black; " description="&lt;b&gt;ACO31275.1&lt;/b&gt;&lt;br&gt;PtmO2&lt;br&gt;Location: 15572 - 14250" locus_tag="ACO31275.1" class="clusterblast-orf" id="dummy-1_h1_6_25"  />
</g>
<g id="a1_0026"  >
<polygon points="596,90 609,90 614,85 609,80 596,80 596,90 " style="fill:white; stroke-width:1; stroke:black; " description="&lt;b&gt;ACO31274.1&lt;/b&gt;&lt;br&gt;PtmT1&lt;br&gt;Location: 14253 - 13327" locus_tag="ACO31274.1" class="clusterblast-orf" id="dummy-1_h1_6_26"  />
</g>
<g id="a1_0027"  >
<polygon points="615,90 626,90 631,85 626,80 615,80 615,90 " style="fill:white; stroke-width:1; stroke:black; " description="&lt;b&gt;ACO31273.1&lt;/b&gt;&lt;br&gt;PtmH&lt;br&gt;Location: 13262 - 12408" locus_tag="ACO31273.1" class="clusterblast-orf" id="dummy-1_h1_6_27"  />
</g>
<g id="a1_0028"  >
<polygon points="633,90 649,90 654,85 649,80 633,80 633,90 " style="fill:white; stroke-width:1; stroke:black; " description="&lt;b&gt;ACO31272.1&lt;/b&gt;&lt;br&gt;PtmU3&lt;br&gt;Location: 12326 - 11244" locus_tag="ACO31272.1" class="clusterblast-orf" id="dummy-1_h1_6_28"  />
</g>
<g id="a1_0029"  >
<polygon points="654,90 679,90 684,85 679,80 654,80 654,90 " style="fill:white; stroke-width:1; stroke:black; " description="&lt;b&gt;ACO31271.1&lt;/b&gt;&lt;br&gt;PtmA2&lt;br&gt;Location: 11215 - 9647" locus_tag="ACO31271.1" class="clusterblast-orf" id="dummy-1_h1_6_29"  />
</g>
<g id="a1_0030"  >
<polygon points="684,90 701,90 706,85 701,80 684,80 684,90 " style="fill:white; stroke-width:1; stroke:black; " description="&lt;b&gt;ACO31270.1&lt;/b&gt;&lt;br&gt;PtmD&lt;br&gt;Location: 9645 - 8488" locus_tag="ACO31270.1" class="clusterblast-orf" id="dummy-1_h1_6_30"  />
</g>
<g id="a1_0031"  >
<polygon points="706,90 709,90 714,85 709,80 706,80 706,90 " style="fill:white; stroke-width:1; stroke:black; " description="&lt;b&gt;ACO31269.1&lt;/b&gt;&lt;br&gt;PtmR2&lt;br&gt;Location: 8488 - 8087" locus_tag="ACO31269.1" class="clusterblast-orf" id="dummy-1_h1_6_31"  />
</g>
<g id="a1_0032"  >
<polygon points="715,85 720,80 728,80 728,90 720,90 715,85 " style="fill:white; stroke-width:1; stroke:black; " description="&lt;b&gt;ACO31268.1&lt;/b&gt;&lt;br&gt;PtmU2&lt;br&gt;Location: 8041 - 7331" locus_tag="ACO31268.1" class="clusterblast-orf" id="dummy-1_h1_6_32"  />
</g>
<g id="a1_0033"  >
<polygon points="728,85 733,80 753,80 753,90 733,90 728,85 " style="fill:white; stroke-width:1; stroke:black; " description="&lt;b&gt;ACO31267.1&lt;/b&gt;&lt;br&gt;PtmA1&lt;br&gt;Location: 7334 - 6030" locus_tag="ACO31267.1" class="clusterblast-orf" id="dummy-1_h1_6_33"  />
</g>
<g id="a1_0034"  >
<polygon points="754,90 760,90 765,85 760,80 754,80 754,90 " style="fill:white; stroke-width:1; stroke:black; " description="&lt;b&gt;ACO31266.1&lt;/b&gt;&lt;br&gt;PtmU1&lt;br&gt;Location: 5943 - 5389" locus_tag="ACO31266.1" class="clusterblast-orf" id="dummy-1_h1_6_34"  />
</g>
<g id="a1_0035"  >
<polygon points="765,90 775,90 780,85 775,80 765,80 765,90 " style="fill:white; stroke-width:1; stroke:black; " description="&lt;b&gt;ACO31265.1&lt;/b&gt;&lt;br&gt;Ptm01&lt;br&gt;Location: 5392 - 4628" locus_tag="ACO31265.1" class="clusterblast-orf" id="dummy-1_h1_6_35"  />
</g>
</svg>
