<svg xmlns="http://www.w3.org/2000/svg" xmlns:xlink="http://www.w3.org/1999/xlink" version="1.1" x="0" y="0" height="230" width="800" viewBox="0 0 800 230" preserveAspectRatio="none"  >
<g label="Query sequence" class="clusterblast-cluster"  >
<text x="5" y="20" class="clusterblast-acc"  >
Query sequence</text>
<line x1="10" y1="35" x2="778.0" y2="35" style="stroke-width:1; stroke:grey; "  />
<polygon points="0,40 24,40 29,35 24,30 0,30 0,40 " style="fill:white; stroke-width:1; stroke:black; " description="&lt;b&gt;cds3252_4230&lt;/b&gt;&lt;br&gt;Manganese-dependent 2,3-dihydroxybiphenyl 1,2-dioxygenase&lt;br&gt;Location: 3252 - 4230" locus_tag="cds3252_4230" class="clusterblast-orf" id="dummy-1_q0_0_all"  />
<polygon points="29,40 48,40 53,35 48,30 29,30 29,40 " style="fill:white; stroke-width:1; stroke:black; " description="&lt;b&gt;cds4226_5024&lt;/b&gt;&lt;br&gt;L-aspartate dehydrogenase&lt;br&gt;Location: 4226 - 5024" locus_tag="cds4226_5024" class="clusterblast-orf" id="dummy-1_q1_0_all"  />
<polygon points="53,40 72,40 77,35 72,30 53,30 53,40 " style="fill:white; stroke-width:1; stroke:black; " description="&lt;b&gt;cds5020_5818&lt;/b&gt;&lt;br&gt;3-oxoadipate enol-lactonase 2&lt;br&gt;Location: 5020 - 5818" locus_tag="cds5020_5818" class="clusterblast-orf" id="dummy-1_q2_0_all"  />
<polygon points="77,40 88,40 93,35 88,30 77,30 77,40 " style="fill:white; stroke-width:1; stroke:black; " description="&lt;b&gt;cds5829_6351&lt;/b&gt;&lt;br&gt;hypothetical protein&lt;br&gt;Location: 5829 - 6351" locus_tag="cds5829_6351" class="clusterblast-orf" id="dummy-1_q3_0_all"  />
<polygon points="95,40 111,40 116,35 111,30 95,30 95,40 " style="fill:white; stroke-width:1; stroke:black; " description="&lt;b&gt;cds6415_7099&lt;/b&gt;&lt;br&gt;Pyridoxal 4-dehydrogenase&lt;br&gt;Location: 6415 - 7099" locus_tag="cds6415_7099" class="clusterblast-orf" id="dummy-1_q4_0_all"  />
<polygon points="116,40 135,40 140,35 135,30 116,30 116,40 " style="fill:white; stroke-width:1; stroke:black; " description="&lt;b&gt;cds7118_7907&lt;/b&gt;&lt;br&gt;Dihydroanticapsin 7-dehydrogenase&lt;br&gt;Location: 7118 - 7907" locus_tag="cds7118_7907" class="clusterblast-orf" id="dummy-1_q5_0_all"  />
<polygon points="140,40 184,40 189,35 184,30 140,30 140,40 " style="fill:white; stroke-width:1; stroke:black; " description="&lt;b&gt;cds7917_9543&lt;/b&gt;&lt;br&gt;Acetolactate synthase isozyme 2 large subunit&lt;br&gt;Location: 7917 - 9543" locus_tag="cds7917_9543" class="clusterblast-orf" id="dummy-1_q6_0_all"  />
<polygon points="191,40 214,40 219,35 214,30 191,30 191,40 " style="fill:white; stroke-width:1; stroke:black; " description="&lt;b&gt;cds9581_10517&lt;/b&gt;&lt;br&gt;Phenoxybenzoate dioxygenase subunit beta&lt;br&gt;Location: 9581 - 10517" locus_tag="cds9581_10517" class="clusterblast-orf" id="dummy-1_q7_0_all"  />
<polygon points="220,40 221,40 226,35 221,30 220,30 220,40 " style="fill:white; stroke-width:1; stroke:black; " description="&lt;b&gt;cds10545_10770&lt;/b&gt;&lt;br&gt;hypothetical protein&lt;br&gt;Location: 10545 - 10770" locus_tag="cds10545_10770" class="clusterblast-orf" id="dummy-1_q8_0_all"  />
<polygon points="226,40 252,40 257,35 252,30 226,30 226,40 " style="fill:white; stroke-width:1; stroke:black; " description="&lt;b&gt;cds10772_11789&lt;/b&gt;&lt;br&gt;hypothetical protein&lt;br&gt;Location: 10772 - 11789" locus_tag="cds10772_11789" class="clusterblast-orf" id="dummy-1_q9_0_all"  />
<polygon points="258,35 263,30 274,30 274,40 263,40 258,35 " style="fill:white; stroke-width:1; stroke:black; " description="&lt;b&gt;cds11813_12365&lt;/b&gt;&lt;br&gt;hypothetical protein&lt;br&gt;Location: 11813 - 12365" locus_tag="cds11813_12365" class="clusterblast-orf" id="dummy-1_q10_0_all"  />
<polygon points="276,35 281,30 304,30 304,40 281,40 276,35 " style="fill:#d81515; stroke-width:1; stroke:black; " description="&lt;b&gt;cds12404_13352&lt;/b&gt;&lt;br&gt;Bifunctional polymyxin resistance protein ArnA&lt;br&gt;Location: 12404 - 13352" locus_tag="cds12404_13352" class="clusterblast-orf" id="dummy-1_q11_0_all"  />
<polygon points="312,40 347,40 352,35 347,30 312,30 312,40 " style="fill:#15d863; stroke-width:1; stroke:black; " description="&lt;b&gt;cds13596_14952&lt;/b&gt;&lt;br&gt;L-ornithine N(5)-monooxygenase&lt;br&gt;Location: 13596 - 14952" locus_tag="cds13596_14952" class="clusterblast-orf" id="dummy-1_q12_0_all"  />
<polygon points="354,35 359,30 404,30 404,40 359,40 354,35 " style="fill:white; stroke-width:1; stroke:black; " description="&lt;b&gt;cds15011_16661&lt;/b&gt;&lt;br&gt;putative ferredoxin/ferredoxin--NADP reductase&lt;br&gt;Location: 15011 - 16661" locus_tag="cds15011_16661" class="clusterblast-orf" id="dummy-1_q13_0_all"  />
<polygon points="404,35 409,30 432,30 432,40 409,40 404,35 " style="fill:white; stroke-width:1; stroke:black; " description="&lt;b&gt;cds16670_17585&lt;/b&gt;&lt;br&gt;hypothetical protein&lt;br&gt;Location: 16670 - 17585" locus_tag="cds16670_17585" class="clusterblast-orf" id="dummy-1_q14_0_all"  />
<polygon points="445,40 481,40 486,35 481,30 445,30 445,40 " style="fill:white; stroke-width:1; stroke:black; " description="&lt;b&gt;cds18036_19377&lt;/b&gt;&lt;br&gt;hypothetical protein&lt;br&gt;Location: 18036 - 19377" locus_tag="cds18036_19377" class="clusterblast-orf" id="dummy-1_q15_0_all"  />
<polygon points="486,40 510,40 515,35 510,30 486,30 486,40 " style="fill:white; stroke-width:1; stroke:black; " description="&lt;b&gt;cds19373_20336&lt;/b&gt;&lt;br&gt;L-arabinose transport system permease protein AraP&lt;br&gt;Location: 19373 - 20336" locus_tag="cds19373_20336" class="clusterblast-orf" id="dummy-1_q16_0_all"  />
<polygon points="515,40 537,40 542,35 537,30 515,30 515,40 " style="fill:white; stroke-width:1; stroke:black; " description="&lt;b&gt;cds20332_21232&lt;/b&gt;&lt;br&gt;L-arabinose transport system permease protein AraQ&lt;br&gt;Location: 20332 - 21232" locus_tag="cds20332_21232" class="clusterblast-orf" id="dummy-1_q17_0_all"  />
<polygon points="543,35 548,30 570,30 570,40 548,40 543,35 " style="fill:white; stroke-width:1; stroke:black; " description="&lt;b&gt;cds21277_22165&lt;/b&gt;&lt;br&gt;1,4-dihydroxy-2-naphthoate octaprenyltransferase&lt;br&gt;Location: 21277 - 22165" locus_tag="cds21277_22165" class="clusterblast-orf" id="dummy-1_q18_0_all"  />
<polygon points="572,40 600,40 605,35 600,30 572,30 572,40 " style="fill:#1563d8; stroke-width:1; stroke:black; " description="&lt;b&gt;cds22251_23343&lt;/b&gt;&lt;br&gt;1,3,6,8-tetrahydroxynaphthalene synthase&lt;br&gt;Location: 22251 - 23343" locus_tag="cds22251_23343" class="clusterblast-orf" id="dummy-1_q19_0_all"  />
<polygon points="606,40 617,40 622,35 617,30 606,30 606,40 " style="fill:#b115d8; stroke-width:1; stroke:black; " description="&lt;b&gt;cds23356_23884&lt;/b&gt;&lt;br&gt;hypothetical protein&lt;br&gt;Location: 23356 - 23884" locus_tag="cds23356_23884" class="clusterblast-orf" id="dummy-1_q20_0_all"  />
<polygon points="621,40 647,40 652,35 647,30 621,30 621,40 " style="fill:#b1d815; stroke-width:1; stroke:black; " description="&lt;b&gt;cds23880_24894&lt;/b&gt;&lt;br&gt;hypothetical protein&lt;br&gt;Location: 23880 - 24894" locus_tag="cds23880_24894" class="clusterblast-orf" id="dummy-1_q21_0_all"  />
<polygon points="654,40 731,40 736,35 731,30 654,30 654,40 " style="fill:white; stroke-width:1; stroke:black; " description="&lt;b&gt;cds24976_27679&lt;/b&gt;&lt;br&gt;hypothetical protein&lt;br&gt;Location: 24976 - 27679" locus_tag="cds24976_27679" class="clusterblast-orf" id="dummy-1_q22_0_all"  />
<polygon points="736,35 741,30 755,30 755,40 741,40 736,35 " style="fill:white; stroke-width:1; stroke:black; " description="&lt;b&gt;cds27694_28324&lt;/b&gt;&lt;br&gt;2-methoxy-6-polyprenyl-1,4-benzoquinol methylase, mitochondrial&lt;br&gt;Location: 27694 - 28324" locus_tag="cds27694_28324" class="clusterblast-orf" id="dummy-1_q23_0_all"  />
<polygon points="756,35 761,30 780,30 780,40 761,40 756,35 " style="fill:white; stroke-width:1; stroke:black; " description="&lt;b&gt;cds28349_29135&lt;/b&gt;&lt;br&gt;hypothetical protein&lt;br&gt;Location: 28349 - 29135" locus_tag="cds28349_29135" class="clusterblast-orf" id="dummy-1_q24_0_all"  />
</g>
<g label="BGC0001647" description="BGC0001647_c1: lagunapyrone A / lagunapyrone B / lagunapyrone C (22% of genes show similarity), Polyketide" class="clusterblast-cluster"  >
<text x="5" y="70" class="clusterblast-acc"  >
<a xlink:href="https://mibig.secondarymetabolites.org/go/BGC0001647/1" target="_blank">BGC0001647</a>:                                 lagunapyrone A / lagunapyrone B / lagunapyrone C (22% of genes show similarity), Polyketide</text>
<line x1="10" y1="85" x2="778.0" y2="85" style="stroke-width:1; stroke:grey; "  />
</g>
<g id="a1_000"  >
<polygon points="114,85 119,80 146,80 146,90 119,90 114,85 " style="fill:white; stroke-width:1; stroke:black; " description="&lt;b&gt;STBA_03960&lt;/b&gt;&lt;br&gt;D-arabitol-phosphate dehydrogenase&lt;br&gt;Location: 18309 - 17245" locus_tag="STBA_03960" class="clusterblast-orf" id="dummy-1_h1_3_0"  />
</g>
<g id="a1_001"  >
<polygon points="150,85 155,80 178,80 178,90 155,90 150,85 " style="fill:white; stroke-width:1; stroke:black; " description="&lt;b&gt;STBA_03950&lt;/b&gt;&lt;br&gt;Nodulation protein NolA&lt;br&gt;Location: 17092 - 16175" locus_tag="STBA_03950" class="clusterblast-orf" id="dummy-1_h1_3_1"  />
</g>
<g id="a1_002"  >
<polygon points="184,90 231,90 236,85 231,80 184,80 184,90 " style="fill:white; stroke-width:1; stroke:black; " description="&lt;b&gt;STBA_03940&lt;/b&gt;&lt;br&gt;FAD-linked oxidoreductase&lt;br&gt;Location: 15988 - 14246" locus_tag="STBA_03940" class="clusterblast-orf" id="dummy-1_h1_3_2"  />
</g>
<g id="a1_003"  >
<polygon points="239,85 244,80 253,80 253,90 244,90 239,85 " style="fill:white; stroke-width:1; stroke:black; " description="&lt;b&gt;STBA_03930&lt;/b&gt;&lt;br&gt;alkylhydroperoxidase AhpD family core domain protein&lt;br&gt;Location: 14157 - 13684" locus_tag="STBA_03930" class="clusterblast-orf" id="dummy-1_h1_3_3"  />
</g>
<g id="a1_004"  >
<polygon points="258,85 263,80 302,80 302,90 263,90 258,85 " style="fill:white; stroke-width:1; stroke:black; " description="&lt;b&gt;STBA_03920&lt;/b&gt;&lt;br&gt;tricarballylate dehydrogenase&lt;br&gt;Location: 13532 - 12060" locus_tag="STBA_03920" class="clusterblast-orf" id="dummy-1_h1_3_4"  />
</g>
<g id="a1_005"  >
<polygon points="304,85 309,80 537,80 537,90 309,90 304,85 " style="fill:white; stroke-width:1; stroke:black; " description="&lt;b&gt;STBA_03900&lt;/b&gt;&lt;br&gt;Beta-ketoacyl-acyl-carrier-protein synthase I&lt;br&gt;Location: 12006 - 4273" locus_tag="STBA_03900" class="clusterblast-orf" id="dummy-1_h1_3_5"  />
</g>
<g id="a1_006"  >
<polygon points="545,90 572,90 577,85 572,80 545,80 545,90 " style="fill:#1563d8; stroke-width:1; stroke:black; " description="&lt;b&gt;STBA_03890&lt;/b&gt;&lt;br&gt;Alpha-pyrone synthesis polyketide synthase-like Pks11&lt;br&gt;Location: 3981 - 2929&lt;br&gt;&lt;br&gt;&lt;b&gt;BlastP hit with cds22251_23343&lt;/b&gt;&lt;br&gt;Percentage identity: 68&lt;br&gt;Percentage coverage: 97&lt;br&gt;BLAST bit score: 475&lt;br&gt;E-value: 1e-133" locus_tag="STBA_03890" class="clusterblast-orf" id="dummy-1_h1_3_6"  />
</g>
<g id="a1_007"  >
<polygon points="578,90 588,90 593,85 588,80 578,80 578,90 " style="fill:#b115d8; stroke-width:1; stroke:black; " description="&lt;b&gt;STBA_03880&lt;/b&gt;&lt;br&gt;putative protein-S-isoprenylcysteine methyltransferase&lt;br&gt;Location: 2915 - 2391&lt;br&gt;&lt;br&gt;&lt;b&gt;BlastP hit with cds23356_23884&lt;/b&gt;&lt;br&gt;Percentage identity: 70&lt;br&gt;Percentage coverage: 94&lt;br&gt;BLAST bit score: 246&lt;br&gt;E-value: 3.7e-65" locus_tag="STBA_03880" class="clusterblast-orf" id="dummy-1_h1_3_7"  />
</g>
<g id="a1_008"  >
<polygon points="598,90 660,90 665,85 660,80 598,80 598,90 " style="fill:white; stroke-width:1; stroke:black; " description="&lt;b&gt;STBA_03870&lt;/b&gt;&lt;br&gt;Regulatory protein AfsR&lt;br&gt;Location: 2247 - 1" locus_tag="STBA_03870" class="clusterblast-orf" id="dummy-1_h1_3_8"  />
</g>
</svg>
