<svg xmlns="http://www.w3.org/2000/svg" xmlns:xlink="http://www.w3.org/1999/xlink" version="1.1" x="0" y="0" height="230" width="800" viewBox="0 0 800 230" preserveAspectRatio="none"  >
<g label="Query sequence" class="clusterblast-cluster"  >
<text x="5" y="20" class="clusterblast-acc"  >
Query sequence</text>
<line x1="10" y1="35" x2="778.0" y2="35" style="stroke-width:1; stroke:grey; "  />
<polygon points="0,35 5,30 22,30 22,40 5,40 0,35 " style="fill:white; stroke-width:1; stroke:black; " description="&lt;b&gt;cds93049_94162&lt;/b&gt;&lt;br&gt;Transaldolase&lt;br&gt;Location: 93049 - 94162" locus_tag="cds93049_94162" class="clusterblast-orf" id="dummy-2_q0_0_all"  />
<polygon points="27,35 32,30 65,30 65,40 32,40 27,35 " style="fill:white; stroke-width:1; stroke:black; " description="&lt;b&gt;cds94422_96378&lt;/b&gt;&lt;br&gt;hypothetical protein&lt;br&gt;Location: 94422 - 96378" locus_tag="cds94422_96378" class="clusterblast-orf" id="dummy-2_q1_0_all"  />
<polygon points="70,40 80,40 85,35 80,30 70,30 70,40 " style="fill:white; stroke-width:1; stroke:black; " description="&lt;b&gt;cds96630_97377&lt;/b&gt;&lt;br&gt;Release factor glutamine methyltransferase&lt;br&gt;Location: 96630 - 97377" locus_tag="cds96630_97377" class="clusterblast-orf" id="dummy-2_q2_0_all"  />
<polygon points="87,40 125,40 130,35 125,30 87,30 87,40 " style="fill:white; stroke-width:1; stroke:black; " description="&lt;b&gt;cds97468_99643&lt;/b&gt;&lt;br&gt;Isochorismate synthase MenF&lt;br&gt;Location: 97468 - 99643" locus_tag="cds97468_99643" class="clusterblast-orf" id="dummy-2_q3_0_all"  />
<polygon points="135,40 154,40 159,35 154,30 135,30 135,40 " style="fill:white; stroke-width:1; stroke:black; " description="&lt;b&gt;cds99935_101153&lt;/b&gt;&lt;br&gt;hypothetical protein&lt;br&gt;Location: 99935 - 101153" locus_tag="cds99935_101153" class="clusterblast-orf" id="dummy-2_q4_0_all"  />
<polygon points="161,40 178,40 183,35 178,30 161,30 161,40 " style="fill:white; stroke-width:1; stroke:black; " description="&lt;b&gt;cds101246_102350&lt;/b&gt;&lt;br&gt;Transcriptional regulator NovG&lt;br&gt;Location: 101246 - 102350" locus_tag="cds101246_102350" class="clusterblast-orf" id="dummy-2_q5_0_all"  />
<polygon points="188,40 193,40 198,35 193,30 188,30 188,40 " style="fill:#d81515; stroke-width:1; stroke:black; " description="&lt;b&gt;cds102605_103100&lt;/b&gt;&lt;br&gt;Phenazine biosynthesis protein PhzB2&lt;br&gt;Location: 102605 - 103100" locus_tag="cds102605_103100" class="clusterblast-orf" id="dummy-2_q6_0_all"  />
<polygon points="199,40 217,40 222,35 217,30 199,30 199,40 " style="fill:#63d815; stroke-width:1; stroke:black; " description="&lt;b&gt;cds103152_104325&lt;/b&gt;&lt;br&gt;Phospho-2-dehydro-3-deoxyheptonate aldolase&lt;br&gt;Location: 103152 - 104325" locus_tag="cds103152_104325" class="clusterblast-orf" id="dummy-2_q7_0_all"  />
<polygon points="223,40 230,40 235,35 230,30 223,30 223,40 " style="fill:#15b1d8; stroke-width:1; stroke:black; " description="&lt;b&gt;cds104361_104985&lt;/b&gt;&lt;br&gt;Phenazine biosynthesis protein PhzD2&lt;br&gt;Location: 104361 - 104985" locus_tag="cds104361_104985" class="clusterblast-orf" id="dummy-2_q8_0_all"  />
<polygon points="235,40 269,40 274,35 269,30 235,30 235,40 " style="fill:#b115d8; stroke-width:1; stroke:black; " description="&lt;b&gt;cds104981_106976&lt;/b&gt;&lt;br&gt;Isochorismate synthase MenF&lt;br&gt;Location: 104981 - 106976" locus_tag="cds104981_106976" class="clusterblast-orf" id="dummy-2_q9_0_all"  />
<polygon points="276,40 287,40 292,35 287,30 276,30 276,40 " style="fill:#d86315; stroke-width:1; stroke:black; " description="&lt;b&gt;cds107064_107901&lt;/b&gt;&lt;br&gt;Trans-2,3-dihydro-3-hydroxyanthranilate isomerase&lt;br&gt;Location: 107064 - 107901" locus_tag="cds107064_107901" class="clusterblast-orf" id="dummy-2_q10_0_all"  />
<polygon points="295,40 302,40 307,35 302,30 295,30 295,40 " style="fill:#15d815; stroke-width:1; stroke:black; " description="&lt;b&gt;cds108031_108667&lt;/b&gt;&lt;br&gt;Phenazine biosynthesis protein PhzG&lt;br&gt;Location: 108031 - 108667" locus_tag="cds108031_108667" class="clusterblast-orf" id="dummy-2_q11_0_all"  />
<polygon points="311,40 314,40 319,35 314,30 311,30 311,40 " style="fill:white; stroke-width:1; stroke:black; " description="&lt;b&gt;cds108855_109236&lt;/b&gt;&lt;br&gt;hypothetical protein&lt;br&gt;Location: 108855 - 109236" locus_tag="cds108855_109236" class="clusterblast-orf" id="dummy-2_q12_0_all"  />
<polygon points="320,40 324,40 329,35 324,30 320,30 320,40 " style="fill:white; stroke-width:1; stroke:black; " description="&lt;b&gt;cds109329_109740&lt;/b&gt;&lt;br&gt;hypothetical protein&lt;br&gt;Location: 109329 - 109740" locus_tag="cds109329_109740" class="clusterblast-orf" id="dummy-2_q13_0_all"  />
<polygon points="330,40 341,40 346,35 341,30 330,30 330,40 " style="fill:white; stroke-width:1; stroke:black; " description="&lt;b&gt;cds109788_110601&lt;/b&gt;&lt;br&gt;Trans-aconitate 2-methyltransferase&lt;br&gt;Location: 109788 - 110601" locus_tag="cds109788_110601" class="clusterblast-orf" id="dummy-2_q14_0_all"  />
<polygon points="347,40 367,40 372,35 367,30 347,30 347,40 " style="fill:white; stroke-width:1; stroke:black; " description="&lt;b&gt;cds110686_111919&lt;/b&gt;&lt;br&gt;sugar efflux transporter&lt;br&gt;Location: 110686 - 111919" locus_tag="cds110686_111919" class="clusterblast-orf" id="dummy-2_q15_0_all"  />
<polygon points="375,40 392,40 397,35 392,30 375,30 375,40 " style="fill:white; stroke-width:1; stroke:black; " description="&lt;b&gt;cds112115_113201&lt;/b&gt;&lt;br&gt;hypothetical protein&lt;br&gt;Location: 112115 - 113201" locus_tag="cds112115_113201" class="clusterblast-orf" id="dummy-2_q16_0_all"  />
<polygon points="401,40 420,40 425,35 420,30 401,30 401,40 " style="fill:#1563d8; stroke-width:1; stroke:black; " description="&lt;b&gt;cds113397_114621&lt;/b&gt;&lt;br&gt;S-adenosylmethionine synthase&lt;br&gt;Location: 113397 - 114621" locus_tag="cds113397_114621" class="clusterblast-orf" id="dummy-2_q17_0_all"  />
<polygon points="425,40 440,40 445,35 440,30 425,30 425,40 " style="fill:#d815b1; stroke-width:1; stroke:black; " description="&lt;b&gt;cds114622_115660&lt;/b&gt;&lt;br&gt;Adenosine kinase&lt;br&gt;Location: 114622 - 115660" locus_tag="cds114622_115660" class="clusterblast-orf" id="dummy-2_q18_0_all"  />
<polygon points="445,40 458,40 463,35 458,30 445,30 445,40 " style="fill:#d8b115; stroke-width:1; stroke:black; " description="&lt;b&gt;cds115656_116574&lt;/b&gt;&lt;br&gt;5,10-methylenetetrahydrofolate reductase&lt;br&gt;Location: 115656 - 116574" locus_tag="cds115656_116574" class="clusterblast-orf" id="dummy-2_q19_0_all"  />
<polygon points="475,35 480,30 497,30 497,40 480,40 475,35 " style="fill:#15d863; stroke-width:1; stroke:black; " description="&lt;b&gt;cds117189_118269&lt;/b&gt;&lt;br&gt;putative 3-ketosteroid-9-alpha-monooxygenase, oxygenase component&lt;br&gt;Location: 117189 - 118269" locus_tag="cds117189_118269" class="clusterblast-orf" id="dummy-2_q20_0_all"  />
<polygon points="497,35 502,30 517,30 517,40 502,40 497,35 " style="fill:#1515d8; stroke-width:1; stroke:black; " description="&lt;b&gt;cds118265_119321&lt;/b&gt;&lt;br&gt;Putative NADP-dependent oxidoreductase YfmJ&lt;br&gt;Location: 118265 - 119321" locus_tag="cds118265_119321" class="clusterblast-orf" id="dummy-2_q21_0_all"  />
<polygon points="517,35 522,30 550,30 550,40 522,40 517,35 " style="fill:#d81563; stroke-width:1; stroke:black; " description="&lt;b&gt;cds119317_120976&lt;/b&gt;&lt;br&gt;Phytoene desaturase (lycopene-forming)&lt;br&gt;Location: 119317 - 120976" locus_tag="cds119317_120976" class="clusterblast-orf" id="dummy-2_q22_0_all"  />
<polygon points="550,35 555,30 583,30 583,40 555,40 550,35 " style="fill:#b1d815; stroke-width:1; stroke:black; " description="&lt;b&gt;cds120972_122658&lt;/b&gt;&lt;br&gt;hypothetical protein&lt;br&gt;Location: 120972 - 122658" locus_tag="cds120972_122658" class="clusterblast-orf" id="dummy-2_q23_0_all"  />
<polygon points="583,35 588,30 767,30 767,40 588,40 583,35 " style="fill:#15d8b1; stroke-width:1; stroke:black; " description="&lt;b&gt;cds122644_131968&lt;/b&gt;&lt;br&gt;D-alanine--D-alanyl carrier protein ligase&lt;br&gt;Location: 122644 - 131968" locus_tag="cds122644_131968" class="clusterblast-orf" id="dummy-2_q24_0_all"  />
<polygon points="769,35 774,30 780,30 780,40 774,40 769,35 " style="fill:#6315d8; stroke-width:1; stroke:black; " description="&lt;b&gt;cds132105_132633&lt;/b&gt;&lt;br&gt;hypothetical protein&lt;br&gt;Location: 132105 - 132633" locus_tag="cds132105_132633" class="clusterblast-orf" id="dummy-2_q25_0_all"  />
</g>
<g label="BGC0001302" description="BGC0001302_c1: lomofungin (39% of genes show similarity), Other" class="clusterblast-cluster"  >
<text x="5" y="70" class="clusterblast-acc"  >
<a xlink:href="https://mibig.secondarymetabolites.org/go/BGC0001302/1" target="_blank">BGC0001302</a>:                                                                       lomofungin (39% of genes show similarity), Other</text>
<line x1="10" y1="85" x2="778.0" y2="85" style="stroke-width:1; stroke:grey; "  />
</g>
<g id="a2_000"  >
<polygon points="136,85 141,80 156,80 156,90 141,90 136,85 " style="fill:white; stroke-width:1; stroke:black; " description="&lt;b&gt;lomo17&lt;/b&gt;&lt;br&gt;transcriptional regulator&lt;br&gt;Location: 1 - 1011" locus_tag="lomo17" class="clusterblast-orf" id="dummy-2_h2_1_0"  />
</g>
<g id="a2_001"  >
<polygon points="159,85 164,80 184,80 184,90 164,90 159,85 " style="fill:white; stroke-width:1; stroke:black; " description="&lt;b&gt;lomo16&lt;/b&gt;&lt;br&gt;aldehyde dehydrogenase&lt;br&gt;Location: 1136 - 2440" locus_tag="lomo16" class="clusterblast-orf" id="dummy-2_h2_1_1"  />
</g>
<g id="a2_002"  >
<polygon points="186,85 191,80 206,80 206,90 191,90 186,85 " style="fill:white; stroke-width:1; stroke:black; " description="&lt;b&gt;lomo15&lt;/b&gt;&lt;br&gt;phenazine antibiotic biosynthesis protein&lt;br&gt;Location: 2521 - 3540" locus_tag="lomo15" class="clusterblast-orf" id="dummy-2_h2_1_2"  />
</g>
<g id="a2_003"  >
<polygon points="209,85 214,80 227,80 227,90 214,90 209,85 " style="fill:white; stroke-width:1; stroke:black; " description="&lt;b&gt;lomo14&lt;/b&gt;&lt;br&gt;alcohol dehydrogenase&lt;br&gt;Location: 3660 - 4601" locus_tag="lomo14" class="clusterblast-orf" id="dummy-2_h2_1_3"  />
</g>
<g id="a2_004"  >
<polygon points="236,90 260,90 265,85 260,80 236,80 236,90 " style="fill:white; stroke-width:1; stroke:black; " description="&lt;b&gt;lomo13&lt;/b&gt;&lt;br&gt;transporter&lt;br&gt;Location: 5073 - 6524" locus_tag="lomo13" class="clusterblast-orf" id="dummy-2_h2_1_4"  />
</g>
<g id="a2_005"  >
<polygon points="267,85 272,80 287,80 287,90 272,90 267,85 " style="fill:white; stroke-width:1; stroke:black; " description="&lt;b&gt;lomo12&lt;/b&gt;&lt;br&gt;transcriptional regulator&lt;br&gt;Location: 6606 - 7631" locus_tag="lomo12" class="clusterblast-orf" id="dummy-2_h2_1_5"  />
</g>
<g id="a2_006"  >
<polygon points="293,90 304,90 309,85 304,80 293,80 293,90 " style="fill:white; stroke-width:1; stroke:black; " description="&lt;b&gt;lomo11&lt;/b&gt;&lt;br&gt;methyltransferase&lt;br&gt;Location: 7955 - 8773" locus_tag="lomo11" class="clusterblast-orf" id="dummy-2_h2_1_6"  />
</g>
<g id="a2_007"  >
<polygon points="318,90 339,90 344,85 339,80 318,80 318,90 " style="fill:white; stroke-width:1; stroke:black; " description="&lt;b&gt;lomo10&lt;/b&gt;&lt;br&gt;FAD-binding monooxygenase&lt;br&gt;Location: 9203 - 10528" locus_tag="lomo10" class="clusterblast-orf" id="dummy-2_h2_1_7"  />
</g>
<g id="a2_008"  >
<polygon points="350,90 366,90 371,85 366,80 350,80 350,90 " style="fill:white; stroke-width:1; stroke:black; " description="&lt;b&gt;lomo9&lt;/b&gt;&lt;br&gt;acyl-CoA dehydrogenase&lt;br&gt;Location: 10858 - 11919" locus_tag="lomo9" class="clusterblast-orf" id="dummy-2_h2_1_8"  />
</g>
<g id="a2_009"  >
<polygon points="372,90 377,90 382,85 377,80 372,80 372,90 " style="fill:#d81515; stroke-width:1; stroke:black; " description="&lt;b&gt;AKC91612.1&lt;/b&gt;&lt;br&gt;phenazine biosynthesis protein&lt;br&gt;Location: 11969 - 12448&lt;br&gt;&lt;br&gt;&lt;b&gt;BlastP hit with cds102605_103100&lt;/b&gt;&lt;br&gt;Percentage identity: 74&lt;br&gt;Percentage coverage: 93&lt;br&gt;BLAST bit score: 257&lt;br&gt;E-value: 1.5e-68" locus_tag="AKC91612.1" class="clusterblast-orf" id="dummy-2_h2_1_9"  />
</g>
<g id="a2_0010"  >
<polygon points="385,90 401,90 406,85 401,80 385,80 385,90 " style="fill:#63d815; stroke-width:1; stroke:black; " description="&lt;b&gt;AKC91613.1&lt;/b&gt;&lt;br&gt;phenazine biosynthesis protein&lt;br&gt;Location: 12600 - 13703&lt;br&gt;&lt;br&gt;&lt;b&gt;BlastP hit with cds103152_104325&lt;/b&gt;&lt;br&gt;Percentage identity: 69&lt;br&gt;Percentage coverage: 93&lt;br&gt;BLAST bit score: 510&lt;br&gt;E-value: 1.8e-144" locus_tag="AKC91613.1" class="clusterblast-orf" id="dummy-2_h2_1_10"  />
</g>
<g id="a2_0011"  >
<polygon points="413,90 415,90 420,85 415,80 413,80 413,90 " style="fill:#15b1d8; stroke-width:1; stroke:black; " description="&lt;b&gt;AKC91614.1&lt;/b&gt;&lt;br&gt;phenazine biosynthesis protein&lt;br&gt;Location: 14042 - 14374&lt;br&gt;&lt;br&gt;&lt;b&gt;BlastP hit with cds104361_104985&lt;/b&gt;&lt;br&gt;Percentage identity: 75&lt;br&gt;Percentage coverage: 52&lt;br&gt;BLAST bit score: 168&lt;br&gt;E-value: 1.2e-41" locus_tag="AKC91614.1" class="clusterblast-orf" id="dummy-2_h2_1_11"  />
</g>
<g id="a2_0012"  >
<polygon points="422,90 452,90 457,85 452,80 422,80 422,90 " style="fill:#b115d8; stroke-width:1; stroke:black; " description="&lt;b&gt;AKC91615.1&lt;/b&gt;&lt;br&gt;2-amino-2-deoxy-isochorismate synthase PhzE&lt;br&gt;Location: 14491 - 16284&lt;br&gt;&lt;br&gt;&lt;b&gt;BlastP hit with cds104981_106976&lt;/b&gt;&lt;br&gt;Percentage identity: 67&lt;br&gt;Percentage coverage: 89&lt;br&gt;BLAST bit score: 785&lt;br&gt;E-value: 6.4e-227" locus_tag="AKC91615.1" class="clusterblast-orf" id="dummy-2_h2_1_12"  />
</g>
<g id="a2_0013"  >
<polygon points="464,90 476,90 481,85 476,80 464,80 464,90 " style="fill:#d86315; stroke-width:1; stroke:black; " description="&lt;b&gt;AKC91616.1&lt;/b&gt;&lt;br&gt;2,3-dihydro-3-hydroxyanthranilateisomerase&lt;br&gt;Location: 16642 - 17475&lt;br&gt;&lt;br&gt;&lt;b&gt;BlastP hit with cds107064_107901&lt;/b&gt;&lt;br&gt;Percentage identity: 71&lt;br&gt;Percentage coverage: 99&lt;br&gt;BLAST bit score: 391&lt;br&gt;E-value: 1.5e-108" locus_tag="AKC91616.1" class="clusterblast-orf" id="dummy-2_h2_1_13"  />
</g>
<g id="a2_0014"  >
<polygon points="481,90 489,90 494,85 489,80 481,80 481,90 " style="fill:#15d815; stroke-width:1; stroke:black; " description="&lt;b&gt;AKC91617.1&lt;/b&gt;&lt;br&gt;FMN-dependent oxidase&lt;br&gt;Location: 17486 - 18124&lt;br&gt;&lt;br&gt;&lt;b&gt;BlastP hit with cds108031_108667&lt;/b&gt;&lt;br&gt;Percentage identity: 53&lt;br&gt;Percentage coverage: 100&lt;br&gt;BLAST bit score: 222&lt;br&gt;E-value: 9e-58" locus_tag="AKC91617.1" class="clusterblast-orf" id="dummy-2_h2_1_14"  />
</g>
<g id="a2_0015"  >
<polygon points="495,90 500,90 505,85 500,80 495,80 495,90 " style="fill:white; stroke-width:1; stroke:black; " description="&lt;b&gt;lomo8&lt;/b&gt;&lt;br&gt;flavin reductase&lt;br&gt;Location: 18220 - 18705" locus_tag="lomo8" class="clusterblast-orf" id="dummy-2_h2_1_15"  />
</g>
<g id="a2_0016"  >
<polygon points="505,90 512,90 517,85 512,80 505,80 505,90 " style="fill:white; stroke-width:1; stroke:black; " description="&lt;b&gt;lomo7&lt;/b&gt;&lt;br&gt;quinone oxidoreductase&lt;br&gt;Location: 18726 - 19328" locus_tag="lomo7" class="clusterblast-orf" id="dummy-2_h2_1_16"  />
</g>
<g id="a2_0017"  >
<polygon points="520,90 538,90 543,85 538,80 520,80 520,90 " style="fill:#1563d8; stroke-width:1; stroke:black; " description="&lt;b&gt;lomo6&lt;/b&gt;&lt;br&gt;S-adenosylmethionine synthetase&lt;br&gt;Location: 19456 - 20649&lt;br&gt;&lt;br&gt;&lt;b&gt;BlastP hit with cds113397_114621&lt;/b&gt;&lt;br&gt;Percentage identity: 84&lt;br&gt;Percentage coverage: 100&lt;br&gt;BLAST bit score: 664&lt;br&gt;E-value: 1e-190" locus_tag="lomo6" class="clusterblast-orf" id="dummy-2_h2_1_17"  />
</g>
<g id="a2_0018"  >
<polygon points="550,90 557,90 562,85 557,80 550,80 550,90 " style="fill:#d815b1; stroke-width:1; stroke:black; " description="&lt;b&gt;lomo5&lt;/b&gt;&lt;br&gt;putative hexokinase&lt;br&gt;Location: 21011 - 21619&lt;br&gt;&lt;br&gt;&lt;b&gt;BlastP hit with cds114622_115660&lt;/b&gt;&lt;br&gt;Percentage identity: 64&lt;br&gt;Percentage coverage: 59&lt;br&gt;BLAST bit score: 240&lt;br&gt;E-value: 3.1e-63" locus_tag="lomo5" class="clusterblast-orf" id="dummy-2_h2_1_18"  />
</g>
<g id="a2_0019"  >
<polygon points="563,90 576,90 581,85 576,80 563,80 563,90 " style="fill:#d8b115; stroke-width:1; stroke:black; " description="&lt;b&gt;lomo4&lt;/b&gt;&lt;br&gt;5,10-methylenetetrahydrofolate reductase&lt;br&gt;Location: 21634 - 22551&lt;br&gt;&lt;br&gt;&lt;b&gt;BlastP hit with cds115656_116574&lt;/b&gt;&lt;br&gt;Percentage identity: 78&lt;br&gt;Percentage coverage: 97&lt;br&gt;BLAST bit score: 480&lt;br&gt;E-value: 2e-135" locus_tag="lomo4" class="clusterblast-orf" id="dummy-2_h2_1_19"  />
</g>
<g id="a2_0020"  >
<polygon points="590,90 601,90 606,85 601,80 590,80 590,90 " style="fill:white; stroke-width:1; stroke:black; " description="&lt;b&gt;lomo3&lt;/b&gt;&lt;br&gt;3-phosphoshikimate 1-carboxyvinyltransferase&lt;br&gt;Location: 23035 - 23850" locus_tag="lomo3" class="clusterblast-orf" id="dummy-2_h2_1_20"  />
</g>
<g id="a2_0021"  >
<polygon points="608,90 625,90 630,85 625,80 608,80 608,90 " style="fill:white; stroke-width:1; stroke:black; " description="&lt;b&gt;lomo2&lt;/b&gt;&lt;br&gt;chorismate synthase&lt;br&gt;Location: 23915 - 25048" locus_tag="lomo2" class="clusterblast-orf" id="dummy-2_h2_1_21"  />
</g>
<g id="a2_0022"  >
<polygon points="631,90 638,90 643,85 638,80 631,80 631,90 " style="fill:white; stroke-width:1; stroke:black; " description="&lt;b&gt;lomo1&lt;/b&gt;&lt;br&gt;shikimate kinase&lt;br&gt;Location: 25084 - 25686" locus_tag="lomo1" class="clusterblast-orf" id="dummy-2_h2_1_22"  />
</g>
</svg>
