<svg xmlns="http://www.w3.org/2000/svg" xmlns:xlink="http://www.w3.org/1999/xlink" version="1.1" x="0" y="0" height="230" width="800" viewBox="0 0 800 230" preserveAspectRatio="none"  >
<g label="Query sequence" class="clusterblast-cluster"  >
<text x="5" y="20" class="clusterblast-acc"  >
Query sequence</text>
<line x1="10" y1="35" x2="778.0" y2="35" style="stroke-width:1; stroke:grey; "  />
<polygon points="0,35 5,30 19,30 19,40 5,40 0,35 " style="fill:white; stroke-width:1; stroke:black; " description="&lt;b&gt;cds63_924&lt;/b&gt;&lt;br&gt;hypothetical protein&lt;br&gt;Location: 63 - 924" locus_tag="cds63_924" class="clusterblast-orf" id="dummy-1_q0_0_all"  />
<polygon points="22,35 27,30 31,30 31,40 27,40 22,35 " style="fill:white; stroke-width:1; stroke:black; " description="&lt;b&gt;cds1063_1474&lt;/b&gt;&lt;br&gt;hypothetical protein&lt;br&gt;Location: 1063 - 1474" locus_tag="cds1063_1474" class="clusterblast-orf" id="dummy-1_q1_0_all"  />
<polygon points="37,40 38,40 43,35 38,30 37,30 37,40 " style="fill:white; stroke-width:1; stroke:black; " description="&lt;b&gt;cds1786_2032&lt;/b&gt;&lt;br&gt;hypothetical protein&lt;br&gt;Location: 1786 - 2032" locus_tag="cds1786_2032" class="clusterblast-orf" id="dummy-1_q2_0_all"  />
<polygon points="45,35 49,30 49,40 45,35 " style="fill:white; stroke-width:1; stroke:black; " description="&lt;b&gt;cds2110_2305&lt;/b&gt;&lt;br&gt;hypothetical protein&lt;br&gt;Location: 2110 - 2305" locus_tag="cds2110_2305" class="clusterblast-orf" id="dummy-1_q3_0_all"  />
<polygon points="49,35 54,30 65,30 65,40 54,40 49,35 " style="fill:white; stroke-width:1; stroke:black; " description="&lt;b&gt;cds2301_3054&lt;/b&gt;&lt;br&gt;hypothetical protein&lt;br&gt;Location: 2301 - 3054" locus_tag="cds2301_3054" class="clusterblast-orf" id="dummy-1_q4_0_all"  />
<polygon points="70,40 74,40 79,35 74,30 70,30 70,40 " style="fill:white; stroke-width:1; stroke:black; " description="&lt;b&gt;cds3251_3692&lt;/b&gt;&lt;br&gt;hypothetical protein&lt;br&gt;Location: 3251 - 3692" locus_tag="cds3251_3692" class="clusterblast-orf" id="dummy-1_q5_0_all"  />
<polygon points="84,40 94,40 99,35 94,30 84,30 84,40 " style="fill:white; stroke-width:1; stroke:black; " description="&lt;b&gt;cds3911_4616&lt;/b&gt;&lt;br&gt;hypothetical protein&lt;br&gt;Location: 3911 - 4616" locus_tag="cds3911_4616" class="clusterblast-orf" id="dummy-1_q6_0_all"  />
<polygon points="106,40 109,40 114,35 109,30 106,30 106,40 " style="fill:#d81515; stroke-width:1; stroke:black; " description="&lt;b&gt;cds4897_5269&lt;/b&gt;&lt;br&gt;30S ribosomal protein S12&lt;br&gt;Location: 4897 - 5269" locus_tag="cds4897_5269" class="clusterblast-orf" id="dummy-1_q7_0_all"  />
<polygon points="114,40 119,40 124,35 119,30 114,30 114,40 " style="fill:#5cd815; stroke-width:1; stroke:black; " description="&lt;b&gt;cds5271_5742&lt;/b&gt;&lt;br&gt;30S ribosomal protein S7&lt;br&gt;Location: 5271 - 5742" locus_tag="cds5271_5742" class="clusterblast-orf" id="dummy-1_q8_0_all"  />
<polygon points="125,40 167,40 172,35 167,30 125,30 125,40 " style="fill:#15a3d8; stroke-width:1; stroke:black; " description="&lt;b&gt;cds5780_7910&lt;/b&gt;&lt;br&gt;Elongation factor G&lt;br&gt;Location: 5780 - 7910" locus_tag="cds5780_7910" class="clusterblast-orf" id="dummy-1_q9_0_all"  />
<polygon points="175,40 196,40 201,35 196,30 175,30 175,40 " style="fill:#9115d8; stroke-width:1; stroke:black; " description="&lt;b&gt;cds8057_9251&lt;/b&gt;&lt;br&gt;Elongation factor Tu&lt;br&gt;Location: 8057 - 9251" locus_tag="cds8057_9251" class="clusterblast-orf" id="dummy-1_q10_0_all"  />
<polygon points="206,35 211,30 214,30 214,40 211,40 206,35 " style="fill:#d84a15; stroke-width:1; stroke:black; " description="&lt;b&gt;cds9466_9859&lt;/b&gt;&lt;br&gt;hypothetical protein&lt;br&gt;Location: 9466 - 9859" locus_tag="cds9466_9859" class="clusterblast-orf" id="dummy-1_q11_0_all"  />
<polygon points="214,35 219,30 229,30 229,40 219,40 214,35 " style="fill:#27d815; stroke-width:1; stroke:black; " description="&lt;b&gt;cds9855_10533&lt;/b&gt;&lt;br&gt;hypothetical protein&lt;br&gt;Location: 9855 - 10533" locus_tag="cds9855_10533" class="clusterblast-orf" id="dummy-1_q12_0_all"  />
<polygon points="229,35 234,30 272,30 272,40 234,40 229,35 " style="fill:#156ed8; stroke-width:1; stroke:black; " description="&lt;b&gt;cds10547_12503&lt;/b&gt;&lt;br&gt;hypothetical protein&lt;br&gt;Location: 10547 - 12503" locus_tag="cds10547_12503" class="clusterblast-orf" id="dummy-1_q13_0_all"  />
<polygon points="273,35 278,30 297,30 297,40 278,40 273,35 " style="fill:#c715d8; stroke-width:1; stroke:black; " description="&lt;b&gt;cds12521_13655&lt;/b&gt;&lt;br&gt;hypothetical protein&lt;br&gt;Location: 12521 - 13655" locus_tag="cds12521_13655" class="clusterblast-orf" id="dummy-1_q14_0_all"  />
<polygon points="300,35 303,30 303,40 300,35 " style="fill:#d88015; stroke-width:1; stroke:black; " description="&lt;b&gt;cds13773_13926&lt;/b&gt;&lt;br&gt;hypothetical protein&lt;br&gt;Location: 13773 - 13926" locus_tag="cds13773_13926" class="clusterblast-orf" id="dummy-1_q15_0_all"  />
<polygon points="306,35 310,30 310,40 306,35 " style="fill:#15d839; stroke-width:1; stroke:black; " description="&lt;b&gt;cds14028_14223&lt;/b&gt;&lt;br&gt;hypothetical protein&lt;br&gt;Location: 14028 - 14223" locus_tag="cds14028_14223" class="clusterblast-orf" id="dummy-1_q16_0_all"  />
<polygon points="311,35 316,30 332,30 332,40 316,40 311,35 " style="fill:#1539d8; stroke-width:1; stroke:black; " description="&lt;b&gt;cds14277_15255&lt;/b&gt;&lt;br&gt;hypothetical protein&lt;br&gt;Location: 14277 - 15255" locus_tag="cds14277_15255" class="clusterblast-orf" id="dummy-1_q17_0_all"  />
<polygon points="332,35 337,30 390,30 390,40 337,40 332,35 " style="fill:#d815b5; stroke-width:1; stroke:black; " description="&lt;b&gt;cds15235_17896&lt;/b&gt;&lt;br&gt;hypothetical protein&lt;br&gt;Location: 15235 - 17896" locus_tag="cds15235_17896" class="clusterblast-orf" id="dummy-1_q18_0_all"  />
<polygon points="391,35 396,30 433,30 433,40 396,40 391,35 " style="fill:#d8b515; stroke-width:1; stroke:black; " description="&lt;b&gt;cds17924_19844&lt;/b&gt;&lt;br&gt;hypothetical protein&lt;br&gt;Location: 17924 - 19844" locus_tag="cds17924_19844" class="clusterblast-orf" id="dummy-1_q19_0_all"  />
<polygon points="433,35 438,30 471,30 471,40 438,40 433,35 " style="fill:#15d86e; stroke-width:1; stroke:black; " description="&lt;b&gt;cds19840_21598&lt;/b&gt;&lt;br&gt;hypothetical protein&lt;br&gt;Location: 19840 - 21598" locus_tag="cds19840_21598" class="clusterblast-orf" id="dummy-1_q20_0_all"  />
<polygon points="472,35 477,30 487,30 487,40 477,40 472,35 " style="fill:#2715d8; stroke-width:1; stroke:black; " description="&lt;b&gt;cds21626_22331&lt;/b&gt;&lt;br&gt;hypothetical protein&lt;br&gt;Location: 21626 - 22331" locus_tag="cds21626_22331" class="clusterblast-orf" id="dummy-1_q21_0_all"  />
<polygon points="488,35 493,30 523,30 523,40 493,40 488,35 " style="fill:#d81580; stroke-width:1; stroke:black; " description="&lt;b&gt;cds22334_23948&lt;/b&gt;&lt;br&gt;hypothetical protein&lt;br&gt;Location: 22334 - 23948" locus_tag="cds22334_23948" class="clusterblast-orf" id="dummy-1_q22_0_all"  />
<polygon points="524,35 529,30 537,30 537,40 529,40 524,35 " style="fill:#c7d815; stroke-width:1; stroke:black; " description="&lt;b&gt;cds23989_24595&lt;/b&gt;&lt;br&gt;hypothetical protein&lt;br&gt;Location: 23989 - 24595" locus_tag="cds23989_24595" class="clusterblast-orf" id="dummy-1_q23_0_all"  />
<polygon points="538,35 543,30 567,30 567,40 543,40 538,35 " style="fill:#15d8a3; stroke-width:1; stroke:black; " description="&lt;b&gt;cds24615_25944&lt;/b&gt;&lt;br&gt;hypothetical protein&lt;br&gt;Location: 24615 - 25944" locus_tag="cds24615_25944" class="clusterblast-orf" id="dummy-1_q24_0_all"  />
<polygon points="577,40 586,40 591,35 586,30 577,30 577,40 " style="fill:#5c15d8; stroke-width:1; stroke:black; " description="&lt;b&gt;cds26401_27034&lt;/b&gt;&lt;br&gt;2-methoxy-6-polyprenyl-1,4-benzoquinol methylase, mitochondrial&lt;br&gt;Location: 26401 - 27034" locus_tag="cds26401_27034" class="clusterblast-orf" id="dummy-1_q25_0_all"  />
<polygon points="595,40 616,40 621,35 616,30 595,30 595,40 " style="fill:#d8154a; stroke-width:1; stroke:black; " description="&lt;b&gt;cds27231_28431&lt;/b&gt;&lt;br&gt;Erythromycin C-12 hydroxylase&lt;br&gt;Location: 27231 - 28431" locus_tag="cds27231_28431" class="clusterblast-orf" id="dummy-1_q26_0_all"  />
<polygon points="623,40 635,40 640,35 635,30 623,30 623,40 " style="fill:#91d815; stroke-width:1; stroke:black; " description="&lt;b&gt;cds28501_29305&lt;/b&gt;&lt;br&gt;23S rRNA (adenosine(1067)-2'-O)-methyltransferase&lt;br&gt;Location: 28501 - 29305" locus_tag="cds28501_29305" class="clusterblast-orf" id="dummy-1_q27_0_all"  />
<polygon points="642,35 647,30 689,30 689,40 647,40 642,35 " style="fill:#15d8d8; stroke-width:1; stroke:black; " description="&lt;b&gt;cds29404_31543&lt;/b&gt;&lt;br&gt;hypothetical protein&lt;br&gt;Location: 29404 - 31543" locus_tag="cds29404_31543" class="clusterblast-orf" id="dummy-1_q28_0_all"  />
<polygon points="693,35 698,30 714,30 714,40 698,40 693,35 " style="fill:white; stroke-width:1; stroke:black; " description="&lt;b&gt;cds31727_32669&lt;/b&gt;&lt;br&gt;hypothetical protein&lt;br&gt;Location: 31727 - 32669" locus_tag="cds31727_32669" class="clusterblast-orf" id="dummy-1_q29_0_all"  />
<polygon points="723,40 745,40 750,35 745,30 723,30 723,40 " style="fill:white; stroke-width:1; stroke:black; " description="&lt;b&gt;cds33101_34295&lt;/b&gt;&lt;br&gt;hypothetical protein&lt;br&gt;Location: 33101 - 34295" locus_tag="cds33101_34295" class="clusterblast-orf" id="dummy-1_q30_0_all"  />
<polygon points="750,35 755,30 760,30 760,40 755,40 750,35 " style="fill:white; stroke-width:1; stroke:black; " description="&lt;b&gt;cds34307_34760&lt;/b&gt;&lt;br&gt;IS1595 family transposase ISPaen4&lt;br&gt;Location: 34307 - 34760" locus_tag="cds34307_34760" class="clusterblast-orf" id="dummy-1_q31_0_all"  />
<polygon points="760,35 765,30 780,30 780,40 765,40 760,35 " style="fill:white; stroke-width:1; stroke:black; " description="&lt;b&gt;cds34793_35672&lt;/b&gt;&lt;br&gt;hypothetical protein&lt;br&gt;Location: 34793 - 35672" locus_tag="cds34793_35672" class="clusterblast-orf" id="dummy-1_q32_0_all"  />
</g>
<g label="BGC0001753" description="BGC0001753_c1: radamycin / globimycin (94% of genes show similarity), RiPP" class="clusterblast-cluster"  >
<text x="5" y="70" class="clusterblast-acc"  >
<a xlink:href="https://mibig.secondarymetabolites.org/go/BGC0001753/1" target="_blank">BGC0001753</a>:                                                           radamycin / globimycin (94% of genes show similarity), RiPP</text>
<line x1="10" y1="85" x2="778.0" y2="85" style="stroke-width:1; stroke:grey; "  />
</g>
<g id="a1_000"  >
<polygon points="163,85 168,80 171,80 171,90 168,90 163,85 " style="fill:#d84a15; stroke-width:1; stroke:black; " description="&lt;b&gt;IF53_RS0104215&lt;/b&gt;&lt;br&gt;hypothetical protein&lt;br&gt;Location: 20652 - 20314&lt;br&gt;&lt;br&gt;&lt;b&gt;BlastP hit with cds9466_9859&lt;/b&gt;&lt;br&gt;Percentage identity: 91&lt;br&gt;Percentage coverage: 78&lt;br&gt;BLAST bit score: 195&lt;br&gt;E-value: 7.3e-50" locus_tag="IF53_RS0104215" class="clusterblast-orf" id="dummy-1_h1_1_0"  />
</g>
<g id="a1_001"  >
<polygon points="171,85 176,80 185,80 185,90 176,90 171,85 " style="fill:#27d815; stroke-width:1; stroke:black; " description="&lt;b&gt;IF53_RS0104210&lt;/b&gt;&lt;br&gt;hypothetical protein&lt;br&gt;Location: 20310 - 19645&lt;br&gt;&lt;br&gt;&lt;b&gt;BlastP hit with cds9855_10533&lt;/b&gt;&lt;br&gt;Percentage identity: 92&lt;br&gt;Percentage coverage: 99&lt;br&gt;BLAST bit score: 428&lt;br&gt;E-value: 5.2e-120" locus_tag="IF53_RS0104210" class="clusterblast-orf" id="dummy-1_h1_1_1"  />
</g>
<g id="a1_002"  >
<polygon points="186,85 191,80 229,80 229,90 191,90 186,85 " style="fill:#156ed8; stroke-width:1; stroke:black; " description="&lt;b&gt;IF53_RS0104205&lt;/b&gt;&lt;br&gt;RiPP maturation radical SAM protein 1&lt;br&gt;Location: 19621 - 17657&lt;br&gt;&lt;br&gt;&lt;b&gt;BlastP hit with cds10547_12503&lt;/b&gt;&lt;br&gt;Percentage identity: 93&lt;br&gt;Percentage coverage: 101&lt;br&gt;BLAST bit score: 1267&lt;br&gt;E-value: 0.0" locus_tag="IF53_RS0104205" class="clusterblast-orf" id="dummy-1_h1_1_2"  />
</g>
<g id="a1_003"  >
<polygon points="230,85 235,80 254,80 254,90 235,90 230,85 " style="fill:#c715d8; stroke-width:1; stroke:black; " description="&lt;b&gt;IF53_RS0104200&lt;/b&gt;&lt;br&gt;hypothetical protein&lt;br&gt;Location: 17607 - 16507&lt;br&gt;&lt;br&gt;&lt;b&gt;BlastP hit with cds12521_13655&lt;/b&gt;&lt;br&gt;Percentage identity: 88&lt;br&gt;Percentage coverage: 97&lt;br&gt;BLAST bit score: 647&lt;br&gt;E-value: 1.2e-185" locus_tag="IF53_RS0104200" class="clusterblast-orf" id="dummy-1_h1_1_3"  />
</g>
<g id="a1_004"  >
<polygon points="257,85 260,80 260,90 257,85 " style="fill:#d88015; stroke-width:1; stroke:black; " description="&lt;b&gt;IF53_RS1000000135465&lt;/b&gt;&lt;br&gt;thiocillin/thiostrepton family thiazolyl peptide&lt;br&gt;Location: 16394 - 16242&lt;br&gt;&lt;br&gt;&lt;b&gt;BlastP hit with cds13773_13926&lt;/b&gt;&lt;br&gt;Percentage identity: 100&lt;br&gt;Percentage coverage: 100&lt;br&gt;BLAST bit score: 91&lt;br&gt;E-value: 4.4e-19" locus_tag="IF53_RS1000000135465" class="clusterblast-orf" id="dummy-1_h1_1_4"  />
</g>
<g id="a1_005"  >
<polygon points="262,85 266,80 266,90 262,85 " style="fill:#15d839; stroke-width:1; stroke:black; " description="&lt;b&gt;IF53_RS1000000135460&lt;/b&gt;&lt;br&gt;thiocillin/thiostrepton family thiazolyl peptide&lt;br&gt;Location: 16142 - 15987&lt;br&gt;&lt;br&gt;&lt;b&gt;BlastP hit with cds14028_14223&lt;/b&gt;&lt;br&gt;Percentage identity: 97&lt;br&gt;Percentage coverage: 50&lt;br&gt;BLAST bit score: 61&lt;br&gt;E-value: 6.2e-10" locus_tag="IF53_RS1000000135460" class="clusterblast-orf" id="dummy-1_h1_1_5"  />
</g>
<g id="a1_006"  >
<polygon points="268,85 273,80 289,80 289,90 273,90 268,85 " style="fill:#1539d8; stroke-width:1; stroke:black; " description="&lt;b&gt;IF53_RS0104185&lt;/b&gt;&lt;br&gt;hypothetical protein&lt;br&gt;Location: 15875 - 14913&lt;br&gt;&lt;br&gt;&lt;b&gt;BlastP hit with cds14277_15255&lt;/b&gt;&lt;br&gt;Percentage identity: 88&lt;br&gt;Percentage coverage: 98&lt;br&gt;BLAST bit score: 562&lt;br&gt;E-value: 3.3e-160" locus_tag="IF53_RS0104185" class="clusterblast-orf" id="dummy-1_h1_1_6"  />
</g>
<g id="a1_007"  >
<polygon points="289,85 294,80 347,80 347,90 294,90 289,85 " style="fill:#d815b5; stroke-width:1; stroke:black; " description="&lt;b&gt;IF53_RS0104180&lt;/b&gt;&lt;br&gt;lantibiotic dehydratase&lt;br&gt;Location: 14932 - 12272&lt;br&gt;&lt;br&gt;&lt;b&gt;BlastP hit with cds15235_17896&lt;/b&gt;&lt;br&gt;Percentage identity: 92&lt;br&gt;Percentage coverage: 100&lt;br&gt;BLAST bit score: 1646&lt;br&gt;E-value: 0.0" locus_tag="IF53_RS0104180" class="clusterblast-orf" id="dummy-1_h1_1_7"  />
</g>
<g id="a1_008"  >
<polygon points="348,85 353,80 388,80 388,90 353,90 348,85 " style="fill:#d8b515; stroke-width:1; stroke:black; " description="&lt;b&gt;IF53_RS0104175&lt;/b&gt;&lt;br&gt;hypothetical protein&lt;br&gt;Location: 12243 - 10387&lt;br&gt;&lt;br&gt;&lt;b&gt;BlastP hit with cds17924_19844&lt;/b&gt;&lt;br&gt;Percentage identity: 94&lt;br&gt;Percentage coverage: 95&lt;br&gt;BLAST bit score: 1166&lt;br&gt;E-value: 0.0" locus_tag="IF53_RS0104175" class="clusterblast-orf" id="dummy-1_h1_1_8"  />
</g>
<g id="a1_009"  >
<polygon points="389,85 394,80 427,80 427,90 394,90 389,85 " style="fill:#15d86e; stroke-width:1; stroke:black; " description="&lt;b&gt;IF53_RS01000000134015&lt;/b&gt;&lt;br&gt;hypothetical protein&lt;br&gt;Location: 10348 - 8600&lt;br&gt;&lt;br&gt;&lt;b&gt;BlastP hit with cds19840_21598&lt;/b&gt;&lt;br&gt;Percentage identity: 82&lt;br&gt;Percentage coverage: 100&lt;br&gt;BLAST bit score: 946&lt;br&gt;E-value: 1.9e-275" locus_tag="IF53_RS01000000134015" class="clusterblast-orf" id="dummy-1_h1_1_9"  />
</g>
<g id="a1_0010"  >
<polygon points="428,85 433,80 443,80 443,90 433,90 428,85 " style="fill:#2715d8; stroke-width:1; stroke:black; " description="&lt;b&gt;IF53_RS0104165&lt;/b&gt;&lt;br&gt;tpaF&lt;br&gt;Location: 8571 - 7873&lt;br&gt;&lt;br&gt;&lt;b&gt;BlastP hit with cds21626_22331&lt;/b&gt;&lt;br&gt;Percentage identity: 89&lt;br&gt;Percentage coverage: 100&lt;br&gt;BLAST bit score: 412&lt;br&gt;E-value: 5.2e-115" locus_tag="IF53_RS0104165" class="clusterblast-orf" id="dummy-1_h1_1_10"  />
</g>
<g id="a1_0011"  >
<polygon points="443,85 448,80 479,80 479,90 448,90 443,85 " style="fill:#d81580; stroke-width:1; stroke:black; " description="&lt;b&gt;IF53_RS0104160&lt;/b&gt;&lt;br&gt;tpaE&lt;br&gt;Location: 7869 - 6256&lt;br&gt;&lt;br&gt;&lt;b&gt;BlastP hit with cds22334_23948&lt;/b&gt;&lt;br&gt;Percentage identity: 90&lt;br&gt;Percentage coverage: 100&lt;br&gt;BLAST bit score: 974&lt;br&gt;E-value: 6.1e-284" locus_tag="IF53_RS0104160" class="clusterblast-orf" id="dummy-1_h1_1_11"  />
</g>
<g id="a1_0012"  >
<polygon points="480,85 485,80 493,80 493,90 485,90 480,85 " style="fill:#c7d815; stroke-width:1; stroke:black; " description="&lt;b&gt;IF53_RS0104155&lt;/b&gt;&lt;br&gt;hypothetical protein&lt;br&gt;Location: 6212 - 5607&lt;br&gt;&lt;br&gt;&lt;b&gt;BlastP hit with cds23989_24595&lt;/b&gt;&lt;br&gt;Percentage identity: 87&lt;br&gt;Percentage coverage: 100&lt;br&gt;BLAST bit score: 363&lt;br&gt;E-value: 3.1e-100" locus_tag="IF53_RS0104155" class="clusterblast-orf" id="dummy-1_h1_1_12"  />
</g>
<g id="a1_0013"  >
<polygon points="493,85 498,80 523,80 523,90 498,90 493,85 " style="fill:#15d8a3; stroke-width:1; stroke:black; " description="&lt;b&gt;IF53_RS0104150&lt;/b&gt;&lt;br&gt;hypothetical protein&lt;br&gt;Location: 5586 - 4243&lt;br&gt;&lt;br&gt;&lt;b&gt;BlastP hit with cds24615_25944&lt;/b&gt;&lt;br&gt;Percentage identity: 92&lt;br&gt;Percentage coverage: 100&lt;br&gt;BLAST bit score: 802&lt;br&gt;E-value: 2.6e-232" locus_tag="IF53_RS0104150" class="clusterblast-orf" id="dummy-1_h1_1_13"  />
</g>
<g id="a1_0014"  >
<polygon points="532,90 541,90 546,85 541,80 532,80 532,90 " style="fill:#5c15d8; stroke-width:1; stroke:black; " description="&lt;b&gt;IF53_RS0104145&lt;/b&gt;&lt;br&gt;class I SAM-dependent methyltransferase&lt;br&gt;Location: 3815 - 3162&lt;br&gt;&lt;br&gt;&lt;b&gt;BlastP hit with cds26401_27034&lt;/b&gt;&lt;br&gt;Percentage identity: 92&lt;br&gt;Percentage coverage: 99&lt;br&gt;BLAST bit score: 404&lt;br&gt;E-value: 7.5e-113" locus_tag="IF53_RS0104145" class="clusterblast-orf" id="dummy-1_h1_1_14"  />
</g>
<g id="a1_0015"  >
<polygon points="550,90 572,90 577,85 572,80 550,80 550,90 " style="fill:#d8154a; stroke-width:1; stroke:black; " description="&lt;b&gt;IF53_RS0104140&lt;/b&gt;&lt;br&gt;cytochrome P450&lt;br&gt;Location: 2977 - 1778&lt;br&gt;&lt;br&gt;&lt;b&gt;BlastP hit with cds27231_28431&lt;/b&gt;&lt;br&gt;Percentage identity: 95&lt;br&gt;Percentage coverage: 100&lt;br&gt;BLAST bit score: 771&lt;br&gt;E-value: 7.6e-223" locus_tag="IF53_RS0104140" class="clusterblast-orf" id="dummy-1_h1_1_15"  />
</g>
<g id="a1_0016"  >
<polygon points="578,90 591,90 596,85 591,80 578,80 578,90 " style="fill:#91d815; stroke-width:1; stroke:black; " description="&lt;b&gt;IF53_RS0104135&lt;/b&gt;&lt;br&gt;NshR/TsnR family 23S rRNA methyltransferase&lt;br&gt;Location: 1705 - 902&lt;br&gt;&lt;br&gt;&lt;b&gt;BlastP hit with cds28501_29305&lt;/b&gt;&lt;br&gt;Percentage identity: 93&lt;br&gt;Percentage coverage: 100&lt;br&gt;BLAST bit score: 467&lt;br&gt;E-value: 1.6e-131" locus_tag="IF53_RS0104135" class="clusterblast-orf" id="dummy-1_h1_1_16"  />
</g>
<g id="a1_0017"  >
<polygon points="600,85 605,80 616,80 616,90 605,90 600,85 " style="fill:white; stroke-width:1; stroke:black; " description="&lt;b&gt;IF53_RS0104130&lt;/b&gt;&lt;br&gt;trypsin-like serine protease&lt;br&gt;Location: 726 - 1" locus_tag="IF53_RS0104130" class="clusterblast-orf" id="dummy-1_h1_1_17"  />
</g>
</svg>
