<svg xmlns="http://www.w3.org/2000/svg" xmlns:xlink="http://www.w3.org/1999/xlink" version="1.1" x="0" y="0" height="50" width="800" viewBox="0 0 800 50" preserveAspectRatio="none"  >
<g label="Query sequence" class="clusterblast-cluster"  >
<text x="5" y="20" class="clusterblast-acc"  >
Query sequence</text>
<line x1="10" y1="35" x2="778.0" y2="35" style="stroke-width:1; stroke:grey; "  />
<polygon points="1,40 94,40 99,35 94,30 1,30 1,40 " style="fill:white; stroke-width:1; stroke:black; " description="&lt;b&gt;cds272476_273388&lt;/b&gt;&lt;br&gt;Multifunctional non-homologous end joining protein LigD&lt;br&gt;Location: 272476 - 273388" locus_tag="cds272476_273388" class="clusterblast-orf" id="subclusterblast-3_q0_0_all"  />
<polygon points="101,35 106,30 214,30 214,40 106,40 101,35 " style="fill:white; stroke-width:1; stroke:black; " description="&lt;b&gt;cds273409_274468&lt;/b&gt;&lt;br&gt;hypothetical protein&lt;br&gt;Location: 273409 - 274468" locus_tag="cds273409_274468" class="clusterblast-orf" id="subclusterblast-3_q1_0_all"  />
<polygon points="224,35 229,30 248,30 248,40 229,40 224,35 " style="fill:white; stroke-width:1; stroke:black; " description="&lt;b&gt;cds274560_274782&lt;/b&gt;&lt;br&gt;hypothetical protein&lt;br&gt;Location: 274560 - 274782" locus_tag="cds274560_274782" class="clusterblast-orf" id="subclusterblast-3_q2_0_all"  />
<polygon points="259,35 264,30 346,30 346,40 264,40 259,35 " style="fill:white; stroke-width:1; stroke:black; " description="&lt;b&gt;cds274881_275691&lt;/b&gt;&lt;br&gt;putative oxidoreductase YohF&lt;br&gt;Location: 274881 - 275691" locus_tag="cds274881_275691" class="clusterblast-orf" id="subclusterblast-3_q3_0_all"  />
<polygon points="361,35 366,30 446,30 446,40 366,40 361,35 " style="fill:white; stroke-width:1; stroke:black; " description="&lt;b&gt;cds275831_276620&lt;/b&gt;&lt;br&gt;hypothetical protein&lt;br&gt;Location: 275831 - 276620" locus_tag="cds275831_276620" class="clusterblast-orf" id="subclusterblast-3_q4_0_all"  />
<polygon points="510,40 537,40 542,35 537,30 510,30 510,40 " style="fill:white; stroke-width:1; stroke:black; " description="&lt;b&gt;cds277224_277515&lt;/b&gt;&lt;br&gt;hypothetical protein&lt;br&gt;Location: 277224 - 277515" locus_tag="cds277224_277515" class="clusterblast-orf" id="subclusterblast-3_q5_0_all"  />
<polygon points="558,40 691,40 696,35 691,30 558,30 558,40 " style="fill:white; stroke-width:1; stroke:black; " description="&lt;b&gt;cds277666_278953&lt;/b&gt;&lt;br&gt;Diaminopimelate decarboxylase&lt;br&gt;Location: 277666 - 278953" locus_tag="cds277666_278953" class="clusterblast-orf" id="subclusterblast-3_q6_0_all"  />
<polygon points="697,35 702,30 719,30 719,40 702,40 697,35 " style="fill:white; stroke-width:1; stroke:black; " description="&lt;b&gt;cds278963_279167&lt;/b&gt;&lt;br&gt;hypothetical protein&lt;br&gt;Location: 278963 - 279167" locus_tag="cds278963_279167" class="clusterblast-orf" id="subclusterblast-3_q7_0_all"  />
<polygon points="735,35 740,30 781,30 781,40 740,40 735,35 " style="fill:white; stroke-width:1; stroke:black; " description="&lt;b&gt;cds279311_279740&lt;/b&gt;&lt;br&gt;Aspartate 1-decarboxylase&lt;br&gt;Location: 279311 - 279740" locus_tag="cds279311_279740" class="clusterblast-orf" id="subclusterblast-3_q8_0_all"  />
</g>
</svg>
