<svg xmlns="http://www.w3.org/2000/svg" xmlns:xlink="http://www.w3.org/1999/xlink" version="1.1" x="0" y="0" height="230" width="800" viewBox="0 0 800 230" preserveAspectRatio="none"  >
<g label="Query sequence" class="clusterblast-cluster"  >
<text x="5" y="20" class="clusterblast-acc"  >
Query sequence</text>
<line x1="10" y1="35" x2="778.0" y2="35" style="stroke-width:1; stroke:grey; "  />
<polygon points="0,40 5,40 10,35 5,30 0,30 0,40 " style="fill:white; stroke-width:1; stroke:black; " description="&lt;b&gt;cds18113_18665&lt;/b&gt;&lt;br&gt;hypothetical protein&lt;br&gt;Location: 18113 - 18665" locus_tag="cds18113_18665" class="clusterblast-orf" id="dummy-1_q0_0_all"  />
<polygon points="11,40 23,40 28,35 23,30 11,30 11,40 " style="fill:white; stroke-width:1; stroke:black; " description="&lt;b&gt;cds18714_19635&lt;/b&gt;&lt;br&gt;hypothetical protein&lt;br&gt;Location: 18714 - 19635" locus_tag="cds18714_19635" class="clusterblast-orf" id="dummy-1_q1_0_all"  />
<polygon points="29,35 34,30 56,30 56,40 34,40 29,35 " style="fill:white; stroke-width:1; stroke:black; " description="&lt;b&gt;cds19700_21182&lt;/b&gt;&lt;br&gt;Spore coat protein A&lt;br&gt;Location: 19700 - 21182" locus_tag="cds19700_21182" class="clusterblast-orf" id="dummy-1_q2_0_all"  />
<polygon points="60,40 71,40 76,35 71,30 60,30 60,40 " style="fill:white; stroke-width:1; stroke:black; " description="&lt;b&gt;cds21412_22282&lt;/b&gt;&lt;br&gt;27-O-demethylrifamycin SV methyltransferase&lt;br&gt;Location: 21412 - 22282" locus_tag="cds21412_22282" class="clusterblast-orf" id="dummy-1_q3_0_all"  />
<polygon points="78,40 94,40 99,35 94,30 78,30 78,40 " style="fill:white; stroke-width:1; stroke:black; " description="&lt;b&gt;cds22348_23494&lt;/b&gt;&lt;br&gt;hypothetical protein&lt;br&gt;Location: 22348 - 23494" locus_tag="cds22348_23494" class="clusterblast-orf" id="dummy-1_q4_0_all"  />
<polygon points="100,35 105,30 126,30 126,40 105,40 100,35 " style="fill:white; stroke-width:1; stroke:black; " description="&lt;b&gt;cds23567_24962&lt;/b&gt;&lt;br&gt;Mitomycin radical oxidase&lt;br&gt;Location: 23567 - 24962" locus_tag="cds23567_24962" class="clusterblast-orf" id="dummy-1_q5_0_all"  />
<polygon points="126,35 131,30 155,30 155,40 131,40 126,35 " style="fill:white; stroke-width:1; stroke:black; " description="&lt;b&gt;cds24958_26524&lt;/b&gt;&lt;br&gt;2-methoxy-6-polyprenyl-1,4-benzoquinol methylase, mitochondrial&lt;br&gt;Location: 24958 - 26524" locus_tag="cds24958_26524" class="clusterblast-orf" id="dummy-1_q6_0_all"  />
<polygon points="159,35 164,30 165,30 165,40 164,40 159,35 " style="fill:white; stroke-width:1; stroke:black; " description="&lt;b&gt;cds26746_27082&lt;/b&gt;&lt;br&gt;hypothetical protein&lt;br&gt;Location: 26746 - 27082" locus_tag="cds26746_27082" class="clusterblast-orf" id="dummy-1_q7_0_all"  />
<polygon points="166,35 171,30 209,30 209,40 171,40 166,35 " style="fill:white; stroke-width:1; stroke:black; " description="&lt;b&gt;cds27150_29475&lt;/b&gt;&lt;br&gt;Periplasmic nitrate reductase&lt;br&gt;Location: 27150 - 29475" locus_tag="cds27150_29475" class="clusterblast-orf" id="dummy-1_q8_0_all"  />
<polygon points="211,40 221,40 226,35 221,30 211,30 211,40 " style="fill:white; stroke-width:1; stroke:black; " description="&lt;b&gt;cds29596_30424&lt;/b&gt;&lt;br&gt;Levodione reductase&lt;br&gt;Location: 29596 - 30424" locus_tag="cds29596_30424" class="clusterblast-orf" id="dummy-1_q9_0_all"  />
<polygon points="227,40 239,40 244,35 239,30 227,30 227,40 " style="fill:white; stroke-width:1; stroke:black; " description="&lt;b&gt;cds30472_31354&lt;/b&gt;&lt;br&gt;F420-dependent glucose-6-phosphate dehydrogenase&lt;br&gt;Location: 30472 - 31354" locus_tag="cds30472_31354" class="clusterblast-orf" id="dummy-1_q10_0_all"  />
<polygon points="247,35 252,30 275,30 275,40 252,40 247,35 " style="fill:white; stroke-width:1; stroke:black; " description="&lt;b&gt;cds31534_33049&lt;/b&gt;&lt;br&gt;Aclacinomycin-N/aclacinomycin-A oxidase&lt;br&gt;Location: 31534 - 33049" locus_tag="cds31534_33049" class="clusterblast-orf" id="dummy-1_q11_0_all"  />
<polygon points="278,35 283,30 304,30 304,40 283,40 278,35 " style="fill:white; stroke-width:1; stroke:black; " description="&lt;b&gt;cds33232_34657&lt;/b&gt;&lt;br&gt;sn-glycerol-3-phosphate-binding periplasmic protein UgpB&lt;br&gt;Location: 33232 - 34657" locus_tag="cds33232_34657" class="clusterblast-orf" id="dummy-1_q12_0_all"  />
<polygon points="309,40 327,40 332,35 327,30 309,30 309,40 " style="fill:white; stroke-width:1; stroke:black; " description="&lt;b&gt;cds34927_36169&lt;/b&gt;&lt;br&gt;Flavin-dependent monooxygenase, oxygenase subunit HsaA&lt;br&gt;Location: 34927 - 36169" locus_tag="cds34927_36169" class="clusterblast-orf" id="dummy-1_q13_0_all"  />
<polygon points="334,40 356,40 361,35 356,30 334,30 334,40 " style="fill:white; stroke-width:1; stroke:black; " description="&lt;b&gt;cds36277_37717&lt;/b&gt;&lt;br&gt;hypothetical protein&lt;br&gt;Location: 36277 - 37717" locus_tag="cds36277_37717" class="clusterblast-orf" id="dummy-1_q14_0_all"  />
<polygon points="361,40 408,40 413,35 408,30 361,30 361,40 " style="fill:white; stroke-width:1; stroke:black; " description="&lt;b&gt;cds37748_40562&lt;/b&gt;&lt;br&gt;Dimodular nonribosomal peptide synthase&lt;br&gt;Location: 37748 - 40562" locus_tag="cds37748_40562" class="clusterblast-orf" id="dummy-1_q15_0_all"  />
<polygon points="414,40 439,40 444,35 439,30 414,30 414,40 " style="fill:white; stroke-width:1; stroke:black; " description="&lt;b&gt;cds40635_42261&lt;/b&gt;&lt;br&gt;MIO-dependent tyrosine 2,3-aminomutase&lt;br&gt;Location: 40635 - 42261" locus_tag="cds40635_42261" class="clusterblast-orf" id="dummy-1_q16_0_all"  />
<polygon points="446,40 466,40 471,35 466,30 446,30 446,40 " style="fill:white; stroke-width:1; stroke:black; " description="&lt;b&gt;cds42368_43712&lt;/b&gt;&lt;br&gt;Linear gramicidin synthase subunit B&lt;br&gt;Location: 42368 - 43712" locus_tag="cds42368_43712" class="clusterblast-orf" id="dummy-1_q17_0_all"  />
<polygon points="472,35 477,30 501,30 501,40 477,40 472,35 " style="fill:white; stroke-width:1; stroke:black; " description="&lt;b&gt;cds43769_45353&lt;/b&gt;&lt;br&gt;4-nitrophenol 2-monooxygenase, oxygenase component&lt;br&gt;Location: 43769 - 45353" locus_tag="cds43769_45353" class="clusterblast-orf" id="dummy-1_q18_0_all"  />
<polygon points="506,40 523,40 528,35 523,30 506,30 506,40 " style="fill:white; stroke-width:1; stroke:black; " description="&lt;b&gt;cds45596_46781&lt;/b&gt;&lt;br&gt;Flavin-dependent monooxygenase, oxygenase subunit HsaA&lt;br&gt;Location: 45596 - 46781" locus_tag="cds45596_46781" class="clusterblast-orf" id="dummy-1_q19_0_all"  />
<polygon points="529,40 532,40 537,35 532,30 529,30 529,40 " style="fill:white; stroke-width:1; stroke:black; " description="&lt;b&gt;cds46844_47279&lt;/b&gt;&lt;br&gt;hypothetical protein&lt;br&gt;Location: 46844 - 47279" locus_tag="cds46844_47279" class="clusterblast-orf" id="dummy-1_q20_0_all"  />
<polygon points="538,35 543,30 561,30 561,40 543,40 538,35 " style="fill:white; stroke-width:1; stroke:black; " description="&lt;b&gt;cds47364_48612&lt;/b&gt;&lt;br&gt;2-hydroxy-5-methyl-1-naphthoate 7-hydroxylase&lt;br&gt;Location: 47364 - 48612" locus_tag="cds47364_48612" class="clusterblast-orf" id="dummy-1_q21_0_all"  />
<polygon points="563,35 568,30 579,30 579,40 568,40 563,35 " style="fill:white; stroke-width:1; stroke:black; " description="&lt;b&gt;cds48705_49569&lt;/b&gt;&lt;br&gt;hypothetical protein&lt;br&gt;Location: 48705 - 49569" locus_tag="cds48705_49569" class="clusterblast-orf" id="dummy-1_q22_0_all"  />
<polygon points="580,35 585,30 585,30 585,40 585,40 580,35 " style="fill:white; stroke-width:1; stroke:black; " description="&lt;b&gt;cds49631_49904&lt;/b&gt;&lt;br&gt;hypothetical protein&lt;br&gt;Location: 49631 - 49904" locus_tag="cds49631_49904" class="clusterblast-orf" id="dummy-1_q23_0_all"  />
<polygon points="588,35 593,30 604,30 604,40 593,40 588,35 " style="fill:#d81515; stroke-width:1; stroke:black; " description="&lt;b&gt;cds50037_50910&lt;/b&gt;&lt;br&gt;Glucose-1-phosphate thymidylyltransferase 1&lt;br&gt;Location: 50037 - 50910" locus_tag="cds50037_50910" class="clusterblast-orf" id="dummy-1_q24_0_all"  />
<polygon points="605,35 610,30 627,30 627,40 610,40 605,35 " style="fill:#4dd815; stroke-width:1; stroke:black; " description="&lt;b&gt;cds50964_52185&lt;/b&gt;&lt;br&gt;hypothetical protein&lt;br&gt;Location: 50964 - 52185" locus_tag="cds50964_52185" class="clusterblast-orf" id="dummy-1_q25_0_all"  />
<polygon points="630,35 635,30 653,30 653,40 635,40 630,35 " style="fill:#1585d8; stroke-width:1; stroke:black; " description="&lt;b&gt;cds52342_53581&lt;/b&gt;&lt;br&gt;hypothetical protein&lt;br&gt;Location: 52342 - 53581" locus_tag="cds52342_53581" class="clusterblast-orf" id="dummy-1_q26_0_all"  />
<polygon points="653,35 658,30 677,30 677,40 658,40 653,35 " style="fill:white; stroke-width:1; stroke:black; " description="&lt;b&gt;cds53600_54893&lt;/b&gt;&lt;br&gt;Aclacinomycin-T 2-deoxy-L-fucose transferase&lt;br&gt;Location: 53600 - 54893" locus_tag="cds53600_54893" class="clusterblast-orf" id="dummy-1_q27_0_all"  />
<polygon points="678,35 683,30 699,30 699,40 683,40 678,35 " style="fill:#d815bc; stroke-width:1; stroke:black; " description="&lt;b&gt;cds54963_56073&lt;/b&gt;&lt;br&gt;dTDP-3-amino-3,4,6-trideoxy-alpha-D-glucose transaminase&lt;br&gt;Location: 54963 - 56073" locus_tag="cds54963_56073" class="clusterblast-orf" id="dummy-1_q28_0_all"  />
<polygon points="703,35 708,30 728,30 728,40 708,40 703,35 " style="fill:#d8bc15; stroke-width:1; stroke:black; " description="&lt;b&gt;cds56275_57670&lt;/b&gt;&lt;br&gt;dTDP-4-dehydro-6-deoxy-alpha-D-glucopyranose 2,3-dehydratase&lt;br&gt;Location: 56275 - 57670" locus_tag="cds56275_57670" class="clusterblast-orf" id="dummy-1_q29_0_all"  />
<polygon points="734,40 748,40 753,35 748,30 734,30 734,40 " style="fill:#15d885; stroke-width:1; stroke:black; " description="&lt;b&gt;cds57984_58992&lt;/b&gt;&lt;br&gt;dTDP-glucose 4,6-dehydratase&lt;br&gt;Location: 57984 - 58992" locus_tag="cds57984_58992" class="clusterblast-orf" id="dummy-1_q30_0_all"  />
<polygon points="753,35 758,30 780,30 780,40 758,40 753,35 " style="fill:#4d15d8; stroke-width:1; stroke:black; " description="&lt;b&gt;cds59038_60466&lt;/b&gt;&lt;br&gt;UDP-N-acetyl-D-glucosamine 6-dehydrogenase&lt;br&gt;Location: 59038 - 60466" locus_tag="cds59038_60466" class="clusterblast-orf" id="dummy-1_q31_0_all"  />
</g>
<g label="AY271660" description="AY271660_c3: maduropeptin aminosugar (madurose) (60% of genes show similarity), sugar" class="clusterblast-cluster"  >
<text x="5" y="70" class="clusterblast-acc"  >
AY271660_c3: maduropeptin aminosugar (madurose) (60% of genes show similarity), sugar</text>
<line x1="10" y1="85" x2="778.0" y2="85" style="stroke-width:1; stroke:grey; "  />
</g>
<g id="a1_000"  >
<polygon points="295,90 312,90 317,85 312,80 295,80 295,90 " style="fill:white; stroke-width:1; stroke:black; " description="&lt;b&gt;AY271660_3_mdpA5&lt;/b&gt;&lt;br&gt;aminotransferase&lt;br&gt;Location: 22661 - 21450" locus_tag="AY271660_3_mdpA5" class="clusterblast-orf" id="dummy-1_h1_2_0"  />
</g>
<g id="a1_001"  >
<polygon points="317,90 337,90 342,85 337,80 317,80 317,90 " style="fill:#4d15d8; stroke-width:1; stroke:black; " description="&lt;b&gt;AY271660_3_mdpA2&lt;/b&gt;&lt;br&gt;NDP glucose dehydrogenase&lt;br&gt;Location: 21438 - 20095&lt;br&gt;&lt;br&gt;&lt;b&gt;BlastP hit with cds59038_60466&lt;/b&gt;&lt;br&gt;Percentage identity: 65&lt;br&gt;Percentage coverage: 92&lt;br&gt;BLAST bit score: 545&lt;br&gt;E-value: 0.0" locus_tag="AY271660_3_mdpA2" class="clusterblast-orf" id="dummy-1_h1_2_1"  />
</g>
<g id="a1_002"  >
<polygon points="342,90 355,90 360,85 355,80 342,80 342,90 " style="fill:#15d885; stroke-width:1; stroke:black; " description="&lt;b&gt;AY271660_3_mdpA3&lt;/b&gt;&lt;br&gt;glucuronic acid decarboxylase&lt;br&gt;Location: 20092 - 19106&lt;br&gt;&lt;br&gt;&lt;b&gt;BlastP hit with cds57984_58992&lt;/b&gt;&lt;br&gt;Percentage identity: 66&lt;br&gt;Percentage coverage: 98&lt;br&gt;BLAST bit score: 428&lt;br&gt;E-value: 5.65e-153" locus_tag="AY271660_3_mdpA3" class="clusterblast-orf" id="dummy-1_h1_2_2"  />
</g>
<g id="a1_003"  >
<polygon points="392,85 397,80 414,80 414,90 397,90 392,85 " style="fill:#4dd815; stroke-width:1; stroke:black; " description="&lt;b&gt;AY271660_3_mdpA4&lt;/b&gt;&lt;br&gt;C-methyltransferase&lt;br&gt;Location: 17389 - 16169&lt;br&gt;&lt;br&gt;&lt;b&gt;BlastP hit with cds50964_52185&lt;/b&gt;&lt;br&gt;Percentage identity: 54&lt;br&gt;Percentage coverage: 100&lt;br&gt;BLAST bit score: 434&lt;br&gt;E-value: 3.24e-153" locus_tag="AY271660_3_mdpA4" class="clusterblast-orf" id="dummy-1_h1_2_3"  />
</g>
<g id="a1_004"  >
<polygon points="465,85 470,80 484,80 484,90 470,90 465,85 " style="fill:white; stroke-width:1; stroke:black; " description="&lt;b&gt;AY271660_3_mdpA1&lt;/b&gt;&lt;br&gt;dTDP-1-glucose synthase&lt;br&gt;Location: 13396 - 12362" locus_tag="AY271660_3_mdpA1" class="clusterblast-orf" id="dummy-1_h1_2_4"  />
</g>
</svg>
