<svg xmlns="http://www.w3.org/2000/svg" xmlns:xlink="http://www.w3.org/1999/xlink" version="1.1" x="0" y="0" height="250" width="800" viewBox="0 0 800 250" preserveAspectRatio="none"  >
<g label="Query sequence" class="clusterblast-cluster"  >
<text x="5" y="20" class="clusterblast-acc"  >
Query sequence</text>
<line x1="10" y1="35" x2="778.0" y2="35" style="stroke-width:1; stroke:grey; "  />
<polygon points="263,40 267,40 272,35 267,30 263,30 263,40 " style="fill:white; stroke-width:1; stroke:black; " description="&lt;b&gt;cds188_1109&lt;/b&gt;&lt;br&gt;hypothetical protein&lt;br&gt;Location: 188 - 1109" locus_tag="cds188_1109" class="clusterblast-orf" id="subclusterblast-1_q0_0_all"  />
<polygon points="270,35 275,30 276,30 276,40 275,40 270,35 " style="fill:#d81515; stroke-width:1; stroke:black; " description="&lt;b&gt;cds970_1519&lt;/b&gt;&lt;br&gt;FMN reductase (NADH) NtaB&lt;br&gt;Location: 970 - 1519" locus_tag="cds970_1519" class="clusterblast-orf" id="subclusterblast-1_q1_0_all"  />
<polygon points="276,35 280,30 280,40 276,35 " style="fill:#77d815; stroke-width:1; stroke:black; " description="&lt;b&gt;cds1515_1989&lt;/b&gt;&lt;br&gt;hypothetical protein&lt;br&gt;Location: 1515 - 1989" locus_tag="cds1515_1989" class="clusterblast-orf" id="subclusterblast-1_q2_0_all"  />
<polygon points="280,35 285,30 336,30 336,40 285,40 280,35 " style="fill:#15d8d8; stroke-width:1; stroke:black; " description="&lt;b&gt;cds1985_7793&lt;/b&gt;&lt;br&gt;hypothetical protein&lt;br&gt;Location: 1985 - 7793" locus_tag="cds1985_7793" class="clusterblast-orf" id="subclusterblast-1_q3_0_all"  />
<polygon points="336,35 341,30 346,30 346,40 341,40 336,35 " style="fill:#7715d8; stroke-width:1; stroke:black; " description="&lt;b&gt;cds7789_8875&lt;/b&gt;&lt;br&gt;hypothetical protein&lt;br&gt;Location: 7789 - 8875" locus_tag="cds7789_8875" class="clusterblast-orf" id="subclusterblast-1_q4_0_all"  />
<polygon points="346,35 351,30 365,30 365,40 351,40 346,35 " style="fill:#d8a715; stroke-width:1; stroke:black; " description="&lt;b&gt;cds8876_10805&lt;/b&gt;&lt;br&gt;hypothetical protein&lt;br&gt;Location: 8876 - 10805" locus_tag="cds8876_10805" class="clusterblast-orf" id="subclusterblast-1_q5_0_all"  />
<polygon points="365,35 370,30 374,30 374,40 370,40 365,35 " style="fill:#15d846; stroke-width:1; stroke:black; " description="&lt;b&gt;cds10801_11788&lt;/b&gt;&lt;br&gt;hypothetical protein&lt;br&gt;Location: 10801 - 11788" locus_tag="cds10801_11788" class="clusterblast-orf" id="subclusterblast-1_q6_0_all"  />
<polygon points="375,35 380,30 384,30 384,40 380,40 375,35 " style="fill:#1546d8; stroke-width:1; stroke:black; " description="&lt;b&gt;cds11883_12864&lt;/b&gt;&lt;br&gt;hypothetical protein&lt;br&gt;Location: 11883 - 12864" locus_tag="cds11883_12864" class="clusterblast-orf" id="subclusterblast-1_q7_0_all"  />
<polygon points="386,35 390,30 390,40 386,35 " style="fill:#d815a7; stroke-width:1; stroke:black; " description="&lt;b&gt;cds13002_13446&lt;/b&gt;&lt;br&gt;putative HTH-type transcriptional regulator&lt;br&gt;Location: 13002 - 13446" locus_tag="cds13002_13446" class="clusterblast-orf" id="subclusterblast-1_q8_0_all"  />
<polygon points="391,40 392,40 397,35 392,30 391,30 391,40 " style="fill:white; stroke-width:1; stroke:black; " description="&lt;b&gt;cds13584_14148&lt;/b&gt;&lt;br&gt;hypothetical protein&lt;br&gt;Location: 13584 - 14148" locus_tag="cds13584_14148" class="clusterblast-orf" id="subclusterblast-1_q9_0_all"  />
<polygon points="397,40 401,35 397,30 397,40 " style="fill:white; stroke-width:1; stroke:black; " description="&lt;b&gt;cds14158_14632&lt;/b&gt;&lt;br&gt;hypothetical protein&lt;br&gt;Location: 14158 - 14632" locus_tag="cds14158_14632" class="clusterblast-orf" id="subclusterblast-1_q10_0_all"  />
<polygon points="404,35 409,30 416,30 416,40 409,40 404,35 " style="fill:white; stroke-width:1; stroke:black; " description="&lt;b&gt;cds14902_16138&lt;/b&gt;&lt;br&gt;IS701 family transposase ISSav4&lt;br&gt;Location: 14902 - 16138" locus_tag="cds14902_16138" class="clusterblast-orf" id="subclusterblast-1_q11_0_all"  />
<polygon points="419,40 419,40 424,35 419,30 419,30 419,40 " style="fill:white; stroke-width:1; stroke:black; " description="&lt;b&gt;cds16456_17056&lt;/b&gt;&lt;br&gt;A-factor receptor protein&lt;br&gt;Location: 16456 - 17056" locus_tag="cds16456_17056" class="clusterblast-orf" id="subclusterblast-1_q12_0_all"  />
<polygon points="426,35 431,30 433,30 433,40 431,40 426,35 " style="fill:white; stroke-width:1; stroke:black; " description="&lt;b&gt;cds17181_17952&lt;/b&gt;&lt;br&gt;A-factor type gamma-butyrolactone 1'-reductase (1S-forming)&lt;br&gt;Location: 17181 - 17952" locus_tag="cds17181_17952" class="clusterblast-orf" id="subclusterblast-1_q13_0_all"  />
<polygon points="435,35 440,30 441,30 441,40 440,40 435,35 " style="fill:white; stroke-width:1; stroke:black; " description="&lt;b&gt;cds18115_18766&lt;/b&gt;&lt;br&gt;A-factor receptor protein&lt;br&gt;Location: 18115 - 18766" locus_tag="cds18115_18766" class="clusterblast-orf" id="subclusterblast-1_q14_0_all"  />
<polygon points="442,40 446,40 451,35 446,30 442,30 442,40 " style="fill:white; stroke-width:1; stroke:black; " description="&lt;b&gt;cds18885_19803&lt;/b&gt;&lt;br&gt;hypothetical protein&lt;br&gt;Location: 18885 - 19803" locus_tag="cds18885_19803" class="clusterblast-orf" id="subclusterblast-1_q15_0_all"  />
<polygon points="454,40 463,40 468,35 463,30 454,30 454,40 " style="fill:white; stroke-width:1; stroke:black; " description="&lt;b&gt;cds20145_21585&lt;/b&gt;&lt;br&gt;hypothetical protein&lt;br&gt;Location: 20145 - 21585" locus_tag="cds20145_21585" class="clusterblast-orf" id="subclusterblast-1_q16_0_all"  />
<polygon points="470,35 474,30 474,40 470,35 " style="fill:white; stroke-width:1; stroke:black; " description="&lt;b&gt;cds21807_22245&lt;/b&gt;&lt;br&gt;hypothetical protein&lt;br&gt;Location: 21807 - 22245" locus_tag="cds21807_22245" class="clusterblast-orf" id="subclusterblast-1_q17_0_all"  />
<polygon points="475,35 480,30 483,30 483,40 480,40 475,35 " style="fill:white; stroke-width:1; stroke:black; " description="&lt;b&gt;cds22347_23226&lt;/b&gt;&lt;br&gt;hypothetical protein&lt;br&gt;Location: 22347 - 23226" locus_tag="cds22347_23226" class="clusterblast-orf" id="subclusterblast-1_q18_0_all"  />
<polygon points="487,35 491,30 491,40 487,35 " style="fill:white; stroke-width:1; stroke:black; " description="&lt;b&gt;cds23601_24003&lt;/b&gt;&lt;br&gt;hypothetical protein&lt;br&gt;Location: 23601 - 24003" locus_tag="cds23601_24003" class="clusterblast-orf" id="subclusterblast-1_q19_0_all"  />
<polygon points="491,35 496,30 506,30 506,40 496,40 491,35 " style="fill:white; stroke-width:1; stroke:black; " description="&lt;b&gt;cds23999_25532&lt;/b&gt;&lt;br&gt;hypothetical protein&lt;br&gt;Location: 23999 - 25532" locus_tag="cds23999_25532" class="clusterblast-orf" id="subclusterblast-1_q20_0_all"  />
<polygon points="505,35 510,30 516,30 516,40 510,40 505,35 " style="fill:white; stroke-width:1; stroke:black; " description="&lt;b&gt;cds25521_26649&lt;/b&gt;&lt;br&gt;hypothetical protein&lt;br&gt;Location: 25521 - 26649" locus_tag="cds25521_26649" class="clusterblast-orf" id="subclusterblast-1_q21_0_all"  />
</g>
<g label="AY117439" description="AY117439_c3: neocarzinostatin enediyne (66% of genes show similarity), enediyne" class="clusterblast-cluster"  >
<text x="5" y="70" class="clusterblast-acc"  >
AY117439_c3: neocarzinostatin enediyne (66% of genes show similarity), enediyne</text>
<line x1="10" y1="85" x2="778.0" y2="85" style="stroke-width:1; stroke:grey; "  />
</g>
<g id="a1_000"  >
<polygon points="297,85 302,80 305,80 305,90 302,90 297,85 " style="fill:white; stroke-width:1; stroke:black; " description="&lt;b&gt;AY117439_3_ncsE11&lt;/b&gt;&lt;br&gt;unknown&lt;br&gt;Location: 44775 - 45578" locus_tag="AY117439_3_ncsE11" class="clusterblast-orf" id="subclusterblast-1_all_1_1_0"  />
</g>
<g id="a1_001"  >
<polygon points="306,85 311,80 322,80 322,90 311,90 306,85 " style="fill:white; stroke-width:1; stroke:black; " description="&lt;b&gt;AY117439_3_ncsE9&lt;/b&gt;&lt;br&gt;oxidoreductase&lt;br&gt;Location: 45715 - 47373" locus_tag="AY117439_3_ncsE9" class="clusterblast-orf" id="subclusterblast-1_all_1_1_1"  />
</g>
<g id="a1_002"  >
<polygon points="322,85 327,80 328,80 328,90 327,90 322,85 " style="fill:white; stroke-width:1; stroke:black; " description="&lt;b&gt;AY117439_3_ncsE8&lt;/b&gt;&lt;br&gt;unknown&lt;br&gt;Location: 47370 - 47969" locus_tag="AY117439_3_ncsE8" class="clusterblast-orf" id="subclusterblast-1_all_1_1_2"  />
</g>
<g id="a1_003"  >
<polygon points="349,85 354,80 362,80 362,90 354,90 349,85 " style="fill:white; stroke-width:1; stroke:black; " description="&lt;b&gt;AY117439_3_ncsE7&lt;/b&gt;&lt;br&gt;cytochrome P-450&lt;br&gt;Location: 50199 - 51551" locus_tag="AY117439_3_ncsE7" class="clusterblast-orf" id="subclusterblast-1_all_1_1_3"  />
</g>
<g id="a1_004"  >
<polygon points="362,85 367,80 367,80 367,90 367,90 362,85 " style="fill:#d81515; stroke-width:1; stroke:black; " description="&lt;b&gt;AY117439_3_ncsE6&lt;/b&gt;&lt;br&gt;monooxygenase&lt;br&gt;Location: 51548 - 52096&lt;br&gt;&lt;br&gt;&lt;b&gt;BlastP hit with cds970_1519&lt;/b&gt;&lt;br&gt;Percentage identity: 62&lt;br&gt;Percentage coverage: 91&lt;br&gt;BLAST bit score: 186&lt;br&gt;E-value: 3.6e-62" locus_tag="AY117439_3_ncsE6" class="clusterblast-orf" id="subclusterblast-1_all_1_1_4"  />
</g>
<g id="a1_005"  >
<polygon points="367,85 372,80 372,80 372,90 372,90 367,85 " style="fill:#77d815; stroke-width:1; stroke:black; " description="&lt;b&gt;AY117439_3_ncsE10&lt;/b&gt;&lt;br&gt;thioesterase&lt;br&gt;Location: 52093 - 52554&lt;br&gt;&lt;br&gt;&lt;b&gt;BlastP hit with cds1515_1989&lt;/b&gt;&lt;br&gt;Percentage identity: 51&lt;br&gt;Percentage coverage: 94&lt;br&gt;BLAST bit score: 150&lt;br&gt;E-value: 3.43e-49" locus_tag="AY117439_3_ncsE10" class="clusterblast-orf" id="subclusterblast-1_all_1_1_5"  />
</g>
<g id="a1_006"  >
<polygon points="372,85 377,80 428,80 428,90 377,90 372,85 " style="fill:#15d8d8; stroke-width:1; stroke:black; " description="&lt;b&gt;AY117439_3_ncsE&lt;/b&gt;&lt;br&gt;warhead-forming iterative polyketide synthase&lt;br&gt;Location: 52544 - 58477&lt;br&gt;&lt;br&gt;&lt;b&gt;BlastP hit with cds1985_7793&lt;/b&gt;&lt;br&gt;Percentage identity: 70&lt;br&gt;Percentage coverage: 101&lt;br&gt;BLAST bit score: 2649&lt;br&gt;E-value: 0.0" locus_tag="AY117439_3_ncsE" class="clusterblast-orf" id="subclusterblast-1_all_1_1_6"  />
</g>
<g id="a1_007"  >
<polygon points="428,85 433,80 439,80 439,90 433,90 428,85 " style="fill:#7715d8; stroke-width:1; stroke:black; " description="&lt;b&gt;AY117439_3_ncsE5&lt;/b&gt;&lt;br&gt;putative transporter&lt;br&gt;Location: 58474 - 59568&lt;br&gt;&lt;br&gt;&lt;b&gt;BlastP hit with cds7789_8875&lt;/b&gt;&lt;br&gt;Percentage identity: 67&lt;br&gt;Percentage coverage: 98&lt;br&gt;BLAST bit score: 456&lt;br&gt;E-value: 5.36e-163" locus_tag="AY117439_3_ncsE5" class="clusterblast-orf" id="subclusterblast-1_all_1_1_7"  />
</g>
<g id="a1_008"  >
<polygon points="439,85 444,80 457,80 457,90 444,90 439,85 " style="fill:#d8a715; stroke-width:1; stroke:black; " description="&lt;b&gt;AY117439_3_ncsE4&lt;/b&gt;&lt;br&gt;unknown&lt;br&gt;Location: 59565 - 61475&lt;br&gt;&lt;br&gt;&lt;b&gt;BlastP hit with cds8876_10805&lt;/b&gt;&lt;br&gt;Percentage identity: 67&lt;br&gt;Percentage coverage: 100&lt;br&gt;BLAST bit score: 890&lt;br&gt;E-value: 0.0" locus_tag="AY117439_3_ncsE4" class="clusterblast-orf" id="subclusterblast-1_all_1_1_8"  />
</g>
<g id="a1_009"  >
<polygon points="457,85 462,80 466,80 466,90 462,90 457,85 " style="fill:#15d846; stroke-width:1; stroke:black; " description="&lt;b&gt;AY117439_3_ncsE3&lt;/b&gt;&lt;br&gt;unknown&lt;br&gt;Location: 61472 - 62458&lt;br&gt;&lt;br&gt;&lt;b&gt;BlastP hit with cds10801_11788&lt;/b&gt;&lt;br&gt;Percentage identity: 61&lt;br&gt;Percentage coverage: 98&lt;br&gt;BLAST bit score: 377&lt;br&gt;E-value: 4.35e-133" locus_tag="AY117439_3_ncsE3" class="clusterblast-orf" id="subclusterblast-1_all_1_1_9"  />
</g>
<g id="a1_0010"  >
<polygon points="467,85 472,80 477,80 477,90 472,90 467,85 " style="fill:#1546d8; stroke-width:1; stroke:black; " description="&lt;b&gt;AY117439_3_ncsE2&lt;/b&gt;&lt;br&gt;unknown&lt;br&gt;Location: 62542 - 63522&lt;br&gt;&lt;br&gt;&lt;b&gt;BlastP hit with cds11883_12864&lt;/b&gt;&lt;br&gt;Percentage identity: 67&lt;br&gt;Percentage coverage: 100&lt;br&gt;BLAST bit score: 414&lt;br&gt;E-value: 9.61e-148" locus_tag="AY117439_3_ncsE2" class="clusterblast-orf" id="subclusterblast-1_all_1_1_10"  />
</g>
<g id="a1_0011"  >
<polygon points="478,85 482,80 482,90 478,85 " style="fill:#d815a7; stroke-width:1; stroke:black; " description="&lt;b&gt;AY117439_3_ncsE1&lt;/b&gt;&lt;br&gt;unknown&lt;br&gt;Location: 63625 - 64068&lt;br&gt;&lt;br&gt;&lt;b&gt;BlastP hit with cds13002_13446&lt;/b&gt;&lt;br&gt;Percentage identity: 72&lt;br&gt;Percentage coverage: 100&lt;br&gt;BLAST bit score: 217&lt;br&gt;E-value: 1.29e-75" locus_tag="AY117439_3_ncsE1" class="clusterblast-orf" id="subclusterblast-1_all_1_1_11"  />
</g>
<g label="AY271660" description="AY271660_c2: maduropeptin enediyne (58% of genes show similarity), enediyne" class="clusterblast-cluster"  >
<text x="5" y="120" class="clusterblast-acc"  >
AY271660_c2: maduropeptin enediyne (58% of genes show similarity), enediyne</text>
<line x1="10" y1="135" x2="778.0" y2="135" style="stroke-width:1; stroke:grey; "  />
</g>
<g id="a1_000"  >
<polygon points="292,135 297,130 300,130 300,140 297,140 292,135 " style="fill:white; stroke-width:1; stroke:black; " description="&lt;b&gt;AY271660_2_mdpE11&lt;/b&gt;&lt;br&gt;unknown&lt;br&gt;Location: 54864 - 55667" locus_tag="AY271660_2_mdpE11" class="clusterblast-orf" id="subclusterblast-1_all_1_2_0"  />
</g>
<g id="a1_001"  >
<polygon points="301,135 306,130 311,130 311,140 306,140 301,135 " style="fill:white; stroke-width:1; stroke:black; " description="&lt;b&gt;AY271660_2_mdpM&lt;/b&gt;&lt;br&gt;unknown&lt;br&gt;Location: 55742 - 56839" locus_tag="AY271660_2_mdpM" class="clusterblast-orf" id="subclusterblast-1_all_1_2_1"  />
</g>
<g id="a1_002"  >
<polygon points="311,135 316,130 327,130 327,140 316,140 311,135 " style="fill:white; stroke-width:1; stroke:black; " description="&lt;b&gt;AY271660_2_mdpE8&lt;/b&gt;&lt;br&gt;oxidoreductase&lt;br&gt;Location: 56853 - 58511" locus_tag="AY271660_2_mdpE8" class="clusterblast-orf" id="subclusterblast-1_all_1_2_2"  />
</g>
<g id="a1_003"  >
<polygon points="327,135 332,130 333,130 333,140 332,140 327,135 " style="fill:white; stroke-width:1; stroke:black; " description="&lt;b&gt;AY271660_2_mdpE9&lt;/b&gt;&lt;br&gt;unknown&lt;br&gt;Location: 58508 - 59077" locus_tag="AY271660_2_mdpE9" class="clusterblast-orf" id="subclusterblast-1_all_1_2_3"  />
</g>
<g id="a1_004"  >
<polygon points="357,135 362,130 371,130 371,140 362,140 357,135 " style="fill:white; stroke-width:1; stroke:black; " description="&lt;b&gt;AY271660_2_mdpE7&lt;/b&gt;&lt;br&gt;putative P450 hydroxylase&lt;br&gt;Location: 61675 - 63069" locus_tag="AY271660_2_mdpE7" class="clusterblast-orf" id="subclusterblast-1_all_1_2_4"  />
</g>
<g id="a1_005"  >
<polygon points="371,135 376,130 376,130 376,140 376,140 371,135 " style="fill:#d81515; stroke-width:1; stroke:black; " description="&lt;b&gt;AY271660_2_mdpE6&lt;/b&gt;&lt;br&gt;flavin reductase&lt;br&gt;Location: 63066 - 63617&lt;br&gt;&lt;br&gt;&lt;b&gt;BlastP hit with cds970_1519&lt;/b&gt;&lt;br&gt;Percentage identity: 56&lt;br&gt;Percentage coverage: 97&lt;br&gt;BLAST bit score: 161&lt;br&gt;E-value: 2.18e-52" locus_tag="AY271660_2_mdpE6" class="clusterblast-orf" id="subclusterblast-1_all_1_2_5"  />
</g>
<g id="a1_006"  >
<polygon points="376,135 380,130 380,140 376,135 " style="fill:#77d815; stroke-width:1; stroke:black; " description="&lt;b&gt;AY271660_2_mdpE10&lt;/b&gt;&lt;br&gt;type II thioesterase&lt;br&gt;Location: 63614 - 64072&lt;br&gt;&lt;br&gt;&lt;b&gt;BlastP hit with cds1515_1989&lt;/b&gt;&lt;br&gt;Percentage identity: 48&lt;br&gt;Percentage coverage: 95&lt;br&gt;BLAST bit score: 135&lt;br&gt;E-value: 3.42e-43" locus_tag="AY271660_2_mdpE10" class="clusterblast-orf" id="subclusterblast-1_all_1_2_6"  />
</g>
<g id="a1_007"  >
<polygon points="380,135 385,130 436,130 436,140 385,140 380,135 " style="fill:#15d8d8; stroke-width:1; stroke:black; " description="&lt;b&gt;AY271660_2_mdpE&lt;/b&gt;&lt;br&gt;enediyne polyketide synthase&lt;br&gt;Location: 64077 - 69911&lt;br&gt;&lt;br&gt;&lt;b&gt;BlastP hit with cds1985_7793&lt;/b&gt;&lt;br&gt;Percentage identity: 67&lt;br&gt;Percentage coverage: 101&lt;br&gt;BLAST bit score: 2320&lt;br&gt;E-value: 0.0" locus_tag="AY271660_2_mdpE" class="clusterblast-orf" id="subclusterblast-1_all_1_2_7"  />
</g>
<g id="a1_008"  >
<polygon points="436,135 441,130 446,130 446,140 441,140 436,135 " style="fill:#7715d8; stroke-width:1; stroke:black; " description="&lt;b&gt;AY271660_2_mdpE5&lt;/b&gt;&lt;br&gt;unknown&lt;br&gt;Location: 69908 - 70900&lt;br&gt;&lt;br&gt;&lt;b&gt;BlastP hit with cds7789_8875&lt;/b&gt;&lt;br&gt;Percentage identity: 72&lt;br&gt;Percentage coverage: 83&lt;br&gt;BLAST bit score: 445&lt;br&gt;E-value: 2.72e-159" locus_tag="AY271660_2_mdpE5" class="clusterblast-orf" id="subclusterblast-1_all_1_2_8"  />
</g>
<g id="a1_009"  >
<polygon points="446,135 451,130 465,130 465,140 451,140 446,135 " style="fill:#d8a715; stroke-width:1; stroke:black; " description="&lt;b&gt;AY271660_2_mdpE4&lt;/b&gt;&lt;br&gt;unknown&lt;br&gt;Location: 70907 - 72943&lt;br&gt;&lt;br&gt;&lt;b&gt;BlastP hit with cds8876_10805&lt;/b&gt;&lt;br&gt;Percentage identity: 59&lt;br&gt;Percentage coverage: 104&lt;br&gt;BLAST bit score: 755&lt;br&gt;E-value: 0.0" locus_tag="AY271660_2_mdpE4" class="clusterblast-orf" id="subclusterblast-1_all_1_2_9"  />
</g>
<g id="a1_0010"  >
<polygon points="465,135 470,130 474,130 474,140 470,140 465,135 " style="fill:#15d846; stroke-width:1; stroke:black; " description="&lt;b&gt;AY271660_2_mdpE3&lt;/b&gt;&lt;br&gt;hypothetical protein&lt;br&gt;Location: 72947 - 73849&lt;br&gt;&lt;br&gt;&lt;b&gt;BlastP hit with cds10801_11788&lt;/b&gt;&lt;br&gt;Percentage identity: 53&lt;br&gt;Percentage coverage: 91&lt;br&gt;BLAST bit score: 274&lt;br&gt;E-value: 6.97e-93" locus_tag="AY271660_2_mdpE3" class="clusterblast-orf" id="subclusterblast-1_all_1_2_10"  />
</g>
<g id="a1_0011"  >
<polygon points="477,135 482,130 487,130 487,140 482,140 477,135 " style="fill:#1546d8; stroke-width:1; stroke:black; " description="&lt;b&gt;AY271660_2_mdpE2&lt;/b&gt;&lt;br&gt;unknown&lt;br&gt;Location: 74178 - 75173&lt;br&gt;&lt;br&gt;&lt;b&gt;BlastP hit with cds11883_12864&lt;/b&gt;&lt;br&gt;Percentage identity: 61&lt;br&gt;Percentage coverage: 99&lt;br&gt;BLAST bit score: 327&lt;br&gt;E-value: 3.72e-113" locus_tag="AY271660_2_mdpE2" class="clusterblast-orf" id="subclusterblast-1_all_1_2_11"  />
</g>
<g label="AY048670" description="AY048670_c3: C-1027 enediyne (66% of genes show similarity), enediyne" class="clusterblast-cluster"  >
<text x="5" y="170" class="clusterblast-acc"  >
AY048670_c3: C-1027 enediyne (66% of genes show similarity), enediyne</text>
<line x1="10" y1="185" x2="778.0" y2="185" style="stroke-width:1; stroke:grey; "  />
</g>
<g id="a1_000"  >
<polygon points="297,185 302,180 304,180 304,190 302,190 297,185 " style="fill:white; stroke-width:1; stroke:black; " description="&lt;b&gt;AY048670_3_sgcE11&lt;/b&gt;&lt;br&gt;unknown&lt;br&gt;Location: 56922 - 57725" locus_tag="AY048670_3_sgcE11" class="clusterblast-orf" id="subclusterblast-1_all_1_3_0"  />
</g>
<g id="a1_001"  >
<polygon points="305,185 310,180 310,180 310,190 310,190 305,185 " style="fill:#77d815; stroke-width:1; stroke:black; " description="&lt;b&gt;AY048670_3_sgcE10&lt;/b&gt;&lt;br&gt;regulatory protein-like protein&lt;br&gt;Location: 57828 - 58298&lt;br&gt;&lt;br&gt;&lt;b&gt;BlastP hit with cds1515_1989&lt;/b&gt;&lt;br&gt;Percentage identity: 49&lt;br&gt;Percentage coverage: 97&lt;br&gt;BLAST bit score: 141&lt;br&gt;E-value: 2.22e-45" locus_tag="AY048670_3_sgcE10" class="clusterblast-orf" id="subclusterblast-1_all_1_3_1"  />
</g>
<g id="a1_002"  >
<polygon points="311,185 316,180 327,180 327,190 316,190 311,185 " style="fill:white; stroke-width:1; stroke:black; " description="&lt;b&gt;AY048670_3_sgcE9&lt;/b&gt;&lt;br&gt;oxidoreductase&lt;br&gt;Location: 58435 - 60090" locus_tag="AY048670_3_sgcE9" class="clusterblast-orf" id="subclusterblast-1_all_1_3_2"  />
</g>
<g id="a1_003"  >
<polygon points="327,185 332,180 333,180 333,190 332,190 327,185 " style="fill:white; stroke-width:1; stroke:black; " description="&lt;b&gt;AY048670_3_sgcE8&lt;/b&gt;&lt;br&gt;putative regulatory protein&lt;br&gt;Location: 60087 - 60677" locus_tag="AY048670_3_sgcE8" class="clusterblast-orf" id="subclusterblast-1_all_1_3_3"  />
</g>
<g id="a1_004"  >
<polygon points="353,185 358,180 366,180 366,190 358,190 353,185 " style="fill:white; stroke-width:1; stroke:black; " description="&lt;b&gt;AY048670_3_sgcE7&lt;/b&gt;&lt;br&gt;P450 hydroxylase&lt;br&gt;Location: 62782 - 64131" locus_tag="AY048670_3_sgcE7" class="clusterblast-orf" id="subclusterblast-1_all_1_3_4"  />
</g>
<g id="a1_005"  >
<polygon points="366,185 371,180 371,180 371,190 371,190 366,185 " style="fill:#d81515; stroke-width:1; stroke:black; " description="&lt;b&gt;AY048670_3_sgcE6&lt;/b&gt;&lt;br&gt;oxidoreductase&lt;br&gt;Location: 64128 - 64676&lt;br&gt;&lt;br&gt;&lt;b&gt;BlastP hit with cds970_1519&lt;/b&gt;&lt;br&gt;Percentage identity: 70&lt;br&gt;Percentage coverage: 100&lt;br&gt;BLAST bit score: 229&lt;br&gt;E-value: 4.26e-79" locus_tag="AY048670_3_sgcE6" class="clusterblast-orf" id="subclusterblast-1_all_1_3_5"  />
</g>
<g id="a1_006"  >
<polygon points="372,185 377,180 427,180 427,190 377,190 372,185 " style="fill:#15d8d8; stroke-width:1; stroke:black; " description="&lt;b&gt;AY048670_3_sgcE&lt;/b&gt;&lt;br&gt;polyketide synthase&lt;br&gt;Location: 64757 - 70576&lt;br&gt;&lt;br&gt;&lt;b&gt;BlastP hit with cds1985_7793&lt;/b&gt;&lt;br&gt;Percentage identity: 82&lt;br&gt;Percentage coverage: 100&lt;br&gt;BLAST bit score: 3112&lt;br&gt;E-value: 0.0" locus_tag="AY048670_3_sgcE" class="clusterblast-orf" id="subclusterblast-1_all_1_3_6"  />
</g>
<g id="a1_007"  >
<polygon points="427,185 432,180 438,180 438,190 432,190 427,185 " style="fill:#7715d8; stroke-width:1; stroke:black; " description="&lt;b&gt;AY048670_3_sgcE5&lt;/b&gt;&lt;br&gt;unknown&lt;br&gt;Location: 70573 - 71703&lt;br&gt;&lt;br&gt;&lt;b&gt;BlastP hit with cds7789_8875&lt;/b&gt;&lt;br&gt;Percentage identity: 80&lt;br&gt;Percentage coverage: 104&lt;br&gt;BLAST bit score: 590&lt;br&gt;E-value: 0.0" locus_tag="AY048670_3_sgcE5" class="clusterblast-orf" id="subclusterblast-1_all_1_3_7"  />
</g>
<g id="a1_008"  >
<polygon points="438,185 443,180 457,180 457,190 443,190 438,185 " style="fill:#d8a715; stroke-width:1; stroke:black; " description="&lt;b&gt;AY048670_3_sgcE4&lt;/b&gt;&lt;br&gt;unknown&lt;br&gt;Location: 71700 - 73628&lt;br&gt;&lt;br&gt;&lt;b&gt;BlastP hit with cds8876_10805&lt;/b&gt;&lt;br&gt;Percentage identity: 86&lt;br&gt;Percentage coverage: 100&lt;br&gt;BLAST bit score: 1154&lt;br&gt;E-value: 0.0" locus_tag="AY048670_3_sgcE4" class="clusterblast-orf" id="subclusterblast-1_all_1_3_8"  />
</g>
<g id="a1_009"  >
<polygon points="457,185 462,180 466,180 466,190 462,190 457,185 " style="fill:#15d846; stroke-width:1; stroke:black; " description="&lt;b&gt;AY048670_3_sgcE3&lt;/b&gt;&lt;br&gt;hypothetical protein&lt;br&gt;Location: 73625 - 74611&lt;br&gt;&lt;br&gt;&lt;b&gt;BlastP hit with cds10801_11788&lt;/b&gt;&lt;br&gt;Percentage identity: 81&lt;br&gt;Percentage coverage: 100&lt;br&gt;BLAST bit score: 566&lt;br&gt;E-value: 0.0" locus_tag="AY048670_3_sgcE3" class="clusterblast-orf" id="subclusterblast-1_all_1_3_9"  />
</g>
<g id="a1_0010"  >
<polygon points="469,185 474,180 476,180 476,190 474,190 469,185 " style="fill:#1546d8; stroke-width:1; stroke:black; " description="&lt;b&gt;AY048670_3_sgcE2&lt;/b&gt;&lt;br&gt;hypothetical protein&lt;br&gt;Location: 74942 - 75688&lt;br&gt;&lt;br&gt;&lt;b&gt;BlastP hit with cds11883_12864&lt;/b&gt;&lt;br&gt;Percentage identity: 82&lt;br&gt;Percentage coverage: 57&lt;br&gt;BLAST bit score: 317&lt;br&gt;E-value: 9.76e-111" locus_tag="AY048670_3_sgcE2" class="clusterblast-orf" id="subclusterblast-1_all_1_3_10"  />
</g>
<g id="a1_0011"  >
<polygon points="478,185 482,180 482,190 478,185 " style="fill:#d815a7; stroke-width:1; stroke:black; " description="&lt;b&gt;AY048670_3_sgcE1&lt;/b&gt;&lt;br&gt;hypothetical protein&lt;br&gt;Location: 75873 - 76316&lt;br&gt;&lt;br&gt;&lt;b&gt;BlastP hit with cds13002_13446&lt;/b&gt;&lt;br&gt;Percentage identity: 78&lt;br&gt;Percentage coverage: 100&lt;br&gt;BLAST bit score: 241&lt;br&gt;E-value: 4.76e-85" locus_tag="AY048670_3_sgcE1" class="clusterblast-orf" id="subclusterblast-1_all_1_3_11"  />
</g>
<g label="AF497482" description="AF497482_c2: calicheamicin enediyne (30% of genes show similarity), enediyne" class="clusterblast-cluster"  >
<text x="5" y="220" class="clusterblast-acc"  >
AF497482_c2: calicheamicin enediyne (30% of genes show similarity), enediyne</text>
<line x1="10" y1="235" x2="778.0" y2="235" style="stroke-width:1; stroke:grey; "  />
</g>
<g id="a1_000"  >
<polygon points="0,240 7,240 12,235 7,230 0,230 0,240 " style="fill:white; stroke-width:1; stroke:black; " description="&lt;b&gt;AF497482_2_calE1&lt;/b&gt;&lt;br&gt;CalE1&lt;br&gt;Location: 3723 - 5048" locus_tag="AF497482_2_calE1" class="clusterblast-orf" id="subclusterblast-1_all_1_4_0"  />
</g>
<g id="a1_001"  >
<polygon points="99,240 103,240 108,235 103,230 99,230 99,240 " style="fill:white; stroke-width:1; stroke:black; " description="&lt;b&gt;AF497482_2_calE2&lt;/b&gt;&lt;br&gt;CalE2&lt;br&gt;Location: 14103 - 15017" locus_tag="AF497482_2_calE2" class="clusterblast-orf" id="subclusterblast-1_all_1_4_1"  />
</g>
<g id="a1_002"  >
<polygon points="154,240 158,240 163,235 158,230 154,230 154,240 " style="fill:white; stroke-width:1; stroke:black; " description="&lt;b&gt;AF497482_2_calE3&lt;/b&gt;&lt;br&gt;CalE3&lt;br&gt;Location: 19901 - 20794" locus_tag="AF497482_2_calE3" class="clusterblast-orf" id="subclusterblast-1_all_1_4_2"  />
</g>
<g id="a1_003"  >
<polygon points="266,235 271,230 278,230 278,240 271,240 266,235 " style="fill:white; stroke-width:1; stroke:black; " description="&lt;b&gt;AF497482_2_calE4&lt;/b&gt;&lt;br&gt;CalE4&lt;br&gt;Location: 31589 - 32797" locus_tag="AF497482_2_calE4" class="clusterblast-orf" id="subclusterblast-1_all_1_4_3"  />
</g>
<g id="a1_004"  >
<polygon points="286,235 291,230 295,230 295,240 291,240 286,235 " style="fill:white; stroke-width:1; stroke:black; " description="&lt;b&gt;AF497482_2_calE5&lt;/b&gt;&lt;br&gt;CalE5&lt;br&gt;Location: 33669 - 34553" locus_tag="AF497482_2_calE5" class="clusterblast-orf" id="subclusterblast-1_all_1_4_4"  />
</g>
<g id="a1_005"  >
<polygon points="320,235 325,230 331,230 331,240 325,240 320,235 " style="fill:white; stroke-width:1; stroke:black; " description="&lt;b&gt;AF497482_2_calE6&lt;/b&gt;&lt;br&gt;CalE6&lt;br&gt;Location: 37168 - 38313" locus_tag="AF497482_2_calE6" class="clusterblast-orf" id="subclusterblast-1_all_1_4_5"  />
</g>
<g id="a1_006"  >
<polygon points="330,235 335,230 335,230 335,240 335,240 330,235 " style="fill:white; stroke-width:1; stroke:black; " description="&lt;b&gt;AF497482_2_calE7&lt;/b&gt;&lt;br&gt;CalE7&lt;br&gt;Location: 38310 - 38756" locus_tag="AF497482_2_calE7" class="clusterblast-orf" id="subclusterblast-1_all_1_4_6"  />
</g>
<g id="a1_007"  >
<polygon points="335,235 340,230 390,230 390,240 340,240 335,235 " style="fill:#15d8d8; stroke-width:1; stroke:black; " description="&lt;b&gt;AF497482_2_calE8&lt;/b&gt;&lt;br&gt;CalE8&lt;br&gt;Location: 38753 - 44512&lt;br&gt;&lt;br&gt;&lt;b&gt;BlastP hit with cds1985_7793&lt;/b&gt;&lt;br&gt;Percentage identity: 56&lt;br&gt;Percentage coverage: 100&lt;br&gt;BLAST bit score: 1793&lt;br&gt;E-value: 0.0" locus_tag="AF497482_2_calE8" class="clusterblast-orf" id="subclusterblast-1_all_1_4_7"  />
</g>
<g id="a1_008"  >
<polygon points="390,235 395,230 399,230 399,240 395,240 390,235 " style="fill:#7715d8; stroke-width:1; stroke:black; " description="&lt;b&gt;AF497482_2_calT3&lt;/b&gt;&lt;br&gt;CalT3&lt;br&gt;Location: 44509 - 45474&lt;br&gt;&lt;br&gt;&lt;b&gt;BlastP hit with cds7789_8875&lt;/b&gt;&lt;br&gt;Percentage identity: 70&lt;br&gt;Percentage coverage: 76&lt;br&gt;BLAST bit score: 413&lt;br&gt;E-value: 7.1e-147" locus_tag="AF497482_2_calT3" class="clusterblast-orf" id="subclusterblast-1_all_1_4_8"  />
</g>
<g id="a1_009"  >
<polygon points="399,235 404,230 418,230 418,240 404,240 399,235 " style="fill:#d8a715; stroke-width:1; stroke:black; " description="&lt;b&gt;AF497482_2_calU14&lt;/b&gt;&lt;br&gt;CalU14&lt;br&gt;Location: 45471 - 47426&lt;br&gt;&lt;br&gt;&lt;b&gt;BlastP hit with cds8876_10805&lt;/b&gt;&lt;br&gt;Percentage identity: 59&lt;br&gt;Percentage coverage: 102&lt;br&gt;BLAST bit score: 716&lt;br&gt;E-value: 0.0" locus_tag="AF497482_2_calU14" class="clusterblast-orf" id="subclusterblast-1_all_1_4_9"  />
</g>
<g id="a1_0010"  >
<polygon points="418,235 423,230 427,230 427,240 423,240 418,235 " style="fill:#15d846; stroke-width:1; stroke:black; " description="&lt;b&gt;AF497482_2_calU15&lt;/b&gt;&lt;br&gt;CalU15&lt;br&gt;Location: 47448 - 48416&lt;br&gt;&lt;br&gt;&lt;b&gt;BlastP hit with cds10801_11788&lt;/b&gt;&lt;br&gt;Percentage identity: 48&lt;br&gt;Percentage coverage: 96&lt;br&gt;BLAST bit score: 251&lt;br&gt;E-value: 1.51e-83" locus_tag="AF497482_2_calU15" class="clusterblast-orf" id="subclusterblast-1_all_1_4_10"  />
</g>
<g id="a1_0011"  >
<polygon points="559,240 566,240 571,235 566,230 559,230 559,240 " style="fill:white; stroke-width:1; stroke:black; " description="&lt;b&gt;AF497482_2_calE9&lt;/b&gt;&lt;br&gt;CalE9&lt;br&gt;Location: 62177 - 63463" locus_tag="AF497482_2_calE9" class="clusterblast-orf" id="subclusterblast-1_all_1_4_11"  />
</g>
<g id="a1_0012"  >
<polygon points="768,240 775,240 780,235 775,230 768,230 768,240 " style="fill:white; stroke-width:1; stroke:black; " description="&lt;b&gt;AF497482_2_calE10&lt;/b&gt;&lt;br&gt;CalE10&lt;br&gt;Location: 84045 - 85229" locus_tag="AF497482_2_calE10" class="clusterblast-orf" id="subclusterblast-1_all_1_4_12"  />
</g>
</svg>
