<svg xmlns="http://www.w3.org/2000/svg" xmlns:xlink="http://www.w3.org/1999/xlink" version="1.1" x="0" y="0" height="230" width="800" viewBox="0 0 800 230" preserveAspectRatio="none"  >
<g label="Query sequence" class="clusterblast-cluster"  >
<text x="5" y="20" class="clusterblast-acc"  >
Query sequence</text>
<line x1="10" y1="35" x2="778.0" y2="35" style="stroke-width:1; stroke:grey; "  />
<polygon points="186,40 186,40 191,35 186,30 186,30 186,40 " style="fill:white; stroke-width:1; stroke:black; " description="&lt;b&gt;cds18113_18665&lt;/b&gt;&lt;br&gt;hypothetical protein&lt;br&gt;Location: 18113 - 18665" locus_tag="cds18113_18665" class="clusterblast-orf" id="dummy-1_q0_0_all"  />
<polygon points="191,40 195,40 200,35 195,30 191,30 191,40 " style="fill:white; stroke-width:1; stroke:black; " description="&lt;b&gt;cds18714_19635&lt;/b&gt;&lt;br&gt;hypothetical protein&lt;br&gt;Location: 18714 - 19635" locus_tag="cds18714_19635" class="clusterblast-orf" id="dummy-1_q1_0_all"  />
<polygon points="201,35 206,30 215,30 215,40 206,40 201,35 " style="fill:white; stroke-width:1; stroke:black; " description="&lt;b&gt;cds19700_21182&lt;/b&gt;&lt;br&gt;Spore coat protein A&lt;br&gt;Location: 19700 - 21182" locus_tag="cds19700_21182" class="clusterblast-orf" id="dummy-1_q2_0_all"  />
<polygon points="217,40 221,40 226,35 221,30 217,30 217,40 " style="fill:white; stroke-width:1; stroke:black; " description="&lt;b&gt;cds21412_22282&lt;/b&gt;&lt;br&gt;27-O-demethylrifamycin SV methyltransferase&lt;br&gt;Location: 21412 - 22282" locus_tag="cds21412_22282" class="clusterblast-orf" id="dummy-1_q3_0_all"  />
<polygon points="226,40 232,40 237,35 232,30 226,30 226,40 " style="fill:white; stroke-width:1; stroke:black; " description="&lt;b&gt;cds22348_23494&lt;/b&gt;&lt;br&gt;hypothetical protein&lt;br&gt;Location: 22348 - 23494" locus_tag="cds22348_23494" class="clusterblast-orf" id="dummy-1_q4_0_all"  />
<polygon points="238,35 243,30 252,30 252,40 243,40 238,35 " style="fill:white; stroke-width:1; stroke:black; " description="&lt;b&gt;cds23567_24962&lt;/b&gt;&lt;br&gt;Mitomycin radical oxidase&lt;br&gt;Location: 23567 - 24962" locus_tag="cds23567_24962" class="clusterblast-orf" id="dummy-1_q5_0_all"  />
<polygon points="251,35 256,30 267,30 267,40 256,40 251,35 " style="fill:white; stroke-width:1; stroke:black; " description="&lt;b&gt;cds24958_26524&lt;/b&gt;&lt;br&gt;2-methoxy-6-polyprenyl-1,4-benzoquinol methylase, mitochondrial&lt;br&gt;Location: 24958 - 26524" locus_tag="cds24958_26524" class="clusterblast-orf" id="dummy-1_q6_0_all"  />
<polygon points="269,35 272,30 272,40 269,35 " style="fill:white; stroke-width:1; stroke:black; " description="&lt;b&gt;cds26746_27082&lt;/b&gt;&lt;br&gt;hypothetical protein&lt;br&gt;Location: 26746 - 27082" locus_tag="cds26746_27082" class="clusterblast-orf" id="dummy-1_q7_0_all"  />
<polygon points="273,35 278,30 295,30 295,40 278,40 273,35 " style="fill:white; stroke-width:1; stroke:black; " description="&lt;b&gt;cds27150_29475&lt;/b&gt;&lt;br&gt;Periplasmic nitrate reductase&lt;br&gt;Location: 27150 - 29475" locus_tag="cds27150_29475" class="clusterblast-orf" id="dummy-1_q8_0_all"  />
<polygon points="296,40 299,40 304,35 299,30 296,30 296,40 " style="fill:white; stroke-width:1; stroke:black; " description="&lt;b&gt;cds29596_30424&lt;/b&gt;&lt;br&gt;Levodione reductase&lt;br&gt;Location: 29596 - 30424" locus_tag="cds29596_30424" class="clusterblast-orf" id="dummy-1_q9_0_all"  />
<polygon points="305,40 308,40 313,35 308,30 305,30 305,40 " style="fill:white; stroke-width:1; stroke:black; " description="&lt;b&gt;cds30472_31354&lt;/b&gt;&lt;br&gt;F420-dependent glucose-6-phosphate dehydrogenase&lt;br&gt;Location: 30472 - 31354" locus_tag="cds30472_31354" class="clusterblast-orf" id="dummy-1_q10_0_all"  />
<polygon points="315,35 320,30 329,30 329,40 320,40 315,35 " style="fill:white; stroke-width:1; stroke:black; " description="&lt;b&gt;cds31534_33049&lt;/b&gt;&lt;br&gt;Aclacinomycin-N/aclacinomycin-A oxidase&lt;br&gt;Location: 31534 - 33049" locus_tag="cds31534_33049" class="clusterblast-orf" id="dummy-1_q11_0_all"  />
<polygon points="331,35 336,30 345,30 345,40 336,40 331,35 " style="fill:white; stroke-width:1; stroke:black; " description="&lt;b&gt;cds33232_34657&lt;/b&gt;&lt;br&gt;sn-glycerol-3-phosphate-binding periplasmic protein UgpB&lt;br&gt;Location: 33232 - 34657" locus_tag="cds33232_34657" class="clusterblast-orf" id="dummy-1_q12_0_all"  />
<polygon points="348,40 355,40 360,35 355,30 348,30 348,40 " style="fill:white; stroke-width:1; stroke:black; " description="&lt;b&gt;cds34927_36169&lt;/b&gt;&lt;br&gt;Flavin-dependent monooxygenase, oxygenase subunit HsaA&lt;br&gt;Location: 34927 - 36169" locus_tag="cds34927_36169" class="clusterblast-orf" id="dummy-1_q13_0_all"  />
<polygon points="361,40 369,40 374,35 369,30 361,30 361,40 " style="fill:white; stroke-width:1; stroke:black; " description="&lt;b&gt;cds36277_37717&lt;/b&gt;&lt;br&gt;hypothetical protein&lt;br&gt;Location: 36277 - 37717" locus_tag="cds36277_37717" class="clusterblast-orf" id="dummy-1_q14_0_all"  />
<polygon points="375,40 397,40 402,35 397,30 375,30 375,40 " style="fill:white; stroke-width:1; stroke:black; " description="&lt;b&gt;cds37748_40562&lt;/b&gt;&lt;br&gt;Dimodular nonribosomal peptide synthase&lt;br&gt;Location: 37748 - 40562" locus_tag="cds37748_40562" class="clusterblast-orf" id="dummy-1_q15_0_all"  />
<polygon points="403,40 413,40 418,35 413,30 403,30 403,40 " style="fill:white; stroke-width:1; stroke:black; " description="&lt;b&gt;cds40635_42261&lt;/b&gt;&lt;br&gt;MIO-dependent tyrosine 2,3-aminomutase&lt;br&gt;Location: 40635 - 42261" locus_tag="cds40635_42261" class="clusterblast-orf" id="dummy-1_q16_0_all"  />
<polygon points="419,40 427,40 432,35 427,30 419,30 419,40 " style="fill:white; stroke-width:1; stroke:black; " description="&lt;b&gt;cds42368_43712&lt;/b&gt;&lt;br&gt;Linear gramicidin synthase subunit B&lt;br&gt;Location: 42368 - 43712" locus_tag="cds42368_43712" class="clusterblast-orf" id="dummy-1_q17_0_all"  />
<polygon points="433,35 438,30 448,30 448,40 438,40 433,35 " style="fill:white; stroke-width:1; stroke:black; " description="&lt;b&gt;cds43769_45353&lt;/b&gt;&lt;br&gt;4-nitrophenol 2-monooxygenase, oxygenase component&lt;br&gt;Location: 43769 - 45353" locus_tag="cds43769_45353" class="clusterblast-orf" id="dummy-1_q18_0_all"  />
<polygon points="450,40 457,40 462,35 457,30 450,30 450,40 " style="fill:white; stroke-width:1; stroke:black; " description="&lt;b&gt;cds45596_46781&lt;/b&gt;&lt;br&gt;Flavin-dependent monooxygenase, oxygenase subunit HsaA&lt;br&gt;Location: 45596 - 46781" locus_tag="cds45596_46781" class="clusterblast-orf" id="dummy-1_q19_0_all"  />
<polygon points="462,40 462,40 467,35 462,30 462,30 462,40 " style="fill:white; stroke-width:1; stroke:black; " description="&lt;b&gt;cds46844_47279&lt;/b&gt;&lt;br&gt;hypothetical protein&lt;br&gt;Location: 46844 - 47279" locus_tag="cds46844_47279" class="clusterblast-orf" id="dummy-1_q20_0_all"  />
<polygon points="467,35 472,30 479,30 479,40 472,40 467,35 " style="fill:white; stroke-width:1; stroke:black; " description="&lt;b&gt;cds47364_48612&lt;/b&gt;&lt;br&gt;2-hydroxy-5-methyl-1-naphthoate 7-hydroxylase&lt;br&gt;Location: 47364 - 48612" locus_tag="cds47364_48612" class="clusterblast-orf" id="dummy-1_q21_0_all"  />
<polygon points="480,35 485,30 489,30 489,40 485,40 480,35 " style="fill:white; stroke-width:1; stroke:black; " description="&lt;b&gt;cds48705_49569&lt;/b&gt;&lt;br&gt;hypothetical protein&lt;br&gt;Location: 48705 - 49569" locus_tag="cds48705_49569" class="clusterblast-orf" id="dummy-1_q22_0_all"  />
<polygon points="489,35 492,30 492,40 489,35 " style="fill:white; stroke-width:1; stroke:black; " description="&lt;b&gt;cds49631_49904&lt;/b&gt;&lt;br&gt;hypothetical protein&lt;br&gt;Location: 49631 - 49904" locus_tag="cds49631_49904" class="clusterblast-orf" id="dummy-1_q23_0_all"  />
<polygon points="493,35 498,30 502,30 502,40 498,40 493,35 " style="fill:#d81515; stroke-width:1; stroke:black; " description="&lt;b&gt;cds50037_50910&lt;/b&gt;&lt;br&gt;Glucose-1-phosphate thymidylyltransferase 1&lt;br&gt;Location: 50037 - 50910" locus_tag="cds50037_50910" class="clusterblast-orf" id="dummy-1_q24_0_all"  />
<polygon points="502,35 507,30 514,30 514,40 507,40 502,35 " style="fill:#4dd815; stroke-width:1; stroke:black; " description="&lt;b&gt;cds50964_52185&lt;/b&gt;&lt;br&gt;hypothetical protein&lt;br&gt;Location: 50964 - 52185" locus_tag="cds50964_52185" class="clusterblast-orf" id="dummy-1_q25_0_all"  />
<polygon points="515,35 520,30 527,30 527,40 520,40 515,35 " style="fill:#1585d8; stroke-width:1; stroke:black; " description="&lt;b&gt;cds52342_53581&lt;/b&gt;&lt;br&gt;hypothetical protein&lt;br&gt;Location: 52342 - 53581" locus_tag="cds52342_53581" class="clusterblast-orf" id="dummy-1_q26_0_all"  />
<polygon points="528,35 533,30 540,30 540,40 533,40 528,35 " style="fill:white; stroke-width:1; stroke:black; " description="&lt;b&gt;cds53600_54893&lt;/b&gt;&lt;br&gt;Aclacinomycin-T 2-deoxy-L-fucose transferase&lt;br&gt;Location: 53600 - 54893" locus_tag="cds53600_54893" class="clusterblast-orf" id="dummy-1_q27_0_all"  />
<polygon points="541,35 546,30 551,30 551,40 546,40 541,35 " style="fill:#d815bc; stroke-width:1; stroke:black; " description="&lt;b&gt;cds54963_56073&lt;/b&gt;&lt;br&gt;dTDP-3-amino-3,4,6-trideoxy-alpha-D-glucose transaminase&lt;br&gt;Location: 54963 - 56073" locus_tag="cds54963_56073" class="clusterblast-orf" id="dummy-1_q28_0_all"  />
<polygon points="553,35 558,30 567,30 567,40 558,40 553,35 " style="fill:#d8bc15; stroke-width:1; stroke:black; " description="&lt;b&gt;cds56275_57670&lt;/b&gt;&lt;br&gt;dTDP-4-dehydro-6-deoxy-alpha-D-glucopyranose 2,3-dehydratase&lt;br&gt;Location: 56275 - 57670" locus_tag="cds56275_57670" class="clusterblast-orf" id="dummy-1_q29_0_all"  />
<polygon points="570,40 574,40 579,35 574,30 570,30 570,40 " style="fill:#15d885; stroke-width:1; stroke:black; " description="&lt;b&gt;cds57984_58992&lt;/b&gt;&lt;br&gt;dTDP-glucose 4,6-dehydratase&lt;br&gt;Location: 57984 - 58992" locus_tag="cds57984_58992" class="clusterblast-orf" id="dummy-1_q30_0_all"  />
<polygon points="580,35 585,30 594,30 594,40 585,40 580,35 " style="fill:#4d15d8; stroke-width:1; stroke:black; " description="&lt;b&gt;cds59038_60466&lt;/b&gt;&lt;br&gt;UDP-N-acetyl-D-glucosamine 6-dehydrogenase&lt;br&gt;Location: 59038 - 60466" locus_tag="cds59038_60466" class="clusterblast-orf" id="dummy-1_q31_0_all"  />
</g>
<g label="AF497482" description="AF497482_c3: calicheamicin 4 nucleotide sugars (22% of genes show similarity), sugar" class="clusterblast-cluster"  >
<text x="5" y="70" class="clusterblast-acc"  >
AF497482_c3: calicheamicin 4 nucleotide sugars (22% of genes show similarity), sugar</text>
<line x1="10" y1="85" x2="778.0" y2="85" style="stroke-width:1; stroke:grey; "  />
</g>
<g id="a1_000"  >
<polygon points="0,85 5,80 5,80 5,90 5,90 0,85 " style="fill:white; stroke-width:1; stroke:black; " description="&lt;b&gt;AF497482_3_calS1&lt;/b&gt;&lt;br&gt;CalS1&lt;br&gt;Location: 9415 - 9987" locus_tag="AF497482_3_calS1" class="clusterblast-orf" id="dummy-1_h1_1_0"  />
</g>
<g id="a1_001"  >
<polygon points="7,90 11,90 16,85 11,80 7,80 7,90 " style="fill:white; stroke-width:1; stroke:black; " description="&lt;b&gt;AF497482_3_calS2&lt;/b&gt;&lt;br&gt;CalS2&lt;br&gt;Location: 10158 - 11081" locus_tag="AF497482_3_calS2" class="clusterblast-orf" id="dummy-1_h1_1_1"  />
</g>
<g id="a1_002"  >
<polygon points="16,90 20,90 25,85 20,80 16,80 16,90 " style="fill:white; stroke-width:1; stroke:black; " description="&lt;b&gt;AF497482_3_calS3&lt;/b&gt;&lt;br&gt;CalS3&lt;br&gt;Location: 11078 - 12109" locus_tag="AF497482_3_calS3" class="clusterblast-orf" id="dummy-1_h1_1_2"  />
</g>
<g id="a1_003"  >
<polygon points="32,90 38,90 43,85 38,80 32,80 32,90 " style="fill:white; stroke-width:1; stroke:black; " description="&lt;b&gt;AF497482_3_calS4&lt;/b&gt;&lt;br&gt;CalS4&lt;br&gt;Location: 12764 - 13918" locus_tag="AF497482_3_calS4" class="clusterblast-orf" id="dummy-1_h1_1_3"  />
</g>
<g id="a1_004"  >
<polygon points="54,85 59,80 64,80 64,90 59,90 54,85 " style="fill:white; stroke-width:1; stroke:black; " description="&lt;b&gt;AF497482_3_calS5&lt;/b&gt;&lt;br&gt;CalS5&lt;br&gt;Location: 15028 - 16092" locus_tag="AF497482_3_calS5" class="clusterblast-orf" id="dummy-1_h1_1_4"  />
</g>
<g id="a1_005"  >
<polygon points="72,85 77,80 79,80 79,90 77,90 72,85 " style="fill:white; stroke-width:1; stroke:black; " description="&lt;b&gt;AF497482_3_calS6&lt;/b&gt;&lt;br&gt;CalS6&lt;br&gt;Location: 16890 - 17672" locus_tag="AF497482_3_calS6" class="clusterblast-orf" id="dummy-1_h1_1_5"  />
</g>
<g id="a1_006"  >
<polygon points="243,85 248,80 252,80 252,90 248,90 243,85 " style="fill:#d81515; stroke-width:1; stroke:black; " description="&lt;b&gt;AF497482_3_calS7&lt;/b&gt;&lt;br&gt;CalS7&lt;br&gt;Location: 34687 - 35580&lt;br&gt;&lt;br&gt;&lt;b&gt;BlastP hit with cds50037_50910&lt;/b&gt;&lt;br&gt;Percentage identity: 49&lt;br&gt;Percentage coverage: 98&lt;br&gt;BLAST bit score: 254&lt;br&gt;E-value: 6.57e-86" locus_tag="AF497482_3_calS7" class="clusterblast-orf" id="dummy-1_h1_1_6"  />
</g>
<g id="a1_007"  >
<polygon points="387,90 395,90 400,85 395,80 387,80 387,90 " style="fill:#4d15d8; stroke-width:1; stroke:black; " description="&lt;b&gt;AF497482_3_calS8&lt;/b&gt;&lt;br&gt;CalS8&lt;br&gt;Location: 49636 - 50997&lt;br&gt;&lt;br&gt;&lt;b&gt;BlastP hit with cds59038_60466&lt;/b&gt;&lt;br&gt;Percentage identity: 53&lt;br&gt;Percentage coverage: 95&lt;br&gt;BLAST bit score: 440&lt;br&gt;E-value: 8.79e-154" locus_tag="AF497482_3_calS8" class="clusterblast-orf" id="dummy-1_h1_1_7"  />
</g>
<g id="a1_008"  >
<polygon points="400,90 405,90 410,85 405,80 400,80 400,90 " style="fill:#15d885; stroke-width:1; stroke:black; " description="&lt;b&gt;AF497482_3_calS9&lt;/b&gt;&lt;br&gt;CalS9&lt;br&gt;Location: 51004 - 51993&lt;br&gt;&lt;br&gt;&lt;b&gt;BlastP hit with cds57984_58992&lt;/b&gt;&lt;br&gt;Percentage identity: 60&lt;br&gt;Percentage coverage: 98&lt;br&gt;BLAST bit score: 355&lt;br&gt;E-value: 1.88e-124" locus_tag="AF497482_3_calS9" class="clusterblast-orf" id="dummy-1_h1_1_8"  />
</g>
<g id="a1_009"  >
<polygon points="412,85 417,80 419,80 419,90 417,90 412,85 " style="fill:white; stroke-width:1; stroke:black; " description="&lt;b&gt;AF497482_3_calS10&lt;/b&gt;&lt;br&gt;CalS10&lt;br&gt;Location: 52213 - 52950" locus_tag="AF497482_3_calS10" class="clusterblast-orf" id="dummy-1_h1_1_9"  />
</g>
<g id="a1_0010"  >
<polygon points="424,85 429,80 436,80 436,90 429,90 424,85 " style="fill:white; stroke-width:1; stroke:black; " description="&lt;b&gt;AF497482_3_calG1&lt;/b&gt;&lt;br&gt;CalG1&lt;br&gt;Location: 53511 - 54689" locus_tag="AF497482_3_calG1" class="clusterblast-orf" id="dummy-1_h1_1_10"  />
</g>
<g id="a1_0011"  >
<polygon points="438,90 440,90 445,85 440,80 438,80 438,90 " style="fill:white; stroke-width:1; stroke:black; " description="&lt;b&gt;AF497482_3_calS11&lt;/b&gt;&lt;br&gt;CalS11&lt;br&gt;Location: 54904 - 55677" locus_tag="AF497482_3_calS11" class="clusterblast-orf" id="dummy-1_h1_1_11"  />
</g>
<g id="a1_0012"  >
<polygon points="562,85 567,80 574,80 574,90 567,90 562,85 " style="fill:white; stroke-width:1; stroke:black; " description="&lt;b&gt;AF497482_3_calG2&lt;/b&gt;&lt;br&gt;CalG2&lt;br&gt;Location: 67788 - 68981" locus_tag="AF497482_3_calG2" class="clusterblast-orf" id="dummy-1_h1_1_12"  />
</g>
<g id="a1_0013"  >
<polygon points="574,85 579,80 584,80 584,90 579,90 574,85 " style="fill:white; stroke-width:1; stroke:black; " description="&lt;b&gt;AF497482_3_calS12&lt;/b&gt;&lt;br&gt;CalS12&lt;br&gt;Location: 69032 - 70024" locus_tag="AF497482_3_calS12" class="clusterblast-orf" id="dummy-1_h1_1_13"  />
</g>
<g id="a1_0014"  >
<polygon points="586,90 591,90 596,85 591,80 586,80 586,90 " style="fill:white; stroke-width:1; stroke:black; " description="&lt;b&gt;AF497482_3_calS13&lt;/b&gt;&lt;br&gt;CalS13&lt;br&gt;Location: 70221 - 71351" locus_tag="AF497482_3_calS13" class="clusterblast-orf" id="dummy-1_h1_1_14"  />
</g>
<g id="a1_0015"  >
<polygon points="597,90 603,90 608,85 603,80 597,80 597,90 " style="fill:white; stroke-width:1; stroke:black; " description="&lt;b&gt;AF497482_3_calG3&lt;/b&gt;&lt;br&gt;CalG3&lt;br&gt;Location: 71392 - 72522" locus_tag="AF497482_3_calG3" class="clusterblast-orf" id="dummy-1_h1_1_15"  />
</g>
<g id="a1_0016"  >
<polygon points="703,90 712,90 717,85 712,80 703,80 703,90 " style="fill:#d8bc15; stroke-width:1; stroke:black; " description="&lt;b&gt;AF497482_3_calS14&lt;/b&gt;&lt;br&gt;CalS14&lt;br&gt;Location: 82456 - 83886&lt;br&gt;&lt;br&gt;&lt;b&gt;BlastP hit with cds56275_57670&lt;/b&gt;&lt;br&gt;Percentage identity: 51&lt;br&gt;Percentage coverage: 99&lt;br&gt;BLAST bit score: 445&lt;br&gt;E-value: 2.12e-155" locus_tag="AF497482_3_calS14" class="clusterblast-orf" id="dummy-1_h1_1_16"  />
</g>
<g id="a1_0017"  >
<polygon points="768,85 773,80 780,80 780,90 773,90 768,85 " style="fill:white; stroke-width:1; stroke:black; " description="&lt;b&gt;AF497482_3_calG4&lt;/b&gt;&lt;br&gt;CalG4&lt;br&gt;Location: 89143 - 90348" locus_tag="AF497482_3_calG4" class="clusterblast-orf" id="dummy-1_h1_1_17"  />
</g>
</svg>
