<svg xmlns="http://www.w3.org/2000/svg" xmlns:xlink="http://www.w3.org/1999/xlink" version="1.1" x="0" y="0" height="50" width="800" viewBox="0 0 800 50" preserveAspectRatio="none"  >
<g label="Query sequence" class="clusterblast-cluster"  >
<text x="5" y="20" class="clusterblast-acc"  >
Query sequence</text>
<line x1="10" y1="35" x2="778.0" y2="35" style="stroke-width:1; stroke:grey; "  />
<polygon points="0,40 12,40 17,35 12,30 0,30 0,40 " style="fill:white; stroke-width:1; stroke:black; " description="&lt;b&gt;cds79692_80229&lt;/b&gt;&lt;br&gt;Maleamate amidohydrolase&lt;br&gt;Location: 79692 - 80229" locus_tag="cds79692_80229" class="clusterblast-orf" id="subclusterblast-2_q0_0_all"  />
<polygon points="21,40 36,40 41,35 36,30 21,30 21,40 " style="fill:white; stroke-width:1; stroke:black; " description="&lt;b&gt;cds80362_80962&lt;/b&gt;&lt;br&gt;8-demethyl-8-aminoriboflavin-5'-phosphate synthase&lt;br&gt;Location: 80362 - 80962" locus_tag="cds80362_80962" class="clusterblast-orf" id="subclusterblast-2_q1_0_all"  />
<polygon points="44,35 49,30 82,30 82,40 49,40 44,35 " style="fill:white; stroke-width:1; stroke:black; " description="&lt;b&gt;cds81060_82236&lt;/b&gt;&lt;br&gt;hypothetical protein&lt;br&gt;Location: 81060 - 82236" locus_tag="cds81060_82236" class="clusterblast-orf" id="subclusterblast-2_q2_0_all"  />
<polygon points="88,40 122,40 127,35 122,30 88,30 88,40 " style="fill:white; stroke-width:1; stroke:black; " description="&lt;b&gt;cds82419_83631&lt;/b&gt;&lt;br&gt;putative cardiolipin synthase YwiE&lt;br&gt;Location: 82419 - 83631" locus_tag="cds82419_83631" class="clusterblast-orf" id="subclusterblast-2_q3_0_all"  />
<polygon points="129,35 134,30 138,30 138,40 134,40 129,35 " style="fill:white; stroke-width:1; stroke:black; " description="&lt;b&gt;cds83694_83982&lt;/b&gt;&lt;br&gt;hypothetical protein&lt;br&gt;Location: 83694 - 83982" locus_tag="cds83694_83982" class="clusterblast-orf" id="subclusterblast-2_q4_0_all"  />
<polygon points="143,40 152,40 157,35 152,30 143,30 143,40 " style="fill:white; stroke-width:1; stroke:black; " description="&lt;b&gt;cds84138_84567&lt;/b&gt;&lt;br&gt;hypothetical protein&lt;br&gt;Location: 84138 - 84567" locus_tag="cds84138_84567" class="clusterblast-orf" id="subclusterblast-2_q5_0_all"  />
<polygon points="161,40 175,40 180,35 175,30 161,30 161,40 " style="fill:white; stroke-width:1; stroke:black; " description="&lt;b&gt;cds84674_85280&lt;/b&gt;&lt;br&gt;hypothetical protein&lt;br&gt;Location: 84674 - 85280" locus_tag="cds84674_85280" class="clusterblast-orf" id="subclusterblast-2_q6_0_all"  />
<polygon points="181,35 186,30 212,30 212,40 186,40 181,35 " style="fill:white; stroke-width:1; stroke:black; " description="&lt;b&gt;cds85309_86260&lt;/b&gt;&lt;br&gt;hypothetical protein&lt;br&gt;Location: 85309 - 86260" locus_tag="cds85309_86260" class="clusterblast-orf" id="subclusterblast-2_q7_0_all"  />
<polygon points="215,40 259,40 264,35 259,30 215,30 215,40 " style="fill:white; stroke-width:1; stroke:black; " description="&lt;b&gt;cds86353_87877&lt;/b&gt;&lt;br&gt;hypothetical protein&lt;br&gt;Location: 86353 - 87877" locus_tag="cds86353_87877" class="clusterblast-orf" id="subclusterblast-2_q8_0_all"  />
<polygon points="269,40 305,40 310,35 305,30 269,30 269,40 " style="fill:white; stroke-width:1; stroke:black; " description="&lt;b&gt;cds88028_89294&lt;/b&gt;&lt;br&gt;Renalase&lt;br&gt;Location: 88028 - 89294" locus_tag="cds88028_89294" class="clusterblast-orf" id="subclusterblast-2_q9_0_all"  />
<polygon points="310,40 344,40 349,35 344,30 310,30 310,40 " style="fill:white; stroke-width:1; stroke:black; " description="&lt;b&gt;cds89290_90499&lt;/b&gt;&lt;br&gt;hypothetical protein&lt;br&gt;Location: 89290 - 90499" locus_tag="cds89290_90499" class="clusterblast-orf" id="subclusterblast-2_q10_0_all"  />
<polygon points="349,40 368,40 373,35 368,30 349,30 349,40 " style="fill:white; stroke-width:1; stroke:black; " description="&lt;b&gt;cds90495_91230&lt;/b&gt;&lt;br&gt;Demethylmenaquinone methyltransferase&lt;br&gt;Location: 90495 - 91230" locus_tag="cds90495_91230" class="clusterblast-orf" id="subclusterblast-2_q11_0_all"  />
<polygon points="372,40 418,40 423,35 418,30 372,30 372,40 " style="fill:white; stroke-width:1; stroke:black; " description="&lt;b&gt;cds91226_92786&lt;/b&gt;&lt;br&gt;tRNA 5-methylaminomethyl-2-thiouridine biosynthesis bifunctional protein MnmC&lt;br&gt;Location: 91226 - 92786" locus_tag="cds91226_92786" class="clusterblast-orf" id="subclusterblast-2_q12_0_all"  />
<polygon points="424,35 429,30 457,30 457,40 429,40 424,35 " style="fill:white; stroke-width:1; stroke:black; " description="&lt;b&gt;cds92820_93828&lt;/b&gt;&lt;br&gt;hypothetical protein&lt;br&gt;Location: 92820 - 93828" locus_tag="cds92820_93828" class="clusterblast-orf" id="subclusterblast-2_q13_0_all"  />
<polygon points="456,35 461,30 488,30 488,40 461,40 456,35 " style="fill:white; stroke-width:1; stroke:black; " description="&lt;b&gt;cds93824_94811&lt;/b&gt;&lt;br&gt;15-cis-phytoene synthase&lt;br&gt;Location: 93824 - 94811" locus_tag="cds93824_94811" class="clusterblast-orf" id="subclusterblast-2_q14_0_all"  />
<polygon points="488,35 493,30 538,30 538,40 493,40 488,35 " style="fill:white; stroke-width:1; stroke:black; " description="&lt;b&gt;cds94807_96343&lt;/b&gt;&lt;br&gt;zeta-carotene-forming phytoene desaturase&lt;br&gt;Location: 94807 - 96343" locus_tag="cds94807_96343" class="clusterblast-orf" id="subclusterblast-2_q15_0_all"  />
<polygon points="538,35 543,30 575,30 575,40 543,40 538,35 " style="fill:white; stroke-width:1; stroke:black; " description="&lt;b&gt;cds96339_97509&lt;/b&gt;&lt;br&gt;hypothetical protein&lt;br&gt;Location: 96339 - 97509" locus_tag="cds96339_97509" class="clusterblast-orf" id="subclusterblast-2_q16_0_all"  />
<polygon points="582,35 587,30 598,30 598,40 587,40 582,35 " style="fill:white; stroke-width:1; stroke:black; " description="&lt;b&gt;cds97714_98203&lt;/b&gt;&lt;br&gt;hypothetical protein&lt;br&gt;Location: 97714 - 98203" locus_tag="cds97714_98203" class="clusterblast-orf" id="subclusterblast-2_q17_0_all"  />
<polygon points="602,40 628,40 633,35 628,30 602,30 602,40 " style="fill:white; stroke-width:1; stroke:black; " description="&lt;b&gt;cds98327_99293&lt;/b&gt;&lt;br&gt;hypothetical protein&lt;br&gt;Location: 98327 - 99293" locus_tag="cds98327_99293" class="clusterblast-orf" id="subclusterblast-2_q18_0_all"  />
<polygon points="633,40 639,40 644,35 639,30 633,30 633,40 " style="fill:white; stroke-width:1; stroke:black; " description="&lt;b&gt;cds99289_99628&lt;/b&gt;&lt;br&gt;hypothetical protein&lt;br&gt;Location: 99289 - 99628" locus_tag="cds99289_99628" class="clusterblast-orf" id="subclusterblast-2_q19_0_all"  />
<polygon points="646,35 651,30 694,30 694,40 651,40 646,35 " style="fill:white; stroke-width:1; stroke:black; " description="&lt;b&gt;cds99681_101172&lt;/b&gt;&lt;br&gt;Non-reducing end alpha-L-arabinofuranosidase BoGH43A&lt;br&gt;Location: 99681 - 101172" locus_tag="cds99681_101172" class="clusterblast-orf" id="subclusterblast-2_q20_0_all"  />
<polygon points="704,35 709,30 780,30 780,40 709,40 704,35 " style="fill:white; stroke-width:1; stroke:black; " description="&lt;b&gt;cds101484_103833&lt;/b&gt;&lt;br&gt;hypothetical protein&lt;br&gt;Location: 101484 - 103833" locus_tag="cds101484_103833" class="clusterblast-orf" id="subclusterblast-2_q21_0_all"  />
</g>
</svg>
