<svg xmlns="http://www.w3.org/2000/svg" xmlns:xlink="http://www.w3.org/1999/xlink" version="1.1" x="0" y="0" height="50" width="800" viewBox="0 0 800 50" preserveAspectRatio="none"  >
<g label="Query sequence" class="clusterblast-cluster"  >
<text x="5" y="20" class="clusterblast-acc"  >
Query sequence</text>
<line x1="10" y1="35" x2="778.0" y2="35" style="stroke-width:1; stroke:grey; "  />
<polygon points="0,35 5,30 34,30 34,40 5,40 0,35 " style="fill:white; stroke-width:1; stroke:black; " description="&lt;b&gt;cds5818_6730&lt;/b&gt;&lt;br&gt;HTH-type transcriptional regulator HdfR&lt;br&gt;Location: 5818 - 6730" locus_tag="cds5818_6730" class="clusterblast-orf" id="subclusterblast-1_q0_0_all"  />
<polygon points="45,40 64,40 69,35 64,30 45,30 45,40 " style="fill:white; stroke-width:1; stroke:black; " description="&lt;b&gt;cds7014_7635&lt;/b&gt;&lt;br&gt;Pyrroline-5-carboxylate reductase&lt;br&gt;Location: 7014 - 7635" locus_tag="cds7014_7635" class="clusterblast-orf" id="subclusterblast-1_q1_0_all"  />
<polygon points="71,40 101,40 106,35 101,30 71,30 71,40 " style="fill:white; stroke-width:1; stroke:black; " description="&lt;b&gt;cds7686_8625&lt;/b&gt;&lt;br&gt;hypothetical protein&lt;br&gt;Location: 7686 - 8625" locus_tag="cds7686_8625" class="clusterblast-orf" id="subclusterblast-1_q2_0_all"  />
<polygon points="114,35 119,30 132,30 132,40 119,40 114,35 " style="fill:white; stroke-width:1; stroke:black; " description="&lt;b&gt;cds8829_9297&lt;/b&gt;&lt;br&gt;hypothetical protein&lt;br&gt;Location: 8829 - 9297" locus_tag="cds8829_9297" class="clusterblast-orf" id="subclusterblast-1_q3_0_all"  />
<polygon points="142,35 147,30 192,30 192,40 147,40 142,35 " style="fill:white; stroke-width:1; stroke:black; " description="&lt;b&gt;cds9564_10896&lt;/b&gt;&lt;br&gt;hypothetical protein&lt;br&gt;Location: 9564 - 10896" locus_tag="cds9564_10896" class="clusterblast-orf" id="subclusterblast-1_q4_0_all"  />
<polygon points="211,40 269,40 274,35 269,30 211,30 211,40 " style="fill:white; stroke-width:1; stroke:black; " description="&lt;b&gt;cds11385_13059&lt;/b&gt;&lt;br&gt;hypothetical protein&lt;br&gt;Location: 11385 - 13059" locus_tag="cds11385_13059" class="clusterblast-orf" id="subclusterblast-1_q5_0_all"  />
<polygon points="274,40 285,40 290,35 285,30 274,30 274,40 " style="fill:white; stroke-width:1; stroke:black; " description="&lt;b&gt;cds13064_13475&lt;/b&gt;&lt;br&gt;hypothetical protein&lt;br&gt;Location: 13064 - 13475" locus_tag="cds13064_13475" class="clusterblast-orf" id="subclusterblast-1_q6_0_all"  />
<polygon points="290,40 299,40 304,35 299,30 290,30 290,40 " style="fill:white; stroke-width:1; stroke:black; " description="&lt;b&gt;cds13471_13843&lt;/b&gt;&lt;br&gt;hypothetical protein&lt;br&gt;Location: 13471 - 13843" locus_tag="cds13471_13843" class="clusterblast-orf" id="subclusterblast-1_q7_0_all"  />
<polygon points="303,40 321,40 326,35 321,30 303,30 303,40 " style="fill:white; stroke-width:1; stroke:black; " description="&lt;b&gt;cds13823_14432&lt;/b&gt;&lt;br&gt;hypothetical protein&lt;br&gt;Location: 13823 - 14432" locus_tag="cds13823_14432" class="clusterblast-orf" id="subclusterblast-1_q8_0_all"  />
<polygon points="326,40 369,40 374,35 369,30 326,30 326,40 " style="fill:white; stroke-width:1; stroke:black; " description="&lt;b&gt;cds14428_15682&lt;/b&gt;&lt;br&gt;Cytochrome P450 CYP107DY1&lt;br&gt;Location: 14428 - 15682" locus_tag="cds14428_15682" class="clusterblast-orf" id="subclusterblast-1_q9_0_all"  />
<polygon points="376,35 381,30 415,30 415,40 381,40 376,35 " style="fill:white; stroke-width:1; stroke:black; " description="&lt;b&gt;cds15735_16767&lt;/b&gt;&lt;br&gt;7-epi-alpha-eudesmol synthase ((2E,6E)-farnesyl diphosphate cyclizing)&lt;br&gt;Location: 15735 - 16767" locus_tag="cds15735_16767" class="clusterblast-orf" id="subclusterblast-1_q10_0_all"  />
<polygon points="423,35 428,30 439,30 439,40 428,40 423,35 " style="fill:white; stroke-width:1; stroke:black; " description="&lt;b&gt;cds16987_17416&lt;/b&gt;&lt;br&gt;hypothetical protein&lt;br&gt;Location: 16987 - 17416" locus_tag="cds16987_17416" class="clusterblast-orf" id="subclusterblast-1_q11_0_all"  />
<polygon points="445,40 457,40 462,35 457,30 445,30 445,40 " style="fill:white; stroke-width:1; stroke:black; " description="&lt;b&gt;cds17556_18024&lt;/b&gt;&lt;br&gt;Peptidyl-lysine N-acetyltransferase YiaC&lt;br&gt;Location: 17556 - 18024" locus_tag="cds17556_18024" class="clusterblast-orf" id="subclusterblast-1_q12_0_all"  />
<polygon points="463,35 468,30 498,30 498,40 468,40 463,35 " style="fill:white; stroke-width:1; stroke:black; " description="&lt;b&gt;cds18050_18953&lt;/b&gt;&lt;br&gt;hypothetical protein&lt;br&gt;Location: 18050 - 18953" locus_tag="cds18050_18953" class="clusterblast-orf" id="subclusterblast-1_q13_0_all"  />
<polygon points="501,35 506,30 523,30 523,40 506,40 501,35 " style="fill:white; stroke-width:1; stroke:black; " description="&lt;b&gt;cds19030_19612&lt;/b&gt;&lt;br&gt;hypothetical protein&lt;br&gt;Location: 19030 - 19612" locus_tag="cds19030_19612" class="clusterblast-orf" id="subclusterblast-1_q14_0_all"  />
<polygon points="528,40 546,40 551,35 546,30 528,30 528,40 " style="fill:white; stroke-width:1; stroke:black; " description="&lt;b&gt;cds19749_20361&lt;/b&gt;&lt;br&gt;HTH-type transcriptional regulator AqdR&lt;br&gt;Location: 19749 - 20361" locus_tag="cds19749_20361" class="clusterblast-orf" id="subclusterblast-1_q15_0_all"  />
<polygon points="552,35 557,30 586,30 586,40 557,40 552,35 " style="fill:white; stroke-width:1; stroke:black; " description="&lt;b&gt;cds20387_21275&lt;/b&gt;&lt;br&gt;putative isomerase YddE&lt;br&gt;Location: 20387 - 21275" locus_tag="cds20387_21275" class="clusterblast-orf" id="subclusterblast-1_q16_0_all"  />
<polygon points="588,35 593,30 616,30 616,40 593,40 588,35 " style="fill:white; stroke-width:1; stroke:black; " description="&lt;b&gt;cds21333_22089&lt;/b&gt;&lt;br&gt;3-beta-hydroxycholanate 3-dehydrogenase (NADP(+))&lt;br&gt;Location: 21333 - 22089" locus_tag="cds21333_22089" class="clusterblast-orf" id="subclusterblast-1_q17_0_all"  />
<polygon points="622,40 680,40 685,35 680,30 622,30 622,40 " style="fill:white; stroke-width:1; stroke:black; " description="&lt;b&gt;cds22231_23899&lt;/b&gt;&lt;br&gt;Alkaline phosphatase D&lt;br&gt;Location: 22231 - 23899" locus_tag="cds22231_23899" class="clusterblast-orf" id="subclusterblast-1_q18_0_all"  />
<polygon points="686,35 691,30 724,30 724,40 691,40 686,35 " style="fill:white; stroke-width:1; stroke:black; " description="&lt;b&gt;cds23920_24928&lt;/b&gt;&lt;br&gt;scyllo-inositol 2-dehydrogenase (NADP(+)) IolU&lt;br&gt;Location: 23920 - 24928" locus_tag="cds23920_24928" class="clusterblast-orf" id="subclusterblast-1_q19_0_all"  />
<polygon points="727,40 775,40 780,35 775,30 727,30 727,40 " style="fill:white; stroke-width:1; stroke:black; " description="&lt;b&gt;cds25013_26402&lt;/b&gt;&lt;br&gt;Bicyclomycin resistance protein&lt;br&gt;Location: 25013 - 26402" locus_tag="cds25013_26402" class="clusterblast-orf" id="subclusterblast-1_q20_0_all"  />
</g>
</svg>
