<svg xmlns="http://www.w3.org/2000/svg" xmlns:xlink="http://www.w3.org/1999/xlink" version="1.1" x="0" y="0" height="50" width="800" viewBox="0 0 800 50" preserveAspectRatio="none"  >
<g label="Query sequence" class="clusterblast-cluster"  >
<text x="5" y="20" class="clusterblast-acc"  >
Query sequence</text>
<line x1="10" y1="35" x2="778.0" y2="35" style="stroke-width:1; stroke:grey; "  />
<polygon points="0,35 5,30 21,30 21,40 5,40 0,35 " style="fill:white; stroke-width:1; stroke:black; " description="&lt;b&gt;cds164_1667&lt;/b&gt;&lt;br&gt;Catalase&lt;br&gt;Location: 164 - 1667" locus_tag="cds164_1667" class="clusterblast-orf" id="subclusterblast-1_q0_0_all"  />
<polygon points="20,35 25,30 26,30 26,40 25,40 20,35 " style="fill:white; stroke-width:1; stroke:black; " description="&lt;b&gt;cds1629_2067&lt;/b&gt;&lt;br&gt;Transcriptional regulator FurA&lt;br&gt;Location: 1629 - 2067" locus_tag="cds1629_2067" class="clusterblast-orf" id="subclusterblast-1_q1_0_all"  />
<polygon points="29,40 44,40 49,35 44,30 29,30 29,40 " style="fill:white; stroke-width:1; stroke:black; " description="&lt;b&gt;cds2242_3730&lt;/b&gt;&lt;br&gt;putative bifunctional transcriptional activator/DNA repair enzyme AlkA&lt;br&gt;Location: 2242 - 3730" locus_tag="cds2242_3730" class="clusterblast-orf" id="subclusterblast-1_q2_0_all"  />
<polygon points="51,40 53,40 58,35 53,30 51,30 51,40 " style="fill:white; stroke-width:1; stroke:black; " description="&lt;b&gt;cds3811_4321&lt;/b&gt;&lt;br&gt;Methylated-DNA--protein-cysteine methyltransferase&lt;br&gt;Location: 3811 - 4321" locus_tag="cds3811_4321" class="clusterblast-orf" id="subclusterblast-1_q3_0_all"  />
<polygon points="60,40 63,40 68,35 63,30 60,30 60,40 " style="fill:white; stroke-width:1; stroke:black; " description="&lt;b&gt;cds4523_5027&lt;/b&gt;&lt;br&gt;hypothetical protein&lt;br&gt;Location: 4523 - 5027" locus_tag="cds4523_5027" class="clusterblast-orf" id="subclusterblast-1_q4_0_all"  />
<polygon points="67,40 82,40 87,35 82,30 67,30 67,40 " style="fill:white; stroke-width:1; stroke:black; " description="&lt;b&gt;cds5026_6454&lt;/b&gt;&lt;br&gt;hypothetical protein&lt;br&gt;Location: 5026 - 6454" locus_tag="cds5026_6454" class="clusterblast-orf" id="subclusterblast-1_q5_0_all"  />
<polygon points="87,40 102,40 107,35 102,30 87,30 87,40 " style="fill:white; stroke-width:1; stroke:black; " description="&lt;b&gt;cds6450_7866&lt;/b&gt;&lt;br&gt;hypothetical protein&lt;br&gt;Location: 6450 - 7866" locus_tag="cds6450_7866" class="clusterblast-orf" id="subclusterblast-1_q6_0_all"  />
<polygon points="108,40 118,40 123,35 118,30 108,30 108,40 " style="fill:white; stroke-width:1; stroke:black; " description="&lt;b&gt;cds7916_9029&lt;/b&gt;&lt;br&gt;putative protein YehL&lt;br&gt;Location: 7916 - 9029" locus_tag="cds7916_9029" class="clusterblast-orf" id="subclusterblast-1_q7_0_all"  />
<polygon points="123,40 157,40 162,35 157,30 123,30 123,40 " style="fill:white; stroke-width:1; stroke:black; " description="&lt;b&gt;cds9025_11821&lt;/b&gt;&lt;br&gt;hypothetical protein&lt;br&gt;Location: 9025 - 11821" locus_tag="cds9025_11821" class="clusterblast-orf" id="subclusterblast-1_q8_0_all"  />
<polygon points="165,40 182,40 187,35 182,30 165,30 165,40 " style="fill:white; stroke-width:1; stroke:black; " description="&lt;b&gt;cds12033_13605&lt;/b&gt;&lt;br&gt;Proline/betaine transporter&lt;br&gt;Location: 12033 - 13605" locus_tag="cds12033_13605" class="clusterblast-orf" id="subclusterblast-1_q9_0_all"  />
<polygon points="194,40 197,35 194,30 194,40 " style="fill:white; stroke-width:1; stroke:black; " description="&lt;b&gt;cds14120_14339&lt;/b&gt;&lt;br&gt;Protein MbtH&lt;br&gt;Location: 14120 - 14339" locus_tag="cds14120_14339" class="clusterblast-orf" id="subclusterblast-1_q10_0_all"  />
<polygon points="203,40 400,40 405,35 400,30 203,30 203,40 " style="fill:white; stroke-width:1; stroke:black; " description="&lt;b&gt;cds14742_29220&lt;/b&gt;&lt;br&gt;Tyrocidine synthase 3&lt;br&gt;Location: 14742 - 29220" locus_tag="cds14742_29220" class="clusterblast-orf" id="subclusterblast-1_q11_0_all"  />
<polygon points="405,40 506,40 511,35 506,30 405,30 405,40 " style="fill:white; stroke-width:1; stroke:black; " description="&lt;b&gt;cds29216_36776&lt;/b&gt;&lt;br&gt;Linear gramicidin synthase subunit D&lt;br&gt;Location: 29216 - 36776" locus_tag="cds29216_36776" class="clusterblast-orf" id="subclusterblast-1_q12_0_all"  />
<polygon points="511,40 513,40 518,35 513,30 511,30 511,40 " style="fill:white; stroke-width:1; stroke:black; " description="&lt;b&gt;cds36821_37274&lt;/b&gt;&lt;br&gt;hypothetical protein&lt;br&gt;Location: 36821 - 37274" locus_tag="cds36821_37274" class="clusterblast-orf" id="subclusterblast-1_q13_0_all"  />
<polygon points="519,40 529,40 534,35 529,30 519,30 519,40 " style="fill:white; stroke-width:1; stroke:black; " description="&lt;b&gt;cds37373_38432&lt;/b&gt;&lt;br&gt;hypothetical protein&lt;br&gt;Location: 37373 - 38432" locus_tag="cds37373_38432" class="clusterblast-orf" id="subclusterblast-1_q14_0_all"  />
<polygon points="538,40 548,40 553,35 548,30 538,30 538,40 " style="fill:white; stroke-width:1; stroke:black; " description="&lt;b&gt;cds38713_39781&lt;/b&gt;&lt;br&gt;hypothetical protein&lt;br&gt;Location: 38713 - 39781" locus_tag="cds38713_39781" class="clusterblast-orf" id="subclusterblast-1_q15_0_all"  />
<polygon points="553,35 556,30 556,40 553,35 " style="fill:white; stroke-width:1; stroke:black; " description="&lt;b&gt;cds39842_40028&lt;/b&gt;&lt;br&gt;hypothetical protein&lt;br&gt;Location: 39842 - 40028" locus_tag="cds39842_40028" class="clusterblast-orf" id="subclusterblast-1_q16_0_all"  />
<polygon points="556,35 560,30 560,40 556,35 " style="fill:white; stroke-width:1; stroke:black; " description="&lt;b&gt;cds40024_40312&lt;/b&gt;&lt;br&gt;hypothetical protein&lt;br&gt;Location: 40024 - 40312" locus_tag="cds40024_40312" class="clusterblast-orf" id="subclusterblast-1_q17_0_all"  />
<polygon points="562,35 567,30 568,30 568,40 567,40 562,35 " style="fill:white; stroke-width:1; stroke:black; " description="&lt;b&gt;cds40480_40894&lt;/b&gt;&lt;br&gt;hypothetical protein&lt;br&gt;Location: 40480 - 40894" locus_tag="cds40480_40894" class="clusterblast-orf" id="subclusterblast-1_q18_0_all"  />
<polygon points="578,35 583,30 588,30 588,40 583,40 578,35 " style="fill:white; stroke-width:1; stroke:black; " description="&lt;b&gt;cds41582_42332&lt;/b&gt;&lt;br&gt;Glucose 1-dehydrogenase&lt;br&gt;Location: 41582 - 42332" locus_tag="cds41582_42332" class="clusterblast-orf" id="subclusterblast-1_q19_0_all"  />
<polygon points="590,40 593,40 598,35 593,30 590,30 590,40 " style="fill:white; stroke-width:1; stroke:black; " description="&lt;b&gt;cds42498_43035&lt;/b&gt;&lt;br&gt;HTH-type transcriptional repressor ComR&lt;br&gt;Location: 42498 - 43035" locus_tag="cds42498_43035" class="clusterblast-orf" id="subclusterblast-1_q20_0_all"  />
<polygon points="599,35 604,30 614,30 614,40 604,40 599,35 " style="fill:white; stroke-width:1; stroke:black; " description="&lt;b&gt;cds43100_44174&lt;/b&gt;&lt;br&gt;N-ethylmaleimide reductase&lt;br&gt;Location: 43100 - 44174" locus_tag="cds43100_44174" class="clusterblast-orf" id="subclusterblast-1_q21_0_all"  />
<polygon points="616,40 617,40 622,35 617,30 616,30 616,40 " style="fill:white; stroke-width:1; stroke:black; " description="&lt;b&gt;cds44329_44761&lt;/b&gt;&lt;br&gt;Mercuric resistance operon regulatory protein&lt;br&gt;Location: 44329 - 44761" locus_tag="cds44329_44761" class="clusterblast-orf" id="subclusterblast-1_q22_0_all"  />
<polygon points="624,35 629,30 638,30 638,40 629,40 624,35 " style="fill:white; stroke-width:1; stroke:black; " description="&lt;b&gt;cds44928_45888&lt;/b&gt;&lt;br&gt;N-acetylmannosamine kinase&lt;br&gt;Location: 44928 - 45888" locus_tag="cds44928_45888" class="clusterblast-orf" id="subclusterblast-1_q23_0_all"  />
<polygon points="652,40 665,40 670,35 665,30 652,30 652,40 " style="fill:white; stroke-width:1; stroke:black; " description="&lt;b&gt;cds46880_48188&lt;/b&gt;&lt;br&gt;Mannan endo-1,4-beta-mannosidase&lt;br&gt;Location: 46880 - 48188" locus_tag="cds46880_48188" class="clusterblast-orf" id="subclusterblast-1_q24_0_all"  />
<polygon points="670,35 675,30 676,30 676,40 675,40 670,35 " style="fill:white; stroke-width:1; stroke:black; " description="&lt;b&gt;cds48212_48611&lt;/b&gt;&lt;br&gt;hypothetical protein&lt;br&gt;Location: 48212 - 48611" locus_tag="cds48212_48611" class="clusterblast-orf" id="subclusterblast-1_q25_0_all"  />
<polygon points="676,35 681,30 682,30 682,40 681,40 676,35 " style="fill:white; stroke-width:1; stroke:black; " description="&lt;b&gt;cds48624_49035&lt;/b&gt;&lt;br&gt;hypothetical protein&lt;br&gt;Location: 48624 - 49035" locus_tag="cds48624_49035" class="clusterblast-orf" id="subclusterblast-1_q26_0_all"  />
<polygon points="682,40 690,40 695,35 690,30 682,30 682,40 " style="fill:white; stroke-width:1; stroke:black; " description="&lt;b&gt;cds49084_49969&lt;/b&gt;&lt;br&gt;hypothetical protein&lt;br&gt;Location: 49084 - 49969" locus_tag="cds49084_49969" class="clusterblast-orf" id="subclusterblast-1_q27_0_all"  />
<polygon points="699,35 704,30 710,30 710,40 704,40 699,35 " style="fill:white; stroke-width:1; stroke:black; " description="&lt;b&gt;cds50256_51051&lt;/b&gt;&lt;br&gt;2,5-dichloro-2,5-cyclohexadiene-1,4-diol dehydrogenase&lt;br&gt;Location: 50256 - 51051" locus_tag="cds50256_51051" class="clusterblast-orf" id="subclusterblast-1_q28_0_all"  />
<polygon points="712,40 716,40 721,35 716,30 712,30 712,40 " style="fill:white; stroke-width:1; stroke:black; " description="&lt;b&gt;cds51229_51832&lt;/b&gt;&lt;br&gt;HTH-type transcriptional repressor ComR&lt;br&gt;Location: 51229 - 51832" locus_tag="cds51229_51832" class="clusterblast-orf" id="subclusterblast-1_q29_0_all"  />
<polygon points="724,35 729,30 737,30 737,40 729,40 724,35 " style="fill:white; stroke-width:1; stroke:black; " description="&lt;b&gt;cds52033_52969&lt;/b&gt;&lt;br&gt;Haloalkane dehalogenase&lt;br&gt;Location: 52033 - 52969" locus_tag="cds52033_52969" class="clusterblast-orf" id="subclusterblast-1_q30_0_all"  />
<polygon points="748,40 753,40 758,35 753,30 748,30 748,40 " style="fill:white; stroke-width:1; stroke:black; " description="&lt;b&gt;cds53803_54529&lt;/b&gt;&lt;br&gt;Endo-1,4-beta-xylanase C&lt;br&gt;Location: 53803 - 54529" locus_tag="cds53803_54529" class="clusterblast-orf" id="subclusterblast-1_q31_0_all"  />
<polygon points="761,35 764,30 764,40 761,35 " style="fill:white; stroke-width:1; stroke:black; " description="&lt;b&gt;cds54707_54929&lt;/b&gt;&lt;br&gt;hypothetical protein&lt;br&gt;Location: 54707 - 54929" locus_tag="cds54707_54929" class="clusterblast-orf" id="subclusterblast-1_q32_0_all"  />
<polygon points="765,35 770,30 780,30 780,40 770,40 765,35 " style="fill:white; stroke-width:1; stroke:black; " description="&lt;b&gt;cds55021_56050&lt;/b&gt;&lt;br&gt;HTH-type transcriptional regulator DegA&lt;br&gt;Location: 55021 - 56050" locus_tag="cds55021_56050" class="clusterblast-orf" id="subclusterblast-1_q33_0_all"  />
</g>
</svg>
