<svg xmlns="http://www.w3.org/2000/svg" xmlns:xlink="http://www.w3.org/1999/xlink" version="1.1" x="0" y="0" height="50" width="800" viewBox="0 0 800 50" preserveAspectRatio="none"  >
<g label="Query sequence" class="clusterblast-cluster"  >
<text x="5" y="20" class="clusterblast-acc"  >
Query sequence</text>
<line x1="10" y1="35" x2="778.0" y2="35" style="stroke-width:1; stroke:grey; "  />
<polygon points="0,40 7,40 12,35 7,30 0,30 0,40 " style="fill:white; stroke-width:1; stroke:black; " description="&lt;b&gt;cds81469_82450&lt;/b&gt;&lt;br&gt;hypothetical protein&lt;br&gt;Location: 81469 - 82450" locus_tag="cds81469_82450" class="clusterblast-orf" id="subclusterblast-1_q0_0_all"  />
<polygon points="13,40 21,40 26,35 21,30 13,30 13,40 " style="fill:white; stroke-width:1; stroke:black; " description="&lt;b&gt;cds82548_83541&lt;/b&gt;&lt;br&gt;HTH-type transcriptional repressor CytR&lt;br&gt;Location: 82548 - 83541" locus_tag="cds82548_83541" class="clusterblast-orf" id="subclusterblast-1_q1_0_all"  />
<polygon points="27,40 61,40 66,35 61,30 27,30 27,40 " style="fill:white; stroke-width:1; stroke:black; " description="&lt;b&gt;cds83639_86702&lt;/b&gt;&lt;br&gt;hypothetical protein&lt;br&gt;Location: 83639 - 86702" locus_tag="cds83639_86702" class="clusterblast-orf" id="subclusterblast-1_q2_0_all"  />
<polygon points="67,35 72,30 76,30 76,40 72,40 67,35 " style="fill:white; stroke-width:1; stroke:black; " description="&lt;b&gt;cds86800_87535&lt;/b&gt;&lt;br&gt;3-alpha-(or 20-beta)-hydroxysteroid dehydrogenase&lt;br&gt;Location: 86800 - 87535" locus_tag="cds86800_87535" class="clusterblast-orf" id="subclusterblast-1_q3_0_all"  />
<polygon points="76,35 81,30 88,30 88,40 81,40 76,35 " style="fill:white; stroke-width:1; stroke:black; " description="&lt;b&gt;cds87531_88503&lt;/b&gt;&lt;br&gt;hypothetical protein&lt;br&gt;Location: 87531 - 88503" locus_tag="cds87531_88503" class="clusterblast-orf" id="subclusterblast-1_q4_0_all"  />
<polygon points="89,35 94,30 101,30 101,40 94,40 89,35 " style="fill:white; stroke-width:1; stroke:black; " description="&lt;b&gt;cds88603_89542&lt;/b&gt;&lt;br&gt;hypothetical protein&lt;br&gt;Location: 88603 - 89542" locus_tag="cds88603_89542" class="clusterblast-orf" id="subclusterblast-1_q5_0_all"  />
<polygon points="101,35 106,30 114,30 114,40 106,40 101,35 " style="fill:white; stroke-width:1; stroke:black; " description="&lt;b&gt;cds89555_90587&lt;/b&gt;&lt;br&gt;hypothetical protein&lt;br&gt;Location: 89555 - 90587" locus_tag="cds89555_90587" class="clusterblast-orf" id="subclusterblast-1_q6_0_all"  />
<polygon points="114,35 119,30 129,30 129,40 119,40 114,35 " style="fill:white; stroke-width:1; stroke:black; " description="&lt;b&gt;cds90583_91714&lt;/b&gt;&lt;br&gt;2-heptyl-3-hydroxy-4(1H)-quinolone synthase&lt;br&gt;Location: 90583 - 91714" locus_tag="cds90583_91714" class="clusterblast-orf" id="subclusterblast-1_q7_0_all"  />
<polygon points="129,35 134,30 141,30 141,40 134,40 129,35 " style="fill:white; stroke-width:1; stroke:black; " description="&lt;b&gt;cds91741_92704&lt;/b&gt;&lt;br&gt;hypothetical protein&lt;br&gt;Location: 91741 - 92704" locus_tag="cds91741_92704" class="clusterblast-orf" id="subclusterblast-1_q8_0_all"  />
<polygon points="141,35 146,30 154,30 154,40 146,40 141,35 " style="fill:white; stroke-width:1; stroke:black; " description="&lt;b&gt;cds92700_93693&lt;/b&gt;&lt;br&gt;Ureidoglycolate lyase&lt;br&gt;Location: 92700 - 93693" locus_tag="cds92700_93693" class="clusterblast-orf" id="subclusterblast-1_q9_0_all"  />
<polygon points="155,40 162,40 167,35 162,30 155,30 155,40 " style="fill:white; stroke-width:1; stroke:black; " description="&lt;b&gt;cds93826_94756&lt;/b&gt;&lt;br&gt;Nodulation protein D 2&lt;br&gt;Location: 93826 - 94756" locus_tag="cds93826_94756" class="clusterblast-orf" id="subclusterblast-1_q10_0_all"  />
<polygon points="169,40 170,40 175,35 170,30 169,30 169,40 " style="fill:white; stroke-width:1; stroke:black; " description="&lt;b&gt;cds94940_95381&lt;/b&gt;&lt;br&gt;hypothetical protein&lt;br&gt;Location: 94940 - 95381" locus_tag="cds94940_95381" class="clusterblast-orf" id="subclusterblast-1_q11_0_all"  />
<polygon points="178,40 180,35 178,30 178,40 " style="fill:white; stroke-width:1; stroke:black; " description="&lt;b&gt;cds95630_95813&lt;/b&gt;&lt;br&gt;D-galactonate dehydratase&lt;br&gt;Location: 95630 - 95813" locus_tag="cds95630_95813" class="clusterblast-orf" id="subclusterblast-1_q12_0_all"  />
<polygon points="181,40 184,40 189,35 184,30 181,30 181,40 " style="fill:white; stroke-width:1; stroke:black; " description="&lt;b&gt;cds95890_96532&lt;/b&gt;&lt;br&gt;KHG/KDPG aldolase&lt;br&gt;Location: 95890 - 96532" locus_tag="cds95890_96532" class="clusterblast-orf" id="subclusterblast-1_q13_0_all"  />
<polygon points="189,40 196,40 201,35 196,30 189,30 189,40 " style="fill:white; stroke-width:1; stroke:black; " description="&lt;b&gt;cds96528_97503&lt;/b&gt;&lt;br&gt;2-dehydro-3-deoxygluconokinase&lt;br&gt;Location: 96528 - 97503" locus_tag="cds96528_97503" class="clusterblast-orf" id="subclusterblast-1_q14_0_all"  />
<polygon points="203,40 206,40 211,35 206,30 203,30 203,40 " style="fill:white; stroke-width:1; stroke:black; " description="&lt;b&gt;cds97603_98224&lt;/b&gt;&lt;br&gt;hypothetical protein&lt;br&gt;Location: 97603 - 98224" locus_tag="cds97603_98224" class="clusterblast-orf" id="subclusterblast-1_q15_0_all"  />
<polygon points="211,40 212,35 211,30 211,40 " style="fill:white; stroke-width:1; stroke:black; " description="&lt;b&gt;cds98246_98342&lt;/b&gt;&lt;br&gt;hypothetical protein&lt;br&gt;Location: 98246 - 98342" locus_tag="cds98246_98342" class="clusterblast-orf" id="subclusterblast-1_q16_0_all"  />
<polygon points="212,35 217,30 229,30 229,40 217,40 212,35 " style="fill:white; stroke-width:1; stroke:black; " description="&lt;b&gt;cds98330_99656&lt;/b&gt;&lt;br&gt;Putrescine importer PuuP&lt;br&gt;Location: 98330 - 99656" locus_tag="cds98330_99656" class="clusterblast-orf" id="subclusterblast-1_q17_0_all"  />
<polygon points="230,40 245,40 250,35 245,30 230,30 230,40 " style="fill:white; stroke-width:1; stroke:black; " description="&lt;b&gt;cds99756_101373&lt;/b&gt;&lt;br&gt;Phytoene desaturase (lycopene-forming)&lt;br&gt;Location: 99756 - 101373" locus_tag="cds99756_101373" class="clusterblast-orf" id="subclusterblast-1_q18_0_all"  />
<polygon points="250,35 255,30 334,30 334,40 255,40 250,35 " style="fill:white; stroke-width:1; stroke:black; " description="&lt;b&gt;cds101331_108036&lt;/b&gt;&lt;br&gt;hypothetical protein&lt;br&gt;Location: 101331 - 108036" locus_tag="cds101331_108036" class="clusterblast-orf" id="subclusterblast-1_q19_0_all"  />
<polygon points="335,35 340,30 411,30 411,40 340,40 335,35 " style="fill:white; stroke-width:1; stroke:black; " description="&lt;b&gt;cds108079_114127&lt;/b&gt;&lt;br&gt;hypothetical protein&lt;br&gt;Location: 108079 - 114127" locus_tag="cds108079_114127" class="clusterblast-orf" id="subclusterblast-1_q20_0_all"  />
<polygon points="411,35 416,30 431,30 431,40 416,40 411,35 " style="fill:white; stroke-width:1; stroke:black; " description="&lt;b&gt;cds114183_115767&lt;/b&gt;&lt;br&gt;Polyketide biosynthesis protein PksE&lt;br&gt;Location: 114183 - 115767" locus_tag="cds114183_115767" class="clusterblast-orf" id="subclusterblast-1_q21_0_all"  />
<polygon points="432,35 437,30 446,30 446,40 437,40 432,35 " style="fill:white; stroke-width:1; stroke:black; " description="&lt;b&gt;cds115800_116940&lt;/b&gt;&lt;br&gt;hypothetical protein&lt;br&gt;Location: 115800 - 116940" locus_tag="cds115800_116940" class="clusterblast-orf" id="subclusterblast-1_q22_0_all"  />
<polygon points="456,40 468,40 473,35 468,30 456,30 456,40 " style="fill:white; stroke-width:1; stroke:black; " description="&lt;b&gt;cds117690_119061&lt;/b&gt;&lt;br&gt;hypothetical protein&lt;br&gt;Location: 117690 - 119061" locus_tag="cds117690_119061" class="clusterblast-orf" id="subclusterblast-1_q23_0_all"  />
<polygon points="473,35 478,30 491,30 491,40 478,40 473,35 " style="fill:white; stroke-width:1; stroke:black; " description="&lt;b&gt;cds119111_120494&lt;/b&gt;&lt;br&gt;Ferredoxin--NADP reductase&lt;br&gt;Location: 119111 - 120494" locus_tag="cds119111_120494" class="clusterblast-orf" id="subclusterblast-1_q24_0_all"  />
<polygon points="495,40 498,40 503,35 498,30 495,30 495,40 " style="fill:white; stroke-width:1; stroke:black; " description="&lt;b&gt;cds120851_121466&lt;/b&gt;&lt;br&gt;Linearmycin resistance ATP-binding protein LnrL&lt;br&gt;Location: 120851 - 121466" locus_tag="cds120851_121466" class="clusterblast-orf" id="subclusterblast-1_q25_0_all"  />
<polygon points="503,40 509,40 514,35 509,30 503,30 503,40 " style="fill:white; stroke-width:1; stroke:black; " description="&lt;b&gt;cds121462_122323&lt;/b&gt;&lt;br&gt;hypothetical protein&lt;br&gt;Location: 121462 - 122323" locus_tag="cds121462_122323" class="clusterblast-orf" id="subclusterblast-1_q26_0_all"  />
<polygon points="515,40 516,40 521,35 516,30 515,30 515,40 " style="fill:white; stroke-width:1; stroke:black; " description="&lt;b&gt;cds122394_122916&lt;/b&gt;&lt;br&gt;hypothetical protein&lt;br&gt;Location: 122394 - 122916" locus_tag="cds122394_122916" class="clusterblast-orf" id="subclusterblast-1_q27_0_all"  />
<polygon points="524,40 547,40 552,35 547,30 524,30 524,40 " style="fill:white; stroke-width:1; stroke:black; " description="&lt;b&gt;cds123104_125345&lt;/b&gt;&lt;br&gt;Outer membrane protein assembly factor BamB&lt;br&gt;Location: 123104 - 125345" locus_tag="cds123104_125345" class="clusterblast-orf" id="subclusterblast-1_q28_0_all"  />
<polygon points="553,35 558,30 568,30 568,40 558,40 553,35 " style="fill:white; stroke-width:1; stroke:black; " description="&lt;b&gt;cds125387_126587&lt;/b&gt;&lt;br&gt;hypothetical protein&lt;br&gt;Location: 125387 - 126587" locus_tag="cds125387_126587" class="clusterblast-orf" id="subclusterblast-1_q29_0_all"  />
<polygon points="571,40 591,40 596,35 591,30 571,30 571,40 " style="fill:white; stroke-width:1; stroke:black; " description="&lt;b&gt;cds126885_128847&lt;/b&gt;&lt;br&gt;hypothetical protein&lt;br&gt;Location: 126885 - 128847" locus_tag="cds126885_128847" class="clusterblast-orf" id="subclusterblast-1_q30_0_all"  />
<polygon points="598,40 619,40 624,35 619,30 598,30 598,40 " style="fill:white; stroke-width:1; stroke:black; " description="&lt;b&gt;cds129016_131038&lt;/b&gt;&lt;br&gt;hypothetical protein&lt;br&gt;Location: 129016 - 131038" locus_tag="cds129016_131038" class="clusterblast-orf" id="subclusterblast-1_q31_0_all"  />
<polygon points="623,35 628,30 635,30 635,40 628,40 623,35 " style="fill:white; stroke-width:1; stroke:black; " description="&lt;b&gt;cds131015_131951&lt;/b&gt;&lt;br&gt;F420-dependent glucose-6-phosphate dehydrogenase&lt;br&gt;Location: 131015 - 131951" locus_tag="cds131015_131951" class="clusterblast-orf" id="subclusterblast-1_q32_0_all"  />
<polygon points="637,35 642,30 648,30 648,40 642,40 637,35 " style="fill:white; stroke-width:1; stroke:black; " description="&lt;b&gt;cds132062_132956&lt;/b&gt;&lt;br&gt;Geranyl diphosphate 2-C-methyltransferase&lt;br&gt;Location: 132062 - 132956" locus_tag="cds132062_132956" class="clusterblast-orf" id="subclusterblast-1_q33_0_all"  />
<polygon points="648,35 653,30 664,30 664,40 653,40 648,35 " style="fill:white; stroke-width:1; stroke:black; " description="&lt;b&gt;cds132960_134271&lt;/b&gt;&lt;br&gt;2-methylisoborneol synthase&lt;br&gt;Location: 132960 - 134271" locus_tag="cds132960_134271" class="clusterblast-orf" id="subclusterblast-1_q34_0_all"  />
<polygon points="666,35 671,30 684,30 684,40 671,40 666,35 " style="fill:white; stroke-width:1; stroke:black; " description="&lt;b&gt;cds134382_135795&lt;/b&gt;&lt;br&gt;hypothetical protein&lt;br&gt;Location: 134382 - 135795" locus_tag="cds134382_135795" class="clusterblast-orf" id="subclusterblast-1_q35_0_all"  />
<polygon points="690,35 693,30 693,40 690,35 " style="fill:white; stroke-width:1; stroke:black; " description="&lt;b&gt;cds136297_136564&lt;/b&gt;&lt;br&gt;hypothetical protein&lt;br&gt;Location: 136297 - 136564" locus_tag="cds136297_136564" class="clusterblast-orf" id="subclusterblast-1_q36_0_all"  />
<polygon points="695,35 700,30 703,30 703,40 700,40 695,35 " style="fill:white; stroke-width:1; stroke:black; " description="&lt;b&gt;cds136705_137347&lt;/b&gt;&lt;br&gt;Putative phosphoserine phosphatase 2&lt;br&gt;Location: 136705 - 137347" locus_tag="cds136705_137347" class="clusterblast-orf" id="subclusterblast-1_q37_0_all"  />
<polygon points="705,35 706,30 706,40 705,35 " style="fill:white; stroke-width:1; stroke:black; " description="&lt;b&gt;cds137470_137608&lt;/b&gt;&lt;br&gt;hypothetical protein&lt;br&gt;Location: 137470 - 137608" locus_tag="cds137470_137608" class="clusterblast-orf" id="subclusterblast-1_q38_0_all"  />
<polygon points="707,35 712,30 720,30 720,40 712,40 707,35 " style="fill:white; stroke-width:1; stroke:black; " description="&lt;b&gt;cds137678_138674&lt;/b&gt;&lt;br&gt;hypothetical protein&lt;br&gt;Location: 137678 - 138674" locus_tag="cds137678_138674" class="clusterblast-orf" id="subclusterblast-1_q39_0_all"  />
<polygon points="722,35 727,30 740,30 740,40 727,40 722,35 " style="fill:white; stroke-width:1; stroke:black; " description="&lt;b&gt;cds138887_140312&lt;/b&gt;&lt;br&gt;Drug efflux pump JefA&lt;br&gt;Location: 138887 - 140312" locus_tag="cds138887_140312" class="clusterblast-orf" id="subclusterblast-1_q40_0_all"  />
<polygon points="742,40 745,40 750,35 745,30 742,30 742,40 " style="fill:white; stroke-width:1; stroke:black; " description="&lt;b&gt;cds140420_141113&lt;/b&gt;&lt;br&gt;hypothetical protein&lt;br&gt;Location: 140420 - 141113" locus_tag="cds140420_141113" class="clusterblast-orf" id="subclusterblast-1_q41_0_all"  />
<polygon points="751,35 756,30 780,30 780,40 756,40 751,35 " style="fill:white; stroke-width:1; stroke:black; " description="&lt;b&gt;cds141187_143428&lt;/b&gt;&lt;br&gt;hypothetical protein&lt;br&gt;Location: 141187 - 143428" locus_tag="cds141187_143428" class="clusterblast-orf" id="subclusterblast-1_q42_0_all"  />
</g>
</svg>
