<svg xmlns="http://www.w3.org/2000/svg" xmlns:xlink="http://www.w3.org/1999/xlink" version="1.1" x="0" y="0" height="50" width="800" viewBox="0 0 800 50" preserveAspectRatio="none"  >
<g label="Query sequence" class="clusterblast-cluster"  >
<text x="5" y="20" class="clusterblast-acc"  >
Query sequence</text>
<line x1="10" y1="35" x2="778.0" y2="35" style="stroke-width:1; stroke:grey; "  />
<polygon points="0,40 25,40 30,35 25,30 0,30 0,40 " style="fill:white; stroke-width:1; stroke:black; " description="&lt;b&gt;cds24901_25684&lt;/b&gt;&lt;br&gt;IS5 family transposase IS112&lt;br&gt;Location: 24901 - 25684" locus_tag="cds24901_25684" class="clusterblast-orf" id="subclusterblast-1_q0_0_all"  />
<polygon points="48,40 62,40 67,35 62,30 48,30 48,40 " style="fill:white; stroke-width:1; stroke:black; " description="&lt;b&gt;cds26127_26634&lt;/b&gt;&lt;br&gt;Homoserine/homoserine lactone efflux protein&lt;br&gt;Location: 26127 - 26634" locus_tag="cds26127_26634" class="clusterblast-orf" id="subclusterblast-1_q1_0_all"  />
<polygon points="80,40 94,40 99,35 94,30 80,30 80,40 " style="fill:white; stroke-width:1; stroke:black; " description="&lt;b&gt;cds26953_27442&lt;/b&gt;&lt;br&gt;tRNA-specific adenosine deaminase&lt;br&gt;Location: 26953 - 27442" locus_tag="cds26953_27442" class="clusterblast-orf" id="subclusterblast-1_q2_0_all"  />
<polygon points="99,35 104,30 109,30 109,40 104,40 99,35 " style="fill:white; stroke-width:1; stroke:black; " description="&lt;b&gt;cds27449_27713&lt;/b&gt;&lt;br&gt;hypothetical protein&lt;br&gt;Location: 27449 - 27713" locus_tag="cds27449_27713" class="clusterblast-orf" id="subclusterblast-1_q3_0_all"  />
<polygon points="122,35 127,30 140,30 140,40 127,40 122,35 " style="fill:white; stroke-width:1; stroke:black; " description="&lt;b&gt;cds28056_28509&lt;/b&gt;&lt;br&gt;hypothetical protein&lt;br&gt;Location: 28056 - 28509" locus_tag="cds28056_28509" class="clusterblast-orf" id="subclusterblast-1_q4_0_all"  />
<polygon points="146,40 167,40 172,35 167,30 146,30 146,40 " style="fill:white; stroke-width:1; stroke:black; " description="&lt;b&gt;cds28671_29331&lt;/b&gt;&lt;br&gt;hypothetical protein&lt;br&gt;Location: 28671 - 29331" locus_tag="cds28671_29331" class="clusterblast-orf" id="subclusterblast-1_q5_0_all"  />
<polygon points="189,40 214,40 219,35 214,30 189,30 189,40 " style="fill:white; stroke-width:1; stroke:black; " description="&lt;b&gt;cds29766_30546&lt;/b&gt;&lt;br&gt;(2Z,6E)-farnesyl diphosphate synthase&lt;br&gt;Location: 29766 - 30546" locus_tag="cds29766_30546" class="clusterblast-orf" id="subclusterblast-1_q6_0_all"  />
<polygon points="225,40 243,40 248,35 243,30 225,30 225,40 " style="fill:white; stroke-width:1; stroke:black; " description="&lt;b&gt;cds30685_31300&lt;/b&gt;&lt;br&gt;Linearmycin resistance ATP-binding protein LnrL&lt;br&gt;Location: 30685 - 31300" locus_tag="cds30685_31300" class="clusterblast-orf" id="subclusterblast-1_q7_0_all"  />
<polygon points="248,40 275,40 280,35 275,30 248,30 248,40 " style="fill:white; stroke-width:1; stroke:black; " description="&lt;b&gt;cds31296_32121&lt;/b&gt;&lt;br&gt;hypothetical protein&lt;br&gt;Location: 31296 - 32121" locus_tag="cds31296_32121" class="clusterblast-orf" id="subclusterblast-1_q8_0_all"  />
<polygon points="283,35 288,30 326,30 326,40 288,40 283,35 " style="fill:white; stroke-width:1; stroke:black; " description="&lt;b&gt;cds32200_33289&lt;/b&gt;&lt;br&gt;hypothetical protein&lt;br&gt;Location: 32200 - 33289" locus_tag="cds32200_33289" class="clusterblast-orf" id="subclusterblast-1_q9_0_all"  />
<polygon points="331,35 336,30 373,30 373,40 336,40 331,35 " style="fill:white; stroke-width:1; stroke:black; " description="&lt;b&gt;cds33416_34496&lt;/b&gt;&lt;br&gt;(2E,6E)-farnesyl diphosphate synthase&lt;br&gt;Location: 33416 - 34496" locus_tag="cds33416_34496" class="clusterblast-orf" id="subclusterblast-1_q10_0_all"  />
<polygon points="379,35 384,30 415,30 415,40 384,40 379,35 " style="fill:white; stroke-width:1; stroke:black; " description="&lt;b&gt;cds34668_35577&lt;/b&gt;&lt;br&gt;hypothetical protein&lt;br&gt;Location: 34668 - 35577" locus_tag="cds34668_35577" class="clusterblast-orf" id="subclusterblast-1_q11_0_all"  />
<polygon points="425,35 430,30 451,30 451,40 430,40 425,35 " style="fill:white; stroke-width:1; stroke:black; " description="&lt;b&gt;cds35842_36514&lt;/b&gt;&lt;br&gt;hypothetical protein&lt;br&gt;Location: 35842 - 36514" locus_tag="cds35842_36514" class="clusterblast-orf" id="subclusterblast-1_q12_0_all"  />
<polygon points="451,35 456,30 466,30 466,40 456,40 451,35 " style="fill:white; stroke-width:1; stroke:black; " description="&lt;b&gt;cds36510_36894&lt;/b&gt;&lt;br&gt;hypothetical protein&lt;br&gt;Location: 36510 - 36894" locus_tag="cds36510_36894" class="clusterblast-orf" id="subclusterblast-1_q13_0_all"  />
<polygon points="468,40 492,40 497,35 492,30 468,30 468,40 " style="fill:white; stroke-width:1; stroke:black; " description="&lt;b&gt;cds36942_37701&lt;/b&gt;&lt;br&gt;HTH-type transcriptional repressor GlcR&lt;br&gt;Location: 36942 - 37701" locus_tag="cds36942_37701" class="clusterblast-orf" id="subclusterblast-1_q14_0_all"  />
<polygon points="508,35 513,30 548,30 548,40 513,40 508,35 " style="fill:white; stroke-width:1; stroke:black; " description="&lt;b&gt;cds37974_39009&lt;/b&gt;&lt;br&gt;hypothetical protein&lt;br&gt;Location: 37974 - 39009" locus_tag="cds37974_39009" class="clusterblast-orf" id="subclusterblast-1_q15_0_all"  />
<polygon points="551,35 556,30 587,30 587,40 556,40 551,35 " style="fill:white; stroke-width:1; stroke:black; " description="&lt;b&gt;cds39086_40013&lt;/b&gt;&lt;br&gt;hypothetical protein&lt;br&gt;Location: 39086 - 40013" locus_tag="cds39086_40013" class="clusterblast-orf" id="subclusterblast-1_q16_0_all"  />
<polygon points="593,40 609,40 614,35 609,30 593,30 593,40 " style="fill:white; stroke-width:1; stroke:black; " description="&lt;b&gt;cds40178_40706&lt;/b&gt;&lt;br&gt;hypothetical protein&lt;br&gt;Location: 40178 - 40706" locus_tag="cds40178_40706" class="clusterblast-orf" id="subclusterblast-1_q17_0_all"  />
<polygon points="627,40 713,40 718,35 713,30 627,30 627,40 " style="fill:white; stroke-width:1; stroke:black; " description="&lt;b&gt;cds41048_43394&lt;/b&gt;&lt;br&gt;hypothetical protein&lt;br&gt;Location: 41048 - 43394" locus_tag="cds41048_43394" class="clusterblast-orf" id="subclusterblast-1_q18_0_all"  />
<polygon points="721,35 726,30 780,30 780,40 726,40 721,35 " style="fill:white; stroke-width:1; stroke:black; " description="&lt;b&gt;cds43465_44983&lt;/b&gt;&lt;br&gt;Glycerol kinase&lt;br&gt;Location: 43465 - 44983" locus_tag="cds43465_44983" class="clusterblast-orf" id="subclusterblast-1_q19_0_all"  />
</g>
</svg>
