<svg xmlns="http://www.w3.org/2000/svg" xmlns:xlink="http://www.w3.org/1999/xlink" version="1.1" x="0" y="0" height="230" width="800" viewBox="0 0 800 230" preserveAspectRatio="none"  >
<g label="Query sequence" class="clusterblast-cluster"  >
<text x="5" y="20" class="clusterblast-acc"  >
Query sequence</text>
<line x1="10" y1="35" x2="778.0" y2="35" style="stroke-width:1; stroke:grey; "  />
<polygon points="192,40 224,40 229,35 224,30 192,30 192,40 " style="fill:white; stroke-width:1; stroke:black; " description="&lt;b&gt;cds172_3241&lt;/b&gt;&lt;br&gt;Regulatory protein AfsR&lt;br&gt;Location: 172 - 3241" locus_tag="cds172_3241" class="clusterblast-orf" id="dummy-1_q0_0_all"  />
<polygon points="230,35 232,30 232,40 230,35 " style="fill:white; stroke-width:1; stroke:black; " description="&lt;b&gt;cds3274_3463&lt;/b&gt;&lt;br&gt;hypothetical protein&lt;br&gt;Location: 3274 - 3463" locus_tag="cds3274_3463" class="clusterblast-orf" id="dummy-1_q1_0_all"  />
<polygon points="233,35 238,30 241,30 241,40 238,40 233,35 " style="fill:white; stroke-width:1; stroke:black; " description="&lt;b&gt;cds3561_4200&lt;/b&gt;&lt;br&gt;hypothetical protein&lt;br&gt;Location: 3561 - 4200" locus_tag="cds3561_4200" class="clusterblast-orf" id="dummy-1_q2_0_all"  />
<polygon points="241,35 246,30 257,30 257,40 246,40 241,35 " style="fill:white; stroke-width:1; stroke:black; " description="&lt;b&gt;cds4199_5465&lt;/b&gt;&lt;br&gt;N-acetylcysteine deacetylase&lt;br&gt;Location: 4199 - 5465" locus_tag="cds4199_5465" class="clusterblast-orf" id="dummy-1_q3_0_all"  />
<polygon points="257,35 262,30 272,30 272,40 262,40 257,35 " style="fill:white; stroke-width:1; stroke:black; " description="&lt;b&gt;cds5461_6736&lt;/b&gt;&lt;br&gt;2-aminoadipate transaminase&lt;br&gt;Location: 5461 - 6736" locus_tag="cds5461_6736" class="clusterblast-orf" id="dummy-1_q4_0_all"  />
<polygon points="273,35 278,30 289,30 289,40 278,40 273,35 " style="fill:white; stroke-width:1; stroke:black; " description="&lt;b&gt;cds6807_8067&lt;/b&gt;&lt;br&gt;hypothetical protein&lt;br&gt;Location: 6807 - 8067" locus_tag="cds6807_8067" class="clusterblast-orf" id="dummy-1_q5_0_all"  />
<polygon points="289,35 294,30 301,30 301,40 294,40 289,35 " style="fill:white; stroke-width:1; stroke:black; " description="&lt;b&gt;cds8063_9062&lt;/b&gt;&lt;br&gt;Putative NADP-dependent oxidoreductase YfmJ&lt;br&gt;Location: 8063 - 9062" locus_tag="cds8063_9062" class="clusterblast-orf" id="dummy-1_q6_0_all"  />
<polygon points="302,35 307,30 326,30 326,40 307,40 302,35 " style="fill:white; stroke-width:1; stroke:black; " description="&lt;b&gt;cds9121_11056&lt;/b&gt;&lt;br&gt;hypothetical protein&lt;br&gt;Location: 9121 - 11056" locus_tag="cds9121_11056" class="clusterblast-orf" id="dummy-1_q7_0_all"  />
<polygon points="325,35 330,30 340,30 340,40 330,40 325,35 " style="fill:white; stroke-width:1; stroke:black; " description="&lt;b&gt;cds11052_12261&lt;/b&gt;&lt;br&gt;hypothetical protein&lt;br&gt;Location: 11052 - 12261" locus_tag="cds11052_12261" class="clusterblast-orf" id="dummy-1_q8_0_all"  />
<polygon points="340,35 345,30 352,30 352,40 345,40 340,35 " style="fill:white; stroke-width:1; stroke:black; " description="&lt;b&gt;cds12257_13217&lt;/b&gt;&lt;br&gt;hypothetical protein&lt;br&gt;Location: 12257 - 13217" locus_tag="cds12257_13217" class="clusterblast-orf" id="dummy-1_q9_0_all"  />
<polygon points="352,35 357,30 363,30 363,40 357,40 352,35 " style="fill:white; stroke-width:1; stroke:black; " description="&lt;b&gt;cds13204_14098&lt;/b&gt;&lt;br&gt;Alpha-ketoglutarate-dependent taurine dioxygenase&lt;br&gt;Location: 13204 - 14098" locus_tag="cds13204_14098" class="clusterblast-orf" id="dummy-1_q10_0_all"  />
<polygon points="364,35 369,30 379,30 379,40 369,40 364,35 " style="fill:white; stroke-width:1; stroke:black; " description="&lt;b&gt;cds14171_15392&lt;/b&gt;&lt;br&gt;5-aminolevulinate synthase&lt;br&gt;Location: 14171 - 15392" locus_tag="cds14171_15392" class="clusterblast-orf" id="dummy-1_q11_0_all"  />
<polygon points="380,35 385,30 385,30 385,40 385,40 380,35 " style="fill:#d81515; stroke-width:1; stroke:black; " description="&lt;b&gt;cds15523_15925&lt;/b&gt;&lt;br&gt;hypothetical protein&lt;br&gt;Location: 15523 - 15925" locus_tag="cds15523_15925" class="clusterblast-orf" id="dummy-1_q12_0_all"  />
<polygon points="387,40 387,40 392,35 387,30 387,30 387,40 " style="fill:#15d863; stroke-width:1; stroke:black; " description="&lt;b&gt;cds16052_16460&lt;/b&gt;&lt;br&gt;hypothetical protein&lt;br&gt;Location: 16052 - 16460" locus_tag="cds16052_16460" class="clusterblast-orf" id="dummy-1_q13_0_all"  />
<polygon points="392,35 397,30 401,30 401,40 397,40 392,35 " style="fill:white; stroke-width:1; stroke:black; " description="&lt;b&gt;cds16449_17196&lt;/b&gt;&lt;br&gt;Trans-aconitate 2-methyltransferase&lt;br&gt;Location: 16449 - 17196" locus_tag="cds16449_17196" class="clusterblast-orf" id="dummy-1_q14_0_all"  />
<polygon points="404,35 409,30 421,30 421,40 409,40 404,35 " style="fill:white; stroke-width:1; stroke:black; " description="&lt;b&gt;cds17442_18804&lt;/b&gt;&lt;br&gt;hypothetical protein&lt;br&gt;Location: 17442 - 18804" locus_tag="cds17442_18804" class="clusterblast-orf" id="dummy-1_q15_0_all"  />
<polygon points="423,40 446,40 451,35 446,30 423,30 423,40 " style="fill:white; stroke-width:1; stroke:black; " description="&lt;b&gt;cds19013_21278&lt;/b&gt;&lt;br&gt;ATP-dependent RecD-like DNA helicase&lt;br&gt;Location: 19013 - 21278" locus_tag="cds19013_21278" class="clusterblast-orf" id="dummy-1_q16_0_all"  />
<polygon points="454,40 465,40 470,35 465,30 454,30 454,40 " style="fill:white; stroke-width:1; stroke:black; " description="&lt;b&gt;cds21475_22774&lt;/b&gt;&lt;br&gt;Citrate synthase 1&lt;br&gt;Location: 21475 - 22774" locus_tag="cds21475_22774" class="clusterblast-orf" id="dummy-1_q17_0_all"  />
<polygon points="472,40 512,40 517,35 512,30 472,30 472,40 " style="fill:white; stroke-width:1; stroke:black; " description="&lt;b&gt;cds22968_26583&lt;/b&gt;&lt;br&gt;hypothetical protein&lt;br&gt;Location: 22968 - 26583" locus_tag="cds22968_26583" class="clusterblast-orf" id="dummy-1_q18_0_all"  />
<polygon points="525,35 529,30 529,40 525,35 " style="fill:white; stroke-width:1; stroke:black; " description="&lt;b&gt;cds27288_27594&lt;/b&gt;&lt;br&gt;hypothetical protein&lt;br&gt;Location: 27288 - 27594" locus_tag="cds27288_27594" class="clusterblast-orf" id="dummy-1_q19_0_all"  />
<polygon points="532,40 540,40 545,35 540,30 532,30 532,40 " style="fill:#1563d8; stroke-width:1; stroke:black; " description="&lt;b&gt;cds27818_28868&lt;/b&gt;&lt;br&gt;Alcohol dehydrogenase&lt;br&gt;Location: 27818 - 28868" locus_tag="cds27818_28868" class="clusterblast-orf" id="dummy-1_q20_0_all"  />
<polygon points="545,35 547,30 547,40 545,35 " style="fill:white; stroke-width:1; stroke:black; " description="&lt;b&gt;cds28887_29079&lt;/b&gt;&lt;br&gt;hypothetical protein&lt;br&gt;Location: 28887 - 29079" locus_tag="cds28887_29079" class="clusterblast-orf" id="dummy-1_q21_0_all"  />
<polygon points="549,35 554,30 561,30 561,40 554,40 549,35 " style="fill:white; stroke-width:1; stroke:black; " description="&lt;b&gt;cds29248_30175&lt;/b&gt;&lt;br&gt;Inosose dehydratase&lt;br&gt;Location: 29248 - 30175" locus_tag="cds29248_30175" class="clusterblast-orf" id="dummy-1_q22_0_all"  />
<polygon points="563,40 572,40 577,35 572,30 563,30 563,40 " style="fill:#b115d8; stroke-width:1; stroke:black; " description="&lt;b&gt;cds30343_31471&lt;/b&gt;&lt;br&gt;5-dehydro-2-deoxygluconokinase&lt;br&gt;Location: 30343 - 31471" locus_tag="cds30343_31471" class="clusterblast-orf" id="dummy-1_q23_0_all"  />
<polygon points="577,40 583,40 588,35 583,30 577,30 577,40 " style="fill:#b1d815; stroke-width:1; stroke:black; " description="&lt;b&gt;cds31467_32358&lt;/b&gt;&lt;br&gt;hypothetical protein&lt;br&gt;Location: 31467 - 32358" locus_tag="cds31467_32358" class="clusterblast-orf" id="dummy-1_q24_0_all"  />
</g>
<g label="BGC0001199" description="BGC0001199_c1: akaeolide (8% of genes show similarity), Polyketide" class="clusterblast-cluster"  >
<text x="5" y="70" class="clusterblast-acc"  >
<a xlink:href="https://mibig.secondarymetabolites.org/go/BGC0001199/1" target="_blank">BGC0001199</a>:                                                                        akaeolide (8% of genes show similarity), Polyketide</text>
<line x1="10" y1="85" x2="778.0" y2="85" style="stroke-width:1; stroke:grey; "  />
</g>
<g id="a1_000"  >
<polygon points="0,90 10,90 15,85 10,80 0,80 0,90 " style="fill:white; stroke-width:1; stroke:black; " description="&lt;b&gt;ctg1_orf512&lt;/b&gt;&lt;br&gt;&lt;br&gt;Location: 1 - 1242" locus_tag="ctg1_orf512" class="clusterblast-orf" id="dummy-1_h1_4_0"  />
</g>
<g id="a1_001"  >
<polygon points="15,90 19,90 24,85 19,80 15,80 15,90 " style="fill:white; stroke-width:1; stroke:black; " description="&lt;b&gt;ctg1_orf513&lt;/b&gt;&lt;br&gt;&lt;br&gt;Location: 1293 - 2021" locus_tag="ctg1_orf513" class="clusterblast-orf" id="dummy-1_h1_4_1"  />
</g>
<g id="a1_002"  >
<polygon points="26,90 33,90 38,85 33,80 26,80 26,90 " style="fill:white; stroke-width:1; stroke:black; " description="&lt;b&gt;ctg1_orf514&lt;/b&gt;&lt;br&gt;&lt;br&gt;Location: 2151 - 3098" locus_tag="ctg1_orf514" class="clusterblast-orf" id="dummy-1_h1_4_2"  />
</g>
<g id="a1_003"  >
<polygon points="39,90 43,90 48,85 43,80 39,80 39,90 " style="fill:white; stroke-width:1; stroke:black; " description="&lt;b&gt;ctg1_orf515&lt;/b&gt;&lt;br&gt;&lt;br&gt;Location: 3225 - 3971" locus_tag="ctg1_orf515" class="clusterblast-orf" id="dummy-1_h1_4_3"  />
</g>
<g id="a1_004"  >
<polygon points="49,90 55,90 60,85 55,80 49,80 49,90 " style="fill:white; stroke-width:1; stroke:black; " description="&lt;b&gt;ctg1_orf516&lt;/b&gt;&lt;br&gt;&lt;br&gt;Location: 4005 - 4889" locus_tag="ctg1_orf516" class="clusterblast-orf" id="dummy-1_h1_4_4"  />
</g>
<g id="a1_005"  >
<polygon points="60,90 61,90 66,85 61,80 60,80 60,90 " style="fill:white; stroke-width:1; stroke:black; " description="&lt;b&gt;ctg1_orf517&lt;/b&gt;&lt;br&gt;&lt;br&gt;Location: 4889 - 5380" locus_tag="ctg1_orf517" class="clusterblast-orf" id="dummy-1_h1_4_5"  />
</g>
<g id="a1_006"  >
<polygon points="68,90 83,90 88,85 83,80 68,80 68,90 " style="fill:white; stroke-width:1; stroke:black; " description="&lt;b&gt;ctg1_orf518&lt;/b&gt;&lt;br&gt;&lt;br&gt;Location: 5564 - 7162" locus_tag="ctg1_orf518" class="clusterblast-orf" id="dummy-1_h1_4_6"  />
</g>
<g id="a1_007"  >
<polygon points="88,90 118,90 123,85 118,80 88,80 88,90 " style="fill:white; stroke-width:1; stroke:black; " description="&lt;b&gt;ctg1_orf519&lt;/b&gt;&lt;br&gt;&lt;br&gt;Location: 7231 - 10074" locus_tag="ctg1_orf519" class="clusterblast-orf" id="dummy-1_h1_4_7"  />
</g>
<g id="a1_008"  >
<polygon points="131,90 145,90 150,85 145,80 131,80 131,90 " style="fill:white; stroke-width:1; stroke:black; " description="&lt;b&gt;ctg1_orf520&lt;/b&gt;&lt;br&gt;&lt;br&gt;Location: 10671 - 12269" locus_tag="ctg1_orf520" class="clusterblast-orf" id="dummy-1_h1_4_8"  />
</g>
<g id="a1_009"  >
<polygon points="164,90 341,90 346,85 341,80 164,80 164,90 " style="fill:white; stroke-width:1; stroke:black; " description="&lt;b&gt;ctg1_orf521&lt;/b&gt;&lt;br&gt;&lt;br&gt;Location: 13403 - 28156" locus_tag="ctg1_orf521" class="clusterblast-orf" id="dummy-1_h1_4_9"  />
</g>
<g id="a1_0010"  >
<polygon points="347,90 475,90 480,85 475,80 347,80 347,90 " style="fill:white; stroke-width:1; stroke:black; " description="&lt;b&gt;ctg1_orf522&lt;/b&gt;&lt;br&gt;&lt;br&gt;Location: 28212 - 39017" locus_tag="ctg1_orf522" class="clusterblast-orf" id="dummy-1_h1_4_10"  />
</g>
<g id="a1_0011"  >
<polygon points="480,90 582,90 587,85 582,80 480,80 480,90 " style="fill:white; stroke-width:1; stroke:black; " description="&lt;b&gt;ctg1_orf523&lt;/b&gt;&lt;br&gt;&lt;br&gt;Location: 39062 - 47767" locus_tag="ctg1_orf523" class="clusterblast-orf" id="dummy-1_h1_4_11"  />
</g>
<g id="a1_0012"  >
<polygon points="587,90 631,90 636,85 631,80 587,80 587,90 " style="fill:white; stroke-width:1; stroke:black; " description="&lt;b&gt;ctg1_orf524&lt;/b&gt;&lt;br&gt;&lt;br&gt;Location: 47787 - 51755" locus_tag="ctg1_orf524" class="clusterblast-orf" id="dummy-1_h1_4_12"  />
</g>
<g id="a1_0013"  >
<polygon points="637,90 646,90 651,85 646,80 637,80 637,90 " style="fill:white; stroke-width:1; stroke:black; " description="&lt;b&gt;ctg1_orf525&lt;/b&gt;&lt;br&gt;&lt;br&gt;Location: 51785 - 52981" locus_tag="ctg1_orf525" class="clusterblast-orf" id="dummy-1_h1_4_13"  />
</g>
<g id="a1_0014"  >
<polygon points="652,90 656,85 652,80 652,90 " style="fill:white; stroke-width:1; stroke:black; " description="&lt;b&gt;ctg1_orf526&lt;/b&gt;&lt;br&gt;&lt;br&gt;Location: 53055 - 53402" locus_tag="ctg1_orf526" class="clusterblast-orf" id="dummy-1_h1_4_14"  />
</g>
<g id="a1_0015"  >
<polygon points="658,90 661,85 658,80 658,90 " style="fill:white; stroke-width:1; stroke:black; " description="&lt;b&gt;ctg1_orf527&lt;/b&gt;&lt;br&gt;&lt;br&gt;Location: 53539 - 53775" locus_tag="ctg1_orf527" class="clusterblast-orf" id="dummy-1_h1_4_15"  />
</g>
<g id="a1_0016"  >
<polygon points="661,90 671,90 676,85 671,80 661,80 661,90 " style="fill:white; stroke-width:1; stroke:black; " description="&lt;b&gt;ctg1_orf528&lt;/b&gt;&lt;br&gt;&lt;br&gt;Location: 53795 - 55003" locus_tag="ctg1_orf528" class="clusterblast-orf" id="dummy-1_h1_4_16"  />
</g>
<g id="a1_0017"  >
<polygon points="679,90 682,90 687,85 682,80 679,80 679,90 " style="fill:white; stroke-width:1; stroke:black; " description="&lt;b&gt;ctg1_orf529&lt;/b&gt;&lt;br&gt;&lt;br&gt;Location: 55229 - 55918" locus_tag="ctg1_orf529" class="clusterblast-orf" id="dummy-1_h1_4_17"  />
</g>
<g id="a1_0018"  >
<polygon points="689,90 702,90 707,85 702,80 689,80 689,90 " style="fill:white; stroke-width:1; stroke:black; " description="&lt;b&gt;ctg1_orf530&lt;/b&gt;&lt;br&gt;&lt;br&gt;Location: 56043 - 57539" locus_tag="ctg1_orf530" class="clusterblast-orf" id="dummy-1_h1_4_18"  />
</g>
<g id="a1_0019"  >
<polygon points="709,90 712,90 717,85 712,80 709,80 709,90 " style="fill:white; stroke-width:1; stroke:black; " description="&lt;b&gt;ctg1_orf531&lt;/b&gt;&lt;br&gt;&lt;br&gt;Location: 57662 - 58312" locus_tag="ctg1_orf531" class="clusterblast-orf" id="dummy-1_h1_4_19"  />
</g>
<g id="a1_0020"  >
<polygon points="719,90 723,85 719,80 719,90 " style="fill:#d81515; stroke-width:1; stroke:black; " description="&lt;b&gt;ctg1_orf532&lt;/b&gt;&lt;br&gt;&lt;br&gt;Location: 58444 - 58773&lt;br&gt;&lt;br&gt;&lt;b&gt;BlastP hit with cds15523_15925&lt;/b&gt;&lt;br&gt;Percentage identity: 48&lt;br&gt;Percentage coverage: 69&lt;br&gt;BLAST bit score: 93&lt;br&gt;E-value: 2.3e-19" locus_tag="ctg1_orf532" class="clusterblast-orf" id="dummy-1_h1_4_20"  />
</g>
<g id="a1_0021"  >
<polygon points="726,90 738,90 743,85 738,80 726,80 726,90 " style="fill:white; stroke-width:1; stroke:black; " description="&lt;b&gt;ctg1_orf533&lt;/b&gt;&lt;br&gt;&lt;br&gt;Location: 59086 - 60459" locus_tag="ctg1_orf533" class="clusterblast-orf" id="dummy-1_h1_4_21"  />
</g>
<g id="a1_0022"  >
<polygon points="743,90 751,90 756,85 751,80 743,80 743,90 " style="fill:white; stroke-width:1; stroke:black; " description="&lt;b&gt;ctg1_orf534&lt;/b&gt;&lt;br&gt;&lt;br&gt;Location: 60462 - 61484" locus_tag="ctg1_orf534" class="clusterblast-orf" id="dummy-1_h1_4_22"  />
</g>
<g id="a1_0023"  >
<polygon points="756,90 761,90 766,85 761,80 756,80 756,90 " style="fill:white; stroke-width:1; stroke:black; " description="&lt;b&gt;ctg1_orf535&lt;/b&gt;&lt;br&gt;&lt;br&gt;Location: 61481 - 62341" locus_tag="ctg1_orf535" class="clusterblast-orf" id="dummy-1_h1_4_23"  />
</g>
<g id="a1_0024"  >
<polygon points="767,90 775,90 780,85 775,80 767,80 767,90 " style="fill:#1563d8; stroke-width:1; stroke:black; " description="&lt;b&gt;ctg1_orf536&lt;/b&gt;&lt;br&gt;&lt;br&gt;Location: 62381 - 63400&lt;br&gt;&lt;br&gt;&lt;b&gt;BlastP hit with cds27818_28868&lt;/b&gt;&lt;br&gt;Percentage identity: 67&lt;br&gt;Percentage coverage: 98&lt;br&gt;BLAST bit score: 436&lt;br&gt;E-value: 3.9e-122" locus_tag="ctg1_orf536" class="clusterblast-orf" id="dummy-1_h1_4_24"  />
</g>
</svg>
