<svg xmlns="http://www.w3.org/2000/svg" xmlns:xlink="http://www.w3.org/1999/xlink" version="1.1" x="0" y="0" height="230" width="800" viewBox="0 0 800 230" preserveAspectRatio="none"  >
<g label="Query sequence" class="clusterblast-cluster"  >
<text x="5" y="20" class="clusterblast-acc"  >
Query sequence</text>
<line x1="10" y1="35" x2="778.0" y2="35" style="stroke-width:1; stroke:grey; "  />
<polygon points="1,35 6,30 119,30 119,40 6,40 1,35 " style="fill:#d81515; stroke-width:1; stroke:black; " description="&lt;b&gt;cds126_1020&lt;/b&gt;&lt;br&gt;Ectoine dioxygenase&lt;br&gt;Location: 126 - 1020" locus_tag="cds126_1020" class="clusterblast-orf" id="dummy-1_q0_0_all"  />
<polygon points="120,35 125,30 172,30 172,40 125,40 120,35 " style="fill:#77d815; stroke-width:1; stroke:black; " description="&lt;b&gt;cds1023_1422&lt;/b&gt;&lt;br&gt;L-ectoine synthase&lt;br&gt;Location: 1023 - 1422" locus_tag="cds1023_1422" class="clusterblast-orf" id="dummy-1_q1_0_all"  />
<polygon points="181,35 186,30 348,30 348,40 186,40 181,35 " style="fill:#15d8d8; stroke-width:1; stroke:black; " description="&lt;b&gt;cds1485_2748&lt;/b&gt;&lt;br&gt;Diaminobutyrate--2-oxoglutarate transaminase&lt;br&gt;Location: 1485 - 2748" locus_tag="cds1485_2748" class="clusterblast-orf" id="dummy-1_q2_0_all"  />
<polygon points="361,35 366,30 430,30 430,40 366,40 361,35 " style="fill:#7715d8; stroke-width:1; stroke:black; " description="&lt;b&gt;cds2845_3370&lt;/b&gt;&lt;br&gt;L-2,4-diaminobutyric acid acetyltransferase&lt;br&gt;Location: 2845 - 3370" locus_tag="cds2845_3370" class="clusterblast-orf" id="dummy-1_q3_0_all"  />
<polygon points="475,35 480,30 622,30 622,40 480,40 475,35 " style="fill:white; stroke-width:1; stroke:black; " description="&lt;b&gt;cds3707_4814&lt;/b&gt;&lt;br&gt;Pyridoxamine--pyruvate transaminase&lt;br&gt;Location: 3707 - 4814" locus_tag="cds3707_4814" class="clusterblast-orf" id="dummy-1_q4_0_all"  />
<polygon points="635,40 776,40 781,35 776,30 635,30 635,40 " style="fill:white; stroke-width:1; stroke:black; " description="&lt;b&gt;cds4914_6015&lt;/b&gt;&lt;br&gt;putative protein&lt;br&gt;Location: 4914 - 6015" locus_tag="cds4914_6015" class="clusterblast-orf" id="dummy-1_q5_0_all"  />
</g>
<g label="BGC0000860" description="BGC0000860_c1: ectoine (40% of genes show similarity), Other" class="clusterblast-cluster"  >
<text x="5" y="70" class="clusterblast-acc"  >
<a xlink:href="https://mibig.secondarymetabolites.org/go/BGC0000860/1" target="_blank">BGC0000860</a>:                                                                          ectoine (40% of genes show similarity), Other</text>
<line x1="10" y1="85" x2="778.0" y2="85" style="stroke-width:1; stroke:grey; "  />
</g>
<g id="a1_000"  >
<polygon points="97,85 102,80 281,80 281,90 102,90 97,85 " style="fill:white; stroke-width:1; stroke:black; " description="&lt;b&gt;ADA71977.1&lt;/b&gt;&lt;br&gt;aspartokinase&lt;br&gt;Location: 5134 - 3740" locus_tag="ADA71977.1" class="clusterblast-orf" id="dummy-1_h1_2_0"  />
</g>
<g id="a1_001"  >
<polygon points="282,85 287,80 334,80 334,90 287,90 282,85 " style="fill:#77d815; stroke-width:1; stroke:black; " description="&lt;b&gt;ADA71976.1&lt;/b&gt;&lt;br&gt;L-ectoine synthase&lt;br&gt;Location: 3737 - 3342&lt;br&gt;&lt;br&gt;&lt;b&gt;BlastP hit with cds1023_1422&lt;/b&gt;&lt;br&gt;Percentage identity: 46&lt;br&gt;Percentage coverage: 98&lt;br&gt;BLAST bit score: 124&lt;br&gt;E-value: 1.2e-28" locus_tag="ADA71976.1" class="clusterblast-orf" id="dummy-1_h1_2_1"  />
</g>
<g id="a1_002"  >
<polygon points="335,85 340,80 506,80 506,90 340,90 335,85 " style="fill:#15d8d8; stroke-width:1; stroke:black; " description="&lt;b&gt;ADA71975.1&lt;/b&gt;&lt;br&gt;L-2,4-diaminobutyrate transaminase&lt;br&gt;Location: 3334 - 2042&lt;br&gt;&lt;br&gt;&lt;b&gt;BlastP hit with cds1485_2748&lt;/b&gt;&lt;br&gt;Percentage identity: 48&lt;br&gt;Percentage coverage: 98&lt;br&gt;BLAST bit score: 421&lt;br&gt;E-value: 2e-117" locus_tag="ADA71975.1" class="clusterblast-orf" id="dummy-1_h1_2_2"  />
</g>
<g id="a1_003"  >
<polygon points="514,85 519,80 586,80 586,90 519,90 514,85 " style="fill:white; stroke-width:1; stroke:black; " description="&lt;b&gt;ADA71974.1&lt;/b&gt;&lt;br&gt;L-2,4-diaminobutyric acid acetyltransferase&lt;br&gt;Location: 1986 - 1441" locus_tag="ADA71974.1" class="clusterblast-orf" id="dummy-1_h1_2_3"  />
</g>
<g id="a1_004"  >
<polygon points="609,90 677,90 682,85 677,80 609,80 609,90 " style="fill:white; stroke-width:1; stroke:black; " description="&lt;b&gt;ADA71973.1&lt;/b&gt;&lt;br&gt;MarR family transcriptional regulator&lt;br&gt;Location: 1265 - 711" locus_tag="ADA71973.1" class="clusterblast-orf" id="dummy-1_h1_2_4"  />
</g>
</svg>
