<svg xmlns="http://www.w3.org/2000/svg" xmlns:xlink="http://www.w3.org/1999/xlink" version="1.1" x="0" y="0" height="230" width="800" viewBox="0 0 800 230" preserveAspectRatio="none"  >
<g label="Query sequence" class="clusterblast-cluster"  >
<text x="5" y="20" class="clusterblast-acc"  >
Query sequence</text>
<line x1="10" y1="35" x2="778.0" y2="35" style="stroke-width:1; stroke:grey; "  />
<polygon points="102,40 111,40 116,35 111,30 102,30 102,40 " style="fill:white; stroke-width:1; stroke:black; " description="&lt;b&gt;cds8978_9911&lt;/b&gt;&lt;br&gt;hypothetical protein&lt;br&gt;Location: 8978 - 9911" locus_tag="cds8978_9911" class="clusterblast-orf" id="dummy-1_q0_0_all"  />
<polygon points="116,40 117,40 122,35 117,30 116,30 116,40 " style="fill:white; stroke-width:1; stroke:black; " description="&lt;b&gt;cds9923_10319&lt;/b&gt;&lt;br&gt;hypothetical protein&lt;br&gt;Location: 9923 - 10319" locus_tag="cds9923_10319" class="clusterblast-orf" id="dummy-1_q1_0_all"  />
<polygon points="123,40 126,40 131,35 126,30 123,30 123,40 " style="fill:white; stroke-width:1; stroke:black; " description="&lt;b&gt;cds10355_10928&lt;/b&gt;&lt;br&gt;Aldehyde oxidoreductase iron-sulfur-binding subunit PaoA&lt;br&gt;Location: 10355 - 10928" locus_tag="cds10355_10928" class="clusterblast-orf" id="dummy-1_q2_0_all"  />
<polygon points="131,40 141,40 146,35 141,30 131,30 131,40 " style="fill:white; stroke-width:1; stroke:black; " description="&lt;b&gt;cds10924_11920&lt;/b&gt;&lt;br&gt;Aldehyde oxidoreductase FAD-binding subunit PaoB&lt;br&gt;Location: 10924 - 11920" locus_tag="cds10924_11920" class="clusterblast-orf" id="dummy-1_q3_0_all"  />
<polygon points="147,40 173,40 178,35 173,30 147,30 147,40 " style="fill:white; stroke-width:1; stroke:black; " description="&lt;b&gt;cds11964_14061&lt;/b&gt;&lt;br&gt;Aldehyde oxidoreductase molybdenum-binding subunit PaoC&lt;br&gt;Location: 11964 - 14061" locus_tag="cds11964_14061" class="clusterblast-orf" id="dummy-1_q4_0_all"  />
<polygon points="180,40 183,40 188,35 183,30 180,30 180,40 " style="fill:white; stroke-width:1; stroke:black; " description="&lt;b&gt;cds14213_14729&lt;/b&gt;&lt;br&gt;hypothetical protein&lt;br&gt;Location: 14213 - 14729" locus_tag="cds14213_14729" class="clusterblast-orf" id="dummy-1_q5_0_all"  />
<polygon points="190,40 206,40 211,35 206,30 190,30 190,40 " style="fill:white; stroke-width:1; stroke:black; " description="&lt;b&gt;cds14878_16300&lt;/b&gt;&lt;br&gt;Succinate-semialdehyde dehydrogenase [NADP(+)] 1&lt;br&gt;Location: 14878 - 16300" locus_tag="cds14878_16300" class="clusterblast-orf" id="dummy-1_q6_0_all"  />
<polygon points="212,40 243,40 248,35 243,30 212,30 212,40 " style="fill:white; stroke-width:1; stroke:black; " description="&lt;b&gt;cds16338_18726&lt;/b&gt;&lt;br&gt;Xylulose-5-phosphate phosphoketolase&lt;br&gt;Location: 16338 - 18726" locus_tag="cds16338_18726" class="clusterblast-orf" id="dummy-1_q7_0_all"  />
<polygon points="249,35 254,30 255,30 255,40 254,40 249,35 " style="fill:white; stroke-width:1; stroke:black; " description="&lt;b&gt;cds18808_19216&lt;/b&gt;&lt;br&gt;hypothetical protein&lt;br&gt;Location: 18808 - 19216" locus_tag="cds18808_19216" class="clusterblast-orf" id="dummy-1_q8_0_all"  />
<polygon points="257,35 262,30 273,30 273,40 262,40 257,35 " style="fill:white; stroke-width:1; stroke:black; " description="&lt;b&gt;cds19327_20443&lt;/b&gt;&lt;br&gt;hypothetical protein&lt;br&gt;Location: 19327 - 20443" locus_tag="cds19327_20443" class="clusterblast-orf" id="dummy-1_q9_0_all"  />
<polygon points="275,40 278,40 283,35 278,30 275,30 275,40 " style="fill:white; stroke-width:1; stroke:black; " description="&lt;b&gt;cds20579_21074&lt;/b&gt;&lt;br&gt;hypothetical protein&lt;br&gt;Location: 20579 - 21074" locus_tag="cds20579_21074" class="clusterblast-orf" id="dummy-1_q10_0_all"  />
<polygon points="284,40 299,40 304,35 299,30 284,30 284,40 " style="fill:white; stroke-width:1; stroke:black; " description="&lt;b&gt;cds21138_22491&lt;/b&gt;&lt;br&gt;Glutaminase&lt;br&gt;Location: 21138 - 22491" locus_tag="cds21138_22491" class="clusterblast-orf" id="dummy-1_q11_0_all"  />
<polygon points="307,35 312,30 319,30 319,40 312,40 307,35 " style="fill:white; stroke-width:1; stroke:black; " description="&lt;b&gt;cds22706_23528&lt;/b&gt;&lt;br&gt;Extracellular ribonuclease&lt;br&gt;Location: 22706 - 23528" locus_tag="cds22706_23528" class="clusterblast-orf" id="dummy-1_q12_0_all"  />
<polygon points="322,40 325,35 322,30 322,40 " style="fill:white; stroke-width:1; stroke:black; " description="&lt;b&gt;cds23739_23946&lt;/b&gt;&lt;br&gt;hypothetical protein&lt;br&gt;Location: 23739 - 23946" locus_tag="cds23739_23946" class="clusterblast-orf" id="dummy-1_q13_0_all"  />
<polygon points="327,40 339,40 344,35 339,30 327,30 327,40 " style="fill:white; stroke-width:1; stroke:black; " description="&lt;b&gt;cds24016_25174&lt;/b&gt;&lt;br&gt;Ribosomal RNA large subunit methyltransferase G&lt;br&gt;Location: 24016 - 25174" locus_tag="cds24016_25174" class="clusterblast-orf" id="dummy-1_q14_0_all"  />
<polygon points="344,35 349,30 351,30 351,40 349,40 344,35 " style="fill:white; stroke-width:1; stroke:black; " description="&lt;b&gt;cds25180_25636&lt;/b&gt;&lt;br&gt;hypothetical protein&lt;br&gt;Location: 25180 - 25636" locus_tag="cds25180_25636" class="clusterblast-orf" id="dummy-1_q15_0_all"  />
<polygon points="353,40 361,40 366,35 361,30 353,30 353,40 " style="fill:white; stroke-width:1; stroke:black; " description="&lt;b&gt;cds25777_26668&lt;/b&gt;&lt;br&gt;hypothetical protein&lt;br&gt;Location: 25777 - 26668" locus_tag="cds25777_26668" class="clusterblast-orf" id="dummy-1_q16_0_all"  />
<polygon points="367,40 395,40 400,35 395,30 367,30 367,40 " style="fill:white; stroke-width:1; stroke:black; " description="&lt;b&gt;cds26702_28943&lt;/b&gt;&lt;br&gt;Serine/threonine-protein kinase PknD&lt;br&gt;Location: 26702 - 28943" locus_tag="cds26702_28943" class="clusterblast-orf" id="dummy-1_q17_0_all"  />
<polygon points="399,35 403,30 403,40 399,35 " style="fill:white; stroke-width:1; stroke:black; " description="&lt;b&gt;cds28891_29173&lt;/b&gt;&lt;br&gt;hypothetical protein&lt;br&gt;Location: 28891 - 29173" locus_tag="cds28891_29173" class="clusterblast-orf" id="dummy-1_q18_0_all"  />
<polygon points="406,40 425,40 430,35 425,30 406,30 406,40 " style="fill:white; stroke-width:1; stroke:black; " description="&lt;b&gt;cds29338_30928&lt;/b&gt;&lt;br&gt;putative protein&lt;br&gt;Location: 29338 - 30928" locus_tag="cds29338_30928" class="clusterblast-orf" id="dummy-1_q19_0_all"  />
<polygon points="431,35 436,30 441,30 441,40 436,40 431,35 " style="fill:white; stroke-width:1; stroke:black; " description="&lt;b&gt;cds31025_31670&lt;/b&gt;&lt;br&gt;hypothetical protein&lt;br&gt;Location: 31025 - 31670" locus_tag="cds31025_31670" class="clusterblast-orf" id="dummy-1_q20_0_all"  />
<polygon points="441,35 446,30 469,30 469,40 446,40 441,35 " style="fill:white; stroke-width:1; stroke:black; " description="&lt;b&gt;cds31697_33560&lt;/b&gt;&lt;br&gt;Putative D-alanyl-D-alanine carboxypeptidase&lt;br&gt;Location: 31697 - 33560" locus_tag="cds31697_33560" class="clusterblast-orf" id="dummy-1_q21_0_all"  />
<polygon points="472,40 491,40 496,35 491,30 472,30 472,40 " style="fill:white; stroke-width:1; stroke:black; " description="&lt;b&gt;cds33790_35350&lt;/b&gt;&lt;br&gt;Long-chain-fatty-acid--CoA ligase&lt;br&gt;Location: 33790 - 35350" locus_tag="cds33790_35350" class="clusterblast-orf" id="dummy-1_q22_0_all"  />
<polygon points="496,40 501,40 506,35 501,30 496,30 496,40 " style="fill:white; stroke-width:1; stroke:black; " description="&lt;b&gt;cds35384_36065&lt;/b&gt;&lt;br&gt;hypothetical protein&lt;br&gt;Location: 35384 - 36065" locus_tag="cds35384_36065" class="clusterblast-orf" id="dummy-1_q23_0_all"  />
<polygon points="508,35 513,30 527,30 527,40 513,40 508,35 " style="fill:white; stroke-width:1; stroke:black; " description="&lt;b&gt;cds36152_37442&lt;/b&gt;&lt;br&gt;Phenylacetate-coenzyme A ligase&lt;br&gt;Location: 36152 - 37442" locus_tag="cds36152_37442" class="clusterblast-orf" id="dummy-1_q24_0_all"  />
<polygon points="529,35 534,30 536,30 536,40 534,40 529,35 " style="fill:white; stroke-width:1; stroke:black; " description="&lt;b&gt;cds37557_38025&lt;/b&gt;&lt;br&gt;hypothetical protein&lt;br&gt;Location: 37557 - 38025" locus_tag="cds37557_38025" class="clusterblast-orf" id="dummy-1_q25_0_all"  />
<polygon points="538,40 541,40 546,35 541,30 538,30 538,40 " style="fill:white; stroke-width:1; stroke:black; " description="&lt;b&gt;cds38153_38738&lt;/b&gt;&lt;br&gt;hypothetical protein&lt;br&gt;Location: 38153 - 38738" locus_tag="cds38153_38738" class="clusterblast-orf" id="dummy-1_q26_0_all"  />
<polygon points="547,40 565,40 570,35 565,30 547,30 547,40 " style="fill:white; stroke-width:1; stroke:black; " description="&lt;b&gt;cds38794_40315&lt;/b&gt;&lt;br&gt;2-succinyl-6-hydroxy-2,4-cyclohexadiene-1-carboxy late synthase&lt;br&gt;Location: 38794 - 40315" locus_tag="cds38794_40315" class="clusterblast-orf" id="dummy-1_q27_0_all"  />
<polygon points="570,35 575,30 595,30 595,40 575,40 570,35 " style="fill:#d81515; stroke-width:1; stroke:black; " description="&lt;b&gt;cds40354_41992&lt;/b&gt;&lt;br&gt;4-methyl-5-nitrocatechol 5-monooxygenase&lt;br&gt;Location: 40354 - 41992" locus_tag="cds40354_41992" class="clusterblast-orf" id="dummy-1_q28_0_all"  />
<polygon points="599,40 611,40 616,35 611,30 599,30 599,40 " style="fill:#77d815; stroke-width:1; stroke:black; " description="&lt;b&gt;cds42263_43382&lt;/b&gt;&lt;br&gt;hypothetical protein&lt;br&gt;Location: 42263 - 43382" locus_tag="cds42263_43382" class="clusterblast-orf" id="dummy-1_q29_0_all"  />
<polygon points="617,40 618,40 623,35 618,30 617,30 617,40 " style="fill:#15d8d8; stroke-width:1; stroke:black; " description="&lt;b&gt;cds43450_43885&lt;/b&gt;&lt;br&gt;hypothetical protein&lt;br&gt;Location: 43450 - 43885" locus_tag="cds43450_43885" class="clusterblast-orf" id="dummy-1_q30_0_all"  />
<polygon points="623,40 637,40 642,35 637,30 623,30 623,40 " style="fill:#7715d8; stroke-width:1; stroke:black; " description="&lt;b&gt;cds43881_45150&lt;/b&gt;&lt;br&gt;Actinorhodin polyketide putative beta-ketoacyl synthase 1&lt;br&gt;Location: 43881 - 45150" locus_tag="cds43881_45150" class="clusterblast-orf" id="dummy-1_q31_0_all"  />
<polygon points="642,40 656,40 661,35 656,30 642,30 642,40 " style="fill:#d8a715; stroke-width:1; stroke:black; " description="&lt;b&gt;cds45146_46406&lt;/b&gt;&lt;br&gt;Actinorhodin polyketide putative beta-ketoacyl synthase 2&lt;br&gt;Location: 45146 - 46406" locus_tag="cds45146_46406" class="clusterblast-orf" id="dummy-1_q32_0_all"  />
<polygon points="661,40 665,35 661,30 661,40 " style="fill:#15d846; stroke-width:1; stroke:black; " description="&lt;b&gt;cds46422_46680&lt;/b&gt;&lt;br&gt;hypothetical protein&lt;br&gt;Location: 46422 - 46680" locus_tag="cds46422_46680" class="clusterblast-orf" id="dummy-1_q33_0_all"  />
<polygon points="665,40 667,40 672,35 667,30 665,30 665,40 " style="fill:#1546d8; stroke-width:1; stroke:black; " description="&lt;b&gt;cds46681_47161&lt;/b&gt;&lt;br&gt;Putative polyketide cyclase&lt;br&gt;Location: 46681 - 47161" locus_tag="cds46681_47161" class="clusterblast-orf" id="dummy-1_q34_0_all"  />
<polygon points="672,40 672,40 677,35 672,30 672,30 672,40 " style="fill:#d815a7; stroke-width:1; stroke:black; " description="&lt;b&gt;cds47180_47513&lt;/b&gt;&lt;br&gt;Tetracenomycin F2 cyclase&lt;br&gt;Location: 47180 - 47513" locus_tag="cds47180_47513" class="clusterblast-orf" id="dummy-1_q35_0_all"  />
</g>
<g label="BGC0000279" description="BGC0000279_c1: xantholipin (10% of genes show similarity), Polyketide" class="clusterblast-cluster"  >
<text x="5" y="70" class="clusterblast-acc"  >
<a xlink:href="https://mibig.secondarymetabolites.org/go/BGC0000279/1" target="_blank">BGC0000279</a>:                                                                      xantholipin (10% of genes show similarity), Polyketide</text>
<line x1="10" y1="85" x2="778.0" y2="85" style="stroke-width:1; stroke:grey; "  />
</g>
<g id="a1_000"  >
<polygon points="0,90 0,90 5,85 0,80 0,80 0,90 " style="fill:#d815a7; stroke-width:1; stroke:black; " description="&lt;b&gt;ADE22323.1&lt;/b&gt;&lt;br&gt;putative polyketide cyclase&lt;br&gt;Location: 52255 - 51917&lt;br&gt;&lt;br&gt;&lt;b&gt;BlastP hit with cds47180_47513&lt;/b&gt;&lt;br&gt;Percentage identity: 53&lt;br&gt;Percentage coverage: 97&lt;br&gt;BLAST bit score: 123&lt;br&gt;E-value: 3e-28" locus_tag="ADE22323.1" class="clusterblast-orf" id="dummy-1_h1_10_0"  />
</g>
<g id="a1_001"  >
<polygon points="5,90 8,85 5,80 5,90 " style="fill:white; stroke-width:1; stroke:black; " description="&lt;b&gt;ADE22322.1&lt;/b&gt;&lt;br&gt;acyl carrier protein&lt;br&gt;Location: 51920 - 51660" locus_tag="ADE22322.1" class="clusterblast-orf" id="dummy-1_h1_10_1"  />
</g>
<g id="a1_002"  >
<polygon points="8,90 15,90 20,85 15,80 8,80 8,90 " style="fill:white; stroke-width:1; stroke:black; " description="&lt;b&gt;ADE22321.1&lt;/b&gt;&lt;br&gt;3-oxoacyl-ACP reductase&lt;br&gt;Location: 51663 - 50908" locus_tag="ADE22321.1" class="clusterblast-orf" id="dummy-1_h1_10_2"  />
</g>
<g id="a1_003"  >
<polygon points="20,90 20,90 25,85 20,80 20,80 20,90 " style="fill:white; stroke-width:1; stroke:black; " description="&lt;b&gt;ADE22320.1&lt;/b&gt;&lt;br&gt;hypothetical protein&lt;br&gt;Location: 50908 - 50528" locus_tag="ADE22320.1" class="clusterblast-orf" id="dummy-1_h1_10_3"  />
</g>
<g id="a1_004"  >
<polygon points="26,90 27,90 32,85 27,80 26,80 26,90 " style="fill:white; stroke-width:1; stroke:black; " description="&lt;b&gt;ADE22319.1&lt;/b&gt;&lt;br&gt;putative monooxygenase&lt;br&gt;Location: 50513 - 50067" locus_tag="ADE22319.1" class="clusterblast-orf" id="dummy-1_h1_10_4"  />
</g>
<g id="a1_005"  >
<polygon points="33,85 38,80 54,80 54,90 38,90 33,85 " style="fill:white; stroke-width:1; stroke:black; " description="&lt;b&gt;ADE22318.1&lt;/b&gt;&lt;br&gt;oxidase-like protein&lt;br&gt;Location: 50014 - 48596" locus_tag="ADE22318.1" class="clusterblast-orf" id="dummy-1_h1_10_5"  />
</g>
<g id="a1_006"  >
<polygon points="54,85 59,80 60,80 60,90 59,90 54,85 " style="fill:white; stroke-width:1; stroke:black; " description="&lt;b&gt;ADE22317.1&lt;/b&gt;&lt;br&gt;CurD-like protein&lt;br&gt;Location: 48584 - 48198" locus_tag="ADE22317.1" class="clusterblast-orf" id="dummy-1_h1_10_6"  />
</g>
<g id="a1_007"  >
<polygon points="63,90 64,90 69,85 64,80 63,80 63,90 " style="fill:#15d8d8; stroke-width:1; stroke:black; " description="&lt;b&gt;ADE22316.1&lt;/b&gt;&lt;br&gt;putative polyketide cyclase&lt;br&gt;Location: 48014 - 47580&lt;br&gt;&lt;br&gt;&lt;b&gt;BlastP hit with cds43450_43885&lt;/b&gt;&lt;br&gt;Percentage identity: 51&lt;br&gt;Percentage coverage: 96&lt;br&gt;BLAST bit score: 141&lt;br&gt;E-value: 1.4e-33" locus_tag="ADE22316.1" class="clusterblast-orf" id="dummy-1_h1_10_7"  />
</g>
<g id="a1_008"  >
<polygon points="69,90 83,90 88,85 83,80 69,80 69,90 " style="fill:#7715d8; stroke-width:1; stroke:black; " description="&lt;b&gt;ADE22315.1&lt;/b&gt;&lt;br&gt;putative polyketide beta-ketoacyl synthase alpha&lt;br&gt;Location: 47583 - 46306&lt;br&gt;&lt;br&gt;&lt;b&gt;BlastP hit with cds43881_45150&lt;/b&gt;&lt;br&gt;Percentage identity: 66&lt;br&gt;Percentage coverage: 99&lt;br&gt;BLAST bit score: 540&lt;br&gt;E-value: 3e-153" locus_tag="ADE22315.1" class="clusterblast-orf" id="dummy-1_h1_10_8"  />
</g>
<g id="a1_009"  >
<polygon points="88,90 103,90 108,85 103,80 88,80 88,90 " style="fill:#d8a715; stroke-width:1; stroke:black; " description="&lt;b&gt;ADE22314.1&lt;/b&gt;&lt;br&gt;putative polyketide beta-ketoacyl synthase beta&lt;br&gt;Location: 46303 - 45017&lt;br&gt;&lt;br&gt;&lt;b&gt;BlastP hit with cds45146_46406&lt;/b&gt;&lt;br&gt;Percentage identity: 46&lt;br&gt;Percentage coverage: 102&lt;br&gt;BLAST bit score: 322&lt;br&gt;E-value: 1.3e-87" locus_tag="ADE22314.1" class="clusterblast-orf" id="dummy-1_h1_10_9"  />
</g>
<g id="a1_0010"  >
<polygon points="109,90 111,90 116,85 111,80 109,80 109,90 " style="fill:#1546d8; stroke-width:1; stroke:black; " description="&lt;b&gt;ADE22313.1&lt;/b&gt;&lt;br&gt;putative polyketide cyclase&lt;br&gt;Location: 44909 - 44442&lt;br&gt;&lt;br&gt;&lt;b&gt;BlastP hit with cds46681_47161&lt;/b&gt;&lt;br&gt;Percentage identity: 59&lt;br&gt;Percentage coverage: 97&lt;br&gt;BLAST bit score: 202&lt;br&gt;E-value: 4.3e-52" locus_tag="ADE22313.1" class="clusterblast-orf" id="dummy-1_h1_10_10"  />
</g>
<g id="a1_0011"  >
<polygon points="116,90 118,90 123,85 118,80 116,80 116,90 " style="fill:white; stroke-width:1; stroke:black; " description="&lt;b&gt;ADE22312.1&lt;/b&gt;&lt;br&gt;putative monooxygenase&lt;br&gt;Location: 44431 - 43970" locus_tag="ADE22312.1" class="clusterblast-orf" id="dummy-1_h1_10_11"  />
</g>
<g id="a1_0012"  >
<polygon points="124,90 130,90 135,85 130,80 124,80 124,90 " style="fill:white; stroke-width:1; stroke:black; " description="&lt;b&gt;ADE22311.1&lt;/b&gt;&lt;br&gt;putative 3-oxoacyl-ACP reductase&lt;br&gt;Location: 43946 - 43194" locus_tag="ADE22311.1" class="clusterblast-orf" id="dummy-1_h1_10_12"  />
</g>
<g id="a1_0013"  >
<polygon points="135,90 135,90 140,85 135,80 135,80 135,90 " style="fill:white; stroke-width:1; stroke:black; " description="&lt;b&gt;ADE22310.1&lt;/b&gt;&lt;br&gt;putative monooxygenase&lt;br&gt;Location: 43194 - 42847" locus_tag="ADE22310.1" class="clusterblast-orf" id="dummy-1_h1_10_13"  />
</g>
<g id="a1_0014"  >
<polygon points="140,90 144,85 140,80 140,90 " style="fill:white; stroke-width:1; stroke:black; " description="&lt;b&gt;ADE22309.1&lt;/b&gt;&lt;br&gt;putative monooxygenase&lt;br&gt;Location: 42857 - 42546" locus_tag="ADE22309.1" class="clusterblast-orf" id="dummy-1_h1_10_14"  />
</g>
<g id="a1_0015"  >
<polygon points="146,90 166,90 171,85 166,80 146,80 146,90 " style="fill:white; stroke-width:1; stroke:black; " description="&lt;b&gt;ADE22308.1&lt;/b&gt;&lt;br&gt;carboxyl transferase&lt;br&gt;Location: 42468 - 40774" locus_tag="ADE22308.1" class="clusterblast-orf" id="dummy-1_h1_10_15"  />
</g>
<g id="a1_0016"  >
<polygon points="172,90 175,90 180,85 175,80 172,80 172,90 " style="fill:white; stroke-width:1; stroke:black; " description="&lt;b&gt;ADE22307.1&lt;/b&gt;&lt;br&gt;biotin carboxyl carrier protein&lt;br&gt;Location: 40714 - 40190" locus_tag="ADE22307.1" class="clusterblast-orf" id="dummy-1_h1_10_16"  />
</g>
<g id="a1_0017"  >
<polygon points="180,90 195,90 200,85 195,80 180,80 180,90 " style="fill:white; stroke-width:1; stroke:black; " description="&lt;b&gt;ADE22306.1&lt;/b&gt;&lt;br&gt;biotin carboxylase&lt;br&gt;Location: 40187 - 38844" locus_tag="ADE22306.1" class="clusterblast-orf" id="dummy-1_h1_10_17"  />
</g>
<g id="a1_0018"  >
<polygon points="202,85 207,80 217,80 217,90 207,90 202,85 " style="fill:white; stroke-width:1; stroke:black; " description="&lt;b&gt;ADE22305.1&lt;/b&gt;&lt;br&gt;putative transcriptional regulator&lt;br&gt;Location: 38722 - 37715" locus_tag="ADE22305.1" class="clusterblast-orf" id="dummy-1_h1_10_18"  />
</g>
<g id="a1_0019"  >
<polygon points="217,90 226,90 231,85 226,80 217,80 217,90 " style="fill:white; stroke-width:1; stroke:black; " description="&lt;b&gt;ADE22304.1&lt;/b&gt;&lt;br&gt;putative oxidoreductase&lt;br&gt;Location: 37667 - 36759" locus_tag="ADE22304.1" class="clusterblast-orf" id="dummy-1_h1_10_19"  />
</g>
<g id="a1_0020"  >
<polygon points="234,85 239,80 244,80 244,90 239,90 234,85 " style="fill:white; stroke-width:1; stroke:black; " description="&lt;b&gt;ADE22303.1&lt;/b&gt;&lt;br&gt;putative short-chain dehydrogenase/reductase SDR&lt;br&gt;Location: 36554 - 35868" locus_tag="ADE22303.1" class="clusterblast-orf" id="dummy-1_h1_10_20"  />
</g>
<g id="a1_0021"  >
<polygon points="245,85 250,80 269,80 269,90 250,90 245,85 " style="fill:white; stroke-width:1; stroke:black; " description="&lt;b&gt;ADE22302.1&lt;/b&gt;&lt;br&gt;putative FAD-binding monooxygenase&lt;br&gt;Location: 35798 - 34203" locus_tag="ADE22302.1" class="clusterblast-orf" id="dummy-1_h1_10_21"  />
</g>
<g id="a1_0022"  >
<polygon points="270,85 275,80 286,80 286,90 275,90 270,85 " style="fill:white; stroke-width:1; stroke:black; " description="&lt;b&gt;ADE22301.1&lt;/b&gt;&lt;br&gt;putative methyltransferase&lt;br&gt;Location: 34118 - 33084" locus_tag="ADE22301.1" class="clusterblast-orf" id="dummy-1_h1_10_22"  />
</g>
<g id="a1_0023"  >
<polygon points="291,90 310,90 315,85 310,80 291,80 291,90 " style="fill:white; stroke-width:1; stroke:black; " description="&lt;b&gt;ADE22300.1&lt;/b&gt;&lt;br&gt;putative FAD-binding monooxygenase&lt;br&gt;Location: 32742 - 31120" locus_tag="ADE22300.1" class="clusterblast-orf" id="dummy-1_h1_10_23"  />
</g>
<g id="a1_0024"  >
<polygon points="315,90 325,90 330,85 325,80 315,80 315,90 " style="fill:white; stroke-width:1; stroke:black; " description="&lt;b&gt;ADE22299.1&lt;/b&gt;&lt;br&gt;putative O-methyltransferase&lt;br&gt;Location: 31105 - 30083" locus_tag="ADE22299.1" class="clusterblast-orf" id="dummy-1_h1_10_24"  />
</g>
<g id="a1_0025"  >
<polygon points="331,85 336,80 338,80 338,90 336,90 331,85 " style="fill:white; stroke-width:1; stroke:black; " description="&lt;b&gt;ADE22298.1&lt;/b&gt;&lt;br&gt;putative transcriptional regulator&lt;br&gt;Location: 30061 - 29600" locus_tag="ADE22298.1" class="clusterblast-orf" id="dummy-1_h1_10_25"  />
</g>
<g id="a1_0026"  >
<polygon points="340,90 342,90 347,85 342,80 340,80 340,90 " style="fill:white; stroke-width:1; stroke:black; " description="&lt;b&gt;ADE22297.1&lt;/b&gt;&lt;br&gt;hypothetical protein&lt;br&gt;Location: 29473 - 28985" locus_tag="ADE22297.1" class="clusterblast-orf" id="dummy-1_h1_10_26"  />
</g>
<g id="a1_0027"  >
<polygon points="348,90 363,90 368,85 363,80 348,80 348,90 " style="fill:white; stroke-width:1; stroke:black; " description="&lt;b&gt;ADE22296.1&lt;/b&gt;&lt;br&gt;putative integral membrane ion antiporter&lt;br&gt;Location: 28888 - 27593" locus_tag="ADE22296.1" class="clusterblast-orf" id="dummy-1_h1_10_27"  />
</g>
<g id="a1_0028"  >
<polygon points="369,85 374,80 382,80 382,90 374,90 369,85 " style="fill:white; stroke-width:1; stroke:black; " description="&lt;b&gt;ADE22295.1&lt;/b&gt;&lt;br&gt;putative F420-dependent reductase&lt;br&gt;Location: 27508 - 26651" locus_tag="ADE22295.1" class="clusterblast-orf" id="dummy-1_h1_10_28"  />
</g>
<g id="a1_0029"  >
<polygon points="390,85 395,80 405,80 405,90 395,90 390,85 " style="fill:white; stroke-width:1; stroke:black; " description="&lt;b&gt;ADE22294.1&lt;/b&gt;&lt;br&gt;putative O-methyltransferase&lt;br&gt;Location: 26086 - 25067" locus_tag="ADE22294.1" class="clusterblast-orf" id="dummy-1_h1_10_29"  />
</g>
<g id="a1_0030"  >
<polygon points="405,85 410,80 429,80 429,90 410,90 405,85 " style="fill:white; stroke-width:1; stroke:black; " description="&lt;b&gt;ADE22293.1&lt;/b&gt;&lt;br&gt;putative peptide transporter&lt;br&gt;Location: 25070 - 23469" locus_tag="ADE22293.1" class="clusterblast-orf" id="dummy-1_h1_10_30"  />
</g>
<g id="a1_0031"  >
<polygon points="429,85 434,80 450,80 450,90 434,90 429,85 " style="fill:white; stroke-width:1; stroke:black; " description="&lt;b&gt;ADE22292.1&lt;/b&gt;&lt;br&gt;putative non-heme halogenase&lt;br&gt;Location: 23472 - 22057" locus_tag="ADE22292.1" class="clusterblast-orf" id="dummy-1_h1_10_31"  />
</g>
<g id="a1_0032"  >
<polygon points="455,90 459,90 464,85 459,80 455,80 455,90 " style="fill:white; stroke-width:1; stroke:black; " description="&lt;b&gt;ADE22291.1&lt;/b&gt;&lt;br&gt;putative lactoylglutathione lyase&lt;br&gt;Location: 21707 - 21147" locus_tag="ADE22291.1" class="clusterblast-orf" id="dummy-1_h1_10_32"  />
</g>
<g id="a1_0033"  >
<polygon points="465,85 470,80 482,80 482,90 470,90 465,85 " style="fill:white; stroke-width:1; stroke:black; " description="&lt;b&gt;ADE22290.1&lt;/b&gt;&lt;br&gt;FAD-binding monooxygenase&lt;br&gt;Location: 21086 - 19908" locus_tag="ADE22290.1" class="clusterblast-orf" id="dummy-1_h1_10_33"  />
</g>
<g id="a1_0034"  >
<polygon points="485,85 490,80 517,80 517,90 490,90 485,85 " style="fill:white; stroke-width:1; stroke:black; " description="&lt;b&gt;ADE22289.1&lt;/b&gt;&lt;br&gt;putative antibiotic transporter&lt;br&gt;Location: 19728 - 17599" locus_tag="ADE22289.1" class="clusterblast-orf" id="dummy-1_h1_10_34"  />
</g>
<g id="a1_0035"  >
<polygon points="517,85 521,80 521,90 517,85 " style="fill:white; stroke-width:1; stroke:black; " description="&lt;b&gt;ADE22288.1&lt;/b&gt;&lt;br&gt;putative 3Fe-S ferredoxin&lt;br&gt;Location: 17602 - 17333" locus_tag="ADE22288.1" class="clusterblast-orf" id="dummy-1_h1_10_35"  />
</g>
<g id="a1_0036"  >
<polygon points="521,85 526,80 539,80 539,90 526,90 521,85 " style="fill:white; stroke-width:1; stroke:black; " description="&lt;b&gt;ADE22287.1&lt;/b&gt;&lt;br&gt;putative cytochrome P450 hydroxylase&lt;br&gt;Location: 17316 - 16114" locus_tag="ADE22287.1" class="clusterblast-orf" id="dummy-1_h1_10_36"  />
</g>
<g id="a1_0037"  >
<polygon points="540,85 545,80 550,80 550,90 545,90 540,85 " style="fill:white; stroke-width:1; stroke:black; " description="&lt;b&gt;ADE22286.1&lt;/b&gt;&lt;br&gt;putative transcriptional regulator&lt;br&gt;Location: 16075 - 15392" locus_tag="ADE22286.1" class="clusterblast-orf" id="dummy-1_h1_10_37"  />
</g>
<g id="a1_0038"  >
<polygon points="550,85 555,80 577,80 577,90 555,90 550,85 " style="fill:white; stroke-width:1; stroke:black; " description="&lt;b&gt;ADE22285.1&lt;/b&gt;&lt;br&gt;putative asparagine synthase&lt;br&gt;Location: 15386 - 13542" locus_tag="ADE22285.1" class="clusterblast-orf" id="dummy-1_h1_10_38"  />
</g>
<g id="a1_0039"  >
<polygon points="577,85 582,80 595,80 595,90 582,90 577,85 " style="fill:white; stroke-width:1; stroke:black; " description="&lt;b&gt;ADE22284.1&lt;/b&gt;&lt;br&gt;putative inactive gylcosyltransferase&lt;br&gt;Location: 13554 - 12379" locus_tag="ADE22284.1" class="clusterblast-orf" id="dummy-1_h1_10_39"  />
</g>
<g id="a1_0040"  >
<polygon points="597,85 602,80 621,80 621,90 602,90 597,85 " style="fill:white; stroke-width:1; stroke:black; " description="&lt;b&gt;ADE22283.1&lt;/b&gt;&lt;br&gt;putative spore coat protein&lt;br&gt;Location: 12211 - 10592" locus_tag="ADE22283.1" class="clusterblast-orf" id="dummy-1_h1_10_40"  />
</g>
<g id="a1_0041"  >
<polygon points="621,85 626,80 632,80 632,90 626,90 621,85 " style="fill:white; stroke-width:1; stroke:black; " description="&lt;b&gt;ADE22282.1&lt;/b&gt;&lt;br&gt;hypothetical protein&lt;br&gt;Location: 10595 - 9867" locus_tag="ADE22282.1" class="clusterblast-orf" id="dummy-1_h1_10_41"  />
</g>
<g id="a1_0042"  >
<polygon points="633,90 646,90 651,85 646,80 633,80 633,90 " style="fill:white; stroke-width:1; stroke:black; " description="&lt;b&gt;ADE22281.1&lt;/b&gt;&lt;br&gt;putative dehydrogenase&lt;br&gt;Location: 9803 - 8580" locus_tag="ADE22281.1" class="clusterblast-orf" id="dummy-1_h1_10_42"  />
</g>
<g id="a1_0043"  >
<polygon points="651,90 653,90 658,85 653,80 651,80 651,90 " style="fill:white; stroke-width:1; stroke:black; " description="&lt;b&gt;ADE22280.1&lt;/b&gt;&lt;br&gt;putative oxygenase&lt;br&gt;Location: 8583 - 8146" locus_tag="ADE22280.1" class="clusterblast-orf" id="dummy-1_h1_10_43"  />
</g>
<g id="a1_0044"  >
<polygon points="660,90 673,90 678,85 673,80 660,80 660,90 " style="fill:white; stroke-width:1; stroke:black; " description="&lt;b&gt;ADE22279.1&lt;/b&gt;&lt;br&gt;S-adenosylmethionine synthetase&lt;br&gt;Location: 8037 - 6817" locus_tag="ADE22279.1" class="clusterblast-orf" id="dummy-1_h1_10_44"  />
</g>
<g id="a1_0045"  >
<polygon points="678,90 688,90 693,85 688,80 678,80 678,90 " style="fill:white; stroke-width:1; stroke:black; " description="&lt;b&gt;ADE22278.1&lt;/b&gt;&lt;br&gt;carbohydrate kinase&lt;br&gt;Location: 6791 - 5799" locus_tag="ADE22278.1" class="clusterblast-orf" id="dummy-1_h1_10_45"  />
</g>
<g id="a1_0046"  >
<polygon points="693,90 740,90 745,85 740,80 693,80 693,90 " style="fill:white; stroke-width:1; stroke:black; " description="&lt;b&gt;ADE22277.1&lt;/b&gt;&lt;br&gt;methionine synthase&lt;br&gt;Location: 5802 - 2305" locus_tag="ADE22277.1" class="clusterblast-orf" id="dummy-1_h1_10_46"  />
</g>
<g id="a1_0047"  >
<polygon points="745,90 754,90 759,85 754,80 745,80 745,90 " style="fill:white; stroke-width:1; stroke:black; " description="&lt;b&gt;ADE22276.1&lt;/b&gt;&lt;br&gt;5,10-methylenetetrahydrofolate reductase&lt;br&gt;Location: 2299 - 1397" locus_tag="ADE22276.1" class="clusterblast-orf" id="dummy-1_h1_10_47"  />
</g>
<g id="a1_0048"  >
<polygon points="758,90 775,90 780,85 775,80 758,80 758,90 " style="fill:white; stroke-width:1; stroke:black; " description="&lt;b&gt;ADE22275.1&lt;/b&gt;&lt;br&gt;putative adenosylhomocysteinase&lt;br&gt;Location: 1419 - 1" locus_tag="ADE22275.1" class="clusterblast-orf" id="dummy-1_h1_10_48"  />
</g>
</svg>
