<svg xmlns="http://www.w3.org/2000/svg" xmlns:xlink="http://www.w3.org/1999/xlink" version="1.1" x="0" y="0" height="230" width="800" viewBox="0 0 800 230" preserveAspectRatio="none"  >
<g label="Query sequence" class="clusterblast-cluster"  >
<text x="5" y="20" class="clusterblast-acc"  >
Query sequence</text>
<line x1="10" y1="35" x2="778.0" y2="35" style="stroke-width:1; stroke:grey; "  />
<polygon points="151,40 162,40 167,35 162,30 151,30 151,40 " style="fill:white; stroke-width:1; stroke:black; " description="&lt;b&gt;cds188_1109&lt;/b&gt;&lt;br&gt;hypothetical protein&lt;br&gt;Location: 188 - 1109" locus_tag="cds188_1109" class="clusterblast-orf" id="dummy-1_q0_0_all"  />
<polygon points="165,35 170,30 175,30 175,40 170,40 165,35 " style="fill:#d81515; stroke-width:1; stroke:black; " description="&lt;b&gt;cds970_1519&lt;/b&gt;&lt;br&gt;FMN reductase (NADH) NtaB&lt;br&gt;Location: 970 - 1519" locus_tag="cds970_1519" class="clusterblast-orf" id="dummy-1_q1_0_all"  />
<polygon points="175,35 180,30 183,30 183,40 180,40 175,35 " style="fill:#4dd815; stroke-width:1; stroke:black; " description="&lt;b&gt;cds1515_1989&lt;/b&gt;&lt;br&gt;hypothetical protein&lt;br&gt;Location: 1515 - 1989" locus_tag="cds1515_1989" class="clusterblast-orf" id="dummy-1_q2_0_all"  />
<polygon points="183,35 188,30 288,30 288,40 188,40 183,35 " style="fill:#1585d8; stroke-width:1; stroke:black; " description="&lt;b&gt;cds1985_7793&lt;/b&gt;&lt;br&gt;hypothetical protein&lt;br&gt;Location: 1985 - 7793" locus_tag="cds1985_7793" class="clusterblast-orf" id="dummy-1_q3_0_all"  />
<polygon points="288,35 293,30 308,30 308,40 293,40 288,35 " style="fill:#a115d8; stroke-width:1; stroke:black; " description="&lt;b&gt;cds7789_8875&lt;/b&gt;&lt;br&gt;hypothetical protein&lt;br&gt;Location: 7789 - 8875" locus_tag="cds7789_8875" class="clusterblast-orf" id="dummy-1_q4_0_all"  />
<polygon points="308,35 313,30 342,30 342,40 313,40 308,35 " style="fill:#d86915; stroke-width:1; stroke:black; " description="&lt;b&gt;cds8876_10805&lt;/b&gt;&lt;br&gt;hypothetical protein&lt;br&gt;Location: 8876 - 10805" locus_tag="cds8876_10805" class="clusterblast-orf" id="dummy-1_q5_0_all"  />
<polygon points="342,35 347,30 360,30 360,40 347,40 342,35 " style="fill:#15d831; stroke-width:1; stroke:black; " description="&lt;b&gt;cds10801_11788&lt;/b&gt;&lt;br&gt;hypothetical protein&lt;br&gt;Location: 10801 - 11788" locus_tag="cds10801_11788" class="clusterblast-orf" id="dummy-1_q6_0_all"  />
<polygon points="362,35 367,30 380,30 380,40 367,40 362,35 " style="fill:#1531d8; stroke-width:1; stroke:black; " description="&lt;b&gt;cds11883_12864&lt;/b&gt;&lt;br&gt;hypothetical protein&lt;br&gt;Location: 11883 - 12864" locus_tag="cds11883_12864" class="clusterblast-orf" id="dummy-1_q7_0_all"  />
<polygon points="382,35 387,30 390,30 390,40 387,40 382,35 " style="fill:#d815bc; stroke-width:1; stroke:black; " description="&lt;b&gt;cds13002_13446&lt;/b&gt;&lt;br&gt;putative HTH-type transcriptional regulator&lt;br&gt;Location: 13002 - 13446" locus_tag="cds13002_13446" class="clusterblast-orf" id="dummy-1_q8_0_all"  />
<polygon points="393,40 398,40 403,35 398,30 393,30 393,40 " style="fill:#d8bc15; stroke-width:1; stroke:black; " description="&lt;b&gt;cds13584_14148&lt;/b&gt;&lt;br&gt;hypothetical protein&lt;br&gt;Location: 13584 - 14148" locus_tag="cds13584_14148" class="clusterblast-orf" id="dummy-1_q9_0_all"  />
<polygon points="403,40 407,40 412,35 407,30 403,30 403,40 " style="fill:#15d885; stroke-width:1; stroke:black; " description="&lt;b&gt;cds14158_14632&lt;/b&gt;&lt;br&gt;hypothetical protein&lt;br&gt;Location: 14158 - 14632" locus_tag="cds14158_14632" class="clusterblast-orf" id="dummy-1_q10_0_all"  />
<polygon points="416,35 421,30 439,30 439,40 421,40 416,35 " style="fill:#4d15d8; stroke-width:1; stroke:black; " description="&lt;b&gt;cds14902_16138&lt;/b&gt;&lt;br&gt;IS701 family transposase ISSav4&lt;br&gt;Location: 14902 - 16138" locus_tag="cds14902_16138" class="clusterblast-orf" id="dummy-1_q11_0_all"  />
<polygon points="445,40 450,40 455,35 450,30 445,30 445,40 " style="fill:white; stroke-width:1; stroke:black; " description="&lt;b&gt;cds16456_17056&lt;/b&gt;&lt;br&gt;A-factor receptor protein&lt;br&gt;Location: 16456 - 17056" locus_tag="cds16456_17056" class="clusterblast-orf" id="dummy-1_q12_0_all"  />
<polygon points="458,35 463,30 472,30 472,40 463,40 458,35 " style="fill:white; stroke-width:1; stroke:black; " description="&lt;b&gt;cds17181_17952&lt;/b&gt;&lt;br&gt;A-factor type gamma-butyrolactone 1'-reductase (1S-forming)&lt;br&gt;Location: 17181 - 17952" locus_tag="cds17181_17952" class="clusterblast-orf" id="dummy-1_q13_0_all"  />
<polygon points="474,35 479,30 486,30 486,40 479,40 474,35 " style="fill:white; stroke-width:1; stroke:black; " description="&lt;b&gt;cds18115_18766&lt;/b&gt;&lt;br&gt;A-factor receptor protein&lt;br&gt;Location: 18115 - 18766" locus_tag="cds18115_18766" class="clusterblast-orf" id="dummy-1_q14_0_all"  />
<polygon points="488,40 500,40 505,35 500,30 488,30 488,40 " style="fill:white; stroke-width:1; stroke:black; " description="&lt;b&gt;cds18885_19803&lt;/b&gt;&lt;br&gt;hypothetical protein&lt;br&gt;Location: 18885 - 19803" locus_tag="cds18885_19803" class="clusterblast-orf" id="dummy-1_q15_0_all"  />
<polygon points="511,40 532,40 537,35 532,30 511,30 511,40 " style="fill:#d81569; stroke-width:1; stroke:black; " description="&lt;b&gt;cds20145_21585&lt;/b&gt;&lt;br&gt;hypothetical protein&lt;br&gt;Location: 20145 - 21585" locus_tag="cds20145_21585" class="clusterblast-orf" id="dummy-1_q16_0_all"  />
<polygon points="541,35 546,30 549,30 549,40 546,40 541,35 " style="fill:white; stroke-width:1; stroke:black; " description="&lt;b&gt;cds21807_22245&lt;/b&gt;&lt;br&gt;hypothetical protein&lt;br&gt;Location: 21807 - 22245" locus_tag="cds21807_22245" class="clusterblast-orf" id="dummy-1_q17_0_all"  />
<polygon points="551,35 556,30 567,30 567,40 556,40 551,35 " style="fill:#a1d815; stroke-width:1; stroke:black; " description="&lt;b&gt;cds22347_23226&lt;/b&gt;&lt;br&gt;hypothetical protein&lt;br&gt;Location: 22347 - 23226" locus_tag="cds22347_23226" class="clusterblast-orf" id="dummy-1_q18_0_all"  />
<polygon points="574,35 579,30 581,30 581,40 579,40 574,35 " style="fill:#15d8d8; stroke-width:1; stroke:black; " description="&lt;b&gt;cds23601_24003&lt;/b&gt;&lt;br&gt;hypothetical protein&lt;br&gt;Location: 23601 - 24003" locus_tag="cds23601_24003" class="clusterblast-orf" id="dummy-1_q19_0_all"  />
<polygon points="581,35 586,30 608,30 608,40 586,40 581,35 " style="fill:#d81569; stroke-width:1; stroke:black; " description="&lt;b&gt;cds23999_25532&lt;/b&gt;&lt;br&gt;hypothetical protein&lt;br&gt;Location: 23999 - 25532" locus_tag="cds23999_25532" class="clusterblast-orf" id="dummy-1_q20_0_all"  />
<polygon points="608,35 613,30 629,30 629,40 613,40 608,35 " style="fill:white; stroke-width:1; stroke:black; " description="&lt;b&gt;cds25521_26649&lt;/b&gt;&lt;br&gt;hypothetical protein&lt;br&gt;Location: 25521 - 26649" locus_tag="cds25521_26649" class="clusterblast-orf" id="dummy-1_q21_0_all"  />
</g>
<g label="BGC0001377" description="BGC0001377_c1: uncialamycin (9% of genes show similarity), Polyketide" class="clusterblast-cluster"  >
<text x="5" y="70" class="clusterblast-acc"  >
<a xlink:href="https://mibig.secondarymetabolites.org/go/BGC0001377/1" target="_blank">BGC0001377</a>:                                                                     uncialamycin (9% of genes show similarity), Polyketide</text>
<line x1="10" y1="85" x2="778.0" y2="85" style="stroke-width:1; stroke:grey; "  />
</g>
<g id="a1_000"  >
<polygon points="0,85 5,80 9,80 9,90 5,90 0,85 " style="fill:white; stroke-width:1; stroke:black; " description="&lt;b&gt;AMK92551.1&lt;/b&gt;&lt;br&gt;alpha-L-arabinofuranosidase&lt;br&gt;Location: 820 - 1356" locus_tag="AMK92551.1" class="clusterblast-orf" id="dummy-1_h1_10_0"  />
</g>
<g id="a1_001"  >
<polygon points="12,85 17,80 62,80 62,90 17,90 12,85 " style="fill:white; stroke-width:1; stroke:black; " description="&lt;b&gt;AMK92552.1&lt;/b&gt;&lt;br&gt;hypothetical protein&lt;br&gt;Location: 1518 - 4265" locus_tag="AMK92552.1" class="clusterblast-orf" id="dummy-1_h1_10_1"  />
</g>
<g id="a1_002"  >
<polygon points="72,90 86,90 91,85 86,80 72,80 72,90 " style="fill:white; stroke-width:1; stroke:black; " description="&lt;b&gt;AMK92553.1&lt;/b&gt;&lt;br&gt;5-methyltetrahydropteroyltriglutamate-- homocysteine methyltransferase&lt;br&gt;Location: 4826 - 5890" locus_tag="AMK92553.1" class="clusterblast-orf" id="dummy-1_h1_10_2"  />
</g>
<g id="a1_003"  >
<polygon points="94,85 99,80 106,80 106,90 99,90 94,85 " style="fill:white; stroke-width:1; stroke:black; " description="&lt;b&gt;AMK92554.1&lt;/b&gt;&lt;br&gt;hypothetical protein&lt;br&gt;Location: 6048 - 6701" locus_tag="AMK92554.1" class="clusterblast-orf" id="dummy-1_h1_10_3"  />
</g>
<g id="a1_004"  >
<polygon points="106,85 111,80 130,80 130,90 111,90 106,85 " style="fill:white; stroke-width:1; stroke:black; " description="&lt;b&gt;AMK92555.1&lt;/b&gt;&lt;br&gt;PBS lyase HEAT-like repeat protein&lt;br&gt;Location: 6745 - 8064" locus_tag="AMK92555.1" class="clusterblast-orf" id="dummy-1_h1_10_4"  />
</g>
<g id="a1_005"  >
<polygon points="132,85 137,80 154,80 154,90 137,90 132,85 " style="fill:white; stroke-width:1; stroke:black; " description="&lt;b&gt;AMK92556.1&lt;/b&gt;&lt;br&gt;ketone reductase&lt;br&gt;Location: 8138 - 9406" locus_tag="AMK92556.1" class="clusterblast-orf" id="dummy-1_h1_10_5"  />
</g>
<g id="a1_006"  >
<polygon points="155,85 160,80 179,80 179,90 160,90 155,85 " style="fill:white; stroke-width:1; stroke:black; " description="&lt;b&gt;AMK92557.1&lt;/b&gt;&lt;br&gt;hypothetical protein&lt;br&gt;Location: 9440 - 10750" locus_tag="AMK92557.1" class="clusterblast-orf" id="dummy-1_h1_10_6"  />
</g>
<g id="a1_007"  >
<polygon points="184,85 189,80 214,80 214,90 189,90 184,85 " style="fill:white; stroke-width:1; stroke:black; " description="&lt;b&gt;AMK92558.1&lt;/b&gt;&lt;br&gt;MFS transporter&lt;br&gt;Location: 11041 - 12675" locus_tag="AMK92558.1" class="clusterblast-orf" id="dummy-1_h1_10_7"  />
</g>
<g id="a1_008"  >
<polygon points="214,85 219,80 222,80 222,90 219,90 214,85 " style="fill:white; stroke-width:1; stroke:black; " description="&lt;b&gt;AMK92559.1&lt;/b&gt;&lt;br&gt;type II thioesterase&lt;br&gt;Location: 12717 - 13151" locus_tag="AMK92559.1" class="clusterblast-orf" id="dummy-1_h1_10_8"  />
</g>
<g id="a1_009"  >
<polygon points="222,85 227,80 328,80 328,90 227,90 222,85 " style="fill:#1585d8; stroke-width:1; stroke:black; " description="&lt;b&gt;AMK92560.1&lt;/b&gt;&lt;br&gt;enediyne polyketide synthase&lt;br&gt;Location: 13144 - 18996&lt;br&gt;&lt;br&gt;&lt;b&gt;BlastP hit with cds1985_7793&lt;/b&gt;&lt;br&gt;Percentage identity: 46&lt;br&gt;Percentage coverage: 99&lt;br&gt;BLAST bit score: 1374&lt;br&gt;E-value: 0.0" locus_tag="AMK92560.1" class="clusterblast-orf" id="dummy-1_h1_10_9"  />
</g>
<g id="a1_0010"  >
<polygon points="328,85 333,80 346,80 346,90 333,90 328,85 " style="fill:#a115d8; stroke-width:1; stroke:black; " description="&lt;b&gt;AMK92561.1&lt;/b&gt;&lt;br&gt;hypothetical protein&lt;br&gt;Location: 18993 - 19994&lt;br&gt;&lt;br&gt;&lt;b&gt;BlastP hit with cds7789_8875&lt;/b&gt;&lt;br&gt;Percentage identity: 57&lt;br&gt;Percentage coverage: 84&lt;br&gt;BLAST bit score: 326&lt;br&gt;E-value: 7.6e-89" locus_tag="AMK92561.1" class="clusterblast-orf" id="dummy-1_h1_10_10"  />
</g>
<g id="a1_0011"  >
<polygon points="346,85 351,80 381,80 381,90 351,90 346,85 " style="fill:#d86915; stroke-width:1; stroke:black; " description="&lt;b&gt;AMK92562.1&lt;/b&gt;&lt;br&gt;hypothetical protein&lt;br&gt;Location: 19991 - 21940&lt;br&gt;&lt;br&gt;&lt;b&gt;BlastP hit with cds8876_10805&lt;/b&gt;&lt;br&gt;Percentage identity: 51&lt;br&gt;Percentage coverage: 101&lt;br&gt;BLAST bit score: 612&lt;br&gt;E-value: 7.2e-175" locus_tag="AMK92562.1" class="clusterblast-orf" id="dummy-1_h1_10_11"  />
</g>
<g id="a1_0012"  >
<polygon points="381,85 386,80 399,80 399,90 386,90 381,85 " style="fill:white; stroke-width:1; stroke:black; " description="&lt;b&gt;AMK92563.1&lt;/b&gt;&lt;br&gt;hypothetical protein&lt;br&gt;Location: 21955 - 22938" locus_tag="AMK92563.1" class="clusterblast-orf" id="dummy-1_h1_10_12"  />
</g>
<g id="a1_0013"  >
<polygon points="409,90 410,90 415,85 410,80 409,80 409,90 " style="fill:white; stroke-width:1; stroke:black; " description="&lt;b&gt;AMK92564.1&lt;/b&gt;&lt;br&gt;glyoxalase/bleomycin resistance protein/dioxygenase&lt;br&gt;Location: 23486 - 23860" locus_tag="AMK92564.1" class="clusterblast-orf" id="dummy-1_h1_10_13"  />
</g>
<g id="a1_0014"  >
<polygon points="422,90 427,90 432,85 427,80 422,80 422,90 " style="fill:white; stroke-width:1; stroke:black; " description="&lt;b&gt;AMK92565.1&lt;/b&gt;&lt;br&gt;Arac family transcriptional regulator&lt;br&gt;Location: 24216 - 24752" locus_tag="AMK92565.1" class="clusterblast-orf" id="dummy-1_h1_10_14"  />
</g>
<g id="a1_0015"  >
<polygon points="432,90 435,90 440,85 435,80 432,80 432,90 " style="fill:white; stroke-width:1; stroke:black; " description="&lt;b&gt;AMK92566.1&lt;/b&gt;&lt;br&gt;glyoxalase/bleomycin resistance protein/dioxygenase&lt;br&gt;Location: 24795 - 25202" locus_tag="AMK92566.1" class="clusterblast-orf" id="dummy-1_h1_10_15"  />
</g>
<g id="a1_0016"  >
<polygon points="440,90 465,90 470,85 465,80 440,80 440,90 " style="fill:white; stroke-width:1; stroke:black; " description="&lt;b&gt;AMK92567.1&lt;/b&gt;&lt;br&gt;tetracenomycin c resistance and export protein&lt;br&gt;Location: 25230 - 26894" locus_tag="AMK92567.1" class="clusterblast-orf" id="dummy-1_h1_10_16"  />
</g>
<g id="a1_0017"  >
<polygon points="472,90 473,90 478,85 473,80 472,80 472,90 " style="fill:white; stroke-width:1; stroke:black; " description="&lt;b&gt;AMK92568.1&lt;/b&gt;&lt;br&gt;glyoxalase/bleomycin resistance protein/dioxygenase&lt;br&gt;Location: 26972 - 27352" locus_tag="AMK92568.1" class="clusterblast-orf" id="dummy-1_h1_10_17"  />
</g>
<g id="a1_0018"  >
<polygon points="480,85 485,80 504,80 504,90 485,90 480,85 " style="fill:white; stroke-width:1; stroke:black; " description="&lt;b&gt;AMK92569.1&lt;/b&gt;&lt;br&gt;hypothetical protein&lt;br&gt;Location: 27437 - 28765" locus_tag="AMK92569.1" class="clusterblast-orf" id="dummy-1_h1_10_18"  />
</g>
<g id="a1_0019"  >
<polygon points="505,85 510,80 525,80 525,90 510,90 505,85 " style="fill:white; stroke-width:1; stroke:black; " description="&lt;b&gt;AMK92570.1&lt;/b&gt;&lt;br&gt;FAD-dependent oxidoreductase&lt;br&gt;Location: 28808 - 29950" locus_tag="AMK92570.1" class="clusterblast-orf" id="dummy-1_h1_10_19"  />
</g>
<g id="a1_0020"  >
<polygon points="525,85 530,80 535,80 535,90 530,90 525,85 " style="fill:white; stroke-width:1; stroke:black; " description="&lt;b&gt;AMK92571.1&lt;/b&gt;&lt;br&gt;putative hydroxylase&lt;br&gt;Location: 29947 - 30468" locus_tag="AMK92571.1" class="clusterblast-orf" id="dummy-1_h1_10_20"  />
</g>
<g id="a1_0021"  >
<polygon points="536,85 541,80 544,80 544,90 541,90 536,85 " style="fill:white; stroke-width:1; stroke:black; " description="&lt;b&gt;AMK92572.1&lt;/b&gt;&lt;br&gt;putative hydroxylase&lt;br&gt;Location: 30521 - 30997" locus_tag="AMK92572.1" class="clusterblast-orf" id="dummy-1_h1_10_21"  />
</g>
<g id="a1_0022"  >
<polygon points="548,90 562,90 567,85 562,80 548,80 548,90 " style="fill:white; stroke-width:1; stroke:black; " description="&lt;b&gt;AMK92573.1&lt;/b&gt;&lt;br&gt;rieske (2Fe-2S) iron-sulfur domain protein&lt;br&gt;Location: 31212 - 32234" locus_tag="AMK92573.1" class="clusterblast-orf" id="dummy-1_h1_10_22"  />
</g>
<g id="a1_0023"  >
<polygon points="568,85 573,80 594,80 594,90 573,90 568,85 " style="fill:white; stroke-width:1; stroke:black; " description="&lt;b&gt;AMK92574.1&lt;/b&gt;&lt;br&gt;hydrolase&lt;br&gt;Location: 32300 - 33739" locus_tag="AMK92574.1" class="clusterblast-orf" id="dummy-1_h1_10_23"  />
</g>
<g id="a1_0024"  >
<polygon points="594,85 599,80 621,80 621,90 599,90 594,85 " style="fill:white; stroke-width:1; stroke:black; " description="&lt;b&gt;AMK92575.1&lt;/b&gt;&lt;br&gt;hydrolase&lt;br&gt;Location: 33736 - 35244" locus_tag="AMK92575.1" class="clusterblast-orf" id="dummy-1_h1_10_24"  />
</g>
<g id="a1_0025"  >
<polygon points="622,85 627,80 641,80 641,90 627,90 622,85 " style="fill:white; stroke-width:1; stroke:black; " description="&lt;b&gt;AMK92576.1&lt;/b&gt;&lt;br&gt;SAM-dependent methyltransferase&lt;br&gt;Location: 35294 - 36364" locus_tag="AMK92576.1" class="clusterblast-orf" id="dummy-1_h1_10_25"  />
</g>
<g id="a1_0026"  >
<polygon points="645,90 653,90 658,85 653,80 645,80 645,90 " style="fill:white; stroke-width:1; stroke:black; " description="&lt;b&gt;AMK92577.1&lt;/b&gt;&lt;br&gt;hypothetical protein&lt;br&gt;Location: 36590 - 37297" locus_tag="AMK92577.1" class="clusterblast-orf" id="dummy-1_h1_10_26"  />
</g>
<g id="a1_0027"  >
<polygon points="660,90 669,90 674,85 669,80 660,80 660,90 " style="fill:white; stroke-width:1; stroke:black; " description="&lt;b&gt;AMK92578.1&lt;/b&gt;&lt;br&gt;oxidoreductase&lt;br&gt;Location: 37382 - 38173" locus_tag="AMK92578.1" class="clusterblast-orf" id="dummy-1_h1_10_27"  />
</g>
<g id="a1_0028"  >
<polygon points="678,85 683,80 718,80 718,90 683,90 678,85 " style="fill:white; stroke-width:1; stroke:black; " description="&lt;b&gt;AMK92579.1&lt;/b&gt;&lt;br&gt;hypothetical protein&lt;br&gt;Location: 38402 - 40612" locus_tag="AMK92579.1" class="clusterblast-orf" id="dummy-1_h1_10_28"  />
</g>
<g id="a1_0029"  >
<polygon points="724,90 735,90 740,85 735,80 724,80 724,90 " style="fill:white; stroke-width:1; stroke:black; " description="&lt;b&gt;AMK92580.1&lt;/b&gt;&lt;br&gt;enediyne self-sacrifice resistance protein&lt;br&gt;Location: 40958 - 41848" locus_tag="AMK92580.1" class="clusterblast-orf" id="dummy-1_h1_10_29"  />
</g>
<g id="a1_0030"  >
<polygon points="741,90 751,90 756,85 751,80 741,80 741,90 " style="fill:white; stroke-width:1; stroke:black; " description="&lt;b&gt;AMK92581.1&lt;/b&gt;&lt;br&gt;Arac family transcriptional regulator&lt;br&gt;Location: 41906 - 42751" locus_tag="AMK92581.1" class="clusterblast-orf" id="dummy-1_h1_10_30"  />
</g>
<g id="a1_0031"  >
<polygon points="770,90 775,90 780,85 775,80 770,80 770,90 " style="fill:white; stroke-width:1; stroke:black; " description="&lt;b&gt;AMK92582.1&lt;/b&gt;&lt;br&gt;pyridoxamine 5'-phosphate oxidase&lt;br&gt;Location: 43509 - 44027" locus_tag="AMK92582.1" class="clusterblast-orf" id="dummy-1_h1_10_31"  />
</g>
</svg>
