<svg xmlns="http://www.w3.org/2000/svg" xmlns:xlink="http://www.w3.org/1999/xlink" version="1.1" x="0" y="0" height="230" width="800" viewBox="0 0 800 230" preserveAspectRatio="none"  >
<g label="Query sequence" class="clusterblast-cluster"  >
<text x="5" y="20" class="clusterblast-acc"  >
Query sequence</text>
<line x1="10" y1="35" x2="778.0" y2="35" style="stroke-width:1; stroke:grey; "  />
<polygon points="195,40 195,40 200,35 195,30 195,30 195,40 " style="fill:#d81515; stroke-width:1; stroke:black; " description="&lt;b&gt;cds18113_18665&lt;/b&gt;&lt;br&gt;hypothetical protein&lt;br&gt;Location: 18113 - 18665" locus_tag="cds18113_18665" class="clusterblast-orf" id="dummy-1_q0_0_all"  />
<polygon points="201,40 204,40 209,35 204,30 201,30 201,40 " style="fill:#5cd815; stroke-width:1; stroke:black; " description="&lt;b&gt;cds18714_19635&lt;/b&gt;&lt;br&gt;hypothetical protein&lt;br&gt;Location: 18714 - 19635" locus_tag="cds18714_19635" class="clusterblast-orf" id="dummy-1_q1_0_all"  />
<polygon points="210,35 215,30 224,30 224,40 215,40 210,35 " style="fill:white; stroke-width:1; stroke:black; " description="&lt;b&gt;cds19700_21182&lt;/b&gt;&lt;br&gt;Spore coat protein A&lt;br&gt;Location: 19700 - 21182" locus_tag="cds19700_21182" class="clusterblast-orf" id="dummy-1_q2_0_all"  />
<polygon points="226,40 229,40 234,35 229,30 226,30 226,40 " style="fill:white; stroke-width:1; stroke:black; " description="&lt;b&gt;cds21412_22282&lt;/b&gt;&lt;br&gt;27-O-demethylrifamycin SV methyltransferase&lt;br&gt;Location: 21412 - 22282" locus_tag="cds21412_22282" class="clusterblast-orf" id="dummy-1_q3_0_all"  />
<polygon points="234,40 240,40 245,35 240,30 234,30 234,40 " style="fill:white; stroke-width:1; stroke:black; " description="&lt;b&gt;cds22348_23494&lt;/b&gt;&lt;br&gt;hypothetical protein&lt;br&gt;Location: 22348 - 23494" locus_tag="cds22348_23494" class="clusterblast-orf" id="dummy-1_q4_0_all"  />
<polygon points="245,35 250,30 258,30 258,40 250,40 245,35 " style="fill:white; stroke-width:1; stroke:black; " description="&lt;b&gt;cds23567_24962&lt;/b&gt;&lt;br&gt;Mitomycin radical oxidase&lt;br&gt;Location: 23567 - 24962" locus_tag="cds23567_24962" class="clusterblast-orf" id="dummy-1_q5_0_all"  />
<polygon points="258,35 263,30 273,30 273,40 263,40 258,35 " style="fill:#15a3d8; stroke-width:1; stroke:black; " description="&lt;b&gt;cds24958_26524&lt;/b&gt;&lt;br&gt;2-methoxy-6-polyprenyl-1,4-benzoquinol methylase, mitochondrial&lt;br&gt;Location: 24958 - 26524" locus_tag="cds24958_26524" class="clusterblast-orf" id="dummy-1_q6_0_all"  />
<polygon points="275,35 278,30 278,40 275,35 " style="fill:white; stroke-width:1; stroke:black; " description="&lt;b&gt;cds26746_27082&lt;/b&gt;&lt;br&gt;hypothetical protein&lt;br&gt;Location: 26746 - 27082" locus_tag="cds26746_27082" class="clusterblast-orf" id="dummy-1_q7_0_all"  />
<polygon points="278,35 283,30 300,30 300,40 283,40 278,35 " style="fill:white; stroke-width:1; stroke:black; " description="&lt;b&gt;cds27150_29475&lt;/b&gt;&lt;br&gt;Periplasmic nitrate reductase&lt;br&gt;Location: 27150 - 29475" locus_tag="cds27150_29475" class="clusterblast-orf" id="dummy-1_q8_0_all"  />
<polygon points="301,40 303,40 308,35 303,30 301,30 301,40 " style="fill:white; stroke-width:1; stroke:black; " description="&lt;b&gt;cds29596_30424&lt;/b&gt;&lt;br&gt;Levodione reductase&lt;br&gt;Location: 29596 - 30424" locus_tag="cds29596_30424" class="clusterblast-orf" id="dummy-1_q9_0_all"  />
<polygon points="309,40 312,40 317,35 312,30 309,30 309,40 " style="fill:white; stroke-width:1; stroke:black; " description="&lt;b&gt;cds30472_31354&lt;/b&gt;&lt;br&gt;F420-dependent glucose-6-phosphate dehydrogenase&lt;br&gt;Location: 30472 - 31354" locus_tag="cds30472_31354" class="clusterblast-orf" id="dummy-1_q10_0_all"  />
<polygon points="318,35 323,30 332,30 332,40 323,40 318,35 " style="fill:#9115d8; stroke-width:1; stroke:black; " description="&lt;b&gt;cds31534_33049&lt;/b&gt;&lt;br&gt;Aclacinomycin-N/aclacinomycin-A oxidase&lt;br&gt;Location: 31534 - 33049" locus_tag="cds31534_33049" class="clusterblast-orf" id="dummy-1_q11_0_all"  />
<polygon points="334,35 339,30 347,30 347,40 339,40 334,35 " style="fill:#d84a15; stroke-width:1; stroke:black; " description="&lt;b&gt;cds33232_34657&lt;/b&gt;&lt;br&gt;sn-glycerol-3-phosphate-binding periplasmic protein UgpB&lt;br&gt;Location: 33232 - 34657" locus_tag="cds33232_34657" class="clusterblast-orf" id="dummy-1_q12_0_all"  />
<polygon points="350,40 356,40 361,35 356,30 350,30 350,40 " style="fill:#27d815; stroke-width:1; stroke:black; " description="&lt;b&gt;cds34927_36169&lt;/b&gt;&lt;br&gt;Flavin-dependent monooxygenase, oxygenase subunit HsaA&lt;br&gt;Location: 34927 - 36169" locus_tag="cds34927_36169" class="clusterblast-orf" id="dummy-1_q13_0_all"  />
<polygon points="362,40 370,40 375,35 370,30 362,30 362,40 " style="fill:#156ed8; stroke-width:1; stroke:black; " description="&lt;b&gt;cds36277_37717&lt;/b&gt;&lt;br&gt;hypothetical protein&lt;br&gt;Location: 36277 - 37717" locus_tag="cds36277_37717" class="clusterblast-orf" id="dummy-1_q14_0_all"  />
<polygon points="375,40 396,40 401,35 396,30 375,30 375,40 " style="fill:white; stroke-width:1; stroke:black; " description="&lt;b&gt;cds37748_40562&lt;/b&gt;&lt;br&gt;Dimodular nonribosomal peptide synthase&lt;br&gt;Location: 37748 - 40562" locus_tag="cds37748_40562" class="clusterblast-orf" id="dummy-1_q15_0_all"  />
<polygon points="402,40 412,40 417,35 412,30 402,30 402,40 " style="fill:#c715d8; stroke-width:1; stroke:black; " description="&lt;b&gt;cds40635_42261&lt;/b&gt;&lt;br&gt;MIO-dependent tyrosine 2,3-aminomutase&lt;br&gt;Location: 40635 - 42261" locus_tag="cds40635_42261" class="clusterblast-orf" id="dummy-1_q16_0_all"  />
<polygon points="418,40 425,40 430,35 425,30 418,30 418,40 " style="fill:#d88015; stroke-width:1; stroke:black; " description="&lt;b&gt;cds42368_43712&lt;/b&gt;&lt;br&gt;Linear gramicidin synthase subunit B&lt;br&gt;Location: 42368 - 43712" locus_tag="cds42368_43712" class="clusterblast-orf" id="dummy-1_q17_0_all"  />
<polygon points="431,35 436,30 445,30 445,40 436,40 431,35 " style="fill:#15d839; stroke-width:1; stroke:black; " description="&lt;b&gt;cds43769_45353&lt;/b&gt;&lt;br&gt;4-nitrophenol 2-monooxygenase, oxygenase component&lt;br&gt;Location: 43769 - 45353" locus_tag="cds43769_45353" class="clusterblast-orf" id="dummy-1_q18_0_all"  />
<polygon points="447,40 453,40 458,35 453,30 447,30 447,40 " style="fill:#1539d8; stroke-width:1; stroke:black; " description="&lt;b&gt;cds45596_46781&lt;/b&gt;&lt;br&gt;Flavin-dependent monooxygenase, oxygenase subunit HsaA&lt;br&gt;Location: 45596 - 46781" locus_tag="cds45596_46781" class="clusterblast-orf" id="dummy-1_q19_0_all"  />
<polygon points="459,40 463,35 459,30 459,40 " style="fill:#d815b5; stroke-width:1; stroke:black; " description="&lt;b&gt;cds46844_47279&lt;/b&gt;&lt;br&gt;hypothetical protein&lt;br&gt;Location: 46844 - 47279" locus_tag="cds46844_47279" class="clusterblast-orf" id="dummy-1_q20_0_all"  />
<polygon points="464,35 469,30 475,30 475,40 469,40 464,35 " style="fill:#d8b515; stroke-width:1; stroke:black; " description="&lt;b&gt;cds47364_48612&lt;/b&gt;&lt;br&gt;2-hydroxy-5-methyl-1-naphthoate 7-hydroxylase&lt;br&gt;Location: 47364 - 48612" locus_tag="cds47364_48612" class="clusterblast-orf" id="dummy-1_q21_0_all"  />
<polygon points="476,35 481,30 484,30 484,40 481,40 476,35 " style="fill:white; stroke-width:1; stroke:black; " description="&lt;b&gt;cds48705_49569&lt;/b&gt;&lt;br&gt;hypothetical protein&lt;br&gt;Location: 48705 - 49569" locus_tag="cds48705_49569" class="clusterblast-orf" id="dummy-1_q22_0_all"  />
<polygon points="484,35 487,30 487,40 484,35 " style="fill:#15d86e; stroke-width:1; stroke:black; " description="&lt;b&gt;cds49631_49904&lt;/b&gt;&lt;br&gt;hypothetical protein&lt;br&gt;Location: 49631 - 49904" locus_tag="cds49631_49904" class="clusterblast-orf" id="dummy-1_q23_0_all"  />
<polygon points="488,35 493,30 496,30 496,40 493,40 488,35 " style="fill:#2715d8; stroke-width:1; stroke:black; " description="&lt;b&gt;cds50037_50910&lt;/b&gt;&lt;br&gt;Glucose-1-phosphate thymidylyltransferase 1&lt;br&gt;Location: 50037 - 50910" locus_tag="cds50037_50910" class="clusterblast-orf" id="dummy-1_q24_0_all"  />
<polygon points="497,35 502,30 508,30 508,40 502,40 497,35 " style="fill:#d81580; stroke-width:1; stroke:black; " description="&lt;b&gt;cds50964_52185&lt;/b&gt;&lt;br&gt;hypothetical protein&lt;br&gt;Location: 50964 - 52185" locus_tag="cds50964_52185" class="clusterblast-orf" id="dummy-1_q25_0_all"  />
<polygon points="509,35 514,30 521,30 521,40 514,40 509,35 " style="fill:#c7d815; stroke-width:1; stroke:black; " description="&lt;b&gt;cds52342_53581&lt;/b&gt;&lt;br&gt;hypothetical protein&lt;br&gt;Location: 52342 - 53581" locus_tag="cds52342_53581" class="clusterblast-orf" id="dummy-1_q26_0_all"  />
<polygon points="521,35 526,30 533,30 533,40 526,40 521,35 " style="fill:#15d8a3; stroke-width:1; stroke:black; " description="&lt;b&gt;cds53600_54893&lt;/b&gt;&lt;br&gt;Aclacinomycin-T 2-deoxy-L-fucose transferase&lt;br&gt;Location: 53600 - 54893" locus_tag="cds53600_54893" class="clusterblast-orf" id="dummy-1_q27_0_all"  />
<polygon points="533,35 538,30 544,30 544,40 538,40 533,35 " style="fill:#5c15d8; stroke-width:1; stroke:black; " description="&lt;b&gt;cds54963_56073&lt;/b&gt;&lt;br&gt;dTDP-3-amino-3,4,6-trideoxy-alpha-D-glucose transaminase&lt;br&gt;Location: 54963 - 56073" locus_tag="cds54963_56073" class="clusterblast-orf" id="dummy-1_q28_0_all"  />
<polygon points="545,35 550,30 558,30 558,40 550,40 545,35 " style="fill:#d8154a; stroke-width:1; stroke:black; " description="&lt;b&gt;cds56275_57670&lt;/b&gt;&lt;br&gt;dTDP-4-dehydro-6-deoxy-alpha-D-glucopyranose 2,3-dehydratase&lt;br&gt;Location: 56275 - 57670" locus_tag="cds56275_57670" class="clusterblast-orf" id="dummy-1_q29_0_all"  />
<polygon points="561,40 565,40 570,35 565,30 561,30 561,40 " style="fill:#91d815; stroke-width:1; stroke:black; " description="&lt;b&gt;cds57984_58992&lt;/b&gt;&lt;br&gt;dTDP-glucose 4,6-dehydratase&lt;br&gt;Location: 57984 - 58992" locus_tag="cds57984_58992" class="clusterblast-orf" id="dummy-1_q30_0_all"  />
<polygon points="571,35 576,30 584,30 584,40 576,40 571,35 " style="fill:#15d8d8; stroke-width:1; stroke:black; " description="&lt;b&gt;cds59038_60466&lt;/b&gt;&lt;br&gt;UDP-N-acetyl-D-glucosamine 6-dehydrogenase&lt;br&gt;Location: 59038 - 60466" locus_tag="cds59038_60466" class="clusterblast-orf" id="dummy-1_q31_0_all"  />
</g>
<g label="BGC0000965" description="BGC0000965_c1: C-1027 (13% of genes show similarity), Polyketide:Iterative type I + Polyketide:Enediyne type I" class="clusterblast-cluster"  >
<text x="5" y="70" class="clusterblast-acc"  >
<a xlink:href="https://mibig.secondarymetabolites.org/go/BGC0000965/1" target="_blank">BGC0000965</a>:                                                                           C-1027 (13% of genes show similarity), Polyketide:Iterative type I + Polyketide:Enediyne type I</text>
<line x1="10" y1="85" x2="778.0" y2="85" style="stroke-width:1; stroke:grey; "  />
</g>
<g id="a1_000"  >
<polygon points="0,90 9,90 14,85 9,80 0,80 0,90 " style="fill:white; stroke-width:1; stroke:black; " description="&lt;b&gt;AAL06713.1&lt;/b&gt;&lt;br&gt;putative primase/helicase-like protein&lt;br&gt;Location: 85045 - 83510" locus_tag="AAL06713.1" class="clusterblast-orf" id="dummy-1_h1_5_0"  />
</g>
<g id="a1_001"  >
<polygon points="14,90 17,85 14,80 14,90 " style="fill:white; stroke-width:1; stroke:black; " description="&lt;b&gt;AAL06712.1&lt;/b&gt;&lt;br&gt;unknown&lt;br&gt;Location: 83513 - 83115" locus_tag="AAL06712.1" class="clusterblast-orf" id="dummy-1_h1_5_1"  />
</g>
<g id="a1_002"  >
<polygon points="17,85 22,80 24,80 24,90 22,90 17,85 " style="fill:#d81515; stroke-width:1; stroke:black; " description="&lt;b&gt;AAL06711.1&lt;/b&gt;&lt;br&gt;hypothetical protein&lt;br&gt;Location: 83091 - 82408&lt;br&gt;&lt;br&gt;&lt;b&gt;BlastP hit with cds18113_18665&lt;/b&gt;&lt;br&gt;Percentage identity: 58&lt;br&gt;Percentage coverage: 96&lt;br&gt;BLAST bit score: 191&lt;br&gt;E-value: 1.5e-48" locus_tag="AAL06711.1" class="clusterblast-orf" id="dummy-1_h1_5_2"  />
</g>
<g id="a1_003"  >
<polygon points="24,90 24,90 29,85 24,80 24,80 24,90 " style="fill:white; stroke-width:1; stroke:black; " description="&lt;b&gt;AAL06710.1&lt;/b&gt;&lt;br&gt;hypothetical protein&lt;br&gt;Location: 82351 - 81881" locus_tag="AAL06710.1" class="clusterblast-orf" id="dummy-1_h1_5_3"  />
</g>
<g id="a1_004"  >
<polygon points="29,90 33,85 29,80 29,90 " style="fill:white; stroke-width:1; stroke:black; " description="&lt;b&gt;AAL06709.1&lt;/b&gt;&lt;br&gt;unknown&lt;br&gt;Location: 81855 - 81442" locus_tag="AAL06709.1" class="clusterblast-orf" id="dummy-1_h1_5_4"  />
</g>
<g id="a1_005"  >
<polygon points="32,85 37,80 45,80 45,90 37,90 32,85 " style="fill:white; stroke-width:1; stroke:black; " description="&lt;b&gt;AAL06708.1&lt;/b&gt;&lt;br&gt;putative primase/helicase&lt;br&gt;Location: 81484 - 80060" locus_tag="AAL06708.1" class="clusterblast-orf" id="dummy-1_h1_5_5"  />
</g>
<g id="a1_006"  >
<polygon points="57,90 63,90 68,85 63,80 57,80 57,90 " style="fill:white; stroke-width:1; stroke:black; " description="&lt;b&gt;AAL06707.1&lt;/b&gt;&lt;br&gt;TylR regulatory protein-like protein&lt;br&gt;Location: 78769 - 77582" locus_tag="AAL06707.1" class="clusterblast-orf" id="dummy-1_h1_5_6"  />
</g>
<g id="a1_007"  >
<polygon points="69,85 73,80 73,90 69,85 " style="fill:white; stroke-width:1; stroke:black; " description="&lt;b&gt;AAL06706.1&lt;/b&gt;&lt;br&gt;hypothetical protein&lt;br&gt;Location: 77492 - 77031" locus_tag="AAL06706.1" class="clusterblast-orf" id="dummy-1_h1_5_7"  />
</g>
<g id="a1_008"  >
<polygon points="73,85 78,80 79,80 79,90 78,90 73,85 " style="fill:white; stroke-width:1; stroke:black; " description="&lt;b&gt;AAL06705.1&lt;/b&gt;&lt;br&gt;hypothetical protein&lt;br&gt;Location: 77026 - 76421" locus_tag="AAL06705.1" class="clusterblast-orf" id="dummy-1_h1_5_8"  />
</g>
<g id="a1_009"  >
<polygon points="80,90 84,85 80,80 80,90 " style="fill:white; stroke-width:1; stroke:black; " description="&lt;b&gt;AAL06704.1&lt;/b&gt;&lt;br&gt;hypothetical protein&lt;br&gt;Location: 76316 - 75873" locus_tag="AAL06704.1" class="clusterblast-orf" id="dummy-1_h1_5_9"  />
</g>
<g id="a1_0010"  >
<polygon points="85,90 87,90 92,85 87,80 85,80 85,90 " style="fill:white; stroke-width:1; stroke:black; " description="&lt;b&gt;AAL06703.1&lt;/b&gt;&lt;br&gt;hypothetical protein&lt;br&gt;Location: 75688 - 74942" locus_tag="AAL06703.1" class="clusterblast-orf" id="dummy-1_h1_5_10"  />
</g>
<g id="a1_0011"  >
<polygon points="95,90 99,90 104,85 99,80 95,80 95,90 " style="fill:white; stroke-width:1; stroke:black; " description="&lt;b&gt;AAL06702.1&lt;/b&gt;&lt;br&gt;hypothetical protein&lt;br&gt;Location: 74611 - 73625" locus_tag="AAL06702.1" class="clusterblast-orf" id="dummy-1_h1_5_11"  />
</g>
<g id="a1_0012"  >
<polygon points="104,90 117,90 122,85 117,80 104,80 104,90 " style="fill:white; stroke-width:1; stroke:black; " description="&lt;b&gt;AAL06701.1&lt;/b&gt;&lt;br&gt;Unknown&lt;br&gt;Location: 73628 - 71700" locus_tag="AAL06701.1" class="clusterblast-orf" id="dummy-1_h1_5_12"  />
</g>
<g id="a1_0013"  >
<polygon points="122,90 127,90 132,85 127,80 122,80 122,90 " style="fill:white; stroke-width:1; stroke:black; " description="&lt;b&gt;AAL06700.1&lt;/b&gt;&lt;br&gt;Unknown&lt;br&gt;Location: 71703 - 70573" locus_tag="AAL06700.1" class="clusterblast-orf" id="dummy-1_h1_5_13"  />
</g>
<g id="a1_0014"  >
<polygon points="132,90 181,90 186,85 181,80 132,80 132,90 " style="fill:white; stroke-width:1; stroke:black; " description="&lt;b&gt;AAL06699.1&lt;/b&gt;&lt;br&gt;polyketide synthase&lt;br&gt;Location: 70576 - 64757" locus_tag="AAL06699.1" class="clusterblast-orf" id="dummy-1_h1_5_14"  />
</g>
<g id="a1_0015"  >
<polygon points="186,90 186,90 191,85 186,80 186,80 186,90 " style="fill:white; stroke-width:1; stroke:black; " description="&lt;b&gt;AAL06698.1&lt;/b&gt;&lt;br&gt;oxidoreductase&lt;br&gt;Location: 64676 - 64128" locus_tag="AAL06698.1" class="clusterblast-orf" id="dummy-1_h1_5_15"  />
</g>
<g id="a1_0016"  >
<polygon points="191,90 199,90 204,85 199,80 191,80 191,90 " style="fill:white; stroke-width:1; stroke:black; " description="&lt;b&gt;AAL06697.1&lt;/b&gt;&lt;br&gt;P450 hydroxylase&lt;br&gt;Location: 64131 - 62782" locus_tag="AAL06697.1" class="clusterblast-orf" id="dummy-1_h1_5_16"  />
</g>
<g id="a1_0017"  >
<polygon points="203,85 208,80 211,80 211,90 208,90 203,85 " style="fill:white; stroke-width:1; stroke:black; " description="&lt;b&gt;AAL06696.1&lt;/b&gt;&lt;br&gt;putative regulatory protein&lt;br&gt;Location: 62894 - 62040" locus_tag="AAL06696.1" class="clusterblast-orf" id="dummy-1_h1_5_17"  />
</g>
<g id="a1_0018"  >
<polygon points="211,85 216,80 221,80 221,90 216,90 211,85 " style="fill:white; stroke-width:1; stroke:black; " description="&lt;b&gt;AAL06695.1&lt;/b&gt;&lt;br&gt;regulatory protein&lt;br&gt;Location: 62014 - 60935" locus_tag="AAL06695.1" class="clusterblast-orf" id="dummy-1_h1_5_18"  />
</g>
<g id="a1_0019"  >
<polygon points="223,90 223,90 228,85 223,80 223,80 223,90 " style="fill:white; stroke-width:1; stroke:black; " description="&lt;b&gt;AAL06694.1&lt;/b&gt;&lt;br&gt;putative regulatory protein&lt;br&gt;Location: 60677 - 60087" locus_tag="AAL06694.1" class="clusterblast-orf" id="dummy-1_h1_5_19"  />
</g>
<g id="a1_0020"  >
<polygon points="228,90 239,90 244,85 239,80 228,80 228,90 " style="fill:white; stroke-width:1; stroke:black; " description="&lt;b&gt;AAL06693.1&lt;/b&gt;&lt;br&gt;oxidoreductase&lt;br&gt;Location: 60090 - 58435" locus_tag="AAL06693.1" class="clusterblast-orf" id="dummy-1_h1_5_20"  />
</g>
<g id="a1_0021"  >
<polygon points="245,90 249,85 245,80 245,90 " style="fill:white; stroke-width:1; stroke:black; " description="&lt;b&gt;AAL06692.1&lt;/b&gt;&lt;br&gt;thioesterase&lt;br&gt;Location: 58298 - 57828" locus_tag="AAL06692.1" class="clusterblast-orf" id="dummy-1_h1_5_21"  />
</g>
<g id="a1_0022"  >
<polygon points="250,90 252,90 257,85 252,80 250,80 250,90 " style="fill:white; stroke-width:1; stroke:black; " description="&lt;b&gt;AAL06691.1&lt;/b&gt;&lt;br&gt;Unknown&lt;br&gt;Location: 57725 - 56922" locus_tag="AAL06691.1" class="clusterblast-orf" id="dummy-1_h1_5_22"  />
</g>
<g id="a1_0023"  >
<polygon points="258,85 263,80 266,80 266,90 263,90 258,85 " style="fill:white; stroke-width:1; stroke:black; " description="&lt;b&gt;AAL06690.1&lt;/b&gt;&lt;br&gt;putative oxidase&lt;br&gt;Location: 56875 - 56021" locus_tag="AAL06690.1" class="clusterblast-orf" id="dummy-1_h1_5_23"  />
</g>
<g id="a1_0024"  >
<polygon points="272,85 277,80 282,80 282,90 277,90 272,85 " style="fill:white; stroke-width:1; stroke:black; " description="&lt;b&gt;AAL06689.1&lt;/b&gt;&lt;br&gt;Regulator&lt;br&gt;Location: 55374 - 54226" locus_tag="AAL06689.1" class="clusterblast-orf" id="dummy-1_h1_5_24"  />
</g>
<g id="a1_0025"  >
<polygon points="284,85 289,80 291,80 291,90 289,90 284,85 " style="fill:white; stroke-width:1; stroke:black; " description="&lt;b&gt;AAL06688.1&lt;/b&gt;&lt;br&gt;Unknown&lt;br&gt;Location: 54069 - 53212" locus_tag="AAL06688.1" class="clusterblast-orf" id="dummy-1_h1_5_25"  />
</g>
<g id="a1_0026"  >
<polygon points="300,90 303,90 308,85 303,80 300,80 300,90 " style="fill:#5cd815; stroke-width:1; stroke:black; " description="&lt;b&gt;AAL06687.1&lt;/b&gt;&lt;br&gt;oxidoreductase&lt;br&gt;Location: 52336 - 51416&lt;br&gt;&lt;br&gt;&lt;b&gt;BlastP hit with cds18714_19635&lt;/b&gt;&lt;br&gt;Percentage identity: 74&lt;br&gt;Percentage coverage: 100&lt;br&gt;BLAST bit score: 435&lt;br&gt;E-value: 9.8e-122" locus_tag="AAL06687.1" class="clusterblast-orf" id="dummy-1_h1_5_26"  />
</g>
<g id="a1_0027"  >
<polygon points="308,85 313,80 318,80 318,90 313,90 308,85 " style="fill:white; stroke-width:1; stroke:black; " description="&lt;b&gt;AAL06686.1&lt;/b&gt;&lt;br&gt;Unknown&lt;br&gt;Location: 51385 - 50345" locus_tag="AAL06686.1" class="clusterblast-orf" id="dummy-1_h1_5_27"  />
</g>
<g id="a1_0028"  >
<polygon points="324,90 329,90 334,85 329,80 324,80 324,90 " style="fill:#1539d8; stroke-width:1; stroke:black; " description="&lt;b&gt;AAL06685.1&lt;/b&gt;&lt;br&gt;oxidoreductase&lt;br&gt;Location: 49709 - 48603&lt;br&gt;&lt;br&gt;&lt;b&gt;BlastP hit with cds45596_46781&lt;/b&gt;&lt;br&gt;Percentage identity: 67&lt;br&gt;Percentage coverage: 91&lt;br&gt;BLAST bit score: 482&lt;br&gt;E-value: 5.3e-136" locus_tag="AAL06685.1" class="clusterblast-orf" id="dummy-1_h1_5_28"  />
</g>
<g id="a1_0029"  >
<polygon points="335,85 340,80 346,80 346,90 340,90 335,85 " style="fill:white; stroke-width:1; stroke:black; " description="&lt;b&gt;AAL06684.1&lt;/b&gt;&lt;br&gt;P450 hydroxylase&lt;br&gt;Location: 48479 - 47223" locus_tag="AAL06684.1" class="clusterblast-orf" id="dummy-1_h1_5_29"  />
</g>
<g id="a1_0030"  >
<polygon points="347,85 352,80 356,80 356,90 352,90 347,85 " style="fill:white; stroke-width:1; stroke:black; " description="&lt;b&gt;AAL06683.1&lt;/b&gt;&lt;br&gt;O-methyltransferase&lt;br&gt;Location: 47166 - 46162" locus_tag="AAL06683.1" class="clusterblast-orf" id="dummy-1_h1_5_30"  />
</g>
<g id="a1_0031"  >
<polygon points="357,85 362,80 377,80 377,90 362,90 357,85 " style="fill:white; stroke-width:1; stroke:black; " description="&lt;b&gt;AAL06682.1&lt;/b&gt;&lt;br&gt;antibiotic transporter&lt;br&gt;Location: 46018 - 43940" locus_tag="AAL06682.1" class="clusterblast-orf" id="dummy-1_h1_5_31"  />
</g>
<g id="a1_0032"  >
<polygon points="379,90 398,90 403,85 398,80 379,80 379,90 " style="fill:white; stroke-width:1; stroke:black; " description="&lt;b&gt;AAL06681.1&lt;/b&gt;&lt;br&gt;A-domain type II peptide synthetase&lt;br&gt;Location: 43692 - 41047" locus_tag="AAL06681.1" class="clusterblast-orf" id="dummy-1_h1_5_32"  />
</g>
<g id="a1_0033"  >
<polygon points="404,90 414,90 419,85 414,80 404,80 404,90 " style="fill:#c715d8; stroke-width:1; stroke:black; " description="&lt;b&gt;AAL06680.1&lt;/b&gt;&lt;br&gt;putative ammonia lyase/transferase&lt;br&gt;Location: 40981 - 39362&lt;br&gt;&lt;br&gt;&lt;b&gt;BlastP hit with cds40635_42261&lt;/b&gt;&lt;br&gt;Percentage identity: 76&lt;br&gt;Percentage coverage: 97&lt;br&gt;BLAST bit score: 772&lt;br&gt;E-value: 3.5e-223" locus_tag="AAL06680.1" class="clusterblast-orf" id="dummy-1_h1_5_33"  />
</g>
<g id="a1_0034"  >
<polygon points="419,85 422,80 422,90 419,85 " style="fill:white; stroke-width:1; stroke:black; " description="&lt;b&gt;AAL06679.1&lt;/b&gt;&lt;br&gt;type II PCP&lt;br&gt;Location: 39259 - 38978" locus_tag="AAL06679.1" class="clusterblast-orf" id="dummy-1_h1_5_34"  />
</g>
<g id="a1_0035"  >
<polygon points="422,85 427,80 435,80 435,90 427,90 422,85 " style="fill:#d88015; stroke-width:1; stroke:black; " description="&lt;b&gt;AAL06678.1&lt;/b&gt;&lt;br&gt;C-domain type II peptide synthetase&lt;br&gt;Location: 38933 - 37554&lt;br&gt;&lt;br&gt;&lt;b&gt;BlastP hit with cds42368_43712&lt;/b&gt;&lt;br&gt;Percentage identity: 52&lt;br&gt;Percentage coverage: 99&lt;br&gt;BLAST bit score: 436&lt;br&gt;E-value: 3.8e-122" locus_tag="AAL06678.1" class="clusterblast-orf" id="dummy-1_h1_5_35"  />
</g>
<g id="a1_0036"  >
<polygon points="436,85 441,80 448,80 448,90 441,90 436,85 " style="fill:white; stroke-width:1; stroke:black; " description="&lt;b&gt;AAL06677.1&lt;/b&gt;&lt;br&gt;citrate/shikimate transporter&lt;br&gt;Location: 37485 - 36160" locus_tag="AAL06677.1" class="clusterblast-orf" id="dummy-1_h1_5_36"  />
</g>
<g id="a1_0037"  >
<polygon points="450,90 454,85 450,80 450,90 " style="fill:#d815b5; stroke-width:1; stroke:black; " description="&lt;b&gt;AAL06676.1&lt;/b&gt;&lt;br&gt;Unknown&lt;br&gt;Location: 35933 - 35511&lt;br&gt;&lt;br&gt;&lt;b&gt;BlastP hit with cds46844_47279&lt;/b&gt;&lt;br&gt;Percentage identity: 55&lt;br&gt;Percentage coverage: 94&lt;br&gt;BLAST bit score: 151&lt;br&gt;E-value: 7.8e-37" locus_tag="AAL06676.1" class="clusterblast-orf" id="dummy-1_h1_5_37"  />
</g>
<g id="a1_0038"  >
<polygon points="456,90 459,90 464,85 459,80 456,80 456,90 " style="fill:white; stroke-width:1; stroke:black; " description="&lt;b&gt;AAL06675.1&lt;/b&gt;&lt;br&gt;haloacetate dehalogenase&lt;br&gt;Location: 35289 - 34453" locus_tag="AAL06675.1" class="clusterblast-orf" id="dummy-1_h1_5_38"  />
</g>
<g id="a1_0039"  >
<polygon points="464,85 469,80 479,80 479,90 469,90 464,85 " style="fill:#15d839; stroke-width:1; stroke:black; " description="&lt;b&gt;AAL06674.1&lt;/b&gt;&lt;br&gt;chlorophenol-4-monooxygenase&lt;br&gt;Location: 34387 - 32804&lt;br&gt;&lt;br&gt;&lt;b&gt;BlastP hit with cds43769_45353&lt;/b&gt;&lt;br&gt;Percentage identity: 75&lt;br&gt;Percentage coverage: 100&lt;br&gt;BLAST bit score: 839&lt;br&gt;E-value: 3e-243" locus_tag="AAL06674.1" class="clusterblast-orf" id="dummy-1_h1_5_39"  />
</g>
<g id="a1_0040"  >
<polygon points="481,85 486,80 493,80 493,90 486,90 481,85 " style="fill:white; stroke-width:1; stroke:black; " description="&lt;b&gt;AAL06673.1&lt;/b&gt;&lt;br&gt;coenzyme F390 synthase-like protein&lt;br&gt;Location: 32585 - 31275" locus_tag="AAL06673.1" class="clusterblast-orf" id="dummy-1_h1_5_40"  />
</g>
<g id="a1_0041"  >
<polygon points="493,85 498,80 508,80 508,90 498,90 493,85 " style="fill:white; stroke-width:1; stroke:black; " description="&lt;b&gt;AAL06672.1&lt;/b&gt;&lt;br&gt;transmembrane efflux protein&lt;br&gt;Location: 31192 - 29627" locus_tag="AAL06672.1" class="clusterblast-orf" id="dummy-1_h1_5_41"  />
</g>
<g id="a1_0042"  >
<polygon points="508,85 513,80 517,80 517,90 513,90 508,85 " style="fill:white; stroke-width:1; stroke:black; " description="&lt;b&gt;AAL06671.1&lt;/b&gt;&lt;br&gt;dNTP-glucose dehydratase&lt;br&gt;Location: 29583 - 28585" locus_tag="AAL06671.1" class="clusterblast-orf" id="dummy-1_h1_5_42"  />
</g>
<g id="a1_0043"  >
<polygon points="517,85 522,80 530,80 530,90 522,90 517,85 " style="fill:white; stroke-width:1; stroke:black; " description="&lt;b&gt;AAL06670.1&lt;/b&gt;&lt;br&gt;glycosyl transferase&lt;br&gt;Location: 28588 - 27209" locus_tag="AAL06670.1" class="clusterblast-orf" id="dummy-1_h1_5_43"  />
</g>
<g id="a1_0044"  >
<polygon points="530,85 535,80 543,80 543,90 535,90 530,85 " style="fill:#156ed8; stroke-width:1; stroke:black; " description="&lt;b&gt;AAL06669.1&lt;/b&gt;&lt;br&gt;squalene monooxygenase-like protein&lt;br&gt;Location: 27165 - 25810&lt;br&gt;&lt;br&gt;&lt;b&gt;BlastP hit with cds36277_37717&lt;/b&gt;&lt;br&gt;Percentage identity: 51&lt;br&gt;Percentage coverage: 91&lt;br&gt;BLAST bit score: 457&lt;br&gt;E-value: 2.2e-128" locus_tag="AAL06669.1" class="clusterblast-orf" id="dummy-1_h1_5_44"  />
</g>
<g id="a1_0045"  >
<polygon points="545,90 545,90 550,85 545,80 545,80 545,90 " style="fill:white; stroke-width:1; stroke:black; " description="&lt;b&gt;AAL06668.1&lt;/b&gt;&lt;br&gt;dNTP-4-keto-6-deoxyglucose epimerase&lt;br&gt;Location: 25559 - 24981" locus_tag="AAL06668.1" class="clusterblast-orf" id="dummy-1_h1_5_45"  />
</g>
<g id="a1_0046"  >
<polygon points="553,90 558,90 563,85 558,80 553,80 553,90 " style="fill:white; stroke-width:1; stroke:black; " description="&lt;b&gt;AAL06667.1&lt;/b&gt;&lt;br&gt;3-O-acyltransferase&lt;br&gt;Location: 24697 - 23561" locus_tag="AAL06667.1" class="clusterblast-orf" id="dummy-1_h1_5_46"  />
</g>
<g id="a1_0047"  >
<polygon points="564,90 565,90 570,85 565,80 564,80 564,90 " style="fill:white; stroke-width:1; stroke:black; " description="&lt;b&gt;AAL06666.1&lt;/b&gt;&lt;br&gt;hypothetical Fe-S flavoprotein&lt;br&gt;Location: 23541 - 22870" locus_tag="AAL06666.1" class="clusterblast-orf" id="dummy-1_h1_5_47"  />
</g>
<g id="a1_0048"  >
<polygon points="570,90 578,90 583,85 578,80 570,80 570,90 " style="fill:white; stroke-width:1; stroke:black; " description="&lt;b&gt;AAL06665.1&lt;/b&gt;&lt;br&gt;putative phenylacetyl CoA ligase&lt;br&gt;Location: 22873 - 21419" locus_tag="AAL06665.1" class="clusterblast-orf" id="dummy-1_h1_5_48"  />
</g>
<g id="a1_0049"  >
<polygon points="583,90 592,90 597,85 592,80 583,80 583,90 " style="fill:white; stroke-width:1; stroke:black; " description="&lt;b&gt;AAL06664.1&lt;/b&gt;&lt;br&gt;anthranilate synthase I&lt;br&gt;Location: 21402 - 19921" locus_tag="AAL06664.1" class="clusterblast-orf" id="dummy-1_h1_5_49"  />
</g>
<g id="a1_0050"  >
<polygon points="597,90 598,90 603,85 598,80 597,80 597,90 " style="fill:white; stroke-width:1; stroke:black; " description="&lt;b&gt;AAL06663.1&lt;/b&gt;&lt;br&gt;anthranilate synthase II&lt;br&gt;Location: 19924 - 19262" locus_tag="AAL06663.1" class="clusterblast-orf" id="dummy-1_h1_5_50"  />
</g>
<g id="a1_0051"  >
<polygon points="604,90 609,90 614,85 609,80 604,80 604,90 " style="fill:white; stroke-width:1; stroke:black; " description="&lt;b&gt;AAL06662.1&lt;/b&gt;&lt;br&gt;epoxide hydrolase&lt;br&gt;Location: 19188 - 18031" locus_tag="AAL06662.1" class="clusterblast-orf" id="dummy-1_h1_5_51"  />
</g>
<g id="a1_0052"  >
<polygon points="615,90 622,90 627,85 622,80 615,80 615,90 " style="fill:white; stroke-width:1; stroke:black; " description="&lt;b&gt;AAL06661.1&lt;/b&gt;&lt;br&gt;C-methyl transferase&lt;br&gt;Location: 17924 - 16653" locus_tag="AAL06661.1" class="clusterblast-orf" id="dummy-1_h1_5_52"  />
</g>
<g id="a1_0053"  >
<polygon points="627,90 629,90 634,85 629,80 627,80 627,90 " style="fill:white; stroke-width:1; stroke:black; " description="&lt;b&gt;AAL06660.1&lt;/b&gt;&lt;br&gt;N-methyl transferase&lt;br&gt;Location: 16653 - 15919" locus_tag="AAL06660.1" class="clusterblast-orf" id="dummy-1_h1_5_53"  />
</g>
<g id="a1_0054"  >
<polygon points="634,90 640,90 645,85 640,80 634,80 634,90 " style="fill:white; stroke-width:1; stroke:black; " description="&lt;b&gt;AAL06659.1&lt;/b&gt;&lt;br&gt;amino transferase&lt;br&gt;Location: 15922 - 14690" locus_tag="AAL06659.1" class="clusterblast-orf" id="dummy-1_h1_5_54"  />
</g>
<g id="a1_0055"  >
<polygon points="645,90 649,85 645,80 645,90 " style="fill:white; stroke-width:1; stroke:black; " description="&lt;b&gt;AAL06658.1&lt;/b&gt;&lt;br&gt;C-1027 apoprotein&lt;br&gt;Location: 14643 - 14212" locus_tag="AAL06658.1" class="clusterblast-orf" id="dummy-1_h1_5_55"  />
</g>
<g id="a1_0056"  >
<polygon points="650,85 655,80 660,80 660,90 655,90 650,85 " style="fill:white; stroke-width:1; stroke:black; " description="&lt;b&gt;AAL06657.1&lt;/b&gt;&lt;br&gt;dNTP-glucose synthase&lt;br&gt;Location: 14079 - 13012" locus_tag="AAL06657.1" class="clusterblast-orf" id="dummy-1_h1_5_56"  />
</g>
<g id="a1_0057"  >
<polygon points="662,90 670,90 675,85 670,80 662,80 662,90 " style="fill:white; stroke-width:1; stroke:black; " description="&lt;b&gt;AAL06656.1&lt;/b&gt;&lt;br&gt;alkylhalidase&lt;br&gt;Location: 12835 - 11351" locus_tag="AAL06656.1" class="clusterblast-orf" id="dummy-1_h1_5_57"  />
</g>
<g id="a1_0058"  >
<polygon points="675,90 683,90 688,85 683,80 675,80 675,90 " style="fill:white; stroke-width:1; stroke:black; " description="&lt;b&gt;AAL06655.1&lt;/b&gt;&lt;br&gt;Na/H efflux pump&lt;br&gt;Location: 11349 - 9982" locus_tag="AAL06655.1" class="clusterblast-orf" id="dummy-1_h1_5_58"  />
</g>
<g id="a1_0059"  >
<polygon points="689,90 705,90 710,85 705,80 689,80 689,90 " style="fill:white; stroke-width:1; stroke:black; " description="&lt;b&gt;AAL06654.1&lt;/b&gt;&lt;br&gt;UvrA-like drug resistance pump&lt;br&gt;Location: 9927 - 7573" locus_tag="AAL06654.1" class="clusterblast-orf" id="dummy-1_h1_5_59"  />
</g>
<g id="a1_0060"  >
<polygon points="711,85 716,80 725,80 725,90 716,90 711,85 " style="fill:#d84a15; stroke-width:1; stroke:black; " description="&lt;b&gt;AAL06653.1&lt;/b&gt;&lt;br&gt;glycerol phosphate ABC transporter&lt;br&gt;Location: 7478 - 5982&lt;br&gt;&lt;br&gt;&lt;b&gt;BlastP hit with cds33232_34657&lt;/b&gt;&lt;br&gt;Percentage identity: 49&lt;br&gt;Percentage coverage: 90&lt;br&gt;BLAST bit score: 419&lt;br&gt;E-value: 8.7e-117" locus_tag="AAL06653.1" class="clusterblast-orf" id="dummy-1_h1_5_60"  />
</g>
<g id="a1_0061"  >
<polygon points="734,90 743,90 748,85 743,80 734,80 734,90 " style="fill:white; stroke-width:1; stroke:black; " description="&lt;b&gt;AAL06652.1&lt;/b&gt;&lt;br&gt;putative primase&lt;br&gt;Location: 4971 - 3442" locus_tag="AAL06652.1" class="clusterblast-orf" id="dummy-1_h1_5_61"  />
</g>
<g id="a1_0062"  >
<polygon points="750,90 753,85 750,80 750,90 " style="fill:white; stroke-width:1; stroke:black; " description="&lt;b&gt;AAL06651.1&lt;/b&gt;&lt;br&gt;transcription factor&lt;br&gt;Location: 3237 - 2851" locus_tag="AAL06651.1" class="clusterblast-orf" id="dummy-1_h1_5_62"  />
</g>
<g id="a1_0063"  >
<polygon points="755,90 759,90 764,85 759,80 755,80 755,90 " style="fill:white; stroke-width:1; stroke:black; " description="&lt;b&gt;AAL06650.1&lt;/b&gt;&lt;br&gt;truncated methionine synthase-like protein&lt;br&gt;Location: 2713 - 1649" locus_tag="AAL06650.1" class="clusterblast-orf" id="dummy-1_h1_5_63"  />
</g>
<g id="a1_0064"  >
<polygon points="766,90 766,90 771,85 766,80 766,80 766,90 " style="fill:white; stroke-width:1; stroke:black; " description="&lt;b&gt;AAL06649.1&lt;/b&gt;&lt;br&gt;viral infectivity potentiator-like protein&lt;br&gt;Location: 1478 - 930" locus_tag="AAL06649.1" class="clusterblast-orf" id="dummy-1_h1_5_64"  />
</g>
<g id="a1_0065"  >
<polygon points="774,90 775,90 780,85 775,80 774,80 774,90 " style="fill:white; stroke-width:1; stroke:black; " description="&lt;b&gt;AAL06648.1&lt;/b&gt;&lt;br&gt;hydroxylase-like protein&lt;br&gt;Location: 658 - 8" locus_tag="AAL06648.1" class="clusterblast-orf" id="dummy-1_h1_5_65"  />
</g>
</svg>
