<svg xmlns="http://www.w3.org/2000/svg" xmlns:xlink="http://www.w3.org/1999/xlink" version="1.1" x="0" y="0" height="230" width="800" viewBox="0 0 800 230" preserveAspectRatio="none"  >
<g label="Query sequence" class="clusterblast-cluster"  >
<text x="5" y="20" class="clusterblast-acc"  >
Query sequence</text>
<line x1="10" y1="35" x2="778.0" y2="35" style="stroke-width:1; stroke:grey; "  />
<polygon points="228,40 232,35 228,30 228,40 " style="fill:white; stroke-width:1; stroke:black; " description="&lt;b&gt;cds16785_17406&lt;/b&gt;&lt;br&gt;putative protein YciO&lt;br&gt;Location: 16785 - 17406" locus_tag="cds16785_17406" class="clusterblast-orf" id="dummy-1_q0_0_all"  />
<polygon points="233,40 234,35 233,30 233,40 " style="fill:white; stroke-width:1; stroke:black; " description="&lt;b&gt;cds17518_17710&lt;/b&gt;&lt;br&gt;hypothetical protein&lt;br&gt;Location: 17518 - 17710" locus_tag="cds17518_17710" class="clusterblast-orf" id="dummy-1_q1_0_all"  />
<polygon points="235,40 238,35 235,30 235,40 " style="fill:white; stroke-width:1; stroke:black; " description="&lt;b&gt;cds17886_18276&lt;/b&gt;&lt;br&gt;hypothetical protein&lt;br&gt;Location: 17886 - 18276" locus_tag="cds17886_18276" class="clusterblast-orf" id="dummy-1_q2_0_all"  />
<polygon points="238,35 243,30 244,30 244,40 243,40 238,35 " style="fill:white; stroke-width:1; stroke:black; " description="&lt;b&gt;cds18279_19287&lt;/b&gt;&lt;br&gt;hypothetical protein&lt;br&gt;Location: 18279 - 19287" locus_tag="cds18279_19287" class="clusterblast-orf" id="dummy-1_q3_0_all"  />
<polygon points="245,35 248,30 248,40 245,35 " style="fill:white; stroke-width:1; stroke:black; " description="&lt;b&gt;cds19384_19807&lt;/b&gt;&lt;br&gt;HTH-type transcriptional regulator NmtR&lt;br&gt;Location: 19384 - 19807" locus_tag="cds19384_19807" class="clusterblast-orf" id="dummy-1_q4_0_all"  />
<polygon points="248,40 257,40 262,35 257,30 248,30 248,40 " style="fill:white; stroke-width:1; stroke:black; " description="&lt;b&gt;cds19864_21892&lt;/b&gt;&lt;br&gt;putative cobalt/nickel-exporting P-type ATPase&lt;br&gt;Location: 19864 - 21892" locus_tag="cds19864_21892" class="clusterblast-orf" id="dummy-1_q5_0_all"  />
<polygon points="263,40 267,40 272,35 267,30 263,30 263,40 " style="fill:white; stroke-width:1; stroke:black; " description="&lt;b&gt;cds22036_23491&lt;/b&gt;&lt;br&gt;Arginine/ornithine antiporter&lt;br&gt;Location: 22036 - 23491" locus_tag="cds22036_23491" class="clusterblast-orf" id="dummy-1_q6_0_all"  />
<polygon points="273,40 276,40 281,35 276,30 273,30 273,40 " style="fill:white; stroke-width:1; stroke:black; " description="&lt;b&gt;cds23569_24835&lt;/b&gt;&lt;br&gt;Arginine deiminase&lt;br&gt;Location: 23569 - 24835" locus_tag="cds23569_24835" class="clusterblast-orf" id="dummy-1_q7_0_all"  />
<polygon points="282,35 287,30 288,30 288,40 287,40 282,35 " style="fill:white; stroke-width:1; stroke:black; " description="&lt;b&gt;cds24958_25849&lt;/b&gt;&lt;br&gt;hypothetical protein&lt;br&gt;Location: 24958 - 25849" locus_tag="cds24958_25849" class="clusterblast-orf" id="dummy-1_q8_0_all"  />
<polygon points="288,35 291,30 291,40 288,35 " style="fill:#d81515; stroke-width:1; stroke:black; " description="&lt;b&gt;cds25950_26358&lt;/b&gt;&lt;br&gt;hypothetical protein&lt;br&gt;Location: 25950 - 26358" locus_tag="cds25950_26358" class="clusterblast-orf" id="dummy-1_q9_0_all"  />
<polygon points="292,40 292,40 297,35 292,30 292,30 292,40 " style="fill:#63d815; stroke-width:1; stroke:black; " description="&lt;b&gt;cds26456_27326&lt;/b&gt;&lt;br&gt;Soluble epoxide hydrolase&lt;br&gt;Location: 26456 - 27326" locus_tag="cds26456_27326" class="clusterblast-orf" id="dummy-1_q10_0_all"  />
<polygon points="298,35 303,30 304,30 304,40 303,40 298,35 " style="fill:white; stroke-width:1; stroke:black; " description="&lt;b&gt;cds27380_28340&lt;/b&gt;&lt;br&gt;Acarbose 7(IV)-phosphotransferase&lt;br&gt;Location: 27380 - 28340" locus_tag="cds27380_28340" class="clusterblast-orf" id="dummy-1_q11_0_all"  />
<polygon points="305,35 310,30 314,30 314,40 310,40 305,35 " style="fill:white; stroke-width:1; stroke:black; " description="&lt;b&gt;cds28457_29837&lt;/b&gt;&lt;br&gt;Alpha-amylase&lt;br&gt;Location: 28457 - 29837" locus_tag="cds28457_29837" class="clusterblast-orf" id="dummy-1_q12_0_all"  />
<polygon points="315,35 320,30 320,30 320,40 320,40 315,35 " style="fill:white; stroke-width:1; stroke:black; " description="&lt;b&gt;cds30005_30785&lt;/b&gt;&lt;br&gt;HTH-type transcriptional regulator XynR&lt;br&gt;Location: 30005 - 30785" locus_tag="cds30005_30785" class="clusterblast-orf" id="dummy-1_q13_0_all"  />
<polygon points="322,40 323,40 328,35 323,30 322,30 322,40 " style="fill:#15b1d8; stroke-width:1; stroke:black; " description="&lt;b&gt;cds31033_31933&lt;/b&gt;&lt;br&gt;Acetylglutamate kinase&lt;br&gt;Location: 31033 - 31933" locus_tag="cds31033_31933" class="clusterblast-orf" id="dummy-1_q14_0_all"  />
<polygon points="328,35 331,30 331,40 328,35 " style="fill:#b115d8; stroke-width:1; stroke:black; " description="&lt;b&gt;cds31943_32462&lt;/b&gt;&lt;br&gt;hypothetical protein&lt;br&gt;Location: 31943 - 32462" locus_tag="cds31943_32462" class="clusterblast-orf" id="dummy-1_q15_0_all"  />
<polygon points="332,40 335,40 340,35 335,30 332,30 332,40 " style="fill:#d86315; stroke-width:1; stroke:black; " description="&lt;b&gt;cds32619_33765&lt;/b&gt;&lt;br&gt;Enterochelin esterase&lt;br&gt;Location: 32619 - 33765" locus_tag="cds32619_33765" class="clusterblast-orf" id="dummy-1_q16_0_all"  />
<polygon points="340,35 345,30 351,30 351,40 345,40 340,35 " style="fill:#15d815; stroke-width:1; stroke:black; " description="&lt;b&gt;cds33768_35469&lt;/b&gt;&lt;br&gt;hypothetical protein&lt;br&gt;Location: 33768 - 35469" locus_tag="cds33768_35469" class="clusterblast-orf" id="dummy-1_q17_0_all"  />
<polygon points="351,35 356,30 423,30 423,40 356,40 351,35 " style="fill:#1563d8; stroke-width:1; stroke:black; " description="&lt;b&gt;cds35455_46369&lt;/b&gt;&lt;br&gt;D-alanine--D-alanyl carrier protein ligase&lt;br&gt;Location: 35455 - 46369" locus_tag="cds35455_46369" class="clusterblast-orf" id="dummy-1_q18_0_all"  />
<polygon points="423,35 428,30 435,30 435,40 428,40 423,35 " style="fill:#d815b1; stroke-width:1; stroke:black; " description="&lt;b&gt;cds46437_48228&lt;/b&gt;&lt;br&gt;Putative multidrug export ATP-binding/permease protein&lt;br&gt;Location: 46437 - 48228" locus_tag="cds46437_48228" class="clusterblast-orf" id="dummy-1_q19_0_all"  />
<polygon points="435,35 440,30 442,30 442,40 440,40 435,35 " style="fill:#d8b115; stroke-width:1; stroke:black; " description="&lt;b&gt;cds48271_49324&lt;/b&gt;&lt;br&gt;Putative ABC transporter substrate-binding lipoprotein YhfQ&lt;br&gt;Location: 48271 - 49324" locus_tag="cds48271_49324" class="clusterblast-orf" id="dummy-1_q20_0_all"  />
<polygon points="443,35 448,30 449,30 449,40 448,40 443,35 " style="fill:#15d863; stroke-width:1; stroke:black; " description="&lt;b&gt;cds49441_50329&lt;/b&gt;&lt;br&gt;putative siderophore transport system ATP-binding protein YusV&lt;br&gt;Location: 49441 - 50329" locus_tag="cds49441_50329" class="clusterblast-orf" id="dummy-1_q21_0_all"  />
<polygon points="449,35 454,30 456,30 456,40 454,40 449,35 " style="fill:#1515d8; stroke-width:1; stroke:black; " description="&lt;b&gt;cds50325_51387&lt;/b&gt;&lt;br&gt;putative siderophore transport system permease protein YfhA&lt;br&gt;Location: 50325 - 51387" locus_tag="cds50325_51387" class="clusterblast-orf" id="dummy-1_q22_0_all"  />
<polygon points="456,35 461,30 462,30 462,40 461,40 456,35 " style="fill:#d81563; stroke-width:1; stroke:black; " description="&lt;b&gt;cds51383_52370&lt;/b&gt;&lt;br&gt;Ferric enterobactin transport system permease protein FepD&lt;br&gt;Location: 51383 - 52370" locus_tag="cds51383_52370" class="clusterblast-orf" id="dummy-1_q23_0_all"  />
<polygon points="463,35 468,30 472,30 472,40 468,40 463,35 " style="fill:#b1d815; stroke-width:1; stroke:black; " description="&lt;b&gt;cds52527_53883&lt;/b&gt;&lt;br&gt;L-ornithine N(5)-monooxygenase&lt;br&gt;Location: 52527 - 53883" locus_tag="cds52527_53883" class="clusterblast-orf" id="dummy-1_q24_0_all"  />
<polygon points="474,40 479,40 484,35 479,30 474,30 474,40 " style="fill:white; stroke-width:1; stroke:black; " description="&lt;b&gt;cds54199_55654&lt;/b&gt;&lt;br&gt;Undecaprenyl-phosphate 4-deoxy-4-formamido-L-arabinose transferase&lt;br&gt;Location: 54199 - 55654" locus_tag="cds54199_55654" class="clusterblast-orf" id="dummy-1_q25_0_all"  />
<polygon points="484,40 489,40 494,35 489,30 484,30 484,40 " style="fill:white; stroke-width:1; stroke:black; " description="&lt;b&gt;cds55660_57193&lt;/b&gt;&lt;br&gt;hypothetical protein&lt;br&gt;Location: 55660 - 57193" locus_tag="cds55660_57193" class="clusterblast-orf" id="dummy-1_q26_0_all"  />
<polygon points="495,40 496,40 501,35 496,30 495,30 495,40 " style="fill:white; stroke-width:1; stroke:black; " description="&lt;b&gt;cds57276_58224&lt;/b&gt;&lt;br&gt;hypothetical protein&lt;br&gt;Location: 57276 - 58224" locus_tag="cds57276_58224" class="clusterblast-orf" id="dummy-1_q27_0_all"  />
<polygon points="501,40 504,35 501,30 501,40 " style="fill:white; stroke-width:1; stroke:black; " description="&lt;b&gt;cds58225_58621&lt;/b&gt;&lt;br&gt;hypothetical protein&lt;br&gt;Location: 58225 - 58621" locus_tag="cds58225_58621" class="clusterblast-orf" id="dummy-1_q28_0_all"  />
<polygon points="505,40 512,40 517,35 512,30 505,30 505,40 " style="fill:white; stroke-width:1; stroke:black; " description="&lt;b&gt;cds58822_60700&lt;/b&gt;&lt;br&gt;hypothetical protein&lt;br&gt;Location: 58822 - 60700" locus_tag="cds58822_60700" class="clusterblast-orf" id="dummy-1_q29_0_all"  />
<polygon points="518,35 523,30 525,30 525,40 523,40 518,35 " style="fill:white; stroke-width:1; stroke:black; " description="&lt;b&gt;cds60755_61859&lt;/b&gt;&lt;br&gt;Putative transport protein&lt;br&gt;Location: 60755 - 61859" locus_tag="cds60755_61859" class="clusterblast-orf" id="dummy-1_q30_0_all"  />
<polygon points="528,35 531,30 531,40 528,35 " style="fill:#15d8b1; stroke-width:1; stroke:black; " description="&lt;b&gt;cds62270_62840&lt;/b&gt;&lt;br&gt;hypothetical protein&lt;br&gt;Location: 62270 - 62840" locus_tag="cds62270_62840" class="clusterblast-orf" id="dummy-1_q31_0_all"  />
<polygon points="532,40 533,40 538,35 533,30 532,30 532,40 " style="fill:#6315d8; stroke-width:1; stroke:black; " description="&lt;b&gt;cds62951_63863&lt;/b&gt;&lt;br&gt;hypothetical protein&lt;br&gt;Location: 62951 - 63863" locus_tag="cds62951_63863" class="clusterblast-orf" id="dummy-1_q32_0_all"  />
<polygon points="538,35 543,30 546,30 546,40 543,40 538,35 " style="fill:white; stroke-width:1; stroke:black; " description="&lt;b&gt;cds63902_65108&lt;/b&gt;&lt;br&gt;Oleandomycin glycosyltransferase&lt;br&gt;Location: 63902 - 65108" locus_tag="cds63902_65108" class="clusterblast-orf" id="dummy-1_q33_0_all"  />
<polygon points="547,35 551,30 551,40 547,35 " style="fill:white; stroke-width:1; stroke:black; " description="&lt;b&gt;cds65192_65846&lt;/b&gt;&lt;br&gt;Streptogramin A acetyltransferase&lt;br&gt;Location: 65192 - 65846" locus_tag="cds65192_65846" class="clusterblast-orf" id="dummy-1_q34_0_all"  />
</g>
<g label="BGC0001042" description="BGC0001042_c1: sanglifehrin A (6% of genes show similarity), NRP + Polyketide" class="clusterblast-cluster"  >
<text x="5" y="70" class="clusterblast-acc"  >
<a xlink:href="https://mibig.secondarymetabolites.org/go/BGC0001042/1" target="_blank">BGC0001042</a>:                                                                   sanglifehrin A (6% of genes show similarity), NRP + Polyketide</text>
<line x1="10" y1="85" x2="778.0" y2="85" style="stroke-width:1; stroke:grey; "  />
</g>
<g id="a1_000"  >
<polygon points="0,85 3,80 3,90 0,85 " style="fill:white; stroke-width:1; stroke:black; " description="&lt;b&gt;ACY06309.1&lt;/b&gt;&lt;br&gt;putative endoribonuclease&lt;br&gt;Location: 118372 - 117873" locus_tag="ACY06309.1" class="clusterblast-orf" id="dummy-1_h1_3_0"  />
</g>
<g id="a1_001"  >
<polygon points="3,85 8,80 13,80 13,90 8,90 3,85 " style="fill:white; stroke-width:1; stroke:black; " description="&lt;b&gt;ACY06308.1&lt;/b&gt;&lt;br&gt;FAD-dependent monooxygenase&lt;br&gt;Location: 117870 - 116347" locus_tag="ACY06308.1" class="clusterblast-orf" id="dummy-1_h1_3_1"  />
</g>
<g id="a1_002"  >
<polygon points="13,90 13,90 18,85 13,80 13,80 13,90 " style="fill:white; stroke-width:1; stroke:black; " description="&lt;b&gt;ACY06306.1&lt;/b&gt;&lt;br&gt;TetR-family transcriptional regulator&lt;br&gt;Location: 116281 - 115616" locus_tag="ACY06306.1" class="clusterblast-orf" id="dummy-1_h1_3_2"  />
</g>
<g id="a1_003"  >
<polygon points="18,85 23,80 23,80 23,90 23,90 18,85 " style="fill:white; stroke-width:1; stroke:black; " description="&lt;b&gt;ACY06307.1&lt;/b&gt;&lt;br&gt;hypothetical protein&lt;br&gt;Location: 115536 - 114808" locus_tag="ACY06307.1" class="clusterblast-orf" id="dummy-1_h1_3_3"  />
</g>
<g id="a1_004"  >
<polygon points="28,85 30,80 30,90 28,85 " style="fill:white; stroke-width:1; stroke:black; " description="&lt;b&gt;ACY06305.1&lt;/b&gt;&lt;br&gt;transposase&lt;br&gt;Location: 114043 - 113783" locus_tag="ACY06305.1" class="clusterblast-orf" id="dummy-1_h1_3_4"  />
</g>
<g id="a1_005"  >
<polygon points="33,85 36,80 36,90 33,85 " style="fill:white; stroke-width:1; stroke:black; " description="&lt;b&gt;ACY06304.1&lt;/b&gt;&lt;br&gt;transposase&lt;br&gt;Location: 113296 - 112763" locus_tag="ACY06304.1" class="clusterblast-orf" id="dummy-1_h1_3_5"  />
</g>
<g id="a1_006"  >
<polygon points="37,85 40,80 40,90 37,85 " style="fill:white; stroke-width:1; stroke:black; " description="&lt;b&gt;ACY06303.1&lt;/b&gt;&lt;br&gt;hypothetical protein&lt;br&gt;Location: 112652 - 112218" locus_tag="ACY06303.1" class="clusterblast-orf" id="dummy-1_h1_3_6"  />
</g>
<g id="a1_007"  >
<polygon points="43,90 46,85 43,80 43,90 " style="fill:white; stroke-width:1; stroke:black; " description="&lt;b&gt;ACY06302.1&lt;/b&gt;&lt;br&gt;hypothetical protein&lt;br&gt;Location: 111743 - 111285" locus_tag="ACY06302.1" class="clusterblast-orf" id="dummy-1_h1_3_7"  />
</g>
<g id="a1_008"  >
<polygon points="53,85 56,80 56,90 53,85 " style="fill:white; stroke-width:1; stroke:black; " description="&lt;b&gt;ACY06301.1&lt;/b&gt;&lt;br&gt;hypothetical protein&lt;br&gt;Location: 110312 - 109776" locus_tag="ACY06301.1" class="clusterblast-orf" id="dummy-1_h1_3_8"  />
</g>
<g id="a1_009"  >
<polygon points="56,85 57,80 57,90 56,85 " style="fill:white; stroke-width:1; stroke:black; " description="&lt;b&gt;ACY06300.1&lt;/b&gt;&lt;br&gt;putative MbtH family protein&lt;br&gt;Location: 109798 - 109583" locus_tag="ACY06300.1" class="clusterblast-orf" id="dummy-1_h1_3_9"  />
</g>
<g id="a1_0010"  >
<polygon points="58,85 63,80 67,80 67,90 63,90 58,85 " style="fill:white; stroke-width:1; stroke:black; " description="&lt;b&gt;ACY06299.1&lt;/b&gt;&lt;br&gt;crotonyl CoA reductase&lt;br&gt;Location: 109511 - 108150" locus_tag="ACY06299.1" class="clusterblast-orf" id="dummy-1_h1_3_10"  />
</g>
<g id="a1_0011"  >
<polygon points="67,85 72,80 72,80 72,90 72,90 67,85 " style="fill:white; stroke-width:1; stroke:black; " description="&lt;b&gt;ACY06298.1&lt;/b&gt;&lt;br&gt;thioesterase&lt;br&gt;Location: 108145 - 107366" locus_tag="ACY06298.1" class="clusterblast-orf" id="dummy-1_h1_3_11"  />
</g>
<g id="a1_0012"  >
<polygon points="73,85 78,80 85,80 85,90 78,90 73,85 " style="fill:white; stroke-width:1; stroke:black; " description="&lt;b&gt;ACY06297.1&lt;/b&gt;&lt;br&gt;asparagine synthase&lt;br&gt;Location: 107216 - 105366" locus_tag="ACY06297.1" class="clusterblast-orf" id="dummy-1_h1_3_12"  />
</g>
<g id="a1_0013"  >
<polygon points="85,85 88,80 88,90 85,85 " style="fill:white; stroke-width:1; stroke:black; " description="&lt;b&gt;ACY06296.1&lt;/b&gt;&lt;br&gt;acyl carrier protein&lt;br&gt;Location: 105345 - 104941" locus_tag="ACY06296.1" class="clusterblast-orf" id="dummy-1_h1_3_13"  />
</g>
<g id="a1_0014"  >
<polygon points="87,85 92,80 94,80 94,90 92,90 87,85 " style="fill:white; stroke-width:1; stroke:black; " description="&lt;b&gt;ACY06295.1&lt;/b&gt;&lt;br&gt;3-oxoacyl-(acyl-carrier-protein) synthase III&lt;br&gt;Location: 105023 - 104001" locus_tag="ACY06295.1" class="clusterblast-orf" id="dummy-1_h1_3_14"  />
</g>
<g id="a1_0015"  >
<polygon points="95,85 99,80 99,90 95,85 " style="fill:white; stroke-width:1; stroke:black; " description="&lt;b&gt;ACY06294.1&lt;/b&gt;&lt;br&gt;short-chain dehydrogenase/reductase&lt;br&gt;Location: 103929 - 103210" locus_tag="ACY06294.1" class="clusterblast-orf" id="dummy-1_h1_3_15"  />
</g>
<g id="a1_0016"  >
<polygon points="99,85 104,80 108,80 108,90 104,90 99,85 " style="fill:white; stroke-width:1; stroke:black; " description="&lt;b&gt;ACY06293.1&lt;/b&gt;&lt;br&gt;acyltransferase&lt;br&gt;Location: 103213 - 101936" locus_tag="ACY06293.1" class="clusterblast-orf" id="dummy-1_h1_3_16"  />
</g>
<g id="a1_0017"  >
<polygon points="108,85 113,80 138,80 138,90 113,90 108,85 " style="fill:white; stroke-width:1; stroke:black; " description="&lt;b&gt;ACY06292.1&lt;/b&gt;&lt;br&gt;modular polyketide synthase&lt;br&gt;Location: 101943 - 97396" locus_tag="ACY06292.1" class="clusterblast-orf" id="dummy-1_h1_3_17"  />
</g>
<g id="a1_0018"  >
<polygon points="138,85 143,80 145,80 145,90 143,90 138,85 " style="fill:white; stroke-width:1; stroke:black; " description="&lt;b&gt;ACY06291.1&lt;/b&gt;&lt;br&gt;zinc-binding dehydrogenase&lt;br&gt;Location: 97391 - 96225" locus_tag="ACY06291.1" class="clusterblast-orf" id="dummy-1_h1_3_18"  />
</g>
<g id="a1_0019"  >
<polygon points="147,85 152,80 214,80 214,90 152,90 147,85 " style="fill:white; stroke-width:1; stroke:black; " description="&lt;b&gt;ACY06290.1&lt;/b&gt;&lt;br&gt;type I polyketide synthase&lt;br&gt;Location: 96040 - 85823" locus_tag="ACY06290.1" class="clusterblast-orf" id="dummy-1_h1_3_19"  />
</g>
<g id="a1_0020"  >
<polygon points="214,85 219,80 378,80 378,90 219,90 214,85 " style="fill:white; stroke-width:1; stroke:black; " description="&lt;b&gt;ACY06289.1&lt;/b&gt;&lt;br&gt;type I polyketide synthase&lt;br&gt;Location: 85823 - 60918" locus_tag="ACY06289.1" class="clusterblast-orf" id="dummy-1_h1_3_20"  />
</g>
<g id="a1_0021"  >
<polygon points="378,85 383,80 450,80 450,90 383,90 378,85 " style="fill:white; stroke-width:1; stroke:black; " description="&lt;b&gt;ACY06288.1&lt;/b&gt;&lt;br&gt;type I polyketide synthase&lt;br&gt;Location: 60903 - 50017" locus_tag="ACY06288.1" class="clusterblast-orf" id="dummy-1_h1_3_21"  />
</g>
<g id="a1_0022"  >
<polygon points="450,85 455,80 533,80 533,90 455,90 450,85 " style="fill:white; stroke-width:1; stroke:black; " description="&lt;b&gt;ACY06287.1&lt;/b&gt;&lt;br&gt;type I polyketide synthase&lt;br&gt;Location: 50014 - 37394" locus_tag="ACY06287.1" class="clusterblast-orf" id="dummy-1_h1_3_22"  />
</g>
<g id="a1_0023"  >
<polygon points="533,85 538,80 577,80 577,90 538,90 533,85 " style="fill:white; stroke-width:1; stroke:black; " description="&lt;b&gt;ACY06286.1&lt;/b&gt;&lt;br&gt;polyketide synthase&lt;br&gt;Location: 37360 - 30707" locus_tag="ACY06286.1" class="clusterblast-orf" id="dummy-1_h1_3_23"  />
</g>
<g id="a1_0024"  >
<polygon points="577,85 582,80 648,80 648,90 582,90 577,85 " style="fill:white; stroke-width:1; stroke:black; " description="&lt;b&gt;ACY06285.1&lt;/b&gt;&lt;br&gt;non-ribosomal peptide synthetase&lt;br&gt;Location: 30714 - 19885" locus_tag="ACY06285.1" class="clusterblast-orf" id="dummy-1_h1_3_24"  />
</g>
<g id="a1_0025"  >
<polygon points="648,85 653,80 653,80 653,90 653,90 648,85 " style="fill:white; stroke-width:1; stroke:black; " description="&lt;b&gt;ACY06284.1&lt;/b&gt;&lt;br&gt;negative transcriptional regulator&lt;br&gt;Location: 19888 - 19193" locus_tag="ACY06284.1" class="clusterblast-orf" id="dummy-1_h1_3_25"  />
</g>
<g id="a1_0026"  >
<polygon points="653,85 658,80 662,80 662,90 658,90 653,85 " style="fill:#b1d815; stroke-width:1; stroke:black; " description="&lt;b&gt;ACY06283.1&lt;/b&gt;&lt;br&gt;L-lysine 6-monooxygenase&lt;br&gt;Location: 19191 - 17851&lt;br&gt;&lt;br&gt;&lt;b&gt;BlastP hit with cds52527_53883&lt;/b&gt;&lt;br&gt;Percentage identity: 53&lt;br&gt;Percentage coverage: 93&lt;br&gt;BLAST bit score: 436&lt;br&gt;E-value: 3.8e-122" locus_tag="ACY06283.1" class="clusterblast-orf" id="dummy-1_h1_3_26"  />
</g>
<g id="a1_0027"  >
<polygon points="662,85 667,80 667,80 667,90 667,90 662,85 " style="fill:white; stroke-width:1; stroke:black; " description="&lt;b&gt;ACY06282.1&lt;/b&gt;&lt;br&gt;tyrosine 3-monooxygenase&lt;br&gt;Location: 17854 - 17024" locus_tag="ACY06282.1" class="clusterblast-orf" id="dummy-1_h1_3_27"  />
</g>
<g id="a1_0028"  >
<polygon points="674,85 677,80 677,90 674,85 " style="fill:white; stroke-width:1; stroke:black; " description="&lt;b&gt;ACY06281.1&lt;/b&gt;&lt;br&gt;chimeric AFGP/trypsinogen-like serine protease precursor&lt;br&gt;Location: 16063 - 15596" locus_tag="ACY06281.1" class="clusterblast-orf" id="dummy-1_h1_3_28"  />
</g>
<g id="a1_0029"  >
<polygon points="678,90 681,85 678,80 678,90 " style="fill:white; stroke-width:1; stroke:black; " description="&lt;b&gt;ACY06280.1&lt;/b&gt;&lt;br&gt;Ser/Arg-related nuclear matrix-like protein&lt;br&gt;Location: 15413 - 14973" locus_tag="ACY06280.1" class="clusterblast-orf" id="dummy-1_h1_3_29"  />
</g>
<g id="a1_0030"  >
<polygon points="682,85 684,80 684,90 682,85 " style="fill:white; stroke-width:1; stroke:black; " description="&lt;b&gt;ACY06279.1&lt;/b&gt;&lt;br&gt;transglycosylase-associated protein&lt;br&gt;Location: 14764 - 14498" locus_tag="ACY06279.1" class="clusterblast-orf" id="dummy-1_h1_3_30"  />
</g>
<g id="a1_0031"  >
<polygon points="687,85 691,80 691,90 687,85 " style="fill:#15d8b1; stroke-width:1; stroke:black; " description="&lt;b&gt;ACY06278.1&lt;/b&gt;&lt;br&gt;TetR-like family regulator&lt;br&gt;Location: 14017 - 13385&lt;br&gt;&lt;br&gt;&lt;b&gt;BlastP hit with cds62270_62840&lt;/b&gt;&lt;br&gt;Percentage identity: 68&lt;br&gt;Percentage coverage: 98&lt;br&gt;BLAST bit score: 238&lt;br&gt;E-value: 1.1e-62" locus_tag="ACY06278.1" class="clusterblast-orf" id="dummy-1_h1_3_31"  />
</g>
<g id="a1_0032"  >
<polygon points="692,90 693,90 698,85 693,80 692,80 692,90 " style="fill:#6315d8; stroke-width:1; stroke:black; " description="&lt;b&gt;ACY06277.1&lt;/b&gt;&lt;br&gt;hypothetical protein&lt;br&gt;Location: 13284 - 12370&lt;br&gt;&lt;br&gt;&lt;b&gt;BlastP hit with cds62951_63863&lt;/b&gt;&lt;br&gt;Percentage identity: 74&lt;br&gt;Percentage coverage: 100&lt;br&gt;BLAST bit score: 437&lt;br&gt;E-value: 1.5e-122" locus_tag="ACY06277.1" class="clusterblast-orf" id="dummy-1_h1_3_32"  />
</g>
<g id="a1_0033"  >
<polygon points="698,85 703,80 703,80 703,90 703,90 698,85 " style="fill:white; stroke-width:1; stroke:black; " description="&lt;b&gt;ACY06276.1&lt;/b&gt;&lt;br&gt;hypothetical protein&lt;br&gt;Location: 12338 - 11553" locus_tag="ACY06276.1" class="clusterblast-orf" id="dummy-1_h1_3_33"  />
</g>
<g id="a1_0034"  >
<polygon points="707,85 710,80 710,90 707,85 " style="fill:white; stroke-width:1; stroke:black; " description="&lt;b&gt;ACY06275.1&lt;/b&gt;&lt;br&gt;putative protein kinase&lt;br&gt;Location: 10940 - 10602" locus_tag="ACY06275.1" class="clusterblast-orf" id="dummy-1_h1_3_34"  />
</g>
<g id="a1_0035"  >
<polygon points="710,85 715,80 716,80 716,90 715,90 710,85 " style="fill:white; stroke-width:1; stroke:black; " description="&lt;b&gt;ACY06274.1&lt;/b&gt;&lt;br&gt;LysR family regulator&lt;br&gt;Location: 10583 - 9708" locus_tag="ACY06274.1" class="clusterblast-orf" id="dummy-1_h1_3_35"  />
</g>
<g id="a1_0036"  >
<polygon points="716,90 718,90 723,85 718,80 716,80 716,90 " style="fill:white; stroke-width:1; stroke:black; " description="&lt;b&gt;ACY06273.1&lt;/b&gt;&lt;br&gt;dehydrogenase&lt;br&gt;Location: 9585 - 8587" locus_tag="ACY06273.1" class="clusterblast-orf" id="dummy-1_h1_3_36"  />
</g>
<g id="a1_0037"  >
<polygon points="726,85 731,80 731,80 731,90 731,90 726,85 " style="fill:white; stroke-width:1; stroke:black; " description="&lt;b&gt;ACY06272.1&lt;/b&gt;&lt;br&gt;deoxyadenosine kinase&lt;br&gt;Location: 8048 - 7389" locus_tag="ACY06272.1" class="clusterblast-orf" id="dummy-1_h1_3_37"  />
</g>
<g id="a1_0038"  >
<polygon points="734,85 739,80 742,80 742,90 739,90 734,85 " style="fill:white; stroke-width:1; stroke:black; " description="&lt;b&gt;ACY06271.1&lt;/b&gt;&lt;br&gt;putative p450 monooxygenase&lt;br&gt;Location: 6896 - 5748" locus_tag="ACY06271.1" class="clusterblast-orf" id="dummy-1_h1_3_38"  />
</g>
<g id="a1_0039"  >
<polygon points="743,85 748,80 749,80 749,90 748,90 743,85 " style="fill:white; stroke-width:1; stroke:black; " description="&lt;b&gt;ACY06270.1&lt;/b&gt;&lt;br&gt;methyltransferase&lt;br&gt;Location: 5496 - 4627" locus_tag="ACY06270.1" class="clusterblast-orf" id="dummy-1_h1_3_39"  />
</g>
<g id="a1_0040"  >
<polygon points="750,85 755,80 761,80 761,90 755,90 750,85 " style="fill:white; stroke-width:1; stroke:black; " description="&lt;b&gt;ACY06269.1&lt;/b&gt;&lt;br&gt;CoA ligase&lt;br&gt;Location: 4502 - 2850" locus_tag="ACY06269.1" class="clusterblast-orf" id="dummy-1_h1_3_40"  />
</g>
<g id="a1_0041"  >
<polygon points="761,85 763,80 763,90 761,85 " style="fill:white; stroke-width:1; stroke:black; " description="&lt;b&gt;ACY06268.1&lt;/b&gt;&lt;br&gt;acyl carrier protein&lt;br&gt;Location: 2853 - 2578" locus_tag="ACY06268.1" class="clusterblast-orf" id="dummy-1_h1_3_41"  />
</g>
<g id="a1_0042"  >
<polygon points="763,85 768,80 771,80 771,90 768,90 763,85 " style="fill:white; stroke-width:1; stroke:black; " description="&lt;b&gt;ACY06267.1&lt;/b&gt;&lt;br&gt;hypothetical protein&lt;br&gt;Location: 2505 - 1297" locus_tag="ACY06267.1" class="clusterblast-orf" id="dummy-1_h1_3_42"  />
</g>
<g id="a1_0043"  >
<polygon points="772,85 777,80 780,80 780,90 777,90 772,85 " style="fill:white; stroke-width:1; stroke:black; " description="&lt;b&gt;ACY06266.1&lt;/b&gt;&lt;br&gt;cytochrome P450 monooxygenase&lt;br&gt;Location: 1199 - 1" locus_tag="ACY06266.1" class="clusterblast-orf" id="dummy-1_h1_3_43"  />
</g>
</svg>
