<svg xmlns="http://www.w3.org/2000/svg" xmlns:xlink="http://www.w3.org/1999/xlink" version="1.1" x="0" y="0" height="230" width="800" viewBox="0 0 800 230" preserveAspectRatio="none"  >
<g label="Query sequence" class="clusterblast-cluster"  >
<text x="5" y="20" class="clusterblast-acc"  >
Query sequence</text>
<line x1="10" y1="35" x2="778.0" y2="35" style="stroke-width:1; stroke:grey; "  />
<polygon points="260,40 264,40 269,35 264,30 260,30 260,40 " style="fill:white; stroke-width:1; stroke:black; " description="&lt;b&gt;cds188_1109&lt;/b&gt;&lt;br&gt;hypothetical protein&lt;br&gt;Location: 188 - 1109" locus_tag="cds188_1109" class="clusterblast-orf" id="dummy-1_q0_0_all"  />
<polygon points="268,35 273,30 273,30 273,40 273,40 268,35 " style="fill:#d81515; stroke-width:1; stroke:black; " description="&lt;b&gt;cds970_1519&lt;/b&gt;&lt;br&gt;FMN reductase (NADH) NtaB&lt;br&gt;Location: 970 - 1519" locus_tag="cds970_1519" class="clusterblast-orf" id="dummy-1_q1_0_all"  />
<polygon points="273,35 278,30 278,30 278,40 278,40 273,35 " style="fill:#4dd815; stroke-width:1; stroke:black; " description="&lt;b&gt;cds1515_1989&lt;/b&gt;&lt;br&gt;hypothetical protein&lt;br&gt;Location: 1515 - 1989" locus_tag="cds1515_1989" class="clusterblast-orf" id="dummy-1_q2_0_all"  />
<polygon points="278,35 283,30 335,30 335,40 283,40 278,35 " style="fill:#1585d8; stroke-width:1; stroke:black; " description="&lt;b&gt;cds1985_7793&lt;/b&gt;&lt;br&gt;hypothetical protein&lt;br&gt;Location: 1985 - 7793" locus_tag="cds1985_7793" class="clusterblast-orf" id="dummy-1_q3_0_all"  />
<polygon points="335,35 340,30 345,30 345,40 340,40 335,35 " style="fill:#a115d8; stroke-width:1; stroke:black; " description="&lt;b&gt;cds7789_8875&lt;/b&gt;&lt;br&gt;hypothetical protein&lt;br&gt;Location: 7789 - 8875" locus_tag="cds7789_8875" class="clusterblast-orf" id="dummy-1_q4_0_all"  />
<polygon points="345,35 350,30 364,30 364,40 350,40 345,35 " style="fill:#d86915; stroke-width:1; stroke:black; " description="&lt;b&gt;cds8876_10805&lt;/b&gt;&lt;br&gt;hypothetical protein&lt;br&gt;Location: 8876 - 10805" locus_tag="cds8876_10805" class="clusterblast-orf" id="dummy-1_q5_0_all"  />
<polygon points="364,35 369,30 374,30 374,40 369,40 364,35 " style="fill:#15d831; stroke-width:1; stroke:black; " description="&lt;b&gt;cds10801_11788&lt;/b&gt;&lt;br&gt;hypothetical protein&lt;br&gt;Location: 10801 - 11788" locus_tag="cds10801_11788" class="clusterblast-orf" id="dummy-1_q6_0_all"  />
<polygon points="375,35 380,30 384,30 384,40 380,40 375,35 " style="fill:#1531d8; stroke-width:1; stroke:black; " description="&lt;b&gt;cds11883_12864&lt;/b&gt;&lt;br&gt;hypothetical protein&lt;br&gt;Location: 11883 - 12864" locus_tag="cds11883_12864" class="clusterblast-orf" id="dummy-1_q7_0_all"  />
<polygon points="386,35 390,30 390,40 386,35 " style="fill:#d815bc; stroke-width:1; stroke:black; " description="&lt;b&gt;cds13002_13446&lt;/b&gt;&lt;br&gt;putative HTH-type transcriptional regulator&lt;br&gt;Location: 13002 - 13446" locus_tag="cds13002_13446" class="clusterblast-orf" id="dummy-1_q8_0_all"  />
<polygon points="391,40 392,40 397,35 392,30 391,30 391,40 " style="fill:#d8bc15; stroke-width:1; stroke:black; " description="&lt;b&gt;cds13584_14148&lt;/b&gt;&lt;br&gt;hypothetical protein&lt;br&gt;Location: 13584 - 14148" locus_tag="cds13584_14148" class="clusterblast-orf" id="dummy-1_q9_0_all"  />
<polygon points="397,40 401,35 397,30 397,40 " style="fill:#15d885; stroke-width:1; stroke:black; " description="&lt;b&gt;cds14158_14632&lt;/b&gt;&lt;br&gt;hypothetical protein&lt;br&gt;Location: 14158 - 14632" locus_tag="cds14158_14632" class="clusterblast-orf" id="dummy-1_q10_0_all"  />
<polygon points="404,35 409,30 416,30 416,40 409,40 404,35 " style="fill:#4d15d8; stroke-width:1; stroke:black; " description="&lt;b&gt;cds14902_16138&lt;/b&gt;&lt;br&gt;IS701 family transposase ISSav4&lt;br&gt;Location: 14902 - 16138" locus_tag="cds14902_16138" class="clusterblast-orf" id="dummy-1_q11_0_all"  />
<polygon points="419,40 420,40 425,35 420,30 419,30 419,40 " style="fill:white; stroke-width:1; stroke:black; " description="&lt;b&gt;cds16456_17056&lt;/b&gt;&lt;br&gt;A-factor receptor protein&lt;br&gt;Location: 16456 - 17056" locus_tag="cds16456_17056" class="clusterblast-orf" id="dummy-1_q12_0_all"  />
<polygon points="426,35 431,30 434,30 434,40 431,40 426,35 " style="fill:white; stroke-width:1; stroke:black; " description="&lt;b&gt;cds17181_17952&lt;/b&gt;&lt;br&gt;A-factor type gamma-butyrolactone 1'-reductase (1S-forming)&lt;br&gt;Location: 17181 - 17952" locus_tag="cds17181_17952" class="clusterblast-orf" id="dummy-1_q13_0_all"  />
<polygon points="435,35 440,30 442,30 442,40 440,40 435,35 " style="fill:white; stroke-width:1; stroke:black; " description="&lt;b&gt;cds18115_18766&lt;/b&gt;&lt;br&gt;A-factor receptor protein&lt;br&gt;Location: 18115 - 18766" locus_tag="cds18115_18766" class="clusterblast-orf" id="dummy-1_q14_0_all"  />
<polygon points="443,40 447,40 452,35 447,30 443,30 443,40 " style="fill:white; stroke-width:1; stroke:black; " description="&lt;b&gt;cds18885_19803&lt;/b&gt;&lt;br&gt;hypothetical protein&lt;br&gt;Location: 18885 - 19803" locus_tag="cds18885_19803" class="clusterblast-orf" id="dummy-1_q15_0_all"  />
<polygon points="455,40 464,40 469,35 464,30 455,30 455,40 " style="fill:#d81569; stroke-width:1; stroke:black; " description="&lt;b&gt;cds20145_21585&lt;/b&gt;&lt;br&gt;hypothetical protein&lt;br&gt;Location: 20145 - 21585" locus_tag="cds20145_21585" class="clusterblast-orf" id="dummy-1_q16_0_all"  />
<polygon points="471,35 476,30 476,30 476,40 476,40 471,35 " style="fill:white; stroke-width:1; stroke:black; " description="&lt;b&gt;cds21807_22245&lt;/b&gt;&lt;br&gt;hypothetical protein&lt;br&gt;Location: 21807 - 22245" locus_tag="cds21807_22245" class="clusterblast-orf" id="dummy-1_q17_0_all"  />
<polygon points="477,35 482,30 485,30 485,40 482,40 477,35 " style="fill:#a1d815; stroke-width:1; stroke:black; " description="&lt;b&gt;cds22347_23226&lt;/b&gt;&lt;br&gt;hypothetical protein&lt;br&gt;Location: 22347 - 23226" locus_tag="cds22347_23226" class="clusterblast-orf" id="dummy-1_q18_0_all"  />
<polygon points="489,35 493,30 493,40 489,35 " style="fill:#15d8d8; stroke-width:1; stroke:black; " description="&lt;b&gt;cds23601_24003&lt;/b&gt;&lt;br&gt;hypothetical protein&lt;br&gt;Location: 23601 - 24003" locus_tag="cds23601_24003" class="clusterblast-orf" id="dummy-1_q19_0_all"  />
<polygon points="493,35 498,30 508,30 508,40 498,40 493,35 " style="fill:#d81569; stroke-width:1; stroke:black; " description="&lt;b&gt;cds23999_25532&lt;/b&gt;&lt;br&gt;hypothetical protein&lt;br&gt;Location: 23999 - 25532" locus_tag="cds23999_25532" class="clusterblast-orf" id="dummy-1_q20_0_all"  />
<polygon points="508,35 513,30 519,30 519,40 513,40 508,35 " style="fill:white; stroke-width:1; stroke:black; " description="&lt;b&gt;cds25521_26649&lt;/b&gt;&lt;br&gt;hypothetical protein&lt;br&gt;Location: 25521 - 26649" locus_tag="cds25521_26649" class="clusterblast-orf" id="dummy-1_q21_0_all"  />
</g>
<g label="BGC0001503" description="BGC0001503_c1: amycolamycin A / amycolamycin B (10% of genes show similarity), Polyketide" class="clusterblast-cluster"  >
<text x="5" y="70" class="clusterblast-acc"  >
<a xlink:href="https://mibig.secondarymetabolites.org/go/BGC0001503/1" target="_blank">BGC0001503</a>:                                                  amycolamycin A / amycolamycin B (10% of genes show similarity), Polyketide</text>
<line x1="10" y1="85" x2="778.0" y2="85" style="stroke-width:1; stroke:grey; "  />
</g>
<g id="a1_000"  >
<polygon points="0,90 3,85 0,80 0,90 " style="fill:white; stroke-width:1; stroke:black; " description="&lt;b&gt;ATV95588.1&lt;/b&gt;&lt;br&gt;peptidase inhibitor&lt;br&gt;Location: 7022 - 7396" locus_tag="ATV95588.1" class="clusterblast-orf" id="dummy-1_h1_6_0"  />
</g>
<g id="a1_001"  >
<polygon points="16,90 18,85 16,80 16,90 " style="fill:white; stroke-width:1; stroke:black; " description="&lt;b&gt;ATV95589.1&lt;/b&gt;&lt;br&gt;hypothetical protein&lt;br&gt;Location: 8727 - 8942" locus_tag="ATV95589.1" class="clusterblast-orf" id="dummy-1_h1_6_1"  />
</g>
<g id="a1_002"  >
<polygon points="19,90 25,90 30,85 25,80 19,80 19,90 " style="fill:white; stroke-width:1; stroke:black; " description="&lt;b&gt;ATV95590.1&lt;/b&gt;&lt;br&gt;hypothetical protein&lt;br&gt;Location: 9039 - 10115" locus_tag="ATV95590.1" class="clusterblast-orf" id="dummy-1_h1_6_2"  />
</g>
<g id="a1_003"  >
<polygon points="29,85 34,80 37,80 37,90 34,90 29,85 " style="fill:white; stroke-width:1; stroke:black; " description="&lt;b&gt;ATV95591.1&lt;/b&gt;&lt;br&gt;glycosyltransferase&lt;br&gt;Location: 10001 - 10906" locus_tag="ATV95591.1" class="clusterblast-orf" id="dummy-1_h1_6_3"  />
</g>
<g id="a1_004"  >
<polygon points="40,85 45,80 50,80 50,90 45,90 40,85 " style="fill:white; stroke-width:1; stroke:black; " description="&lt;b&gt;ATV95592.1&lt;/b&gt;&lt;br&gt;zinc-containing alcohol dehydrogenase&lt;br&gt;Location: 11168 - 12190" locus_tag="ATV95592.1" class="clusterblast-orf" id="dummy-1_h1_6_4"  />
</g>
<g id="a1_005"  >
<polygon points="51,85 56,80 62,80 62,90 56,90 51,85 " style="fill:white; stroke-width:1; stroke:black; " description="&lt;b&gt;ATV95593.1&lt;/b&gt;&lt;br&gt;aminotransferase&lt;br&gt;Location: 12271 - 13434" locus_tag="ATV95593.1" class="clusterblast-orf" id="dummy-1_h1_6_5"  />
</g>
<g id="a1_006"  >
<polygon points="63,85 68,80 79,80 79,90 68,90 63,85 " style="fill:white; stroke-width:1; stroke:black; " description="&lt;b&gt;ATV95594.1&lt;/b&gt;&lt;br&gt;efflux pump transporter&lt;br&gt;Location: 13518 - 15116" locus_tag="ATV95594.1" class="clusterblast-orf" id="dummy-1_h1_6_6"  />
</g>
<g id="a1_007"  >
<polygon points="81,85 86,80 93,80 93,90 86,90 81,85 " style="fill:white; stroke-width:1; stroke:black; " description="&lt;b&gt;ATV95595.1&lt;/b&gt;&lt;br&gt;oxidoreductase&lt;br&gt;Location: 15392 - 16576" locus_tag="ATV95595.1" class="clusterblast-orf" id="dummy-1_h1_6_7"  />
</g>
<g id="a1_008"  >
<polygon points="95,90 98,90 103,85 98,80 95,80 95,90 " style="fill:white; stroke-width:1; stroke:black; " description="&lt;b&gt;ATV95596.1&lt;/b&gt;&lt;br&gt;aceryltransferase/esterase&lt;br&gt;Location: 16830 - 17657" locus_tag="ATV95596.1" class="clusterblast-orf" id="dummy-1_h1_6_8"  />
</g>
<g id="a1_009"  >
<polygon points="104,85 109,80 109,80 109,90 109,90 104,85 " style="fill:white; stroke-width:1; stroke:black; " description="&lt;b&gt;ATV95597.1&lt;/b&gt;&lt;br&gt;NUDIX domain-containing protein&lt;br&gt;Location: 17683 - 18264" locus_tag="ATV95597.1" class="clusterblast-orf" id="dummy-1_h1_6_9"  />
</g>
<g id="a1_0010"  >
<polygon points="110,90 120,90 125,85 120,80 110,80 110,90 " style="fill:white; stroke-width:1; stroke:black; " description="&lt;b&gt;ATV95598.1&lt;/b&gt;&lt;br&gt;NDP-glucose dehydrogenase&lt;br&gt;Location: 18351 - 19856" locus_tag="ATV95598.1" class="clusterblast-orf" id="dummy-1_h1_6_10"  />
</g>
<g id="a1_0011"  >
<polygon points="125,90 129,90 134,85 129,80 125,80 125,90 " style="fill:white; stroke-width:1; stroke:black; " description="&lt;b&gt;ATV95599.1&lt;/b&gt;&lt;br&gt;glucuronic acid decarboxylae&lt;br&gt;Location: 19853 - 20833" locus_tag="ATV95599.1" class="clusterblast-orf" id="dummy-1_h1_6_11"  />
</g>
<g id="a1_0012"  >
<polygon points="135,90 142,90 147,85 142,80 135,80 135,90 " style="fill:white; stroke-width:1; stroke:black; " description="&lt;b&gt;ATV95600.1&lt;/b&gt;&lt;br&gt;C-methyltransferase&lt;br&gt;Location: 20886 - 22088" locus_tag="ATV95600.1" class="clusterblast-orf" id="dummy-1_h1_6_12"  />
</g>
<g id="a1_0013"  >
<polygon points="151,85 156,80 165,80 165,90 156,90 151,85 " style="fill:white; stroke-width:1; stroke:black; " description="&lt;b&gt;ATV95601.1&lt;/b&gt;&lt;br&gt;glycosyltransferase&lt;br&gt;Location: 22516 - 23970" locus_tag="ATV95601.1" class="clusterblast-orf" id="dummy-1_h1_6_13"  />
</g>
<g id="a1_0014"  >
<polygon points="167,90 168,90 173,85 168,80 167,80 167,90 " style="fill:white; stroke-width:1; stroke:black; " description="&lt;b&gt;ATV95602.1&lt;/b&gt;&lt;br&gt;O-methyltransferase&lt;br&gt;Location: 24180 - 24848" locus_tag="ATV95602.1" class="clusterblast-orf" id="dummy-1_h1_6_14"  />
</g>
<g id="a1_0015"  >
<polygon points="174,90 183,90 188,85 183,80 174,80 174,90 " style="fill:white; stroke-width:1; stroke:black; " description="&lt;b&gt;ATV95603.1&lt;/b&gt;&lt;br&gt;hydroxylase&lt;br&gt;Location: 24869 - 26377" locus_tag="ATV95603.1" class="clusterblast-orf" id="dummy-1_h1_6_15"  />
</g>
<g id="a1_0016"  >
<polygon points="190,90 197,90 202,85 197,80 190,80 190,90 " style="fill:white; stroke-width:1; stroke:black; " description="&lt;b&gt;ATV95604.1&lt;/b&gt;&lt;br&gt;cytochrome P450 monooxygenase&lt;br&gt;Location: 26519 - 27748" locus_tag="ATV95604.1" class="clusterblast-orf" id="dummy-1_h1_6_16"  />
</g>
<g id="a1_0017"  >
<polygon points="205,85 210,80 216,80 216,90 210,90 205,85 " style="fill:white; stroke-width:1; stroke:black; " description="&lt;b&gt;ATV95605.1&lt;/b&gt;&lt;br&gt;hypothetical protein&lt;br&gt;Location: 28079 - 29188" locus_tag="ATV95605.1" class="clusterblast-orf" id="dummy-1_h1_6_17"  />
</g>
<g id="a1_0018"  >
<polygon points="216,85 221,80 228,80 228,90 221,90 216,85 " style="fill:white; stroke-width:1; stroke:black; " description="&lt;b&gt;ATV95606.1&lt;/b&gt;&lt;br&gt;halogenase&lt;br&gt;Location: 29209 - 30438" locus_tag="ATV95606.1" class="clusterblast-orf" id="dummy-1_h1_6_18"  />
</g>
<g id="a1_0019"  >
<polygon points="228,85 233,80 242,80 242,90 233,90 228,85 " style="fill:white; stroke-width:1; stroke:black; " description="&lt;b&gt;ATV95607.1&lt;/b&gt;&lt;br&gt;type II condensation domain protein&lt;br&gt;Location: 30480 - 31817" locus_tag="ATV95607.1" class="clusterblast-orf" id="dummy-1_h1_6_19"  />
</g>
<g id="a1_0020"  >
<polygon points="242,85 247,80 252,80 252,90 247,90 242,85 " style="fill:white; stroke-width:1; stroke:black; " description="&lt;b&gt;ATV95608.1&lt;/b&gt;&lt;br&gt;p-hydroxymandelate synthase&lt;br&gt;Location: 31847 - 32899" locus_tag="ATV95608.1" class="clusterblast-orf" id="dummy-1_h1_6_20"  />
</g>
<g id="a1_0021"  >
<polygon points="253,85 255,80 255,90 253,85 " style="fill:white; stroke-width:1; stroke:black; " description="&lt;b&gt;ATV95609.1&lt;/b&gt;&lt;br&gt;MbtH-like protein&lt;br&gt;Location: 32946 - 33152" locus_tag="ATV95609.1" class="clusterblast-orf" id="dummy-1_h1_6_21"  />
</g>
<g id="a1_0022"  >
<polygon points="255,85 260,80 272,80 272,90 260,90 255,85 " style="fill:white; stroke-width:1; stroke:black; " description="&lt;b&gt;ATV95610.1&lt;/b&gt;&lt;br&gt;NRPS A-PCP didomain protein&lt;br&gt;Location: 33163 - 34893" locus_tag="ATV95610.1" class="clusterblast-orf" id="dummy-1_h1_6_22"  />
</g>
<g id="a1_0023"  >
<polygon points="273,85 278,80 286,80 286,90 278,90 273,85 " style="fill:white; stroke-width:1; stroke:black; " description="&lt;b&gt;ATV95611.1&lt;/b&gt;&lt;br&gt;epoxidase&lt;br&gt;Location: 35001 - 36332" locus_tag="ATV95611.1" class="clusterblast-orf" id="dummy-1_h1_6_23"  />
</g>
<g id="a1_0024"  >
<polygon points="288,85 293,80 296,80 296,90 293,90 288,85 " style="fill:white; stroke-width:1; stroke:black; " description="&lt;b&gt;ATV95612.1&lt;/b&gt;&lt;br&gt;NADP-dependent dehydrogenase&lt;br&gt;Location: 36575 - 37363" locus_tag="ATV95612.1" class="clusterblast-orf" id="dummy-1_h1_6_24"  />
</g>
<g id="a1_0025"  >
<polygon points="298,85 303,80 306,80 306,90 303,90 298,85 " style="fill:white; stroke-width:1; stroke:black; " description="&lt;b&gt;ATV95613.1&lt;/b&gt;&lt;br&gt;NADP-dependent 3-hydroxy acid dehydrogenase&lt;br&gt;Location: 37591 - 38379" locus_tag="ATV95613.1" class="clusterblast-orf" id="dummy-1_h1_6_25"  />
</g>
<g id="a1_0026"  >
<polygon points="307,85 312,80 320,80 320,90 312,90 307,85 " style="fill:white; stroke-width:1; stroke:black; " description="&lt;b&gt;ATV95614.1&lt;/b&gt;&lt;br&gt;RNA polymerase sigma-70 factor&lt;br&gt;Location: 38474 - 39838" locus_tag="ATV95614.1" class="clusterblast-orf" id="dummy-1_h1_6_26"  />
</g>
<g id="a1_0027"  >
<polygon points="323,90 328,90 333,85 328,80 323,80 323,90 " style="fill:white; stroke-width:1; stroke:black; " description="&lt;b&gt;ATV95615.1&lt;/b&gt;&lt;br&gt;C-methyltransferase&lt;br&gt;Location: 40113 - 41153" locus_tag="ATV95615.1" class="clusterblast-orf" id="dummy-1_h1_6_27"  />
</g>
<g id="a1_0028"  >
<polygon points="334,90 380,90 385,85 380,80 334,80 334,90 " style="fill:white; stroke-width:1; stroke:black; " description="&lt;b&gt;ATV95616.1&lt;/b&gt;&lt;br&gt;6-methylsalicylic acid synthase&lt;br&gt;Location: 41251 - 46473" locus_tag="ATV95616.1" class="clusterblast-orf" id="dummy-1_h1_6_28"  />
</g>
<g id="a1_0029"  >
<polygon points="385,90 396,90 401,85 396,80 385,80 385,90 " style="fill:white; stroke-width:1; stroke:black; " description="&lt;b&gt;ATV95617.1&lt;/b&gt;&lt;br&gt;CoA ligase&lt;br&gt;Location: 46470 - 48128" locus_tag="ATV95617.1" class="clusterblast-orf" id="dummy-1_h1_6_29"  />
</g>
<g id="a1_0030"  >
<polygon points="403,85 408,80 409,80 409,90 408,90 403,85 " style="fill:white; stroke-width:1; stroke:black; " description="&lt;b&gt;ATV95618.1&lt;/b&gt;&lt;br&gt;thiol peroxidase&lt;br&gt;Location: 48400 - 48939" locus_tag="ATV95618.1" class="clusterblast-orf" id="dummy-1_h1_6_30"  />
</g>
<g id="a1_0031"  >
<polygon points="409,85 413,80 413,90 409,85 " style="fill:white; stroke-width:1; stroke:black; " description="&lt;b&gt;ATV95619.1&lt;/b&gt;&lt;br&gt;hypothetical protein&lt;br&gt;Location: 48952 - 49407" locus_tag="ATV95619.1" class="clusterblast-orf" id="dummy-1_h1_6_31"  />
</g>
<g id="a1_0032"  >
<polygon points="416,90 420,85 416,80 416,90 " style="fill:white; stroke-width:1; stroke:black; " description="&lt;b&gt;ATV95620.1&lt;/b&gt;&lt;br&gt;hypothetical protein&lt;br&gt;Location: 49646 - 50113" locus_tag="ATV95620.1" class="clusterblast-orf" id="dummy-1_h1_6_32"  />
</g>
<g id="a1_0033"  >
<polygon points="420,90 420,90 425,85 420,80 420,80 420,90 " style="fill:white; stroke-width:1; stroke:black; " description="&lt;b&gt;ATV95621.1&lt;/b&gt;&lt;br&gt;hypothetical protein&lt;br&gt;Location: 50137 - 50613" locus_tag="ATV95621.1" class="clusterblast-orf" id="dummy-1_h1_6_33"  />
</g>
<g id="a1_0034"  >
<polygon points="426,90 439,90 444,85 439,80 426,80 426,90 " style="fill:white; stroke-width:1; stroke:black; " description="&lt;b&gt;ATV95622.1&lt;/b&gt;&lt;br&gt;DNA ligase&lt;br&gt;Location: 50762 - 52531" locus_tag="ATV95622.1" class="clusterblast-orf" id="dummy-1_h1_6_34"  />
</g>
<g id="a1_0035"  >
<polygon points="444,90 447,85 444,80 444,90 " style="fill:white; stroke-width:1; stroke:black; " description="&lt;b&gt;ATV95623.1&lt;/b&gt;&lt;br&gt;DNA ligase&lt;br&gt;Location: 52528 - 52875" locus_tag="ATV95623.1" class="clusterblast-orf" id="dummy-1_h1_6_35"  />
</g>
<g id="a1_0036"  >
<polygon points="448,85 452,80 452,90 448,85 " style="fill:white; stroke-width:1; stroke:black; " description="&lt;b&gt;ATV95624.1&lt;/b&gt;&lt;br&gt;apoprotein&lt;br&gt;Location: 52932 - 53354" locus_tag="ATV95624.1" class="clusterblast-orf" id="dummy-1_h1_6_36"  />
</g>
<g id="a1_0037"  >
<polygon points="454,90 462,90 467,85 462,80 454,80 454,90 " style="fill:white; stroke-width:1; stroke:black; " description="&lt;b&gt;ATV95625.1&lt;/b&gt;&lt;br&gt;sodium:proton exchanger&lt;br&gt;Location: 53548 - 54921" locus_tag="ATV95625.1" class="clusterblast-orf" id="dummy-1_h1_6_37"  />
</g>
<g id="a1_0038"  >
<polygon points="468,85 473,80 473,80 473,90 473,90 468,85 " style="fill:white; stroke-width:1; stroke:black; " description="&lt;b&gt;ATV95626.1&lt;/b&gt;&lt;br&gt;peroxidase&lt;br&gt;Location: 54968 - 55513" locus_tag="ATV95626.1" class="clusterblast-orf" id="dummy-1_h1_6_38"  />
</g>
<g id="a1_0039"  >
<polygon points="473,85 477,80 477,90 473,85 " style="fill:white; stroke-width:1; stroke:black; " description="&lt;b&gt;ATV95627.1&lt;/b&gt;&lt;br&gt;hypothetical protein&lt;br&gt;Location: 55485 - 55943" locus_tag="ATV95627.1" class="clusterblast-orf" id="dummy-1_h1_6_39"  />
</g>
<g id="a1_0040"  >
<polygon points="477,85 482,80 490,80 490,90 482,90 477,85 " style="fill:white; stroke-width:1; stroke:black; " description="&lt;b&gt;ATV95628.1&lt;/b&gt;&lt;br&gt;pyridine nucleotide-disulfide oxidoreductase&lt;br&gt;Location: 55936 - 57279" locus_tag="ATV95628.1" class="clusterblast-orf" id="dummy-1_h1_6_40"  />
</g>
<g id="a1_0041"  >
<polygon points="490,85 495,80 496,80 496,90 495,90 490,85 " style="fill:white; stroke-width:1; stroke:black; " description="&lt;b&gt;ATV95629.1&lt;/b&gt;&lt;br&gt;hypothetical protein&lt;br&gt;Location: 57311 - 57859" locus_tag="ATV95629.1" class="clusterblast-orf" id="dummy-1_h1_6_41"  />
</g>
<g id="a1_0042"  >
<polygon points="498,85 501,80 501,90 498,85 " style="fill:white; stroke-width:1; stroke:black; " description="&lt;b&gt;ATV95630.1&lt;/b&gt;&lt;br&gt;hypothetical protein&lt;br&gt;Location: 58051 - 58395" locus_tag="ATV95630.1" class="clusterblast-orf" id="dummy-1_h1_6_42"  />
</g>
<g id="a1_0043"  >
<polygon points="502,85 504,80 504,90 502,85 " style="fill:white; stroke-width:1; stroke:black; " description="&lt;b&gt;ATV95631.1&lt;/b&gt;&lt;br&gt;hypothetical protein&lt;br&gt;Location: 58503 - 58661" locus_tag="ATV95631.1" class="clusterblast-orf" id="dummy-1_h1_6_43"  />
</g>
<g id="a1_0044"  >
<polygon points="505,90 507,85 505,80 505,90 " style="fill:white; stroke-width:1; stroke:black; " description="&lt;b&gt;ATV95632.1&lt;/b&gt;&lt;br&gt;hypothetical protein&lt;br&gt;Location: 58840 - 59025" locus_tag="ATV95632.1" class="clusterblast-orf" id="dummy-1_h1_6_44"  />
</g>
<g id="a1_0045"  >
<polygon points="508,85 510,80 510,90 508,85 " style="fill:white; stroke-width:1; stroke:black; " description="&lt;b&gt;ATV95633.1&lt;/b&gt;&lt;br&gt;acetyl-CoA carboxylase&lt;br&gt;Location: 59101 - 59322" locus_tag="ATV95633.1" class="clusterblast-orf" id="dummy-1_h1_6_45"  />
</g>
<g id="a1_0046"  >
<polygon points="510,85 515,80 527,80 527,90 515,90 510,85 " style="fill:white; stroke-width:1; stroke:black; " description="&lt;b&gt;ATV95634.1&lt;/b&gt;&lt;br&gt;methylmalonyl-CoA carboxyltransferase&lt;br&gt;Location: 59339 - 61042" locus_tag="ATV95634.1" class="clusterblast-orf" id="dummy-1_h1_6_46"  />
</g>
<g id="a1_0047"  >
<polygon points="527,85 529,80 529,90 527,85 " style="fill:white; stroke-width:1; stroke:black; " description="&lt;b&gt;ATV95635.1&lt;/b&gt;&lt;br&gt;hypothetical protein&lt;br&gt;Location: 61039 - 61254" locus_tag="ATV95635.1" class="clusterblast-orf" id="dummy-1_h1_6_47"  />
</g>
<g id="a1_0048"  >
<polygon points="529,85 534,80 539,80 539,90 534,90 529,85 " style="fill:white; stroke-width:1; stroke:black; " description="&lt;b&gt;ATV95636.1&lt;/b&gt;&lt;br&gt;NAD-dependent epimerase/dehydratase&lt;br&gt;Location: 61251 - 62330" locus_tag="ATV95636.1" class="clusterblast-orf" id="dummy-1_h1_6_48"  />
</g>
<g id="a1_0049"  >
<polygon points="540,85 545,80 545,80 545,90 545,90 540,85 " style="fill:#d81515; stroke-width:1; stroke:black; " description="&lt;b&gt;ATV95637.1&lt;/b&gt;&lt;br&gt;FAD-dependent monooxygenase&lt;br&gt;Location: 62346 - 62918&lt;br&gt;&lt;br&gt;&lt;b&gt;BlastP hit with cds970_1519&lt;/b&gt;&lt;br&gt;Percentage identity: 47&lt;br&gt;Percentage coverage: 89&lt;br&gt;BLAST bit score: 158&lt;br&gt;E-value: 1.1e-38" locus_tag="ATV95637.1" class="clusterblast-orf" id="dummy-1_h1_6_49"  />
</g>
<g id="a1_0050"  >
<polygon points="545,85 550,80 550,80 550,90 550,90 545,85 " style="fill:#4dd815; stroke-width:1; stroke:black; " description="&lt;b&gt;ATV95638.1&lt;/b&gt;&lt;br&gt;Thioesterase&lt;br&gt;Location: 62920 - 63369&lt;br&gt;&lt;br&gt;&lt;b&gt;BlastP hit with cds1515_1989&lt;/b&gt;&lt;br&gt;Percentage identity: 47&lt;br&gt;Percentage coverage: 87&lt;br&gt;BLAST bit score: 126&lt;br&gt;E-value: 5e-29" locus_tag="ATV95638.1" class="clusterblast-orf" id="dummy-1_h1_6_50"  />
</g>
<g id="a1_0051"  >
<polygon points="550,85 555,80 606,80 606,90 555,90 550,85 " style="fill:#1585d8; stroke-width:1; stroke:black; " description="&lt;b&gt;ATV95639.1&lt;/b&gt;&lt;br&gt;type I PKS&lt;br&gt;Location: 63372 - 69191&lt;br&gt;&lt;br&gt;&lt;b&gt;BlastP hit with cds1985_7793&lt;/b&gt;&lt;br&gt;Percentage identity: 55&lt;br&gt;Percentage coverage: 100&lt;br&gt;BLAST bit score: 1922&lt;br&gt;E-value: 0.0" locus_tag="ATV95639.1" class="clusterblast-orf" id="dummy-1_h1_6_51"  />
</g>
<g id="a1_0052"  >
<polygon points="609,85 614,80 617,80 617,90 614,90 609,85 " style="fill:white; stroke-width:1; stroke:black; " description="&lt;b&gt;ATV95640.1&lt;/b&gt;&lt;br&gt;hypothetical protein&lt;br&gt;Location: 69443 - 70237" locus_tag="ATV95640.1" class="clusterblast-orf" id="dummy-1_h1_6_52"  />
</g>
<g id="a1_0053"  >
<polygon points="619,85 624,80 625,80 625,90 624,90 619,85 " style="fill:white; stroke-width:1; stroke:black; " description="&lt;b&gt;ATV95641.1&lt;/b&gt;&lt;br&gt;alkylhydroperoxidase like protein&lt;br&gt;Location: 70454 - 71053" locus_tag="ATV95641.1" class="clusterblast-orf" id="dummy-1_h1_6_53"  />
</g>
<g id="a1_0054"  >
<polygon points="624,85 629,80 630,80 630,90 629,90 624,85 " style="fill:white; stroke-width:1; stroke:black; " description="&lt;b&gt;ATV95642.1&lt;/b&gt;&lt;br&gt;alkyhydroperoxidase&lt;br&gt;Location: 71029 - 71595" locus_tag="ATV95642.1" class="clusterblast-orf" id="dummy-1_h1_6_54"  />
</g>
<g id="a1_0055"  >
<polygon points="630,85 635,80 646,80 646,90 635,90 630,85 " style="fill:white; stroke-width:1; stroke:black; " description="&lt;b&gt;ATV95643.1&lt;/b&gt;&lt;br&gt;Oxidoreductase&lt;br&gt;Location: 71595 - 73247" locus_tag="ATV95643.1" class="clusterblast-orf" id="dummy-1_h1_6_55"  />
</g>
<g id="a1_0056"  >
<polygon points="646,85 651,80 652,80 652,90 651,90 646,85 " style="fill:white; stroke-width:1; stroke:black; " description="&lt;b&gt;ATV95644.1&lt;/b&gt;&lt;br&gt;Regulatory&lt;br&gt;Location: 73244 - 73825" locus_tag="ATV95644.1" class="clusterblast-orf" id="dummy-1_h1_6_56"  />
</g>
<g id="a1_0057"  >
<polygon points="652,85 657,80 665,80 665,90 657,90 652,85 " style="fill:white; stroke-width:1; stroke:black; " description="&lt;b&gt;ATV95645.1&lt;/b&gt;&lt;br&gt;P450 hydroxylase&lt;br&gt;Location: 73861 - 75237" locus_tag="ATV95645.1" class="clusterblast-orf" id="dummy-1_h1_6_57"  />
</g>
<g id="a1_0058"  >
<polygon points="665,85 670,80 675,80 675,90 670,90 665,85 " style="fill:#a115d8; stroke-width:1; stroke:black; " description="&lt;b&gt;ATV95646.1&lt;/b&gt;&lt;br&gt;hypothetical protein&lt;br&gt;Location: 75234 - 76238&lt;br&gt;&lt;br&gt;&lt;b&gt;BlastP hit with cds7789_8875&lt;/b&gt;&lt;br&gt;Percentage identity: 63&lt;br&gt;Percentage coverage: 91&lt;br&gt;BLAST bit score: 399&lt;br&gt;E-value: 5.4e-111" locus_tag="ATV95646.1" class="clusterblast-orf" id="dummy-1_h1_6_58"  />
</g>
<g id="a1_0059"  >
<polygon points="675,85 680,80 694,80 694,90 680,90 675,85 " style="fill:#d86915; stroke-width:1; stroke:black; " description="&lt;b&gt;ATV95647.1&lt;/b&gt;&lt;br&gt;hypothetical protein&lt;br&gt;Location: 76240 - 78213&lt;br&gt;&lt;br&gt;&lt;b&gt;BlastP hit with cds8876_10805&lt;/b&gt;&lt;br&gt;Percentage identity: 56&lt;br&gt;Percentage coverage: 103&lt;br&gt;BLAST bit score: 746&lt;br&gt;E-value: 3.2e-215" locus_tag="ATV95647.1" class="clusterblast-orf" id="dummy-1_h1_6_59"  />
</g>
<g id="a1_0060"  >
<polygon points="694,85 699,80 704,80 704,90 699,90 694,85 " style="fill:#15d831; stroke-width:1; stroke:black; " description="&lt;b&gt;ATV95648.1&lt;/b&gt;&lt;br&gt;hypothetical protein&lt;br&gt;Location: 78210 - 79193&lt;br&gt;&lt;br&gt;&lt;b&gt;BlastP hit with cds10801_11788&lt;/b&gt;&lt;br&gt;Percentage identity: 58&lt;br&gt;Percentage coverage: 96&lt;br&gt;BLAST bit score: 358&lt;br&gt;E-value: 1.6e-98" locus_tag="ATV95648.1" class="clusterblast-orf" id="dummy-1_h1_6_60"  />
</g>
<g id="a1_0061"  >
<polygon points="705,85 710,80 715,80 715,90 710,90 705,85 " style="fill:#1531d8; stroke-width:1; stroke:black; " description="&lt;b&gt;ATV95649.1&lt;/b&gt;&lt;br&gt;hypothetical protein&lt;br&gt;Location: 79300 - 80295&lt;br&gt;&lt;br&gt;&lt;b&gt;BlastP hit with cds11883_12864&lt;/b&gt;&lt;br&gt;Percentage identity: 61&lt;br&gt;Percentage coverage: 98&lt;br&gt;BLAST bit score: 374&lt;br&gt;E-value: 1.3e-103" locus_tag="ATV95649.1" class="clusterblast-orf" id="dummy-1_h1_6_61"  />
</g>
<g id="a1_0062"  >
<polygon points="715,85 720,80 724,80 724,90 720,90 715,85 " style="fill:white; stroke-width:1; stroke:black; " description="&lt;b&gt;ATV95650.1&lt;/b&gt;&lt;br&gt;regulatory protein&lt;br&gt;Location: 80321 - 81241" locus_tag="ATV95650.1" class="clusterblast-orf" id="dummy-1_h1_6_62"  />
</g>
<g id="a1_0063"  >
<polygon points="729,90 732,90 737,85 732,80 729,80 729,90 " style="fill:white; stroke-width:1; stroke:black; " description="&lt;b&gt;ATV95651.1&lt;/b&gt;&lt;br&gt;transcriptional regulator&lt;br&gt;Location: 81745 - 82581" locus_tag="ATV95651.1" class="clusterblast-orf" id="dummy-1_h1_6_63"  />
</g>
<g id="a1_0064"  >
<polygon points="738,90 739,90 744,85 739,80 738,80 738,90 " style="fill:white; stroke-width:1; stroke:black; " description="&lt;b&gt;ATV95652.1&lt;/b&gt;&lt;br&gt;HxlR family transcriptional regulator&lt;br&gt;Location: 82634 - 83329" locus_tag="ATV95652.1" class="clusterblast-orf" id="dummy-1_h1_6_64"  />
</g>
<g id="a1_0065"  >
<polygon points="745,85 750,80 757,80 757,90 750,90 745,85 " style="fill:white; stroke-width:1; stroke:black; " description="&lt;b&gt;ATV95653.1&lt;/b&gt;&lt;br&gt;RNA polymerase sigma factor&lt;br&gt;Location: 83427 - 84638" locus_tag="ATV95653.1" class="clusterblast-orf" id="dummy-1_h1_6_65"  />
</g>
<g id="a1_0066"  >
<polygon points="757,85 761,80 761,90 757,85 " style="fill:white; stroke-width:1; stroke:black; " description="&lt;b&gt;ATV95654.1&lt;/b&gt;&lt;br&gt;hypothetical protein&lt;br&gt;Location: 84635 - 85024" locus_tag="ATV95654.1" class="clusterblast-orf" id="dummy-1_h1_6_66"  />
</g>
<g id="a1_0067"  >
<polygon points="762,90 764,90 769,85 764,80 762,80 762,90 " style="fill:white; stroke-width:1; stroke:black; " description="&lt;b&gt;ATV95655.1&lt;/b&gt;&lt;br&gt;hypothetical protein&lt;br&gt;Location: 85153 - 85854" locus_tag="ATV95655.1" class="clusterblast-orf" id="dummy-1_h1_6_67"  />
</g>
<g id="a1_0068"  >
<polygon points="769,85 774,80 775,80 775,90 774,90 769,85 " style="fill:white; stroke-width:1; stroke:black; " description="&lt;b&gt;ATV95656.1&lt;/b&gt;&lt;br&gt;tRNA threonylcarbamoyl adenosine modification protein&lt;br&gt;Location: 85858 - 86478" locus_tag="ATV95656.1" class="clusterblast-orf" id="dummy-1_h1_6_68"  />
</g>
<g id="a1_0069"  >
<polygon points="776,90 780,85 776,80 776,90 " style="fill:white; stroke-width:1; stroke:black; " description="&lt;b&gt;ATV95657.1&lt;/b&gt;&lt;br&gt;hypothetical protein&lt;br&gt;Location: 86621 - 86932" locus_tag="ATV95657.1" class="clusterblast-orf" id="dummy-1_h1_6_69"  />
</g>
</svg>
