<svg xmlns="http://www.w3.org/2000/svg" xmlns:xlink="http://www.w3.org/1999/xlink" version="1.1" x="0" y="0" height="230" width="800" viewBox="0 0 800 230" preserveAspectRatio="none"  >
<g label="Query sequence" class="clusterblast-cluster"  >
<text x="5" y="20" class="clusterblast-acc"  >
Query sequence</text>
<line x1="10" y1="35" x2="778.0" y2="35" style="stroke-width:1; stroke:grey; "  />
<polygon points="248,40 253,40 258,35 253,30 248,30 248,40 " style="fill:white; stroke-width:1; stroke:black; " description="&lt;b&gt;cds188_1109&lt;/b&gt;&lt;br&gt;hypothetical protein&lt;br&gt;Location: 188 - 1109" locus_tag="cds188_1109" class="clusterblast-orf" id="dummy-1_q0_0_all"  />
<polygon points="257,35 262,30 262,30 262,40 262,40 257,35 " style="fill:#d81515; stroke-width:1; stroke:black; " description="&lt;b&gt;cds970_1519&lt;/b&gt;&lt;br&gt;FMN reductase (NADH) NtaB&lt;br&gt;Location: 970 - 1519" locus_tag="cds970_1519" class="clusterblast-orf" id="dummy-1_q1_0_all"  />
<polygon points="262,35 267,30 267,30 267,40 267,40 262,35 " style="fill:#4dd815; stroke-width:1; stroke:black; " description="&lt;b&gt;cds1515_1989&lt;/b&gt;&lt;br&gt;hypothetical protein&lt;br&gt;Location: 1515 - 1989" locus_tag="cds1515_1989" class="clusterblast-orf" id="dummy-1_q2_0_all"  />
<polygon points="267,35 272,30 329,30 329,40 272,40 267,35 " style="fill:#1585d8; stroke-width:1; stroke:black; " description="&lt;b&gt;cds1985_7793&lt;/b&gt;&lt;br&gt;hypothetical protein&lt;br&gt;Location: 1985 - 7793" locus_tag="cds1985_7793" class="clusterblast-orf" id="dummy-1_q3_0_all"  />
<polygon points="329,35 334,30 341,30 341,40 334,40 329,35 " style="fill:#a115d8; stroke-width:1; stroke:black; " description="&lt;b&gt;cds7789_8875&lt;/b&gt;&lt;br&gt;hypothetical protein&lt;br&gt;Location: 7789 - 8875" locus_tag="cds7789_8875" class="clusterblast-orf" id="dummy-1_q4_0_all"  />
<polygon points="341,35 346,30 362,30 362,40 346,40 341,35 " style="fill:#d86915; stroke-width:1; stroke:black; " description="&lt;b&gt;cds8876_10805&lt;/b&gt;&lt;br&gt;hypothetical protein&lt;br&gt;Location: 8876 - 10805" locus_tag="cds8876_10805" class="clusterblast-orf" id="dummy-1_q5_0_all"  />
<polygon points="362,35 367,30 372,30 372,40 367,40 362,35 " style="fill:#15d831; stroke-width:1; stroke:black; " description="&lt;b&gt;cds10801_11788&lt;/b&gt;&lt;br&gt;hypothetical protein&lt;br&gt;Location: 10801 - 11788" locus_tag="cds10801_11788" class="clusterblast-orf" id="dummy-1_q6_0_all"  />
<polygon points="373,35 378,30 384,30 384,40 378,40 373,35 " style="fill:#1531d8; stroke-width:1; stroke:black; " description="&lt;b&gt;cds11883_12864&lt;/b&gt;&lt;br&gt;hypothetical protein&lt;br&gt;Location: 11883 - 12864" locus_tag="cds11883_12864" class="clusterblast-orf" id="dummy-1_q7_0_all"  />
<polygon points="385,35 390,30 390,30 390,40 390,40 385,35 " style="fill:#d815bc; stroke-width:1; stroke:black; " description="&lt;b&gt;cds13002_13446&lt;/b&gt;&lt;br&gt;putative HTH-type transcriptional regulator&lt;br&gt;Location: 13002 - 13446" locus_tag="cds13002_13446" class="clusterblast-orf" id="dummy-1_q8_0_all"  />
<polygon points="391,40 392,40 397,35 392,30 391,30 391,40 " style="fill:#d8bc15; stroke-width:1; stroke:black; " description="&lt;b&gt;cds13584_14148&lt;/b&gt;&lt;br&gt;hypothetical protein&lt;br&gt;Location: 13584 - 14148" locus_tag="cds13584_14148" class="clusterblast-orf" id="dummy-1_q9_0_all"  />
<polygon points="398,40 398,40 403,35 398,30 398,30 398,40 " style="fill:#15d885; stroke-width:1; stroke:black; " description="&lt;b&gt;cds14158_14632&lt;/b&gt;&lt;br&gt;hypothetical protein&lt;br&gt;Location: 14158 - 14632" locus_tag="cds14158_14632" class="clusterblast-orf" id="dummy-1_q10_0_all"  />
<polygon points="405,35 410,30 419,30 419,40 410,40 405,35 " style="fill:#4d15d8; stroke-width:1; stroke:black; " description="&lt;b&gt;cds14902_16138&lt;/b&gt;&lt;br&gt;IS701 family transposase ISSav4&lt;br&gt;Location: 14902 - 16138" locus_tag="cds14902_16138" class="clusterblast-orf" id="dummy-1_q11_0_all"  />
<polygon points="422,40 423,40 428,35 423,30 422,30 422,40 " style="fill:white; stroke-width:1; stroke:black; " description="&lt;b&gt;cds16456_17056&lt;/b&gt;&lt;br&gt;A-factor receptor protein&lt;br&gt;Location: 16456 - 17056" locus_tag="cds16456_17056" class="clusterblast-orf" id="dummy-1_q12_0_all"  />
<polygon points="430,35 435,30 438,30 438,40 435,40 430,35 " style="fill:white; stroke-width:1; stroke:black; " description="&lt;b&gt;cds17181_17952&lt;/b&gt;&lt;br&gt;A-factor type gamma-butyrolactone 1'-reductase (1S-forming)&lt;br&gt;Location: 17181 - 17952" locus_tag="cds17181_17952" class="clusterblast-orf" id="dummy-1_q13_0_all"  />
<polygon points="440,35 445,30 447,30 447,40 445,40 440,35 " style="fill:white; stroke-width:1; stroke:black; " description="&lt;b&gt;cds18115_18766&lt;/b&gt;&lt;br&gt;A-factor receptor protein&lt;br&gt;Location: 18115 - 18766" locus_tag="cds18115_18766" class="clusterblast-orf" id="dummy-1_q14_0_all"  />
<polygon points="448,40 453,40 458,35 453,30 448,30 448,40 " style="fill:white; stroke-width:1; stroke:black; " description="&lt;b&gt;cds18885_19803&lt;/b&gt;&lt;br&gt;hypothetical protein&lt;br&gt;Location: 18885 - 19803" locus_tag="cds18885_19803" class="clusterblast-orf" id="dummy-1_q15_0_all"  />
<polygon points="461,40 472,40 477,35 472,30 461,30 461,40 " style="fill:#d81569; stroke-width:1; stroke:black; " description="&lt;b&gt;cds20145_21585&lt;/b&gt;&lt;br&gt;hypothetical protein&lt;br&gt;Location: 20145 - 21585" locus_tag="cds20145_21585" class="clusterblast-orf" id="dummy-1_q16_0_all"  />
<polygon points="479,35 484,30 484,30 484,40 484,40 479,35 " style="fill:white; stroke-width:1; stroke:black; " description="&lt;b&gt;cds21807_22245&lt;/b&gt;&lt;br&gt;hypothetical protein&lt;br&gt;Location: 21807 - 22245" locus_tag="cds21807_22245" class="clusterblast-orf" id="dummy-1_q17_0_all"  />
<polygon points="485,35 490,30 494,30 494,40 490,40 485,35 " style="fill:#a1d815; stroke-width:1; stroke:black; " description="&lt;b&gt;cds22347_23226&lt;/b&gt;&lt;br&gt;hypothetical protein&lt;br&gt;Location: 22347 - 23226" locus_tag="cds22347_23226" class="clusterblast-orf" id="dummy-1_q18_0_all"  />
<polygon points="498,35 503,30 503,30 503,40 503,40 498,35 " style="fill:#15d8d8; stroke-width:1; stroke:black; " description="&lt;b&gt;cds23601_24003&lt;/b&gt;&lt;br&gt;hypothetical protein&lt;br&gt;Location: 23601 - 24003" locus_tag="cds23601_24003" class="clusterblast-orf" id="dummy-1_q19_0_all"  />
<polygon points="503,35 508,30 519,30 519,40 508,40 503,35 " style="fill:#d81569; stroke-width:1; stroke:black; " description="&lt;b&gt;cds23999_25532&lt;/b&gt;&lt;br&gt;hypothetical protein&lt;br&gt;Location: 23999 - 25532" locus_tag="cds23999_25532" class="clusterblast-orf" id="dummy-1_q20_0_all"  />
<polygon points="519,35 524,30 531,30 531,40 524,40 519,35 " style="fill:white; stroke-width:1; stroke:black; " description="&lt;b&gt;cds25521_26649&lt;/b&gt;&lt;br&gt;hypothetical protein&lt;br&gt;Location: 25521 - 26649" locus_tag="cds25521_26649" class="clusterblast-orf" id="dummy-1_q21_0_all"  />
</g>
<g label="BGC0001584" description="BGC0001584_c1: C-1027 (19% of genes show similarity), Polyketide" class="clusterblast-cluster"  >
<text x="5" y="70" class="clusterblast-acc"  >
<a xlink:href="https://mibig.secondarymetabolites.org/go/BGC0001584/1" target="_blank">BGC0001584</a>:                                                                           C-1027 (19% of genes show similarity), Polyketide</text>
<line x1="10" y1="85" x2="778.0" y2="85" style="stroke-width:1; stroke:grey; "  />
</g>
<g id="a1_000"  >
<polygon points="0,90 9,90 14,85 9,80 0,80 0,90 " style="fill:white; stroke-width:1; stroke:black; " description="&lt;b&gt;ANY94423.1&lt;/b&gt;&lt;br&gt;glycerol phosphate ABC transporter&lt;br&gt;Location: 121 - 1491" locus_tag="ANY94423.1" class="clusterblast-orf" id="dummy-1_h1_2_0"  />
</g>
<g id="a1_001"  >
<polygon points="16,85 21,80 41,80 41,90 21,90 16,85 " style="fill:white; stroke-width:1; stroke:black; " description="&lt;b&gt;ANY94424.1&lt;/b&gt;&lt;br&gt;UvrA-like drug resistance pump&lt;br&gt;Location: 1631 - 3958" locus_tag="ANY94424.1" class="clusterblast-orf" id="dummy-1_h1_2_1"  />
</g>
<g id="a1_002"  >
<polygon points="41,85 46,80 56,80 56,90 46,90 41,85 " style="fill:white; stroke-width:1; stroke:black; " description="&lt;b&gt;ANY94425.1&lt;/b&gt;&lt;br&gt;Na/H efflux pump&lt;br&gt;Location: 4038 - 5423" locus_tag="ANY94425.1" class="clusterblast-orf" id="dummy-1_h1_2_2"  />
</g>
<g id="a1_003"  >
<polygon points="56,85 61,80 72,80 72,90 61,90 56,85 " style="fill:white; stroke-width:1; stroke:black; " description="&lt;b&gt;ANY94426.1&lt;/b&gt;&lt;br&gt;alkylhalidase&lt;br&gt;Location: 5410 - 6894" locus_tag="ANY94426.1" class="clusterblast-orf" id="dummy-1_h1_2_3"  />
</g>
<g id="a1_004"  >
<polygon points="74,90 80,90 85,85 80,80 74,80 74,90 " style="fill:white; stroke-width:1; stroke:black; " description="&lt;b&gt;ANY94427.1&lt;/b&gt;&lt;br&gt;dNTP-glucose synthase&lt;br&gt;Location: 7077 - 8144" locus_tag="ANY94427.1" class="clusterblast-orf" id="dummy-1_h1_2_4"  />
</g>
<g id="a1_005"  >
<polygon points="87,85 91,80 91,90 87,85 " style="fill:white; stroke-width:1; stroke:black; " description="&lt;b&gt;ANY94428.1&lt;/b&gt;&lt;br&gt;apoprotein&lt;br&gt;Location: 8277 - 8708" locus_tag="ANY94428.1" class="clusterblast-orf" id="dummy-1_h1_2_5"  />
</g>
<g id="a1_006"  >
<polygon points="92,85 97,80 105,80 105,90 97,90 92,85 " style="fill:white; stroke-width:1; stroke:black; " description="&lt;b&gt;ANY94429.1&lt;/b&gt;&lt;br&gt;amino transferase&lt;br&gt;Location: 8755 - 9987" locus_tag="ANY94429.1" class="clusterblast-orf" id="dummy-1_h1_2_6"  />
</g>
<g id="a1_007"  >
<polygon points="105,85 110,80 113,80 113,90 110,90 105,85 " style="fill:white; stroke-width:1; stroke:black; " description="&lt;b&gt;ANY94430.1&lt;/b&gt;&lt;br&gt;N-methyl transferase&lt;br&gt;Location: 9984 - 10718" locus_tag="ANY94430.1" class="clusterblast-orf" id="dummy-1_h1_2_7"  />
</g>
<g id="a1_008"  >
<polygon points="113,85 118,80 126,80 126,90 118,90 113,85 " style="fill:white; stroke-width:1; stroke:black; " description="&lt;b&gt;ANY94431.1&lt;/b&gt;&lt;br&gt;C-methyltransferase&lt;br&gt;Location: 10718 - 11989" locus_tag="ANY94431.1" class="clusterblast-orf" id="dummy-1_h1_2_8"  />
</g>
<g id="a1_009"  >
<polygon points="127,85 132,80 140,80 140,90 132,90 127,85 " style="fill:white; stroke-width:1; stroke:black; " description="&lt;b&gt;ANY94432.1&lt;/b&gt;&lt;br&gt;epoxide hydrolase&lt;br&gt;Location: 12095 - 13252" locus_tag="ANY94432.1" class="clusterblast-orf" id="dummy-1_h1_2_9"  />
</g>
<g id="a1_0010"  >
<polygon points="141,85 146,80 148,80 148,90 146,90 141,85 " style="fill:white; stroke-width:1; stroke:black; " description="&lt;b&gt;ANY94433.1&lt;/b&gt;&lt;br&gt;anthranilate synthase II&lt;br&gt;Location: 13325 - 13987" locus_tag="ANY94433.1" class="clusterblast-orf" id="dummy-1_h1_2_10"  />
</g>
<g id="a1_0011"  >
<polygon points="148,85 153,80 163,80 163,90 153,90 148,85 " style="fill:white; stroke-width:1; stroke:black; " description="&lt;b&gt;ANY94434.1&lt;/b&gt;&lt;br&gt;anthranilate synthase I&lt;br&gt;Location: 13984 - 15465" locus_tag="ANY94434.1" class="clusterblast-orf" id="dummy-1_h1_2_11"  />
</g>
<g id="a1_0012"  >
<polygon points="164,85 169,80 179,80 179,90 169,90 164,85 " style="fill:white; stroke-width:1; stroke:black; " description="&lt;b&gt;ANY94435.1&lt;/b&gt;&lt;br&gt;phenylacetyl CoA ligase&lt;br&gt;Location: 15481 - 16935" locus_tag="ANY94435.1" class="clusterblast-orf" id="dummy-1_h1_2_12"  />
</g>
<g id="a1_0013"  >
<polygon points="179,85 184,80 186,80 186,90 184,90 179,85 " style="fill:white; stroke-width:1; stroke:black; " description="&lt;b&gt;ANY94436.1&lt;/b&gt;&lt;br&gt;2-amino-4-deoxychorismate dehydrogenase&lt;br&gt;Location: 16932 - 17603" locus_tag="ANY94436.1" class="clusterblast-orf" id="dummy-1_h1_2_13"  />
</g>
<g id="a1_0014"  >
<polygon points="187,85 192,80 201,80 201,90 192,90 187,85 " style="fill:white; stroke-width:1; stroke:black; " description="&lt;b&gt;ANY94437.1&lt;/b&gt;&lt;br&gt;3-O-acyltransferase&lt;br&gt;Location: 17622 - 18944" locus_tag="ANY94437.1" class="clusterblast-orf" id="dummy-1_h1_2_14"  />
</g>
<g id="a1_0015"  >
<polygon points="202,85 207,80 208,80 208,90 207,90 202,85 " style="fill:white; stroke-width:1; stroke:black; " description="&lt;b&gt;ANY94438.1&lt;/b&gt;&lt;br&gt;dTDP-4-dehydrorhamnose 3,5-epimerase&lt;br&gt;Location: 19043 - 19621" locus_tag="ANY94438.1" class="clusterblast-orf" id="dummy-1_h1_2_15"  />
</g>
<g id="a1_0016"  >
<polygon points="211,90 220,90 225,85 220,80 211,80 211,90 " style="fill:white; stroke-width:1; stroke:black; " description="&lt;b&gt;ANY94439.1&lt;/b&gt;&lt;br&gt;FAD-binding monooxygenase&lt;br&gt;Location: 19872 - 21218" locus_tag="ANY94439.1" class="clusterblast-orf" id="dummy-1_h1_2_16"  />
</g>
<g id="a1_0017"  >
<polygon points="225,90 235,90 240,85 235,80 225,80 225,90 " style="fill:white; stroke-width:1; stroke:black; " description="&lt;b&gt;ANY94440.1&lt;/b&gt;&lt;br&gt;glycosyl transferase&lt;br&gt;Location: 21262 - 22644" locus_tag="ANY94440.1" class="clusterblast-orf" id="dummy-1_h1_2_17"  />
</g>
<g id="a1_0018"  >
<polygon points="240,90 246,90 251,85 246,80 240,80 240,90 " style="fill:white; stroke-width:1; stroke:black; " description="&lt;b&gt;ANY94441.1&lt;/b&gt;&lt;br&gt;dNTP-glucose dehydratase&lt;br&gt;Location: 22647 - 23639" locus_tag="ANY94441.1" class="clusterblast-orf" id="dummy-1_h1_2_18"  />
</g>
<g id="a1_0019"  >
<polygon points="251,90 263,90 268,85 263,80 251,80 251,90 " style="fill:white; stroke-width:1; stroke:black; " description="&lt;b&gt;ANY94442.1&lt;/b&gt;&lt;br&gt;transmembrane efflux protein&lt;br&gt;Location: 23683 - 25248" locus_tag="ANY94442.1" class="clusterblast-orf" id="dummy-1_h1_2_19"  />
</g>
<g id="a1_0020"  >
<polygon points="269,90 278,90 283,85 278,80 269,80 269,90 " style="fill:white; stroke-width:1; stroke:black; " description="&lt;b&gt;ANY94443.1&lt;/b&gt;&lt;br&gt;coenzyme F390 synthase-like protein&lt;br&gt;Location: 25331 - 26641" locus_tag="ANY94443.1" class="clusterblast-orf" id="dummy-1_h1_2_20"  />
</g>
<g id="a1_0021"  >
<polygon points="285,90 297,90 302,85 297,80 285,80 285,90 " style="fill:white; stroke-width:1; stroke:black; " description="&lt;b&gt;ANY94444.1&lt;/b&gt;&lt;br&gt;chlorophenol-4-monooxygenase&lt;br&gt;Location: 26861 - 28444" locus_tag="ANY94444.1" class="clusterblast-orf" id="dummy-1_h1_2_21"  />
</g>
<g id="a1_0022"  >
<polygon points="303,85 308,80 312,80 312,90 308,90 303,85 " style="fill:white; stroke-width:1; stroke:black; " description="&lt;b&gt;ANY94445.1&lt;/b&gt;&lt;br&gt;hydrolase&lt;br&gt;Location: 28529 - 29365" locus_tag="ANY94445.1" class="clusterblast-orf" id="dummy-1_h1_2_22"  />
</g>
<g id="a1_0023"  >
<polygon points="314,85 319,80 319,80 319,90 319,90 314,85 " style="fill:white; stroke-width:1; stroke:black; " description="&lt;b&gt;ANY94446.1&lt;/b&gt;&lt;br&gt;hypothetical protein&lt;br&gt;Location: 29587 - 30009" locus_tag="ANY94446.1" class="clusterblast-orf" id="dummy-1_h1_2_23"  />
</g>
<g id="a1_0024"  >
<polygon points="321,90 330,90 335,85 330,80 321,80 321,90 " style="fill:white; stroke-width:1; stroke:black; " description="&lt;b&gt;ANY94447.1&lt;/b&gt;&lt;br&gt;citrate/shikimate transporter&lt;br&gt;Location: 30236 - 31561" locus_tag="ANY94447.1" class="clusterblast-orf" id="dummy-1_h1_2_24"  />
</g>
<g id="a1_0025"  >
<polygon points="336,90 346,90 351,85 346,80 336,80 336,90 " style="fill:white; stroke-width:1; stroke:black; " description="&lt;b&gt;ANY94448.1&lt;/b&gt;&lt;br&gt;C-domain type II peptide synthetase&lt;br&gt;Location: 31630 - 33012" locus_tag="ANY94448.1" class="clusterblast-orf" id="dummy-1_h1_2_25"  />
</g>
<g id="a1_0026"  >
<polygon points="351,90 354,85 351,80 351,90 " style="fill:white; stroke-width:1; stroke:black; " description="&lt;b&gt;ANY94449.1&lt;/b&gt;&lt;br&gt;type II PCP&lt;br&gt;Location: 33057 - 33338" locus_tag="ANY94449.1" class="clusterblast-orf" id="dummy-1_h1_2_26"  />
</g>
<g id="a1_0027"  >
<polygon points="356,85 361,80 373,80 373,90 361,90 356,85 " style="fill:white; stroke-width:1; stroke:black; " description="&lt;b&gt;ANY94450.1&lt;/b&gt;&lt;br&gt;MIO-dependent tyrosine 2,3-aminomutase&lt;br&gt;Location: 33442 - 35061" locus_tag="ANY94450.1" class="clusterblast-orf" id="dummy-1_h1_2_27"  />
</g>
<g id="a1_0028"  >
<polygon points="374,85 379,80 402,80 402,90 379,90 374,85 " style="fill:white; stroke-width:1; stroke:black; " description="&lt;b&gt;ANY94451.1&lt;/b&gt;&lt;br&gt;A-domain type II peptide synthetase&lt;br&gt;Location: 35130 - 37778" locus_tag="ANY94451.1" class="clusterblast-orf" id="dummy-1_h1_2_28"  />
</g>
<g id="a1_0029"  >
<polygon points="404,90 422,90 427,85 422,80 404,80 404,90 " style="fill:white; stroke-width:1; stroke:black; " description="&lt;b&gt;ANY94452.1&lt;/b&gt;&lt;br&gt;antibiotic transporter&lt;br&gt;Location: 37993 - 40101" locus_tag="ANY94452.1" class="clusterblast-orf" id="dummy-1_h1_2_29"  />
</g>
<g id="a1_0030"  >
<polygon points="428,90 434,90 439,85 434,80 428,80 428,90 " style="fill:white; stroke-width:1; stroke:black; " description="&lt;b&gt;ANY94453.1&lt;/b&gt;&lt;br&gt;O-methyltransferase&lt;br&gt;Location: 40206 - 41255" locus_tag="ANY94453.1" class="clusterblast-orf" id="dummy-1_h1_2_30"  />
</g>
<g id="a1_0031"  >
<polygon points="440,90 448,90 453,85 448,80 440,80 440,90 " style="fill:white; stroke-width:1; stroke:black; " description="&lt;b&gt;ANY94454.1&lt;/b&gt;&lt;br&gt;P450 hydroxylase&lt;br&gt;Location: 41311 - 42573" locus_tag="ANY94454.1" class="clusterblast-orf" id="dummy-1_h1_2_31"  />
</g>
<g id="a1_0032"  >
<polygon points="454,85 459,80 466,80 466,90 459,90 454,85 " style="fill:white; stroke-width:1; stroke:black; " description="&lt;b&gt;ANY94455.1&lt;/b&gt;&lt;br&gt;oxidoreductase&lt;br&gt;Location: 42640 - 43821" locus_tag="ANY94455.1" class="clusterblast-orf" id="dummy-1_h1_2_32"  />
</g>
<g id="a1_0033"  >
<polygon points="473,90 479,90 484,85 479,80 473,80 473,90 " style="fill:white; stroke-width:1; stroke:black; " description="&lt;b&gt;ANY94456.1&lt;/b&gt;&lt;br&gt;hypothetical protein&lt;br&gt;Location: 44473 - 45501" locus_tag="ANY94456.1" class="clusterblast-orf" id="dummy-1_h1_2_33"  />
</g>
<g id="a1_0034"  >
<polygon points="485,85 490,80 495,80 495,90 490,90 485,85 " style="fill:white; stroke-width:1; stroke:black; " description="&lt;b&gt;ANY94457.1&lt;/b&gt;&lt;br&gt;oxidoreductase&lt;br&gt;Location: 45526 - 46446" locus_tag="ANY94457.1" class="clusterblast-orf" id="dummy-1_h1_2_34"  />
</g>
<g id="a1_0035"  >
<polygon points="495,85 500,80 501,80 501,90 500,90 495,85 " style="fill:white; stroke-width:1; stroke:black; " description="&lt;b&gt;ANY94458.1&lt;/b&gt;&lt;br&gt;alkylhydroperoxidase&lt;br&gt;Location: 46471 - 47022" locus_tag="ANY94458.1" class="clusterblast-orf" id="dummy-1_h1_2_35"  />
</g>
<g id="a1_0036"  >
<polygon points="504,85 509,80 511,80 511,90 509,90 504,85 " style="fill:white; stroke-width:1; stroke:black; " description="&lt;b&gt;ANY94459.1&lt;/b&gt;&lt;br&gt;hypothetical protein&lt;br&gt;Location: 47345 - 47962" locus_tag="ANY94459.1" class="clusterblast-orf" id="dummy-1_h1_2_36"  />
</g>
<g id="a1_0037"  >
<polygon points="514,90 522,90 527,85 522,80 514,80 514,90 " style="fill:white; stroke-width:1; stroke:black; " description="&lt;b&gt;ANY94460.1&lt;/b&gt;&lt;br&gt;regulator&lt;br&gt;Location: 48237 - 49478" locus_tag="ANY94460.1" class="clusterblast-orf" id="dummy-1_h1_2_37"  />
</g>
<g id="a1_0038"  >
<polygon points="533,90 538,90 543,85 538,80 533,80 533,90 " style="fill:white; stroke-width:1; stroke:black; " description="&lt;b&gt;ANY94461.1&lt;/b&gt;&lt;br&gt;oxidase&lt;br&gt;Location: 50018 - 51001" locus_tag="ANY94461.1" class="clusterblast-orf" id="dummy-1_h1_2_38"  />
</g>
<g id="a1_0039"  >
<polygon points="544,85 549,80 552,80 552,90 549,90 544,85 " style="fill:white; stroke-width:1; stroke:black; " description="&lt;b&gt;ANY94462.1&lt;/b&gt;&lt;br&gt;hypothetical protein&lt;br&gt;Location: 51055 - 51858" locus_tag="ANY94462.1" class="clusterblast-orf" id="dummy-1_h1_2_39"  />
</g>
<g id="a1_0040"  >
<polygon points="555,85 560,80 560,80 560,90 560,90 555,85 " style="fill:#4dd815; stroke-width:1; stroke:black; " description="&lt;b&gt;ANY94463.1&lt;/b&gt;&lt;br&gt;type II thioesterase&lt;br&gt;Location: 52096 - 52566&lt;br&gt;&lt;br&gt;&lt;b&gt;BlastP hit with cds1515_1989&lt;/b&gt;&lt;br&gt;Percentage identity: 47&lt;br&gt;Percentage coverage: 99&lt;br&gt;BLAST bit score: 135&lt;br&gt;E-value: 6.3e-32" locus_tag="ANY94463.1" class="clusterblast-orf" id="dummy-1_h1_2_40"  />
</g>
<g id="a1_0041"  >
<polygon points="561,85 566,80 579,80 579,90 566,90 561,85 " style="fill:white; stroke-width:1; stroke:black; " description="&lt;b&gt;ANY94464.1&lt;/b&gt;&lt;br&gt;oxidoreductase&lt;br&gt;Location: 52706 - 54361" locus_tag="ANY94464.1" class="clusterblast-orf" id="dummy-1_h1_2_41"  />
</g>
<g id="a1_0042"  >
<polygon points="579,85 584,80 585,80 585,90 584,90 579,85 " style="fill:white; stroke-width:1; stroke:black; " description="&lt;b&gt;ANY94465.1&lt;/b&gt;&lt;br&gt;hypothetical protein&lt;br&gt;Location: 54358 - 54948" locus_tag="ANY94465.1" class="clusterblast-orf" id="dummy-1_h1_2_42"  />
</g>
<g id="a1_0043"  >
<polygon points="588,90 595,90 600,85 595,80 588,80 588,90 " style="fill:white; stroke-width:1; stroke:black; " description="&lt;b&gt;ANY94466.1&lt;/b&gt;&lt;br&gt;regulatory protein&lt;br&gt;Location: 55206 - 56285" locus_tag="ANY94466.1" class="clusterblast-orf" id="dummy-1_h1_2_43"  />
</g>
<g id="a1_0044"  >
<polygon points="600,90 604,90 609,85 604,80 600,80 600,90 " style="fill:white; stroke-width:1; stroke:black; " description="&lt;b&gt;ANY94467.1&lt;/b&gt;&lt;br&gt;AraC family transcriptional regulator&lt;br&gt;Location: 56311 - 57165" locus_tag="ANY94467.1" class="clusterblast-orf" id="dummy-1_h1_2_44"  />
</g>
<g id="a1_0045"  >
<polygon points="608,85 613,80 622,80 622,90 613,90 608,85 " style="fill:white; stroke-width:1; stroke:black; " description="&lt;b&gt;ANY94468.1&lt;/b&gt;&lt;br&gt;cytochrome P450&lt;br&gt;Location: 57053 - 58402" locus_tag="ANY94468.1" class="clusterblast-orf" id="dummy-1_h1_2_45"  />
</g>
<g id="a1_0046"  >
<polygon points="622,85 627,80 628,80 628,90 627,90 622,85 " style="fill:#d81515; stroke-width:1; stroke:black; " description="&lt;b&gt;ANY94469.1&lt;/b&gt;&lt;br&gt;flavin reductase&lt;br&gt;Location: 58399 - 58947&lt;br&gt;&lt;br&gt;&lt;b&gt;BlastP hit with cds970_1519&lt;/b&gt;&lt;br&gt;Percentage identity: 73&lt;br&gt;Percentage coverage: 100&lt;br&gt;BLAST bit score: 265&lt;br&gt;E-value: 4.7e-71" locus_tag="ANY94469.1" class="clusterblast-orf" id="dummy-1_h1_2_46"  />
</g>
<g id="a1_0047"  >
<polygon points="629,85 634,80 692,80 692,90 634,90 629,85 " style="fill:#1585d8; stroke-width:1; stroke:black; " description="&lt;b&gt;ANY94470.1&lt;/b&gt;&lt;br&gt;enediyne polyketide synthase&lt;br&gt;Location: 59076 - 64895&lt;br&gt;&lt;br&gt;&lt;b&gt;BlastP hit with cds1985_7793&lt;/b&gt;&lt;br&gt;Percentage identity: 82&lt;br&gt;Percentage coverage: 100&lt;br&gt;BLAST bit score: 3054&lt;br&gt;E-value: 0.0" locus_tag="ANY94470.1" class="clusterblast-orf" id="dummy-1_h1_2_47"  />
</g>
<g id="a1_0048"  >
<polygon points="692,85 697,80 704,80 704,90 697,90 692,85 " style="fill:#a115d8; stroke-width:1; stroke:black; " description="&lt;b&gt;ANY94471.1&lt;/b&gt;&lt;br&gt;hypothetical protein&lt;br&gt;Location: 64892 - 66031&lt;br&gt;&lt;br&gt;&lt;b&gt;BlastP hit with cds7789_8875&lt;/b&gt;&lt;br&gt;Percentage identity: 80&lt;br&gt;Percentage coverage: 105&lt;br&gt;BLAST bit score: 592&lt;br&gt;E-value: 4.4e-169" locus_tag="ANY94471.1" class="clusterblast-orf" id="dummy-1_h1_2_48"  />
</g>
<g id="a1_0049"  >
<polygon points="704,85 709,80 724,80 724,90 709,90 704,85 " style="fill:#d86915; stroke-width:1; stroke:black; " description="&lt;b&gt;ANY94472.1&lt;/b&gt;&lt;br&gt;hypothetical protein&lt;br&gt;Location: 66028 - 67896&lt;br&gt;&lt;br&gt;&lt;b&gt;BlastP hit with cds8876_10805&lt;/b&gt;&lt;br&gt;Percentage identity: 85&lt;br&gt;Percentage coverage: 97&lt;br&gt;BLAST bit score: 1116&lt;br&gt;E-value: 0.0" locus_tag="ANY94472.1" class="clusterblast-orf" id="dummy-1_h1_2_49"  />
</g>
<g id="a1_0050"  >
<polygon points="724,85 729,80 735,80 735,90 729,90 724,85 " style="fill:#15d831; stroke-width:1; stroke:black; " description="&lt;b&gt;ANY94473.1&lt;/b&gt;&lt;br&gt;hypothetical protein&lt;br&gt;Location: 67953 - 68930&lt;br&gt;&lt;br&gt;&lt;b&gt;BlastP hit with cds10801_11788&lt;/b&gt;&lt;br&gt;Percentage identity: 83&lt;br&gt;Percentage coverage: 99&lt;br&gt;BLAST bit score: 572&lt;br&gt;E-value: 3.2e-163" locus_tag="ANY94473.1" class="clusterblast-orf" id="dummy-1_h1_2_50"  />
</g>
<g id="a1_0051"  >
<polygon points="736,85 741,80 746,80 746,90 741,90 736,85 " style="fill:#1531d8; stroke-width:1; stroke:black; " description="&lt;b&gt;ANY94474.1&lt;/b&gt;&lt;br&gt;hypothetical protein&lt;br&gt;Location: 69035 - 69979&lt;br&gt;&lt;br&gt;&lt;b&gt;BlastP hit with cds11883_12864&lt;/b&gt;&lt;br&gt;Percentage identity: 81&lt;br&gt;Percentage coverage: 96&lt;br&gt;BLAST bit score: 522&lt;br&gt;E-value: 5e-148" locus_tag="ANY94474.1" class="clusterblast-orf" id="dummy-1_h1_2_51"  />
</g>
<g id="a1_0052"  >
<polygon points="749,85 753,80 753,90 749,85 " style="fill:#d815bc; stroke-width:1; stroke:black; " description="&lt;b&gt;ANY94475.1&lt;/b&gt;&lt;br&gt;HxlR family transcriptional regulator&lt;br&gt;Location: 70224 - 70667&lt;br&gt;&lt;br&gt;&lt;b&gt;BlastP hit with cds13002_13446&lt;/b&gt;&lt;br&gt;Percentage identity: 78&lt;br&gt;Percentage coverage: 100&lt;br&gt;BLAST bit score: 252&lt;br&gt;E-value: 5.7e-67" locus_tag="ANY94475.1" class="clusterblast-orf" id="dummy-1_h1_2_52"  />
</g>
<g id="a1_0053"  >
<polygon points="755,90 756,90 761,85 756,80 755,80 755,90 " style="fill:#d8bc15; stroke-width:1; stroke:black; " description="&lt;b&gt;ANY94476.1&lt;/b&gt;&lt;br&gt;hypothetical protein&lt;br&gt;Location: 70814 - 71377&lt;br&gt;&lt;br&gt;&lt;b&gt;BlastP hit with cds13584_14148&lt;/b&gt;&lt;br&gt;Percentage identity: 80&lt;br&gt;Percentage coverage: 100&lt;br&gt;BLAST bit score: 318&lt;br&gt;E-value: 6.3e-87" locus_tag="ANY94476.1" class="clusterblast-orf" id="dummy-1_h1_2_53"  />
</g>
<g id="a1_0054"  >
<polygon points="761,90 761,90 766,85 761,80 761,80 761,90 " style="fill:#15d885; stroke-width:1; stroke:black; " description="&lt;b&gt;ANY94477.1&lt;/b&gt;&lt;br&gt;hypothetical protein&lt;br&gt;Location: 71382 - 71852&lt;br&gt;&lt;br&gt;&lt;b&gt;BlastP hit with cds14158_14632&lt;/b&gt;&lt;br&gt;Percentage identity: 63&lt;br&gt;Percentage coverage: 80&lt;br&gt;BLAST bit score: 159&lt;br&gt;E-value: 4.1e-39" locus_tag="ANY94477.1" class="clusterblast-orf" id="dummy-1_h1_2_54"  />
</g>
<g id="a1_0055"  >
<polygon points="767,85 772,80 780,80 780,90 772,90 767,85 " style="fill:#4d15d8; stroke-width:1; stroke:black; " description="&lt;b&gt;ANY94478.1&lt;/b&gt;&lt;br&gt;transcriptional regulator&lt;br&gt;Location: 71930 - 73117&lt;br&gt;&lt;br&gt;&lt;b&gt;BlastP hit with cds14902_16138&lt;/b&gt;&lt;br&gt;Percentage identity: 74&lt;br&gt;Percentage coverage: 94&lt;br&gt;BLAST bit score: 573&lt;br&gt;E-value: 3.1e-163" locus_tag="ANY94478.1" class="clusterblast-orf" id="dummy-1_h1_2_55"  />
</g>
</svg>
