<svg xmlns="http://www.w3.org/2000/svg" xmlns:xlink="http://www.w3.org/1999/xlink" version="1.1" x="0" y="0" height="230" width="800" viewBox="0 0 800 230" preserveAspectRatio="none"  >
<g label="Query sequence" class="clusterblast-cluster"  >
<text x="5" y="20" class="clusterblast-acc"  >
Query sequence</text>
<line x1="10" y1="35" x2="778.0" y2="35" style="stroke-width:1; stroke:grey; "  />
<polygon points="269,40 272,35 269,30 269,40 " style="fill:white; stroke-width:1; stroke:black; " description="&lt;b&gt;cds16785_17406&lt;/b&gt;&lt;br&gt;putative protein YciO&lt;br&gt;Location: 16785 - 17406" locus_tag="cds16785_17406" class="clusterblast-orf" id="dummy-1_q0_0_all"  />
<polygon points="273,40 274,35 273,30 273,40 " style="fill:white; stroke-width:1; stroke:black; " description="&lt;b&gt;cds17518_17710&lt;/b&gt;&lt;br&gt;hypothetical protein&lt;br&gt;Location: 17518 - 17710" locus_tag="cds17518_17710" class="clusterblast-orf" id="dummy-1_q1_0_all"  />
<polygon points="275,40 277,35 275,30 275,40 " style="fill:white; stroke-width:1; stroke:black; " description="&lt;b&gt;cds17886_18276&lt;/b&gt;&lt;br&gt;hypothetical protein&lt;br&gt;Location: 17886 - 18276" locus_tag="cds17886_18276" class="clusterblast-orf" id="dummy-1_q2_0_all"  />
<polygon points="277,35 282,30 282,30 282,40 282,40 277,35 " style="fill:white; stroke-width:1; stroke:black; " description="&lt;b&gt;cds18279_19287&lt;/b&gt;&lt;br&gt;hypothetical protein&lt;br&gt;Location: 18279 - 19287" locus_tag="cds18279_19287" class="clusterblast-orf" id="dummy-1_q3_0_all"  />
<polygon points="282,35 284,30 284,40 282,35 " style="fill:white; stroke-width:1; stroke:black; " description="&lt;b&gt;cds19384_19807&lt;/b&gt;&lt;br&gt;HTH-type transcriptional regulator NmtR&lt;br&gt;Location: 19384 - 19807" locus_tag="cds19384_19807" class="clusterblast-orf" id="dummy-1_q4_0_all"  />
<polygon points="284,40 289,40 294,35 289,30 284,30 284,40 " style="fill:white; stroke-width:1; stroke:black; " description="&lt;b&gt;cds19864_21892&lt;/b&gt;&lt;br&gt;putative cobalt/nickel-exporting P-type ATPase&lt;br&gt;Location: 19864 - 21892" locus_tag="cds19864_21892" class="clusterblast-orf" id="dummy-1_q5_0_all"  />
<polygon points="295,40 297,40 302,35 297,30 295,30 295,40 " style="fill:white; stroke-width:1; stroke:black; " description="&lt;b&gt;cds22036_23491&lt;/b&gt;&lt;br&gt;Arginine/ornithine antiporter&lt;br&gt;Location: 22036 - 23491" locus_tag="cds22036_23491" class="clusterblast-orf" id="dummy-1_q6_0_all"  />
<polygon points="303,40 304,40 309,35 304,30 303,30 303,40 " style="fill:white; stroke-width:1; stroke:black; " description="&lt;b&gt;cds23569_24835&lt;/b&gt;&lt;br&gt;Arginine deiminase&lt;br&gt;Location: 23569 - 24835" locus_tag="cds23569_24835" class="clusterblast-orf" id="dummy-1_q7_0_all"  />
<polygon points="309,35 314,30 314,30 314,40 314,40 309,35 " style="fill:white; stroke-width:1; stroke:black; " description="&lt;b&gt;cds24958_25849&lt;/b&gt;&lt;br&gt;hypothetical protein&lt;br&gt;Location: 24958 - 25849" locus_tag="cds24958_25849" class="clusterblast-orf" id="dummy-1_q8_0_all"  />
<polygon points="314,35 316,30 316,40 314,35 " style="fill:#d81515; stroke-width:1; stroke:black; " description="&lt;b&gt;cds25950_26358&lt;/b&gt;&lt;br&gt;hypothetical protein&lt;br&gt;Location: 25950 - 26358" locus_tag="cds25950_26358" class="clusterblast-orf" id="dummy-1_q9_0_all"  />
<polygon points="317,40 321,35 317,30 317,40 " style="fill:#63d815; stroke-width:1; stroke:black; " description="&lt;b&gt;cds26456_27326&lt;/b&gt;&lt;br&gt;Soluble epoxide hydrolase&lt;br&gt;Location: 26456 - 27326" locus_tag="cds26456_27326" class="clusterblast-orf" id="dummy-1_q10_0_all"  />
<polygon points="321,35 326,30 326,30 326,40 326,40 321,35 " style="fill:white; stroke-width:1; stroke:black; " description="&lt;b&gt;cds27380_28340&lt;/b&gt;&lt;br&gt;Acarbose 7(IV)-phosphotransferase&lt;br&gt;Location: 27380 - 28340" locus_tag="cds27380_28340" class="clusterblast-orf" id="dummy-1_q11_0_all"  />
<polygon points="327,35 332,30 333,30 333,40 332,40 327,35 " style="fill:white; stroke-width:1; stroke:black; " description="&lt;b&gt;cds28457_29837&lt;/b&gt;&lt;br&gt;Alpha-amylase&lt;br&gt;Location: 28457 - 29837" locus_tag="cds28457_29837" class="clusterblast-orf" id="dummy-1_q12_0_all"  />
<polygon points="334,35 338,30 338,40 334,35 " style="fill:white; stroke-width:1; stroke:black; " description="&lt;b&gt;cds30005_30785&lt;/b&gt;&lt;br&gt;HTH-type transcriptional regulator XynR&lt;br&gt;Location: 30005 - 30785" locus_tag="cds30005_30785" class="clusterblast-orf" id="dummy-1_q13_0_all"  />
<polygon points="339,40 339,40 344,35 339,30 339,30 339,40 " style="fill:#15b1d8; stroke-width:1; stroke:black; " description="&lt;b&gt;cds31033_31933&lt;/b&gt;&lt;br&gt;Acetylglutamate kinase&lt;br&gt;Location: 31033 - 31933" locus_tag="cds31033_31933" class="clusterblast-orf" id="dummy-1_q14_0_all"  />
<polygon points="344,35 346,30 346,40 344,35 " style="fill:#b115d8; stroke-width:1; stroke:black; " description="&lt;b&gt;cds31943_32462&lt;/b&gt;&lt;br&gt;hypothetical protein&lt;br&gt;Location: 31943 - 32462" locus_tag="cds31943_32462" class="clusterblast-orf" id="dummy-1_q15_0_all"  />
<polygon points="347,40 348,40 353,35 348,30 347,30 347,40 " style="fill:#d86315; stroke-width:1; stroke:black; " description="&lt;b&gt;cds32619_33765&lt;/b&gt;&lt;br&gt;Enterochelin esterase&lt;br&gt;Location: 32619 - 33765" locus_tag="cds32619_33765" class="clusterblast-orf" id="dummy-1_q16_0_all"  />
<polygon points="353,35 358,30 361,30 361,40 358,40 353,35 " style="fill:#15d815; stroke-width:1; stroke:black; " description="&lt;b&gt;cds33768_35469&lt;/b&gt;&lt;br&gt;hypothetical protein&lt;br&gt;Location: 33768 - 35469" locus_tag="cds33768_35469" class="clusterblast-orf" id="dummy-1_q17_0_all"  />
<polygon points="361,35 366,30 414,30 414,40 366,40 361,35 " style="fill:#1563d8; stroke-width:1; stroke:black; " description="&lt;b&gt;cds35455_46369&lt;/b&gt;&lt;br&gt;D-alanine--D-alanyl carrier protein ligase&lt;br&gt;Location: 35455 - 46369" locus_tag="cds35455_46369" class="clusterblast-orf" id="dummy-1_q18_0_all"  />
<polygon points="415,35 420,30 423,30 423,40 420,40 415,35 " style="fill:#d815b1; stroke-width:1; stroke:black; " description="&lt;b&gt;cds46437_48228&lt;/b&gt;&lt;br&gt;Putative multidrug export ATP-binding/permease protein&lt;br&gt;Location: 46437 - 48228" locus_tag="cds46437_48228" class="clusterblast-orf" id="dummy-1_q19_0_all"  />
<polygon points="424,35 429,30 429,30 429,40 429,40 424,35 " style="fill:#d8b115; stroke-width:1; stroke:black; " description="&lt;b&gt;cds48271_49324&lt;/b&gt;&lt;br&gt;Putative ABC transporter substrate-binding lipoprotein YhfQ&lt;br&gt;Location: 48271 - 49324" locus_tag="cds48271_49324" class="clusterblast-orf" id="dummy-1_q20_0_all"  />
<polygon points="429,35 434,30 434,30 434,40 434,40 429,35 " style="fill:#15d863; stroke-width:1; stroke:black; " description="&lt;b&gt;cds49441_50329&lt;/b&gt;&lt;br&gt;putative siderophore transport system ATP-binding protein YusV&lt;br&gt;Location: 49441 - 50329" locus_tag="cds49441_50329" class="clusterblast-orf" id="dummy-1_q21_0_all"  />
<polygon points="434,35 439,30 439,30 439,40 439,40 434,35 " style="fill:#1515d8; stroke-width:1; stroke:black; " description="&lt;b&gt;cds50325_51387&lt;/b&gt;&lt;br&gt;putative siderophore transport system permease protein YfhA&lt;br&gt;Location: 50325 - 51387" locus_tag="cds50325_51387" class="clusterblast-orf" id="dummy-1_q22_0_all"  />
<polygon points="439,35 444,30 444,30 444,40 444,40 439,35 " style="fill:#d81563; stroke-width:1; stroke:black; " description="&lt;b&gt;cds51383_52370&lt;/b&gt;&lt;br&gt;Ferric enterobactin transport system permease protein FepD&lt;br&gt;Location: 51383 - 52370" locus_tag="cds51383_52370" class="clusterblast-orf" id="dummy-1_q23_0_all"  />
<polygon points="444,35 449,30 451,30 451,40 449,40 444,35 " style="fill:#b1d815; stroke-width:1; stroke:black; " description="&lt;b&gt;cds52527_53883&lt;/b&gt;&lt;br&gt;L-ornithine N(5)-monooxygenase&lt;br&gt;Location: 52527 - 53883" locus_tag="cds52527_53883" class="clusterblast-orf" id="dummy-1_q24_0_all"  />
<polygon points="453,40 455,40 460,35 455,30 453,30 453,40 " style="fill:white; stroke-width:1; stroke:black; " description="&lt;b&gt;cds54199_55654&lt;/b&gt;&lt;br&gt;Undecaprenyl-phosphate 4-deoxy-4-formamido-L-arabinose transferase&lt;br&gt;Location: 54199 - 55654" locus_tag="cds54199_55654" class="clusterblast-orf" id="dummy-1_q25_0_all"  />
<polygon points="460,40 462,40 467,35 462,30 460,30 460,40 " style="fill:white; stroke-width:1; stroke:black; " description="&lt;b&gt;cds55660_57193&lt;/b&gt;&lt;br&gt;hypothetical protein&lt;br&gt;Location: 55660 - 57193" locus_tag="cds55660_57193" class="clusterblast-orf" id="dummy-1_q26_0_all"  />
<polygon points="468,40 472,35 468,30 468,40 " style="fill:white; stroke-width:1; stroke:black; " description="&lt;b&gt;cds57276_58224&lt;/b&gt;&lt;br&gt;hypothetical protein&lt;br&gt;Location: 57276 - 58224" locus_tag="cds57276_58224" class="clusterblast-orf" id="dummy-1_q27_0_all"  />
<polygon points="472,40 474,35 472,30 472,40 " style="fill:white; stroke-width:1; stroke:black; " description="&lt;b&gt;cds58225_58621&lt;/b&gt;&lt;br&gt;hypothetical protein&lt;br&gt;Location: 58225 - 58621" locus_tag="cds58225_58621" class="clusterblast-orf" id="dummy-1_q28_0_all"  />
<polygon points="475,40 480,40 485,35 480,30 475,30 475,40 " style="fill:white; stroke-width:1; stroke:black; " description="&lt;b&gt;cds58822_60700&lt;/b&gt;&lt;br&gt;hypothetical protein&lt;br&gt;Location: 58822 - 60700" locus_tag="cds58822_60700" class="clusterblast-orf" id="dummy-1_q29_0_all"  />
<polygon points="485,35 490,30 490,30 490,40 490,40 485,35 " style="fill:white; stroke-width:1; stroke:black; " description="&lt;b&gt;cds60755_61859&lt;/b&gt;&lt;br&gt;Putative transport protein&lt;br&gt;Location: 60755 - 61859" locus_tag="cds60755_61859" class="clusterblast-orf" id="dummy-1_q30_0_all"  />
<polygon points="492,35 495,30 495,40 492,35 " style="fill:#15d8b1; stroke-width:1; stroke:black; " description="&lt;b&gt;cds62270_62840&lt;/b&gt;&lt;br&gt;hypothetical protein&lt;br&gt;Location: 62270 - 62840" locus_tag="cds62270_62840" class="clusterblast-orf" id="dummy-1_q31_0_all"  />
<polygon points="496,40 500,35 496,30 496,40 " style="fill:#6315d8; stroke-width:1; stroke:black; " description="&lt;b&gt;cds62951_63863&lt;/b&gt;&lt;br&gt;hypothetical protein&lt;br&gt;Location: 62951 - 63863" locus_tag="cds62951_63863" class="clusterblast-orf" id="dummy-1_q32_0_all"  />
<polygon points="500,35 505,30 506,30 506,40 505,40 500,35 " style="fill:white; stroke-width:1; stroke:black; " description="&lt;b&gt;cds63902_65108&lt;/b&gt;&lt;br&gt;Oleandomycin glycosyltransferase&lt;br&gt;Location: 63902 - 65108" locus_tag="cds63902_65108" class="clusterblast-orf" id="dummy-1_q33_0_all"  />
<polygon points="507,35 510,30 510,40 507,35 " style="fill:white; stroke-width:1; stroke:black; " description="&lt;b&gt;cds65192_65846&lt;/b&gt;&lt;br&gt;Streptogramin A acetyltransferase&lt;br&gt;Location: 65192 - 65846" locus_tag="cds65192_65846" class="clusterblast-orf" id="dummy-1_q34_0_all"  />
</g>
<g label="BGC0001065" description="BGC0001065_c1: herboxidiene (2% of genes show similarity), Polyketide" class="clusterblast-cluster"  >
<text x="5" y="70" class="clusterblast-acc"  >
<a xlink:href="https://mibig.secondarymetabolites.org/go/BGC0001065/1" target="_blank">BGC0001065</a>:                                                                     herboxidiene (2% of genes show similarity), Polyketide</text>
<line x1="10" y1="85" x2="778.0" y2="85" style="stroke-width:1; stroke:grey; "  />
</g>
<g id="a1_000"  >
<polygon points="0,85 5,80 5,80 5,90 5,90 0,85 " style="fill:white; stroke-width:1; stroke:black; " description="&lt;b&gt;sccontig008-1&lt;/b&gt;&lt;br&gt;hypothetical protein&lt;br&gt;Location: 1 - 1057" locus_tag="sccontig008-1" class="clusterblast-orf" id="dummy-1_h1_10_0"  />
</g>
<g id="a1_001"  >
<polygon points="7,85 12,80 14,80 14,90 12,90 7,85 " style="fill:white; stroke-width:1; stroke:black; " description="&lt;b&gt;sccontig008-2&lt;/b&gt;&lt;br&gt;deoxyribodipyrimidine photolyase&lt;br&gt;Location: 1584 - 2969" locus_tag="sccontig008-2" class="clusterblast-orf" id="dummy-1_h1_10_1"  />
</g>
<g id="a1_002"  >
<polygon points="14,85 19,80 22,80 22,90 19,90 14,85 " style="fill:white; stroke-width:1; stroke:black; " description="&lt;b&gt;sccontig008-3&lt;/b&gt;&lt;br&gt;oxidoreductase&lt;br&gt;Location: 2966 - 4519" locus_tag="sccontig008-3" class="clusterblast-orf" id="dummy-1_h1_10_2"  />
</g>
<g id="a1_003"  >
<polygon points="22,85 26,80 26,90 22,85 " style="fill:white; stroke-width:1; stroke:black; " description="&lt;b&gt;sccontig008-4&lt;/b&gt;&lt;br&gt;hypothetical protein&lt;br&gt;Location: 4581 - 5321" locus_tag="sccontig008-4" class="clusterblast-orf" id="dummy-1_h1_10_3"  />
</g>
<g id="a1_004"  >
<polygon points="26,85 31,80 31,80 31,90 31,90 26,85 " style="fill:white; stroke-width:1; stroke:black; " description="&lt;b&gt;sccontig008-5&lt;/b&gt;&lt;br&gt;hydrogenase maturation protein Hype&lt;br&gt;Location: 5322 - 6473" locus_tag="sccontig008-5" class="clusterblast-orf" id="dummy-1_h1_10_4"  />
</g>
<g id="a1_005"  >
<polygon points="31,85 36,80 37,80 37,90 36,90 31,85 " style="fill:white; stroke-width:1; stroke:black; " description="&lt;b&gt;sccontig008-6&lt;/b&gt;&lt;br&gt;hydrogenase maturation protein Hypd&lt;br&gt;Location: 6470 - 7573" locus_tag="sccontig008-6" class="clusterblast-orf" id="dummy-1_h1_10_5"  />
</g>
<g id="a1_006"  >
<polygon points="37,85 38,80 38,90 37,85 " style="fill:white; stroke-width:1; stroke:black; " description="&lt;b&gt;sccontig008-7&lt;/b&gt;&lt;br&gt;hydrogenase assembly chaperone HypC/hupf&lt;br&gt;Location: 7570 - 7866" locus_tag="sccontig008-7" class="clusterblast-orf" id="dummy-1_h1_10_6"  />
</g>
<g id="a1_007"  >
<polygon points="39,85 44,80 51,80 51,90 44,90 39,85 " style="fill:white; stroke-width:1; stroke:black; " description="&lt;b&gt;sccontig008-8&lt;/b&gt;&lt;br&gt;hydrogenase maturation protein Hypf&lt;br&gt;Location: 7977 - 10580" locus_tag="sccontig008-8" class="clusterblast-orf" id="dummy-1_h1_10_7"  />
</g>
<g id="a1_008"  >
<polygon points="51,85 54,80 54,90 51,85 " style="fill:white; stroke-width:1; stroke:black; " description="&lt;b&gt;sccontig008-9&lt;/b&gt;&lt;br&gt;hydrogenase maturation factor, Hyad&lt;br&gt;Location: 10585 - 11115" locus_tag="sccontig008-9" class="clusterblast-orf" id="dummy-1_h1_10_8"  />
</g>
<g id="a1_009"  >
<polygon points="55,85 60,80 62,80 62,90 60,90 55,85 " style="fill:white; stroke-width:1; stroke:black; " description="&lt;b&gt;sccontig008-10&lt;/b&gt;&lt;br&gt;hypothetical protein&lt;br&gt;Location: 11280 - 12791" locus_tag="sccontig008-10" class="clusterblast-orf" id="dummy-1_h1_10_9"  />
</g>
<g id="a1_0010"  >
<polygon points="62,85 66,80 66,90 62,85 " style="fill:white; stroke-width:1; stroke:black; " description="&lt;b&gt;sccontig008-11&lt;/b&gt;&lt;br&gt;conserved Hypothetical protein&lt;br&gt;Location: 12788 - 13504" locus_tag="sccontig008-11" class="clusterblast-orf" id="dummy-1_h1_10_10"  />
</g>
<g id="a1_0011"  >
<polygon points="66,85 69,80 69,90 66,85 " style="fill:white; stroke-width:1; stroke:black; " description="&lt;b&gt;sccontig008-12&lt;/b&gt;&lt;br&gt;hypothetical protein&lt;br&gt;Location: 13501 - 14211" locus_tag="sccontig008-12" class="clusterblast-orf" id="dummy-1_h1_10_11"  />
</g>
<g id="a1_0012"  >
<polygon points="69,85 74,80 74,80 74,90 74,90 69,85 " style="fill:white; stroke-width:1; stroke:black; " description="&lt;b&gt;sccontig008-13&lt;/b&gt;&lt;br&gt;nitrogen fixation protein&lt;br&gt;Location: 14208 - 15203" locus_tag="sccontig008-13" class="clusterblast-orf" id="dummy-1_h1_10_12"  />
</g>
<g id="a1_0013"  >
<polygon points="74,85 79,80 83,80 83,90 79,90 74,85 " style="fill:white; stroke-width:1; stroke:black; " description="&lt;b&gt;sccontig008-14&lt;/b&gt;&lt;br&gt;Nife Hydrogenase i large subunit, Hyab&lt;br&gt;Location: 15205 - 16977" locus_tag="sccontig008-14" class="clusterblast-orf" id="dummy-1_h1_10_13"  />
</g>
<g id="a1_0014"  >
<polygon points="83,85 88,80 88,80 88,90 88,90 83,85 " style="fill:white; stroke-width:1; stroke:black; " description="&lt;b&gt;sccontig008-15&lt;/b&gt;&lt;br&gt;Nife Hydrogenase i small subunit, Hyaa&lt;br&gt;Location: 17010 - 17978" locus_tag="sccontig008-15" class="clusterblast-orf" id="dummy-1_h1_10_14"  />
</g>
<g id="a1_0015"  >
<polygon points="89,90 90,85 89,80 89,90 " style="fill:white; stroke-width:1; stroke:black; " description="&lt;b&gt;sccontig008-16&lt;/b&gt;&lt;br&gt;hydrogenase nickel incorporation protein Hypa&lt;br&gt;Location: 18242 - 18571" locus_tag="sccontig008-16" class="clusterblast-orf" id="dummy-1_h1_10_15"  />
</g>
<g id="a1_0016"  >
<polygon points="91,90 94,85 91,80 91,90 " style="fill:white; stroke-width:1; stroke:black; " description="&lt;b&gt;sccontig008-17&lt;/b&gt;&lt;br&gt;hydrogenase nickel incorporation protein Hypb&lt;br&gt;Location: 18576 - 19385" locus_tag="sccontig008-17" class="clusterblast-orf" id="dummy-1_h1_10_16"  />
</g>
<g id="a1_0017"  >
<polygon points="94,85 99,80 99,80 99,90 99,90 94,85 " style="fill:white; stroke-width:1; stroke:black; " description="&lt;b&gt;sccontig008-18&lt;/b&gt;&lt;br&gt;inositol 2-dehydrogenase&lt;br&gt;Location: 19386 - 20408" locus_tag="sccontig008-18" class="clusterblast-orf" id="dummy-1_h1_10_17"  />
</g>
<g id="a1_0018"  >
<polygon points="100,85 104,80 104,90 100,85 " style="fill:white; stroke-width:1; stroke:black; " description="&lt;b&gt;sccontig008-19&lt;/b&gt;&lt;br&gt;xylose isomerase domain-containing protein&lt;br&gt;Location: 20478 - 21263" locus_tag="sccontig008-19" class="clusterblast-orf" id="dummy-1_h1_10_18"  />
</g>
<g id="a1_0019"  >
<polygon points="105,90 105,90 110,85 105,80 105,80 105,90 " style="fill:white; stroke-width:1; stroke:black; " description="&lt;b&gt;AEZ64508.1&lt;/b&gt;&lt;br&gt;Hera&lt;br&gt;Location: 21446 - 22474" locus_tag="AEZ64508.1" class="clusterblast-orf" id="dummy-1_h1_10_19"  />
</g>
<g id="a1_0020"  >
<polygon points="116,90 205,90 210,85 205,80 116,80 116,90 " style="fill:white; stroke-width:1; stroke:black; " description="&lt;b&gt;AEZ64505.1&lt;/b&gt;&lt;br&gt;Herb&lt;br&gt;Location: 23785 - 42969" locus_tag="AEZ64505.1" class="clusterblast-orf" id="dummy-1_h1_10_20"  />
</g>
<g id="a1_0021"  >
<polygon points="211,90 311,90 316,85 311,80 211,80 211,90 " style="fill:white; stroke-width:1; stroke:black; " description="&lt;b&gt;AEZ64504.1&lt;/b&gt;&lt;br&gt;Herc&lt;br&gt;Location: 43111 - 64527" locus_tag="AEZ64504.1" class="clusterblast-orf" id="dummy-1_h1_10_21"  />
</g>
<g id="a1_0022"  >
<polygon points="316,90 340,90 345,85 340,80 316,80 316,90 " style="fill:white; stroke-width:1; stroke:black; " description="&lt;b&gt;AEZ64503.1&lt;/b&gt;&lt;br&gt;Herd&lt;br&gt;Location: 64524 - 70616" locus_tag="AEZ64503.1" class="clusterblast-orf" id="dummy-1_h1_10_22"  />
</g>
<g id="a1_0023"  >
<polygon points="346,90 348,90 353,85 348,80 346,80 346,90 " style="fill:white; stroke-width:1; stroke:black; " description="&lt;b&gt;AEZ64506.1&lt;/b&gt;&lt;br&gt;Here&lt;br&gt;Location: 70746 - 72179" locus_tag="AEZ64506.1" class="clusterblast-orf" id="dummy-1_h1_10_23"  />
</g>
<g id="a1_0024"  >
<polygon points="353,90 357,85 353,80 353,90 " style="fill:white; stroke-width:1; stroke:black; " description="&lt;b&gt;AEZ64598.1&lt;/b&gt;&lt;br&gt;Herf&lt;br&gt;Location: 72176 - 73069" locus_tag="AEZ64598.1" class="clusterblast-orf" id="dummy-1_h1_10_24"  />
</g>
<g id="a1_0025"  >
<polygon points="358,90 359,90 364,85 359,80 358,80 358,90 " style="fill:white; stroke-width:1; stroke:black; " description="&lt;b&gt;AEZ64507.1&lt;/b&gt;&lt;br&gt;Herg&lt;br&gt;Location: 73212 - 74480" locus_tag="AEZ64507.1" class="clusterblast-orf" id="dummy-1_h1_10_25"  />
</g>
<g id="a1_0026"  >
<polygon points="364,85 367,80 367,90 364,85 " style="fill:white; stroke-width:1; stroke:black; " description="&lt;b&gt;sccontig008-20&lt;/b&gt;&lt;br&gt;GCN5-like N-acetyltransferase&lt;br&gt;Location: 74495 - 75028" locus_tag="sccontig008-20" class="clusterblast-orf" id="dummy-1_h1_10_26"  />
</g>
<g id="a1_0027"  >
<polygon points="367,85 372,80 373,80 373,90 372,90 367,85 " style="fill:white; stroke-width:1; stroke:black; " description="&lt;b&gt;sccontig008-21&lt;/b&gt;&lt;br&gt;hypothetical protein&lt;br&gt;Location: 75064 - 76332" locus_tag="sccontig008-21" class="clusterblast-orf" id="dummy-1_h1_10_27"  />
</g>
<g id="a1_0028"  >
<polygon points="373,85 378,80 378,80 378,90 378,90 373,85 " style="fill:white; stroke-width:1; stroke:black; " description="&lt;b&gt;sccontig008-22&lt;/b&gt;&lt;br&gt;abhydrolase&lt;br&gt;Location: 76320 - 77156" locus_tag="sccontig008-22" class="clusterblast-orf" id="dummy-1_h1_10_28"  />
</g>
<g id="a1_0029"  >
<polygon points="378,90 381,85 378,80 378,90 " style="fill:white; stroke-width:1; stroke:black; " description="&lt;b&gt;sccontig008-23&lt;/b&gt;&lt;br&gt;hypothetical protein&lt;br&gt;Location: 77305 - 77772" locus_tag="sccontig008-23" class="clusterblast-orf" id="dummy-1_h1_10_29"  />
</g>
<g id="a1_0030"  >
<polygon points="381,85 385,80 385,90 381,85 " style="fill:white; stroke-width:1; stroke:black; " description="&lt;b&gt;sccontig008-24&lt;/b&gt;&lt;br&gt;hypothetical protein&lt;br&gt;Location: 77832 - 78620" locus_tag="sccontig008-24" class="clusterblast-orf" id="dummy-1_h1_10_30"  />
</g>
<g id="a1_0031"  >
<polygon points="386,85 391,80 391,80 391,90 391,90 386,85 " style="fill:white; stroke-width:1; stroke:black; " description="&lt;b&gt;sccontig008-25&lt;/b&gt;&lt;br&gt;type III polyketide synthase&lt;br&gt;Location: 78853 - 79953" locus_tag="sccontig008-25" class="clusterblast-orf" id="dummy-1_h1_10_31"  />
</g>
<g id="a1_0032"  >
<polygon points="391,85 396,80 397,80 397,90 396,90 391,85 " style="fill:white; stroke-width:1; stroke:black; " description="&lt;b&gt;sccontig008-26&lt;/b&gt;&lt;br&gt;cytochrome P450&lt;br&gt;Location: 79963 - 81153" locus_tag="sccontig008-26" class="clusterblast-orf" id="dummy-1_h1_10_32"  />
</g>
<g id="a1_0033"  >
<polygon points="399,90 402,85 399,80 399,90 " style="fill:white; stroke-width:1; stroke:black; " description="&lt;b&gt;sccontig008-27&lt;/b&gt;&lt;br&gt;ABC transporter permease&lt;br&gt;Location: 81496 - 82176" locus_tag="sccontig008-27" class="clusterblast-orf" id="dummy-1_h1_10_33"  />
</g>
<g id="a1_0034"  >
<polygon points="402,90 405,85 402,80 402,90 " style="fill:white; stroke-width:1; stroke:black; " description="&lt;b&gt;sccontig008-28&lt;/b&gt;&lt;br&gt;glycine betaine ABC transport system permease protein&lt;br&gt;Location: 82173 - 82847" locus_tag="sccontig008-28" class="clusterblast-orf" id="dummy-1_h1_10_34"  />
</g>
<g id="a1_0035"  >
<polygon points="405,90 405,90 410,85 405,80 405,80 405,90 " style="fill:white; stroke-width:1; stroke:black; " description="&lt;b&gt;sccontig008-29&lt;/b&gt;&lt;br&gt;glycine betaine ABC transporter substrate-binding protein&lt;br&gt;Location: 82844 - 83884" locus_tag="sccontig008-29" class="clusterblast-orf" id="dummy-1_h1_10_35"  />
</g>
<g id="a1_0036"  >
<polygon points="410,85 415,80 415,80 415,90 415,90 410,85 " style="fill:white; stroke-width:1; stroke:black; " description="&lt;b&gt;sccontig008-30&lt;/b&gt;&lt;br&gt;putative esterase&lt;br&gt;Location: 83808 - 84779" locus_tag="sccontig008-30" class="clusterblast-orf" id="dummy-1_h1_10_36"  />
</g>
<g id="a1_0037"  >
<polygon points="416,85 421,80 421,80 421,90 421,90 416,85 " style="fill:white; stroke-width:1; stroke:black; " description="&lt;b&gt;sccontig008-31&lt;/b&gt;&lt;br&gt;glycine betaine/L-proline ABC transporter, ATPase subunit&lt;br&gt;Location: 84935 - 86119" locus_tag="sccontig008-31" class="clusterblast-orf" id="dummy-1_h1_10_37"  />
</g>
<g id="a1_0038"  >
<polygon points="422,90 424,90 429,85 424,80 422,80 422,90 " style="fill:white; stroke-width:1; stroke:black; " description="&lt;b&gt;sccontig008-32&lt;/b&gt;&lt;br&gt;putative prolyl aminopeptidase&lt;br&gt;Location: 86300 - 87643" locus_tag="sccontig008-32" class="clusterblast-orf" id="dummy-1_h1_10_38"  />
</g>
<g id="a1_0039"  >
<polygon points="430,90 431,85 430,80 430,90 " style="fill:white; stroke-width:1; stroke:black; " description="&lt;b&gt;sccontig008-33&lt;/b&gt;&lt;br&gt;hypothetical protein&lt;br&gt;Location: 87775 - 88053" locus_tag="sccontig008-33" class="clusterblast-orf" id="dummy-1_h1_10_39"  />
</g>
<g id="a1_0040"  >
<polygon points="432,90 434,85 432,80 432,90 " style="fill:white; stroke-width:1; stroke:black; " description="&lt;b&gt;sccontig008-34&lt;/b&gt;&lt;br&gt;XRE family transcriptional regulator&lt;br&gt;Location: 88190 - 88777" locus_tag="sccontig008-34" class="clusterblast-orf" id="dummy-1_h1_10_40"  />
</g>
<g id="a1_0041"  >
<polygon points="435,90 435,90 440,85 435,80 435,80 435,90 " style="fill:white; stroke-width:1; stroke:black; " description="&lt;b&gt;sccontig008-35&lt;/b&gt;&lt;br&gt;oxidoreductase&lt;br&gt;Location: 88814 - 89821" locus_tag="sccontig008-35" class="clusterblast-orf" id="dummy-1_h1_10_41"  />
</g>
<g id="a1_0042"  >
<polygon points="440,90 441,90 446,85 441,80 440,80 440,90 " style="fill:white; stroke-width:1; stroke:black; " description="&lt;b&gt;sccontig008-36&lt;/b&gt;&lt;br&gt;acyl-CoA dehydrogenase&lt;br&gt;Location: 89821 - 91056" locus_tag="sccontig008-36" class="clusterblast-orf" id="dummy-1_h1_10_42"  />
</g>
<g id="a1_0043"  >
<polygon points="446,90 446,90 451,85 446,80 446,80 446,90 " style="fill:white; stroke-width:1; stroke:black; " description="&lt;b&gt;sccontig008-37&lt;/b&gt;&lt;br&gt;acyl-CoA dehydrogenase&lt;br&gt;Location: 91053 - 92231" locus_tag="sccontig008-37" class="clusterblast-orf" id="dummy-1_h1_10_43"  />
</g>
<g id="a1_0044"  >
<polygon points="452,90 456,85 452,80 452,90 " style="fill:white; stroke-width:1; stroke:black; " description="&lt;b&gt;sccontig008-38&lt;/b&gt;&lt;br&gt;putative secreted protein&lt;br&gt;Location: 92399 - 93265" locus_tag="sccontig008-38" class="clusterblast-orf" id="dummy-1_h1_10_44"  />
</g>
<g id="a1_0045"  >
<polygon points="457,90 458,85 457,80 457,90 " style="fill:white; stroke-width:1; stroke:black; " description="&lt;b&gt;sccontig008-39&lt;/b&gt;&lt;br&gt;hypothetical protein&lt;br&gt;Location: 93378 - 93572" locus_tag="sccontig008-39" class="clusterblast-orf" id="dummy-1_h1_10_45"  />
</g>
<g id="a1_0046"  >
<polygon points="458,85 460,80 460,90 458,85 " style="fill:white; stroke-width:1; stroke:black; " description="&lt;b&gt;sccontig008-40&lt;/b&gt;&lt;br&gt;hypothetical protein&lt;br&gt;Location: 93591 - 93962" locus_tag="sccontig008-40" class="clusterblast-orf" id="dummy-1_h1_10_46"  />
</g>
<g id="a1_0047"  >
<polygon points="460,85 465,80 466,80 466,90 465,90 460,85 " style="fill:white; stroke-width:1; stroke:black; " description="&lt;b&gt;sccontig008-41&lt;/b&gt;&lt;br&gt;L-idonate 5-dehydrogenase&lt;br&gt;Location: 94086 - 95135" locus_tag="sccontig008-41" class="clusterblast-orf" id="dummy-1_h1_10_47"  />
</g>
<g id="a1_0048"  >
<polygon points="466,85 471,80 472,80 472,90 471,90 466,85 " style="fill:white; stroke-width:1; stroke:black; " description="&lt;b&gt;sccontig008-42&lt;/b&gt;&lt;br&gt;putative membrane transport protein&lt;br&gt;Location: 95132 - 96529" locus_tag="sccontig008-42" class="clusterblast-orf" id="dummy-1_h1_10_48"  />
</g>
<g id="a1_0049"  >
<polygon points="474,90 478,85 474,80 474,90 " style="fill:white; stroke-width:1; stroke:black; " description="&lt;b&gt;sccontig008-43&lt;/b&gt;&lt;br&gt;GntR family transcriptional regulator&lt;br&gt;Location: 96911 - 97624" locus_tag="sccontig008-43" class="clusterblast-orf" id="dummy-1_h1_10_49"  />
</g>
<g id="a1_0050"  >
<polygon points="478,85 480,80 480,90 478,85 " style="fill:white; stroke-width:1; stroke:black; " description="&lt;b&gt;sccontig008-44&lt;/b&gt;&lt;br&gt;Merr family transcriptional regulator&lt;br&gt;Location: 97678 - 98088" locus_tag="sccontig008-44" class="clusterblast-orf" id="dummy-1_h1_10_50"  />
</g>
<g id="a1_0051"  >
<polygon points="482,90 484,90 489,85 484,80 482,80 482,90 " style="fill:white; stroke-width:1; stroke:black; " description="&lt;b&gt;sccontig008-45&lt;/b&gt;&lt;br&gt;integral membrane transporter&lt;br&gt;Location: 98571 - 100004" locus_tag="sccontig008-45" class="clusterblast-orf" id="dummy-1_h1_10_51"  />
</g>
<g id="a1_0052"  >
<polygon points="490,85 495,80 497,80 497,90 495,90 490,85 " style="fill:white; stroke-width:1; stroke:black; " description="&lt;b&gt;sccontig008-46&lt;/b&gt;&lt;br&gt;major facilitator superfamily protein&lt;br&gt;Location: 100109 - 101473" locus_tag="sccontig008-46" class="clusterblast-orf" id="dummy-1_h1_10_52"  />
</g>
<g id="a1_0053"  >
<polygon points="498,90 498,90 503,85 498,80 498,80 498,90 " style="fill:white; stroke-width:1; stroke:black; " description="&lt;b&gt;sccontig008-47&lt;/b&gt;&lt;br&gt;5-dehydro-4-deoxyglucarate dehydratase&lt;br&gt;Location: 101847 - 102764" locus_tag="sccontig008-47" class="clusterblast-orf" id="dummy-1_h1_10_53"  />
</g>
<g id="a1_0054"  >
<polygon points="503,90 504,90 509,85 504,80 503,80 503,90 " style="fill:white; stroke-width:1; stroke:black; " description="&lt;b&gt;sccontig008-48&lt;/b&gt;&lt;br&gt;mandelate racemase/muconate lactonizing protein&lt;br&gt;Location: 102764 - 104035" locus_tag="sccontig008-48" class="clusterblast-orf" id="dummy-1_h1_10_54"  />
</g>
<g id="a1_0055"  >
<polygon points="511,90 519,90 524,85 519,80 511,80 511,90 " style="fill:white; stroke-width:1; stroke:black; " description="&lt;b&gt;sccontig008-49&lt;/b&gt;&lt;br&gt;putative secreted protein&lt;br&gt;Location: 104343 - 107144" locus_tag="sccontig008-49" class="clusterblast-orf" id="dummy-1_h1_10_55"  />
</g>
<g id="a1_0056"  >
<polygon points="524,85 528,80 528,90 524,85 " style="fill:#15d863; stroke-width:1; stroke:black; " description="&lt;b&gt;sccontig008-50&lt;/b&gt;&lt;br&gt;ABC-type Fe3+-siderophore transporter ATP-binding protein&lt;br&gt;Location: 107120 - 107947&lt;br&gt;&lt;br&gt;&lt;b&gt;BlastP hit with cds49441_50329&lt;/b&gt;&lt;br&gt;Percentage identity: 62&lt;br&gt;Percentage coverage: 87&lt;br&gt;BLAST bit score: 326&lt;br&gt;E-value: 6.2e-89" locus_tag="sccontig008-50" class="clusterblast-orf" id="dummy-1_h1_10_56"  />
</g>
<g id="a1_0057"  >
<polygon points="528,85 533,80 534,80 534,90 533,90 528,85 " style="fill:white; stroke-width:1; stroke:black; " description="&lt;b&gt;sccontig008-51&lt;/b&gt;&lt;br&gt;Fe3+ siderophore ABC transporter permease&lt;br&gt;Location: 107944 - 108996" locus_tag="sccontig008-51" class="clusterblast-orf" id="dummy-1_h1_10_57"  />
</g>
<g id="a1_0058"  >
<polygon points="534,85 539,80 539,80 539,90 539,90 534,85 " style="fill:#d81563; stroke-width:1; stroke:black; " description="&lt;b&gt;sccontig008-52&lt;/b&gt;&lt;br&gt;Fe3+-siderophore ABC transporter permease&lt;br&gt;Location: 108993 - 110036&lt;br&gt;&lt;br&gt;&lt;b&gt;BlastP hit with cds51383_52370&lt;/b&gt;&lt;br&gt;Percentage identity: 46&lt;br&gt;Percentage coverage: 99&lt;br&gt;BLAST bit score: 259&lt;br&gt;E-value: 7.9e-69" locus_tag="sccontig008-52" class="clusterblast-orf" id="dummy-1_h1_10_58"  />
</g>
<g id="a1_0059"  >
<polygon points="539,85 542,80 542,90 539,85 " style="fill:white; stroke-width:1; stroke:black; " description="&lt;b&gt;sccontig008-53&lt;/b&gt;&lt;br&gt;ABC-type Fe3+-siderophore transporter substrate-binding protein&lt;br&gt;Location: 110033 - 110761" locus_tag="sccontig008-53" class="clusterblast-orf" id="dummy-1_h1_10_59"  />
</g>
<g id="a1_0060"  >
<polygon points="544,85 549,80 550,80 550,90 549,90 544,85 " style="fill:white; stroke-width:1; stroke:black; " description="&lt;b&gt;sccontig008-54&lt;/b&gt;&lt;br&gt;conserved Hypothetical protein&lt;br&gt;Location: 111081 - 112367" locus_tag="sccontig008-54" class="clusterblast-orf" id="dummy-1_h1_10_60"  />
</g>
<g id="a1_0061"  >
<polygon points="552,90 554,90 559,85 554,80 552,80 552,90 " style="fill:white; stroke-width:1; stroke:black; " description="&lt;b&gt;sccontig008-55&lt;/b&gt;&lt;br&gt;conserved Hypothetical protein&lt;br&gt;Location: 112790 - 114211" locus_tag="sccontig008-55" class="clusterblast-orf" id="dummy-1_h1_10_61"  />
</g>
<g id="a1_0062"  >
<polygon points="560,85 565,80 566,80 566,90 565,90 560,85 " style="fill:white; stroke-width:1; stroke:black; " description="&lt;b&gt;sccontig008-56&lt;/b&gt;&lt;br&gt;Na(+)/H(+) antiporter&lt;br&gt;Location: 114299 - 115573" locus_tag="sccontig008-56" class="clusterblast-orf" id="dummy-1_h1_10_62"  />
</g>
<g id="a1_0063"  >
<polygon points="567,85 570,80 570,90 567,85 " style="fill:white; stroke-width:1; stroke:black; " description="&lt;b&gt;sccontig008-57&lt;/b&gt;&lt;br&gt;TetR family transcriptional regulator&lt;br&gt;Location: 115744 - 116373" locus_tag="sccontig008-57" class="clusterblast-orf" id="dummy-1_h1_10_63"  />
</g>
<g id="a1_0064"  >
<polygon points="570,85 575,80 582,80 582,90 575,90 570,85 " style="fill:white; stroke-width:1; stroke:black; " description="&lt;b&gt;sccontig008-58&lt;/b&gt;&lt;br&gt;glycoside Hydrolase family protein&lt;br&gt;Location: 116416 - 118869" locus_tag="sccontig008-58" class="clusterblast-orf" id="dummy-1_h1_10_64"  />
</g>
<g id="a1_0065"  >
<polygon points="582,85 587,80 587,80 587,90 587,90 582,85 " style="fill:white; stroke-width:1; stroke:black; " description="&lt;b&gt;sccontig008-59&lt;/b&gt;&lt;br&gt;ABC transporter permease&lt;br&gt;Location: 118964 - 119923" locus_tag="sccontig008-59" class="clusterblast-orf" id="dummy-1_h1_10_65"  />
</g>
<g id="a1_0066"  >
<polygon points="587,85 592,80 592,80 592,90 592,90 587,85 " style="fill:white; stroke-width:1; stroke:black; " description="&lt;b&gt;sccontig008-60&lt;/b&gt;&lt;br&gt;ABC transporter permease&lt;br&gt;Location: 119933 - 120913" locus_tag="sccontig008-60" class="clusterblast-orf" id="dummy-1_h1_10_66"  />
</g>
<g id="a1_0067"  >
<polygon points="592,85 597,80 599,80 599,90 597,90 592,85 " style="fill:white; stroke-width:1; stroke:black; " description="&lt;b&gt;sccontig008-61&lt;/b&gt;&lt;br&gt;solute-binding protein&lt;br&gt;Location: 120923 - 122287" locus_tag="sccontig008-61" class="clusterblast-orf" id="dummy-1_h1_10_67"  />
</g>
<g id="a1_0068"  >
<polygon points="599,85 604,80 605,80 605,90 604,90 599,85 " style="fill:white; stroke-width:1; stroke:black; " description="&lt;b&gt;sccontig008-62&lt;/b&gt;&lt;br&gt;racemase&lt;br&gt;Location: 122399 - 123514" locus_tag="sccontig008-62" class="clusterblast-orf" id="dummy-1_h1_10_68"  />
</g>
<g id="a1_0069"  >
<polygon points="605,90 609,85 605,80 605,90 " style="fill:white; stroke-width:1; stroke:black; " description="&lt;b&gt;sccontig008-63&lt;/b&gt;&lt;br&gt;GntR family transcriptional regulator&lt;br&gt;Location: 123634 - 124401" locus_tag="sccontig008-63" class="clusterblast-orf" id="dummy-1_h1_10_69"  />
</g>
<g id="a1_0070"  >
<polygon points="610,90 615,90 620,85 615,80 610,80 610,90 " style="fill:white; stroke-width:1; stroke:black; " description="&lt;b&gt;sccontig008-64&lt;/b&gt;&lt;br&gt;pectin lyase fold/virulence factor&lt;br&gt;Location: 124506 - 126560" locus_tag="sccontig008-64" class="clusterblast-orf" id="dummy-1_h1_10_70"  />
</g>
<g id="a1_0071"  >
<polygon points="620,90 621,90 626,85 621,80 620,80 620,90 " style="fill:white; stroke-width:1; stroke:black; " description="&lt;b&gt;sccontig008-65&lt;/b&gt;&lt;br&gt;cdar family transcriptional regulator&lt;br&gt;Location: 126616 - 127812" locus_tag="sccontig008-65" class="clusterblast-orf" id="dummy-1_h1_10_71"  />
</g>
<g id="a1_0072"  >
<polygon points="626,90 630,90 635,85 630,80 626,80 626,90 " style="fill:white; stroke-width:1; stroke:black; " description="&lt;b&gt;sccontig008-66&lt;/b&gt;&lt;br&gt;fatty-acid-CoA ligase&lt;br&gt;Location: 127955 - 129796" locus_tag="sccontig008-66" class="clusterblast-orf" id="dummy-1_h1_10_72"  />
</g>
<g id="a1_0073"  >
<polygon points="636,90 639,90 644,85 639,80 636,80 636,90 " style="fill:white; stroke-width:1; stroke:black; " description="&lt;b&gt;sccontig008-67&lt;/b&gt;&lt;br&gt;putative feruloyl esterase b&lt;br&gt;Location: 129969 - 131450" locus_tag="sccontig008-67" class="clusterblast-orf" id="dummy-1_h1_10_73"  />
</g>
<g id="a1_0074"  >
<polygon points="644,85 649,80 653,80 653,90 649,90 644,85 " style="fill:white; stroke-width:1; stroke:black; " description="&lt;b&gt;sccontig008-68&lt;/b&gt;&lt;br&gt;fumarate reductase/succinate dehydrogenase flavoprotein domain-containing protein&lt;br&gt;Location: 131497 - 133338" locus_tag="sccontig008-68" class="clusterblast-orf" id="dummy-1_h1_10_74"  />
</g>
<g id="a1_0075"  >
<polygon points="653,85 658,80 660,80 660,90 658,90 653,85 " style="fill:white; stroke-width:1; stroke:black; " description="&lt;b&gt;sccontig008-69&lt;/b&gt;&lt;br&gt;major facilitator superfamily protein&lt;br&gt;Location: 133412 - 134869" locus_tag="sccontig008-69" class="clusterblast-orf" id="dummy-1_h1_10_75"  />
</g>
<g id="a1_0076"  >
<polygon points="661,90 663,85 661,80 661,90 " style="fill:white; stroke-width:1; stroke:black; " description="&lt;b&gt;sccontig008-70&lt;/b&gt;&lt;br&gt;Marr family transcriptional regulator&lt;br&gt;Location: 135060 - 135515" locus_tag="sccontig008-70" class="clusterblast-orf" id="dummy-1_h1_10_76"  />
</g>
<g id="a1_0077"  >
<polygon points="664,90 667,85 664,80 664,90 " style="fill:white; stroke-width:1; stroke:black; " description="&lt;b&gt;sccontig008-71&lt;/b&gt;&lt;br&gt;hypothetical protein&lt;br&gt;Location: 135601 - 136221" locus_tag="sccontig008-71" class="clusterblast-orf" id="dummy-1_h1_10_77"  />
</g>
<g id="a1_0078"  >
<polygon points="667,85 672,80 672,80 672,90 672,90 667,85 " style="fill:white; stroke-width:1; stroke:black; " description="&lt;b&gt;sccontig008-72&lt;/b&gt;&lt;br&gt;tRNA pseudouridine synthase d&lt;br&gt;Location: 136233 - 137273" locus_tag="sccontig008-72" class="clusterblast-orf" id="dummy-1_h1_10_78"  />
</g>
<g id="a1_0079"  >
<polygon points="672,85 677,80 679,80 679,90 677,90 672,85 " style="fill:white; stroke-width:1; stroke:black; " description="&lt;b&gt;sccontig008-73&lt;/b&gt;&lt;br&gt;major facilitator family transporter&lt;br&gt;Location: 137276 - 138769" locus_tag="sccontig008-73" class="clusterblast-orf" id="dummy-1_h1_10_79"  />
</g>
<g id="a1_0080"  >
<polygon points="681,85 684,80 684,90 681,85 " style="fill:white; stroke-width:1; stroke:black; " description="&lt;b&gt;sccontig008-74&lt;/b&gt;&lt;br&gt;putative Hydroxylase&lt;br&gt;Location: 139023 - 139745" locus_tag="sccontig008-74" class="clusterblast-orf" id="dummy-1_h1_10_80"  />
</g>
<g id="a1_0081"  >
<polygon points="684,85 689,80 691,80 691,90 689,90 684,85 " style="fill:white; stroke-width:1; stroke:black; " description="&lt;b&gt;sccontig008-75&lt;/b&gt;&lt;br&gt;UDP-N-acetylglucosamine 1-carboxyvinyltransferase&lt;br&gt;Location: 139738 - 141225" locus_tag="sccontig008-75" class="clusterblast-orf" id="dummy-1_h1_10_81"  />
</g>
<g id="a1_0082"  >
<polygon points="691,85 694,80 694,90 691,85 " style="fill:white; stroke-width:1; stroke:black; " description="&lt;b&gt;sccontig008-76&lt;/b&gt;&lt;br&gt;putative Hydroxylase&lt;br&gt;Location: 141210 - 141815" locus_tag="sccontig008-76" class="clusterblast-orf" id="dummy-1_h1_10_82"  />
</g>
<g id="a1_0083"  >
<polygon points="695,85 698,80 698,90 695,85 " style="fill:white; stroke-width:1; stroke:black; " description="&lt;b&gt;sccontig008-77&lt;/b&gt;&lt;br&gt;short-chain dehydrogenase/reductase SDR&lt;br&gt;Location: 141853 - 142647" locus_tag="sccontig008-77" class="clusterblast-orf" id="dummy-1_h1_10_83"  />
</g>
<g id="a1_0084"  >
<polygon points="700,85 703,80 703,90 700,85 " style="fill:white; stroke-width:1; stroke:black; " description="&lt;b&gt;sccontig008-78&lt;/b&gt;&lt;br&gt;hypothetical protein&lt;br&gt;Location: 142958 - 143686" locus_tag="sccontig008-78" class="clusterblast-orf" id="dummy-1_h1_10_84"  />
</g>
<g id="a1_0085"  >
<polygon points="704,85 708,80 708,90 704,85 " style="fill:white; stroke-width:1; stroke:black; " description="&lt;b&gt;sccontig008-79&lt;/b&gt;&lt;br&gt;hypothetical protein&lt;br&gt;Location: 143824 - 144618" locus_tag="sccontig008-79" class="clusterblast-orf" id="dummy-1_h1_10_85"  />
</g>
<g id="a1_0086"  >
<polygon points="711,90 712,90 717,85 712,80 711,80 711,90 " style="fill:white; stroke-width:1; stroke:black; " description="&lt;b&gt;sccontig008-80&lt;/b&gt;&lt;br&gt;putative radical SAM protein&lt;br&gt;Location: 145123 - 146520" locus_tag="sccontig008-80" class="clusterblast-orf" id="dummy-1_h1_10_86"  />
</g>
<g id="a1_0087"  >
<polygon points="718,90 718,90 723,85 718,80 718,80 718,90 " style="fill:white; stroke-width:1; stroke:black; " description="&lt;b&gt;sccontig008-81&lt;/b&gt;&lt;br&gt;putative aminotransferase&lt;br&gt;Location: 146559 - 147737" locus_tag="sccontig008-81" class="clusterblast-orf" id="dummy-1_h1_10_87"  />
</g>
<g id="a1_0088"  >
<polygon points="724,90 726,90 731,85 726,80 724,80 724,90 " style="fill:white; stroke-width:1; stroke:black; " description="&lt;b&gt;sccontig008-82&lt;/b&gt;&lt;br&gt;carbamoyltransferase&lt;br&gt;Location: 147838 - 149310" locus_tag="sccontig008-82" class="clusterblast-orf" id="dummy-1_h1_10_88"  />
</g>
<g id="a1_0089"  >
<polygon points="731,90 735,85 731,80 731,90 " style="fill:white; stroke-width:1; stroke:black; " description="&lt;b&gt;sccontig008-83&lt;/b&gt;&lt;br&gt;DNA topology modulation protein&lt;br&gt;Location: 149291 - 150109" locus_tag="sccontig008-83" class="clusterblast-orf" id="dummy-1_h1_10_89"  />
</g>
<g id="a1_0090"  >
<polygon points="735,90 735,90 740,85 735,80 735,80 735,90 " style="fill:white; stroke-width:1; stroke:black; " description="&lt;b&gt;sccontig008-84&lt;/b&gt;&lt;br&gt;O-methyltransferase&lt;br&gt;Location: 150106 - 151188" locus_tag="sccontig008-84" class="clusterblast-orf" id="dummy-1_h1_10_90"  />
</g>
<g id="a1_0091"  >
<polygon points="741,85 744,80 744,90 741,85 " style="fill:white; stroke-width:1; stroke:black; " description="&lt;b&gt;sccontig008-85&lt;/b&gt;&lt;br&gt;SARP family transcriptional regulator&lt;br&gt;Location: 151248 - 152033" locus_tag="sccontig008-85" class="clusterblast-orf" id="dummy-1_h1_10_91"  />
</g>
<g id="a1_0092"  >
<polygon points="744,90 751,90 756,85 751,80 744,80 744,90 " style="fill:white; stroke-width:1; stroke:black; " description="&lt;b&gt;sccontig008-86&lt;/b&gt;&lt;br&gt;hypothetical protein&lt;br&gt;Location: 152018 - 154321" locus_tag="sccontig008-86" class="clusterblast-orf" id="dummy-1_h1_10_92"  />
</g>
<g id="a1_0093"  >
<polygon points="756,85 761,80 761,80 761,90 761,90 756,85 " style="fill:white; stroke-width:1; stroke:black; " description="&lt;b&gt;sccontig008-87&lt;/b&gt;&lt;br&gt;conserved Hypothetical protein&lt;br&gt;Location: 154347 - 155378" locus_tag="sccontig008-87" class="clusterblast-orf" id="dummy-1_h1_10_93"  />
</g>
<g id="a1_0094"  >
<polygon points="761,85 766,80 770,80 770,90 766,90 761,85 " style="fill:white; stroke-width:1; stroke:black; " description="&lt;b&gt;sccontig008-88&lt;/b&gt;&lt;br&gt;conserved Hypothetical protein&lt;br&gt;Location: 155508 - 157337" locus_tag="sccontig008-88" class="clusterblast-orf" id="dummy-1_h1_10_94"  />
</g>
<g id="a1_0095"  >
<polygon points="773,90 775,90 780,85 775,80 773,80 773,90 " style="fill:white; stroke-width:1; stroke:black; " description="&lt;b&gt;sccontig008-89&lt;/b&gt;&lt;br&gt;putative N-acetyl-glucosamine transferase&lt;br&gt;Location: 157960 - 159201" locus_tag="sccontig008-89" class="clusterblast-orf" id="dummy-1_h1_10_95"  />
</g>
</svg>
