<svg xmlns="http://www.w3.org/2000/svg" xmlns:xlink="http://www.w3.org/1999/xlink" version="1.1" x="0" y="0" height="230" width="800" viewBox="0 0 800 230" preserveAspectRatio="none"  >
<g label="Query sequence" class="clusterblast-cluster"  >
<text x="5" y="20" class="clusterblast-acc"  >
Query sequence</text>
<line x1="10" y1="35" x2="778.0" y2="35" style="stroke-width:1; stroke:grey; "  />
<polygon points="0,35 5,30 25,30 25,40 5,40 0,35 " style="fill:white; stroke-width:1; stroke:black; " description="&lt;b&gt;cds61435_62263&lt;/b&gt;&lt;br&gt;hypothetical protein&lt;br&gt;Location: 61435 - 62263" locus_tag="cds61435_62263" class="clusterblast-orf" id="dummy-1_q0_0_all"  />
<polygon points="30,35 35,30 58,30 58,40 35,40 30,35 " style="fill:white; stroke-width:1; stroke:black; " description="&lt;b&gt;cds62425_63364&lt;/b&gt;&lt;br&gt;hypothetical protein&lt;br&gt;Location: 62425 - 63364" locus_tag="cds62425_63364" class="clusterblast-orf" id="dummy-1_q1_0_all"  />
<polygon points="76,40 95,40 100,35 95,30 76,30 76,40 " style="fill:white; stroke-width:1; stroke:black; " description="&lt;b&gt;cds63941_64766&lt;/b&gt;&lt;br&gt;hypothetical protein&lt;br&gt;Location: 63941 - 64766" locus_tag="cds63941_64766" class="clusterblast-orf" id="dummy-1_q2_0_all"  />
<polygon points="101,35 106,30 106,30 106,40 106,40 101,35 " style="fill:white; stroke-width:1; stroke:black; " description="&lt;b&gt;cds64775_64949&lt;/b&gt;&lt;br&gt;hypothetical protein&lt;br&gt;Location: 64775 - 64949" locus_tag="cds64775_64949" class="clusterblast-orf" id="dummy-1_q3_0_all"  />
<polygon points="108,35 113,30 127,30 127,40 113,40 108,35 " style="fill:#d81515; stroke-width:1; stroke:black; " description="&lt;b&gt;cds65016_65637&lt;/b&gt;&lt;br&gt;HTH-type transcriptional regulator PuuR&lt;br&gt;Location: 65016 - 65637" locus_tag="cds65016_65637" class="clusterblast-orf" id="dummy-1_q4_0_all"  />
<polygon points="128,35 133,30 171,30 171,40 133,40 128,35 " style="fill:#77d815; stroke-width:1; stroke:black; " description="&lt;b&gt;cds65693_67088&lt;/b&gt;&lt;br&gt;Aminotransferase PigE&lt;br&gt;Location: 65693 - 67088" locus_tag="cds65693_67088" class="clusterblast-orf" id="dummy-1_q5_0_all"  />
<polygon points="170,35 175,30 228,30 228,40 175,40 170,35 " style="fill:#15d8d8; stroke-width:1; stroke:black; " description="&lt;b&gt;cds67084_68995&lt;/b&gt;&lt;br&gt;1-deoxy-D-xylulose-5-phosphate synthase&lt;br&gt;Location: 67084 - 68995" locus_tag="cds67084_68995" class="clusterblast-orf" id="dummy-1_q6_0_all"  />
<polygon points="233,35 238,30 264,30 264,40 238,40 233,35 " style="fill:#7715d8; stroke-width:1; stroke:black; " description="&lt;b&gt;cds69168_70188&lt;/b&gt;&lt;br&gt;GTP 3',8-cyclase&lt;br&gt;Location: 69168 - 70188" locus_tag="cds69168_70188" class="clusterblast-orf" id="dummy-1_q7_0_all"  />
<polygon points="264,35 269,30 284,30 284,40 269,40 264,35 " style="fill:#d87715; stroke-width:1; stroke:black; " description="&lt;b&gt;cds70194_70854&lt;/b&gt;&lt;br&gt;hypothetical protein&lt;br&gt;Location: 70194 - 70854" locus_tag="cds70194_70854" class="clusterblast-orf" id="dummy-1_q8_0_all"  />
<polygon points="285,35 290,30 345,30 345,40 290,40 285,35 " style="fill:#15d815; stroke-width:1; stroke:black; " description="&lt;b&gt;cds70858_72871&lt;/b&gt;&lt;br&gt;Squalene--hopene cyclase&lt;br&gt;Location: 70858 - 72871" locus_tag="cds70858_72871" class="clusterblast-orf" id="dummy-1_q9_0_all"  />
<polygon points="348,35 353,30 382,30 382,40 353,40 348,35 " style="fill:#1577d8; stroke-width:1; stroke:black; " description="&lt;b&gt;cds72971_74075&lt;/b&gt;&lt;br&gt;(2E,6E)-farnesyl diphosphate synthase&lt;br&gt;Location: 72971 - 74075" locus_tag="cds72971_74075" class="clusterblast-orf" id="dummy-1_q10_0_all"  />
<polygon points="382,35 387,30 424,30 424,40 387,40 382,35 " style="fill:#d815d8; stroke-width:1; stroke:black; " description="&lt;b&gt;cds74071_75460&lt;/b&gt;&lt;br&gt;Hydroxysqualene dehydroxylase&lt;br&gt;Location: 74071 - 75460" locus_tag="cds74071_75460" class="clusterblast-orf" id="dummy-1_q11_0_all"  />
<polygon points="426,35 431,30 455,30 455,40 431,40 426,35 " style="fill:#d8d815; stroke-width:1; stroke:black; " description="&lt;b&gt;cds75548_76502&lt;/b&gt;&lt;br&gt;Phytoene synthase&lt;br&gt;Location: 75548 - 76502" locus_tag="cds75548_76502" class="clusterblast-orf" id="dummy-1_q12_0_all"  />
<polygon points="455,35 460,30 483,30 483,40 460,40 455,35 " style="fill:#15d877; stroke-width:1; stroke:black; " description="&lt;b&gt;cds76498_77416&lt;/b&gt;&lt;br&gt;hypothetical protein&lt;br&gt;Location: 76498 - 77416" locus_tag="cds76498_77416" class="clusterblast-orf" id="dummy-1_q13_0_all"  />
<polygon points="495,35 500,30 519,30 519,40 500,40 495,35 " style="fill:white; stroke-width:1; stroke:black; " description="&lt;b&gt;cds77840_78626&lt;/b&gt;&lt;br&gt;Vitamin B12 import ATP-binding protein BtuD&lt;br&gt;Location: 77840 - 78626" locus_tag="cds77840_78626" class="clusterblast-orf" id="dummy-1_q14_0_all"  />
<polygon points="519,35 524,30 547,30 547,40 524,40 519,35 " style="fill:white; stroke-width:1; stroke:black; " description="&lt;b&gt;cds78618_79548&lt;/b&gt;&lt;br&gt;hypothetical protein&lt;br&gt;Location: 78618 - 79548" locus_tag="cds78618_79548" class="clusterblast-orf" id="dummy-1_q15_0_all"  />
<polygon points="550,35 555,30 577,30 577,40 555,40 550,35 " style="fill:white; stroke-width:1; stroke:black; " description="&lt;b&gt;cds79656_80529&lt;/b&gt;&lt;br&gt;hypothetical protein&lt;br&gt;Location: 79656 - 80529" locus_tag="cds79656_80529" class="clusterblast-orf" id="dummy-1_q16_0_all"  />
<polygon points="577,35 582,30 601,30 601,40 582,40 577,35 " style="fill:white; stroke-width:1; stroke:black; " description="&lt;b&gt;cds80537_81317&lt;/b&gt;&lt;br&gt;hypothetical protein&lt;br&gt;Location: 80537 - 81317" locus_tag="cds80537_81317" class="clusterblast-orf" id="dummy-1_q17_0_all"  />
<polygon points="600,35 605,30 632,30 632,40 605,40 600,35 " style="fill:#1515d8; stroke-width:1; stroke:black; " description="&lt;b&gt;cds81294_82356&lt;/b&gt;&lt;br&gt;hypothetical protein&lt;br&gt;Location: 81294 - 82356" locus_tag="cds81294_82356" class="clusterblast-orf" id="dummy-1_q18_0_all"  />
<polygon points="632,35 637,30 654,30 654,40 637,40 632,35 " style="fill:#d81577; stroke-width:1; stroke:black; " description="&lt;b&gt;cds82343_83081&lt;/b&gt;&lt;br&gt;Glucose-1-phosphate adenylyltransferase&lt;br&gt;Location: 82343 - 83081" locus_tag="cds82343_83081" class="clusterblast-orf" id="dummy-1_q19_0_all"  />
<polygon points="654,35 659,30 707,30 707,40 659,40 654,35 " style="fill:white; stroke-width:1; stroke:black; " description="&lt;b&gt;cds83077_84832&lt;/b&gt;&lt;br&gt;hypothetical protein&lt;br&gt;Location: 83077 - 84832" locus_tag="cds83077_84832" class="clusterblast-orf" id="dummy-1_q20_0_all"  />
<polygon points="716,40 741,40 746,35 741,30 716,30 716,40 " style="fill:white; stroke-width:1; stroke:black; " description="&lt;b&gt;cds85141_86128&lt;/b&gt;&lt;br&gt;UDP-glucose 4-epimerase&lt;br&gt;Location: 85141 - 86128" locus_tag="cds85141_86128" class="clusterblast-orf" id="dummy-1_q21_0_all"  />
<polygon points="751,40 775,40 780,35 775,30 751,30 751,40 " style="fill:white; stroke-width:1; stroke:black; " description="&lt;b&gt;cds86309_87251&lt;/b&gt;&lt;br&gt;Metal cation efflux system protein CzcD&lt;br&gt;Location: 86309 - 87251" locus_tag="cds86309_87251" class="clusterblast-orf" id="dummy-1_q22_0_all"  />
</g>
<g label="BGC0000665" description="BGC0000665_c1: xiamycin (13% of genes show similarity), Terpene + Alkaloid" class="clusterblast-cluster"  >
<text x="5" y="70" class="clusterblast-acc"  >
<a xlink:href="https://mibig.secondarymetabolites.org/go/BGC0000665/1" target="_blank">BGC0000665</a>:                                                                         xiamycin (13% of genes show similarity), Terpene + Alkaloid</text>
<line x1="10" y1="85" x2="778.0" y2="85" style="stroke-width:1; stroke:grey; "  />
</g>
<g id="a1_000"  >
<polygon points="68,90 94,90 99,85 94,80 68,80 68,90 " style="fill:white; stroke-width:1; stroke:black; " description="&lt;b&gt;CCH63727.1&lt;/b&gt;&lt;br&gt;XiaA protein&lt;br&gt;Location: 1 - 1002" locus_tag="CCH63727.1" class="clusterblast-orf" id="dummy-1_h1_3_0"  />
</g>
<g id="a1_001"  >
<polygon points="99,90 149,90 154,85 149,80 99,80 99,90 " style="fill:#15d8d8; stroke-width:1; stroke:black; " description="&lt;b&gt;CCH63728.1&lt;/b&gt;&lt;br&gt;XiaB protein&lt;br&gt;Location: 1015 - 2832&lt;br&gt;&lt;br&gt;&lt;b&gt;BlastP hit with cds67084_68995&lt;/b&gt;&lt;br&gt;Percentage identity: 57&lt;br&gt;Percentage coverage: 97&lt;br&gt;BLAST bit score: 671&lt;br&gt;E-value: 1e-192" locus_tag="CCH63728.1" class="clusterblast-orf" id="dummy-1_h1_3_1"  />
</g>
<g id="a1_002"  >
<polygon points="154,90 184,90 189,85 184,80 154,80 154,90 " style="fill:white; stroke-width:1; stroke:black; " description="&lt;b&gt;CCH63729.1&lt;/b&gt;&lt;br&gt;XiaC protein&lt;br&gt;Location: 2829 - 3980" locus_tag="CCH63729.1" class="clusterblast-orf" id="dummy-1_h1_3_2"  />
</g>
<g id="a1_003"  >
<polygon points="202,90 218,90 223,85 218,80 202,80 202,90 " style="fill:white; stroke-width:1; stroke:black; " description="&lt;b&gt;CCH63730.1&lt;/b&gt;&lt;br&gt;XiaD protein&lt;br&gt;Location: 4412 - 5134" locus_tag="CCH63730.1" class="clusterblast-orf" id="dummy-1_h1_3_3"  />
</g>
<g id="a1_004"  >
<polygon points="223,85 228,80 246,80 246,90 228,90 223,85 " style="fill:white; stroke-width:1; stroke:black; " description="&lt;b&gt;CCH63731.1&lt;/b&gt;&lt;br&gt;XiaE protein&lt;br&gt;Location: 5127 - 5879" locus_tag="CCH63731.1" class="clusterblast-orf" id="dummy-1_h1_3_4"  />
</g>
<g id="a1_005"  >
<polygon points="248,85 253,80 284,80 284,90 253,90 248,85 " style="fill:white; stroke-width:1; stroke:black; " description="&lt;b&gt;CCH63732.1&lt;/b&gt;&lt;br&gt;XiaF protein&lt;br&gt;Location: 5946 - 7145" locus_tag="CCH63732.1" class="clusterblast-orf" id="dummy-1_h1_3_5"  />
</g>
<g id="a1_006"  >
<polygon points="284,85 289,80 296,80 296,90 289,90 284,85 " style="fill:white; stroke-width:1; stroke:black; " description="&lt;b&gt;CCH63733.1&lt;/b&gt;&lt;br&gt;XiaG protein&lt;br&gt;Location: 7142 - 7531" locus_tag="CCH63733.1" class="clusterblast-orf" id="dummy-1_h1_3_6"  />
</g>
<g id="a1_007"  >
<polygon points="296,85 301,80 350,80 350,90 301,90 296,85 " style="fill:white; stroke-width:1; stroke:black; " description="&lt;b&gt;CCH63734.1&lt;/b&gt;&lt;br&gt;XiaH protein&lt;br&gt;Location: 7534 - 9327" locus_tag="CCH63734.1" class="clusterblast-orf" id="dummy-1_h1_3_7"  />
</g>
<g id="a1_008"  >
<polygon points="350,85 355,80 357,80 357,90 355,90 350,85 " style="fill:white; stroke-width:1; stroke:black; " description="&lt;b&gt;CCH63735.1&lt;/b&gt;&lt;br&gt;Indole oxygenase &lt;br&gt;Location: 9324 - 9557" locus_tag="CCH63735.1" class="clusterblast-orf" id="dummy-1_h1_3_8"  />
</g>
<g id="a1_009"  >
<polygon points="358,85 363,80 393,80 393,90 363,90 358,85 " style="fill:white; stroke-width:1; stroke:black; " description="&lt;b&gt;CCH63736.1&lt;/b&gt;&lt;br&gt;XiaJ protein&lt;br&gt;Location: 9583 - 10752" locus_tag="CCH63736.1" class="clusterblast-orf" id="dummy-1_h1_3_9"  />
</g>
<g id="a1_0010"  >
<polygon points="398,85 403,80 432,80 432,90 403,90 398,85 " style="fill:#1577d8; stroke-width:1; stroke:black; " description="&lt;b&gt;CCH63737.1&lt;/b&gt;&lt;br&gt;XiaK protein&lt;br&gt;Location: 10906 - 12036&lt;br&gt;&lt;br&gt;&lt;b&gt;BlastP hit with cds72971_74075&lt;/b&gt;&lt;br&gt;Percentage identity: 53&lt;br&gt;Percentage coverage: 98&lt;br&gt;BLAST bit score: 319&lt;br&gt;E-value: 7.2e-87" locus_tag="CCH63737.1" class="clusterblast-orf" id="dummy-1_h1_3_10"  />
</g>
<g id="a1_0011"  >
<polygon points="433,85 438,80 498,80 498,90 438,90 433,85 " style="fill:white; stroke-width:1; stroke:black; " description="&lt;b&gt;CCH63738.1&lt;/b&gt;&lt;br&gt;XiaL protein&lt;br&gt;Location: 12059 - 14227" locus_tag="CCH63738.1" class="clusterblast-orf" id="dummy-1_h1_3_11"  />
</g>
<g id="a1_0012"  >
<polygon points="499,85 504,80 529,80 529,90 504,90 499,85 " style="fill:white; stroke-width:1; stroke:black; " description="&lt;b&gt;CCH63739.1&lt;/b&gt;&lt;br&gt;Cytochrome P450&lt;br&gt;Location: 14256 - 15263" locus_tag="CCH63739.1" class="clusterblast-orf" id="dummy-1_h1_3_12"  />
</g>
<g id="a1_0013"  >
<polygon points="532,85 537,80 622,80 622,90 537,90 532,85 " style="fill:white; stroke-width:1; stroke:black; " description="&lt;b&gt;CCH63740.1&lt;/b&gt;&lt;br&gt;XiaN protein&lt;br&gt;Location: 15358 - 18309" locus_tag="CCH63740.1" class="clusterblast-orf" id="dummy-1_h1_3_13"  />
</g>
<g id="a1_0014"  >
<polygon points="627,90 706,90 711,85 706,80 627,80 627,90 " style="fill:white; stroke-width:1; stroke:black; " description="&lt;b&gt;CCH63741.1&lt;/b&gt;&lt;br&gt;XiaO protein&lt;br&gt;Location: 18482 - 21259" locus_tag="CCH63741.1" class="clusterblast-orf" id="dummy-1_h1_3_14"  />
</g>
</svg>
