<svg xmlns="http://www.w3.org/2000/svg" xmlns:xlink="http://www.w3.org/1999/xlink" version="1.1" x="0" y="0" height="230" width="800" viewBox="0 0 800 230" preserveAspectRatio="none"  >
<g label="Query sequence" class="clusterblast-cluster"  >
<text x="5" y="20" class="clusterblast-acc"  >
Query sequence</text>
<line x1="10" y1="35" x2="778.0" y2="35" style="stroke-width:1; stroke:grey; "  />
<polygon points="36,40 48,40 53,35 48,30 36,30 36,40 " style="fill:white; stroke-width:1; stroke:black; " description="&lt;b&gt;cds8978_9911&lt;/b&gt;&lt;br&gt;hypothetical protein&lt;br&gt;Location: 8978 - 9911" locus_tag="cds8978_9911" class="clusterblast-orf" id="dummy-1_q0_0_all"  />
<polygon points="53,40 55,40 60,35 55,30 53,30 53,40 " style="fill:white; stroke-width:1; stroke:black; " description="&lt;b&gt;cds9923_10319&lt;/b&gt;&lt;br&gt;hypothetical protein&lt;br&gt;Location: 9923 - 10319" locus_tag="cds9923_10319" class="clusterblast-orf" id="dummy-1_q1_0_all"  />
<polygon points="61,40 67,40 72,35 67,30 61,30 61,40 " style="fill:white; stroke-width:1; stroke:black; " description="&lt;b&gt;cds10355_10928&lt;/b&gt;&lt;br&gt;Aldehyde oxidoreductase iron-sulfur-binding subunit PaoA&lt;br&gt;Location: 10355 - 10928" locus_tag="cds10355_10928" class="clusterblast-orf" id="dummy-1_q2_0_all"  />
<polygon points="72,40 85,40 90,35 85,30 72,30 72,40 " style="fill:white; stroke-width:1; stroke:black; " description="&lt;b&gt;cds10924_11920&lt;/b&gt;&lt;br&gt;Aldehyde oxidoreductase FAD-binding subunit PaoB&lt;br&gt;Location: 10924 - 11920" locus_tag="cds10924_11920" class="clusterblast-orf" id="dummy-1_q3_0_all"  />
<polygon points="91,40 124,40 129,35 124,30 91,30 91,40 " style="fill:white; stroke-width:1; stroke:black; " description="&lt;b&gt;cds11964_14061&lt;/b&gt;&lt;br&gt;Aldehyde oxidoreductase molybdenum-binding subunit PaoC&lt;br&gt;Location: 11964 - 14061" locus_tag="cds11964_14061" class="clusterblast-orf" id="dummy-1_q4_0_all"  />
<polygon points="132,40 136,40 141,35 136,30 132,30 132,40 " style="fill:white; stroke-width:1; stroke:black; " description="&lt;b&gt;cds14213_14729&lt;/b&gt;&lt;br&gt;hypothetical protein&lt;br&gt;Location: 14213 - 14729" locus_tag="cds14213_14729" class="clusterblast-orf" id="dummy-1_q5_0_all"  />
<polygon points="144,40 165,40 170,35 165,30 144,30 144,40 " style="fill:white; stroke-width:1; stroke:black; " description="&lt;b&gt;cds14878_16300&lt;/b&gt;&lt;br&gt;Succinate-semialdehyde dehydrogenase [NADP(+)] 1&lt;br&gt;Location: 14878 - 16300" locus_tag="cds14878_16300" class="clusterblast-orf" id="dummy-1_q6_0_all"  />
<polygon points="171,40 210,40 215,35 210,30 171,30 171,40 " style="fill:white; stroke-width:1; stroke:black; " description="&lt;b&gt;cds16338_18726&lt;/b&gt;&lt;br&gt;Xylulose-5-phosphate phosphoketolase&lt;br&gt;Location: 16338 - 18726" locus_tag="cds16338_18726" class="clusterblast-orf" id="dummy-1_q7_0_all"  />
<polygon points="216,35 221,30 224,30 224,40 221,40 216,35 " style="fill:white; stroke-width:1; stroke:black; " description="&lt;b&gt;cds18808_19216&lt;/b&gt;&lt;br&gt;hypothetical protein&lt;br&gt;Location: 18808 - 19216" locus_tag="cds18808_19216" class="clusterblast-orf" id="dummy-1_q8_0_all"  />
<polygon points="226,35 231,30 246,30 246,40 231,40 226,35 " style="fill:white; stroke-width:1; stroke:black; " description="&lt;b&gt;cds19327_20443&lt;/b&gt;&lt;br&gt;hypothetical protein&lt;br&gt;Location: 19327 - 20443" locus_tag="cds19327_20443" class="clusterblast-orf" id="dummy-1_q9_0_all"  />
<polygon points="249,40 253,40 258,35 253,30 249,30 249,40 " style="fill:white; stroke-width:1; stroke:black; " description="&lt;b&gt;cds20579_21074&lt;/b&gt;&lt;br&gt;hypothetical protein&lt;br&gt;Location: 20579 - 21074" locus_tag="cds20579_21074" class="clusterblast-orf" id="dummy-1_q10_0_all"  />
<polygon points="259,40 279,40 284,35 279,30 259,30 259,40 " style="fill:white; stroke-width:1; stroke:black; " description="&lt;b&gt;cds21138_22491&lt;/b&gt;&lt;br&gt;Glutaminase&lt;br&gt;Location: 21138 - 22491" locus_tag="cds21138_22491" class="clusterblast-orf" id="dummy-1_q11_0_all"  />
<polygon points="288,35 293,30 303,30 303,40 293,40 288,35 " style="fill:white; stroke-width:1; stroke:black; " description="&lt;b&gt;cds22706_23528&lt;/b&gt;&lt;br&gt;Extracellular ribonuclease&lt;br&gt;Location: 22706 - 23528" locus_tag="cds22706_23528" class="clusterblast-orf" id="dummy-1_q12_0_all"  />
<polygon points="307,40 311,35 307,30 307,40 " style="fill:white; stroke-width:1; stroke:black; " description="&lt;b&gt;cds23739_23946&lt;/b&gt;&lt;br&gt;hypothetical protein&lt;br&gt;Location: 23739 - 23946" locus_tag="cds23739_23946" class="clusterblast-orf" id="dummy-1_q13_0_all"  />
<polygon points="312,40 328,40 333,35 328,30 312,30 312,40 " style="fill:white; stroke-width:1; stroke:black; " description="&lt;b&gt;cds24016_25174&lt;/b&gt;&lt;br&gt;Ribosomal RNA large subunit methyltransferase G&lt;br&gt;Location: 24016 - 25174" locus_tag="cds24016_25174" class="clusterblast-orf" id="dummy-1_q14_0_all"  />
<polygon points="333,35 338,30 342,30 342,40 338,40 333,35 " style="fill:white; stroke-width:1; stroke:black; " description="&lt;b&gt;cds25180_25636&lt;/b&gt;&lt;br&gt;hypothetical protein&lt;br&gt;Location: 25180 - 25636" locus_tag="cds25180_25636" class="clusterblast-orf" id="dummy-1_q15_0_all"  />
<polygon points="344,40 356,40 361,35 356,30 344,30 344,40 " style="fill:white; stroke-width:1; stroke:black; " description="&lt;b&gt;cds25777_26668&lt;/b&gt;&lt;br&gt;hypothetical protein&lt;br&gt;Location: 25777 - 26668" locus_tag="cds25777_26668" class="clusterblast-orf" id="dummy-1_q16_0_all"  />
<polygon points="361,40 397,40 402,35 397,30 361,30 361,40 " style="fill:white; stroke-width:1; stroke:black; " description="&lt;b&gt;cds26702_28943&lt;/b&gt;&lt;br&gt;Serine/threonine-protein kinase PknD&lt;br&gt;Location: 26702 - 28943" locus_tag="cds26702_28943" class="clusterblast-orf" id="dummy-1_q17_0_all"  />
<polygon points="402,35 407,30 407,30 407,40 407,40 402,35 " style="fill:white; stroke-width:1; stroke:black; " description="&lt;b&gt;cds28891_29173&lt;/b&gt;&lt;br&gt;hypothetical protein&lt;br&gt;Location: 28891 - 29173" locus_tag="cds28891_29173" class="clusterblast-orf" id="dummy-1_q18_0_all"  />
<polygon points="410,40 434,40 439,35 434,30 410,30 410,40 " style="fill:white; stroke-width:1; stroke:black; " description="&lt;b&gt;cds29338_30928&lt;/b&gt;&lt;br&gt;putative protein&lt;br&gt;Location: 29338 - 30928" locus_tag="cds29338_30928" class="clusterblast-orf" id="dummy-1_q19_0_all"  />
<polygon points="441,35 446,30 453,30 453,40 446,40 441,35 " style="fill:white; stroke-width:1; stroke:black; " description="&lt;b&gt;cds31025_31670&lt;/b&gt;&lt;br&gt;hypothetical protein&lt;br&gt;Location: 31025 - 31670" locus_tag="cds31025_31670" class="clusterblast-orf" id="dummy-1_q20_0_all"  />
<polygon points="453,35 458,30 487,30 487,40 458,40 453,35 " style="fill:white; stroke-width:1; stroke:black; " description="&lt;b&gt;cds31697_33560&lt;/b&gt;&lt;br&gt;Putative D-alanyl-D-alanine carboxypeptidase&lt;br&gt;Location: 31697 - 33560" locus_tag="cds31697_33560" class="clusterblast-orf" id="dummy-1_q21_0_all"  />
<polygon points="492,40 515,40 520,35 515,30 492,30 492,40 " style="fill:white; stroke-width:1; stroke:black; " description="&lt;b&gt;cds33790_35350&lt;/b&gt;&lt;br&gt;Long-chain-fatty-acid--CoA ligase&lt;br&gt;Location: 33790 - 35350" locus_tag="cds33790_35350" class="clusterblast-orf" id="dummy-1_q22_0_all"  />
<polygon points="521,40 528,40 533,35 528,30 521,30 521,40 " style="fill:white; stroke-width:1; stroke:black; " description="&lt;b&gt;cds35384_36065&lt;/b&gt;&lt;br&gt;hypothetical protein&lt;br&gt;Location: 35384 - 36065" locus_tag="cds35384_36065" class="clusterblast-orf" id="dummy-1_q23_0_all"  />
<polygon points="535,35 540,30 559,30 559,40 540,40 535,35 " style="fill:white; stroke-width:1; stroke:black; " description="&lt;b&gt;cds36152_37442&lt;/b&gt;&lt;br&gt;Phenylacetate-coenzyme A ligase&lt;br&gt;Location: 36152 - 37442" locus_tag="cds36152_37442" class="clusterblast-orf" id="dummy-1_q24_0_all"  />
<polygon points="561,35 566,30 569,30 569,40 566,40 561,35 " style="fill:white; stroke-width:1; stroke:black; " description="&lt;b&gt;cds37557_38025&lt;/b&gt;&lt;br&gt;hypothetical protein&lt;br&gt;Location: 37557 - 38025" locus_tag="cds37557_38025" class="clusterblast-orf" id="dummy-1_q25_0_all"  />
<polygon points="572,40 577,40 582,35 577,30 572,30 572,40 " style="fill:white; stroke-width:1; stroke:black; " description="&lt;b&gt;cds38153_38738&lt;/b&gt;&lt;br&gt;hypothetical protein&lt;br&gt;Location: 38153 - 38738" locus_tag="cds38153_38738" class="clusterblast-orf" id="dummy-1_q26_0_all"  />
<polygon points="583,40 606,40 611,35 606,30 583,30 583,40 " style="fill:white; stroke-width:1; stroke:black; " description="&lt;b&gt;cds38794_40315&lt;/b&gt;&lt;br&gt;2-succinyl-6-hydroxy-2,4-cyclohexadiene-1-carboxy late synthase&lt;br&gt;Location: 38794 - 40315" locus_tag="cds38794_40315" class="clusterblast-orf" id="dummy-1_q27_0_all"  />
<polygon points="612,35 617,30 642,30 642,40 617,40 612,35 " style="fill:#d81515; stroke-width:1; stroke:black; " description="&lt;b&gt;cds40354_41992&lt;/b&gt;&lt;br&gt;4-methyl-5-nitrocatechol 5-monooxygenase&lt;br&gt;Location: 40354 - 41992" locus_tag="cds40354_41992" class="clusterblast-orf" id="dummy-1_q28_0_all"  />
<polygon points="647,40 663,40 668,35 663,30 647,30 647,40 " style="fill:#77d815; stroke-width:1; stroke:black; " description="&lt;b&gt;cds42263_43382&lt;/b&gt;&lt;br&gt;hypothetical protein&lt;br&gt;Location: 42263 - 43382" locus_tag="cds42263_43382" class="clusterblast-orf" id="dummy-1_q29_0_all"  />
<polygon points="669,40 672,40 677,35 672,30 669,30 669,40 " style="fill:#15d8d8; stroke-width:1; stroke:black; " description="&lt;b&gt;cds43450_43885&lt;/b&gt;&lt;br&gt;hypothetical protein&lt;br&gt;Location: 43450 - 43885" locus_tag="cds43450_43885" class="clusterblast-orf" id="dummy-1_q30_0_all"  />
<polygon points="677,40 695,40 700,35 695,30 677,30 677,40 " style="fill:#7715d8; stroke-width:1; stroke:black; " description="&lt;b&gt;cds43881_45150&lt;/b&gt;&lt;br&gt;Actinorhodin polyketide putative beta-ketoacyl synthase 1&lt;br&gt;Location: 43881 - 45150" locus_tag="cds43881_45150" class="clusterblast-orf" id="dummy-1_q31_0_all"  />
<polygon points="700,40 718,40 723,35 718,30 700,30 700,40 " style="fill:#d8a715; stroke-width:1; stroke:black; " description="&lt;b&gt;cds45146_46406&lt;/b&gt;&lt;br&gt;Actinorhodin polyketide putative beta-ketoacyl synthase 2&lt;br&gt;Location: 45146 - 46406" locus_tag="cds45146_46406" class="clusterblast-orf" id="dummy-1_q32_0_all"  />
<polygon points="724,40 728,35 724,30 724,40 " style="fill:#15d846; stroke-width:1; stroke:black; " description="&lt;b&gt;cds46422_46680&lt;/b&gt;&lt;br&gt;hypothetical protein&lt;br&gt;Location: 46422 - 46680" locus_tag="cds46422_46680" class="clusterblast-orf" id="dummy-1_q33_0_all"  />
<polygon points="728,40 732,40 737,35 732,30 728,30 728,40 " style="fill:#1546d8; stroke-width:1; stroke:black; " description="&lt;b&gt;cds46681_47161&lt;/b&gt;&lt;br&gt;Putative polyketide cyclase&lt;br&gt;Location: 46681 - 47161" locus_tag="cds46681_47161" class="clusterblast-orf" id="dummy-1_q34_0_all"  />
<polygon points="737,40 739,40 744,35 739,30 737,30 737,40 " style="fill:#d815a7; stroke-width:1; stroke:black; " description="&lt;b&gt;cds47180_47513&lt;/b&gt;&lt;br&gt;Tetracenomycin F2 cyclase&lt;br&gt;Location: 47180 - 47513" locus_tag="cds47180_47513" class="clusterblast-orf" id="dummy-1_q35_0_all"  />
</g>
<g label="BGC0000222" description="BGC0000222_c1: FD-594 (13% of genes show similarity), Polyketide" class="clusterblast-cluster"  >
<text x="5" y="70" class="clusterblast-acc"  >
<a xlink:href="https://mibig.secondarymetabolites.org/go/BGC0000222/1" target="_blank">BGC0000222</a>:                                                                           FD-594 (13% of genes show similarity), Polyketide</text>
<line x1="10" y1="85" x2="778.0" y2="85" style="stroke-width:1; stroke:grey; "  />
</g>
<g id="a1_000"  >
<polygon points="0,85 5,80 11,80 11,90 5,90 0,85 " style="fill:white; stroke-width:1; stroke:black; " description="&lt;b&gt;BAJ52667.1&lt;/b&gt;&lt;br&gt;hypothetical protein&lt;br&gt;Location: 1 - 611" locus_tag="BAJ52667.1" class="clusterblast-orf" id="dummy-1_h1_7_0"  />
</g>
<g id="a1_001"  >
<polygon points="9,85 14,80 25,80 25,90 14,90 9,85 " style="fill:white; stroke-width:1; stroke:black; " description="&lt;b&gt;BAJ52668.1&lt;/b&gt;&lt;br&gt;hypothetical protein&lt;br&gt;Location: 527 - 1369" locus_tag="BAJ52668.1" class="clusterblast-orf" id="dummy-1_h1_7_1"  />
</g>
<g id="a1_002"  >
<polygon points="27,85 32,80 36,80 36,90 32,90 27,85 " style="fill:white; stroke-width:1; stroke:black; " description="&lt;b&gt;BAJ52669.1&lt;/b&gt;&lt;br&gt;putative transcriptional regulator&lt;br&gt;Location: 1494 - 1997" locus_tag="BAJ52669.1" class="clusterblast-orf" id="dummy-1_h1_7_2"  />
</g>
<g id="a1_003"  >
<polygon points="40,90 69,90 74,85 69,80 40,80 40,90 " style="fill:white; stroke-width:1; stroke:black; " description="&lt;b&gt;BAJ52670.1&lt;/b&gt;&lt;br&gt;putative transporter&lt;br&gt;Location: 2184 - 4040" locus_tag="BAJ52670.1" class="clusterblast-orf" id="dummy-1_h1_7_3"  />
</g>
<g id="a1_004"  >
<polygon points="74,85 79,80 92,80 92,90 79,90 74,85 " style="fill:white; stroke-width:1; stroke:black; " description="&lt;b&gt;BAJ52671.1&lt;/b&gt;&lt;br&gt;putative dehydrogenase&lt;br&gt;Location: 4068 - 5054" locus_tag="BAJ52671.1" class="clusterblast-orf" id="dummy-1_h1_7_4"  />
</g>
<g id="a1_005"  >
<polygon points="95,90 99,90 104,85 99,80 95,80 95,90 " style="fill:white; stroke-width:1; stroke:black; " description="&lt;b&gt;BAJ52672.1&lt;/b&gt;&lt;br&gt;hypothetical protein&lt;br&gt;Location: 5227 - 5685" locus_tag="BAJ52672.1" class="clusterblast-orf" id="dummy-1_h1_7_5"  />
</g>
<g id="a1_006"  >
<polygon points="105,90 112,90 117,85 112,80 105,80 105,90 " style="fill:white; stroke-width:1; stroke:black; " description="&lt;b&gt;BAJ52673.1&lt;/b&gt;&lt;br&gt;putative methyltransferase&lt;br&gt;Location: 5758 - 6387" locus_tag="BAJ52673.1" class="clusterblast-orf" id="dummy-1_h1_7_6"  />
</g>
<g id="a1_007"  >
<polygon points="120,90 150,90 155,85 150,80 120,80 120,90 " style="fill:white; stroke-width:1; stroke:black; " description="&lt;b&gt;BAJ52674.1&lt;/b&gt;&lt;br&gt;putative transcriptional regulator&lt;br&gt;Location: 6558 - 8465" locus_tag="BAJ52674.1" class="clusterblast-orf" id="dummy-1_h1_7_7"  />
</g>
<g id="a1_008"  >
<polygon points="155,90 173,90 178,85 173,80 155,80 155,90 " style="fill:white; stroke-width:1; stroke:black; " description="&lt;b&gt;BAJ52675.1&lt;/b&gt;&lt;br&gt;putative cytochrome P450&lt;br&gt;Location: 8465 - 9724" locus_tag="BAJ52675.1" class="clusterblast-orf" id="dummy-1_h1_7_8"  />
</g>
<g id="a1_009"  >
<polygon points="180,90 185,90 190,85 185,80 180,80 180,90 " style="fill:white; stroke-width:1; stroke:black; " description="&lt;b&gt;BAJ52676.1&lt;/b&gt;&lt;br&gt;hypothetical protein&lt;br&gt;Location: 9809 - 10354" locus_tag="BAJ52676.1" class="clusterblast-orf" id="dummy-1_h1_7_9"  />
</g>
<g id="a1_0010"  >
<polygon points="191,85 196,80 214,80 214,90 196,90 191,85 " style="fill:white; stroke-width:1; stroke:black; " description="&lt;b&gt;BAJ52677.1&lt;/b&gt;&lt;br&gt;putative cytochrome P450&lt;br&gt;Location: 10440 - 11657" locus_tag="BAJ52677.1" class="clusterblast-orf" id="dummy-1_h1_7_10"  />
</g>
<g id="a1_0011"  >
<polygon points="217,85 222,80 235,80 235,90 222,90 217,85 " style="fill:white; stroke-width:1; stroke:black; " description="&lt;b&gt;BAJ52678.1&lt;/b&gt;&lt;br&gt;putative acyltransferase&lt;br&gt;Location: 11829 - 12833" locus_tag="BAJ52678.1" class="clusterblast-orf" id="dummy-1_h1_7_11"  />
</g>
<g id="a1_0012"  >
<polygon points="239,90 240,90 245,85 240,80 239,80 239,90 " style="fill:#d815a7; stroke-width:1; stroke:black; " description="&lt;b&gt;BAJ52679.1&lt;/b&gt;&lt;br&gt;putative polyketide cyclase&lt;br&gt;Location: 13057 - 13380&lt;br&gt;&lt;br&gt;&lt;b&gt;BlastP hit with cds47180_47513&lt;/b&gt;&lt;br&gt;Percentage identity: 48&lt;br&gt;Percentage coverage: 96&lt;br&gt;BLAST bit score: 111&lt;br&gt;E-value: 1.2e-24" locus_tag="BAJ52679.1" class="clusterblast-orf" id="dummy-1_h1_7_12"  />
</g>
<g id="a1_0013"  >
<polygon points="245,90 250,90 255,85 250,80 245,80 245,90 " style="fill:#15d8d8; stroke-width:1; stroke:black; " description="&lt;b&gt;BAJ52680.1&lt;/b&gt;&lt;br&gt;putative polyketide cyclase&lt;br&gt;Location: 13377 - 13901&lt;br&gt;&lt;br&gt;&lt;b&gt;BlastP hit with cds43450_43885&lt;/b&gt;&lt;br&gt;Percentage identity: 57&lt;br&gt;Percentage coverage: 80&lt;br&gt;BLAST bit score: 145&lt;br&gt;E-value: 7.3e-35" locus_tag="BAJ52680.1" class="clusterblast-orf" id="dummy-1_h1_7_13"  />
</g>
<g id="a1_0014"  >
<polygon points="255,90 273,90 278,85 273,80 255,80 255,90 " style="fill:#7715d8; stroke-width:1; stroke:black; " description="&lt;b&gt;BAJ52681.1&lt;/b&gt;&lt;br&gt;putative ketoacyl synthase&lt;br&gt;Location: 13898 - 15169&lt;br&gt;&lt;br&gt;&lt;b&gt;BlastP hit with cds43881_45150&lt;/b&gt;&lt;br&gt;Percentage identity: 60&lt;br&gt;Percentage coverage: 99&lt;br&gt;BLAST bit score: 487&lt;br&gt;E-value: 1.8e-137" locus_tag="BAJ52681.1" class="clusterblast-orf" id="dummy-1_h1_7_14"  />
</g>
<g id="a1_0015"  >
<polygon points="278,90 296,90 301,85 296,80 278,80 278,90 " style="fill:#d8a715; stroke-width:1; stroke:black; " description="&lt;b&gt;BAJ52682.1&lt;/b&gt;&lt;br&gt;putative ketoacyl synthase&lt;br&gt;Location: 15166 - 16419&lt;br&gt;&lt;br&gt;&lt;b&gt;BlastP hit with cds45146_46406&lt;/b&gt;&lt;br&gt;Percentage identity: 50&lt;br&gt;Percentage coverage: 98&lt;br&gt;BLAST bit score: 338&lt;br&gt;E-value: 1.3e-92" locus_tag="BAJ52682.1" class="clusterblast-orf" id="dummy-1_h1_7_15"  />
</g>
<g id="a1_0016"  >
<polygon points="302,90 302,90 307,85 302,80 302,80 302,90 " style="fill:white; stroke-width:1; stroke:black; " description="&lt;b&gt;BAJ52683.1&lt;/b&gt;&lt;br&gt;putative acyl carrier protein&lt;br&gt;Location: 16470 - 16727" locus_tag="BAJ52683.1" class="clusterblast-orf" id="dummy-1_h1_7_16"  />
</g>
<g id="a1_0017"  >
<polygon points="307,90 310,90 315,85 310,80 307,80 307,90 " style="fill:#1546d8; stroke-width:1; stroke:black; " description="&lt;b&gt;BAJ52684.1&lt;/b&gt;&lt;br&gt;putative polyketide cyclase&lt;br&gt;Location: 16730 - 17203&lt;br&gt;&lt;br&gt;&lt;b&gt;BlastP hit with cds46681_47161&lt;/b&gt;&lt;br&gt;Percentage identity: 52&lt;br&gt;Percentage coverage: 92&lt;br&gt;BLAST bit score: 166&lt;br&gt;E-value: 3.4e-41" locus_tag="BAJ52684.1" class="clusterblast-orf" id="dummy-1_h1_7_17"  />
</g>
<g id="a1_0018"  >
<polygon points="315,90 319,90 324,85 319,80 315,80 315,90 " style="fill:white; stroke-width:1; stroke:black; " description="&lt;b&gt;BAJ52685.1&lt;/b&gt;&lt;br&gt;hypothetical protein&lt;br&gt;Location: 17200 - 17658" locus_tag="BAJ52685.1" class="clusterblast-orf" id="dummy-1_h1_7_18"  />
</g>
<g id="a1_0019"  >
<polygon points="324,90 333,90 338,85 333,80 324,80 324,90 " style="fill:white; stroke-width:1; stroke:black; " description="&lt;b&gt;BAJ52686.1&lt;/b&gt;&lt;br&gt;putative 3-oxoacyl-ACP reductase&lt;br&gt;Location: 17679 - 18428" locus_tag="BAJ52686.1" class="clusterblast-orf" id="dummy-1_h1_7_19"  />
</g>
<g id="a1_0020"  >
<polygon points="338,90 339,90 344,85 339,80 338,80 338,90 " style="fill:white; stroke-width:1; stroke:black; " description="&lt;b&gt;BAJ52687.1&lt;/b&gt;&lt;br&gt;hypothetical protein&lt;br&gt;Location: 18430 - 18759" locus_tag="BAJ52687.1" class="clusterblast-orf" id="dummy-1_h1_7_20"  />
</g>
<g id="a1_0021"  >
<polygon points="344,90 345,90 350,85 345,80 344,80 344,90 " style="fill:white; stroke-width:1; stroke:black; " description="&lt;b&gt;BAJ52688.1&lt;/b&gt;&lt;br&gt;hypothetical protein&lt;br&gt;Location: 18756 - 19088" locus_tag="BAJ52688.1" class="clusterblast-orf" id="dummy-1_h1_7_21"  />
</g>
<g id="a1_0022"  >
<polygon points="350,90 350,90 355,85 350,80 350,80 350,90 " style="fill:white; stroke-width:1; stroke:black; " description="&lt;b&gt;BAJ52689.1&lt;/b&gt;&lt;br&gt;hypothetical protein&lt;br&gt;Location: 19100 - 19348" locus_tag="BAJ52689.1" class="clusterblast-orf" id="dummy-1_h1_7_22"  />
</g>
<g id="a1_0023"  >
<polygon points="356,90 370,90 375,85 370,80 356,80 356,90 " style="fill:white; stroke-width:1; stroke:black; " description="&lt;b&gt;BAJ52690.1&lt;/b&gt;&lt;br&gt;putative dTDP-glucose 4,6-dehydratase&lt;br&gt;Location: 19401 - 20444" locus_tag="BAJ52690.1" class="clusterblast-orf" id="dummy-1_h1_7_23"  />
</g>
<g id="a1_0024"  >
<polygon points="375,90 390,90 395,85 390,80 375,80 375,90 " style="fill:white; stroke-width:1; stroke:black; " description="&lt;b&gt;BAJ52691.1&lt;/b&gt;&lt;br&gt;putative glucose-1-phosphate thymidylyltransferase&lt;br&gt;Location: 20441 - 21508" locus_tag="BAJ52691.1" class="clusterblast-orf" id="dummy-1_h1_7_24"  />
</g>
<g id="a1_0025"  >
<polygon points="396,90 419,90 424,85 419,80 396,80 396,90 " style="fill:white; stroke-width:1; stroke:black; " description="&lt;b&gt;BAJ52692.1&lt;/b&gt;&lt;br&gt;putative NDP-hexose 2,3-dehydratase&lt;br&gt;Location: 21598 - 23091" locus_tag="BAJ52692.1" class="clusterblast-orf" id="dummy-1_h1_7_25"  />
</g>
<g id="a1_0026"  >
<polygon points="424,90 437,90 442,85 437,80 424,80 424,90 " style="fill:white; stroke-width:1; stroke:black; " description="&lt;b&gt;BAJ52693.1&lt;/b&gt;&lt;br&gt;putative NDP-hexose-3-ketoreductase&lt;br&gt;Location: 23088 - 24101" locus_tag="BAJ52693.1" class="clusterblast-orf" id="dummy-1_h1_7_26"  />
</g>
<g id="a1_0027"  >
<polygon points="443,90 467,90 472,85 467,80 443,80 443,90 " style="fill:#d81515; stroke-width:1; stroke:black; " description="&lt;b&gt;BAJ52694.1&lt;/b&gt;&lt;br&gt;putative polyketide hydroxylase&lt;br&gt;Location: 24121 - 25746&lt;br&gt;&lt;br&gt;&lt;b&gt;BlastP hit with cds40354_41992&lt;/b&gt;&lt;br&gt;Percentage identity: 49&lt;br&gt;Percentage coverage: 97&lt;br&gt;BLAST bit score: 429&lt;br&gt;E-value: 7.4e-120" locus_tag="BAJ52694.1" class="clusterblast-orf" id="dummy-1_h1_7_27"  />
</g>
<g id="a1_0028"  >
<polygon points="472,90 480,90 485,85 480,80 472,80 472,90 " style="fill:white; stroke-width:1; stroke:black; " description="&lt;b&gt;BAJ52695.1&lt;/b&gt;&lt;br&gt;putative AHL-lactonase&lt;br&gt;Location: 25743 - 26438" locus_tag="BAJ52695.1" class="clusterblast-orf" id="dummy-1_h1_7_28"  />
</g>
<g id="a1_0029"  >
<polygon points="487,85 492,80 510,80 510,90 492,90 487,85 " style="fill:white; stroke-width:1; stroke:black; " description="&lt;b&gt;BAJ52696.1&lt;/b&gt;&lt;br&gt;putative cytochrome P450&lt;br&gt;Location: 26555 - 27814" locus_tag="BAJ52696.1" class="clusterblast-orf" id="dummy-1_h1_7_29"  />
</g>
<g id="a1_0030"  >
<polygon points="511,85 516,80 534,80 534,90 516,90 511,85 " style="fill:white; stroke-width:1; stroke:black; " description="&lt;b&gt;BAJ52697.1&lt;/b&gt;&lt;br&gt;putative glycosyltransferase&lt;br&gt;Location: 27825 - 29129" locus_tag="BAJ52697.1" class="clusterblast-orf" id="dummy-1_h1_7_30"  />
</g>
<g id="a1_0031"  >
<polygon points="537,85 542,80 561,80 561,90 542,90 537,85 " style="fill:white; stroke-width:1; stroke:black; " description="&lt;b&gt;BAJ52698.1&lt;/b&gt;&lt;br&gt;putative amidohydrolase&lt;br&gt;Location: 29262 - 30581" locus_tag="BAJ52698.1" class="clusterblast-orf" id="dummy-1_h1_7_31"  />
</g>
<g id="a1_0032"  >
<polygon points="565,90 587,90 592,85 587,80 565,80 565,90 " style="fill:white; stroke-width:1; stroke:black; " description="&lt;b&gt;BAJ52699.1&lt;/b&gt;&lt;br&gt;putative FAD-binding monooxygenase&lt;br&gt;Location: 30776 - 32278" locus_tag="BAJ52699.1" class="clusterblast-orf" id="dummy-1_h1_7_32"  />
</g>
<g id="a1_0033"  >
<polygon points="594,90 604,90 609,85 604,80 594,80 594,90 " style="fill:white; stroke-width:1; stroke:black; " description="&lt;b&gt;BAJ52700.1&lt;/b&gt;&lt;br&gt;putative methyltransferase&lt;br&gt;Location: 32359 - 33168" locus_tag="BAJ52700.1" class="clusterblast-orf" id="dummy-1_h1_7_33"  />
</g>
<g id="a1_0034"  >
<polygon points="611,90 628,90 633,85 628,80 611,80 611,90 " style="fill:white; stroke-width:1; stroke:black; " description="&lt;b&gt;BAJ52701.1&lt;/b&gt;&lt;br&gt;putative glycosyltransferase&lt;br&gt;Location: 33318 - 34484" locus_tag="BAJ52701.1" class="clusterblast-orf" id="dummy-1_h1_7_34"  />
</g>
<g id="a1_0035"  >
<polygon points="635,85 640,80 642,80 642,90 640,90 635,85 " style="fill:white; stroke-width:1; stroke:black; " description="&lt;b&gt;BAJ52702.1&lt;/b&gt;&lt;br&gt;hypothetical protein&lt;br&gt;Location: 34577 - 35005" locus_tag="BAJ52702.1" class="clusterblast-orf" id="dummy-1_h1_7_35"  />
</g>
<g id="a1_0036"  >
<polygon points="647,90 656,90 661,85 656,80 647,80 647,90 " style="fill:white; stroke-width:1; stroke:black; " description="&lt;b&gt;BAJ52703.1&lt;/b&gt;&lt;br&gt;putative NDP-hexose-4-ketoreductase&lt;br&gt;Location: 35239 - 36015" locus_tag="BAJ52703.1" class="clusterblast-orf" id="dummy-1_h1_7_36"  />
</g>
<g id="a1_0037"  >
<polygon points="661,90 674,90 679,85 674,80 661,80 661,90 " style="fill:white; stroke-width:1; stroke:black; " description="&lt;b&gt;BAJ52704.1&lt;/b&gt;&lt;br&gt;putative 3-oxoacyl-ACP synthase III&lt;br&gt;Location: 36012 - 37013" locus_tag="BAJ52704.1" class="clusterblast-orf" id="dummy-1_h1_7_37"  />
</g>
<g id="a1_0038"  >
<polygon points="681,90 685,85 681,80 681,90 " style="fill:white; stroke-width:1; stroke:black; " description="&lt;b&gt;BAJ52705.1&lt;/b&gt;&lt;br&gt;putative acyl carrier protein&lt;br&gt;Location: 37086 - 37343" locus_tag="BAJ52705.1" class="clusterblast-orf" id="dummy-1_h1_7_38"  />
</g>
<g id="a1_0039"  >
<polygon points="687,85 692,80 705,80 705,90 692,90 687,85 " style="fill:white; stroke-width:1; stroke:black; " description="&lt;b&gt;BAJ52706.1&lt;/b&gt;&lt;br&gt;putative dehydrogenase&lt;br&gt;Location: 37432 - 38388" locus_tag="BAJ52706.1" class="clusterblast-orf" id="dummy-1_h1_7_39"  />
</g>
<g id="a1_0040"  >
<polygon points="705,85 710,80 712,80 712,90 710,90 705,85 " style="fill:white; stroke-width:1; stroke:black; " description="&lt;b&gt;BAJ52707.1&lt;/b&gt;&lt;br&gt;hypothetical protein&lt;br&gt;Location: 38423 - 38815" locus_tag="BAJ52707.1" class="clusterblast-orf" id="dummy-1_h1_7_40"  />
</g>
<g id="a1_0041"  >
<polygon points="714,85 719,80 728,80 728,90 719,90 714,85 " style="fill:white; stroke-width:1; stroke:black; " description="&lt;b&gt;BAJ52708.1&lt;/b&gt;&lt;br&gt;putative 3-ketoacyl-ACP reductase&lt;br&gt;Location: 38904 - 39638" locus_tag="BAJ52708.1" class="clusterblast-orf" id="dummy-1_h1_7_41"  />
</g>
<g id="a1_0042"  >
<polygon points="731,90 733,90 738,85 733,80 731,80 731,90 " style="fill:white; stroke-width:1; stroke:black; " description="&lt;b&gt;BAJ52709.1&lt;/b&gt;&lt;br&gt;hypothetical protein&lt;br&gt;Location: 39819 - 40232" locus_tag="BAJ52709.1" class="clusterblast-orf" id="dummy-1_h1_7_42"  />
</g>
<g id="a1_0043"  >
<polygon points="739,90 756,90 761,85 756,80 739,80 739,90 " style="fill:white; stroke-width:1; stroke:black; " description="&lt;b&gt;BAJ52710.1&lt;/b&gt;&lt;br&gt;hypothetical protein&lt;br&gt;Location: 40257 - 41474" locus_tag="BAJ52710.1" class="clusterblast-orf" id="dummy-1_h1_7_43"  />
</g>
<g id="a1_0044"  >
<polygon points="761,90 764,90 769,85 764,80 761,80 761,90 " style="fill:white; stroke-width:1; stroke:black; " description="&lt;b&gt;BAJ52711.1&lt;/b&gt;&lt;br&gt;hypothetical protein&lt;br&gt;Location: 41464 - 41880" locus_tag="BAJ52711.1" class="clusterblast-orf" id="dummy-1_h1_7_44"  />
</g>
<g id="a1_0045"  >
<polygon points="771,90 775,90 780,85 775,80 771,80 771,90 " style="fill:white; stroke-width:1; stroke:black; " description="&lt;b&gt;BAJ52712.1&lt;/b&gt;&lt;br&gt;hypothetical protein&lt;br&gt;Location: 42011 - 42469" locus_tag="BAJ52712.1" class="clusterblast-orf" id="dummy-1_h1_7_45"  />
</g>
</svg>
