<svg xmlns="http://www.w3.org/2000/svg" xmlns:xlink="http://www.w3.org/1999/xlink" version="1.1" x="0" y="0" height="230" width="800" viewBox="0 0 800 230" preserveAspectRatio="none"  >
<g label="Query sequence" class="clusterblast-cluster"  >
<text x="5" y="20" class="clusterblast-acc"  >
Query sequence</text>
<line x1="10" y1="35" x2="778.0" y2="35" style="stroke-width:1; stroke:grey; "  />
<polygon points="62,40 68,40 73,35 68,30 62,30 62,40 " style="fill:#d81515; stroke-width:1; stroke:black; " description="&lt;b&gt;cds81469_82450&lt;/b&gt;&lt;br&gt;hypothetical protein&lt;br&gt;Location: 81469 - 82450" locus_tag="cds81469_82450" class="clusterblast-orf" id="dummy-1_q0_0_all"  />
<polygon points="74,40 79,40 84,35 79,30 74,30 74,40 " style="fill:#15d815; stroke-width:1; stroke:black; " description="&lt;b&gt;cds82548_83541&lt;/b&gt;&lt;br&gt;HTH-type transcriptional repressor CytR&lt;br&gt;Location: 82548 - 83541" locus_tag="cds82548_83541" class="clusterblast-orf" id="dummy-1_q1_0_all"  />
<polygon points="85,40 113,40 118,35 113,30 85,30 85,40 " style="fill:white; stroke-width:1; stroke:black; " description="&lt;b&gt;cds83639_86702&lt;/b&gt;&lt;br&gt;hypothetical protein&lt;br&gt;Location: 83639 - 86702" locus_tag="cds83639_86702" class="clusterblast-orf" id="dummy-1_q2_0_all"  />
<polygon points="119,35 124,30 126,30 126,40 124,40 119,35 " style="fill:white; stroke-width:1; stroke:black; " description="&lt;b&gt;cds86800_87535&lt;/b&gt;&lt;br&gt;3-alpha-(or 20-beta)-hydroxysteroid dehydrogenase&lt;br&gt;Location: 86800 - 87535" locus_tag="cds86800_87535" class="clusterblast-orf" id="dummy-1_q3_0_all"  />
<polygon points="126,35 131,30 137,30 137,40 131,40 126,35 " style="fill:white; stroke-width:1; stroke:black; " description="&lt;b&gt;cds87531_88503&lt;/b&gt;&lt;br&gt;hypothetical protein&lt;br&gt;Location: 87531 - 88503" locus_tag="cds87531_88503" class="clusterblast-orf" id="dummy-1_q4_0_all"  />
<polygon points="138,35 143,30 148,30 148,40 143,40 138,35 " style="fill:white; stroke-width:1; stroke:black; " description="&lt;b&gt;cds88603_89542&lt;/b&gt;&lt;br&gt;hypothetical protein&lt;br&gt;Location: 88603 - 89542" locus_tag="cds88603_89542" class="clusterblast-orf" id="dummy-1_q5_0_all"  />
<polygon points="148,35 153,30 159,30 159,40 153,40 148,35 " style="fill:white; stroke-width:1; stroke:black; " description="&lt;b&gt;cds89555_90587&lt;/b&gt;&lt;br&gt;hypothetical protein&lt;br&gt;Location: 89555 - 90587" locus_tag="cds89555_90587" class="clusterblast-orf" id="dummy-1_q6_0_all"  />
<polygon points="159,35 164,30 170,30 170,40 164,40 159,35 " style="fill:white; stroke-width:1; stroke:black; " description="&lt;b&gt;cds90583_91714&lt;/b&gt;&lt;br&gt;2-heptyl-3-hydroxy-4(1H)-quinolone synthase&lt;br&gt;Location: 90583 - 91714" locus_tag="cds90583_91714" class="clusterblast-orf" id="dummy-1_q7_0_all"  />
<polygon points="171,35 176,30 181,30 181,40 176,40 171,35 " style="fill:white; stroke-width:1; stroke:black; " description="&lt;b&gt;cds91741_92704&lt;/b&gt;&lt;br&gt;hypothetical protein&lt;br&gt;Location: 91741 - 92704" locus_tag="cds91741_92704" class="clusterblast-orf" id="dummy-1_q8_0_all"  />
<polygon points="181,35 186,30 191,30 191,40 186,40 181,35 " style="fill:white; stroke-width:1; stroke:black; " description="&lt;b&gt;cds92700_93693&lt;/b&gt;&lt;br&gt;Ureidoglycolate lyase&lt;br&gt;Location: 92700 - 93693" locus_tag="cds92700_93693" class="clusterblast-orf" id="dummy-1_q9_0_all"  />
<polygon points="193,40 198,40 203,35 198,30 193,30 193,40 " style="fill:white; stroke-width:1; stroke:black; " description="&lt;b&gt;cds93826_94756&lt;/b&gt;&lt;br&gt;Nodulation protein D 2&lt;br&gt;Location: 93826 - 94756" locus_tag="cds93826_94756" class="clusterblast-orf" id="dummy-1_q10_0_all"  />
<polygon points="205,40 209,35 205,30 205,40 " style="fill:white; stroke-width:1; stroke:black; " description="&lt;b&gt;cds94940_95381&lt;/b&gt;&lt;br&gt;hypothetical protein&lt;br&gt;Location: 94940 - 95381" locus_tag="cds94940_95381" class="clusterblast-orf" id="dummy-1_q11_0_all"  />
<polygon points="212,40 214,35 212,30 212,40 " style="fill:white; stroke-width:1; stroke:black; " description="&lt;b&gt;cds95630_95813&lt;/b&gt;&lt;br&gt;D-galactonate dehydratase&lt;br&gt;Location: 95630 - 95813" locus_tag="cds95630_95813" class="clusterblast-orf" id="dummy-1_q12_0_all"  />
<polygon points="215,40 216,40 221,35 216,30 215,30 215,40 " style="fill:white; stroke-width:1; stroke:black; " description="&lt;b&gt;cds95890_96532&lt;/b&gt;&lt;br&gt;KHG/KDPG aldolase&lt;br&gt;Location: 95890 - 96532" locus_tag="cds95890_96532" class="clusterblast-orf" id="dummy-1_q13_0_all"  />
<polygon points="221,40 227,40 232,35 227,30 221,30 221,40 " style="fill:white; stroke-width:1; stroke:black; " description="&lt;b&gt;cds96528_97503&lt;/b&gt;&lt;br&gt;2-dehydro-3-deoxygluconokinase&lt;br&gt;Location: 96528 - 97503" locus_tag="cds96528_97503" class="clusterblast-orf" id="dummy-1_q14_0_all"  />
<polygon points="233,40 234,40 239,35 234,30 233,30 233,40 " style="fill:white; stroke-width:1; stroke:black; " description="&lt;b&gt;cds97603_98224&lt;/b&gt;&lt;br&gt;hypothetical protein&lt;br&gt;Location: 97603 - 98224" locus_tag="cds97603_98224" class="clusterblast-orf" id="dummy-1_q15_0_all"  />
<polygon points="240,40 241,35 240,30 240,40 " style="fill:white; stroke-width:1; stroke:black; " description="&lt;b&gt;cds98246_98342&lt;/b&gt;&lt;br&gt;hypothetical protein&lt;br&gt;Location: 98246 - 98342" locus_tag="cds98246_98342" class="clusterblast-orf" id="dummy-1_q16_0_all"  />
<polygon points="240,35 245,30 254,30 254,40 245,40 240,35 " style="fill:white; stroke-width:1; stroke:black; " description="&lt;b&gt;cds98330_99656&lt;/b&gt;&lt;br&gt;Putrescine importer PuuP&lt;br&gt;Location: 98330 - 99656" locus_tag="cds98330_99656" class="clusterblast-orf" id="dummy-1_q17_0_all"  />
<polygon points="255,40 268,40 273,35 268,30 255,30 255,40 " style="fill:white; stroke-width:1; stroke:black; " description="&lt;b&gt;cds99756_101373&lt;/b&gt;&lt;br&gt;Phytoene desaturase (lycopene-forming)&lt;br&gt;Location: 99756 - 101373" locus_tag="cds99756_101373" class="clusterblast-orf" id="dummy-1_q18_0_all"  />
<polygon points="272,35 277,30 343,30 343,40 277,40 272,35 " style="fill:white; stroke-width:1; stroke:black; " description="&lt;b&gt;cds101331_108036&lt;/b&gt;&lt;br&gt;hypothetical protein&lt;br&gt;Location: 101331 - 108036" locus_tag="cds101331_108036" class="clusterblast-orf" id="dummy-1_q19_0_all"  />
<polygon points="343,35 348,30 407,30 407,40 348,40 343,35 " style="fill:white; stroke-width:1; stroke:black; " description="&lt;b&gt;cds108079_114127&lt;/b&gt;&lt;br&gt;hypothetical protein&lt;br&gt;Location: 108079 - 114127" locus_tag="cds108079_114127" class="clusterblast-orf" id="dummy-1_q20_0_all"  />
<polygon points="408,35 413,30 425,30 425,40 413,40 408,35 " style="fill:#1515d8; stroke-width:1; stroke:black; " description="&lt;b&gt;cds114183_115767&lt;/b&gt;&lt;br&gt;Polyketide biosynthesis protein PksE&lt;br&gt;Location: 114183 - 115767" locus_tag="cds114183_115767" class="clusterblast-orf" id="dummy-1_q21_0_all"  />
<polygon points="425,35 430,30 437,30 437,40 430,40 425,35 " style="fill:white; stroke-width:1; stroke:black; " description="&lt;b&gt;cds115800_116940&lt;/b&gt;&lt;br&gt;hypothetical protein&lt;br&gt;Location: 115800 - 116940" locus_tag="cds115800_116940" class="clusterblast-orf" id="dummy-1_q22_0_all"  />
<polygon points="445,40 454,40 459,35 454,30 445,30 445,40 " style="fill:white; stroke-width:1; stroke:black; " description="&lt;b&gt;cds117690_119061&lt;/b&gt;&lt;br&gt;hypothetical protein&lt;br&gt;Location: 117690 - 119061" locus_tag="cds117690_119061" class="clusterblast-orf" id="dummy-1_q23_0_all"  />
<polygon points="460,35 465,30 475,30 475,40 465,40 460,35 " style="fill:white; stroke-width:1; stroke:black; " description="&lt;b&gt;cds119111_120494&lt;/b&gt;&lt;br&gt;Ferredoxin--NADP reductase&lt;br&gt;Location: 119111 - 120494" locus_tag="cds119111_120494" class="clusterblast-orf" id="dummy-1_q24_0_all"  />
<polygon points="478,40 480,40 485,35 480,30 478,30 478,40 " style="fill:white; stroke-width:1; stroke:black; " description="&lt;b&gt;cds120851_121466&lt;/b&gt;&lt;br&gt;Linearmycin resistance ATP-binding protein LnrL&lt;br&gt;Location: 120851 - 121466" locus_tag="cds120851_121466" class="clusterblast-orf" id="dummy-1_q25_0_all"  />
<polygon points="485,40 489,40 494,35 489,30 485,30 485,40 " style="fill:white; stroke-width:1; stroke:black; " description="&lt;b&gt;cds121462_122323&lt;/b&gt;&lt;br&gt;hypothetical protein&lt;br&gt;Location: 121462 - 122323" locus_tag="cds121462_122323" class="clusterblast-orf" id="dummy-1_q26_0_all"  />
<polygon points="495,40 495,40 500,35 495,30 495,30 495,40 " style="fill:white; stroke-width:1; stroke:black; " description="&lt;b&gt;cds122394_122916&lt;/b&gt;&lt;br&gt;hypothetical protein&lt;br&gt;Location: 122394 - 122916" locus_tag="cds122394_122916" class="clusterblast-orf" id="dummy-1_q27_0_all"  />
<polygon points="502,40 521,40 526,35 521,30 502,30 502,40 " style="fill:white; stroke-width:1; stroke:black; " description="&lt;b&gt;cds123104_125345&lt;/b&gt;&lt;br&gt;Outer membrane protein assembly factor BamB&lt;br&gt;Location: 123104 - 125345" locus_tag="cds123104_125345" class="clusterblast-orf" id="dummy-1_q28_0_all"  />
<polygon points="526,35 531,30 539,30 539,40 531,40 526,35 " style="fill:white; stroke-width:1; stroke:black; " description="&lt;b&gt;cds125387_126587&lt;/b&gt;&lt;br&gt;hypothetical protein&lt;br&gt;Location: 125387 - 126587" locus_tag="cds125387_126587" class="clusterblast-orf" id="dummy-1_q29_0_all"  />
<polygon points="542,40 558,40 563,35 558,30 542,30 542,40 " style="fill:white; stroke-width:1; stroke:black; " description="&lt;b&gt;cds126885_128847&lt;/b&gt;&lt;br&gt;hypothetical protein&lt;br&gt;Location: 126885 - 128847" locus_tag="cds126885_128847" class="clusterblast-orf" id="dummy-1_q30_0_all"  />
<polygon points="565,40 581,40 586,35 581,30 565,30 565,40 " style="fill:white; stroke-width:1; stroke:black; " description="&lt;b&gt;cds129016_131038&lt;/b&gt;&lt;br&gt;hypothetical protein&lt;br&gt;Location: 129016 - 131038" locus_tag="cds129016_131038" class="clusterblast-orf" id="dummy-1_q31_0_all"  />
<polygon points="586,35 591,30 596,30 596,40 591,40 586,35 " style="fill:white; stroke-width:1; stroke:black; " description="&lt;b&gt;cds131015_131951&lt;/b&gt;&lt;br&gt;F420-dependent glucose-6-phosphate dehydrogenase&lt;br&gt;Location: 131015 - 131951" locus_tag="cds131015_131951" class="clusterblast-orf" id="dummy-1_q32_0_all"  />
<polygon points="597,35 602,30 606,30 606,40 602,40 597,35 " style="fill:#d815d8; stroke-width:1; stroke:black; " description="&lt;b&gt;cds132062_132956&lt;/b&gt;&lt;br&gt;Geranyl diphosphate 2-C-methyltransferase&lt;br&gt;Location: 132062 - 132956" locus_tag="cds132062_132956" class="clusterblast-orf" id="dummy-1_q33_0_all"  />
<polygon points="606,35 611,30 620,30 620,40 611,40 606,35 " style="fill:#d8d815; stroke-width:1; stroke:black; " description="&lt;b&gt;cds132960_134271&lt;/b&gt;&lt;br&gt;2-methylisoborneol synthase&lt;br&gt;Location: 132960 - 134271" locus_tag="cds132960_134271" class="clusterblast-orf" id="dummy-1_q34_0_all"  />
<polygon points="621,35 626,30 636,30 636,40 626,40 621,35 " style="fill:#15d8d8; stroke-width:1; stroke:black; " description="&lt;b&gt;cds134382_135795&lt;/b&gt;&lt;br&gt;hypothetical protein&lt;br&gt;Location: 134382 - 135795" locus_tag="cds134382_135795" class="clusterblast-orf" id="dummy-1_q35_0_all"  />
<polygon points="642,35 644,30 644,40 642,35 " style="fill:white; stroke-width:1; stroke:black; " description="&lt;b&gt;cds136297_136564&lt;/b&gt;&lt;br&gt;hypothetical protein&lt;br&gt;Location: 136297 - 136564" locus_tag="cds136297_136564" class="clusterblast-orf" id="dummy-1_q36_0_all"  />
<polygon points="646,35 651,30 653,30 653,40 651,40 646,35 " style="fill:white; stroke-width:1; stroke:black; " description="&lt;b&gt;cds136705_137347&lt;/b&gt;&lt;br&gt;Putative phosphoserine phosphatase 2&lt;br&gt;Location: 136705 - 137347" locus_tag="cds136705_137347" class="clusterblast-orf" id="dummy-1_q37_0_all"  />
<polygon points="654,35 655,30 655,40 654,35 " style="fill:white; stroke-width:1; stroke:black; " description="&lt;b&gt;cds137470_137608&lt;/b&gt;&lt;br&gt;hypothetical protein&lt;br&gt;Location: 137470 - 137608" locus_tag="cds137470_137608" class="clusterblast-orf" id="dummy-1_q38_0_all"  />
<polygon points="656,35 661,30 667,30 667,40 661,40 656,35 " style="fill:white; stroke-width:1; stroke:black; " description="&lt;b&gt;cds137678_138674&lt;/b&gt;&lt;br&gt;hypothetical protein&lt;br&gt;Location: 137678 - 138674" locus_tag="cds137678_138674" class="clusterblast-orf" id="dummy-1_q39_0_all"  />
<polygon points="669,35 674,30 684,30 684,40 674,40 669,35 " style="fill:white; stroke-width:1; stroke:black; " description="&lt;b&gt;cds138887_140312&lt;/b&gt;&lt;br&gt;Drug efflux pump JefA&lt;br&gt;Location: 138887 - 140312" locus_tag="cds138887_140312" class="clusterblast-orf" id="dummy-1_q40_0_all"  />
<polygon points="685,40 688,40 693,35 688,30 685,30 685,40 " style="fill:white; stroke-width:1; stroke:black; " description="&lt;b&gt;cds140420_141113&lt;/b&gt;&lt;br&gt;hypothetical protein&lt;br&gt;Location: 140420 - 141113" locus_tag="cds140420_141113" class="clusterblast-orf" id="dummy-1_q41_0_all"  />
<polygon points="693,35 698,30 717,30 717,40 698,40 693,35 " style="fill:white; stroke-width:1; stroke:black; " description="&lt;b&gt;cds141187_143428&lt;/b&gt;&lt;br&gt;hypothetical protein&lt;br&gt;Location: 141187 - 143428" locus_tag="cds141187_143428" class="clusterblast-orf" id="dummy-1_q42_0_all"  />
</g>
<g label="BGC0001580" description="BGC0001580_c1: ebelactone (5% of genes show similarity), Polyketide" class="clusterblast-cluster"  >
<text x="5" y="70" class="clusterblast-acc"  >
<a xlink:href="https://mibig.secondarymetabolites.org/go/BGC0001580/1" target="_blank">BGC0001580</a>:                                                                       ebelactone (5% of genes show similarity), Polyketide</text>
<line x1="10" y1="85" x2="778.0" y2="85" style="stroke-width:1; stroke:grey; "  />
</g>
<g id="a1_000"  >
<polygon points="0,90 20,90 25,85 20,80 0,80 0,90 " style="fill:white; stroke-width:1; stroke:black; " description="&lt;b&gt;SCN11940.1&lt;/b&gt;&lt;br&gt;peptidoglycan binding protein&lt;br&gt;Location: 127 - 2505" locus_tag="SCN11940.1" class="clusterblast-orf" id="dummy-1_h1_2_0"  />
</g>
<g id="a1_001"  >
<polygon points="25,90 37,90 42,85 37,80 25,80 25,90 " style="fill:white; stroke-width:1; stroke:black; " description="&lt;b&gt;SCN11941.1&lt;/b&gt;&lt;br&gt;putative peptidoglycan binding protein&lt;br&gt;Location: 2586 - 4106" locus_tag="SCN11941.1" class="clusterblast-orf" id="dummy-1_h1_2_1"  />
</g>
<g id="a1_002"  >
<polygon points="43,85 48,80 64,80 64,90 48,90 43,85 " style="fill:white; stroke-width:1; stroke:black; " description="&lt;b&gt;SCN11942.1&lt;/b&gt;&lt;br&gt;glycoside hydrolase&lt;br&gt;Location: 4257 - 6227" locus_tag="SCN11942.1" class="clusterblast-orf" id="dummy-1_h1_2_2"  />
</g>
<g id="a1_003"  >
<polygon points="66,85 71,80 77,80 77,90 71,90 66,85 " style="fill:white; stroke-width:1; stroke:black; " description="&lt;b&gt;SCN11943.1&lt;/b&gt;&lt;br&gt;esterase LipW&lt;br&gt;Location: 6437 - 7456" locus_tag="SCN11943.1" class="clusterblast-orf" id="dummy-1_h1_2_3"  />
</g>
<g id="a1_004"  >
<polygon points="80,90 89,90 94,85 89,80 80,80 80,90 " style="fill:white; stroke-width:1; stroke:black; " description="&lt;b&gt;SCN11944.1&lt;/b&gt;&lt;br&gt;alkaline D-peptidase&lt;br&gt;Location: 7722 - 9050" locus_tag="SCN11944.1" class="clusterblast-orf" id="dummy-1_h1_2_4"  />
</g>
<g id="a1_005"  >
<polygon points="96,90 99,90 104,85 99,80 96,80 96,90 " style="fill:white; stroke-width:1; stroke:black; " description="&lt;b&gt;SCN11945.1&lt;/b&gt;&lt;br&gt;hypothetical protein&lt;br&gt;Location: 9252 - 10013" locus_tag="SCN11945.1" class="clusterblast-orf" id="dummy-1_h1_2_5"  />
</g>
<g id="a1_006"  >
<polygon points="106,85 111,80 115,80 115,90 111,90 106,85 " style="fill:#d815d8; stroke-width:1; stroke:black; " description="&lt;b&gt;SCN11946.1&lt;/b&gt;&lt;br&gt;SAM-dependent methlyltransferase&lt;br&gt;Location: 10194 - 11072&lt;br&gt;&lt;br&gt;&lt;b&gt;BlastP hit with cds132062_132956&lt;/b&gt;&lt;br&gt;Percentage identity: 83&lt;br&gt;Percentage coverage: 99&lt;br&gt;BLAST bit score: 502&lt;br&gt;E-value: 6.4e-142" locus_tag="SCN11946.1" class="clusterblast-orf" id="dummy-1_h1_2_6"  />
</g>
<g id="a1_007"  >
<polygon points="115,85 120,80 127,80 127,90 120,90 115,85 " style="fill:#d8d815; stroke-width:1; stroke:black; " description="&lt;b&gt;SCN11947.1&lt;/b&gt;&lt;br&gt;2-methylisoborneol synthase&lt;br&gt;Location: 11088 - 12161&lt;br&gt;&lt;br&gt;&lt;b&gt;BlastP hit with cds132960_134271&lt;/b&gt;&lt;br&gt;Percentage identity: 78&lt;br&gt;Percentage coverage: 83&lt;br&gt;BLAST bit score: 598&lt;br&gt;E-value: 7.3e-171" locus_tag="SCN11947.1" class="clusterblast-orf" id="dummy-1_h1_2_7"  />
</g>
<g id="a1_008"  >
<polygon points="131,85 136,80 138,80 138,90 136,90 131,85 " style="fill:white; stroke-width:1; stroke:black; " description="&lt;b&gt;SCN11948.1&lt;/b&gt;&lt;br&gt;hypothetical protein&lt;br&gt;Location: 12617 - 13195" locus_tag="SCN11948.1" class="clusterblast-orf" id="dummy-1_h1_2_8"  />
</g>
<g id="a1_009"  >
<polygon points="145,90 173,90 178,85 173,80 145,80 145,90 " style="fill:white; stroke-width:1; stroke:black; " description="&lt;b&gt;SCN11949.1&lt;/b&gt;&lt;br&gt;ebeA-type I polyketide synthase KSQ-ATa-ACP&lt;br&gt;Location: 13864 - 17031" locus_tag="SCN11949.1" class="clusterblast-orf" id="dummy-1_h1_2_9"  />
</g>
<g id="a1_0010"  >
<polygon points="179,90 244,90 249,85 244,80 179,80 179,90 " style="fill:white; stroke-width:1; stroke:black; " description="&lt;b&gt;SCN11950.1&lt;/b&gt;&lt;br&gt;EbeB-type I polyketide synthase&lt;br&gt;Location: 17094 - 23708" locus_tag="SCN11950.1" class="clusterblast-orf" id="dummy-1_h1_2_10"  />
</g>
<g id="a1_0011"  >
<polygon points="250,90 343,90 348,85 343,80 250,80 250,90 " style="fill:white; stroke-width:1; stroke:black; " description="&lt;b&gt;SCN11951.1&lt;/b&gt;&lt;br&gt;ebeC-type I polyketide synthase&lt;br&gt;Location: 23865 - 33065" locus_tag="SCN11951.1" class="clusterblast-orf" id="dummy-1_h1_2_11"  />
</g>
<g id="a1_0012"  >
<polygon points="348,90 467,90 472,85 467,80 348,80 348,90 " style="fill:white; stroke-width:1; stroke:black; " description="&lt;b&gt;SCN11952.1&lt;/b&gt;&lt;br&gt;ebeD-type I polyketide synthase&lt;br&gt;Location: 33058 - 44862" locus_tag="SCN11952.1" class="clusterblast-orf" id="dummy-1_h1_2_12"  />
</g>
<g id="a1_0013"  >
<polygon points="473,90 537,90 542,85 537,80 473,80 473,90 " style="fill:white; stroke-width:1; stroke:black; " description="&lt;b&gt;SCN11953.1&lt;/b&gt;&lt;br&gt;ebeE-type I polyketide synthase&lt;br&gt;Location: 44953 - 51489" locus_tag="SCN11953.1" class="clusterblast-orf" id="dummy-1_h1_2_13"  />
</g>
<g id="a1_0014"  >
<polygon points="543,85 548,80 561,80 561,90 548,90 543,85 " style="fill:white; stroke-width:1; stroke:black; " description="&lt;b&gt;SCN11954.1&lt;/b&gt;&lt;br&gt;Orf1 putative non-ribosomal peptide synthetase&lt;br&gt;Location: 51557 - 53254" locus_tag="SCN11954.1" class="clusterblast-orf" id="dummy-1_h1_2_14"  />
</g>
<g id="a1_0015"  >
<polygon points="566,90 570,90 575,85 570,80 566,80 566,90 " style="fill:white; stroke-width:1; stroke:black; " description="&lt;b&gt;SCN11955.1&lt;/b&gt;&lt;br&gt;short-chain alcohol dehydrogenase&lt;br&gt;Location: 53756 - 54631" locus_tag="SCN11955.1" class="clusterblast-orf" id="dummy-1_h1_2_15"  />
</g>
<g id="a1_0016"  >
<polygon points="576,85 581,80 584,80 584,90 581,90 576,85 " style="fill:white; stroke-width:1; stroke:black; " description="&lt;b&gt;SCN11956.1&lt;/b&gt;&lt;br&gt;esterase&lt;br&gt;Location: 54655 - 55461" locus_tag="SCN11956.1" class="clusterblast-orf" id="dummy-1_h1_2_16"  />
</g>
<g id="a1_0017"  >
<polygon points="585,85 589,80 589,90 585,85 " style="fill:white; stroke-width:1; stroke:black; " description="&lt;b&gt;SCN11957.1&lt;/b&gt;&lt;br&gt;hypothetical protein&lt;br&gt;Location: 55574 - 55927" locus_tag="SCN11957.1" class="clusterblast-orf" id="dummy-1_h1_2_17"  />
</g>
<g id="a1_0018"  >
<polygon points="591,90 596,90 601,85 596,80 591,80 591,90 " style="fill:white; stroke-width:1; stroke:black; " description="&lt;b&gt;SCN11958.1&lt;/b&gt;&lt;br&gt;F420-dependent oxidoreductase&lt;br&gt;Location: 56104 - 57030" locus_tag="SCN11958.1" class="clusterblast-orf" id="dummy-1_h1_2_18"  />
</g>
<g id="a1_0019"  >
<polygon points="604,90 607,90 612,85 607,80 604,80 604,90 " style="fill:white; stroke-width:1; stroke:black; " description="&lt;b&gt;SCN11959.1&lt;/b&gt;&lt;br&gt;ATP/GTP-binding protein&lt;br&gt;Location: 57337 - 58041" locus_tag="SCN11959.1" class="clusterblast-orf" id="dummy-1_h1_2_19"  />
</g>
<g id="a1_0020"  >
<polygon points="615,90 620,90 625,85 620,80 615,80 615,90 " style="fill:white; stroke-width:1; stroke:black; " description="&lt;b&gt;SCN11960.1&lt;/b&gt;&lt;br&gt;metalloprotease MEP1-like protein&lt;br&gt;Location: 58336 - 59355" locus_tag="SCN11960.1" class="clusterblast-orf" id="dummy-1_h1_2_20"  />
</g>
<g id="a1_0021"  >
<polygon points="628,90 628,90 633,85 628,80 628,80 628,90 " style="fill:white; stroke-width:1; stroke:black; " description="&lt;b&gt;SCN11961.1&lt;/b&gt;&lt;br&gt;universal stress protein UspA&lt;br&gt;Location: 59621 - 60085" locus_tag="SCN11961.1" class="clusterblast-orf" id="dummy-1_h1_2_21"  />
</g>
<g id="a1_0022"  >
<polygon points="635,90 637,85 635,80 635,90 " style="fill:white; stroke-width:1; stroke:black; " description="&lt;b&gt;SCN11962.1&lt;/b&gt;&lt;br&gt;cold-shock DNA-binding protein&lt;br&gt;Location: 60216 - 60428" locus_tag="SCN11962.1" class="clusterblast-orf" id="dummy-1_h1_2_22"  />
</g>
<g id="a1_0023"  >
<polygon points="638,90 642,90 647,85 642,80 638,80 638,90 " style="fill:white; stroke-width:1; stroke:black; " description="&lt;b&gt;SCN11963.1&lt;/b&gt;&lt;br&gt;DNA glycosylase&lt;br&gt;Location: 60509 - 61366" locus_tag="SCN11963.1" class="clusterblast-orf" id="dummy-1_h1_2_23"  />
</g>
<g id="a1_0024"  >
<polygon points="646,85 651,80 653,80 653,90 651,90 646,85 " style="fill:white; stroke-width:1; stroke:black; " description="&lt;b&gt;SCN11964.1&lt;/b&gt;&lt;br&gt;uridine kinase&lt;br&gt;Location: 61314 - 61949" locus_tag="SCN11964.1" class="clusterblast-orf" id="dummy-1_h1_2_24"  />
</g>
<g id="a1_0025"  >
<polygon points="653,85 658,80 667,80 667,90 658,90 653,85 " style="fill:white; stroke-width:1; stroke:black; " description="&lt;b&gt;SCN11965.1&lt;/b&gt;&lt;br&gt;hypothetical protein&lt;br&gt;Location: 61995 - 63314" locus_tag="SCN11965.1" class="clusterblast-orf" id="dummy-1_h1_2_25"  />
</g>
<g id="a1_0026"  >
<polygon points="668,85 672,80 672,90 668,85 " style="fill:white; stroke-width:1; stroke:black; " description="&lt;b&gt;SCN11966.1&lt;/b&gt;&lt;br&gt;hypothetical protein&lt;br&gt;Location: 63421 - 63753" locus_tag="SCN11966.1" class="clusterblast-orf" id="dummy-1_h1_2_26"  />
</g>
<g id="a1_0027"  >
<polygon points="674,90 694,90 699,85 694,80 674,80 674,90 " style="fill:white; stroke-width:1; stroke:black; " description="&lt;b&gt;SCN11967.1&lt;/b&gt;&lt;br&gt;putative serine phosphatase RsbU, regulator of sigma subunit&lt;br&gt;Location: 63936 - 66362" locus_tag="SCN11967.1" class="clusterblast-orf" id="dummy-1_h1_2_27"  />
</g>
<g id="a1_0028"  >
<polygon points="701,90 714,90 719,85 714,80 701,80 701,90 " style="fill:white; stroke-width:1; stroke:black; " description="&lt;b&gt;SCN11968.1&lt;/b&gt;&lt;br&gt;putative two-component system sensor kinase&lt;br&gt;Location: 66509 - 68203" locus_tag="SCN11968.1" class="clusterblast-orf" id="dummy-1_h1_2_28"  />
</g>
<g id="a1_0029"  >
<polygon points="720,90 722,90 727,85 722,80 720,80 720,90 " style="fill:white; stroke-width:1; stroke:black; " description="&lt;b&gt;SCN11969.1&lt;/b&gt;&lt;br&gt;LuxR family transcriptional regulator&lt;br&gt;Location: 68299 - 68967" locus_tag="SCN11969.1" class="clusterblast-orf" id="dummy-1_h1_2_29"  />
</g>
<g id="a1_0030"  >
<polygon points="728,85 733,80 733,80 733,90 733,90 728,85 " style="fill:white; stroke-width:1; stroke:black; " description="&lt;b&gt;SCN11970.1&lt;/b&gt;&lt;br&gt;AsnC family transcriptional regulator&lt;br&gt;Location: 69071 - 69502" locus_tag="SCN11970.1" class="clusterblast-orf" id="dummy-1_h1_2_30"  />
</g>
<g id="a1_0031"  >
<polygon points="733,90 735,90 740,85 735,80 733,80 733,90 " style="fill:white; stroke-width:1; stroke:black; " description="&lt;b&gt;SCN11971.1&lt;/b&gt;&lt;br&gt;lysine exporter protein LysE&lt;br&gt;Location: 69582 - 70220" locus_tag="SCN11971.1" class="clusterblast-orf" id="dummy-1_h1_2_31"  />
</g>
<g id="a1_0032"  >
<polygon points="746,90 749,90 754,85 749,80 746,80 746,90 " style="fill:white; stroke-width:1; stroke:black; " description="&lt;b&gt;SCN11972.1&lt;/b&gt;&lt;br&gt;putative transglycosylase&lt;br&gt;Location: 70746 - 71525" locus_tag="SCN11972.1" class="clusterblast-orf" id="dummy-1_h1_2_32"  />
</g>
<g id="a1_0033"  >
<polygon points="755,90 757,90 762,85 757,80 755,80 755,90 " style="fill:white; stroke-width:1; stroke:black; " description="&lt;b&gt;SCN11973.1&lt;/b&gt;&lt;br&gt;ubiquinone biosynthesis methyltransferase UbiE&lt;br&gt;Location: 71600 - 72310" locus_tag="SCN11973.1" class="clusterblast-orf" id="dummy-1_h1_2_33"  />
</g>
<g id="a1_0034"  >
<polygon points="763,90 766,90 771,85 766,80 763,80 763,90 " style="fill:white; stroke-width:1; stroke:black; " description="&lt;b&gt;SCN11974.1&lt;/b&gt;&lt;br&gt;short-chain dehydrogenase/reductase SDR&lt;br&gt;Location: 72410 - 73165" locus_tag="SCN11974.1" class="clusterblast-orf" id="dummy-1_h1_2_34"  />
</g>
<g id="a1_0035"  >
<polygon points="773,90 774,90 779,85 774,80 773,80 773,90 " style="fill:white; stroke-width:1; stroke:black; " description="&lt;b&gt;SCN11975.1&lt;/b&gt;&lt;br&gt;putative ArsR family transcriptional regulator&lt;br&gt;Location: 73339 - 73935" locus_tag="SCN11975.1" class="clusterblast-orf" id="dummy-1_h1_2_35"  />
</g>
</svg>
