<svg xmlns="http://www.w3.org/2000/svg" xmlns:xlink="http://www.w3.org/1999/xlink" version="1.1" x="0" y="0" height="230" width="800" viewBox="0 0 800 230" preserveAspectRatio="none"  >
<g label="Query sequence" class="clusterblast-cluster"  >
<text x="5" y="20" class="clusterblast-acc"  >
Query sequence</text>
<line x1="10" y1="35" x2="778.0" y2="35" style="stroke-width:1; stroke:grey; "  />
<polygon points="11,40 18,40 23,35 18,30 11,30 11,40 " style="fill:#d81515; stroke-width:1; stroke:black; " description="&lt;b&gt;cds81469_82450&lt;/b&gt;&lt;br&gt;hypothetical protein&lt;br&gt;Location: 81469 - 82450" locus_tag="cds81469_82450" class="clusterblast-orf" id="dummy-1_q0_0_all"  />
<polygon points="24,40 31,40 36,35 31,30 24,30 24,40 " style="fill:#15d815; stroke-width:1; stroke:black; " description="&lt;b&gt;cds82548_83541&lt;/b&gt;&lt;br&gt;HTH-type transcriptional repressor CytR&lt;br&gt;Location: 82548 - 83541" locus_tag="cds82548_83541" class="clusterblast-orf" id="dummy-1_q1_0_all"  />
<polygon points="38,40 70,40 75,35 70,30 38,30 38,40 " style="fill:white; stroke-width:1; stroke:black; " description="&lt;b&gt;cds83639_86702&lt;/b&gt;&lt;br&gt;hypothetical protein&lt;br&gt;Location: 83639 - 86702" locus_tag="cds83639_86702" class="clusterblast-orf" id="dummy-1_q2_0_all"  />
<polygon points="76,35 81,30 85,30 85,40 81,40 76,35 " style="fill:white; stroke-width:1; stroke:black; " description="&lt;b&gt;cds86800_87535&lt;/b&gt;&lt;br&gt;3-alpha-(or 20-beta)-hydroxysteroid dehydrogenase&lt;br&gt;Location: 86800 - 87535" locus_tag="cds86800_87535" class="clusterblast-orf" id="dummy-1_q3_0_all"  />
<polygon points="85,35 90,30 97,30 97,40 90,40 85,35 " style="fill:white; stroke-width:1; stroke:black; " description="&lt;b&gt;cds87531_88503&lt;/b&gt;&lt;br&gt;hypothetical protein&lt;br&gt;Location: 87531 - 88503" locus_tag="cds87531_88503" class="clusterblast-orf" id="dummy-1_q4_0_all"  />
<polygon points="98,35 103,30 110,30 110,40 103,40 98,35 " style="fill:white; stroke-width:1; stroke:black; " description="&lt;b&gt;cds88603_89542&lt;/b&gt;&lt;br&gt;hypothetical protein&lt;br&gt;Location: 88603 - 89542" locus_tag="cds88603_89542" class="clusterblast-orf" id="dummy-1_q5_0_all"  />
<polygon points="110,35 115,30 123,30 123,40 115,40 110,35 " style="fill:white; stroke-width:1; stroke:black; " description="&lt;b&gt;cds89555_90587&lt;/b&gt;&lt;br&gt;hypothetical protein&lt;br&gt;Location: 89555 - 90587" locus_tag="cds89555_90587" class="clusterblast-orf" id="dummy-1_q6_0_all"  />
<polygon points="122,35 127,30 136,30 136,40 127,40 122,35 " style="fill:white; stroke-width:1; stroke:black; " description="&lt;b&gt;cds90583_91714&lt;/b&gt;&lt;br&gt;2-heptyl-3-hydroxy-4(1H)-quinolone synthase&lt;br&gt;Location: 90583 - 91714" locus_tag="cds90583_91714" class="clusterblast-orf" id="dummy-1_q7_0_all"  />
<polygon points="137,35 142,30 148,30 148,40 142,40 137,35 " style="fill:white; stroke-width:1; stroke:black; " description="&lt;b&gt;cds91741_92704&lt;/b&gt;&lt;br&gt;hypothetical protein&lt;br&gt;Location: 91741 - 92704" locus_tag="cds91741_92704" class="clusterblast-orf" id="dummy-1_q8_0_all"  />
<polygon points="148,35 153,30 160,30 160,40 153,40 148,35 " style="fill:white; stroke-width:1; stroke:black; " description="&lt;b&gt;cds92700_93693&lt;/b&gt;&lt;br&gt;Ureidoglycolate lyase&lt;br&gt;Location: 92700 - 93693" locus_tag="cds92700_93693" class="clusterblast-orf" id="dummy-1_q9_0_all"  />
<polygon points="162,40 168,40 173,35 168,30 162,30 162,40 " style="fill:white; stroke-width:1; stroke:black; " description="&lt;b&gt;cds93826_94756&lt;/b&gt;&lt;br&gt;Nodulation protein D 2&lt;br&gt;Location: 93826 - 94756" locus_tag="cds93826_94756" class="clusterblast-orf" id="dummy-1_q10_0_all"  />
<polygon points="176,40 176,40 181,35 176,30 176,30 176,40 " style="fill:white; stroke-width:1; stroke:black; " description="&lt;b&gt;cds94940_95381&lt;/b&gt;&lt;br&gt;hypothetical protein&lt;br&gt;Location: 94940 - 95381" locus_tag="cds94940_95381" class="clusterblast-orf" id="dummy-1_q11_0_all"  />
<polygon points="184,40 186,35 184,30 184,40 " style="fill:white; stroke-width:1; stroke:black; " description="&lt;b&gt;cds95630_95813&lt;/b&gt;&lt;br&gt;D-galactonate dehydratase&lt;br&gt;Location: 95630 - 95813" locus_tag="cds95630_95813" class="clusterblast-orf" id="dummy-1_q12_0_all"  />
<polygon points="187,40 190,40 195,35 190,30 187,30 187,40 " style="fill:white; stroke-width:1; stroke:black; " description="&lt;b&gt;cds95890_96532&lt;/b&gt;&lt;br&gt;KHG/KDPG aldolase&lt;br&gt;Location: 95890 - 96532" locus_tag="cds95890_96532" class="clusterblast-orf" id="dummy-1_q13_0_all"  />
<polygon points="195,40 202,40 207,35 202,30 195,30 195,40 " style="fill:white; stroke-width:1; stroke:black; " description="&lt;b&gt;cds96528_97503&lt;/b&gt;&lt;br&gt;2-dehydro-3-deoxygluconokinase&lt;br&gt;Location: 96528 - 97503" locus_tag="cds96528_97503" class="clusterblast-orf" id="dummy-1_q14_0_all"  />
<polygon points="208,40 211,40 216,35 211,30 208,30 208,40 " style="fill:white; stroke-width:1; stroke:black; " description="&lt;b&gt;cds97603_98224&lt;/b&gt;&lt;br&gt;hypothetical protein&lt;br&gt;Location: 97603 - 98224" locus_tag="cds97603_98224" class="clusterblast-orf" id="dummy-1_q15_0_all"  />
<polygon points="216,40 217,35 216,30 216,40 " style="fill:white; stroke-width:1; stroke:black; " description="&lt;b&gt;cds98246_98342&lt;/b&gt;&lt;br&gt;hypothetical protein&lt;br&gt;Location: 98246 - 98342" locus_tag="cds98246_98342" class="clusterblast-orf" id="dummy-1_q16_0_all"  />
<polygon points="217,35 222,30 233,30 233,40 222,40 217,35 " style="fill:white; stroke-width:1; stroke:black; " description="&lt;b&gt;cds98330_99656&lt;/b&gt;&lt;br&gt;Putrescine importer PuuP&lt;br&gt;Location: 98330 - 99656" locus_tag="cds98330_99656" class="clusterblast-orf" id="dummy-1_q17_0_all"  />
<polygon points="235,40 249,40 254,35 249,30 235,30 235,40 " style="fill:white; stroke-width:1; stroke:black; " description="&lt;b&gt;cds99756_101373&lt;/b&gt;&lt;br&gt;Phytoene desaturase (lycopene-forming)&lt;br&gt;Location: 99756 - 101373" locus_tag="cds99756_101373" class="clusterblast-orf" id="dummy-1_q18_0_all"  />
<polygon points="254,35 259,30 336,30 336,40 259,40 254,35 " style="fill:white; stroke-width:1; stroke:black; " description="&lt;b&gt;cds101331_108036&lt;/b&gt;&lt;br&gt;hypothetical protein&lt;br&gt;Location: 101331 - 108036" locus_tag="cds101331_108036" class="clusterblast-orf" id="dummy-1_q19_0_all"  />
<polygon points="336,35 341,30 410,30 410,40 341,40 336,35 " style="fill:white; stroke-width:1; stroke:black; " description="&lt;b&gt;cds108079_114127&lt;/b&gt;&lt;br&gt;hypothetical protein&lt;br&gt;Location: 108079 - 114127" locus_tag="cds108079_114127" class="clusterblast-orf" id="dummy-1_q20_0_all"  />
<polygon points="411,35 416,30 430,30 430,40 416,40 411,35 " style="fill:#1515d8; stroke-width:1; stroke:black; " description="&lt;b&gt;cds114183_115767&lt;/b&gt;&lt;br&gt;Polyketide biosynthesis protein PksE&lt;br&gt;Location: 114183 - 115767" locus_tag="cds114183_115767" class="clusterblast-orf" id="dummy-1_q21_0_all"  />
<polygon points="431,35 436,30 444,30 444,40 436,40 431,35 " style="fill:white; stroke-width:1; stroke:black; " description="&lt;b&gt;cds115800_116940&lt;/b&gt;&lt;br&gt;hypothetical protein&lt;br&gt;Location: 115800 - 116940" locus_tag="cds115800_116940" class="clusterblast-orf" id="dummy-1_q22_0_all"  />
<polygon points="454,40 465,40 470,35 465,30 454,30 454,40 " style="fill:white; stroke-width:1; stroke:black; " description="&lt;b&gt;cds117690_119061&lt;/b&gt;&lt;br&gt;hypothetical protein&lt;br&gt;Location: 117690 - 119061" locus_tag="cds117690_119061" class="clusterblast-orf" id="dummy-1_q23_0_all"  />
<polygon points="471,35 476,30 488,30 488,40 476,40 471,35 " style="fill:white; stroke-width:1; stroke:black; " description="&lt;b&gt;cds119111_120494&lt;/b&gt;&lt;br&gt;Ferredoxin--NADP reductase&lt;br&gt;Location: 119111 - 120494" locus_tag="cds119111_120494" class="clusterblast-orf" id="dummy-1_q24_0_all"  />
<polygon points="492,40 495,40 500,35 495,30 492,30 492,40 " style="fill:white; stroke-width:1; stroke:black; " description="&lt;b&gt;cds120851_121466&lt;/b&gt;&lt;br&gt;Linearmycin resistance ATP-binding protein LnrL&lt;br&gt;Location: 120851 - 121466" locus_tag="cds120851_121466" class="clusterblast-orf" id="dummy-1_q25_0_all"  />
<polygon points="500,40 505,40 510,35 505,30 500,30 500,40 " style="fill:white; stroke-width:1; stroke:black; " description="&lt;b&gt;cds121462_122323&lt;/b&gt;&lt;br&gt;hypothetical protein&lt;br&gt;Location: 121462 - 122323" locus_tag="cds121462_122323" class="clusterblast-orf" id="dummy-1_q26_0_all"  />
<polygon points="511,40 513,40 518,35 513,30 511,30 511,40 " style="fill:white; stroke-width:1; stroke:black; " description="&lt;b&gt;cds122394_122916&lt;/b&gt;&lt;br&gt;hypothetical protein&lt;br&gt;Location: 122394 - 122916" locus_tag="cds122394_122916" class="clusterblast-orf" id="dummy-1_q27_0_all"  />
<polygon points="520,40 542,40 547,35 542,30 520,30 520,40 " style="fill:white; stroke-width:1; stroke:black; " description="&lt;b&gt;cds123104_125345&lt;/b&gt;&lt;br&gt;Outer membrane protein assembly factor BamB&lt;br&gt;Location: 123104 - 125345" locus_tag="cds123104_125345" class="clusterblast-orf" id="dummy-1_q28_0_all"  />
<polygon points="548,35 553,30 562,30 562,40 553,40 548,35 " style="fill:white; stroke-width:1; stroke:black; " description="&lt;b&gt;cds125387_126587&lt;/b&gt;&lt;br&gt;hypothetical protein&lt;br&gt;Location: 125387 - 126587" locus_tag="cds125387_126587" class="clusterblast-orf" id="dummy-1_q29_0_all"  />
<polygon points="566,40 585,40 590,35 585,30 566,30 566,40 " style="fill:white; stroke-width:1; stroke:black; " description="&lt;b&gt;cds126885_128847&lt;/b&gt;&lt;br&gt;hypothetical protein&lt;br&gt;Location: 126885 - 128847" locus_tag="cds126885_128847" class="clusterblast-orf" id="dummy-1_q30_0_all"  />
<polygon points="592,40 612,40 617,35 612,30 592,30 592,40 " style="fill:white; stroke-width:1; stroke:black; " description="&lt;b&gt;cds129016_131038&lt;/b&gt;&lt;br&gt;hypothetical protein&lt;br&gt;Location: 129016 - 131038" locus_tag="cds129016_131038" class="clusterblast-orf" id="dummy-1_q31_0_all"  />
<polygon points="616,35 621,30 628,30 628,40 621,40 616,35 " style="fill:white; stroke-width:1; stroke:black; " description="&lt;b&gt;cds131015_131951&lt;/b&gt;&lt;br&gt;F420-dependent glucose-6-phosphate dehydrogenase&lt;br&gt;Location: 131015 - 131951" locus_tag="cds131015_131951" class="clusterblast-orf" id="dummy-1_q32_0_all"  />
<polygon points="629,35 634,30 640,30 640,40 634,40 629,35 " style="fill:#d815d8; stroke-width:1; stroke:black; " description="&lt;b&gt;cds132062_132956&lt;/b&gt;&lt;br&gt;Geranyl diphosphate 2-C-methyltransferase&lt;br&gt;Location: 132062 - 132956" locus_tag="cds132062_132956" class="clusterblast-orf" id="dummy-1_q33_0_all"  />
<polygon points="640,35 645,30 656,30 656,40 645,40 640,35 " style="fill:#d8d815; stroke-width:1; stroke:black; " description="&lt;b&gt;cds132960_134271&lt;/b&gt;&lt;br&gt;2-methylisoborneol synthase&lt;br&gt;Location: 132960 - 134271" locus_tag="cds132960_134271" class="clusterblast-orf" id="dummy-1_q34_0_all"  />
<polygon points="658,35 663,30 675,30 675,40 663,40 658,35 " style="fill:#15d8d8; stroke-width:1; stroke:black; " description="&lt;b&gt;cds134382_135795&lt;/b&gt;&lt;br&gt;hypothetical protein&lt;br&gt;Location: 134382 - 135795" locus_tag="cds134382_135795" class="clusterblast-orf" id="dummy-1_q35_0_all"  />
<polygon points="681,35 684,30 684,40 681,35 " style="fill:white; stroke-width:1; stroke:black; " description="&lt;b&gt;cds136297_136564&lt;/b&gt;&lt;br&gt;hypothetical protein&lt;br&gt;Location: 136297 - 136564" locus_tag="cds136297_136564" class="clusterblast-orf" id="dummy-1_q36_0_all"  />
<polygon points="686,35 691,30 694,30 694,40 691,40 686,35 " style="fill:white; stroke-width:1; stroke:black; " description="&lt;b&gt;cds136705_137347&lt;/b&gt;&lt;br&gt;Putative phosphoserine phosphatase 2&lt;br&gt;Location: 136705 - 137347" locus_tag="cds136705_137347" class="clusterblast-orf" id="dummy-1_q37_0_all"  />
<polygon points="695,35 697,30 697,40 695,35 " style="fill:white; stroke-width:1; stroke:black; " description="&lt;b&gt;cds137470_137608&lt;/b&gt;&lt;br&gt;hypothetical protein&lt;br&gt;Location: 137470 - 137608" locus_tag="cds137470_137608" class="clusterblast-orf" id="dummy-1_q38_0_all"  />
<polygon points="698,35 703,30 710,30 710,40 703,40 698,35 " style="fill:white; stroke-width:1; stroke:black; " description="&lt;b&gt;cds137678_138674&lt;/b&gt;&lt;br&gt;hypothetical protein&lt;br&gt;Location: 137678 - 138674" locus_tag="cds137678_138674" class="clusterblast-orf" id="dummy-1_q39_0_all"  />
<polygon points="713,35 718,30 730,30 730,40 718,40 713,35 " style="fill:white; stroke-width:1; stroke:black; " description="&lt;b&gt;cds138887_140312&lt;/b&gt;&lt;br&gt;Drug efflux pump JefA&lt;br&gt;Location: 138887 - 140312" locus_tag="cds138887_140312" class="clusterblast-orf" id="dummy-1_q40_0_all"  />
<polygon points="731,40 735,40 740,35 735,30 731,30 731,40 " style="fill:white; stroke-width:1; stroke:black; " description="&lt;b&gt;cds140420_141113&lt;/b&gt;&lt;br&gt;hypothetical protein&lt;br&gt;Location: 140420 - 141113" locus_tag="cds140420_141113" class="clusterblast-orf" id="dummy-1_q41_0_all"  />
<polygon points="741,35 746,30 768,30 768,40 746,40 741,35 " style="fill:white; stroke-width:1; stroke:black; " description="&lt;b&gt;cds141187_143428&lt;/b&gt;&lt;br&gt;hypothetical protein&lt;br&gt;Location: 141187 - 143428" locus_tag="cds141187_143428" class="clusterblast-orf" id="dummy-1_q42_0_all"  />
</g>
<g label="BGC0001823" description="BGC0001823_c1: weishanmycin (6% of genes show similarity), NRP + Polyketide" class="clusterblast-cluster"  >
<text x="5" y="70" class="clusterblast-acc"  >
<a xlink:href="https://mibig.secondarymetabolites.org/go/BGC0001823/1" target="_blank">BGC0001823</a>:                                                                     weishanmycin (6% of genes show similarity), NRP + Polyketide</text>
<line x1="10" y1="85" x2="778.0" y2="85" style="stroke-width:1; stroke:grey; "  />
</g>
<g id="a1_000"  >
<polygon points="0,90 12,90 17,85 12,80 0,80 0,90 " style="fill:white; stroke-width:1; stroke:black; " description="&lt;b&gt;ATY69577.1&lt;/b&gt;&lt;br&gt;peptidase M1&lt;br&gt;Location: 68166 - 66739" locus_tag="ATY69577.1" class="clusterblast-orf" id="dummy-1_h1_5_0"  />
</g>
<g id="a1_001"  >
<polygon points="17,85 22,80 28,80 28,90 22,90 17,85 " style="fill:white; stroke-width:1; stroke:black; " description="&lt;b&gt;ATY69578.1&lt;/b&gt;&lt;br&gt;3-hydroxyacyl-CoA dehydrogenase&lt;br&gt;Location: 66707 - 65823" locus_tag="ATY69578.1" class="clusterblast-orf" id="dummy-1_h1_5_1"  />
</g>
<g id="a1_002"  >
<polygon points="28,85 33,80 40,80 40,90 33,90 28,85 " style="fill:white; stroke-width:1; stroke:black; " description="&lt;b&gt;ATY69579.1&lt;/b&gt;&lt;br&gt;ketoacyl-acyl carrier protein synthase III&lt;br&gt;Location: 65826 - 64834" locus_tag="ATY69579.1" class="clusterblast-orf" id="dummy-1_h1_5_2"  />
</g>
<g id="a1_003"  >
<polygon points="40,85 45,80 57,80 57,90 45,90 40,85 " style="fill:white; stroke-width:1; stroke:black; " description="&lt;b&gt;ATY69580.1&lt;/b&gt;&lt;br&gt;crotonyl-CoA carboxylase/reductase&lt;br&gt;Location: 64837 - 63479" locus_tag="ATY69580.1" class="clusterblast-orf" id="dummy-1_h1_5_3"  />
</g>
<g id="a1_004"  >
<polygon points="57,85 60,80 60,90 57,85 " style="fill:white; stroke-width:1; stroke:black; " description="&lt;b&gt;ATY69581.1&lt;/b&gt;&lt;br&gt;ferredoxin&lt;br&gt;Location: 63420 - 63196" locus_tag="ATY69581.1" class="clusterblast-orf" id="dummy-1_h1_5_4"  />
</g>
<g id="a1_005"  >
<polygon points="60,85 65,80 75,80 75,90 65,90 60,85 " style="fill:white; stroke-width:1; stroke:black; " description="&lt;b&gt;ATY69582.1&lt;/b&gt;&lt;br&gt;cytochrome P450 oxygenase&lt;br&gt;Location: 63199 - 61973" locus_tag="ATY69582.1" class="clusterblast-orf" id="dummy-1_h1_5_5"  />
</g>
<g id="a1_006"  >
<polygon points="77,90 78,90 83,85 78,80 77,80 77,90 " style="fill:white; stroke-width:1; stroke:black; " description="&lt;b&gt;ATY69583.1&lt;/b&gt;&lt;br&gt;truncated hemoglobin&lt;br&gt;Location: 61791 - 61366" locus_tag="ATY69583.1" class="clusterblast-orf" id="dummy-1_h1_5_6"  />
</g>
<g id="a1_007"  >
<polygon points="83,90 160,90 165,85 160,80 83,80 83,90 " style="fill:white; stroke-width:1; stroke:black; " description="&lt;b&gt;ATY69584.1&lt;/b&gt;&lt;br&gt;hybrid nonribosomal peptide synthetase/type I polyketide synthase&lt;br&gt;Location: 61369 - 54635" locus_tag="ATY69584.1" class="clusterblast-orf" id="dummy-1_h1_5_7"  />
</g>
<g id="a1_008"  >
<polygon points="165,90 169,90 174,85 169,80 165,80 165,90 " style="fill:white; stroke-width:1; stroke:black; " description="&lt;b&gt;ATY69585.1&lt;/b&gt;&lt;br&gt;type II thioesterase&lt;br&gt;Location: 54638 - 53883" locus_tag="ATY69585.1" class="clusterblast-orf" id="dummy-1_h1_5_8"  />
</g>
<g id="a1_009"  >
<polygon points="174,85 179,80 189,80 189,90 179,90 174,85 " style="fill:white; stroke-width:1; stroke:black; " description="&lt;b&gt;ATY69586.1&lt;/b&gt;&lt;br&gt;beta-ketoacyl-ACP synthase&lt;br&gt;Location: 53917 - 52691" locus_tag="ATY69586.1" class="clusterblast-orf" id="dummy-1_h1_5_9"  />
</g>
<g id="a1_0010"  >
<polygon points="189,85 192,80 192,90 189,85 " style="fill:white; stroke-width:1; stroke:black; " description="&lt;b&gt;ATY69587.1&lt;/b&gt;&lt;br&gt;acyl carrier protein&lt;br&gt;Location: 52694 - 52449" locus_tag="ATY69587.1" class="clusterblast-orf" id="dummy-1_h1_5_10"  />
</g>
<g id="a1_0011"  >
<polygon points="192,85 197,80 207,80 207,90 197,90 192,85 " style="fill:white; stroke-width:1; stroke:black; " description="&lt;b&gt;ATY69588.1&lt;/b&gt;&lt;br&gt;HMG-CoA synthase&lt;br&gt;Location: 52426 - 51182" locus_tag="ATY69588.1" class="clusterblast-orf" id="dummy-1_h1_5_11"  />
</g>
<g id="a1_0012"  >
<polygon points="207,85 212,80 480,80 480,90 212,90 207,85 " style="fill:white; stroke-width:1; stroke:black; " description="&lt;b&gt;ATY69589.1&lt;/b&gt;&lt;br&gt;type I polyketide synthase&lt;br&gt;Location: 51185 - 28854" locus_tag="ATY69589.1" class="clusterblast-orf" id="dummy-1_h1_5_12"  />
</g>
<g id="a1_0013"  >
<polygon points="481,85 486,80 500,80 500,90 486,90 481,85 " style="fill:white; stroke-width:1; stroke:black; " description="&lt;b&gt;ATY69590.1&lt;/b&gt;&lt;br&gt;adenylation protein&lt;br&gt;Location: 28760 - 27180" locus_tag="ATY69590.1" class="clusterblast-orf" id="dummy-1_h1_5_13"  />
</g>
<g id="a1_0014"  >
<polygon points="501,85 504,80 504,90 501,85 " style="fill:white; stroke-width:1; stroke:black; " description="&lt;b&gt;ATY69591.1&lt;/b&gt;&lt;br&gt;peptidyl carrier protein&lt;br&gt;Location: 27157 - 26906" locus_tag="ATY69591.1" class="clusterblast-orf" id="dummy-1_h1_5_14"  />
</g>
<g id="a1_0015"  >
<polygon points="505,90 516,90 521,85 516,80 505,80 505,90 " style="fill:white; stroke-width:1; stroke:black; " description="&lt;b&gt;ATY69592.1&lt;/b&gt;&lt;br&gt;putative alpha/beta hydrolase&lt;br&gt;Location: 26811 - 25444" locus_tag="ATY69592.1" class="clusterblast-orf" id="dummy-1_h1_5_15"  />
</g>
<g id="a1_0016"  >
<polygon points="521,90 526,90 531,85 526,80 521,80 521,90 " style="fill:white; stroke-width:1; stroke:black; " description="&lt;b&gt;ATY69593.1&lt;/b&gt;&lt;br&gt;methyltransferase&lt;br&gt;Location: 25447 - 24698" locus_tag="ATY69593.1" class="clusterblast-orf" id="dummy-1_h1_5_16"  />
</g>
<g id="a1_0017"  >
<polygon points="531,85 536,80 540,80 540,90 536,90 531,85 " style="fill:white; stroke-width:1; stroke:black; " description="&lt;b&gt;ATY69594.1&lt;/b&gt;&lt;br&gt;N-acetylglucosaminyl deacetylase&lt;br&gt;Location: 24638 - 23928" locus_tag="ATY69594.1" class="clusterblast-orf" id="dummy-1_h1_5_17"  />
</g>
<g id="a1_0018"  >
<polygon points="542,90 546,85 542,80 542,90 " style="fill:white; stroke-width:1; stroke:black; " description="&lt;b&gt;ATY69595.1&lt;/b&gt;&lt;br&gt;glyoxalase/bleomycin resistance protein&lt;br&gt;Location: 23761 - 23396" locus_tag="ATY69595.1" class="clusterblast-orf" id="dummy-1_h1_5_18"  />
</g>
<g id="a1_0019"  >
<polygon points="547,85 552,80 559,80 559,90 552,90 547,85 " style="fill:white; stroke-width:1; stroke:black; " description="&lt;b&gt;ATY69596.1&lt;/b&gt;&lt;br&gt;hypothetical protein&lt;br&gt;Location: 23314 - 22406" locus_tag="ATY69596.1" class="clusterblast-orf" id="dummy-1_h1_5_19"  />
</g>
<g id="a1_0020"  >
<polygon points="560,85 565,80 588,80 588,90 565,90 560,85 " style="fill:#1515d8; stroke-width:1; stroke:black; " description="&lt;b&gt;ATY69597.1&lt;/b&gt;&lt;br&gt;acyltransferase/oxidoreductase&lt;br&gt;Location: 22301 - 19980&lt;br&gt;&lt;br&gt;&lt;b&gt;BlastP hit with cds114183_115767&lt;/b&gt;&lt;br&gt;Percentage identity: 46&lt;br&gt;Percentage coverage: 83&lt;br&gt;BLAST bit score: 347&lt;br&gt;E-value: 3.6e-95" locus_tag="ATY69597.1" class="clusterblast-orf" id="dummy-1_h1_5_20"  />
</g>
<g id="a1_0021"  >
<polygon points="588,85 593,80 598,80 598,90 593,90 588,85 " style="fill:white; stroke-width:1; stroke:black; " description="&lt;b&gt;ATY69598.1&lt;/b&gt;&lt;br&gt;hypothetical protein&lt;br&gt;Location: 19975 - 19169" locus_tag="ATY69598.1" class="clusterblast-orf" id="dummy-1_h1_5_21"  />
</g>
<g id="a1_0022"  >
<polygon points="600,85 605,80 619,80 619,90 605,90 600,85 " style="fill:white; stroke-width:1; stroke:black; " description="&lt;b&gt;ATY69599.1&lt;/b&gt;&lt;br&gt;antibiotic efflux protein&lt;br&gt;Location: 19030 - 17465" locus_tag="ATY69599.1" class="clusterblast-orf" id="dummy-1_h1_5_22"  />
</g>
<g id="a1_0023"  >
<polygon points="622,85 627,80 701,80 701,90 627,90 622,85 " style="fill:white; stroke-width:1; stroke:black; " description="&lt;b&gt;ATY69600.1&lt;/b&gt;&lt;br&gt;type I polyketide synthase&lt;br&gt;Location: 17185 - 10742" locus_tag="ATY69600.1" class="clusterblast-orf" id="dummy-1_h1_5_23"  />
</g>
<g id="a1_0024"  >
<polygon points="702,85 707,80 713,80 713,90 707,90 702,85 " style="fill:white; stroke-width:1; stroke:black; " description="&lt;b&gt;ATY69601.1&lt;/b&gt;&lt;br&gt;acyltransferase&lt;br&gt;Location: 10679 - 9807" locus_tag="ATY69601.1" class="clusterblast-orf" id="dummy-1_h1_5_24"  />
</g>
<g id="a1_0025"  >
<polygon points="713,85 718,80 722,80 722,90 718,90 713,85 " style="fill:white; stroke-width:1; stroke:black; " description="&lt;b&gt;ATY69602.1&lt;/b&gt;&lt;br&gt;enoyl-CoA hydratase&lt;br&gt;Location: 9802 - 8996" locus_tag="ATY69602.1" class="clusterblast-orf" id="dummy-1_h1_5_25"  />
</g>
<g id="a1_0026"  >
<polygon points="722,85 727,80 737,80 737,90 727,90 722,85 " style="fill:white; stroke-width:1; stroke:black; " description="&lt;b&gt;ATY69603.1&lt;/b&gt;&lt;br&gt;HMG-CoA synthase&lt;br&gt;Location: 9005 - 7809" locus_tag="ATY69603.1" class="clusterblast-orf" id="dummy-1_h1_5_26"  />
</g>
<g id="a1_0027"  >
<polygon points="740,90 744,90 749,85 744,80 740,80 740,90 " style="fill:white; stroke-width:1; stroke:black; " description="&lt;b&gt;ATY69604.1&lt;/b&gt;&lt;br&gt;phosphopantetheinyl transferase&lt;br&gt;Location: 7569 - 6814" locus_tag="ATY69604.1" class="clusterblast-orf" id="dummy-1_h1_5_27"  />
</g>
<g id="a1_0028"  >
<polygon points="749,90 751,90 756,85 751,80 749,80 749,90 " style="fill:white; stroke-width:1; stroke:black; " description="&lt;b&gt;ATY69605.1&lt;/b&gt;&lt;br&gt;YdeI-like protein&lt;br&gt;Location: 6800 - 6228" locus_tag="ATY69605.1" class="clusterblast-orf" id="dummy-1_h1_5_28"  />
</g>
<g id="a1_0029"  >
<polygon points="758,90 761,90 766,85 761,80 758,80 758,90 " style="fill:white; stroke-width:1; stroke:black; " description="&lt;b&gt;ATY69606.1&lt;/b&gt;&lt;br&gt;Crp/Fnr/Fnr family transcriptional regulator&lt;br&gt;Location: 6073 - 5414" locus_tag="ATY69606.1" class="clusterblast-orf" id="dummy-1_h1_5_29"  />
</g>
<g id="a1_0030"  >
<polygon points="769,85 774,80 780,80 780,90 774,90 769,85 " style="fill:#d815d8; stroke-width:1; stroke:black; " description="&lt;b&gt;ATY69607.1&lt;/b&gt;&lt;br&gt;SAM-dependent methyltransferase&lt;br&gt;Location: 5209 - 4325&lt;br&gt;&lt;br&gt;&lt;b&gt;BlastP hit with cds132062_132956&lt;/b&gt;&lt;br&gt;Percentage identity: 87&lt;br&gt;Percentage coverage: 99&lt;br&gt;BLAST bit score: 528&lt;br&gt;E-value: 6.4e-150" locus_tag="ATY69607.1" class="clusterblast-orf" id="dummy-1_h1_5_30"  />
</g>
</svg>
