<svg xmlns="http://www.w3.org/2000/svg" xmlns:xlink="http://www.w3.org/1999/xlink" version="1.1" x="0" y="0" height="230" width="800" viewBox="0 0 800 230" preserveAspectRatio="none"  >
<g label="Query sequence" class="clusterblast-cluster"  >
<text x="5" y="20" class="clusterblast-acc"  >
Query sequence</text>
<line x1="10" y1="35" x2="778.0" y2="35" style="stroke-width:1; stroke:grey; "  />
<polygon points="54,35 59,30 65,30 65,40 59,40 54,35 " style="fill:white; stroke-width:1; stroke:black; " description="&lt;b&gt;cds133096_134494&lt;/b&gt;&lt;br&gt;D-hydantoinase&lt;br&gt;Location: 133096 - 134494" locus_tag="cds133096_134494" class="clusterblast-orf" id="dummy-1_q0_0_all"  />
<polygon points="65,35 70,30 74,30 74,40 70,40 65,35 " style="fill:white; stroke-width:1; stroke:black; " description="&lt;b&gt;cds134575_135859&lt;/b&gt;&lt;br&gt;Acetylornithine aminotransferase&lt;br&gt;Location: 134575 - 135859" locus_tag="cds134575_135859" class="clusterblast-orf" id="dummy-1_q1_0_all"  />
<polygon points="74,35 79,30 81,30 81,40 79,40 74,35 " style="fill:white; stroke-width:1; stroke:black; " description="&lt;b&gt;cds135855_136698&lt;/b&gt;&lt;br&gt;N-carbamoyl-D-amino acid hydrolase&lt;br&gt;Location: 135855 - 136698" locus_tag="cds135855_136698" class="clusterblast-orf" id="dummy-1_q2_0_all"  />
<polygon points="82,35 87,30 89,30 89,40 87,40 82,35 " style="fill:white; stroke-width:1; stroke:black; " description="&lt;b&gt;cds136835_137864&lt;/b&gt;&lt;br&gt;D-alanyl-D-alanine-carboxypeptidase/endopeptidase AmpH&lt;br&gt;Location: 136835 - 137864" locus_tag="cds136835_137864" class="clusterblast-orf" id="dummy-1_q3_0_all"  />
<polygon points="89,35 94,30 96,30 96,40 94,40 89,35 " style="fill:white; stroke-width:1; stroke:black; " description="&lt;b&gt;cds137868_138789&lt;/b&gt;&lt;br&gt;hypothetical protein&lt;br&gt;Location: 137868 - 138789" locus_tag="cds137868_138789" class="clusterblast-orf" id="dummy-1_q4_0_all"  />
<polygon points="96,35 101,30 101,30 101,40 101,40 96,35 " style="fill:white; stroke-width:1; stroke:black; " description="&lt;b&gt;cds138785_139517&lt;/b&gt;&lt;br&gt;hypothetical protein&lt;br&gt;Location: 138785 - 139517" locus_tag="cds138785_139517" class="clusterblast-orf" id="dummy-1_q5_0_all"  />
<polygon points="101,35 102,30 102,40 101,35 " style="fill:white; stroke-width:1; stroke:black; " description="&lt;b&gt;cds139513_139696&lt;/b&gt;&lt;br&gt;hypothetical protein&lt;br&gt;Location: 139513 - 139696" locus_tag="cds139513_139696" class="clusterblast-orf" id="dummy-1_q6_0_all"  />
<polygon points="103,35 108,30 113,30 113,40 108,40 103,35 " style="fill:white; stroke-width:1; stroke:black; " description="&lt;b&gt;cds139834_141184&lt;/b&gt;&lt;br&gt;hypothetical protein&lt;br&gt;Location: 139834 - 141184" locus_tag="cds139834_141184" class="clusterblast-orf" id="dummy-1_q7_0_all"  />
<polygon points="114,35 117,30 117,40 114,35 " style="fill:white; stroke-width:1; stroke:black; " description="&lt;b&gt;cds141320_141701&lt;/b&gt;&lt;br&gt;hypothetical protein&lt;br&gt;Location: 141320 - 141701" locus_tag="cds141320_141701" class="clusterblast-orf" id="dummy-1_q8_0_all"  />
<polygon points="117,35 119,30 119,40 117,35 " style="fill:white; stroke-width:1; stroke:black; " description="&lt;b&gt;cds141720_142014&lt;/b&gt;&lt;br&gt;hypothetical protein&lt;br&gt;Location: 141720 - 142014" locus_tag="cds141720_142014" class="clusterblast-orf" id="dummy-1_q9_0_all"  />
<polygon points="120,35 124,30 124,40 120,35 " style="fill:white; stroke-width:1; stroke:black; " description="&lt;b&gt;cds142120_142783&lt;/b&gt;&lt;br&gt;hypothetical protein&lt;br&gt;Location: 142120 - 142783" locus_tag="cds142120_142783" class="clusterblast-orf" id="dummy-1_q10_0_all"  />
<polygon points="126,35 131,30 139,30 139,40 131,40 126,35 " style="fill:white; stroke-width:1; stroke:black; " description="&lt;b&gt;cds142956_144762&lt;/b&gt;&lt;br&gt;Glutathione hydrolase proenzyme&lt;br&gt;Location: 142956 - 144762" locus_tag="cds142956_144762" class="clusterblast-orf" id="dummy-1_q11_0_all"  />
<polygon points="139,35 144,30 145,30 145,40 144,40 139,35 " style="fill:#d81515; stroke-width:1; stroke:black; " description="&lt;b&gt;cds144853_145621&lt;/b&gt;&lt;br&gt;Thioesterase PikA5&lt;br&gt;Location: 144853 - 145621" locus_tag="cds144853_145621" class="clusterblast-orf" id="dummy-1_q12_0_all"  />
<polygon points="146,35 151,30 151,30 151,40 151,40 146,35 " style="fill:#56d815; stroke-width:1; stroke:black; " description="&lt;b&gt;cds145747_146392&lt;/b&gt;&lt;br&gt;Transcriptional regulatory protein LnrK&lt;br&gt;Location: 145747 - 146392" locus_tag="cds145747_146392" class="clusterblast-orf" id="dummy-1_q13_0_all"  />
<polygon points="150,35 155,30 160,30 160,40 155,40 150,35 " style="fill:#1597d8; stroke-width:1; stroke:black; " description="&lt;b&gt;cds146355_147630&lt;/b&gt;&lt;br&gt;hypothetical protein&lt;br&gt;Location: 146355 - 147630" locus_tag="cds146355_147630" class="clusterblast-orf" id="dummy-1_q14_0_all"  />
<polygon points="160,35 165,30 178,30 178,40 165,40 160,35 " style="fill:#9715d8; stroke-width:1; stroke:black; " description="&lt;b&gt;cds147716_150227&lt;/b&gt;&lt;br&gt;hypothetical protein&lt;br&gt;Location: 147716 - 150227" locus_tag="cds147716_150227" class="clusterblast-orf" id="dummy-1_q15_0_all"  />
<polygon points="178,35 183,30 184,30 184,40 183,40 178,35 " style="fill:#d85615; stroke-width:1; stroke:black; " description="&lt;b&gt;cds150226_151030&lt;/b&gt;&lt;br&gt;Vitamin B12 import ATP-binding protein BtuD&lt;br&gt;Location: 150226 - 151030" locus_tag="cds150226_151030" class="clusterblast-orf" id="dummy-1_q16_0_all"  />
<polygon points="188,40 190,35 188,30 188,40 " style="fill:#15d815; stroke-width:1; stroke:black; " description="&lt;b&gt;cds151604_151853&lt;/b&gt;&lt;br&gt;hypothetical protein&lt;br&gt;Location: 151604 - 151853" locus_tag="cds151604_151853" class="clusterblast-orf" id="dummy-1_q17_0_all"  />
<polygon points="191,35 196,30 219,30 219,40 196,40 191,35 " style="fill:#1556d8; stroke-width:1; stroke:black; " description="&lt;b&gt;cds151956_155832&lt;/b&gt;&lt;br&gt;hypothetical protein&lt;br&gt;Location: 151956 - 155832" locus_tag="cds151956_155832" class="clusterblast-orf" id="dummy-1_q18_0_all"  />
<polygon points="219,35 224,30 331,30 331,40 224,40 219,35 " style="fill:#1556d8; stroke-width:1; stroke:black; " description="&lt;b&gt;cds155846_171317&lt;/b&gt;&lt;br&gt;hypothetical protein&lt;br&gt;Location: 155846 - 171317" locus_tag="cds155846_171317" class="clusterblast-orf" id="dummy-1_q19_0_all"  />
<polygon points="331,35 336,30 366,30 366,40 336,40 331,35 " style="fill:#1556d8; stroke-width:1; stroke:black; " description="&lt;b&gt;cds171384_176133&lt;/b&gt;&lt;br&gt;Narbonolide/10-deoxymethynolide synthase PikA3, module 5&lt;br&gt;Location: 171384 - 176133" locus_tag="cds171384_176133" class="clusterblast-orf" id="dummy-1_q20_0_all"  />
<polygon points="366,35 371,30 405,30 405,40 371,40 366,35 " style="fill:#1556d8; stroke-width:1; stroke:black; " description="&lt;b&gt;cds176132_181562&lt;/b&gt;&lt;br&gt;Narbonolide/10-deoxymethynolide synthase PikA1, modules 1 and 2&lt;br&gt;Location: 176132 - 181562" locus_tag="cds176132_181562" class="clusterblast-orf" id="dummy-1_q21_0_all"  />
<polygon points="409,40 424,40 429,35 424,30 409,30 409,40 " style="fill:#d815d8; stroke-width:1; stroke:black; " description="&lt;b&gt;cds182202_184983&lt;/b&gt;&lt;br&gt;hypothetical protein&lt;br&gt;Location: 182202 - 184983" locus_tag="cds182202_184983" class="clusterblast-orf" id="dummy-1_q22_0_all"  />
<polygon points="431,35 436,30 507,30 507,40 436,40 431,35 " style="fill:#1556d8; stroke-width:1; stroke:black; " description="&lt;b&gt;cds185197_195727&lt;/b&gt;&lt;br&gt;3-ketoacyl-CoA thiolase&lt;br&gt;Location: 185197 - 195727" locus_tag="cds185197_195727" class="clusterblast-orf" id="dummy-1_q23_0_all"  />
<polygon points="508,35 513,30 586,30 586,40 513,40 508,35 " style="fill:#1556d8; stroke-width:1; stroke:black; " description="&lt;b&gt;cds195852_206688&lt;/b&gt;&lt;br&gt;3-ketoacyl-CoA thiolase&lt;br&gt;Location: 195852 - 206688" locus_tag="cds195852_206688" class="clusterblast-orf" id="dummy-1_q24_0_all"  />
<polygon points="587,35 592,30 596,30 596,40 592,40 587,35 " style="fill:#d89715; stroke-width:1; stroke:black; " description="&lt;b&gt;cds206808_208062&lt;/b&gt;&lt;br&gt;Glutamate mutase epsilon subunit&lt;br&gt;Location: 206808 - 208062" locus_tag="cds206808_208062" class="clusterblast-orf" id="dummy-1_q25_0_all"  />
<polygon points="596,35 599,30 599,40 596,35 " style="fill:#15d856; stroke-width:1; stroke:black; " description="&lt;b&gt;cds208058_208508&lt;/b&gt;&lt;br&gt;Glutamate mutase sigma subunit&lt;br&gt;Location: 208058 - 208508" locus_tag="cds208058_208508" class="clusterblast-orf" id="dummy-1_q26_0_all"  />
<polygon points="599,35 604,30 608,30 608,40 604,40 599,35 " style="fill:#1515d8; stroke-width:1; stroke:black; " description="&lt;b&gt;cds208507_209746&lt;/b&gt;&lt;br&gt;L-glutamyl-[BtrI acyl-carrier protein] decarboxylase&lt;br&gt;Location: 208507 - 209746" locus_tag="cds208507_209746" class="clusterblast-orf" id="dummy-1_q27_0_all"  />
<polygon points="608,35 613,30 619,30 619,40 613,40 608,35 " style="fill:#d81597; stroke-width:1; stroke:black; " description="&lt;b&gt;cds209742_211269&lt;/b&gt;&lt;br&gt;Long-chain-fatty-acid--CoA ligase&lt;br&gt;Location: 209742 - 211269" locus_tag="cds209742_211269" class="clusterblast-orf" id="dummy-1_q28_0_all"  />
<polygon points="619,35 624,30 631,30 631,40 624,40 619,35 " style="fill:#d8d815; stroke-width:1; stroke:black; " description="&lt;b&gt;cds211265_212834&lt;/b&gt;&lt;br&gt;D-alanine--D-alanyl carrier protein ligase&lt;br&gt;Location: 211265 - 212834" locus_tag="cds211265_212834" class="clusterblast-orf" id="dummy-1_q29_0_all"  />
<polygon points="631,35 633,30 633,40 631,35 " style="fill:#15d897; stroke-width:1; stroke:black; " description="&lt;b&gt;cds212859_213111&lt;/b&gt;&lt;br&gt;hypothetical protein&lt;br&gt;Location: 212859 - 213111" locus_tag="cds212859_213111" class="clusterblast-orf" id="dummy-1_q30_0_all"  />
<polygon points="633,35 638,30 640,30 640,40 638,40 633,35 " style="fill:#5615d8; stroke-width:1; stroke:black; " description="&lt;b&gt;cds213154_214090&lt;/b&gt;&lt;br&gt;hypothetical protein&lt;br&gt;Location: 213154 - 214090" locus_tag="cds213154_214090" class="clusterblast-orf" id="dummy-1_q31_0_all"  />
<polygon points="640,35 645,30 647,30 647,40 645,40 640,35 " style="fill:#d81556; stroke-width:1; stroke:black; " description="&lt;b&gt;cds214155_215073&lt;/b&gt;&lt;br&gt;L-amino acid amidase&lt;br&gt;Location: 214155 - 215073" locus_tag="cds214155_215073" class="clusterblast-orf" id="dummy-1_q32_0_all"  />
<polygon points="650,40 653,40 658,35 653,30 650,30 650,40 " style="fill:#97d815; stroke-width:1; stroke:black; " description="&lt;b&gt;cds215433_216666&lt;/b&gt;&lt;br&gt;Cytochrome P450 105A3&lt;br&gt;Location: 215433 - 216666" locus_tag="cds215433_216666" class="clusterblast-orf" id="dummy-1_q33_0_all"  />
<polygon points="659,40 663,40 668,35 663,30 659,30 659,40 " style="fill:#97d815; stroke-width:1; stroke:black; " description="&lt;b&gt;cds216721_217957&lt;/b&gt;&lt;br&gt;Pentalenic acid synthase&lt;br&gt;Location: 216721 - 217957" locus_tag="cds216721_217957" class="clusterblast-orf" id="dummy-1_q34_0_all"  />
<polygon points="668,40 669,35 668,30 668,40 " style="fill:#15d8d8; stroke-width:1; stroke:black; " description="&lt;b&gt;cds217953_218175&lt;/b&gt;&lt;br&gt;Ferredoxin-1&lt;br&gt;Location: 217953 - 218175" locus_tag="cds217953_218175" class="clusterblast-orf" id="dummy-1_q35_0_all"  />
<polygon points="670,40 676,40 681,35 676,30 670,30 670,40 " style="fill:white; stroke-width:1; stroke:black; " description="&lt;b&gt;cds218289_219780&lt;/b&gt;&lt;br&gt;Methylmalonyl-CoA mutase large subunit&lt;br&gt;Location: 218289 - 219780" locus_tag="cds218289_219780" class="clusterblast-orf" id="dummy-1_q36_0_all"  />
<polygon points="681,35 686,30 688,30 688,40 686,40 681,35 " style="fill:white; stroke-width:1; stroke:black; " description="&lt;b&gt;cds219830_220703&lt;/b&gt;&lt;br&gt;3-phenylpropionate-dihydrodiol/cinnamic acid-dihydrodiol dehydrogenase&lt;br&gt;Location: 219830 - 220703" locus_tag="cds219830_220703" class="clusterblast-orf" id="dummy-1_q37_0_all"  />
<polygon points="689,40 692,35 689,30 689,40 " style="fill:white; stroke-width:1; stroke:black; " description="&lt;b&gt;cds220863_221250&lt;/b&gt;&lt;br&gt;hypothetical protein&lt;br&gt;Location: 220863 - 221250" locus_tag="cds220863_221250" class="clusterblast-orf" id="dummy-1_q38_0_all"  />
<polygon points="694,35 697,30 697,40 694,35 " style="fill:white; stroke-width:1; stroke:black; " description="&lt;b&gt;cds221642_221963&lt;/b&gt;&lt;br&gt;hypothetical protein&lt;br&gt;Location: 221642 - 221963" locus_tag="cds221642_221963" class="clusterblast-orf" id="dummy-1_q39_0_all"  />
<polygon points="698,35 703,30 707,30 707,40 703,40 698,35 " style="fill:white; stroke-width:1; stroke:black; " description="&lt;b&gt;cds222124_223399&lt;/b&gt;&lt;br&gt;hypothetical protein&lt;br&gt;Location: 222124 - 223399" locus_tag="cds222124_223399" class="clusterblast-orf" id="dummy-1_q40_0_all"  />
<polygon points="709,40 717,40 722,35 717,30 709,30 709,40 " style="fill:white; stroke-width:1; stroke:black; " description="&lt;b&gt;cds223695_225441&lt;/b&gt;&lt;br&gt;putative cytochrome c oxidase subunit 1&lt;br&gt;Location: 223695 - 225441" locus_tag="cds223695_225441" class="clusterblast-orf" id="dummy-1_q41_0_all"  />
<polygon points="722,40 725,35 722,30 722,40 " style="fill:white; stroke-width:1; stroke:black; " description="&lt;b&gt;cds225437_225827&lt;/b&gt;&lt;br&gt;hypothetical protein&lt;br&gt;Location: 225437 - 225827" locus_tag="cds225437_225827" class="clusterblast-orf" id="dummy-1_q42_0_all"  />
</g>
<g label="BGC0001303" description="BGC0001303_c1: lobosamide A / lobosamide B / lobosamide C (30% of genes show similarity), Polyketide" class="clusterblast-cluster"  >
<text x="5" y="70" class="clusterblast-acc"  >
<a xlink:href="https://mibig.secondarymetabolites.org/go/BGC0001303/1" target="_blank">BGC0001303</a>:                                       lobosamide A / lobosamide B / lobosamide C (30% of genes show similarity), Polyketide</text>
<line x1="10" y1="85" x2="778.0" y2="85" style="stroke-width:1; stroke:grey; "  />
</g>
<g id="a1_000"  >
<polygon points="0,85 5,80 6,80 6,90 5,90 0,85 " style="fill:white; stroke-width:1; stroke:black; " description="&lt;b&gt;ALA09384.1&lt;/b&gt;&lt;br&gt;hypothetical protein&lt;br&gt;Location: 108348 - 107488" locus_tag="ALA09384.1" class="clusterblast-orf" id="dummy-1_h1_6_0"  />
</g>
<g id="a1_001"  >
<polygon points="7,85 12,80 14,80 14,90 12,90 7,85 " style="fill:white; stroke-width:1; stroke:black; " description="&lt;b&gt;ALA09383.1&lt;/b&gt;&lt;br&gt;hypothetical protein&lt;br&gt;Location: 107378 - 106356" locus_tag="ALA09383.1" class="clusterblast-orf" id="dummy-1_h1_6_1"  />
</g>
<g id="a1_002"  >
<polygon points="14,85 19,80 28,80 28,90 19,90 14,85 " style="fill:white; stroke-width:1; stroke:black; " description="&lt;b&gt;ALA09382.1&lt;/b&gt;&lt;br&gt;hypothetical protein&lt;br&gt;Location: 106345 - 104444" locus_tag="ALA09382.1" class="clusterblast-orf" id="dummy-1_h1_6_2"  />
</g>
<g id="a1_003"  >
<polygon points="30,90 36,90 41,85 36,80 30,80 30,90 " style="fill:white; stroke-width:1; stroke:black; " description="&lt;b&gt;ALA09381.1&lt;/b&gt;&lt;br&gt;serine/threonine protein kinase&lt;br&gt;Location: 104091 - 102577" locus_tag="ALA09381.1" class="clusterblast-orf" id="dummy-1_h1_6_3"  />
</g>
<g id="a1_004"  >
<polygon points="41,90 46,90 51,85 46,80 41,80 41,90 " style="fill:#1597d8; stroke-width:1; stroke:black; " description="&lt;b&gt;ALA09380.1&lt;/b&gt;&lt;br&gt;sensor histidine kinase&lt;br&gt;Location: 102580 - 101255&lt;br&gt;&lt;br&gt;&lt;b&gt;BlastP hit with cds146355_147630&lt;/b&gt;&lt;br&gt;Percentage identity: 53&lt;br&gt;Percentage coverage: 99&lt;br&gt;BLAST bit score: 411&lt;br&gt;E-value: 1.2e-114" locus_tag="ALA09380.1" class="clusterblast-orf" id="dummy-1_h1_6_4"  />
</g>
<g id="a1_005"  >
<polygon points="51,90 55,85 51,80 51,90 " style="fill:#56d815; stroke-width:1; stroke:black; " description="&lt;b&gt;ALA09379.1&lt;/b&gt;&lt;br&gt;LuxR family DNA-binding response regulator&lt;br&gt;Location: 101246 - 100629&lt;br&gt;&lt;br&gt;&lt;b&gt;BlastP hit with cds145747_146392&lt;/b&gt;&lt;br&gt;Percentage identity: 71&lt;br&gt;Percentage coverage: 93&lt;br&gt;BLAST bit score: 270&lt;br&gt;E-value: 1.7e-72" locus_tag="ALA09379.1" class="clusterblast-orf" id="dummy-1_h1_6_5"  />
</g>
<g id="a1_006"  >
<polygon points="57,85 62,80 75,80 75,90 62,90 57,85 " style="fill:white; stroke-width:1; stroke:black; " description="&lt;b&gt;ALA09378.1&lt;/b&gt;&lt;br&gt;ABC transporter&lt;br&gt;Location: 100428 - 97864" locus_tag="ALA09378.1" class="clusterblast-orf" id="dummy-1_h1_6_6"  />
</g>
<g id="a1_007"  >
<polygon points="75,85 80,80 81,80 81,90 80,90 75,85 " style="fill:#d85615; stroke-width:1; stroke:black; " description="&lt;b&gt;ALA09377.1&lt;/b&gt;&lt;br&gt;ABC transporter&lt;br&gt;Location: 97864 - 97058&lt;br&gt;&lt;br&gt;&lt;b&gt;BlastP hit with cds150226_151030&lt;/b&gt;&lt;br&gt;Percentage identity: 65&lt;br&gt;Percentage coverage: 93&lt;br&gt;BLAST bit score: 316&lt;br&gt;E-value: 5.8e-86" locus_tag="ALA09377.1" class="clusterblast-orf" id="dummy-1_h1_6_7"  />
</g>
<g id="a1_008"  >
<polygon points="82,85 87,80 89,80 89,90 87,90 82,85 " style="fill:white; stroke-width:1; stroke:black; " description="&lt;b&gt;ALA09376.1&lt;/b&gt;&lt;br&gt;transcriptional regulator&lt;br&gt;Location: 96917 - 96015" locus_tag="ALA09376.1" class="clusterblast-orf" id="dummy-1_h1_6_8"  />
</g>
<g id="a1_009"  >
<polygon points="89,85 94,80 103,80 103,90 94,90 89,85 " style="fill:white; stroke-width:1; stroke:black; " description="&lt;b&gt;ALA09375.1&lt;/b&gt;&lt;br&gt;transcriptional regulator&lt;br&gt;Location: 96030 - 94084" locus_tag="ALA09375.1" class="clusterblast-orf" id="dummy-1_h1_6_9"  />
</g>
<g id="a1_0010"  >
<polygon points="112,85 116,80 116,90 112,85 " style="fill:#d81515; stroke-width:1; stroke:black; " description="&lt;b&gt;ALA09374.1&lt;/b&gt;&lt;br&gt;thioesterase&lt;br&gt;Location: 92804 - 92169&lt;br&gt;&lt;br&gt;&lt;b&gt;BlastP hit with cds144853_145621&lt;/b&gt;&lt;br&gt;Percentage identity: 53&lt;br&gt;Percentage coverage: 79&lt;br&gt;BLAST bit score: 218&lt;br&gt;E-value: 1.2e-56" locus_tag="ALA09374.1" class="clusterblast-orf" id="dummy-1_h1_6_10"  />
</g>
<g id="a1_0011"  >
<polygon points="120,85 125,80 132,80 132,90 125,90 120,85 " style="fill:white; stroke-width:1; stroke:black; " description="&lt;b&gt;ALA09373.1&lt;/b&gt;&lt;br&gt;drug resistance transporter EmrB/QacA&lt;br&gt;Location: 91712 - 89979" locus_tag="ALA09373.1" class="clusterblast-orf" id="dummy-1_h1_6_11"  />
</g>
<g id="a1_0012"  >
<polygon points="133,90 137,85 133,80 133,90 " style="fill:white; stroke-width:1; stroke:black; " description="&lt;b&gt;ALA09372.1&lt;/b&gt;&lt;br&gt;transcriptional regulator&lt;br&gt;Location: 89897 - 89289" locus_tag="ALA09372.1" class="clusterblast-orf" id="dummy-1_h1_6_12"  />
</g>
<g id="a1_0013"  >
<polygon points="142,85 147,80 295,80 295,90 147,90 142,85 " style="fill:#1556d8; stroke-width:1; stroke:black; " description="&lt;b&gt;ALA09371.1&lt;/b&gt;&lt;br&gt;type I modular PKS&lt;br&gt;Location: 88672 - 67391&lt;br&gt;&lt;br&gt;&lt;b&gt;BlastP hit with cds151956_155832&lt;/b&gt;&lt;br&gt;Percentage identity: 59&lt;br&gt;Percentage coverage: 70&lt;br&gt;BLAST bit score: 922&lt;br&gt;E-value: 6.6e-268&lt;br&gt;&lt;br&gt;&lt;b&gt;BlastP hit with cds155846_171317&lt;/b&gt;&lt;br&gt;Percentage identity: 53&lt;br&gt;Percentage coverage: 103&lt;br&gt;BLAST bit score: 4646&lt;br&gt;E-value: 0.0&lt;br&gt;&lt;br&gt;&lt;b&gt;BlastP hit with cds176132_181562&lt;/b&gt;&lt;br&gt;Percentage identity: 52&lt;br&gt;Percentage coverage: 97&lt;br&gt;BLAST bit score: 1580&lt;br&gt;E-value: 0.0&lt;br&gt;&lt;br&gt;&lt;b&gt;BlastP hit with cds185197_195727&lt;/b&gt;&lt;br&gt;Percentage identity: 57&lt;br&gt;Percentage coverage: 102&lt;br&gt;BLAST bit score: 3507&lt;br&gt;E-value: 0.0&lt;br&gt;&lt;br&gt;&lt;b&gt;BlastP hit with cds195852_206688&lt;/b&gt;&lt;br&gt;Percentage identity: 54&lt;br&gt;Percentage coverage: 102&lt;br&gt;BLAST bit score: 3271&lt;br&gt;E-value: 0.0" locus_tag="ALA09371.1" class="clusterblast-orf" id="dummy-1_h1_6_13"  />
</g>
<g id="a1_0014"  >
<polygon points="298,85 303,80 307,80 307,90 303,90 298,85 " style="fill:white; stroke-width:1; stroke:black; " description="&lt;b&gt;ALA09370.1&lt;/b&gt;&lt;br&gt;cytochrome P450&lt;br&gt;Location: 67021 - 65834" locus_tag="ALA09370.1" class="clusterblast-orf" id="dummy-1_h1_6_14"  />
</g>
<g id="a1_0015"  >
<polygon points="309,90 314,90 319,85 314,80 309,80 309,90 " style="fill:white; stroke-width:1; stroke:black; " description="&lt;b&gt;ALA09369.1&lt;/b&gt;&lt;br&gt;glutamate 2,3- aminomutase&lt;br&gt;Location: 65476 - 64130" locus_tag="ALA09369.1" class="clusterblast-orf" id="dummy-1_h1_6_15"  />
</g>
<g id="a1_0016"  >
<polygon points="319,90 323,90 328,85 323,80 319,80 319,90 " style="fill:white; stroke-width:1; stroke:black; " description="&lt;b&gt;ALA09368.1&lt;/b&gt;&lt;br&gt;aminotransferase&lt;br&gt;Location: 64101 - 62845" locus_tag="ALA09368.1" class="clusterblast-orf" id="dummy-1_h1_6_16"  />
</g>
<g id="a1_0017"  >
<polygon points="329,90 331,90 336,85 331,80 329,80 329,90 " style="fill:#5615d8; stroke-width:1; stroke:black; " description="&lt;b&gt;ALA09367.1&lt;/b&gt;&lt;br&gt;amalonyl CoA-acyl carrier protein transacylase&lt;br&gt;Location: 62776 - 61847&lt;br&gt;&lt;br&gt;&lt;b&gt;BlastP hit with cds213154_214090&lt;/b&gt;&lt;br&gt;Percentage identity: 53&lt;br&gt;Percentage coverage: 99&lt;br&gt;BLAST bit score: 332&lt;br&gt;E-value: 9.1e-91" locus_tag="ALA09367.1" class="clusterblast-orf" id="dummy-1_h1_6_17"  />
</g>
<g id="a1_0018"  >
<polygon points="336,90 342,90 347,85 342,80 336,80 336,90 " style="fill:#d8d815; stroke-width:1; stroke:black; " description="&lt;b&gt;ALA09366.1&lt;/b&gt;&lt;br&gt;AMP-dependent synthetase and ligase&lt;br&gt;Location: 61821 - 60277&lt;br&gt;&lt;br&gt;&lt;b&gt;BlastP hit with cds211265_212834&lt;/b&gt;&lt;br&gt;Percentage identity: 60&lt;br&gt;Percentage coverage: 98&lt;br&gt;BLAST bit score: 570&lt;br&gt;E-value: 2.6e-162" locus_tag="ALA09366.1" class="clusterblast-orf" id="dummy-1_h1_6_18"  />
</g>
<g id="a1_0019"  >
<polygon points="348,85 353,80 359,80 359,90 353,90 348,85 " style="fill:white; stroke-width:1; stroke:black; " description="&lt;b&gt;ALA09365.1&lt;/b&gt;&lt;br&gt;AMP-dependent synthetase and ligase&lt;br&gt;Location: 60135 - 58576" locus_tag="ALA09365.1" class="clusterblast-orf" id="dummy-1_h1_6_19"  />
</g>
<g id="a1_0020"  >
<polygon points="361,90 362,85 361,80 361,90 " style="fill:#15d897; stroke-width:1; stroke:black; " description="&lt;b&gt;ALA09364.1&lt;/b&gt;&lt;br&gt;ACP starter unit biosynthesis protein&lt;br&gt;Location: 58381 - 58127&lt;br&gt;&lt;br&gt;&lt;b&gt;BlastP hit with cds212859_213111&lt;/b&gt;&lt;br&gt;Percentage identity: 55&lt;br&gt;Percentage coverage: 93&lt;br&gt;BLAST bit score: 86&lt;br&gt;E-value: 2.3e-17" locus_tag="ALA09364.1" class="clusterblast-orf" id="dummy-1_h1_6_20"  />
</g>
<g id="a1_0021"  >
<polygon points="363,85 368,80 368,80 368,90 368,90 363,85 " style="fill:white; stroke-width:1; stroke:black; " description="&lt;b&gt;ALA09363.1&lt;/b&gt;&lt;br&gt;aldo/keto reductase family oxidoreductase&lt;br&gt;Location: 58061 - 57294" locus_tag="ALA09363.1" class="clusterblast-orf" id="dummy-1_h1_6_21"  />
</g>
<g id="a1_0022"  >
<polygon points="368,85 369,80 369,90 368,85 " style="fill:white; stroke-width:1; stroke:black; " description="&lt;b&gt;ALA09362.1&lt;/b&gt;&lt;br&gt;aldo/keto reductase family oxidoreductase&lt;br&gt;Location: 57294 - 57151" locus_tag="ALA09362.1" class="clusterblast-orf" id="dummy-1_h1_6_22"  />
</g>
<g id="a1_0023"  >
<polygon points="370,90 373,85 370,80 370,90 " style="fill:white; stroke-width:1; stroke:black; " description="&lt;b&gt;ALA09361.1&lt;/b&gt;&lt;br&gt;transcriptional regulator&lt;br&gt;Location: 57075 - 56632" locus_tag="ALA09361.1" class="clusterblast-orf" id="dummy-1_h1_6_23"  />
</g>
<g id="a1_0024"  >
<polygon points="374,85 379,80 381,80 381,90 379,90 374,85 " style="fill:#d81556; stroke-width:1; stroke:black; " description="&lt;b&gt;ALA09360.1&lt;/b&gt;&lt;br&gt;peptidase&lt;br&gt;Location: 56519 - 55614&lt;br&gt;&lt;br&gt;&lt;b&gt;BlastP hit with cds214155_215073&lt;/b&gt;&lt;br&gt;Percentage identity: 67&lt;br&gt;Percentage coverage: 95&lt;br&gt;BLAST bit score: 419&lt;br&gt;E-value: 4.3e-117" locus_tag="ALA09360.1" class="clusterblast-orf" id="dummy-1_h1_6_24"  />
</g>
<g id="a1_0025"  >
<polygon points="381,85 386,80 399,80 399,90 386,90 381,85 " style="fill:white; stroke-width:1; stroke:black; " description="&lt;b&gt;ALA09359.1&lt;/b&gt;&lt;br&gt;type I modular PKS&lt;br&gt;Location: 55590 - 53029" locus_tag="ALA09359.1" class="clusterblast-orf" id="dummy-1_h1_6_25"  />
</g>
<g id="a1_0026"  >
<polygon points="401,85 406,80 433,80 433,90 406,90 401,85 " style="fill:#1556d8; stroke-width:1; stroke:black; " description="&lt;b&gt;ALA09358.1&lt;/b&gt;&lt;br&gt;type I modular PKS&lt;br&gt;Location: 52861 - 48338&lt;br&gt;&lt;br&gt;&lt;b&gt;BlastP hit with cds151956_155832&lt;/b&gt;&lt;br&gt;Percentage identity: 61&lt;br&gt;Percentage coverage: 67&lt;br&gt;BLAST bit score: 938&lt;br&gt;E-value: 1.5e-272&lt;br&gt;&lt;br&gt;&lt;b&gt;BlastP hit with cds171384_176133&lt;/b&gt;&lt;br&gt;Percentage identity: 58&lt;br&gt;Percentage coverage: 55&lt;br&gt;BLAST bit score: 934&lt;br&gt;E-value: 2e-271&lt;br&gt;&lt;br&gt;&lt;b&gt;BlastP hit with cds176132_181562&lt;/b&gt;&lt;br&gt;Percentage identity: 54&lt;br&gt;Percentage coverage: 56&lt;br&gt;BLAST bit score: 959&lt;br&gt;E-value: 6.8e-279&lt;br&gt;&lt;br&gt;&lt;b&gt;BlastP hit with cds185197_195727&lt;/b&gt;&lt;br&gt;Percentage identity: 56&lt;br&gt;Percentage coverage: 42&lt;br&gt;BLAST bit score: 1411&lt;br&gt;E-value: 0.0&lt;br&gt;&lt;br&gt;&lt;b&gt;BlastP hit with cds195852_206688&lt;/b&gt;&lt;br&gt;Percentage identity: 55&lt;br&gt;Percentage coverage: 40&lt;br&gt;BLAST bit score: 1366&lt;br&gt;E-value: 0.0" locus_tag="ALA09358.1" class="clusterblast-orf" id="dummy-1_h1_6_26"  />
</g>
<g id="a1_0027"  >
<polygon points="433,85 438,80 498,80 498,90 438,90 433,85 " style="fill:#1556d8; stroke-width:1; stroke:black; " description="&lt;b&gt;ALA09357.1&lt;/b&gt;&lt;br&gt;type I modular PKS&lt;br&gt;Location: 48341 - 39402&lt;br&gt;&lt;br&gt;&lt;b&gt;BlastP hit with cds151956_155832&lt;/b&gt;&lt;br&gt;Percentage identity: 61&lt;br&gt;Percentage coverage: 67&lt;br&gt;BLAST bit score: 925&lt;br&gt;E-value: 7.8e-269&lt;br&gt;&lt;br&gt;&lt;b&gt;BlastP hit with cds155846_171317&lt;/b&gt;&lt;br&gt;Percentage identity: 54&lt;br&gt;Percentage coverage: 54&lt;br&gt;BLAST bit score: 2625&lt;br&gt;E-value: 0.0&lt;br&gt;&lt;br&gt;&lt;b&gt;BlastP hit with cds176132_181562&lt;/b&gt;&lt;br&gt;Percentage identity: 52&lt;br&gt;Percentage coverage: 99&lt;br&gt;BLAST bit score: 1539&lt;br&gt;E-value: 0.0&lt;br&gt;&lt;br&gt;&lt;b&gt;BlastP hit with cds185197_195727&lt;/b&gt;&lt;br&gt;Percentage identity: 52&lt;br&gt;Percentage coverage: 80&lt;br&gt;BLAST bit score: 2439&lt;br&gt;E-value: 0.0&lt;br&gt;&lt;br&gt;&lt;b&gt;BlastP hit with cds195852_206688&lt;/b&gt;&lt;br&gt;Percentage identity: 52&lt;br&gt;Percentage coverage: 78&lt;br&gt;BLAST bit score: 2423&lt;br&gt;E-value: 0.0" locus_tag="ALA09357.1" class="clusterblast-orf" id="dummy-1_h1_6_27"  />
</g>
<g id="a1_0028"  >
<polygon points="498,85 503,80 533,80 533,90 503,90 498,85 " style="fill:#1556d8; stroke-width:1; stroke:black; " description="&lt;b&gt;ALA09356.1&lt;/b&gt;&lt;br&gt;type I modular PKS&lt;br&gt;Location: 39342 - 34582&lt;br&gt;&lt;br&gt;&lt;b&gt;BlastP hit with cds151956_155832&lt;/b&gt;&lt;br&gt;Percentage identity: 53&lt;br&gt;Percentage coverage: 69&lt;br&gt;BLAST bit score: 786&lt;br&gt;E-value: 5.6e-227&lt;br&gt;&lt;br&gt;&lt;b&gt;BlastP hit with cds171384_176133&lt;/b&gt;&lt;br&gt;Percentage identity: 48&lt;br&gt;Percentage coverage: 102&lt;br&gt;BLAST bit score: 1248&lt;br&gt;E-value: 0.0" locus_tag="ALA09356.1" class="clusterblast-orf" id="dummy-1_h1_6_28"  />
</g>
<g id="a1_0029"  >
<polygon points="533,85 538,80 598,80 598,90 538,90 533,85 " style="fill:#1556d8; stroke-width:1; stroke:black; " description="&lt;b&gt;ALA09355.1&lt;/b&gt;&lt;br&gt;type I modular PKS&lt;br&gt;Location: 34541 - 25497&lt;br&gt;&lt;br&gt;&lt;b&gt;BlastP hit with cds151956_155832&lt;/b&gt;&lt;br&gt;Percentage identity: 58&lt;br&gt;Percentage coverage: 69&lt;br&gt;BLAST bit score: 938&lt;br&gt;E-value: 1.5e-272&lt;br&gt;&lt;br&gt;&lt;b&gt;BlastP hit with cds171384_176133&lt;/b&gt;&lt;br&gt;Percentage identity: 52&lt;br&gt;Percentage coverage: 96&lt;br&gt;BLAST bit score: 1354&lt;br&gt;E-value: 0.0" locus_tag="ALA09355.1" class="clusterblast-orf" id="dummy-1_h1_6_29"  />
</g>
<g id="a1_0030"  >
<polygon points="600,85 605,80 638,80 638,90 605,90 600,85 " style="fill:#1556d8; stroke-width:1; stroke:black; " description="&lt;b&gt;ALA09354.1&lt;/b&gt;&lt;br&gt;type I modular PKS&lt;br&gt;Location: 25313 - 20001&lt;br&gt;&lt;br&gt;&lt;b&gt;BlastP hit with cds151956_155832&lt;/b&gt;&lt;br&gt;Percentage identity: 56&lt;br&gt;Percentage coverage: 72&lt;br&gt;BLAST bit score: 883&lt;br&gt;E-value: 3.4e-256&lt;br&gt;&lt;br&gt;&lt;b&gt;BlastP hit with cds171384_176133&lt;/b&gt;&lt;br&gt;Percentage identity: 55&lt;br&gt;Percentage coverage: 60&lt;br&gt;BLAST bit score: 939&lt;br&gt;E-value: 6.4e-273&lt;br&gt;&lt;br&gt;&lt;b&gt;BlastP hit with cds176132_181562&lt;/b&gt;&lt;br&gt;Percentage identity: 54&lt;br&gt;Percentage coverage: 94&lt;br&gt;BLAST bit score: 1568&lt;br&gt;E-value: 0.0&lt;br&gt;&lt;br&gt;&lt;b&gt;BlastP hit with cds185197_195727&lt;/b&gt;&lt;br&gt;Percentage identity: 54&lt;br&gt;Percentage coverage: 46&lt;br&gt;BLAST bit score: 1474&lt;br&gt;E-value: 0.0&lt;br&gt;&lt;br&gt;&lt;b&gt;BlastP hit with cds195852_206688&lt;/b&gt;&lt;br&gt;Percentage identity: 54&lt;br&gt;Percentage coverage: 46&lt;br&gt;BLAST bit score: 1513&lt;br&gt;E-value: 0.0" locus_tag="ALA09354.1" class="clusterblast-orf" id="dummy-1_h1_6_30"  />
</g>
<g id="a1_0031"  >
<polygon points="640,85 645,80 650,80 650,90 645,90 640,85 " style="fill:white; stroke-width:1; stroke:black; " description="&lt;b&gt;ALA09353.1&lt;/b&gt;&lt;br&gt;hypothetical protein&lt;br&gt;Location: 19654 - 18407" locus_tag="ALA09353.1" class="clusterblast-orf" id="dummy-1_h1_6_31"  />
</g>
<g id="a1_0032"  >
<polygon points="652,85 653,80 653,90 652,85 " style="fill:white; stroke-width:1; stroke:black; " description="&lt;b&gt;ALA09352.1&lt;/b&gt;&lt;br&gt;hypothetical protein&lt;br&gt;Location: 18082 - 17864" locus_tag="ALA09352.1" class="clusterblast-orf" id="dummy-1_h1_6_32"  />
</g>
<g id="a1_0033"  >
<polygon points="654,85 659,80 662,80 662,90 659,90 654,85 " style="fill:white; stroke-width:1; stroke:black; " description="&lt;b&gt;ALA09351.1&lt;/b&gt;&lt;br&gt;hypothetical protein&lt;br&gt;Location: 17787 - 16699" locus_tag="ALA09351.1" class="clusterblast-orf" id="dummy-1_h1_6_33"  />
</g>
<g id="a1_0034"  >
<polygon points="663,85 668,80 668,80 668,90 668,90 663,85 " style="fill:white; stroke-width:1; stroke:black; " description="&lt;b&gt;ALA09350.1&lt;/b&gt;&lt;br&gt;hypothetical protein&lt;br&gt;Location: 16498 - 15911" locus_tag="ALA09350.1" class="clusterblast-orf" id="dummy-1_h1_6_34"  />
</g>
<g id="a1_0035"  >
<polygon points="668,85 673,80 676,80 676,90 673,90 668,85 " style="fill:white; stroke-width:1; stroke:black; " description="&lt;b&gt;ALA09349.1&lt;/b&gt;&lt;br&gt;hypothetical protein&lt;br&gt;Location: 15792 - 14779" locus_tag="ALA09349.1" class="clusterblast-orf" id="dummy-1_h1_6_35"  />
</g>
<g id="a1_0036"  >
<polygon points="676,85 678,80 678,90 676,85 " style="fill:white; stroke-width:1; stroke:black; " description="&lt;b&gt;ALA09348.1&lt;/b&gt;&lt;br&gt;hypothetical protein&lt;br&gt;Location: 14782 - 14510" locus_tag="ALA09348.1" class="clusterblast-orf" id="dummy-1_h1_6_36"  />
</g>
<g id="a1_0037"  >
<polygon points="679,90 683,85 679,80 679,90 " style="fill:white; stroke-width:1; stroke:black; " description="&lt;b&gt;ALA09347.1&lt;/b&gt;&lt;br&gt;hypothetical protein&lt;br&gt;Location: 14393 - 13704" locus_tag="ALA09347.1" class="clusterblast-orf" id="dummy-1_h1_6_37"  />
</g>
<g id="a1_0038"  >
<polygon points="685,90 719,90 724,85 719,80 685,80 685,90 " style="fill:white; stroke-width:1; stroke:black; " description="&lt;b&gt;ALA09346.1&lt;/b&gt;&lt;br&gt;hypothetical protein&lt;br&gt;Location: 13499 - 8034" locus_tag="ALA09346.1" class="clusterblast-orf" id="dummy-1_h1_6_38"  />
</g>
<g id="a1_0039"  >
<polygon points="728,85 733,80 740,80 740,90 733,90 728,85 " style="fill:white; stroke-width:1; stroke:black; " description="&lt;b&gt;ALA09345.1&lt;/b&gt;&lt;br&gt;hypothetical protein&lt;br&gt;Location: 7495 - 5843" locus_tag="ALA09345.1" class="clusterblast-orf" id="dummy-1_h1_6_39"  />
</g>
<g id="a1_0040"  >
<polygon points="742,85 747,80 747,80 747,90 747,90 742,85 " style="fill:white; stroke-width:1; stroke:black; " description="&lt;b&gt;ALA09344.1&lt;/b&gt;&lt;br&gt;hypothetical protein&lt;br&gt;Location: 5670 - 4906" locus_tag="ALA09344.1" class="clusterblast-orf" id="dummy-1_h1_6_40"  />
</g>
<g id="a1_0041"  >
<polygon points="747,85 752,80 755,80 755,90 752,90 747,85 " style="fill:white; stroke-width:1; stroke:black; " description="&lt;b&gt;ALA09343.1&lt;/b&gt;&lt;br&gt;hypothetical protein&lt;br&gt;Location: 4882 - 3854" locus_tag="ALA09343.1" class="clusterblast-orf" id="dummy-1_h1_6_41"  />
</g>
<g id="a1_0042"  >
<polygon points="755,85 758,80 758,90 755,85 " style="fill:white; stroke-width:1; stroke:black; " description="&lt;b&gt;ALA09342.1&lt;/b&gt;&lt;br&gt;hypothetical protein&lt;br&gt;Location: 3823 - 3452" locus_tag="ALA09342.1" class="clusterblast-orf" id="dummy-1_h1_6_42"  />
</g>
<g id="a1_0043"  >
<polygon points="757,85 762,80 763,80 763,90 762,90 757,85 " style="fill:white; stroke-width:1; stroke:black; " description="&lt;b&gt;ALA09341.1&lt;/b&gt;&lt;br&gt;hypothetical protein&lt;br&gt;Location: 3470 - 2643" locus_tag="ALA09341.1" class="clusterblast-orf" id="dummy-1_h1_6_43"  />
</g>
<g id="a1_0044"  >
<polygon points="765,90 767,90 772,85 767,80 765,80 765,90 " style="fill:white; stroke-width:1; stroke:black; " description="&lt;b&gt;ALA09340.1&lt;/b&gt;&lt;br&gt;hypothetical protein&lt;br&gt;Location: 2462 - 1515" locus_tag="ALA09340.1" class="clusterblast-orf" id="dummy-1_h1_6_44"  />
</g>
<g id="a1_0045"  >
<polygon points="772,90 775,90 780,85 775,80 772,80 772,90 " style="fill:white; stroke-width:1; stroke:black; " description="&lt;b&gt;ALA09339.1&lt;/b&gt;&lt;br&gt;hypothetical protein&lt;br&gt;Location: 1432 - 419" locus_tag="ALA09339.1" class="clusterblast-orf" id="dummy-1_h1_6_45"  />
</g>
</svg>
