<svg xmlns="http://www.w3.org/2000/svg" xmlns:xlink="http://www.w3.org/1999/xlink" version="1.1" x="0" y="0" height="230" width="800" viewBox="0 0 800 230" preserveAspectRatio="none"  >
<g label="Query sequence" class="clusterblast-cluster"  >
<text x="5" y="20" class="clusterblast-acc"  >
Query sequence</text>
<line x1="10" y1="35" x2="778.0" y2="35" style="stroke-width:1; stroke:grey; "  />
<polygon points="0,35 5,30 13,30 13,40 5,40 0,35 " style="fill:white; stroke-width:1; stroke:black; " description="&lt;b&gt;cds346447_347179&lt;/b&gt;&lt;br&gt;hypothetical protein&lt;br&gt;Location: 346447 - 347179" locus_tag="cds346447_347179" class="clusterblast-orf" id="dummy-4_q0_0_all"  />
<polygon points="15,35 20,30 33,30 33,40 20,40 15,35 " style="fill:white; stroke-width:1; stroke:black; " description="&lt;b&gt;cds347251_348247&lt;/b&gt;&lt;br&gt;hypothetical protein&lt;br&gt;Location: 347251 - 348247" locus_tag="cds347251_348247" class="clusterblast-orf" id="dummy-4_q1_0_all"  />
<polygon points="33,35 38,30 48,30 48,40 38,40 33,35 " style="fill:white; stroke-width:1; stroke:black; " description="&lt;b&gt;cds348243_349056&lt;/b&gt;&lt;br&gt;hypothetical protein&lt;br&gt;Location: 348243 - 349056" locus_tag="cds348243_349056" class="clusterblast-orf" id="dummy-4_q2_0_all"  />
<polygon points="51,40 58,40 63,35 58,30 51,30 51,40 " style="fill:white; stroke-width:1; stroke:black; " description="&lt;b&gt;cds349222_349870&lt;/b&gt;&lt;br&gt;putative HTH-type transcriptional regulator&lt;br&gt;Location: 349222 - 349870" locus_tag="cds349222_349870" class="clusterblast-orf" id="dummy-4_q3_0_all"  />
<polygon points="67,40 81,40 86,35 81,30 67,30 67,40 " style="fill:white; stroke-width:1; stroke:black; " description="&lt;b&gt;cds350077_351085&lt;/b&gt;&lt;br&gt;hypothetical protein&lt;br&gt;Location: 350077 - 351085" locus_tag="cds350077_351085" class="clusterblast-orf" id="dummy-4_q4_0_all"  />
<polygon points="86,40 97,40 102,35 97,30 86,30 86,40 " style="fill:white; stroke-width:1; stroke:black; " description="&lt;b&gt;cds351081_351981&lt;/b&gt;&lt;br&gt;NAD kinase&lt;br&gt;Location: 351081 - 351981" locus_tag="cds351081_351981" class="clusterblast-orf" id="dummy-4_q5_0_all"  />
<polygon points="103,40 108,40 113,35 108,30 103,30 103,40 " style="fill:white; stroke-width:1; stroke:black; " description="&lt;b&gt;cds352015_352546&lt;/b&gt;&lt;br&gt;hypothetical protein&lt;br&gt;Location: 352015 - 352546" locus_tag="cds352015_352546" class="clusterblast-orf" id="dummy-4_q6_0_all"  />
<polygon points="114,40 118,40 123,35 118,30 114,30 114,40 " style="fill:white; stroke-width:1; stroke:black; " description="&lt;b&gt;cds352596_353091&lt;/b&gt;&lt;br&gt;hypothetical protein&lt;br&gt;Location: 352596 - 353091" locus_tag="cds352596_353091" class="clusterblast-orf" id="dummy-4_q7_0_all"  />
<polygon points="123,35 128,30 136,30 136,40 128,40 123,35 " style="fill:white; stroke-width:1; stroke:black; " description="&lt;b&gt;cds353126_353795&lt;/b&gt;&lt;br&gt;HTH-type transcriptional repressor RspR&lt;br&gt;Location: 353126 - 353795" locus_tag="cds353126_353795" class="clusterblast-orf" id="dummy-4_q8_0_all"  />
<polygon points="140,40 154,40 159,35 154,30 140,30 140,40 " style="fill:white; stroke-width:1; stroke:black; " description="&lt;b&gt;cds354014_355040&lt;/b&gt;&lt;br&gt;2-keto-4-carboxy-3-hexenedioate hydratase&lt;br&gt;Location: 354014 - 355040" locus_tag="cds354014_355040" class="clusterblast-orf" id="dummy-4_q9_0_all"  />
<polygon points="160,40 172,40 177,35 172,30 160,30 160,40 " style="fill:white; stroke-width:1; stroke:black; " description="&lt;b&gt;cds355098_356019&lt;/b&gt;&lt;br&gt;2-pyrone-4,6-dicarbaxylate hydrolase&lt;br&gt;Location: 355098 - 356019" locus_tag="cds355098_356019" class="clusterblast-orf" id="dummy-4_q10_0_all"  />
<polygon points="178,40 198,40 203,35 198,30 178,30 178,40 " style="fill:white; stroke-width:1; stroke:black; " description="&lt;b&gt;cds356063_357422&lt;/b&gt;&lt;br&gt;Inner membrane metabolite transport protein YdjE&lt;br&gt;Location: 356063 - 357422" locus_tag="cds356063_357422" class="clusterblast-orf" id="dummy-4_q11_0_all"  />
<polygon points="203,35 208,30 218,30 218,40 208,40 203,35 " style="fill:#d81515; stroke-width:1; stroke:black; " description="&lt;b&gt;cds357434_358250&lt;/b&gt;&lt;br&gt;Petrobactin import ATP-binding protein FpuD&lt;br&gt;Location: 357434 - 358250" locus_tag="cds357434_358250" class="clusterblast-orf" id="dummy-4_q12_0_all"  />
<polygon points="219,35 224,30 239,30 239,40 224,40 219,35 " style="fill:#77d815; stroke-width:1; stroke:black; " description="&lt;b&gt;cds358258_359341&lt;/b&gt;&lt;br&gt;Ferric enterobactin transport system permease protein FepG&lt;br&gt;Location: 358258 - 359341" locus_tag="cds358258_359341" class="clusterblast-orf" id="dummy-4_q13_0_all"  />
<polygon points="239,35 244,30 257,30 257,40 244,40 239,35 " style="fill:#77d815; stroke-width:1; stroke:black; " description="&lt;b&gt;cds359337_360309&lt;/b&gt;&lt;br&gt;putative siderophore transport system permease protein YfiZ&lt;br&gt;Location: 359337 - 360309" locus_tag="cds359337_360309" class="clusterblast-orf" id="dummy-4_q14_0_all"  />
<polygon points="262,40 275,40 280,35 275,30 262,30 262,40 " style="fill:white; stroke-width:1; stroke:black; " description="&lt;b&gt;cds360583_361567&lt;/b&gt;&lt;br&gt;putative siderophore-binding lipoprotein YfiY&lt;br&gt;Location: 360583 - 361567" locus_tag="cds360583_361567" class="clusterblast-orf" id="dummy-4_q15_0_all"  />
<polygon points="280,40 289,40 294,35 289,30 280,30 280,40 " style="fill:#15d8d8; stroke-width:1; stroke:black; " description="&lt;b&gt;cds361563_362352&lt;/b&gt;&lt;br&gt;2,3-dihydro-2,3-dihydroxybenzoate dehydrogenase&lt;br&gt;Location: 361563 - 362352" locus_tag="cds361563_362352" class="clusterblast-orf" id="dummy-4_q16_0_all"  />
<polygon points="296,40 313,40 318,35 313,30 296,30 296,40 " style="fill:#7715d8; stroke-width:1; stroke:black; " description="&lt;b&gt;cds362415_363615&lt;/b&gt;&lt;br&gt;Isochorismate synthase DhbC&lt;br&gt;Location: 362415 - 363615" locus_tag="cds362415_363615" class="clusterblast-orf" id="dummy-4_q17_0_all"  />
<polygon points="318,40 343,40 348,35 343,30 318,30 318,40 " style="fill:#d8a715; stroke-width:1; stroke:black; " description="&lt;b&gt;cds363611_365261&lt;/b&gt;&lt;br&gt;2,3-dihydroxybenzoate-AMP ligase&lt;br&gt;Location: 363611 - 365261" locus_tag="cds363611_365261" class="clusterblast-orf" id="dummy-4_q18_0_all"  />
<polygon points="349,40 356,40 361,35 356,30 349,30 349,40 " style="fill:#15d846; stroke-width:1; stroke:black; " description="&lt;b&gt;cds365308_365941&lt;/b&gt;&lt;br&gt;Isochorismatase&lt;br&gt;Location: 365308 - 365941" locus_tag="cds365308_365941" class="clusterblast-orf" id="dummy-4_q19_0_all"  />
<polygon points="361,40 365,35 361,30 361,40 " style="fill:#15d846; stroke-width:1; stroke:black; " description="&lt;b&gt;cds365946_366174&lt;/b&gt;&lt;br&gt;Isochorismatase&lt;br&gt;Location: 365946 - 366174" locus_tag="cds365946_366174" class="clusterblast-orf" id="dummy-4_q20_0_all"  />
<polygon points="365,40 433,40 438,35 433,30 365,30 365,40 " style="fill:#1546d8; stroke-width:1; stroke:black; " description="&lt;b&gt;cds366170_370109&lt;/b&gt;&lt;br&gt;Dimodular nonribosomal peptide synthase&lt;br&gt;Location: 366170 - 370109" locus_tag="cds366170_370109" class="clusterblast-orf" id="dummy-4_q21_0_all"  />
<polygon points="438,40 442,35 438,30 438,40 " style="fill:white; stroke-width:1; stroke:black; " description="&lt;b&gt;cds370105_370294&lt;/b&gt;&lt;br&gt;hypothetical protein&lt;br&gt;Location: 370105 - 370294" locus_tag="cds370105_370294" class="clusterblast-orf" id="dummy-4_q22_0_all"  />
<polygon points="442,35 447,30 449,30 449,40 447,40 442,35 " style="fill:white; stroke-width:1; stroke:black; " description="&lt;b&gt;cds370318_370690&lt;/b&gt;&lt;br&gt;hypothetical protein&lt;br&gt;Location: 370318 - 370690" locus_tag="cds370318_370690" class="clusterblast-orf" id="dummy-4_q23_0_all"  />
<polygon points="451,40 454,40 459,35 454,30 451,30 451,40 " style="fill:white; stroke-width:1; stroke:black; " description="&lt;b&gt;cds370780_371242&lt;/b&gt;&lt;br&gt;putative HTH-type transcriptional regulator&lt;br&gt;Location: 370780 - 371242" locus_tag="cds370780_371242" class="clusterblast-orf" id="dummy-4_q24_0_all"  />
<polygon points="462,40 471,40 476,35 471,30 462,30 462,40 " style="fill:white; stroke-width:1; stroke:black; " description="&lt;b&gt;cds371379_372159&lt;/b&gt;&lt;br&gt;hypothetical protein&lt;br&gt;Location: 371379 - 372159" locus_tag="cds371379_372159" class="clusterblast-orf" id="dummy-4_q25_0_all"  />
<polygon points="476,35 481,30 488,30 488,40 481,40 476,35 " style="fill:white; stroke-width:1; stroke:black; " description="&lt;b&gt;cds372169_372826&lt;/b&gt;&lt;br&gt;hypothetical protein&lt;br&gt;Location: 372169 - 372826" locus_tag="cds372169_372826" class="clusterblast-orf" id="dummy-4_q26_0_all"  />
<polygon points="490,35 495,30 514,30 514,40 495,40 490,35 " style="fill:#d815a7; stroke-width:1; stroke:black; " description="&lt;b&gt;cds372901_374212&lt;/b&gt;&lt;br&gt;Enterochelin esterase&lt;br&gt;Location: 372901 - 374212" locus_tag="cds372901_374212" class="clusterblast-orf" id="dummy-4_q27_0_all"  />
<polygon points="516,35 521,30 557,30 557,40 521,40 516,35 " style="fill:white; stroke-width:1; stroke:black; " description="&lt;b&gt;cds374301_376515&lt;/b&gt;&lt;br&gt;Catalase HPII&lt;br&gt;Location: 374301 - 376515" locus_tag="cds374301_376515" class="clusterblast-orf" id="dummy-4_q28_0_all"  />
<polygon points="560,35 565,30 598,30 598,40 565,40 560,35 " style="fill:white; stroke-width:1; stroke:black; " description="&lt;b&gt;cds376694_378725&lt;/b&gt;&lt;br&gt;hypothetical protein&lt;br&gt;Location: 376694 - 378725" locus_tag="cds376694_378725" class="clusterblast-orf" id="dummy-4_q29_0_all"  />
<polygon points="599,35 604,30 623,30 623,40 604,40 599,35 " style="fill:white; stroke-width:1; stroke:black; " description="&lt;b&gt;cds378764_380081&lt;/b&gt;&lt;br&gt;hypothetical protein&lt;br&gt;Location: 378764 - 380081" locus_tag="cds378764_380081" class="clusterblast-orf" id="dummy-4_q30_0_all"  />
<polygon points="625,35 630,30 637,30 637,40 630,40 625,35 " style="fill:white; stroke-width:1; stroke:black; " description="&lt;b&gt;cds380194_380821&lt;/b&gt;&lt;br&gt;hypothetical protein&lt;br&gt;Location: 380194 - 380821" locus_tag="cds380194_380821" class="clusterblast-orf" id="dummy-4_q31_0_all"  />
<polygon points="643,40 646,40 651,35 646,30 643,30 643,40 " style="fill:white; stroke-width:1; stroke:black; " description="&lt;b&gt;cds381158_381620&lt;/b&gt;&lt;br&gt;hypothetical protein&lt;br&gt;Location: 381158 - 381620" locus_tag="cds381158_381620" class="clusterblast-orf" id="dummy-4_q32_0_all"  />
<polygon points="654,40 659,40 664,35 659,30 654,30 654,40 " style="fill:white; stroke-width:1; stroke:black; " description="&lt;b&gt;cds381733_382300&lt;/b&gt;&lt;br&gt;Protein/nucleic acid deglycase 2&lt;br&gt;Location: 381733 - 382300" locus_tag="cds381733_382300" class="clusterblast-orf" id="dummy-4_q33_0_all"  />
<polygon points="667,35 672,30 676,30 676,40 672,40 667,35 " style="fill:white; stroke-width:1; stroke:black; " description="&lt;b&gt;cds382439_382973&lt;/b&gt;&lt;br&gt;hypothetical protein&lt;br&gt;Location: 382439 - 382973" locus_tag="cds382439_382973" class="clusterblast-orf" id="dummy-4_q34_0_all"  />
<polygon points="679,35 684,30 703,30 703,40 684,40 679,35 " style="fill:white; stroke-width:1; stroke:black; " description="&lt;b&gt;cds383130_384411&lt;/b&gt;&lt;br&gt;Carboxypeptidase&lt;br&gt;Location: 383130 - 384411" locus_tag="cds383130_384411" class="clusterblast-orf" id="dummy-4_q35_0_all"  />
<polygon points="713,40 731,40 736,35 731,30 713,30 713,40 " style="fill:white; stroke-width:1; stroke:black; " description="&lt;b&gt;cds384917_386159&lt;/b&gt;&lt;br&gt;Enterobactin exporter EntS&lt;br&gt;Location: 384917 - 386159" locus_tag="cds384917_386159" class="clusterblast-orf" id="dummy-4_q36_0_all"  />
<polygon points="744,40 748,35 744,30 744,40 " style="fill:white; stroke-width:1; stroke:black; " description="&lt;b&gt;cds386631_386829&lt;/b&gt;&lt;br&gt;hypothetical protein&lt;br&gt;Location: 386631 - 386829" locus_tag="cds386631_386829" class="clusterblast-orf" id="dummy-4_q37_0_all"  />
<polygon points="749,35 754,30 761,30 761,40 754,40 749,35 " style="fill:white; stroke-width:1; stroke:black; " description="&lt;b&gt;cds386885_387560&lt;/b&gt;&lt;br&gt;hypothetical protein&lt;br&gt;Location: 386885 - 387560" locus_tag="cds386885_387560" class="clusterblast-orf" id="dummy-4_q38_0_all"  />
<polygon points="763,35 768,30 780,30 780,40 768,40 763,35 " style="fill:white; stroke-width:1; stroke:black; " description="&lt;b&gt;cds387621_388542&lt;/b&gt;&lt;br&gt;5'-methylthioadenosine/S-adenosylhomocysteine nucleosidase&lt;br&gt;Location: 387621 - 388542" locus_tag="cds387621_388542" class="clusterblast-orf" id="dummy-4_q39_0_all"  />
</g>
<g label="BGC0000309" description="BGC0000309_c1: bacillibactin (38% of genes show similarity), NRP" class="clusterblast-cluster"  >
<text x="5" y="70" class="clusterblast-acc"  >
<a xlink:href="https://mibig.secondarymetabolites.org/go/BGC0000309/1" target="_blank">BGC0000309</a>:                                                                    bacillibactin (38% of genes show similarity), NRP</text>
<line x1="10" y1="85" x2="778.0" y2="85" style="stroke-width:1; stroke:grey; "  />
</g>
<g id="a4_000"  >
<polygon points="208,90 231,90 236,85 231,80 208,80 208,90 " style="fill:white; stroke-width:1; stroke:black; " description="&lt;b&gt;BSU_32050&lt;/b&gt;&lt;br&gt;cytosol aminopeptidase&lt;br&gt;Location: 19595 - 18093" locus_tag="BSU_32050" class="clusterblast-orf" id="dummy-4_h4_2_0"  />
</g>
<g id="a4_001"  >
<polygon points="239,90 258,90 263,85 258,80 239,80 239,90 " style="fill:white; stroke-width:1; stroke:black; " description="&lt;b&gt;BSU_32040&lt;/b&gt;&lt;br&gt;histidine / basic amino acid transporter&lt;br&gt;Location: 17946 - 16618" locus_tag="BSU_32040" class="clusterblast-orf" id="dummy-4_h4_2_1"  />
</g>
<g id="a4_002"  >
<polygon points="264,85 269,80 276,80 276,90 269,90 264,85 " style="fill:white; stroke-width:1; stroke:black; " description="&lt;b&gt;BSU_32030&lt;/b&gt;&lt;br&gt;putative biotin transporter&lt;br&gt;Location: 16548 - 15946" locus_tag="BSU_32030" class="clusterblast-orf" id="dummy-4_h4_2_2"  />
</g>
<g id="a4_003"  >
<polygon points="277,90 283,90 288,85 283,80 277,80 277,90 " style="fill:white; stroke-width:1; stroke:black; " description="&lt;b&gt;BSU_32020&lt;/b&gt;&lt;br&gt;putative molybdopterin containing enzyme subunit&lt;br&gt;Location: 15845 - 15249" locus_tag="BSU_32020" class="clusterblast-orf" id="dummy-4_h4_2_3"  />
</g>
<g id="a4_004"  >
<polygon points="292,90 304,90 309,85 304,80 292,80 292,90 " style="fill:white; stroke-width:1; stroke:black; " description="&lt;b&gt;BSU_32010&lt;/b&gt;&lt;br&gt;bacillibactin trilactone hydrolase&lt;br&gt;Location: 15035 - 14166" locus_tag="BSU_32010" class="clusterblast-orf" id="dummy-4_h4_2_4"  />
</g>
<g id="a4_005"  >
<polygon points="312,90 322,90 327,85 322,80 312,80 312,90 " style="fill:#15d8d8; stroke-width:1; stroke:black; " description="&lt;b&gt;BSU_32000&lt;/b&gt;&lt;br&gt;2,3-dihydro-2,3-dihydroxybenzoate dehydrogenase&lt;br&gt;Location: 13972 - 13187&lt;br&gt;&lt;br&gt;&lt;b&gt;BlastP hit with cds361563_362352&lt;/b&gt;&lt;br&gt;Percentage identity: 57&lt;br&gt;Percentage coverage: 98&lt;br&gt;BLAST bit score: 273&lt;br&gt;E-value: 4.2e-73" locus_tag="BSU_32000" class="clusterblast-orf" id="dummy-4_h4_2_5"  />
</g>
<g id="a4_006"  >
<polygon points="327,90 344,90 349,85 344,80 327,80 327,90 " style="fill:#7715d8; stroke-width:1; stroke:black; " description="&lt;b&gt;BSU_31990&lt;/b&gt;&lt;br&gt;isochorismate synthase (siderophore-specific)&lt;br&gt;Location: 13161 - 11965&lt;br&gt;&lt;br&gt;&lt;b&gt;BlastP hit with cds362415_363615&lt;/b&gt;&lt;br&gt;Percentage identity: 52&lt;br&gt;Percentage coverage: 97&lt;br&gt;BLAST bit score: 357&lt;br&gt;E-value: 3.4e-98" locus_tag="BSU_31990" class="clusterblast-orf" id="dummy-4_h4_2_6"  />
</g>
<g id="a4_007"  >
<polygon points="350,90 375,90 380,85 375,80 350,80 350,90 " style="fill:#d8a715; stroke-width:1; stroke:black; " description="&lt;b&gt;BSU_31980&lt;/b&gt;&lt;br&gt;2,3-dihydroxybenzoate-AMP ligase&lt;br&gt;Location: 11936 - 10317&lt;br&gt;&lt;br&gt;&lt;b&gt;BlastP hit with cds363611_365261&lt;/b&gt;&lt;br&gt;Percentage identity: 61&lt;br&gt;Percentage coverage: 96&lt;br&gt;BLAST bit score: 644&lt;br&gt;E-value: 1.1e-184" locus_tag="BSU_31980" class="clusterblast-orf" id="dummy-4_h4_2_7"  />
</g>
<g id="a4_008"  >
<polygon points="380,90 393,90 398,85 393,80 380,80 380,90 " style="fill:#15d846; stroke-width:1; stroke:black; " description="&lt;b&gt;BSU_31970&lt;/b&gt;&lt;br&gt;isochorismatase (siderophore specific)&lt;br&gt;Location: 10289 - 9351&lt;br&gt;&lt;br&gt;&lt;b&gt;BlastP hit with cds365308_365941&lt;/b&gt;&lt;br&gt;Percentage identity: 54&lt;br&gt;Percentage coverage: 99&lt;br&gt;BLAST bit score: 236&lt;br&gt;E-value: 3.5e-62&lt;br&gt;&lt;br&gt;&lt;b&gt;BlastP hit with cds365946_366174&lt;/b&gt;&lt;br&gt;Percentage identity: 52&lt;br&gt;Percentage coverage: 92&lt;br&gt;BLAST bit score: 69&lt;br&gt;E-value: 2e-12" locus_tag="BSU_31970" class="clusterblast-orf" id="dummy-4_h4_2_8"  />
</g>
<g id="a4_009"  >
<polygon points="398,90 525,90 530,85 525,80 398,80 398,90 " style="fill:#1546d8; stroke-width:1; stroke:black; " description="&lt;b&gt;BSU_31960&lt;/b&gt;&lt;br&gt;siderophore 2,3-dihydroxybenzoate-glycine-threonine trimeric ester bacillibactin synthetase&lt;br&gt;Location: 9331 - 2195&lt;br&gt;&lt;br&gt;&lt;b&gt;BlastP hit with cds366170_370109&lt;/b&gt;&lt;br&gt;Percentage identity: 46&lt;br&gt;Percentage coverage: 79&lt;br&gt;BLAST bit score: 911&lt;br&gt;E-value: 1.2e-264" locus_tag="BSU_31960" class="clusterblast-orf" id="dummy-4_h4_2_9"  />
</g>
<g id="a4_0010"  >
<polygon points="531,90 535,85 531,80 531,90 " style="fill:white; stroke-width:1; stroke:black; " description="&lt;b&gt;BSU_31959&lt;/b&gt;&lt;br&gt;stimulator of DhbF tyrosine adenylation activity&lt;br&gt;Location: 2179 - 1970" locus_tag="BSU_31959" class="clusterblast-orf" id="dummy-4_h4_2_10"  />
</g>
<g id="a4_0011"  >
<polygon points="535,85 540,80 548,80 548,90 540,90 535,85 " style="fill:white; stroke-width:1; stroke:black; " description="&lt;b&gt;BSU_31945&lt;/b&gt;&lt;br&gt;conserved protein of unknown function&lt;br&gt;Location: 1926 - 1249" locus_tag="BSU_31945" class="clusterblast-orf" id="dummy-4_h4_2_11"  />
</g>
<g id="a4_0012"  >
<polygon points="550,85 555,80 571,80 571,90 555,90 550,85 " style="fill:white; stroke-width:1; stroke:black; " description="&lt;b&gt;BSU_31930&lt;/b&gt;&lt;br&gt;L-alanine dehydrogenase (NAD-dependent)&lt;br&gt;Location: 1137 - 1" locus_tag="BSU_31930" class="clusterblast-orf" id="dummy-4_h4_2_12"  />
</g>
</svg>
