<svg xmlns="http://www.w3.org/2000/svg" xmlns:xlink="http://www.w3.org/1999/xlink" version="1.1" x="0" y="0" height="230" width="800" viewBox="0 0 800 230" preserveAspectRatio="none"  >
<g label="Query sequence" class="clusterblast-cluster"  >
<text x="5" y="20" class="clusterblast-acc"  >
Query sequence</text>
<line x1="10" y1="35" x2="778.0" y2="35" style="stroke-width:1; stroke:grey; "  />
<polygon points="0,40 5,40 10,35 5,30 0,30 0,40 " style="fill:#d81515; stroke-width:1; stroke:black; " description="&lt;b&gt;cds18113_18665&lt;/b&gt;&lt;br&gt;hypothetical protein&lt;br&gt;Location: 18113 - 18665" locus_tag="cds18113_18665" class="clusterblast-orf" id="dummy-1_q0_0_all"  />
<polygon points="11,40 23,40 28,35 23,30 11,30 11,40 " style="fill:#5cd815; stroke-width:1; stroke:black; " description="&lt;b&gt;cds18714_19635&lt;/b&gt;&lt;br&gt;hypothetical protein&lt;br&gt;Location: 18714 - 19635" locus_tag="cds18714_19635" class="clusterblast-orf" id="dummy-1_q1_0_all"  />
<polygon points="29,35 34,30 56,30 56,40 34,40 29,35 " style="fill:white; stroke-width:1; stroke:black; " description="&lt;b&gt;cds19700_21182&lt;/b&gt;&lt;br&gt;Spore coat protein A&lt;br&gt;Location: 19700 - 21182" locus_tag="cds19700_21182" class="clusterblast-orf" id="dummy-1_q2_0_all"  />
<polygon points="60,40 71,40 76,35 71,30 60,30 60,40 " style="fill:white; stroke-width:1; stroke:black; " description="&lt;b&gt;cds21412_22282&lt;/b&gt;&lt;br&gt;27-O-demethylrifamycin SV methyltransferase&lt;br&gt;Location: 21412 - 22282" locus_tag="cds21412_22282" class="clusterblast-orf" id="dummy-1_q3_0_all"  />
<polygon points="78,40 94,40 99,35 94,30 78,30 78,40 " style="fill:white; stroke-width:1; stroke:black; " description="&lt;b&gt;cds22348_23494&lt;/b&gt;&lt;br&gt;hypothetical protein&lt;br&gt;Location: 22348 - 23494" locus_tag="cds22348_23494" class="clusterblast-orf" id="dummy-1_q4_0_all"  />
<polygon points="100,35 105,30 126,30 126,40 105,40 100,35 " style="fill:white; stroke-width:1; stroke:black; " description="&lt;b&gt;cds23567_24962&lt;/b&gt;&lt;br&gt;Mitomycin radical oxidase&lt;br&gt;Location: 23567 - 24962" locus_tag="cds23567_24962" class="clusterblast-orf" id="dummy-1_q5_0_all"  />
<polygon points="126,35 131,30 155,30 155,40 131,40 126,35 " style="fill:#15a3d8; stroke-width:1; stroke:black; " description="&lt;b&gt;cds24958_26524&lt;/b&gt;&lt;br&gt;2-methoxy-6-polyprenyl-1,4-benzoquinol methylase, mitochondrial&lt;br&gt;Location: 24958 - 26524" locus_tag="cds24958_26524" class="clusterblast-orf" id="dummy-1_q6_0_all"  />
<polygon points="159,35 164,30 165,30 165,40 164,40 159,35 " style="fill:white; stroke-width:1; stroke:black; " description="&lt;b&gt;cds26746_27082&lt;/b&gt;&lt;br&gt;hypothetical protein&lt;br&gt;Location: 26746 - 27082" locus_tag="cds26746_27082" class="clusterblast-orf" id="dummy-1_q7_0_all"  />
<polygon points="166,35 171,30 209,30 209,40 171,40 166,35 " style="fill:white; stroke-width:1; stroke:black; " description="&lt;b&gt;cds27150_29475&lt;/b&gt;&lt;br&gt;Periplasmic nitrate reductase&lt;br&gt;Location: 27150 - 29475" locus_tag="cds27150_29475" class="clusterblast-orf" id="dummy-1_q8_0_all"  />
<polygon points="211,40 221,40 226,35 221,30 211,30 211,40 " style="fill:white; stroke-width:1; stroke:black; " description="&lt;b&gt;cds29596_30424&lt;/b&gt;&lt;br&gt;Levodione reductase&lt;br&gt;Location: 29596 - 30424" locus_tag="cds29596_30424" class="clusterblast-orf" id="dummy-1_q9_0_all"  />
<polygon points="227,40 239,40 244,35 239,30 227,30 227,40 " style="fill:white; stroke-width:1; stroke:black; " description="&lt;b&gt;cds30472_31354&lt;/b&gt;&lt;br&gt;F420-dependent glucose-6-phosphate dehydrogenase&lt;br&gt;Location: 30472 - 31354" locus_tag="cds30472_31354" class="clusterblast-orf" id="dummy-1_q10_0_all"  />
<polygon points="247,35 252,30 275,30 275,40 252,40 247,35 " style="fill:#9115d8; stroke-width:1; stroke:black; " description="&lt;b&gt;cds31534_33049&lt;/b&gt;&lt;br&gt;Aclacinomycin-N/aclacinomycin-A oxidase&lt;br&gt;Location: 31534 - 33049" locus_tag="cds31534_33049" class="clusterblast-orf" id="dummy-1_q11_0_all"  />
<polygon points="278,35 283,30 304,30 304,40 283,40 278,35 " style="fill:#d84a15; stroke-width:1; stroke:black; " description="&lt;b&gt;cds33232_34657&lt;/b&gt;&lt;br&gt;sn-glycerol-3-phosphate-binding periplasmic protein UgpB&lt;br&gt;Location: 33232 - 34657" locus_tag="cds33232_34657" class="clusterblast-orf" id="dummy-1_q12_0_all"  />
<polygon points="309,40 327,40 332,35 327,30 309,30 309,40 " style="fill:#27d815; stroke-width:1; stroke:black; " description="&lt;b&gt;cds34927_36169&lt;/b&gt;&lt;br&gt;Flavin-dependent monooxygenase, oxygenase subunit HsaA&lt;br&gt;Location: 34927 - 36169" locus_tag="cds34927_36169" class="clusterblast-orf" id="dummy-1_q13_0_all"  />
<polygon points="334,40 356,40 361,35 356,30 334,30 334,40 " style="fill:#156ed8; stroke-width:1; stroke:black; " description="&lt;b&gt;cds36277_37717&lt;/b&gt;&lt;br&gt;hypothetical protein&lt;br&gt;Location: 36277 - 37717" locus_tag="cds36277_37717" class="clusterblast-orf" id="dummy-1_q14_0_all"  />
<polygon points="361,40 408,40 413,35 408,30 361,30 361,40 " style="fill:white; stroke-width:1; stroke:black; " description="&lt;b&gt;cds37748_40562&lt;/b&gt;&lt;br&gt;Dimodular nonribosomal peptide synthase&lt;br&gt;Location: 37748 - 40562" locus_tag="cds37748_40562" class="clusterblast-orf" id="dummy-1_q15_0_all"  />
<polygon points="414,40 439,40 444,35 439,30 414,30 414,40 " style="fill:#c715d8; stroke-width:1; stroke:black; " description="&lt;b&gt;cds40635_42261&lt;/b&gt;&lt;br&gt;MIO-dependent tyrosine 2,3-aminomutase&lt;br&gt;Location: 40635 - 42261" locus_tag="cds40635_42261" class="clusterblast-orf" id="dummy-1_q16_0_all"  />
<polygon points="446,40 466,40 471,35 466,30 446,30 446,40 " style="fill:#d88015; stroke-width:1; stroke:black; " description="&lt;b&gt;cds42368_43712&lt;/b&gt;&lt;br&gt;Linear gramicidin synthase subunit B&lt;br&gt;Location: 42368 - 43712" locus_tag="cds42368_43712" class="clusterblast-orf" id="dummy-1_q17_0_all"  />
<polygon points="472,35 477,30 501,30 501,40 477,40 472,35 " style="fill:#15d839; stroke-width:1; stroke:black; " description="&lt;b&gt;cds43769_45353&lt;/b&gt;&lt;br&gt;4-nitrophenol 2-monooxygenase, oxygenase component&lt;br&gt;Location: 43769 - 45353" locus_tag="cds43769_45353" class="clusterblast-orf" id="dummy-1_q18_0_all"  />
<polygon points="506,40 523,40 528,35 523,30 506,30 506,40 " style="fill:#1539d8; stroke-width:1; stroke:black; " description="&lt;b&gt;cds45596_46781&lt;/b&gt;&lt;br&gt;Flavin-dependent monooxygenase, oxygenase subunit HsaA&lt;br&gt;Location: 45596 - 46781" locus_tag="cds45596_46781" class="clusterblast-orf" id="dummy-1_q19_0_all"  />
<polygon points="529,40 532,40 537,35 532,30 529,30 529,40 " style="fill:#d815b5; stroke-width:1; stroke:black; " description="&lt;b&gt;cds46844_47279&lt;/b&gt;&lt;br&gt;hypothetical protein&lt;br&gt;Location: 46844 - 47279" locus_tag="cds46844_47279" class="clusterblast-orf" id="dummy-1_q20_0_all"  />
<polygon points="538,35 543,30 561,30 561,40 543,40 538,35 " style="fill:#d8b515; stroke-width:1; stroke:black; " description="&lt;b&gt;cds47364_48612&lt;/b&gt;&lt;br&gt;2-hydroxy-5-methyl-1-naphthoate 7-hydroxylase&lt;br&gt;Location: 47364 - 48612" locus_tag="cds47364_48612" class="clusterblast-orf" id="dummy-1_q21_0_all"  />
<polygon points="563,35 568,30 579,30 579,40 568,40 563,35 " style="fill:white; stroke-width:1; stroke:black; " description="&lt;b&gt;cds48705_49569&lt;/b&gt;&lt;br&gt;hypothetical protein&lt;br&gt;Location: 48705 - 49569" locus_tag="cds48705_49569" class="clusterblast-orf" id="dummy-1_q22_0_all"  />
<polygon points="580,35 585,30 585,30 585,40 585,40 580,35 " style="fill:#15d86e; stroke-width:1; stroke:black; " description="&lt;b&gt;cds49631_49904&lt;/b&gt;&lt;br&gt;hypothetical protein&lt;br&gt;Location: 49631 - 49904" locus_tag="cds49631_49904" class="clusterblast-orf" id="dummy-1_q23_0_all"  />
<polygon points="588,35 593,30 604,30 604,40 593,40 588,35 " style="fill:#2715d8; stroke-width:1; stroke:black; " description="&lt;b&gt;cds50037_50910&lt;/b&gt;&lt;br&gt;Glucose-1-phosphate thymidylyltransferase 1&lt;br&gt;Location: 50037 - 50910" locus_tag="cds50037_50910" class="clusterblast-orf" id="dummy-1_q24_0_all"  />
<polygon points="605,35 610,30 627,30 627,40 610,40 605,35 " style="fill:#d81580; stroke-width:1; stroke:black; " description="&lt;b&gt;cds50964_52185&lt;/b&gt;&lt;br&gt;hypothetical protein&lt;br&gt;Location: 50964 - 52185" locus_tag="cds50964_52185" class="clusterblast-orf" id="dummy-1_q25_0_all"  />
<polygon points="630,35 635,30 653,30 653,40 635,40 630,35 " style="fill:#c7d815; stroke-width:1; stroke:black; " description="&lt;b&gt;cds52342_53581&lt;/b&gt;&lt;br&gt;hypothetical protein&lt;br&gt;Location: 52342 - 53581" locus_tag="cds52342_53581" class="clusterblast-orf" id="dummy-1_q26_0_all"  />
<polygon points="653,35 658,30 677,30 677,40 658,40 653,35 " style="fill:#15d8a3; stroke-width:1; stroke:black; " description="&lt;b&gt;cds53600_54893&lt;/b&gt;&lt;br&gt;Aclacinomycin-T 2-deoxy-L-fucose transferase&lt;br&gt;Location: 53600 - 54893" locus_tag="cds53600_54893" class="clusterblast-orf" id="dummy-1_q27_0_all"  />
<polygon points="678,35 683,30 699,30 699,40 683,40 678,35 " style="fill:#5c15d8; stroke-width:1; stroke:black; " description="&lt;b&gt;cds54963_56073&lt;/b&gt;&lt;br&gt;dTDP-3-amino-3,4,6-trideoxy-alpha-D-glucose transaminase&lt;br&gt;Location: 54963 - 56073" locus_tag="cds54963_56073" class="clusterblast-orf" id="dummy-1_q28_0_all"  />
<polygon points="703,35 708,30 728,30 728,40 708,40 703,35 " style="fill:#d8154a; stroke-width:1; stroke:black; " description="&lt;b&gt;cds56275_57670&lt;/b&gt;&lt;br&gt;dTDP-4-dehydro-6-deoxy-alpha-D-glucopyranose 2,3-dehydratase&lt;br&gt;Location: 56275 - 57670" locus_tag="cds56275_57670" class="clusterblast-orf" id="dummy-1_q29_0_all"  />
<polygon points="734,40 748,40 753,35 748,30 734,30 734,40 " style="fill:#91d815; stroke-width:1; stroke:black; " description="&lt;b&gt;cds57984_58992&lt;/b&gt;&lt;br&gt;dTDP-glucose 4,6-dehydratase&lt;br&gt;Location: 57984 - 58992" locus_tag="cds57984_58992" class="clusterblast-orf" id="dummy-1_q30_0_all"  />
<polygon points="753,35 758,30 780,30 780,40 758,40 753,35 " style="fill:#15d8d8; stroke-width:1; stroke:black; " description="&lt;b&gt;cds59038_60466&lt;/b&gt;&lt;br&gt;UDP-N-acetyl-D-glucosamine 6-dehydrogenase&lt;br&gt;Location: 59038 - 60466" locus_tag="cds59038_60466" class="clusterblast-orf" id="dummy-1_q31_0_all"  />
</g>
<g label="BGC0000199" description="BGC0000199_c1: arimetamycin B / arimetamycin C / arimetamycin A (13% of genes show similarity), Polyketide:Type II + Saccharide:Hybrid/tailoring" class="clusterblast-cluster"  >
<text x="5" y="70" class="clusterblast-acc"  >
<a xlink:href="https://mibig.secondarymetabolites.org/go/BGC0000199/1" target="_blank">BGC0000199</a>:                                 arimetamycin B / arimetamycin C / arimetamycin A (13% of genes show similarity), Polyketide:Type II + Saccharide:Hybrid/tailoring</text>
<line x1="10" y1="85" x2="778.0" y2="85" style="stroke-width:1; stroke:grey; "  />
</g>
<g id="a1_000"  >
<polygon points="14,85 19,80 20,80 20,90 19,90 14,85 " style="fill:white; stroke-width:1; stroke:black; " description="&lt;b&gt;AHA82006.1&lt;/b&gt;&lt;br&gt;transposase&lt;br&gt;Location: 40743 - 40441" locus_tag="AHA82006.1" class="clusterblast-orf" id="dummy-1_h1_10_0"  />
</g>
<g id="a1_001"  >
<polygon points="23,90 47,90 52,85 47,80 23,80 23,90 " style="fill:#d8154a; stroke-width:1; stroke:black; " description="&lt;b&gt;AHA82005.1&lt;/b&gt;&lt;br&gt;NDP-hexose-2,3-dehydratase&lt;br&gt;Location: 40273 - 38720&lt;br&gt;&lt;br&gt;&lt;b&gt;BlastP hit with cds56275_57670&lt;/b&gt;&lt;br&gt;Percentage identity: 46&lt;br&gt;Percentage coverage: 100&lt;br&gt;BLAST bit score: 398&lt;br&gt;E-value: 2e-110" locus_tag="AHA82005.1" class="clusterblast-orf" id="dummy-1_h1_10_1"  />
</g>
<g id="a1_002"  >
<polygon points="52,90 58,90 63,85 58,80 52,80 52,90 " style="fill:white; stroke-width:1; stroke:black; " description="&lt;b&gt;AHA82004.1&lt;/b&gt;&lt;br&gt;NDP-hexose-3,5-epimerase&lt;br&gt;Location: 38723 - 38103" locus_tag="AHA82004.1" class="clusterblast-orf" id="dummy-1_h1_10_2"  />
</g>
<g id="a1_003"  >
<polygon points="63,85 68,80 76,80 76,90 68,90 63,85 " style="fill:white; stroke-width:1; stroke:black; " description="&lt;b&gt;AHA82003.1&lt;/b&gt;&lt;br&gt;NDP-hexose-N,N-dimethyltransferase&lt;br&gt;Location: 38113 - 37403" locus_tag="AHA82003.1" class="clusterblast-orf" id="dummy-1_h1_10_3"  />
</g>
<g id="a1_004"  >
<polygon points="76,85 81,80 100,80 100,90 81,90 76,85 " style="fill:white; stroke-width:1; stroke:black; " description="&lt;b&gt;AHA82002.1&lt;/b&gt;&lt;br&gt;Glycosyltransferase&lt;br&gt;Location: 37410 - 36073" locus_tag="AHA82002.1" class="clusterblast-orf" id="dummy-1_h1_10_4"  />
</g>
<g id="a1_005"  >
<polygon points="101,85 106,80 123,80 123,90 106,90 101,85 " style="fill:white; stroke-width:1; stroke:black; " description="&lt;b&gt;AHA82001.1&lt;/b&gt;&lt;br&gt;P450-oxidoreductase&lt;br&gt;Location: 36043 - 34868" locus_tag="AHA82001.1" class="clusterblast-orf" id="dummy-1_h1_10_5"  />
</g>
<g id="a1_006"  >
<polygon points="122,85 127,80 145,80 145,90 127,90 122,85 " style="fill:#d81580; stroke-width:1; stroke:black; " description="&lt;b&gt;AHA82000.1&lt;/b&gt;&lt;br&gt;NDP-hexose-C3-methyltransferase&lt;br&gt;Location: 34878 - 33652&lt;br&gt;&lt;br&gt;&lt;b&gt;BlastP hit with cds50964_52185&lt;/b&gt;&lt;br&gt;Percentage identity: 60&lt;br&gt;Percentage coverage: 99&lt;br&gt;BLAST bit score: 502&lt;br&gt;E-value: 6.7e-142" locus_tag="AHA82000.1" class="clusterblast-orf" id="dummy-1_h1_10_6"  />
</g>
<g id="a1_007"  >
<polygon points="145,85 150,80 159,80 159,90 150,90 145,85 " style="fill:white; stroke-width:1; stroke:black; " description="&lt;b&gt;AHA81999.1&lt;/b&gt;&lt;br&gt;NDP-hexose-N,N-dimethyltransferase&lt;br&gt;Location: 33655 - 32891" locus_tag="AHA81999.1" class="clusterblast-orf" id="dummy-1_h1_10_7"  />
</g>
<g id="a1_008"  >
<polygon points="159,85 164,80 181,80 181,90 164,90 159,85 " style="fill:white; stroke-width:1; stroke:black; " description="&lt;b&gt;AHA81998.1&lt;/b&gt;&lt;br&gt;NDP-hexose-4-aminotransferase&lt;br&gt;Location: 32871 - 31717" locus_tag="AHA81998.1" class="clusterblast-orf" id="dummy-1_h1_10_8"  />
</g>
<g id="a1_009"  >
<polygon points="184,90 197,90 202,85 197,80 184,80 184,90 " style="fill:white; stroke-width:1; stroke:black; " description="&lt;b&gt;AHA81997.1&lt;/b&gt;&lt;br&gt;NDP-hexose-3-ketoreductase&lt;br&gt;Location: 31518 - 30529" locus_tag="AHA81997.1" class="clusterblast-orf" id="dummy-1_h1_10_9"  />
</g>
<g id="a1_0010"  >
<polygon points="205,90 219,90 224,85 219,80 205,80 205,90 " style="fill:white; stroke-width:1; stroke:black; " description="&lt;b&gt;AHA81996.1&lt;/b&gt;&lt;br&gt;ANC transporter A TP-binding protein&lt;br&gt;Location: 30412 - 29351" locus_tag="AHA81996.1" class="clusterblast-orf" id="dummy-1_h1_10_10"  />
</g>
<g id="a1_0011"  >
<polygon points="224,90 235,90 240,85 235,80 224,80 224,90 " style="fill:white; stroke-width:1; stroke:black; " description="&lt;b&gt;AHA81995.1&lt;/b&gt;&lt;br&gt;ABC transporter&lt;br&gt;Location: 29354 - 28503" locus_tag="AHA81995.1" class="clusterblast-orf" id="dummy-1_h1_10_11"  />
</g>
<g id="a1_0012"  >
<polygon points="241,85 246,80 265,80 265,90 246,90 241,85 " style="fill:white; stroke-width:1; stroke:black; " description="&lt;b&gt;AHA81994.1&lt;/b&gt;&lt;br&gt;Glycosyltransferase&lt;br&gt;Location: 28430 - 27147" locus_tag="AHA81994.1" class="clusterblast-orf" id="dummy-1_h1_10_12"  />
</g>
<g id="a1_0013"  >
<polygon points="265,85 270,80 287,80 287,90 270,90 265,85 " style="fill:#5c15d8; stroke-width:1; stroke:black; " description="&lt;b&gt;AHA81993.1&lt;/b&gt;&lt;br&gt;NDP-hexose-3-aminotransferase&lt;br&gt;Location: 27111 - 25948&lt;br&gt;&lt;br&gt;&lt;b&gt;BlastP hit with cds54963_56073&lt;/b&gt;&lt;br&gt;Percentage identity: 75&lt;br&gt;Percentage coverage: 100&lt;br&gt;BLAST bit score: 555&lt;br&gt;E-value: 6e-158" locus_tag="AHA81993.1" class="clusterblast-orf" id="dummy-1_h1_10_13"  />
</g>
<g id="a1_0014"  >
<polygon points="290,90 303,90 308,85 303,80 290,80 290,90 " style="fill:white; stroke-width:1; stroke:black; " description="&lt;b&gt;AHA81992.1&lt;/b&gt;&lt;br&gt;NDP-4-keto-6-deoxyhexose reductase&lt;br&gt;Location: 25757 - 24783" locus_tag="AHA81992.1" class="clusterblast-orf" id="dummy-1_h1_10_14"  />
</g>
<g id="a1_0015"  >
<polygon points="309,85 314,80 330,80 330,90 314,90 309,85 " style="fill:#d81580; stroke-width:1; stroke:black; " description="&lt;b&gt;AHA81991.1&lt;/b&gt;&lt;br&gt;NDP-hexose-C3-methyltransferase&lt;br&gt;Location: 24763 - 23624&lt;br&gt;&lt;br&gt;&lt;b&gt;BlastP hit with cds50964_52185&lt;/b&gt;&lt;br&gt;Percentage identity: 63&lt;br&gt;Percentage coverage: 93&lt;br&gt;BLAST bit score: 485&lt;br&gt;E-value: 6.5e-137" locus_tag="AHA81991.1" class="clusterblast-orf" id="dummy-1_h1_10_15"  />
</g>
<g id="a1_0016"  >
<polygon points="334,90 380,90 385,85 380,80 334,80 334,90 " style="fill:white; stroke-width:1; stroke:black; " description="&lt;b&gt;AHA81990.1&lt;/b&gt;&lt;br&gt;Unknown&lt;br&gt;Location: 23404 - 20618" locus_tag="AHA81990.1" class="clusterblast-orf" id="dummy-1_h1_10_16"  />
</g>
<g id="a1_0017"  >
<polygon points="385,85 390,80 396,80 396,90 390,90 385,85 " style="fill:white; stroke-width:1; stroke:black; " description="&lt;b&gt;AHA81989.1&lt;/b&gt;&lt;br&gt;Unknown&lt;br&gt;Location: 20604 - 20041" locus_tag="AHA81989.1" class="clusterblast-orf" id="dummy-1_h1_10_17"  />
</g>
<g id="a1_0018"  >
<polygon points="396,85 401,80 431,80 431,90 401,90 396,85 " style="fill:white; stroke-width:1; stroke:black; " description="&lt;b&gt;AHA81988.1&lt;/b&gt;&lt;br&gt;MarR family transcriptional  regulator&lt;br&gt;Location: 20044 - 18104" locus_tag="AHA81988.1" class="clusterblast-orf" id="dummy-1_h1_10_18"  />
</g>
<g id="a1_0019"  >
<polygon points="443,90 460,90 465,85 460,80 443,80 443,90 " style="fill:white; stroke-width:1; stroke:black; " description="&lt;b&gt;AHA81987.1&lt;/b&gt;&lt;br&gt;P450-oxidoreductase&lt;br&gt;Location: 17456 - 16260" locus_tag="AHA81987.1" class="clusterblast-orf" id="dummy-1_h1_10_19"  />
</g>
<g id="a1_0020"  >
<polygon points="465,90 489,90 494,85 489,80 465,80 465,90 " style="fill:#9115d8; stroke-width:1; stroke:black; " description="&lt;b&gt;AHA81986.1&lt;/b&gt;&lt;br&gt;Dehydrogenase&lt;br&gt;Location: 16263 - 14716&lt;br&gt;&lt;br&gt;&lt;b&gt;BlastP hit with cds31534_33049&lt;/b&gt;&lt;br&gt;Percentage identity: 52&lt;br&gt;Percentage coverage: 100&lt;br&gt;BLAST bit score: 501&lt;br&gt;E-value: 1.8e-141" locus_tag="AHA81986.1" class="clusterblast-orf" id="dummy-1_h1_10_20"  />
</g>
<g id="a1_0021"  >
<polygon points="495,85 500,80 517,80 517,90 500,90 495,85 " style="fill:white; stroke-width:1; stroke:black; " description="&lt;b&gt;AHA81985.1&lt;/b&gt;&lt;br&gt;Oxygenase&lt;br&gt;Location: 14639 - 13473" locus_tag="AHA81985.1" class="clusterblast-orf" id="dummy-1_h1_10_21"  />
</g>
<g id="a1_0022"  >
<polygon points="517,85 522,80 539,80 539,90 522,90 517,85 " style="fill:white; stroke-width:1; stroke:black; " description="&lt;b&gt;AHA81984.1&lt;/b&gt;&lt;br&gt;O-methyltransferase&lt;br&gt;Location: 13454 - 12279" locus_tag="AHA81984.1" class="clusterblast-orf" id="dummy-1_h1_10_22"  />
</g>
<g id="a1_0023"  >
<polygon points="538,85 543,80 545,80 545,90 543,90 538,85 " style="fill:white; stroke-width:1; stroke:black; " description="&lt;b&gt;AHA81983.1&lt;/b&gt;&lt;br&gt;Unknown&lt;br&gt;Location: 12282 - 11953" locus_tag="AHA81983.1" class="clusterblast-orf" id="dummy-1_h1_10_23"  />
</g>
<g id="a1_0024"  >
<polygon points="545,85 550,80 568,80 568,90 550,90 545,85 " style="fill:white; stroke-width:1; stroke:black; " description="&lt;b&gt;AHA81982.1&lt;/b&gt;&lt;br&gt;Glycosyltransferase&lt;br&gt;Location: 11924 - 10674" locus_tag="AHA81982.1" class="clusterblast-orf" id="dummy-1_h1_10_24"  />
</g>
<g id="a1_0025"  >
<polygon points="569,85 574,80 590,80 590,90 574,90 569,85 " style="fill:white; stroke-width:1; stroke:black; " description="&lt;b&gt;AHA81981.1&lt;/b&gt;&lt;br&gt;P450-oxidoreductase&lt;br&gt;Location: 10612 - 9461" locus_tag="AHA81981.1" class="clusterblast-orf" id="dummy-1_h1_10_25"  />
</g>
<g id="a1_0026"  >
<polygon points="595,85 600,80 609,80 609,90 600,90 595,85 " style="fill:white; stroke-width:1; stroke:black; " description="&lt;b&gt;AHA81980.1&lt;/b&gt;&lt;br&gt;SARP family transcriptional regulator&lt;br&gt;Location: 9212 - 8457" locus_tag="AHA81980.1" class="clusterblast-orf" id="dummy-1_h1_10_26"  />
</g>
<g id="a1_0027"  >
<polygon points="617,85 622,80 622,80 622,90 622,90 617,85 " style="fill:white; stroke-width:1; stroke:black; " description="&lt;b&gt;AHA81979.1&lt;/b&gt;&lt;br&gt;ACP&lt;br&gt;Location: 8004 - 7747" locus_tag="AHA81979.1" class="clusterblast-orf" id="dummy-1_h1_10_27"  />
</g>
<g id="a1_0028"  >
<polygon points="622,85 627,80 645,80 645,90 627,90 622,85 " style="fill:white; stroke-width:1; stroke:black; " description="&lt;b&gt;AHA81978.1&lt;/b&gt;&lt;br&gt;KSβ (CLF)&lt;br&gt;Location: 7731 - 6508" locus_tag="AHA81978.1" class="clusterblast-orf" id="dummy-1_h1_10_28"  />
</g>
<g id="a1_0029"  >
<polygon points="645,85 650,80 668,80 668,90 650,90 645,85 " style="fill:white; stroke-width:1; stroke:black; " description="&lt;b&gt;AHA81977.1&lt;/b&gt;&lt;br&gt;KSα&lt;br&gt;Location: 6511 - 5243" locus_tag="AHA81977.1" class="clusterblast-orf" id="dummy-1_h1_10_29"  />
</g>
<g id="a1_0030"  >
<polygon points="669,85 674,80 675,80 675,90 674,90 669,85 " style="fill:white; stroke-width:1; stroke:black; " description="&lt;b&gt;AHA81976.1&lt;/b&gt;&lt;br&gt;Monooygenase&lt;br&gt;Location: 5210 - 4869" locus_tag="AHA81976.1" class="clusterblast-orf" id="dummy-1_h1_10_30"  />
</g>
<g id="a1_0031"  >
<polygon points="676,85 681,80 690,80 690,90 681,90 676,85 " style="fill:white; stroke-width:1; stroke:black; " description="&lt;b&gt;AHA81975.1&lt;/b&gt;&lt;br&gt;Ketoreductase&lt;br&gt;Location: 4802 - 4035" locus_tag="AHA81975.1" class="clusterblast-orf" id="dummy-1_h1_10_31"  />
</g>
<g id="a1_0032"  >
<polygon points="691,85 696,80 699,80 699,90 696,90 691,85 " style="fill:white; stroke-width:1; stroke:black; " description="&lt;b&gt;AHA81974.1&lt;/b&gt;&lt;br&gt;Cyclase&lt;br&gt;Location: 3993 - 3553" locus_tag="AHA81974.1" class="clusterblast-orf" id="dummy-1_h1_10_32"  />
</g>
<g id="a1_0033"  >
<polygon points="703,90 712,90 717,85 712,80 703,80 703,90 " style="fill:white; stroke-width:1; stroke:black; " description="&lt;b&gt;AHA81973.1&lt;/b&gt;&lt;br&gt;Cyclase&lt;br&gt;Location: 3370 - 2591" locus_tag="AHA81973.1" class="clusterblast-orf" id="dummy-1_h1_10_33"  />
</g>
<g id="a1_0034"  >
<polygon points="719,90 731,90 736,85 731,80 719,80 719,90 " style="fill:white; stroke-width:1; stroke:black; " description="&lt;b&gt;AHA81972.1&lt;/b&gt;&lt;br&gt;Aromatase&lt;br&gt;Location: 2483 - 1554" locus_tag="AHA81972.1" class="clusterblast-orf" id="dummy-1_h1_10_34"  />
</g>
<g id="a1_0035"  >
<polygon points="736,90 743,90 748,85 743,80 736,80 736,90 " style="fill:white; stroke-width:1; stroke:black; " description="&lt;b&gt;AHA82007.1&lt;/b&gt;&lt;br&gt;O-methyl transferase&lt;br&gt;Location: 1561 - 884" locus_tag="AHA82007.1" class="clusterblast-orf" id="dummy-1_h1_10_35"  />
</g>
<g id="a1_0036"  >
<polygon points="750,90 760,90 765,85 760,80 750,80 750,90 " style="fill:white; stroke-width:1; stroke:black; " description="&lt;b&gt;AHA81971.1&lt;/b&gt;&lt;br&gt;putative hydroxylase&lt;br&gt;Location: 781 - 1" locus_tag="AHA81971.1" class="clusterblast-orf" id="dummy-1_h1_10_36"  />
</g>
</svg>
