<svg xmlns="http://www.w3.org/2000/svg" xmlns:xlink="http://www.w3.org/1999/xlink" version="1.1" x="0" y="0" height="230" width="800" viewBox="0 0 800 230" preserveAspectRatio="none"  >
<g label="Query sequence" class="clusterblast-cluster"  >
<text x="5" y="20" class="clusterblast-acc"  >
Query sequence</text>
<line x1="10" y1="35" x2="778.0" y2="35" style="stroke-width:1; stroke:grey; "  />
<polygon points="90,40 108,40 113,35 108,30 90,30 90,40 " style="fill:white; stroke-width:1; stroke:black; " description="&lt;b&gt;cds3252_4230&lt;/b&gt;&lt;br&gt;Manganese-dependent 2,3-dihydroxybiphenyl 1,2-dioxygenase&lt;br&gt;Location: 3252 - 4230" locus_tag="cds3252_4230" class="clusterblast-orf" id="dummy-1_q0_0_all"  />
<polygon points="112,40 126,40 131,35 126,30 112,30 112,40 " style="fill:white; stroke-width:1; stroke:black; " description="&lt;b&gt;cds4226_5024&lt;/b&gt;&lt;br&gt;L-aspartate dehydrogenase&lt;br&gt;Location: 4226 - 5024" locus_tag="cds4226_5024" class="clusterblast-orf" id="dummy-1_q1_0_all"  />
<polygon points="131,40 144,40 149,35 144,30 131,30 131,40 " style="fill:white; stroke-width:1; stroke:black; " description="&lt;b&gt;cds5020_5818&lt;/b&gt;&lt;br&gt;3-oxoadipate enol-lactonase 2&lt;br&gt;Location: 5020 - 5818" locus_tag="cds5020_5818" class="clusterblast-orf" id="dummy-1_q2_0_all"  />
<polygon points="150,40 157,40 162,35 157,30 150,30 150,40 " style="fill:white; stroke-width:1; stroke:black; " description="&lt;b&gt;cds5829_6351&lt;/b&gt;&lt;br&gt;hypothetical protein&lt;br&gt;Location: 5829 - 6351" locus_tag="cds5829_6351" class="clusterblast-orf" id="dummy-1_q3_0_all"  />
<polygon points="163,40 174,40 179,35 174,30 163,30 163,40 " style="fill:white; stroke-width:1; stroke:black; " description="&lt;b&gt;cds6415_7099&lt;/b&gt;&lt;br&gt;Pyridoxal 4-dehydrogenase&lt;br&gt;Location: 6415 - 7099" locus_tag="cds6415_7099" class="clusterblast-orf" id="dummy-1_q4_0_all"  />
<polygon points="179,40 193,40 198,35 193,30 179,30 179,40 " style="fill:white; stroke-width:1; stroke:black; " description="&lt;b&gt;cds7118_7907&lt;/b&gt;&lt;br&gt;Dihydroanticapsin 7-dehydrogenase&lt;br&gt;Location: 7118 - 7907" locus_tag="cds7118_7907" class="clusterblast-orf" id="dummy-1_q5_0_all"  />
<polygon points="198,40 231,40 236,35 231,30 198,30 198,40 " style="fill:white; stroke-width:1; stroke:black; " description="&lt;b&gt;cds7917_9543&lt;/b&gt;&lt;br&gt;Acetolactate synthase isozyme 2 large subunit&lt;br&gt;Location: 7917 - 9543" locus_tag="cds7917_9543" class="clusterblast-orf" id="dummy-1_q6_0_all"  />
<polygon points="236,40 253,40 258,35 253,30 236,30 236,40 " style="fill:white; stroke-width:1; stroke:black; " description="&lt;b&gt;cds9581_10517&lt;/b&gt;&lt;br&gt;Phenoxybenzoate dioxygenase subunit beta&lt;br&gt;Location: 9581 - 10517" locus_tag="cds9581_10517" class="clusterblast-orf" id="dummy-1_q7_0_all"  />
<polygon points="259,40 259,40 264,35 259,30 259,30 259,40 " style="fill:white; stroke-width:1; stroke:black; " description="&lt;b&gt;cds10545_10770&lt;/b&gt;&lt;br&gt;hypothetical protein&lt;br&gt;Location: 10545 - 10770" locus_tag="cds10545_10770" class="clusterblast-orf" id="dummy-1_q8_0_all"  />
<polygon points="264,40 283,40 288,35 283,30 264,30 264,40 " style="fill:white; stroke-width:1; stroke:black; " description="&lt;b&gt;cds10772_11789&lt;/b&gt;&lt;br&gt;hypothetical protein&lt;br&gt;Location: 10772 - 11789" locus_tag="cds10772_11789" class="clusterblast-orf" id="dummy-1_q9_0_all"  />
<polygon points="288,35 293,30 301,30 301,40 293,40 288,35 " style="fill:white; stroke-width:1; stroke:black; " description="&lt;b&gt;cds11813_12365&lt;/b&gt;&lt;br&gt;hypothetical protein&lt;br&gt;Location: 11813 - 12365" locus_tag="cds11813_12365" class="clusterblast-orf" id="dummy-1_q10_0_all"  />
<polygon points="302,35 307,30 324,30 324,40 307,40 302,35 " style="fill:#d81515; stroke-width:1; stroke:black; " description="&lt;b&gt;cds12404_13352&lt;/b&gt;&lt;br&gt;Bifunctional polymyxin resistance protein ArnA&lt;br&gt;Location: 12404 - 13352" locus_tag="cds12404_13352" class="clusterblast-orf" id="dummy-1_q11_0_all"  />
<polygon points="330,40 356,40 361,35 356,30 330,30 330,40 " style="fill:#15d863; stroke-width:1; stroke:black; " description="&lt;b&gt;cds13596_14952&lt;/b&gt;&lt;br&gt;L-ornithine N(5)-monooxygenase&lt;br&gt;Location: 13596 - 14952" locus_tag="cds13596_14952" class="clusterblast-orf" id="dummy-1_q12_0_all"  />
<polygon points="362,35 367,30 401,30 401,40 367,40 362,35 " style="fill:white; stroke-width:1; stroke:black; " description="&lt;b&gt;cds15011_16661&lt;/b&gt;&lt;br&gt;putative ferredoxin/ferredoxin--NADP reductase&lt;br&gt;Location: 15011 - 16661" locus_tag="cds15011_16661" class="clusterblast-orf" id="dummy-1_q13_0_all"  />
<polygon points="401,35 406,30 422,30 422,40 406,40 401,35 " style="fill:white; stroke-width:1; stroke:black; " description="&lt;b&gt;cds16670_17585&lt;/b&gt;&lt;br&gt;hypothetical protein&lt;br&gt;Location: 16670 - 17585" locus_tag="cds16670_17585" class="clusterblast-orf" id="dummy-1_q14_0_all"  />
<polygon points="432,40 458,40 463,35 458,30 432,30 432,40 " style="fill:white; stroke-width:1; stroke:black; " description="&lt;b&gt;cds18036_19377&lt;/b&gt;&lt;br&gt;hypothetical protein&lt;br&gt;Location: 18036 - 19377" locus_tag="cds18036_19377" class="clusterblast-orf" id="dummy-1_q15_0_all"  />
<polygon points="463,40 481,40 486,35 481,30 463,30 463,40 " style="fill:white; stroke-width:1; stroke:black; " description="&lt;b&gt;cds19373_20336&lt;/b&gt;&lt;br&gt;L-arabinose transport system permease protein AraP&lt;br&gt;Location: 19373 - 20336" locus_tag="cds19373_20336" class="clusterblast-orf" id="dummy-1_q16_0_all"  />
<polygon points="486,40 501,40 506,35 501,30 486,30 486,40 " style="fill:white; stroke-width:1; stroke:black; " description="&lt;b&gt;cds20332_21232&lt;/b&gt;&lt;br&gt;L-arabinose transport system permease protein AraQ&lt;br&gt;Location: 20332 - 21232" locus_tag="cds20332_21232" class="clusterblast-orf" id="dummy-1_q17_0_all"  />
<polygon points="508,35 513,30 528,30 528,40 513,40 508,35 " style="fill:white; stroke-width:1; stroke:black; " description="&lt;b&gt;cds21277_22165&lt;/b&gt;&lt;br&gt;1,4-dihydroxy-2-naphthoate octaprenyltransferase&lt;br&gt;Location: 21277 - 22165" locus_tag="cds21277_22165" class="clusterblast-orf" id="dummy-1_q18_0_all"  />
<polygon points="530,40 550,40 555,35 550,30 530,30 530,40 " style="fill:#1563d8; stroke-width:1; stroke:black; " description="&lt;b&gt;cds22251_23343&lt;/b&gt;&lt;br&gt;1,3,6,8-tetrahydroxynaphthalene synthase&lt;br&gt;Location: 22251 - 23343" locus_tag="cds22251_23343" class="clusterblast-orf" id="dummy-1_q19_0_all"  />
<polygon points="556,40 563,40 568,35 563,30 556,30 556,40 " style="fill:#b115d8; stroke-width:1; stroke:black; " description="&lt;b&gt;cds23356_23884&lt;/b&gt;&lt;br&gt;hypothetical protein&lt;br&gt;Location: 23356 - 23884" locus_tag="cds23356_23884" class="clusterblast-orf" id="dummy-1_q20_0_all"  />
<polygon points="568,40 586,40 591,35 586,30 568,30 568,40 " style="fill:#b1d815; stroke-width:1; stroke:black; " description="&lt;b&gt;cds23880_24894&lt;/b&gt;&lt;br&gt;hypothetical protein&lt;br&gt;Location: 23880 - 24894" locus_tag="cds23880_24894" class="clusterblast-orf" id="dummy-1_q21_0_all"  />
<polygon points="593,40 651,40 656,35 651,30 593,30 593,40 " style="fill:white; stroke-width:1; stroke:black; " description="&lt;b&gt;cds24976_27679&lt;/b&gt;&lt;br&gt;hypothetical protein&lt;br&gt;Location: 24976 - 27679" locus_tag="cds24976_27679" class="clusterblast-orf" id="dummy-1_q22_0_all"  />
<polygon points="656,35 661,30 671,30 671,40 661,40 656,35 " style="fill:white; stroke-width:1; stroke:black; " description="&lt;b&gt;cds27694_28324&lt;/b&gt;&lt;br&gt;2-methoxy-6-polyprenyl-1,4-benzoquinol methylase, mitochondrial&lt;br&gt;Location: 27694 - 28324" locus_tag="cds27694_28324" class="clusterblast-orf" id="dummy-1_q23_0_all"  />
<polygon points="671,35 676,30 690,30 690,40 676,40 671,35 " style="fill:white; stroke-width:1; stroke:black; " description="&lt;b&gt;cds28349_29135&lt;/b&gt;&lt;br&gt;hypothetical protein&lt;br&gt;Location: 28349 - 29135" locus_tag="cds28349_29135" class="clusterblast-orf" id="dummy-1_q24_0_all"  />
</g>
<g label="BGC0001211" description="BGC0001211_c1: albachelin (20% of genes show similarity), NRP" class="clusterblast-cluster"  >
<text x="5" y="70" class="clusterblast-acc"  >
<a xlink:href="https://mibig.secondarymetabolites.org/go/BGC0001211/1" target="_blank">BGC0001211</a>:                                                                       albachelin (20% of genes show similarity), NRP</text>
<line x1="10" y1="85" x2="778.0" y2="85" style="stroke-width:1; stroke:grey; "  />
</g>
<g id="a1_000"  >
<polygon points="0,85 5,80 21,80 21,90 5,90 0,85 " style="fill:#d81515; stroke-width:1; stroke:black; " description="&lt;b&gt;AMYAL_RS0130200&lt;/b&gt;&lt;br&gt;methionyl-tRNA formyltransferase&lt;br&gt;Location: 1 - 948&lt;br&gt;&lt;br&gt;&lt;b&gt;BlastP hit with cds12404_13352&lt;/b&gt;&lt;br&gt;Percentage identity: 73&lt;br&gt;Percentage coverage: 101&lt;br&gt;BLAST bit score: 496&lt;br&gt;E-value: 3.7e-140" locus_tag="AMYAL_RS0130200" class="clusterblast-orf" id="dummy-1_h1_6_0"  />
</g>
<g id="a1_001"  >
<polygon points="25,90 51,90 56,85 51,80 25,80 25,90 " style="fill:#15d863; stroke-width:1; stroke:black; " description="&lt;b&gt;AMYAL_RS0130205&lt;/b&gt;&lt;br&gt;SidA/IucD/PvdA family monooxygenase&lt;br&gt;Location: 1086 - 2429&lt;br&gt;&lt;br&gt;&lt;b&gt;BlastP hit with cds13596_14952&lt;/b&gt;&lt;br&gt;Percentage identity: 65&lt;br&gt;Percentage coverage: 99&lt;br&gt;BLAST bit score: 581&lt;br&gt;E-value: 1.3e-165" locus_tag="AMYAL_RS0130205" class="clusterblast-orf" id="dummy-1_h1_6_1"  />
</g>
<g id="a1_002"  >
<polygon points="56,90 567,90 572,85 567,80 56,80 56,90 " style="fill:white; stroke-width:1; stroke:black; " description="&lt;b&gt;AMYAL_RS0130210&lt;/b&gt;&lt;br&gt;non-ribosomal peptide synthetase&lt;br&gt;Location: 2458 - 24696" locus_tag="AMYAL_RS0130210" class="clusterblast-orf" id="dummy-1_h1_6_2"  />
</g>
<g id="a1_003"  >
<polygon points="572,90 576,85 572,80 572,90 " style="fill:white; stroke-width:1; stroke:black; " description="&lt;b&gt;AMYAL_RS0130215&lt;/b&gt;&lt;br&gt;MbtH family protein&lt;br&gt;Location: 24693 - 24902" locus_tag="AMYAL_RS0130215" class="clusterblast-orf" id="dummy-1_h1_6_3"  />
</g>
<g id="a1_004"  >
<polygon points="588,90 607,90 612,85 607,80 588,80 588,90 " style="fill:white; stroke-width:1; stroke:black; " description="&lt;b&gt;AMYAL_RS0130220&lt;/b&gt;&lt;br&gt;DUF4073 domain-containing protein&lt;br&gt;Location: 25420 - 26436" locus_tag="AMYAL_RS0130220" class="clusterblast-orf" id="dummy-1_h1_6_4"  />
</g>
<g id="a1_005"  >
<polygon points="621,85 626,80 646,80 646,90 626,90 621,85 " style="fill:white; stroke-width:1; stroke:black; " description="&lt;b&gt;AMYAL_RS0130225&lt;/b&gt;&lt;br&gt;iron-siderophore ABC transporter substrate-binding protein&lt;br&gt;Location: 26819 - 27904" locus_tag="AMYAL_RS0130225" class="clusterblast-orf" id="dummy-1_h1_6_5"  />
</g>
<g id="a1_006"  >
<polygon points="649,85 654,80 689,80 689,90 654,90 649,85 " style="fill:white; stroke-width:1; stroke:black; " description="&lt;b&gt;AMYAL_RS0130230&lt;/b&gt;&lt;br&gt;ABC transporter ATP-binding protein&lt;br&gt;Location: 28018 - 29775" locus_tag="AMYAL_RS0130230" class="clusterblast-orf" id="dummy-1_h1_6_6"  />
</g>
<g id="a1_007"  >
<polygon points="689,85 694,80 728,80 728,90 694,90 689,85 " style="fill:white; stroke-width:1; stroke:black; " description="&lt;b&gt;AMYAL_RS0130235&lt;/b&gt;&lt;br&gt;ABC transporter ATP-binding protein&lt;br&gt;Location: 29772 - 31448" locus_tag="AMYAL_RS0130235" class="clusterblast-orf" id="dummy-1_h1_6_7"  />
</g>
<g id="a1_008"  >
<polygon points="730,90 749,90 754,85 749,80 730,80 730,90 " style="fill:white; stroke-width:1; stroke:black; " description="&lt;b&gt;AMYAL_RS0130240&lt;/b&gt;&lt;br&gt;iron chelate uptake ABC transporter family permease subunit&lt;br&gt;Location: 31541 - 32584" locus_tag="AMYAL_RS0130240" class="clusterblast-orf" id="dummy-1_h1_6_8"  />
</g>
<g id="a1_009"  >
<polygon points="755,90 775,90 780,85 775,80 755,80 755,90 " style="fill:white; stroke-width:1; stroke:black; " description="&lt;b&gt;AMYAL_RS0130245&lt;/b&gt;&lt;br&gt;iron chelate uptake ABC transporter family permease subunit&lt;br&gt;Location: 32626 - 33663" locus_tag="AMYAL_RS0130245" class="clusterblast-orf" id="dummy-1_h1_6_9"  />
</g>
</svg>
