<svg xmlns="http://www.w3.org/2000/svg" xmlns:xlink="http://www.w3.org/1999/xlink" version="1.1" x="0" y="0" height="230" width="800" viewBox="0 0 800 230" preserveAspectRatio="none"  >
<g label="Query sequence" class="clusterblast-cluster"  >
<text x="5" y="20" class="clusterblast-acc"  >
Query sequence</text>
<line x1="10" y1="35" x2="778.0" y2="35" style="stroke-width:1; stroke:grey; "  />
<polygon points="0,40 12,40 17,35 12,30 0,30 0,40 " style="fill:white; stroke-width:1; stroke:black; " description="&lt;b&gt;cds79692_80229&lt;/b&gt;&lt;br&gt;Maleamate amidohydrolase&lt;br&gt;Location: 79692 - 80229" locus_tag="cds79692_80229" class="clusterblast-orf" id="dummy-2_q0_0_all"  />
<polygon points="21,40 36,40 41,35 36,30 21,30 21,40 " style="fill:white; stroke-width:1; stroke:black; " description="&lt;b&gt;cds80362_80962&lt;/b&gt;&lt;br&gt;8-demethyl-8-aminoriboflavin-5'-phosphate synthase&lt;br&gt;Location: 80362 - 80962" locus_tag="cds80362_80962" class="clusterblast-orf" id="dummy-2_q1_0_all"  />
<polygon points="44,35 49,30 82,30 82,40 49,40 44,35 " style="fill:white; stroke-width:1; stroke:black; " description="&lt;b&gt;cds81060_82236&lt;/b&gt;&lt;br&gt;hypothetical protein&lt;br&gt;Location: 81060 - 82236" locus_tag="cds81060_82236" class="clusterblast-orf" id="dummy-2_q2_0_all"  />
<polygon points="88,40 122,40 127,35 122,30 88,30 88,40 " style="fill:white; stroke-width:1; stroke:black; " description="&lt;b&gt;cds82419_83631&lt;/b&gt;&lt;br&gt;putative cardiolipin synthase YwiE&lt;br&gt;Location: 82419 - 83631" locus_tag="cds82419_83631" class="clusterblast-orf" id="dummy-2_q3_0_all"  />
<polygon points="129,35 134,30 138,30 138,40 134,40 129,35 " style="fill:white; stroke-width:1; stroke:black; " description="&lt;b&gt;cds83694_83982&lt;/b&gt;&lt;br&gt;hypothetical protein&lt;br&gt;Location: 83694 - 83982" locus_tag="cds83694_83982" class="clusterblast-orf" id="dummy-2_q4_0_all"  />
<polygon points="143,40 152,40 157,35 152,30 143,30 143,40 " style="fill:white; stroke-width:1; stroke:black; " description="&lt;b&gt;cds84138_84567&lt;/b&gt;&lt;br&gt;hypothetical protein&lt;br&gt;Location: 84138 - 84567" locus_tag="cds84138_84567" class="clusterblast-orf" id="dummy-2_q5_0_all"  />
<polygon points="161,40 175,40 180,35 175,30 161,30 161,40 " style="fill:white; stroke-width:1; stroke:black; " description="&lt;b&gt;cds84674_85280&lt;/b&gt;&lt;br&gt;hypothetical protein&lt;br&gt;Location: 84674 - 85280" locus_tag="cds84674_85280" class="clusterblast-orf" id="dummy-2_q6_0_all"  />
<polygon points="181,35 186,30 212,30 212,40 186,40 181,35 " style="fill:white; stroke-width:1; stroke:black; " description="&lt;b&gt;cds85309_86260&lt;/b&gt;&lt;br&gt;hypothetical protein&lt;br&gt;Location: 85309 - 86260" locus_tag="cds85309_86260" class="clusterblast-orf" id="dummy-2_q7_0_all"  />
<polygon points="215,40 259,40 264,35 259,30 215,30 215,40 " style="fill:white; stroke-width:1; stroke:black; " description="&lt;b&gt;cds86353_87877&lt;/b&gt;&lt;br&gt;hypothetical protein&lt;br&gt;Location: 86353 - 87877" locus_tag="cds86353_87877" class="clusterblast-orf" id="dummy-2_q8_0_all"  />
<polygon points="269,40 305,40 310,35 305,30 269,30 269,40 " style="fill:white; stroke-width:1; stroke:black; " description="&lt;b&gt;cds88028_89294&lt;/b&gt;&lt;br&gt;Renalase&lt;br&gt;Location: 88028 - 89294" locus_tag="cds88028_89294" class="clusterblast-orf" id="dummy-2_q9_0_all"  />
<polygon points="310,40 344,40 349,35 344,30 310,30 310,40 " style="fill:#d81515; stroke-width:1; stroke:black; " description="&lt;b&gt;cds89290_90499&lt;/b&gt;&lt;br&gt;hypothetical protein&lt;br&gt;Location: 89290 - 90499" locus_tag="cds89290_90499" class="clusterblast-orf" id="dummy-2_q10_0_all"  />
<polygon points="349,40 368,40 373,35 368,30 349,30 349,40 " style="fill:#15d815; stroke-width:1; stroke:black; " description="&lt;b&gt;cds90495_91230&lt;/b&gt;&lt;br&gt;Demethylmenaquinone methyltransferase&lt;br&gt;Location: 90495 - 91230" locus_tag="cds90495_91230" class="clusterblast-orf" id="dummy-2_q11_0_all"  />
<polygon points="372,40 418,40 423,35 418,30 372,30 372,40 " style="fill:#1597d8; stroke-width:1; stroke:black; " description="&lt;b&gt;cds91226_92786&lt;/b&gt;&lt;br&gt;tRNA 5-methylaminomethyl-2-thiouridine biosynthesis bifunctional protein MnmC&lt;br&gt;Location: 91226 - 92786" locus_tag="cds91226_92786" class="clusterblast-orf" id="dummy-2_q12_0_all"  />
<polygon points="424,35 429,30 457,30 457,40 429,40 424,35 " style="fill:#9715d8; stroke-width:1; stroke:black; " description="&lt;b&gt;cds92820_93828&lt;/b&gt;&lt;br&gt;hypothetical protein&lt;br&gt;Location: 92820 - 93828" locus_tag="cds92820_93828" class="clusterblast-orf" id="dummy-2_q13_0_all"  />
<polygon points="456,35 461,30 488,30 488,40 461,40 456,35 " style="fill:#d89715; stroke-width:1; stroke:black; " description="&lt;b&gt;cds93824_94811&lt;/b&gt;&lt;br&gt;15-cis-phytoene synthase&lt;br&gt;Location: 93824 - 94811" locus_tag="cds93824_94811" class="clusterblast-orf" id="dummy-2_q14_0_all"  />
<polygon points="488,35 493,30 538,30 538,40 493,40 488,35 " style="fill:#15d897; stroke-width:1; stroke:black; " description="&lt;b&gt;cds94807_96343&lt;/b&gt;&lt;br&gt;zeta-carotene-forming phytoene desaturase&lt;br&gt;Location: 94807 - 96343" locus_tag="cds94807_96343" class="clusterblast-orf" id="dummy-2_q15_0_all"  />
<polygon points="538,35 543,30 575,30 575,40 543,40 538,35 " style="fill:#1515d8; stroke-width:1; stroke:black; " description="&lt;b&gt;cds96339_97509&lt;/b&gt;&lt;br&gt;hypothetical protein&lt;br&gt;Location: 96339 - 97509" locus_tag="cds96339_97509" class="clusterblast-orf" id="dummy-2_q16_0_all"  />
<polygon points="582,35 587,30 598,30 598,40 587,40 582,35 " style="fill:#d81597; stroke-width:1; stroke:black; " description="&lt;b&gt;cds97714_98203&lt;/b&gt;&lt;br&gt;hypothetical protein&lt;br&gt;Location: 97714 - 98203" locus_tag="cds97714_98203" class="clusterblast-orf" id="dummy-2_q17_0_all"  />
<polygon points="602,40 628,40 633,35 628,30 602,30 602,40 " style="fill:#97d815; stroke-width:1; stroke:black; " description="&lt;b&gt;cds98327_99293&lt;/b&gt;&lt;br&gt;hypothetical protein&lt;br&gt;Location: 98327 - 99293" locus_tag="cds98327_99293" class="clusterblast-orf" id="dummy-2_q18_0_all"  />
<polygon points="633,40 639,40 644,35 639,30 633,30 633,40 " style="fill:white; stroke-width:1; stroke:black; " description="&lt;b&gt;cds99289_99628&lt;/b&gt;&lt;br&gt;hypothetical protein&lt;br&gt;Location: 99289 - 99628" locus_tag="cds99289_99628" class="clusterblast-orf" id="dummy-2_q19_0_all"  />
<polygon points="646,35 651,30 694,30 694,40 651,40 646,35 " style="fill:white; stroke-width:1; stroke:black; " description="&lt;b&gt;cds99681_101172&lt;/b&gt;&lt;br&gt;Non-reducing end alpha-L-arabinofuranosidase BoGH43A&lt;br&gt;Location: 99681 - 101172" locus_tag="cds99681_101172" class="clusterblast-orf" id="dummy-2_q20_0_all"  />
<polygon points="704,35 709,30 780,30 780,40 709,40 704,35 " style="fill:white; stroke-width:1; stroke:black; " description="&lt;b&gt;cds101484_103833&lt;/b&gt;&lt;br&gt;hypothetical protein&lt;br&gt;Location: 101484 - 103833" locus_tag="cds101484_103833" class="clusterblast-orf" id="dummy-2_q21_0_all"  />
</g>
<g label="BGC0001227" description="BGC0001227_c1: isorenieratene (63% of genes show similarity), Terpene" class="clusterblast-cluster"  >
<text x="5" y="70" class="clusterblast-acc"  >
<a xlink:href="https://mibig.secondarymetabolites.org/go/BGC0001227/1" target="_blank">BGC0001227</a>:                                                                   isorenieratene (63% of genes show similarity), Terpene</text>
<line x1="10" y1="85" x2="778.0" y2="85" style="stroke-width:1; stroke:grey; "  />
</g>
<g id="a2_000"  >
<polygon points="193,85 198,80 226,80 226,90 198,90 193,85 " style="fill:#9715d8; stroke-width:1; stroke:black; " description="&lt;b&gt;B446_02720&lt;/b&gt;&lt;br&gt;iron-sulfur protein&lt;br&gt;Location: 1 - 1020&lt;br&gt;&lt;br&gt;&lt;b&gt;BlastP hit with cds92820_93828&lt;/b&gt;&lt;br&gt;Percentage identity: 71&lt;br&gt;Percentage coverage: 98&lt;br&gt;BLAST bit score: 466&lt;br&gt;E-value: 3.3e-131" locus_tag="B446_02720" class="clusterblast-orf" id="dummy-2_h2_5_0"  />
</g>
<g id="a2_001"  >
<polygon points="226,85 231,80 259,80 259,90 231,90 226,85 " style="fill:#d89715; stroke-width:1; stroke:black; " description="&lt;b&gt;B446_02725&lt;/b&gt;&lt;br&gt;phytoene synthase&lt;br&gt;Location: 1017 - 2033&lt;br&gt;&lt;br&gt;&lt;b&gt;BlastP hit with cds93824_94811&lt;/b&gt;&lt;br&gt;Percentage identity: 67&lt;br&gt;Percentage coverage: 99&lt;br&gt;BLAST bit score: 400&lt;br&gt;E-value: 2.9e-111" locus_tag="B446_02725" class="clusterblast-orf" id="dummy-2_h2_5_1"  />
</g>
<g id="a2_002"  >
<polygon points="259,85 264,80 307,80 307,90 264,90 259,85 " style="fill:#15d897; stroke-width:1; stroke:black; " description="&lt;b&gt;B446_02730&lt;/b&gt;&lt;br&gt;phytoene desaturase&lt;br&gt;Location: 2030 - 3532&lt;br&gt;&lt;br&gt;&lt;b&gt;BlastP hit with cds94807_96343&lt;/b&gt;&lt;br&gt;Percentage identity: 74&lt;br&gt;Percentage coverage: 98&lt;br&gt;BLAST bit score: 724&lt;br&gt;E-value: 1.4e-208" locus_tag="B446_02730" class="clusterblast-orf" id="dummy-2_h2_5_2"  />
</g>
<g id="a2_003"  >
<polygon points="308,85 313,80 350,80 350,90 313,90 308,85 " style="fill:#1515d8; stroke-width:1; stroke:black; " description="&lt;b&gt;B446_02735&lt;/b&gt;&lt;br&gt;polyprenyl diphosphate synthase&lt;br&gt;Location: 3565 - 4836&lt;br&gt;&lt;br&gt;&lt;b&gt;BlastP hit with cds96339_97509&lt;/b&gt;&lt;br&gt;Percentage identity: 47&lt;br&gt;Percentage coverage: 101&lt;br&gt;BLAST bit score: 265&lt;br&gt;E-value: 1.3e-70" locus_tag="B446_02735" class="clusterblast-orf" id="dummy-2_h2_5_3"  />
</g>
<g id="a2_004"  >
<polygon points="358,90 391,90 396,85 391,80 358,80 358,90 " style="fill:#d81515; stroke-width:1; stroke:black; " description="&lt;b&gt;B446_02740&lt;/b&gt;&lt;br&gt;lycopene cyclase&lt;br&gt;Location: 5083 - 6279&lt;br&gt;&lt;br&gt;&lt;b&gt;BlastP hit with cds89290_90499&lt;/b&gt;&lt;br&gt;Percentage identity: 58&lt;br&gt;Percentage coverage: 98&lt;br&gt;BLAST bit score: 421&lt;br&gt;E-value: 1.9e-117" locus_tag="B446_02740" class="clusterblast-orf" id="dummy-2_h2_5_4"  />
</g>
<g id="a2_005"  >
<polygon points="403,90 422,90 427,85 422,80 403,80 403,90 " style="fill:#15d815; stroke-width:1; stroke:black; " description="&lt;b&gt;B446_02745&lt;/b&gt;&lt;br&gt;methyltransferase&lt;br&gt;Location: 6491 - 7225&lt;br&gt;&lt;br&gt;&lt;b&gt;BlastP hit with cds90495_91230&lt;/b&gt;&lt;br&gt;Percentage identity: 60&lt;br&gt;Percentage coverage: 99&lt;br&gt;BLAST bit score: 282&lt;br&gt;E-value: 6.5e-76" locus_tag="B446_02745" class="clusterblast-orf" id="dummy-2_h2_5_5"  />
</g>
<g id="a2_006"  >
<polygon points="427,90 474,90 479,85 474,80 427,80 427,90 " style="fill:#1597d8; stroke-width:1; stroke:black; " description="&lt;b&gt;B446_02750&lt;/b&gt;&lt;br&gt;beta-carotene desaturase/methylase&lt;br&gt;Location: 7222 - 8856&lt;br&gt;&lt;br&gt;&lt;b&gt;BlastP hit with cds91226_92786&lt;/b&gt;&lt;br&gt;Percentage identity: 68&lt;br&gt;Percentage coverage: 97&lt;br&gt;BLAST bit score: 664&lt;br&gt;E-value: 1.3e-190" locus_tag="B446_02750" class="clusterblast-orf" id="dummy-2_h2_5_6"  />
</g>
<g id="a2_007"  >
<polygon points="481,90 503,90 508,85 503,80 481,80 481,90 " style="fill:white; stroke-width:1; stroke:black; " description="&lt;b&gt;B446_02755&lt;/b&gt;&lt;br&gt;hypothetical protein&lt;br&gt;Location: 8897 - 9736" locus_tag="B446_02755" class="clusterblast-orf" id="dummy-2_h2_5_7"  />
</g>
<g id="a2_008"  >
<polygon points="511,90 529,90 534,85 529,80 511,80 511,90 " style="fill:white; stroke-width:1; stroke:black; " description="&lt;b&gt;B446_02760&lt;/b&gt;&lt;br&gt;transcriptional regulator&lt;br&gt;Location: 9843 - 10559" locus_tag="B446_02760" class="clusterblast-orf" id="dummy-2_h2_5_8"  />
</g>
<g id="a2_009"  >
<polygon points="535,90 549,90 554,85 549,80 535,80 535,90 " style="fill:white; stroke-width:1; stroke:black; " description="&lt;b&gt;B446_02765&lt;/b&gt;&lt;br&gt;hypothetical protein&lt;br&gt;Location: 10586 - 11170" locus_tag="B446_02765" class="clusterblast-orf" id="dummy-2_h2_5_9"  />
</g>
<g id="a2_0010"  >
<polygon points="551,85 556,80 586,80 586,90 556,90 551,85 " style="fill:white; stroke-width:1; stroke:black; " description="&lt;b&gt;B446_02770&lt;/b&gt;&lt;br&gt;putative regulatory protein&lt;br&gt;Location: 11074 - 12144" locus_tag="B446_02770" class="clusterblast-orf" id="dummy-2_h2_5_10"  />
</g>
</svg>
