<svg xmlns="http://www.w3.org/2000/svg" xmlns:xlink="http://www.w3.org/1999/xlink" version="1.1" x="0" y="0" height="230" width="800" viewBox="0 0 800 230" preserveAspectRatio="none"  >
<g label="Query sequence" class="clusterblast-cluster"  >
<text x="5" y="20" class="clusterblast-acc"  >
Query sequence</text>
<line x1="10" y1="35" x2="778.0" y2="35" style="stroke-width:1; stroke:grey; "  />
<polygon points="18,40 22,40 27,35 22,30 18,30 18,40 " style="fill:white; stroke-width:1; stroke:black; " description="&lt;b&gt;cds16785_17406&lt;/b&gt;&lt;br&gt;putative protein YciO&lt;br&gt;Location: 16785 - 17406" locus_tag="cds16785_17406" class="clusterblast-orf" id="dummy-1_q0_0_all"  />
<polygon points="29,40 32,35 29,30 29,40 " style="fill:white; stroke-width:1; stroke:black; " description="&lt;b&gt;cds17518_17710&lt;/b&gt;&lt;br&gt;hypothetical protein&lt;br&gt;Location: 17518 - 17710" locus_tag="cds17518_17710" class="clusterblast-orf" id="dummy-1_q1_0_all"  />
<polygon points="34,40 35,40 40,35 35,30 34,30 34,40 " style="fill:white; stroke-width:1; stroke:black; " description="&lt;b&gt;cds17886_18276&lt;/b&gt;&lt;br&gt;hypothetical protein&lt;br&gt;Location: 17886 - 18276" locus_tag="cds17886_18276" class="clusterblast-orf" id="dummy-1_q2_0_all"  />
<polygon points="40,35 45,30 55,30 55,40 45,40 40,35 " style="fill:white; stroke-width:1; stroke:black; " description="&lt;b&gt;cds18279_19287&lt;/b&gt;&lt;br&gt;hypothetical protein&lt;br&gt;Location: 18279 - 19287" locus_tag="cds18279_19287" class="clusterblast-orf" id="dummy-1_q3_0_all"  />
<polygon points="57,35 62,30 63,30 63,40 62,40 57,35 " style="fill:white; stroke-width:1; stroke:black; " description="&lt;b&gt;cds19384_19807&lt;/b&gt;&lt;br&gt;HTH-type transcriptional regulator NmtR&lt;br&gt;Location: 19384 - 19807" locus_tag="cds19384_19807" class="clusterblast-orf" id="dummy-1_q4_0_all"  />
<polygon points="64,40 90,40 95,35 90,30 64,30 64,40 " style="fill:white; stroke-width:1; stroke:black; " description="&lt;b&gt;cds19864_21892&lt;/b&gt;&lt;br&gt;putative cobalt/nickel-exporting P-type ATPase&lt;br&gt;Location: 19864 - 21892" locus_tag="cds19864_21892" class="clusterblast-orf" id="dummy-1_q5_0_all"  />
<polygon points="97,40 114,40 119,35 114,30 97,30 97,40 " style="fill:white; stroke-width:1; stroke:black; " description="&lt;b&gt;cds22036_23491&lt;/b&gt;&lt;br&gt;Arginine/ornithine antiporter&lt;br&gt;Location: 22036 - 23491" locus_tag="cds22036_23491" class="clusterblast-orf" id="dummy-1_q6_0_all"  />
<polygon points="120,40 135,40 140,35 135,30 120,30 120,40 " style="fill:white; stroke-width:1; stroke:black; " description="&lt;b&gt;cds23569_24835&lt;/b&gt;&lt;br&gt;Arginine deiminase&lt;br&gt;Location: 23569 - 24835" locus_tag="cds23569_24835" class="clusterblast-orf" id="dummy-1_q7_0_all"  />
<polygon points="142,35 147,30 155,30 155,40 147,40 142,35 " style="fill:white; stroke-width:1; stroke:black; " description="&lt;b&gt;cds24958_25849&lt;/b&gt;&lt;br&gt;hypothetical protein&lt;br&gt;Location: 24958 - 25849" locus_tag="cds24958_25849" class="clusterblast-orf" id="dummy-1_q8_0_all"  />
<polygon points="157,35 162,30 163,30 163,40 162,40 157,35 " style="fill:#d81515; stroke-width:1; stroke:black; " description="&lt;b&gt;cds25950_26358&lt;/b&gt;&lt;br&gt;hypothetical protein&lt;br&gt;Location: 25950 - 26358" locus_tag="cds25950_26358" class="clusterblast-orf" id="dummy-1_q9_0_all"  />
<polygon points="164,40 172,40 177,35 172,30 164,30 164,40 " style="fill:#63d815; stroke-width:1; stroke:black; " description="&lt;b&gt;cds26456_27326&lt;/b&gt;&lt;br&gt;Soluble epoxide hydrolase&lt;br&gt;Location: 26456 - 27326" locus_tag="cds26456_27326" class="clusterblast-orf" id="dummy-1_q10_0_all"  />
<polygon points="178,35 183,30 193,30 193,40 183,40 178,35 " style="fill:white; stroke-width:1; stroke:black; " description="&lt;b&gt;cds27380_28340&lt;/b&gt;&lt;br&gt;Acarbose 7(IV)-phosphotransferase&lt;br&gt;Location: 27380 - 28340" locus_tag="cds27380_28340" class="clusterblast-orf" id="dummy-1_q11_0_all"  />
<polygon points="195,35 200,30 216,30 216,40 200,40 195,35 " style="fill:white; stroke-width:1; stroke:black; " description="&lt;b&gt;cds28457_29837&lt;/b&gt;&lt;br&gt;Alpha-amylase&lt;br&gt;Location: 28457 - 29837" locus_tag="cds28457_29837" class="clusterblast-orf" id="dummy-1_q12_0_all"  />
<polygon points="218,35 223,30 230,30 230,40 223,40 218,35 " style="fill:white; stroke-width:1; stroke:black; " description="&lt;b&gt;cds30005_30785&lt;/b&gt;&lt;br&gt;HTH-type transcriptional regulator XynR&lt;br&gt;Location: 30005 - 30785" locus_tag="cds30005_30785" class="clusterblast-orf" id="dummy-1_q13_0_all"  />
<polygon points="234,40 242,40 247,35 242,30 234,30 234,40 " style="fill:#15b1d8; stroke-width:1; stroke:black; " description="&lt;b&gt;cds31033_31933&lt;/b&gt;&lt;br&gt;Acetylglutamate kinase&lt;br&gt;Location: 31033 - 31933" locus_tag="cds31033_31933" class="clusterblast-orf" id="dummy-1_q14_0_all"  />
<polygon points="247,35 252,30 255,30 255,40 252,40 247,35 " style="fill:#b115d8; stroke-width:1; stroke:black; " description="&lt;b&gt;cds31943_32462&lt;/b&gt;&lt;br&gt;hypothetical protein&lt;br&gt;Location: 31943 - 32462" locus_tag="cds31943_32462" class="clusterblast-orf" id="dummy-1_q15_0_all"  />
<polygon points="258,40 270,40 275,35 270,30 258,30 258,40 " style="fill:#d86315; stroke-width:1; stroke:black; " description="&lt;b&gt;cds32619_33765&lt;/b&gt;&lt;br&gt;Enterochelin esterase&lt;br&gt;Location: 32619 - 33765" locus_tag="cds32619_33765" class="clusterblast-orf" id="dummy-1_q16_0_all"  />
<polygon points="275,35 280,30 301,30 301,40 280,40 275,35 " style="fill:#15d815; stroke-width:1; stroke:black; " description="&lt;b&gt;cds33768_35469&lt;/b&gt;&lt;br&gt;hypothetical protein&lt;br&gt;Location: 33768 - 35469" locus_tag="cds33768_35469" class="clusterblast-orf" id="dummy-1_q17_0_all"  />
<polygon points="301,35 306,30 466,30 466,40 306,40 301,35 " style="fill:#1563d8; stroke-width:1; stroke:black; " description="&lt;b&gt;cds35455_46369&lt;/b&gt;&lt;br&gt;D-alanine--D-alanyl carrier protein ligase&lt;br&gt;Location: 35455 - 46369" locus_tag="cds35455_46369" class="clusterblast-orf" id="dummy-1_q18_0_all"  />
<polygon points="467,35 472,30 495,30 495,40 472,40 467,35 " style="fill:#d815b1; stroke-width:1; stroke:black; " description="&lt;b&gt;cds46437_48228&lt;/b&gt;&lt;br&gt;Putative multidrug export ATP-binding/permease protein&lt;br&gt;Location: 46437 - 48228" locus_tag="cds46437_48228" class="clusterblast-orf" id="dummy-1_q19_0_all"  />
<polygon points="495,35 500,30 511,30 511,40 500,40 495,35 " style="fill:#d8b115; stroke-width:1; stroke:black; " description="&lt;b&gt;cds48271_49324&lt;/b&gt;&lt;br&gt;Putative ABC transporter substrate-binding lipoprotein YhfQ&lt;br&gt;Location: 48271 - 49324" locus_tag="cds48271_49324" class="clusterblast-orf" id="dummy-1_q20_0_all"  />
<polygon points="513,35 518,30 526,30 526,40 518,40 513,35 " style="fill:#15d863; stroke-width:1; stroke:black; " description="&lt;b&gt;cds49441_50329&lt;/b&gt;&lt;br&gt;putative siderophore transport system ATP-binding protein YusV&lt;br&gt;Location: 49441 - 50329" locus_tag="cds49441_50329" class="clusterblast-orf" id="dummy-1_q21_0_all"  />
<polygon points="526,35 531,30 542,30 542,40 531,40 526,35 " style="fill:#1515d8; stroke-width:1; stroke:black; " description="&lt;b&gt;cds50325_51387&lt;/b&gt;&lt;br&gt;putative siderophore transport system permease protein YfhA&lt;br&gt;Location: 50325 - 51387" locus_tag="cds50325_51387" class="clusterblast-orf" id="dummy-1_q22_0_all"  />
<polygon points="542,35 547,30 557,30 557,40 547,40 542,35 " style="fill:#d81563; stroke-width:1; stroke:black; " description="&lt;b&gt;cds51383_52370&lt;/b&gt;&lt;br&gt;Ferric enterobactin transport system permease protein FepD&lt;br&gt;Location: 51383 - 52370" locus_tag="cds51383_52370" class="clusterblast-orf" id="dummy-1_q23_0_all"  />
<polygon points="560,35 565,30 580,30 580,40 565,40 560,35 " style="fill:#b1d815; stroke-width:1; stroke:black; " description="&lt;b&gt;cds52527_53883&lt;/b&gt;&lt;br&gt;L-ornithine N(5)-monooxygenase&lt;br&gt;Location: 52527 - 53883" locus_tag="cds52527_53883" class="clusterblast-orf" id="dummy-1_q24_0_all"  />
<polygon points="585,40 602,40 607,35 602,30 585,30 585,40 " style="fill:white; stroke-width:1; stroke:black; " description="&lt;b&gt;cds54199_55654&lt;/b&gt;&lt;br&gt;Undecaprenyl-phosphate 4-deoxy-4-formamido-L-arabinose transferase&lt;br&gt;Location: 54199 - 55654" locus_tag="cds54199_55654" class="clusterblast-orf" id="dummy-1_q25_0_all"  />
<polygon points="607,40 625,40 630,35 625,30 607,30 607,40 " style="fill:white; stroke-width:1; stroke:black; " description="&lt;b&gt;cds55660_57193&lt;/b&gt;&lt;br&gt;hypothetical protein&lt;br&gt;Location: 55660 - 57193" locus_tag="cds55660_57193" class="clusterblast-orf" id="dummy-1_q26_0_all"  />
<polygon points="632,40 641,40 646,35 641,30 632,30 632,40 " style="fill:white; stroke-width:1; stroke:black; " description="&lt;b&gt;cds57276_58224&lt;/b&gt;&lt;br&gt;hypothetical protein&lt;br&gt;Location: 57276 - 58224" locus_tag="cds57276_58224" class="clusterblast-orf" id="dummy-1_q27_0_all"  />
<polygon points="646,40 647,40 652,35 647,30 646,30 646,40 " style="fill:white; stroke-width:1; stroke:black; " description="&lt;b&gt;cds58225_58621&lt;/b&gt;&lt;br&gt;hypothetical protein&lt;br&gt;Location: 58225 - 58621" locus_tag="cds58225_58621" class="clusterblast-orf" id="dummy-1_q28_0_all"  />
<polygon points="655,40 679,40 684,35 679,30 655,30 655,40 " style="fill:white; stroke-width:1; stroke:black; " description="&lt;b&gt;cds58822_60700&lt;/b&gt;&lt;br&gt;hypothetical protein&lt;br&gt;Location: 58822 - 60700" locus_tag="cds58822_60700" class="clusterblast-orf" id="dummy-1_q29_0_all"  />
<polygon points="685,35 690,30 701,30 701,40 690,40 685,35 " style="fill:white; stroke-width:1; stroke:black; " description="&lt;b&gt;cds60755_61859&lt;/b&gt;&lt;br&gt;Putative transport protein&lt;br&gt;Location: 60755 - 61859" locus_tag="cds60755_61859" class="clusterblast-orf" id="dummy-1_q30_0_all"  />
<polygon points="708,35 713,30 716,30 716,40 713,40 708,35 " style="fill:#15d8b1; stroke-width:1; stroke:black; " description="&lt;b&gt;cds62270_62840&lt;/b&gt;&lt;br&gt;hypothetical protein&lt;br&gt;Location: 62270 - 62840" locus_tag="cds62270_62840" class="clusterblast-orf" id="dummy-1_q31_0_all"  />
<polygon points="718,40 727,40 732,35 727,30 718,30 718,40 " style="fill:#6315d8; stroke-width:1; stroke:black; " description="&lt;b&gt;cds62951_63863&lt;/b&gt;&lt;br&gt;hypothetical protein&lt;br&gt;Location: 62951 - 63863" locus_tag="cds62951_63863" class="clusterblast-orf" id="dummy-1_q32_0_all"  />
<polygon points="732,35 737,30 751,30 751,40 737,40 732,35 " style="fill:white; stroke-width:1; stroke:black; " description="&lt;b&gt;cds63902_65108&lt;/b&gt;&lt;br&gt;Oleandomycin glycosyltransferase&lt;br&gt;Location: 63902 - 65108" locus_tag="cds63902_65108" class="clusterblast-orf" id="dummy-1_q33_0_all"  />
<polygon points="752,35 757,30 762,30 762,40 757,40 752,35 " style="fill:white; stroke-width:1; stroke:black; " description="&lt;b&gt;cds65192_65846&lt;/b&gt;&lt;br&gt;Streptogramin A acetyltransferase&lt;br&gt;Location: 65192 - 65846" locus_tag="cds65192_65846" class="clusterblast-orf" id="dummy-1_q34_0_all"  />
</g>
<g label="BGC0001117" description="BGC0001117_c1: himastatin (8% of genes show similarity), NRP" class="clusterblast-cluster"  >
<text x="5" y="70" class="clusterblast-acc"  >
<a xlink:href="https://mibig.secondarymetabolites.org/go/BGC0001117/1" target="_blank">BGC0001117</a>:                                                                       himastatin (8% of genes show similarity), NRP</text>
<line x1="10" y1="85" x2="778.0" y2="85" style="stroke-width:1; stroke:grey; "  />
</g>
<g id="a1_000"  >
<polygon points="0,90 42,90 47,85 42,80 0,80 0,90 " style="fill:white; stroke-width:1; stroke:black; " description="&lt;b&gt;CBZ42156.1&lt;/b&gt;&lt;br&gt;&lt;br&gt;Location: 51421 - 48275" locus_tag="CBZ42156.1" class="clusterblast-orf" id="dummy-1_h1_9_0"  />
</g>
<g id="a1_001"  >
<polygon points="47,85 52,80 63,80 63,90 52,90 47,85 " style="fill:white; stroke-width:1; stroke:black; " description="&lt;b&gt;CBZ42155.1&lt;/b&gt;&lt;br&gt;&lt;br&gt;Location: 48259 - 47249" locus_tag="CBZ42155.1" class="clusterblast-orf" id="dummy-1_h1_9_1"  />
</g>
<g id="a1_002"  >
<polygon points="64,85 69,80 82,80 82,90 69,90 64,85 " style="fill:white; stroke-width:1; stroke:black; " description="&lt;b&gt;CBZ42154.1&lt;/b&gt;&lt;br&gt;putative P450-like enzyme&lt;br&gt;Location: 47172 - 45979" locus_tag="CBZ42154.1" class="clusterblast-orf" id="dummy-1_h1_9_2"  />
</g>
<g id="a1_003"  >
<polygon points="83,85 88,80 101,80 101,90 88,90 83,85 " style="fill:white; stroke-width:1; stroke:black; " description="&lt;b&gt;CBZ42153.1&lt;/b&gt;&lt;br&gt;putative P450-like enzyme&lt;br&gt;Location: 45931 - 44738" locus_tag="CBZ42153.1" class="clusterblast-orf" id="dummy-1_h1_9_3"  />
</g>
<g id="a1_004"  >
<polygon points="104,85 109,80 117,80 117,90 109,90 104,85 " style="fill:white; stroke-width:1; stroke:black; " description="&lt;b&gt;CBZ42152.1&lt;/b&gt;&lt;br&gt;putative ABC-2 type transporter&lt;br&gt;Location: 44546 - 43704" locus_tag="CBZ42152.1" class="clusterblast-orf" id="dummy-1_h1_9_4"  />
</g>
<g id="a1_005"  >
<polygon points="117,85 122,80 131,80 131,90 122,90 117,85 " style="fill:white; stroke-width:1; stroke:black; " description="&lt;b&gt;CBZ42151.1&lt;/b&gt;&lt;br&gt;putative ABC-2 transporter&lt;br&gt;Location: 43707 - 42754" locus_tag="CBZ42151.1" class="clusterblast-orf" id="dummy-1_h1_9_5"  />
</g>
<g id="a1_006"  >
<polygon points="132,85 137,80 145,80 145,90 137,90 132,85 " style="fill:white; stroke-width:1; stroke:black; " description="&lt;b&gt;CBZ42150.1&lt;/b&gt;&lt;br&gt;hypothetical protein&lt;br&gt;Location: 42694 - 41843" locus_tag="CBZ42150.1" class="clusterblast-orf" id="dummy-1_h1_9_6"  />
</g>
<g id="a1_007"  >
<polygon points="145,85 150,80 153,80 153,90 150,90 145,85 " style="fill:white; stroke-width:1; stroke:black; " description="&lt;b&gt;CBZ42149.1&lt;/b&gt;&lt;br&gt;hypothetical protein&lt;br&gt;Location: 41802 - 41281" locus_tag="CBZ42149.1" class="clusterblast-orf" id="dummy-1_h1_9_7"  />
</g>
<g id="a1_008"  >
<polygon points="156,85 161,80 174,80 174,90 161,90 156,85 " style="fill:white; stroke-width:1; stroke:black; " description="&lt;b&gt;CBZ42148.1&lt;/b&gt;&lt;br&gt;P450-like enzyme&lt;br&gt;Location: 41119 - 39920" locus_tag="CBZ42148.1" class="clusterblast-orf" id="dummy-1_h1_9_8"  />
</g>
<g id="a1_009"  >
<polygon points="178,85 183,80 197,80 197,90 183,90 178,85 " style="fill:#b1d815; stroke-width:1; stroke:black; " description="&lt;b&gt;CBZ42147.1&lt;/b&gt;&lt;br&gt;peptide monooxygenase&lt;br&gt;Location: 39685 - 38387&lt;br&gt;&lt;br&gt;&lt;b&gt;BlastP hit with cds52527_53883&lt;/b&gt;&lt;br&gt;Percentage identity: 51&lt;br&gt;Percentage coverage: 94&lt;br&gt;BLAST bit score: 410&lt;br&gt;E-value: 3.8e-114" locus_tag="CBZ42147.1" class="clusterblast-orf" id="dummy-1_h1_9_9"  />
</g>
<g id="a1_0010"  >
<polygon points="198,85 203,80 429,80 429,90 203,90 198,85 " style="fill:white; stroke-width:1; stroke:black; " description="&lt;b&gt;CBZ42146.1&lt;/b&gt;&lt;br&gt;putative non-ribosomal peptide synthetase&lt;br&gt;Location: 38321 - 23076" locus_tag="CBZ42146.1" class="clusterblast-orf" id="dummy-1_h1_9_10"  />
</g>
<g id="a1_0011"  >
<polygon points="430,85 435,80 487,80 487,90 435,90 430,85 " style="fill:white; stroke-width:1; stroke:black; " description="&lt;b&gt;CBZ42145.1&lt;/b&gt;&lt;br&gt;non-ribosomal peptide synthetase&lt;br&gt;Location: 23056 - 19271" locus_tag="CBZ42145.1" class="clusterblast-orf" id="dummy-1_h1_9_11"  />
</g>
<g id="a1_0012"  >
<polygon points="487,85 492,80 499,80 499,90 492,90 487,85 " style="fill:white; stroke-width:1; stroke:black; " description="&lt;b&gt;CBZ42144.1&lt;/b&gt;&lt;br&gt;putative thioesterase&lt;br&gt;Location: 19274 - 18495" locus_tag="CBZ42144.1" class="clusterblast-orf" id="dummy-1_h1_9_12"  />
</g>
<g id="a1_0013"  >
<polygon points="499,85 504,80 593,80 593,90 504,90 499,85 " style="fill:white; stroke-width:1; stroke:black; " description="&lt;b&gt;CBZ42143.1&lt;/b&gt;&lt;br&gt;putative non-ribosomal peptide synthetase&lt;br&gt;Location: 18479 - 12303" locus_tag="CBZ42143.1" class="clusterblast-orf" id="dummy-1_h1_9_13"  />
</g>
<g id="a1_0014"  >
<polygon points="599,90 605,90 610,85 605,80 599,80 599,90 " style="fill:white; stroke-width:1; stroke:black; " description="&lt;b&gt;CBZ42142.1&lt;/b&gt;&lt;br&gt;putative thioesterase&lt;br&gt;Location: 11868 - 11170" locus_tag="CBZ42142.1" class="clusterblast-orf" id="dummy-1_h1_9_14"  />
</g>
<g id="a1_0015"  >
<polygon points="610,90 618,90 623,85 618,80 610,80 610,90 " style="fill:white; stroke-width:1; stroke:black; " description="&lt;b&gt;CBZ42141.1&lt;/b&gt;&lt;br&gt;Acyl-Co Adehydrogenase&lt;br&gt;Location: 11155 - 10325" locus_tag="CBZ42141.1" class="clusterblast-orf" id="dummy-1_h1_9_15"  />
</g>
<g id="a1_0016"  >
<polygon points="624,90 664,90 669,85 664,80 624,80 624,90 " style="fill:white; stroke-width:1; stroke:black; " description="&lt;b&gt;CBZ42140.1&lt;/b&gt;&lt;br&gt;non-ribosomal peptide synthetase&lt;br&gt;Location: 10242 - 7255" locus_tag="CBZ42140.1" class="clusterblast-orf" id="dummy-1_h1_9_16"  />
</g>
<g id="a1_0017"  >
<polygon points="670,90 674,90 679,85 674,80 670,80 670,90 " style="fill:white; stroke-width:1; stroke:black; " description="&lt;b&gt;CBZ42139.1&lt;/b&gt;&lt;br&gt;hypothetical protein&lt;br&gt;Location: 7189 - 6632" locus_tag="CBZ42139.1" class="clusterblast-orf" id="dummy-1_h1_9_17"  />
</g>
<g id="a1_0018"  >
<polygon points="687,90 693,90 698,85 693,80 687,80 687,90 " style="fill:white; stroke-width:1; stroke:black; " description="&lt;b&gt;CBZ42138.1&lt;/b&gt;&lt;br&gt;regulator&lt;br&gt;Location: 6074 - 5391" locus_tag="CBZ42138.1" class="clusterblast-orf" id="dummy-1_h1_9_18"  />
</g>
<g id="a1_0019"  >
<polygon points="699,85 704,80 709,80 709,90 704,90 699,85 " style="fill:white; stroke-width:1; stroke:black; " description="&lt;b&gt;CBZ42137.1&lt;/b&gt;&lt;br&gt;putative negative regulator&lt;br&gt;Location: 5319 - 4675" locus_tag="CBZ42137.1" class="clusterblast-orf" id="dummy-1_h1_9_19"  />
</g>
<g id="a1_0020"  >
<polygon points="712,90 722,90 727,85 722,80 712,80 712,90 " style="fill:#15b1d8; stroke-width:1; stroke:black; " description="&lt;b&gt;CBZ42136.1&lt;/b&gt;&lt;br&gt;acetylglutamate kinase&lt;br&gt;Location: 4451 - 3468&lt;br&gt;&lt;br&gt;&lt;b&gt;BlastP hit with cds31033_31933&lt;/b&gt;&lt;br&gt;Percentage identity: 65&lt;br&gt;Percentage coverage: 89&lt;br&gt;BLAST bit score: 326&lt;br&gt;E-value: 6.3e-89" locus_tag="CBZ42136.1" class="clusterblast-orf" id="dummy-1_h1_9_20"  />
</g>
<g id="a1_0021"  >
<polygon points="733,85 738,80 744,80 744,90 738,90 733,85 " style="fill:white; stroke-width:1; stroke:black; " description="&lt;b&gt;CBZ42135.1&lt;/b&gt;&lt;br&gt;putative MerR family transcriptional regulator&lt;br&gt;Location: 3099 - 2356" locus_tag="CBZ42135.1" class="clusterblast-orf" id="dummy-1_h1_9_21"  />
</g>
<g id="a1_0022"  >
<polygon points="745,85 750,80 757,80 757,90 750,90 745,85 " style="fill:white; stroke-width:1; stroke:black; " description="&lt;b&gt;CBZ42134.1&lt;/b&gt;&lt;br&gt;&lt;br&gt;Location: 2300 - 1473" locus_tag="CBZ42134.1" class="clusterblast-orf" id="dummy-1_h1_9_22"  />
</g>
<g id="a1_0023"  >
<polygon points="758,90 762,90 767,85 762,80 758,80 758,90 " style="fill:white; stroke-width:1; stroke:black; " description="&lt;b&gt;CBZ42133.1&lt;/b&gt;&lt;br&gt;&lt;br&gt;Location: 1417 - 821" locus_tag="CBZ42133.1" class="clusterblast-orf" id="dummy-1_h1_9_23"  />
</g>
<g id="a1_0024"  >
<polygon points="767,85 772,80 780,80 780,90 772,90 767,85 " style="fill:white; stroke-width:1; stroke:black; " description="&lt;b&gt;CBZ42132.1&lt;/b&gt;&lt;br&gt;hypothetical protein&lt;br&gt;Location: 807 - 1" locus_tag="CBZ42132.1" class="clusterblast-orf" id="dummy-1_h1_9_24"  />
</g>
</svg>
