<svg xmlns="http://www.w3.org/2000/svg" xmlns:xlink="http://www.w3.org/1999/xlink" version="1.1" x="0" y="0" height="230" width="800" viewBox="0 0 800 230" preserveAspectRatio="none"  >
<g label="Query sequence" class="clusterblast-cluster"  >
<text x="5" y="20" class="clusterblast-acc"  >
Query sequence</text>
<line x1="10" y1="35" x2="778.0" y2="35" style="stroke-width:1; stroke:grey; "  />
<polygon points="295,40 308,40 313,35 308,30 295,30 295,40 " style="fill:white; stroke-width:1; stroke:black; " description="&lt;b&gt;cds172_3241&lt;/b&gt;&lt;br&gt;Regulatory protein AfsR&lt;br&gt;Location: 172 - 3241" locus_tag="cds172_3241" class="clusterblast-orf" id="dummy-1_q0_0_all"  />
<polygon points="313,35 314,30 314,40 313,35 " style="fill:white; stroke-width:1; stroke:black; " description="&lt;b&gt;cds3274_3463&lt;/b&gt;&lt;br&gt;hypothetical protein&lt;br&gt;Location: 3274 - 3463" locus_tag="cds3274_3463" class="clusterblast-orf" id="dummy-1_q1_0_all"  />
<polygon points="315,35 318,30 318,40 315,35 " style="fill:white; stroke-width:1; stroke:black; " description="&lt;b&gt;cds3561_4200&lt;/b&gt;&lt;br&gt;hypothetical protein&lt;br&gt;Location: 3561 - 4200" locus_tag="cds3561_4200" class="clusterblast-orf" id="dummy-1_q2_0_all"  />
<polygon points="318,35 323,30 326,30 326,40 323,40 318,35 " style="fill:white; stroke-width:1; stroke:black; " description="&lt;b&gt;cds4199_5465&lt;/b&gt;&lt;br&gt;N-acetylcysteine deacetylase&lt;br&gt;Location: 4199 - 5465" locus_tag="cds4199_5465" class="clusterblast-orf" id="dummy-1_q3_0_all"  />
<polygon points="326,35 331,30 333,30 333,40 331,40 326,35 " style="fill:white; stroke-width:1; stroke:black; " description="&lt;b&gt;cds5461_6736&lt;/b&gt;&lt;br&gt;2-aminoadipate transaminase&lt;br&gt;Location: 5461 - 6736" locus_tag="cds5461_6736" class="clusterblast-orf" id="dummy-1_q4_0_all"  />
<polygon points="334,35 339,30 341,30 341,40 339,40 334,35 " style="fill:white; stroke-width:1; stroke:black; " description="&lt;b&gt;cds6807_8067&lt;/b&gt;&lt;br&gt;hypothetical protein&lt;br&gt;Location: 6807 - 8067" locus_tag="cds6807_8067" class="clusterblast-orf" id="dummy-1_q5_0_all"  />
<polygon points="341,35 346,30 347,30 347,40 346,40 341,35 " style="fill:white; stroke-width:1; stroke:black; " description="&lt;b&gt;cds8063_9062&lt;/b&gt;&lt;br&gt;Putative NADP-dependent oxidoreductase YfmJ&lt;br&gt;Location: 8063 - 9062" locus_tag="cds8063_9062" class="clusterblast-orf" id="dummy-1_q6_0_all"  />
<polygon points="347,35 352,30 359,30 359,40 352,40 347,35 " style="fill:white; stroke-width:1; stroke:black; " description="&lt;b&gt;cds9121_11056&lt;/b&gt;&lt;br&gt;hypothetical protein&lt;br&gt;Location: 9121 - 11056" locus_tag="cds9121_11056" class="clusterblast-orf" id="dummy-1_q7_0_all"  />
<polygon points="359,35 364,30 366,30 366,40 364,40 359,35 " style="fill:white; stroke-width:1; stroke:black; " description="&lt;b&gt;cds11052_12261&lt;/b&gt;&lt;br&gt;hypothetical protein&lt;br&gt;Location: 11052 - 12261" locus_tag="cds11052_12261" class="clusterblast-orf" id="dummy-1_q8_0_all"  />
<polygon points="366,35 371,30 372,30 372,40 371,40 366,35 " style="fill:white; stroke-width:1; stroke:black; " description="&lt;b&gt;cds12257_13217&lt;/b&gt;&lt;br&gt;hypothetical protein&lt;br&gt;Location: 12257 - 13217" locus_tag="cds12257_13217" class="clusterblast-orf" id="dummy-1_q9_0_all"  />
<polygon points="371,35 376,30 377,30 377,40 376,40 371,35 " style="fill:white; stroke-width:1; stroke:black; " description="&lt;b&gt;cds13204_14098&lt;/b&gt;&lt;br&gt;Alpha-ketoglutarate-dependent taurine dioxygenase&lt;br&gt;Location: 13204 - 14098" locus_tag="cds13204_14098" class="clusterblast-orf" id="dummy-1_q10_0_all"  />
<polygon points="377,35 382,30 384,30 384,40 382,40 377,35 " style="fill:white; stroke-width:1; stroke:black; " description="&lt;b&gt;cds14171_15392&lt;/b&gt;&lt;br&gt;5-aminolevulinate synthase&lt;br&gt;Location: 14171 - 15392" locus_tag="cds14171_15392" class="clusterblast-orf" id="dummy-1_q11_0_all"  />
<polygon points="385,35 388,30 388,40 385,35 " style="fill:#d81515; stroke-width:1; stroke:black; " description="&lt;b&gt;cds15523_15925&lt;/b&gt;&lt;br&gt;hypothetical protein&lt;br&gt;Location: 15523 - 15925" locus_tag="cds15523_15925" class="clusterblast-orf" id="dummy-1_q12_0_all"  />
<polygon points="388,40 391,35 388,30 388,40 " style="fill:#15d863; stroke-width:1; stroke:black; " description="&lt;b&gt;cds16052_16460&lt;/b&gt;&lt;br&gt;hypothetical protein&lt;br&gt;Location: 16052 - 16460" locus_tag="cds16052_16460" class="clusterblast-orf" id="dummy-1_q13_0_all"  />
<polygon points="391,35 395,30 395,40 391,35 " style="fill:white; stroke-width:1; stroke:black; " description="&lt;b&gt;cds16449_17196&lt;/b&gt;&lt;br&gt;Trans-aconitate 2-methyltransferase&lt;br&gt;Location: 16449 - 17196" locus_tag="cds16449_17196" class="clusterblast-orf" id="dummy-1_q14_0_all"  />
<polygon points="397,35 402,30 405,30 405,40 402,40 397,35 " style="fill:white; stroke-width:1; stroke:black; " description="&lt;b&gt;cds17442_18804&lt;/b&gt;&lt;br&gt;hypothetical protein&lt;br&gt;Location: 17442 - 18804" locus_tag="cds17442_18804" class="clusterblast-orf" id="dummy-1_q15_0_all"  />
<polygon points="406,40 414,40 419,35 414,30 406,30 406,40 " style="fill:white; stroke-width:1; stroke:black; " description="&lt;b&gt;cds19013_21278&lt;/b&gt;&lt;br&gt;ATP-dependent RecD-like DNA helicase&lt;br&gt;Location: 19013 - 21278" locus_tag="cds19013_21278" class="clusterblast-orf" id="dummy-1_q16_0_all"  />
<polygon points="420,40 423,40 428,35 423,30 420,30 420,40 " style="fill:white; stroke-width:1; stroke:black; " description="&lt;b&gt;cds21475_22774&lt;/b&gt;&lt;br&gt;Citrate synthase 1&lt;br&gt;Location: 21475 - 22774" locus_tag="cds21475_22774" class="clusterblast-orf" id="dummy-1_q17_0_all"  />
<polygon points="429,40 445,40 450,35 445,30 429,30 429,40 " style="fill:white; stroke-width:1; stroke:black; " description="&lt;b&gt;cds22968_26583&lt;/b&gt;&lt;br&gt;hypothetical protein&lt;br&gt;Location: 22968 - 26583" locus_tag="cds22968_26583" class="clusterblast-orf" id="dummy-1_q18_0_all"  />
<polygon points="455,35 456,30 456,40 455,35 " style="fill:white; stroke-width:1; stroke:black; " description="&lt;b&gt;cds27288_27594&lt;/b&gt;&lt;br&gt;hypothetical protein&lt;br&gt;Location: 27288 - 27594" locus_tag="cds27288_27594" class="clusterblast-orf" id="dummy-1_q19_0_all"  />
<polygon points="458,40 459,40 464,35 459,30 458,30 458,40 " style="fill:#1563d8; stroke-width:1; stroke:black; " description="&lt;b&gt;cds27818_28868&lt;/b&gt;&lt;br&gt;Alcohol dehydrogenase&lt;br&gt;Location: 27818 - 28868" locus_tag="cds27818_28868" class="clusterblast-orf" id="dummy-1_q20_0_all"  />
<polygon points="464,35 465,30 465,40 464,35 " style="fill:white; stroke-width:1; stroke:black; " description="&lt;b&gt;cds28887_29079&lt;/b&gt;&lt;br&gt;hypothetical protein&lt;br&gt;Location: 28887 - 29079" locus_tag="cds28887_29079" class="clusterblast-orf" id="dummy-1_q21_0_all"  />
<polygon points="466,35 471,30 472,30 472,40 471,40 466,35 " style="fill:white; stroke-width:1; stroke:black; " description="&lt;b&gt;cds29248_30175&lt;/b&gt;&lt;br&gt;Inosose dehydratase&lt;br&gt;Location: 29248 - 30175" locus_tag="cds29248_30175" class="clusterblast-orf" id="dummy-1_q22_0_all"  />
<polygon points="473,40 474,40 479,35 474,30 473,30 473,40 " style="fill:#b115d8; stroke-width:1; stroke:black; " description="&lt;b&gt;cds30343_31471&lt;/b&gt;&lt;br&gt;5-dehydro-2-deoxygluconokinase&lt;br&gt;Location: 30343 - 31471" locus_tag="cds30343_31471" class="clusterblast-orf" id="dummy-1_q23_0_all"  />
<polygon points="479,40 480,40 485,35 480,30 479,30 479,40 " style="fill:#b1d815; stroke-width:1; stroke:black; " description="&lt;b&gt;cds31467_32358&lt;/b&gt;&lt;br&gt;hypothetical protein&lt;br&gt;Location: 31467 - 32358" locus_tag="cds31467_32358" class="clusterblast-orf" id="dummy-1_q24_0_all"  />
</g>
<g label="BGC0001700" description="BGC0001700_c1: niphimycins C-E (6% of genes show similarity), Polyketide" class="clusterblast-cluster"  >
<text x="5" y="70" class="clusterblast-acc"  >
<a xlink:href="https://mibig.secondarymetabolites.org/go/BGC0001700/1" target="_blank">BGC0001700</a>:                                                                  niphimycins C-E (6% of genes show similarity), Polyketide</text>
<line x1="10" y1="85" x2="778.0" y2="85" style="stroke-width:1; stroke:grey; "  />
</g>
<g id="a1_000"  >
<polygon points="0,90 0,90 5,85 0,80 0,80 0,90 " style="fill:white; stroke-width:1; stroke:black; " description="&lt;b&gt;AUO16420.1&lt;/b&gt;&lt;br&gt;AraC-family transcriptional regulator&lt;br&gt;Location: 132180 - 131314" locus_tag="AUO16420.1" class="clusterblast-orf" id="dummy-1_h1_2_0"  />
</g>
<g id="a1_001"  >
<polygon points="5,85 10,80 13,80 13,90 10,90 5,85 " style="fill:white; stroke-width:1; stroke:black; " description="&lt;b&gt;AUO16419.1&lt;/b&gt;&lt;br&gt;amino acid transporter&lt;br&gt;Location: 131271 - 129835" locus_tag="AUO16419.1" class="clusterblast-orf" id="dummy-1_h1_2_1"  />
</g>
<g id="a1_002"  >
<polygon points="13,85 18,80 18,80 18,90 18,90 13,85 " style="fill:white; stroke-width:1; stroke:black; " description="&lt;b&gt;AUO16418.1&lt;/b&gt;&lt;br&gt;4-guanidinobutyramide hydrolase&lt;br&gt;Location: 129841 - 129038" locus_tag="AUO16418.1" class="clusterblast-orf" id="dummy-1_h1_2_2"  />
</g>
<g id="a1_003"  >
<polygon points="19,90 23,85 19,80 19,90 " style="fill:white; stroke-width:1; stroke:black; " description="&lt;b&gt;AUO16417.1&lt;/b&gt;&lt;br&gt;GntR-family transcriptional regulator&lt;br&gt;Location: 128899 - 128114" locus_tag="AUO16417.1" class="clusterblast-orf" id="dummy-1_h1_2_3"  />
</g>
<g id="a1_004"  >
<polygon points="24,85 29,80 33,80 33,90 29,90 24,85 " style="fill:white; stroke-width:1; stroke:black; " description="&lt;b&gt;AUO16416.1&lt;/b&gt;&lt;br&gt;CoA-transferase family III&lt;br&gt;Location: 128056 - 126515" locus_tag="AUO16416.1" class="clusterblast-orf" id="dummy-1_h1_2_4"  />
</g>
<g id="a1_005"  >
<polygon points="34,90 38,85 34,80 34,90 " style="fill:white; stroke-width:1; stroke:black; " description="&lt;b&gt;AUO16415.1&lt;/b&gt;&lt;br&gt;AcrR family DNA-binding transcriptional regulator&lt;br&gt;Location: 126271 - 125642" locus_tag="AUO16415.1" class="clusterblast-orf" id="dummy-1_h1_2_5"  />
</g>
<g id="a1_006"  >
<polygon points="38,85 41,80 41,90 38,85 " style="fill:white; stroke-width:1; stroke:black; " description="&lt;b&gt;AUO16414.1&lt;/b&gt;&lt;br&gt;mini-circle protein&lt;br&gt;Location: 125635 - 125126" locus_tag="AUO16414.1" class="clusterblast-orf" id="dummy-1_h1_2_6"  />
</g>
<g id="a1_007"  >
<polygon points="41,85 43,80 43,90 41,85 " style="fill:white; stroke-width:1; stroke:black; " description="&lt;b&gt;AUO16413.1&lt;/b&gt;&lt;br&gt;methyltransferase&lt;br&gt;Location: 125091 - 124792" locus_tag="AUO16413.1" class="clusterblast-orf" id="dummy-1_h1_2_7"  />
</g>
<g id="a1_008"  >
<polygon points="44,90 47,85 44,80 44,90 " style="fill:white; stroke-width:1; stroke:black; " description="&lt;b&gt;AUO16412.1&lt;/b&gt;&lt;br&gt;XRE family transcriptional regulator&lt;br&gt;Location: 124694 - 124107" locus_tag="AUO16412.1" class="clusterblast-orf" id="dummy-1_h1_2_8"  />
</g>
<g id="a1_009"  >
<polygon points="49,90 51,90 56,85 51,80 49,80 49,90 " style="fill:white; stroke-width:1; stroke:black; " description="&lt;b&gt;AUO16411.1&lt;/b&gt;&lt;br&gt;membrane protein&lt;br&gt;Location: 123816 - 122536" locus_tag="AUO16411.1" class="clusterblast-orf" id="dummy-1_h1_2_9"  />
</g>
<g id="a1_0010"  >
<polygon points="57,90 61,90 66,85 61,80 57,80 57,90 " style="fill:white; stroke-width:1; stroke:black; " description="&lt;b&gt;AUO16410.1&lt;/b&gt;&lt;br&gt;hypothetical protein&lt;br&gt;Location: 122403 - 120973" locus_tag="AUO16410.1" class="clusterblast-orf" id="dummy-1_h1_2_10"  />
</g>
<g id="a1_0011"  >
<polygon points="67,90 69,85 67,80 67,90 " style="fill:#15d863; stroke-width:1; stroke:black; " description="&lt;b&gt;AUO16409.1&lt;/b&gt;&lt;br&gt;endoribonuclease L-PSP&lt;br&gt;Location: 120820 - 120380&lt;br&gt;&lt;br&gt;&lt;b&gt;BlastP hit with cds16052_16460&lt;/b&gt;&lt;br&gt;Percentage identity: 79&lt;br&gt;Percentage coverage: 100&lt;br&gt;BLAST bit score: 211&lt;br&gt;E-value: 7.8e-55" locus_tag="AUO16409.1" class="clusterblast-orf" id="dummy-1_h1_2_11"  />
</g>
<g id="a1_0012"  >
<polygon points="70,85 72,80 72,90 70,85 " style="fill:#d81515; stroke-width:1; stroke:black; " description="&lt;b&gt;AUO16408.1&lt;/b&gt;&lt;br&gt;HxlR family transcriptional regulator&lt;br&gt;Location: 120300 - 119920&lt;br&gt;&lt;br&gt;&lt;b&gt;BlastP hit with cds15523_15925&lt;/b&gt;&lt;br&gt;Percentage identity: 78&lt;br&gt;Percentage coverage: 94&lt;br&gt;BLAST bit score: 191&lt;br&gt;E-value: 8.2e-49" locus_tag="AUO16408.1" class="clusterblast-orf" id="dummy-1_h1_2_12"  />
</g>
<g id="a1_0013"  >
<polygon points="72,85 77,80 78,80 78,90 77,90 72,85 " style="fill:white; stroke-width:1; stroke:black; " description="&lt;b&gt;AUO16407.1&lt;/b&gt;&lt;br&gt;hydrolase&lt;br&gt;Location: 119837 - 118953" locus_tag="AUO16407.1" class="clusterblast-orf" id="dummy-1_h1_2_13"  />
</g>
<g id="a1_0014"  >
<polygon points="78,85 82,80 82,90 78,85 " style="fill:white; stroke-width:1; stroke:black; " description="&lt;b&gt;AUO16406.1&lt;/b&gt;&lt;br&gt;TetR family transcriptional regulator&lt;br&gt;Location: 118848 - 118240" locus_tag="AUO16406.1" class="clusterblast-orf" id="dummy-1_h1_2_14"  />
</g>
<g id="a1_0015"  >
<polygon points="83,85 88,80 89,80 89,90 88,90 83,85 " style="fill:white; stroke-width:1; stroke:black; " description="&lt;b&gt;AUO16405.1&lt;/b&gt;&lt;br&gt;4-guanidinobutyryl-CoA:ACP acyltransferase&lt;br&gt;Location: 118084 - 117050" locus_tag="AUO16405.1" class="clusterblast-orf" id="dummy-1_h1_2_15"  />
</g>
<g id="a1_0016"  >
<polygon points="89,85 94,80 97,80 97,90 94,90 89,85 " style="fill:white; stroke-width:1; stroke:black; " description="&lt;b&gt;AUO16404.1&lt;/b&gt;&lt;br&gt;4-guanidinobutanoate:CoA ligase&lt;br&gt;Location: 117053 - 115617" locus_tag="AUO16404.1" class="clusterblast-orf" id="dummy-1_h1_2_16"  />
</g>
<g id="a1_0017"  >
<polygon points="98,85 103,80 139,80 139,90 103,90 98,85 " style="fill:white; stroke-width:1; stroke:black; " description="&lt;b&gt;AUO16423.1&lt;/b&gt;&lt;br&gt;polyketide synthase&lt;br&gt;Location: 115494 - 108574" locus_tag="AUO16423.1" class="clusterblast-orf" id="dummy-1_h1_2_17"  />
</g>
<g id="a1_0018"  >
<polygon points="140,85 145,80 185,80 185,90 145,90 140,85 " style="fill:white; stroke-width:1; stroke:black; " description="&lt;b&gt;AUO16403.1&lt;/b&gt;&lt;br&gt;polyketide synthase&lt;br&gt;Location: 108452 - 100698" locus_tag="AUO16403.1" class="clusterblast-orf" id="dummy-1_h1_2_18"  />
</g>
<g id="a1_0019"  >
<polygon points="186,85 191,80 247,80 247,90 191,90 186,85 " style="fill:white; stroke-width:1; stroke:black; " description="&lt;b&gt;AUO16422.1&lt;/b&gt;&lt;br&gt;polyketide synthase&lt;br&gt;Location: 100647 - 90283" locus_tag="AUO16422.1" class="clusterblast-orf" id="dummy-1_h1_2_19"  />
</g>
<g id="a1_0020"  >
<polygon points="247,85 252,80 304,80 304,90 252,90 247,85 " style="fill:white; stroke-width:1; stroke:black; " description="&lt;b&gt;AUO16402.1&lt;/b&gt;&lt;br&gt;polyketide synthase&lt;br&gt;Location: 90225 - 80608" locus_tag="AUO16402.1" class="clusterblast-orf" id="dummy-1_h1_2_20"  />
</g>
<g id="a1_0021"  >
<polygon points="304,85 309,80 451,80 451,90 309,90 304,85 " style="fill:white; stroke-width:1; stroke:black; " description="&lt;b&gt;AUO16401.1&lt;/b&gt;&lt;br&gt;polyketide synthase&lt;br&gt;Location: 80562 - 55738" locus_tag="AUO16401.1" class="clusterblast-orf" id="dummy-1_h1_2_21"  />
</g>
<g id="a1_0022"  >
<polygon points="451,85 456,80 535,80 535,90 456,90 451,85 " style="fill:white; stroke-width:1; stroke:black; " description="&lt;b&gt;AUO16400.1&lt;/b&gt;&lt;br&gt;polyketide synthase&lt;br&gt;Location: 55661 - 41418" locus_tag="AUO16400.1" class="clusterblast-orf" id="dummy-1_h1_2_22"  />
</g>
<g id="a1_0023"  >
<polygon points="535,85 540,80 595,80 595,90 540,90 535,85 " style="fill:white; stroke-width:1; stroke:black; " description="&lt;b&gt;AUO16399.1&lt;/b&gt;&lt;br&gt;polyketide synthase&lt;br&gt;Location: 41392 - 31271" locus_tag="AUO16399.1" class="clusterblast-orf" id="dummy-1_h1_2_23"  />
</g>
<g id="a1_0024"  >
<polygon points="595,85 600,80 657,80 657,90 600,90 595,85 " style="fill:white; stroke-width:1; stroke:black; " description="&lt;b&gt;AUO16398.1&lt;/b&gt;&lt;br&gt;polyketide synthase&lt;br&gt;Location: 31188 - 20806" locus_tag="AUO16398.1" class="clusterblast-orf" id="dummy-1_h1_2_24"  />
</g>
<g id="a1_0025"  >
<polygon points="657,85 662,80 727,80 727,90 662,90 657,85 " style="fill:white; stroke-width:1; stroke:black; " description="&lt;b&gt;AUO16397.1&lt;/b&gt;&lt;br&gt;polyketide synthase&lt;br&gt;Location: 20711 - 8868" locus_tag="AUO16397.1" class="clusterblast-orf" id="dummy-1_h1_2_25"  />
</g>
<g id="a1_0026"  >
<polygon points="729,85 730,80 730,90 729,85 " style="fill:white; stroke-width:1; stroke:black; " description="&lt;b&gt;AUO16396.1&lt;/b&gt;&lt;br&gt;ferredoxin&lt;br&gt;Location: 8611 - 8405" locus_tag="AUO16396.1" class="clusterblast-orf" id="dummy-1_h1_2_26"  />
</g>
<g id="a1_0027"  >
<polygon points="730,85 735,80 737,80 737,90 735,90 730,85 " style="fill:white; stroke-width:1; stroke:black; " description="&lt;b&gt;AUO16421.1&lt;/b&gt;&lt;br&gt;cytochrome P450&lt;br&gt;Location: 8325 - 7123" locus_tag="AUO16421.1" class="clusterblast-orf" id="dummy-1_h1_2_27"  />
</g>
<g id="a1_0028"  >
<polygon points="740,90 742,90 747,85 742,80 740,80 740,90 " style="fill:white; stroke-width:1; stroke:black; " description="&lt;b&gt;AUO16395.1&lt;/b&gt;&lt;br&gt;cytochrome P450&lt;br&gt;Location: 6758 - 5544" locus_tag="AUO16395.1" class="clusterblast-orf" id="dummy-1_h1_2_28"  />
</g>
<g id="a1_0029"  >
<polygon points="748,90 751,85 748,80 748,90 " style="fill:white; stroke-width:1; stroke:black; " description="&lt;b&gt;AUO16394.1&lt;/b&gt;&lt;br&gt;TetR family transcriptional regulator&lt;br&gt;Location: 5399 - 4791" locus_tag="AUO16394.1" class="clusterblast-orf" id="dummy-1_h1_2_29"  />
</g>
<g id="a1_0030"  >
<polygon points="752,90 775,90 780,85 775,80 752,80 752,90 " style="fill:white; stroke-width:1; stroke:black; " description="&lt;b&gt;AUO16393.1&lt;/b&gt;&lt;br&gt;hypothetical protein&lt;br&gt;Location: 4644 - 1" locus_tag="AUO16393.1" class="clusterblast-orf" id="dummy-1_h1_2_30"  />
</g>
</svg>
