<svg xmlns="http://www.w3.org/2000/svg" xmlns:xlink="http://www.w3.org/1999/xlink" version="1.1" x="0" y="0" height="230" width="800" viewBox="0 0 800 230" preserveAspectRatio="none"  >
<g label="Query sequence" class="clusterblast-cluster"  >
<text x="5" y="20" class="clusterblast-acc"  >
Query sequence</text>
<line x1="10" y1="35" x2="778.0" y2="35" style="stroke-width:1; stroke:grey; "  />
<polygon points="0,35 5,30 19,30 19,40 5,40 0,35 " style="fill:white; stroke-width:1; stroke:black; " description="&lt;b&gt;cds63_924&lt;/b&gt;&lt;br&gt;hypothetical protein&lt;br&gt;Location: 63 - 924" locus_tag="cds63_924" class="clusterblast-orf" id="dummy-1_q0_0_all"  />
<polygon points="22,35 27,30 31,30 31,40 27,40 22,35 " style="fill:white; stroke-width:1; stroke:black; " description="&lt;b&gt;cds1063_1474&lt;/b&gt;&lt;br&gt;hypothetical protein&lt;br&gt;Location: 1063 - 1474" locus_tag="cds1063_1474" class="clusterblast-orf" id="dummy-1_q1_0_all"  />
<polygon points="37,40 38,40 43,35 38,30 37,30 37,40 " style="fill:white; stroke-width:1; stroke:black; " description="&lt;b&gt;cds1786_2032&lt;/b&gt;&lt;br&gt;hypothetical protein&lt;br&gt;Location: 1786 - 2032" locus_tag="cds1786_2032" class="clusterblast-orf" id="dummy-1_q2_0_all"  />
<polygon points="45,35 49,30 49,40 45,35 " style="fill:white; stroke-width:1; stroke:black; " description="&lt;b&gt;cds2110_2305&lt;/b&gt;&lt;br&gt;hypothetical protein&lt;br&gt;Location: 2110 - 2305" locus_tag="cds2110_2305" class="clusterblast-orf" id="dummy-1_q3_0_all"  />
<polygon points="49,35 54,30 65,30 65,40 54,40 49,35 " style="fill:white; stroke-width:1; stroke:black; " description="&lt;b&gt;cds2301_3054&lt;/b&gt;&lt;br&gt;hypothetical protein&lt;br&gt;Location: 2301 - 3054" locus_tag="cds2301_3054" class="clusterblast-orf" id="dummy-1_q4_0_all"  />
<polygon points="70,40 74,40 79,35 74,30 70,30 70,40 " style="fill:white; stroke-width:1; stroke:black; " description="&lt;b&gt;cds3251_3692&lt;/b&gt;&lt;br&gt;hypothetical protein&lt;br&gt;Location: 3251 - 3692" locus_tag="cds3251_3692" class="clusterblast-orf" id="dummy-1_q5_0_all"  />
<polygon points="84,40 94,40 99,35 94,30 84,30 84,40 " style="fill:white; stroke-width:1; stroke:black; " description="&lt;b&gt;cds3911_4616&lt;/b&gt;&lt;br&gt;hypothetical protein&lt;br&gt;Location: 3911 - 4616" locus_tag="cds3911_4616" class="clusterblast-orf" id="dummy-1_q6_0_all"  />
<polygon points="106,40 109,40 114,35 109,30 106,30 106,40 " style="fill:#d81515; stroke-width:1; stroke:black; " description="&lt;b&gt;cds4897_5269&lt;/b&gt;&lt;br&gt;30S ribosomal protein S12&lt;br&gt;Location: 4897 - 5269" locus_tag="cds4897_5269" class="clusterblast-orf" id="dummy-1_q7_0_all"  />
<polygon points="114,40 119,40 124,35 119,30 114,30 114,40 " style="fill:#5cd815; stroke-width:1; stroke:black; " description="&lt;b&gt;cds5271_5742&lt;/b&gt;&lt;br&gt;30S ribosomal protein S7&lt;br&gt;Location: 5271 - 5742" locus_tag="cds5271_5742" class="clusterblast-orf" id="dummy-1_q8_0_all"  />
<polygon points="125,40 167,40 172,35 167,30 125,30 125,40 " style="fill:#15a3d8; stroke-width:1; stroke:black; " description="&lt;b&gt;cds5780_7910&lt;/b&gt;&lt;br&gt;Elongation factor G&lt;br&gt;Location: 5780 - 7910" locus_tag="cds5780_7910" class="clusterblast-orf" id="dummy-1_q9_0_all"  />
<polygon points="175,40 196,40 201,35 196,30 175,30 175,40 " style="fill:#9115d8; stroke-width:1; stroke:black; " description="&lt;b&gt;cds8057_9251&lt;/b&gt;&lt;br&gt;Elongation factor Tu&lt;br&gt;Location: 8057 - 9251" locus_tag="cds8057_9251" class="clusterblast-orf" id="dummy-1_q10_0_all"  />
<polygon points="206,35 211,30 214,30 214,40 211,40 206,35 " style="fill:#d84a15; stroke-width:1; stroke:black; " description="&lt;b&gt;cds9466_9859&lt;/b&gt;&lt;br&gt;hypothetical protein&lt;br&gt;Location: 9466 - 9859" locus_tag="cds9466_9859" class="clusterblast-orf" id="dummy-1_q11_0_all"  />
<polygon points="214,35 219,30 229,30 229,40 219,40 214,35 " style="fill:#27d815; stroke-width:1; stroke:black; " description="&lt;b&gt;cds9855_10533&lt;/b&gt;&lt;br&gt;hypothetical protein&lt;br&gt;Location: 9855 - 10533" locus_tag="cds9855_10533" class="clusterblast-orf" id="dummy-1_q12_0_all"  />
<polygon points="229,35 234,30 272,30 272,40 234,40 229,35 " style="fill:#156ed8; stroke-width:1; stroke:black; " description="&lt;b&gt;cds10547_12503&lt;/b&gt;&lt;br&gt;hypothetical protein&lt;br&gt;Location: 10547 - 12503" locus_tag="cds10547_12503" class="clusterblast-orf" id="dummy-1_q13_0_all"  />
<polygon points="273,35 278,30 297,30 297,40 278,40 273,35 " style="fill:#c715d8; stroke-width:1; stroke:black; " description="&lt;b&gt;cds12521_13655&lt;/b&gt;&lt;br&gt;hypothetical protein&lt;br&gt;Location: 12521 - 13655" locus_tag="cds12521_13655" class="clusterblast-orf" id="dummy-1_q14_0_all"  />
<polygon points="300,35 303,30 303,40 300,35 " style="fill:#d88015; stroke-width:1; stroke:black; " description="&lt;b&gt;cds13773_13926&lt;/b&gt;&lt;br&gt;hypothetical protein&lt;br&gt;Location: 13773 - 13926" locus_tag="cds13773_13926" class="clusterblast-orf" id="dummy-1_q15_0_all"  />
<polygon points="306,35 310,30 310,40 306,35 " style="fill:#15d839; stroke-width:1; stroke:black; " description="&lt;b&gt;cds14028_14223&lt;/b&gt;&lt;br&gt;hypothetical protein&lt;br&gt;Location: 14028 - 14223" locus_tag="cds14028_14223" class="clusterblast-orf" id="dummy-1_q16_0_all"  />
<polygon points="311,35 316,30 332,30 332,40 316,40 311,35 " style="fill:#1539d8; stroke-width:1; stroke:black; " description="&lt;b&gt;cds14277_15255&lt;/b&gt;&lt;br&gt;hypothetical protein&lt;br&gt;Location: 14277 - 15255" locus_tag="cds14277_15255" class="clusterblast-orf" id="dummy-1_q17_0_all"  />
<polygon points="332,35 337,30 390,30 390,40 337,40 332,35 " style="fill:#d815b5; stroke-width:1; stroke:black; " description="&lt;b&gt;cds15235_17896&lt;/b&gt;&lt;br&gt;hypothetical protein&lt;br&gt;Location: 15235 - 17896" locus_tag="cds15235_17896" class="clusterblast-orf" id="dummy-1_q18_0_all"  />
<polygon points="391,35 396,30 433,30 433,40 396,40 391,35 " style="fill:#d8b515; stroke-width:1; stroke:black; " description="&lt;b&gt;cds17924_19844&lt;/b&gt;&lt;br&gt;hypothetical protein&lt;br&gt;Location: 17924 - 19844" locus_tag="cds17924_19844" class="clusterblast-orf" id="dummy-1_q19_0_all"  />
<polygon points="433,35 438,30 471,30 471,40 438,40 433,35 " style="fill:#15d86e; stroke-width:1; stroke:black; " description="&lt;b&gt;cds19840_21598&lt;/b&gt;&lt;br&gt;hypothetical protein&lt;br&gt;Location: 19840 - 21598" locus_tag="cds19840_21598" class="clusterblast-orf" id="dummy-1_q20_0_all"  />
<polygon points="472,35 477,30 487,30 487,40 477,40 472,35 " style="fill:#2715d8; stroke-width:1; stroke:black; " description="&lt;b&gt;cds21626_22331&lt;/b&gt;&lt;br&gt;hypothetical protein&lt;br&gt;Location: 21626 - 22331" locus_tag="cds21626_22331" class="clusterblast-orf" id="dummy-1_q21_0_all"  />
<polygon points="488,35 493,30 523,30 523,40 493,40 488,35 " style="fill:#d81580; stroke-width:1; stroke:black; " description="&lt;b&gt;cds22334_23948&lt;/b&gt;&lt;br&gt;hypothetical protein&lt;br&gt;Location: 22334 - 23948" locus_tag="cds22334_23948" class="clusterblast-orf" id="dummy-1_q22_0_all"  />
<polygon points="524,35 529,30 537,30 537,40 529,40 524,35 " style="fill:#c7d815; stroke-width:1; stroke:black; " description="&lt;b&gt;cds23989_24595&lt;/b&gt;&lt;br&gt;hypothetical protein&lt;br&gt;Location: 23989 - 24595" locus_tag="cds23989_24595" class="clusterblast-orf" id="dummy-1_q23_0_all"  />
<polygon points="538,35 543,30 567,30 567,40 543,40 538,35 " style="fill:#15d8a3; stroke-width:1; stroke:black; " description="&lt;b&gt;cds24615_25944&lt;/b&gt;&lt;br&gt;hypothetical protein&lt;br&gt;Location: 24615 - 25944" locus_tag="cds24615_25944" class="clusterblast-orf" id="dummy-1_q24_0_all"  />
<polygon points="577,40 586,40 591,35 586,30 577,30 577,40 " style="fill:#5c15d8; stroke-width:1; stroke:black; " description="&lt;b&gt;cds26401_27034&lt;/b&gt;&lt;br&gt;2-methoxy-6-polyprenyl-1,4-benzoquinol methylase, mitochondrial&lt;br&gt;Location: 26401 - 27034" locus_tag="cds26401_27034" class="clusterblast-orf" id="dummy-1_q25_0_all"  />
<polygon points="595,40 616,40 621,35 616,30 595,30 595,40 " style="fill:#d8154a; stroke-width:1; stroke:black; " description="&lt;b&gt;cds27231_28431&lt;/b&gt;&lt;br&gt;Erythromycin C-12 hydroxylase&lt;br&gt;Location: 27231 - 28431" locus_tag="cds27231_28431" class="clusterblast-orf" id="dummy-1_q26_0_all"  />
<polygon points="623,40 635,40 640,35 635,30 623,30 623,40 " style="fill:#91d815; stroke-width:1; stroke:black; " description="&lt;b&gt;cds28501_29305&lt;/b&gt;&lt;br&gt;23S rRNA (adenosine(1067)-2'-O)-methyltransferase&lt;br&gt;Location: 28501 - 29305" locus_tag="cds28501_29305" class="clusterblast-orf" id="dummy-1_q27_0_all"  />
<polygon points="642,35 647,30 689,30 689,40 647,40 642,35 " style="fill:#15d8d8; stroke-width:1; stroke:black; " description="&lt;b&gt;cds29404_31543&lt;/b&gt;&lt;br&gt;hypothetical protein&lt;br&gt;Location: 29404 - 31543" locus_tag="cds29404_31543" class="clusterblast-orf" id="dummy-1_q28_0_all"  />
<polygon points="693,35 698,30 714,30 714,40 698,40 693,35 " style="fill:white; stroke-width:1; stroke:black; " description="&lt;b&gt;cds31727_32669&lt;/b&gt;&lt;br&gt;hypothetical protein&lt;br&gt;Location: 31727 - 32669" locus_tag="cds31727_32669" class="clusterblast-orf" id="dummy-1_q29_0_all"  />
<polygon points="723,40 745,40 750,35 745,30 723,30 723,40 " style="fill:white; stroke-width:1; stroke:black; " description="&lt;b&gt;cds33101_34295&lt;/b&gt;&lt;br&gt;hypothetical protein&lt;br&gt;Location: 33101 - 34295" locus_tag="cds33101_34295" class="clusterblast-orf" id="dummy-1_q30_0_all"  />
<polygon points="750,35 755,30 760,30 760,40 755,40 750,35 " style="fill:white; stroke-width:1; stroke:black; " description="&lt;b&gt;cds34307_34760&lt;/b&gt;&lt;br&gt;IS1595 family transposase ISPaen4&lt;br&gt;Location: 34307 - 34760" locus_tag="cds34307_34760" class="clusterblast-orf" id="dummy-1_q31_0_all"  />
<polygon points="760,35 765,30 780,30 780,40 765,40 760,35 " style="fill:white; stroke-width:1; stroke:black; " description="&lt;b&gt;cds34793_35672&lt;/b&gt;&lt;br&gt;hypothetical protein&lt;br&gt;Location: 34793 - 35672" locus_tag="cds34793_35672" class="clusterblast-orf" id="dummy-1_q32_0_all"  />
</g>
<g label="BGC0000615" description="BGC0000615_c1: TP-1161 (41% of genes show similarity), RiPP:Thiopeptide" class="clusterblast-cluster"  >
<text x="5" y="70" class="clusterblast-acc"  >
<a xlink:href="https://mibig.secondarymetabolites.org/go/BGC0000615/1" target="_blank">BGC0000615</a>:                                                                          TP-1161 (41% of genes show similarity), RiPP:Thiopeptide</text>
<line x1="10" y1="85" x2="778.0" y2="85" style="stroke-width:1; stroke:grey; "  />
</g>
<g id="a1_000"  >
<polygon points="5,85 10,80 31,80 31,90 10,90 5,85 " style="fill:#9115d8; stroke-width:1; stroke:black; " description="&lt;b&gt;ADO67786.1&lt;/b&gt;&lt;br&gt;tpa11&lt;br&gt;Location: 35080 - 33887&lt;br&gt;&lt;br&gt;&lt;b&gt;BlastP hit with cds8057_9251&lt;/b&gt;&lt;br&gt;Percentage identity: 87&lt;br&gt;Percentage coverage: 100&lt;br&gt;BLAST bit score: 711&lt;br&gt;E-value: 9.2e-205" locus_tag="ADO67786.1" class="clusterblast-orf" id="dummy-1_h1_3_0"  />
</g>
<g id="a1_001"  >
<polygon points="33,85 38,80 80,80 80,90 38,90 33,85 " style="fill:#15a3d8; stroke-width:1; stroke:black; " description="&lt;b&gt;ADO67785.1&lt;/b&gt;&lt;br&gt;tpa10&lt;br&gt;Location: 33803 - 31692&lt;br&gt;&lt;br&gt;&lt;b&gt;BlastP hit with cds5780_7910&lt;/b&gt;&lt;br&gt;Percentage identity: 73&lt;br&gt;Percentage coverage: 101&lt;br&gt;BLAST bit score: 1040&lt;br&gt;E-value: 1.6e-303" locus_tag="ADO67785.1" class="clusterblast-orf" id="dummy-1_h1_3_1"  />
</g>
<g id="a1_002"  >
<polygon points="81,85 86,80 91,80 91,90 86,90 81,85 " style="fill:#5cd815; stroke-width:1; stroke:black; " description="&lt;b&gt;ADO67784.1&lt;/b&gt;&lt;br&gt;tpa9&lt;br&gt;Location: 31643 - 31173&lt;br&gt;&lt;br&gt;&lt;b&gt;BlastP hit with cds5271_5742&lt;/b&gt;&lt;br&gt;Percentage identity: 81&lt;br&gt;Percentage coverage: 100&lt;br&gt;BLAST bit score: 262&lt;br&gt;E-value: 3.4e-70" locus_tag="ADO67784.1" class="clusterblast-orf" id="dummy-1_h1_3_2"  />
</g>
<g id="a1_003"  >
<polygon points="91,85 96,80 99,80 99,90 96,90 91,85 " style="fill:#d81515; stroke-width:1; stroke:black; " description="&lt;b&gt;ADO67783.1&lt;/b&gt;&lt;br&gt;tpa8&lt;br&gt;Location: 31170 - 30799&lt;br&gt;&lt;br&gt;&lt;b&gt;BlastP hit with cds4897_5269&lt;/b&gt;&lt;br&gt;Percentage identity: 91&lt;br&gt;Percentage coverage: 100&lt;br&gt;BLAST bit score: 223&lt;br&gt;E-value: 1.4e-58" locus_tag="ADO67783.1" class="clusterblast-orf" id="dummy-1_h1_3_3"  />
</g>
<g id="a1_004"  >
<polygon points="108,85 113,80 128,80 128,90 113,90 108,85 " style="fill:white; stroke-width:1; stroke:black; " description="&lt;b&gt;ADO67782.1&lt;/b&gt;&lt;br&gt;tpaL&lt;br&gt;Location: 30369 - 29497" locus_tag="ADO67782.1" class="clusterblast-orf" id="dummy-1_h1_3_4"  />
</g>
<g id="a1_005"  >
<polygon points="128,85 133,80 189,80 189,90 133,90 128,85 " style="fill:white; stroke-width:1; stroke:black; " description="&lt;b&gt;ADO67781.1&lt;/b&gt;&lt;br&gt;tpaK&lt;br&gt;Location: 29462 - 26673" locus_tag="ADO67781.1" class="clusterblast-orf" id="dummy-1_h1_3_5"  />
</g>
<g id="a1_006"  >
<polygon points="191,85 194,80 194,90 191,85 " style="fill:#d88015; stroke-width:1; stroke:black; " description="&lt;b&gt;ADO67780.1&lt;/b&gt;&lt;br&gt;tpaX&lt;br&gt;Location: 26609 - 26463&lt;br&gt;&lt;br&gt;&lt;b&gt;BlastP hit with cds13773_13926&lt;/b&gt;&lt;br&gt;Percentage identity: 66&lt;br&gt;Percentage coverage: 94&lt;br&gt;BLAST bit score: 59&lt;br&gt;E-value: 1.4e-09" locus_tag="ADO67780.1" class="clusterblast-orf" id="dummy-1_h1_3_6"  />
</g>
<g id="a1_007"  >
<polygon points="202,90 224,90 229,85 224,80 202,80 202,90 " style="fill:white; stroke-width:1; stroke:black; " description="&lt;b&gt;ADO67779.1&lt;/b&gt;&lt;br&gt;tpaJ&lt;br&gt;Location: 26093 - 24879" locus_tag="ADO67779.1" class="clusterblast-orf" id="dummy-1_h1_3_7"  />
</g>
<g id="a1_008"  >
<polygon points="230,90 243,90 248,85 243,80 230,80 230,90 " style="fill:#91d815; stroke-width:1; stroke:black; " description="&lt;b&gt;ADO67778.1&lt;/b&gt;&lt;br&gt;tpaI&lt;br&gt;Location: 24817 - 24008&lt;br&gt;&lt;br&gt;&lt;b&gt;BlastP hit with cds28501_29305&lt;/b&gt;&lt;br&gt;Percentage identity: 56&lt;br&gt;Percentage coverage: 98&lt;br&gt;BLAST bit score: 290&lt;br&gt;E-value: 3.4e-78" locus_tag="ADO67778.1" class="clusterblast-orf" id="dummy-1_h1_3_8"  />
</g>
<g id="a1_009"  >
<polygon points="250,85 255,80 291,80 291,90 255,90 250,85 " style="fill:#d8b515; stroke-width:1; stroke:black; " description="&lt;b&gt;ADO67777.1&lt;/b&gt;&lt;br&gt;tpaH&lt;br&gt;Location: 23893 - 22028&lt;br&gt;&lt;br&gt;&lt;b&gt;BlastP hit with cds17924_19844&lt;/b&gt;&lt;br&gt;Percentage identity: 50&lt;br&gt;Percentage coverage: 97&lt;br&gt;BLAST bit score: 573&lt;br&gt;E-value: 4.8e-163" locus_tag="ADO67777.1" class="clusterblast-orf" id="dummy-1_h1_3_9"  />
</g>
<g id="a1_0010"  >
<polygon points="291,85 296,80 331,80 331,90 296,90 291,85 " style="fill:white; stroke-width:1; stroke:black; " description="&lt;b&gt;ADO67776.1&lt;/b&gt;&lt;br&gt;hypothetical protein&lt;br&gt;Location: 22031 - 20217" locus_tag="ADO67776.1" class="clusterblast-orf" id="dummy-1_h1_3_10"  />
</g>
<g id="a1_0011"  >
<polygon points="333,85 338,80 348,80 348,90 338,90 333,85 " style="fill:#2715d8; stroke-width:1; stroke:black; " description="&lt;b&gt;ADO67775.1&lt;/b&gt;&lt;br&gt;tpaF&lt;br&gt;Location: 20125 - 19424&lt;br&gt;&lt;br&gt;&lt;b&gt;BlastP hit with cds21626_22331&lt;/b&gt;&lt;br&gt;Percentage identity: 55&lt;br&gt;Percentage coverage: 99&lt;br&gt;BLAST bit score: 257&lt;br&gt;E-value: 2.2e-68" locus_tag="ADO67775.1" class="clusterblast-orf" id="dummy-1_h1_3_11"  />
</g>
<g id="a1_0012"  >
<polygon points="348,85 353,80 384,80 384,90 353,90 348,85 " style="fill:#d81580; stroke-width:1; stroke:black; " description="&lt;b&gt;ADO67774.1&lt;/b&gt;&lt;br&gt;tpaE&lt;br&gt;Location: 19434 - 17794&lt;br&gt;&lt;br&gt;&lt;b&gt;BlastP hit with cds22334_23948&lt;/b&gt;&lt;br&gt;Percentage identity: 49&lt;br&gt;Percentage coverage: 101&lt;br&gt;BLAST bit score: 477&lt;br&gt;E-value: 3e-134" locus_tag="ADO67774.1" class="clusterblast-orf" id="dummy-1_h1_3_12"  />
</g>
<g id="a1_0013"  >
<polygon points="384,85 389,80 397,80 397,90 389,90 384,85 " style="fill:white; stroke-width:1; stroke:black; " description="&lt;b&gt;ADO67773.1&lt;/b&gt;&lt;br&gt;tpaD&lt;br&gt;Location: 17782 - 17180" locus_tag="ADO67773.1" class="clusterblast-orf" id="dummy-1_h1_3_13"  />
</g>
<g id="a1_0014"  >
<polygon points="398,85 403,80 427,80 427,90 403,90 398,85 " style="fill:#15d8a3; stroke-width:1; stroke:black; " description="&lt;b&gt;ADO67772.1&lt;/b&gt;&lt;br&gt;tpaC&lt;br&gt;Location: 17152 - 15806&lt;br&gt;&lt;br&gt;&lt;b&gt;BlastP hit with cds24615_25944&lt;/b&gt;&lt;br&gt;Percentage identity: 63&lt;br&gt;Percentage coverage: 99&lt;br&gt;BLAST bit score: 539&lt;br&gt;E-value: 5.4e-153" locus_tag="ADO67772.1" class="clusterblast-orf" id="dummy-1_h1_3_14"  />
</g>
<g id="a1_0015"  >
<polygon points="429,85 434,80 452,80 452,90 434,90 429,85 " style="fill:white; stroke-width:1; stroke:black; " description="&lt;b&gt;ADO67771.1&lt;/b&gt;&lt;br&gt;hypothetical protein&lt;br&gt;Location: 15756 - 14689" locus_tag="ADO67771.1" class="clusterblast-orf" id="dummy-1_h1_3_15"  />
</g>
<g id="a1_0016"  >
<polygon points="455,85 458,80 458,90 455,85 " style="fill:white; stroke-width:1; stroke:black; " description="&lt;b&gt;ADO67770.1&lt;/b&gt;&lt;br&gt;tpaA&lt;br&gt;Location: 14551 - 14405" locus_tag="ADO67770.1" class="clusterblast-orf" id="dummy-1_h1_3_16"  />
</g>
<g id="a1_0017"  >
<polygon points="466,85 471,80 536,80 536,90 471,90 466,85 " style="fill:white; stroke-width:1; stroke:black; " description="&lt;b&gt;ADO67769.1&lt;/b&gt;&lt;br&gt;hypothetical protein&lt;br&gt;Location: 14034 - 10852" locus_tag="ADO67769.1" class="clusterblast-orf" id="dummy-1_h1_3_17"  />
</g>
<g id="a1_0018"  >
<polygon points="539,85 544,80 624,80 624,90 544,90 539,85 " style="fill:white; stroke-width:1; stroke:black; " description="&lt;b&gt;ADO67768.1&lt;/b&gt;&lt;br&gt;tpa6&lt;br&gt;Location: 10735 - 6857" locus_tag="ADO67768.1" class="clusterblast-orf" id="dummy-1_h1_3_18"  />
</g>
<g id="a1_0019"  >
<polygon points="624,85 629,80 700,80 700,90 629,90 624,85 " style="fill:white; stroke-width:1; stroke:black; " description="&lt;b&gt;ADO67767.1&lt;/b&gt;&lt;br&gt;tpa5&lt;br&gt;Location: 6822 - 3355" locus_tag="ADO67767.1" class="clusterblast-orf" id="dummy-1_h1_3_19"  />
</g>
<g id="a1_0020"  >
<polygon points="716,85 721,80 725,80 725,90 721,90 716,85 " style="fill:white; stroke-width:1; stroke:black; " description="&lt;b&gt;ADO67766.1&lt;/b&gt;&lt;br&gt;tpa4&lt;br&gt;Location: 2616 - 2227" locus_tag="ADO67766.1" class="clusterblast-orf" id="dummy-1_h1_3_20"  />
</g>
<g id="a1_0021"  >
<polygon points="727,85 732,80 739,80 739,90 732,90 727,85 " style="fill:white; stroke-width:1; stroke:black; " description="&lt;b&gt;ADO67765.1&lt;/b&gt;&lt;br&gt;tpa3&lt;br&gt;Location: 2130 - 1603" locus_tag="ADO67765.1" class="clusterblast-orf" id="dummy-1_h1_3_21"  />
</g>
<g id="a1_0022"  >
<polygon points="748,85 753,80 762,80 762,90 753,90 748,85 " style="fill:white; stroke-width:1; stroke:black; " description="&lt;b&gt;ADO67764.1&lt;/b&gt;&lt;br&gt;tpa2&lt;br&gt;Location: 1195 - 518" locus_tag="ADO67764.1" class="clusterblast-orf" id="dummy-1_h1_3_22"  />
</g>
<g id="a1_0023"  >
<polygon points="764,85 769,80 774,80 774,90 769,90 764,85 " style="fill:white; stroke-width:1; stroke:black; " description="&lt;b&gt;ADO67763.1&lt;/b&gt;&lt;br&gt;tpa1&lt;br&gt;Location: 429 - 1" locus_tag="ADO67763.1" class="clusterblast-orf" id="dummy-1_h1_3_23"  />
</g>
</svg>
