<svg xmlns="http://www.w3.org/2000/svg" xmlns:xlink="http://www.w3.org/1999/xlink" version="1.1" x="0" y="0" height="230" width="800" viewBox="0 0 800 230" preserveAspectRatio="none"  >
<g label="Query sequence" class="clusterblast-cluster"  >
<text x="5" y="20" class="clusterblast-acc"  >
Query sequence</text>
<line x1="10" y1="35" x2="778.0" y2="35" style="stroke-width:1; stroke:grey; "  />
<polygon points="45,40 72,40 77,35 72,30 45,30 45,40 " style="fill:white; stroke-width:1; stroke:black; " description="&lt;b&gt;cds150253_151885&lt;/b&gt;&lt;br&gt;Apolipoprotein N-acyltransferase&lt;br&gt;Location: 150253 - 151885" locus_tag="cds150253_151885" class="clusterblast-orf" id="dummy-2_q0_0_all"  />
<polygon points="78,40 82,40 87,35 82,30 78,30 78,40 " style="fill:white; stroke-width:1; stroke:black; " description="&lt;b&gt;cds151895_152375&lt;/b&gt;&lt;br&gt;hypothetical protein&lt;br&gt;Location: 151895 - 152375" locus_tag="cds151895_152375" class="clusterblast-orf" id="dummy-2_q1_0_all"  />
<polygon points="88,35 93,30 116,30 116,40 93,40 88,35 " style="fill:white; stroke-width:1; stroke:black; " description="&lt;b&gt;cds152427_153816&lt;/b&gt;&lt;br&gt;Fosfomycin resistance protein AbaF&lt;br&gt;Location: 152427 - 153816" locus_tag="cds152427_153816" class="clusterblast-orf" id="dummy-2_q2_0_all"  />
<polygon points="120,35 125,30 146,30 146,40 125,40 120,35 " style="fill:#d81515; stroke-width:1; stroke:black; " description="&lt;b&gt;cds154037_155303&lt;/b&gt;&lt;br&gt;hypothetical protein&lt;br&gt;Location: 154037 - 155303" locus_tag="cds154037_155303" class="clusterblast-orf" id="dummy-2_q3_0_all"  />
<polygon points="148,40 162,40 167,35 162,30 148,30 148,40 " style="fill:#63d815; stroke-width:1; stroke:black; " description="&lt;b&gt;cds155435_156371&lt;/b&gt;&lt;br&gt;HTH-type transcriptional regulator HdfR&lt;br&gt;Location: 155435 - 156371" locus_tag="cds155435_156371" class="clusterblast-orf" id="dummy-2_q4_0_all"  />
<polygon points="169,40 180,40 185,35 180,30 169,30 169,40 " style="fill:white; stroke-width:1; stroke:black; " description="&lt;b&gt;cds156490_157264&lt;/b&gt;&lt;br&gt;Methionine aminopeptidase 1&lt;br&gt;Location: 156490 - 157264" locus_tag="cds156490_157264" class="clusterblast-orf" id="dummy-2_q5_0_all"  />
<polygon points="187,35 192,30 205,30 205,40 192,40 187,35 " style="fill:#15b1d8; stroke-width:1; stroke:black; " description="&lt;b&gt;cds157392_158280&lt;/b&gt;&lt;br&gt;L-arabinose transport system permease protein AraQ&lt;br&gt;Location: 157392 - 158280" locus_tag="cds157392_158280" class="clusterblast-orf" id="dummy-2_q6_0_all"  />
<polygon points="205,35 210,30 225,30 225,40 210,40 205,35 " style="fill:#b115d8; stroke-width:1; stroke:black; " description="&lt;b&gt;cds158276_159263&lt;/b&gt;&lt;br&gt;hypothetical protein&lt;br&gt;Location: 158276 - 159263" locus_tag="cds158276_159263" class="clusterblast-orf" id="dummy-2_q7_0_all"  />
<polygon points="226,35 231,30 253,30 253,40 231,40 226,35 " style="fill:#d86315; stroke-width:1; stroke:black; " description="&lt;b&gt;cds159339_160662&lt;/b&gt;&lt;br&gt;hypothetical protein&lt;br&gt;Location: 159339 - 160662" locus_tag="cds159339_160662" class="clusterblast-orf" id="dummy-2_q8_0_all"  />
<polygon points="258,40 301,40 306,35 301,30 258,30 258,40 " style="fill:#15d815; stroke-width:1; stroke:black; " description="&lt;b&gt;cds160929_163353&lt;/b&gt;&lt;br&gt;hypothetical protein&lt;br&gt;Location: 160929 - 163353" locus_tag="cds160929_163353" class="clusterblast-orf" id="dummy-2_q9_0_all"  />
<polygon points="306,40 322,40 327,35 322,30 306,30 306,40 " style="fill:#1563d8; stroke-width:1; stroke:black; " description="&lt;b&gt;cds163349_164375&lt;/b&gt;&lt;br&gt;HTH-type transcriptional repressor CytR&lt;br&gt;Location: 163349 - 164375" locus_tag="cds163349_164375" class="clusterblast-orf" id="dummy-2_q10_0_all"  />
<polygon points="327,35 332,30 337,30 337,40 332,40 327,35 " style="fill:white; stroke-width:1; stroke:black; " description="&lt;b&gt;cds164401_164872&lt;/b&gt;&lt;br&gt;hypothetical protein&lt;br&gt;Location: 164401 - 164872" locus_tag="cds164401_164872" class="clusterblast-orf" id="dummy-2_q11_0_all"  />
<polygon points="344,40 344,40 349,35 344,30 344,30 344,40 " style="fill:#d815b1; stroke-width:1; stroke:black; " description="&lt;b&gt;cds165230_165473&lt;/b&gt;&lt;br&gt;Isochorismatase&lt;br&gt;Location: 165230 - 165473" locus_tag="cds165230_165473" class="clusterblast-orf" id="dummy-2_q12_0_all"  />
<polygon points="349,40 361,40 366,35 361,30 349,30 349,40 " style="fill:#d8b115; stroke-width:1; stroke:black; " description="&lt;b&gt;cds165469_166321&lt;/b&gt;&lt;br&gt;Vibriobactin utilization protein ViuB&lt;br&gt;Location: 165469 - 166321" locus_tag="cds165469_166321" class="clusterblast-orf" id="dummy-2_q13_0_all"  />
<polygon points="368,40 383,40 388,35 383,30 368,30 368,40 " style="fill:#15d863; stroke-width:1; stroke:black; " description="&lt;b&gt;cds166422_167427&lt;/b&gt;&lt;br&gt;Iron(3+)-hydroxamate-binding protein YxeB&lt;br&gt;Location: 166422 - 167427" locus_tag="cds166422_167427" class="clusterblast-orf" id="dummy-2_q14_0_all"  />
<polygon points="388,40 403,40 408,35 403,30 388,30 388,40 " style="fill:#1515d8; stroke-width:1; stroke:black; " description="&lt;b&gt;cds167423_168449&lt;/b&gt;&lt;br&gt;Ferric enterobactin transport system permease protein FepD&lt;br&gt;Location: 167423 - 168449" locus_tag="cds167423_168449" class="clusterblast-orf" id="dummy-2_q15_0_all"  />
<polygon points="408,40 423,40 428,35 423,30 408,30 408,40 " style="fill:#d81563; stroke-width:1; stroke:black; " description="&lt;b&gt;cds168445_169441&lt;/b&gt;&lt;br&gt;Ferric enterobactin transport system permease protein FepG&lt;br&gt;Location: 168445 - 169441" locus_tag="cds168445_169441" class="clusterblast-orf" id="dummy-2_q16_0_all"  />
<polygon points="428,40 438,40 443,35 438,30 428,30 428,40 " style="fill:#b1d815; stroke-width:1; stroke:black; " description="&lt;b&gt;cds169437_170223&lt;/b&gt;&lt;br&gt;Ferric enterobactin transport ATP-binding protein FepC&lt;br&gt;Location: 169437 - 170223" locus_tag="cds169437_170223" class="clusterblast-orf" id="dummy-2_q17_0_all"  />
<polygon points="443,40 637,40 642,35 637,30 443,30 443,40 " style="fill:#15d8b1; stroke-width:1; stroke:black; " description="&lt;b&gt;cds170224_180199&lt;/b&gt;&lt;br&gt;Linear gramicidin synthase subunit D&lt;br&gt;Location: 170224 - 180199" locus_tag="cds170224_180199" class="clusterblast-orf" id="dummy-2_q18_0_all"  />
<polygon points="642,40 665,40 670,35 665,30 642,30 642,40 " style="fill:#6315d8; stroke-width:1; stroke:black; " description="&lt;b&gt;cds180195_181596&lt;/b&gt;&lt;br&gt;putative transport protein HsrA&lt;br&gt;Location: 180195 - 181596" locus_tag="cds180195_181596" class="clusterblast-orf" id="dummy-2_q19_0_all"  />
<polygon points="674,40 729,40 734,35 729,30 674,30 674,40 " style="fill:white; stroke-width:1; stroke:black; " description="&lt;b&gt;cds181801_184810&lt;/b&gt;&lt;br&gt;hypothetical protein&lt;br&gt;Location: 181801 - 184810" locus_tag="cds181801_184810" class="clusterblast-orf" id="dummy-2_q20_0_all"  />
</g>
<g label="BGC0001752" description="BGC0001752_c1: qinichelins (11% of genes show similarity), NRP" class="clusterblast-cluster"  >
<text x="5" y="70" class="clusterblast-acc"  >
<a xlink:href="https://mibig.secondarymetabolites.org/go/BGC0001752/1" target="_blank">BGC0001752</a>:                                                                      qinichelins (11% of genes show similarity), NRP</text>
<line x1="10" y1="85" x2="778.0" y2="85" style="stroke-width:1; stroke:grey; "  />
</g>
<g id="a2_000"  >
<polygon points="0,90 8,90 13,85 8,80 0,80 0,90 " style="fill:white; stroke-width:1; stroke:black; " description="&lt;b&gt;ctg1_orf1255&lt;/b&gt;&lt;br&gt;&lt;br&gt;Location: 1 - 693" locus_tag="ctg1_orf1255" class="clusterblast-orf" id="dummy-2_h2_6_0"  />
</g>
<g id="a2_001"  >
<polygon points="19,90 34,90 39,85 34,80 19,80 19,90 " style="fill:white; stroke-width:1; stroke:black; " description="&lt;b&gt;ctg1_orf1256&lt;/b&gt;&lt;br&gt;&lt;br&gt;Location: 958 - 1983" locus_tag="ctg1_orf1256" class="clusterblast-orf" id="dummy-2_h2_6_1"  />
</g>
<g id="a2_002"  >
<polygon points="39,90 41,85 39,80 39,90 " style="fill:white; stroke-width:1; stroke:black; " description="&lt;b&gt;ctg1_orf1257&lt;/b&gt;&lt;br&gt;&lt;br&gt;Location: 1980 - 2078" locus_tag="ctg1_orf1257" class="clusterblast-orf" id="dummy-2_h2_6_2"  />
</g>
<g id="a2_003"  >
<polygon points="41,90 59,90 64,85 59,80 41,80 41,90 " style="fill:white; stroke-width:1; stroke:black; " description="&lt;b&gt;ctg1_orf1258&lt;/b&gt;&lt;br&gt;&lt;br&gt;Location: 2075 - 3226" locus_tag="ctg1_orf1258" class="clusterblast-orf" id="dummy-2_h2_6_3"  />
</g>
<g id="a2_004"  >
<polygon points="64,90 77,90 82,85 77,80 64,80 64,90 " style="fill:white; stroke-width:1; stroke:black; " description="&lt;b&gt;ctg1_orf1259&lt;/b&gt;&lt;br&gt;&lt;br&gt;Location: 3223 - 4158" locus_tag="ctg1_orf1259" class="clusterblast-orf" id="dummy-2_h2_6_4"  />
</g>
<g id="a2_005"  >
<polygon points="82,90 101,90 106,85 101,80 82,80 82,90 " style="fill:white; stroke-width:1; stroke:black; " description="&lt;b&gt;ctg1_orf1260&lt;/b&gt;&lt;br&gt;&lt;br&gt;Location: 4155 - 5351" locus_tag="ctg1_orf1260" class="clusterblast-orf" id="dummy-2_h2_6_5"  />
</g>
<g id="a2_006"  >
<polygon points="109,90 133,90 138,85 133,80 109,80 109,90 " style="fill:white; stroke-width:1; stroke:black; " description="&lt;b&gt;ctg1_orf1261&lt;/b&gt;&lt;br&gt;&lt;br&gt;Location: 5500 - 6918" locus_tag="ctg1_orf1261" class="clusterblast-orf" id="dummy-2_h2_6_6"  />
</g>
<g id="a2_007"  >
<polygon points="145,90 145,90 150,85 145,80 145,80 145,90 " style="fill:#d815b1; stroke-width:1; stroke:black; " description="&lt;b&gt;ctg1_orf1262&lt;/b&gt;&lt;br&gt;&lt;br&gt;Location: 7277 - 7525&lt;br&gt;&lt;br&gt;&lt;b&gt;BlastP hit with cds165230_165473&lt;/b&gt;&lt;br&gt;Percentage identity: 47&lt;br&gt;Percentage coverage: 95&lt;br&gt;BLAST bit score: 72&lt;br&gt;E-value: 4.4e-13" locus_tag="ctg1_orf1262" class="clusterblast-orf" id="dummy-2_h2_6_7"  />
</g>
<g id="a2_008"  >
<polygon points="151,90 165,90 170,85 165,80 151,80 151,90 " style="fill:white; stroke-width:1; stroke:black; " description="&lt;b&gt;ctg1_orf1263&lt;/b&gt;&lt;br&gt;&lt;br&gt;Location: 7571 - 8551" locus_tag="ctg1_orf1263" class="clusterblast-orf" id="dummy-2_h2_6_8"  />
</g>
<g id="a2_009"  >
<polygon points="172,90 424,90 429,85 424,80 172,80 172,90 " style="fill:white; stroke-width:1; stroke:black; " description="&lt;b&gt;ctg1_orf1264&lt;/b&gt;&lt;br&gt;&lt;br&gt;Location: 8630 - 21526" locus_tag="ctg1_orf1264" class="clusterblast-orf" id="dummy-2_h2_6_9"  />
</g>
<g id="a2_0010"  >
<polygon points="429,90 618,90 623,85 618,80 429,80 429,90 " style="fill:white; stroke-width:1; stroke:black; " description="&lt;b&gt;ctg1_orf1265&lt;/b&gt;&lt;br&gt;&lt;br&gt;Location: 21523 - 31266" locus_tag="ctg1_orf1265" class="clusterblast-orf" id="dummy-2_h2_6_10"  />
</g>
<g id="a2_0011"  >
<polygon points="624,90 624,90 629,85 624,80 624,80 624,90 " style="fill:white; stroke-width:1; stroke:black; " description="&lt;b&gt;ctg1_orf1266&lt;/b&gt;&lt;br&gt;&lt;br&gt;Location: 31322 - 31534" locus_tag="ctg1_orf1266" class="clusterblast-orf" id="dummy-2_h2_6_11"  />
</g>
<g id="a2_0012"  >
<polygon points="631,90 666,90 671,85 666,80 631,80 631,90 " style="fill:white; stroke-width:1; stroke:black; " description="&lt;b&gt;ctg1_orf1267&lt;/b&gt;&lt;br&gt;&lt;br&gt;Location: 31635 - 33647" locus_tag="ctg1_orf1267" class="clusterblast-orf" id="dummy-2_h2_6_12"  />
</g>
<g id="a2_0013"  >
<polygon points="671,90 700,90 705,85 700,80 671,80 671,90 " style="fill:white; stroke-width:1; stroke:black; " description="&lt;b&gt;ctg1_orf1268&lt;/b&gt;&lt;br&gt;&lt;br&gt;Location: 33640 - 35352" locus_tag="ctg1_orf1268" class="clusterblast-orf" id="dummy-2_h2_6_13"  />
</g>
<g id="a2_0014"  >
<polygon points="708,90 719,90 724,85 719,80 708,80 708,90 " style="fill:white; stroke-width:1; stroke:black; " description="&lt;b&gt;ctg1_orf1269&lt;/b&gt;&lt;br&gt;&lt;br&gt;Location: 35496 - 36329" locus_tag="ctg1_orf1269" class="clusterblast-orf" id="dummy-2_h2_6_14"  />
</g>
<g id="a2_0015"  >
<polygon points="724,90 741,90 746,85 741,80 724,80 724,90 " style="fill:#1515d8; stroke-width:1; stroke:black; " description="&lt;b&gt;ctg1_orf1270&lt;/b&gt;&lt;br&gt;&lt;br&gt;Location: 36326 - 37414&lt;br&gt;&lt;br&gt;&lt;b&gt;BlastP hit with cds167423_168449&lt;/b&gt;&lt;br&gt;Percentage identity: 46&lt;br&gt;Percentage coverage: 100&lt;br&gt;BLAST bit score: 225&lt;br&gt;E-value: 1.7e-58" locus_tag="ctg1_orf1270" class="clusterblast-orf" id="dummy-2_h2_6_15"  />
</g>
<g id="a2_0016"  >
<polygon points="746,90 763,90 768,85 763,80 746,80 746,90 " style="fill:white; stroke-width:1; stroke:black; " description="&lt;b&gt;ctg1_orf1271&lt;/b&gt;&lt;br&gt;&lt;br&gt;Location: 37411 - 38529" locus_tag="ctg1_orf1271" class="clusterblast-orf" id="dummy-2_h2_6_16"  />
</g>
<g id="a2_0017"  >
<polygon points="767,90 775,90 780,85 775,80 767,80 767,90 " style="fill:white; stroke-width:1; stroke:black; " description="&lt;b&gt;ctg1_orf1272&lt;/b&gt;&lt;br&gt;&lt;br&gt;Location: 38481 - 39092" locus_tag="ctg1_orf1272" class="clusterblast-orf" id="dummy-2_h2_6_17"  />
</g>
</svg>
