<svg xmlns="http://www.w3.org/2000/svg" xmlns:xlink="http://www.w3.org/1999/xlink" version="1.1" x="0" y="0" height="200" width="800" viewBox="0 0 800 200" preserveAspectRatio="none"  >
<g label="Query sequence" class="clusterblast-cluster"  >
<text x="5" y="20" class="clusterblast-acc"  >
Query sequence</text>
<line x1="10" y1="35" x2="778.0" y2="35" style="stroke-width:1; stroke:grey; "  />
<polygon points="10,35 15,30 126,30 126,40 15,40 10,35 " style="fill:#d81515; stroke-width:1; stroke:black; " description="&lt;b&gt;cds126_1020&lt;/b&gt;&lt;br&gt;Ectoine dioxygenase&lt;br&gt;Location: 126 - 1020" locus_tag="cds126_1020" class="clusterblast-orf" id="knownclusterblast-1_q0_0_all"  />
<polygon points="126,35 131,30 178,30 178,40 131,40 126,35 " style="fill:#77d815; stroke-width:1; stroke:black; " description="&lt;b&gt;cds1023_1422&lt;/b&gt;&lt;br&gt;L-ectoine synthase&lt;br&gt;Location: 1023 - 1422" locus_tag="cds1023_1422" class="clusterblast-orf" id="knownclusterblast-1_q1_0_all"  />
<polygon points="186,35 191,30 349,30 349,40 191,40 186,35 " style="fill:#15d8d8; stroke-width:1; stroke:black; " description="&lt;b&gt;cds1485_2748&lt;/b&gt;&lt;br&gt;Diaminobutyrate--2-oxoglutarate transaminase&lt;br&gt;Location: 1485 - 2748" locus_tag="cds1485_2748" class="clusterblast-orf" id="knownclusterblast-1_q2_0_all"  />
<polygon points="362,35 367,30 429,30 429,40 367,40 362,35 " style="fill:#7715d8; stroke-width:1; stroke:black; " description="&lt;b&gt;cds2845_3370&lt;/b&gt;&lt;br&gt;L-2,4-diaminobutyric acid acetyltransferase&lt;br&gt;Location: 2845 - 3370" locus_tag="cds2845_3370" class="clusterblast-orf" id="knownclusterblast-1_q3_0_all"  />
<polygon points="473,35 478,30 616,30 616,40 478,40 473,35 " style="fill:white; stroke-width:1; stroke:black; " description="&lt;b&gt;cds3707_4814&lt;/b&gt;&lt;br&gt;Pyridoxamine--pyruvate transaminase&lt;br&gt;Location: 3707 - 4814" locus_tag="cds3707_4814" class="clusterblast-orf" id="knownclusterblast-1_q4_0_all"  />
<polygon points="629,40 766,40 771,35 766,30 629,30 629,40 " style="fill:white; stroke-width:1; stroke:black; " description="&lt;b&gt;cds4914_6015&lt;/b&gt;&lt;br&gt;putative protein&lt;br&gt;Location: 4914 - 6015" locus_tag="cds4914_6015" class="clusterblast-orf" id="knownclusterblast-1_q5_0_all"  />
</g>
<g label="BGC0000853" description="BGC0000853_c1: ectoine (100% of genes show similarity), Other" class="clusterblast-cluster"  >
<text x="5" y="70" class="clusterblast-acc"  >
<a xlink:href="https://mibig.secondarymetabolites.org/go/BGC0000853/1" target="_blank">BGC0000853</a>:                                                                          ectoine (100% of genes show similarity), Other</text>
<line x1="10" y1="85" x2="778.0" y2="85" style="stroke-width:1; stroke:grey; "  />
</g>
<g id="a1_000"  >
<polygon points="174,85 179,80 289,80 289,90 179,90 174,85 " style="fill:#d81515; stroke-width:1; stroke:black; " description="&lt;b&gt;AAS02097.1&lt;/b&gt;&lt;br&gt;ThpD&lt;br&gt;Location: 3345 - 2452&lt;br&gt;&lt;br&gt;&lt;b&gt;BlastP hit with cds126_1020&lt;/b&gt;&lt;br&gt;Percentage identity: 90&lt;br&gt;Percentage coverage: 100&lt;br&gt;BLAST bit score: 566&lt;br&gt;E-value: 3.6e-161" locus_tag="AAS02097.1" class="clusterblast-orf" id="knownclusterblast-1_all_1_1_0"  />
</g>
<g id="a1_001"  >
<polygon points="290,85 295,80 342,80 342,90 295,90 290,85 " style="fill:#77d815; stroke-width:1; stroke:black; " description="&lt;b&gt;AAS02096.1&lt;/b&gt;&lt;br&gt;ThpC&lt;br&gt;Location: 2445 - 2047&lt;br&gt;&lt;br&gt;&lt;b&gt;BlastP hit with cds1023_1422&lt;/b&gt;&lt;br&gt;Percentage identity: 94&lt;br&gt;Percentage coverage: 99&lt;br&gt;BLAST bit score: 269&lt;br&gt;E-value: 3.1e-72" locus_tag="AAS02096.1" class="clusterblast-orf" id="knownclusterblast-1_all_1_1_1"  />
</g>
<g id="a1_002"  >
<polygon points="353,85 358,80 516,80 516,90 358,90 353,85 " style="fill:#15d8d8; stroke-width:1; stroke:black; " description="&lt;b&gt;AAS02095.1&lt;/b&gt;&lt;br&gt;ThpB&lt;br&gt;Location: 1960 - 698&lt;br&gt;&lt;br&gt;&lt;b&gt;BlastP hit with cds1485_2748&lt;/b&gt;&lt;br&gt;Percentage identity: 96&lt;br&gt;Percentage coverage: 100&lt;br&gt;BLAST bit score: 829&lt;br&gt;E-value: 2.5e-240" locus_tag="AAS02095.1" class="clusterblast-orf" id="knownclusterblast-1_all_1_1_2"  />
</g>
<g id="a1_003"  >
<polygon points="536,85 541,80 605,80 605,90 541,90 536,85 " style="fill:#7715d8; stroke-width:1; stroke:black; " description="&lt;b&gt;AAS02094.1&lt;/b&gt;&lt;br&gt;ThpA&lt;br&gt;Location: 539 - 9&lt;br&gt;&lt;br&gt;&lt;b&gt;BlastP hit with cds2845_3370&lt;/b&gt;&lt;br&gt;Percentage identity: 88&lt;br&gt;Percentage coverage: 100&lt;br&gt;BLAST bit score: 316&lt;br&gt;E-value: 2.9e-86" locus_tag="AAS02094.1" class="clusterblast-orf" id="knownclusterblast-1_all_1_1_3"  />
</g>
<g label="BGC0000860" description="BGC0000860_c1: ectoine (40% of genes show similarity), Other" class="clusterblast-cluster"  >
<text x="5" y="120" class="clusterblast-acc"  >
<a xlink:href="https://mibig.secondarymetabolites.org/go/BGC0000860/1" target="_blank">BGC0000860</a>:                                                                          ectoine (40% of genes show similarity), Other</text>
<line x1="10" y1="135" x2="778.0" y2="135" style="stroke-width:1; stroke:grey; "  />
</g>
<g id="a1_000"  >
<polygon points="104,135 109,130 284,130 284,140 109,140 104,135 " style="fill:white; stroke-width:1; stroke:black; " description="&lt;b&gt;ADA71977.1&lt;/b&gt;&lt;br&gt;aspartokinase&lt;br&gt;Location: 5134 - 3740" locus_tag="ADA71977.1" class="clusterblast-orf" id="knownclusterblast-1_all_1_2_0"  />
</g>
<g id="a1_001"  >
<polygon points="284,135 289,130 335,130 335,140 289,140 284,135 " style="fill:#77d815; stroke-width:1; stroke:black; " description="&lt;b&gt;ADA71976.1&lt;/b&gt;&lt;br&gt;L-ectoine synthase&lt;br&gt;Location: 3737 - 3342&lt;br&gt;&lt;br&gt;&lt;b&gt;BlastP hit with cds1023_1422&lt;/b&gt;&lt;br&gt;Percentage identity: 46&lt;br&gt;Percentage coverage: 98&lt;br&gt;BLAST bit score: 124&lt;br&gt;E-value: 1.2e-28" locus_tag="ADA71976.1" class="clusterblast-orf" id="knownclusterblast-1_all_1_2_1"  />
</g>
<g id="a1_002"  >
<polygon points="336,135 341,130 503,130 503,140 341,140 336,135 " style="fill:#15d8d8; stroke-width:1; stroke:black; " description="&lt;b&gt;ADA71975.1&lt;/b&gt;&lt;br&gt;L-2,4-diaminobutyrate transaminase&lt;br&gt;Location: 3334 - 2042&lt;br&gt;&lt;br&gt;&lt;b&gt;BlastP hit with cds1485_2748&lt;/b&gt;&lt;br&gt;Percentage identity: 48&lt;br&gt;Percentage coverage: 98&lt;br&gt;BLAST bit score: 421&lt;br&gt;E-value: 2e-117" locus_tag="ADA71975.1" class="clusterblast-orf" id="knownclusterblast-1_all_1_2_2"  />
</g>
<g id="a1_003"  >
<polygon points="510,135 515,130 581,130 581,140 515,140 510,135 " style="fill:white; stroke-width:1; stroke:black; " description="&lt;b&gt;ADA71974.1&lt;/b&gt;&lt;br&gt;L-2,4-diaminobutyric acid acetyltransferase&lt;br&gt;Location: 1986 - 1441" locus_tag="ADA71974.1" class="clusterblast-orf" id="knownclusterblast-1_all_1_2_3"  />
</g>
<g id="a1_004"  >
<polygon points="603,140 670,140 675,135 670,130 603,130 603,140 " style="fill:white; stroke-width:1; stroke:black; " description="&lt;b&gt;ADA71973.1&lt;/b&gt;&lt;br&gt;MarR family transcriptional regulator&lt;br&gt;Location: 1265 - 711" locus_tag="ADA71973.1" class="clusterblast-orf" id="knownclusterblast-1_all_1_2_4"  />
</g>
<g label="BGC0000854" description="BGC0000854_c1: ectoine (33% of genes show similarity), Other" class="clusterblast-cluster"  >
<text x="5" y="170" class="clusterblast-acc"  >
<a xlink:href="https://mibig.secondarymetabolites.org/go/BGC0000854/1" target="_blank">BGC0000854</a>:                                                                          ectoine (33% of genes show similarity), Other</text>
<line x1="10" y1="185" x2="778.0" y2="185" style="stroke-width:1; stroke:grey; "  />
</g>
<g id="a1_000"  >
<polygon points="0,185 5,180 123,180 123,190 5,190 0,185 " style="fill:#d81515; stroke-width:1; stroke:black; " description="&lt;b&gt;AAY96769.2&lt;/b&gt;&lt;br&gt;putative ectoine hydroxylase&lt;br&gt;Location: 6879 - 5920&lt;br&gt;&lt;br&gt;&lt;b&gt;BlastP hit with cds126_1020&lt;/b&gt;&lt;br&gt;Percentage identity: 47&lt;br&gt;Percentage coverage: 96&lt;br&gt;BLAST bit score: 271&lt;br&gt;E-value: 1.4e-72" locus_tag="AAY96769.2" class="clusterblast-orf" id="knownclusterblast-1_all_1_3_0"  />
</g>
<g id="a1_001"  >
<polygon points="170,185 175,180 356,180 356,190 175,190 170,185 " style="fill:white; stroke-width:1; stroke:black; " description="&lt;b&gt;AAY96773.1&lt;/b&gt;&lt;br&gt;aspartokinase&lt;br&gt;Location: 5559 - 4117" locus_tag="AAY96773.1" class="clusterblast-orf" id="knownclusterblast-1_all_1_3_1"  />
</g>
<g id="a1_002"  >
<polygon points="364,185 369,180 416,180 416,190 369,190 364,185 " style="fill:white; stroke-width:1; stroke:black; " description="&lt;b&gt;AAY96772.1&lt;/b&gt;&lt;br&gt;ectoine synthase&lt;br&gt;Location: 4056 - 3652" locus_tag="AAY96772.1" class="clusterblast-orf" id="knownclusterblast-1_all_1_3_2"  />
</g>
<g id="a1_003"  >
<polygon points="423,185 428,180 595,180 595,190 428,190 423,185 " style="fill:#15d8d8; stroke-width:1; stroke:black; " description="&lt;b&gt;AAY96771.1&lt;/b&gt;&lt;br&gt;L-2,4-diaminobutyrat transaminase&lt;br&gt;Location: 3601 - 2270&lt;br&gt;&lt;br&gt;&lt;b&gt;BlastP hit with cds1485_2748&lt;/b&gt;&lt;br&gt;Percentage identity: 53&lt;br&gt;Percentage coverage: 98&lt;br&gt;BLAST bit score: 452&lt;br&gt;E-value: 6.3e-127" locus_tag="AAY96771.1" class="clusterblast-orf" id="knownclusterblast-1_all_1_3_3"  />
</g>
<g id="a1_004"  >
<polygon points="600,185 605,180 667,180 667,190 605,190 600,185 " style="fill:white; stroke-width:1; stroke:black; " description="&lt;b&gt;AAY96770.1&lt;/b&gt;&lt;br&gt;L-2,4-diaminobutyrat acetyltransferase&lt;br&gt;Location: 2227 - 1709" locus_tag="AAY96770.1" class="clusterblast-orf" id="knownclusterblast-1_all_1_3_4"  />
</g>
<g id="a1_005"  >
<polygon points="710,190 775,190 780,185 775,180 710,180 710,190 " style="fill:white; stroke-width:1; stroke:black; " description="&lt;b&gt;ACP19701.1&lt;/b&gt;&lt;br&gt;transcriptional regulator MarR family&lt;br&gt;Location: 1381 - 839" locus_tag="ACP19701.1" class="clusterblast-orf" id="knownclusterblast-1_all_1_3_5"  />
</g>
</svg>
