<svg xmlns="http://www.w3.org/2000/svg" xmlns:xlink="http://www.w3.org/1999/xlink" version="1.1" x="0" y="0" height="230" width="800" viewBox="0 0 800 230" preserveAspectRatio="none"  >
<g label="Query sequence" class="clusterblast-cluster"  >
<text x="5" y="20" class="clusterblast-acc"  >
Query sequence</text>
<line x1="10" y1="35" x2="778.0" y2="35" style="stroke-width:1; stroke:grey; "  />
<polygon points="252,40 253,40 258,35 253,30 252,30 252,40 " style="fill:white; stroke-width:1; stroke:black; " description="&lt;b&gt;cds79692_80229&lt;/b&gt;&lt;br&gt;Maleamate amidohydrolase&lt;br&gt;Location: 79692 - 80229" locus_tag="cds79692_80229" class="clusterblast-orf" id="dummy-2_q0_0_all"  />
<polygon points="259,40 261,40 266,35 261,30 259,30 259,40 " style="fill:white; stroke-width:1; stroke:black; " description="&lt;b&gt;cds80362_80962&lt;/b&gt;&lt;br&gt;8-demethyl-8-aminoriboflavin-5'-phosphate synthase&lt;br&gt;Location: 80362 - 80962" locus_tag="cds80362_80962" class="clusterblast-orf" id="dummy-2_q1_0_all"  />
<polygon points="267,35 272,30 281,30 281,40 272,40 267,35 " style="fill:white; stroke-width:1; stroke:black; " description="&lt;b&gt;cds81060_82236&lt;/b&gt;&lt;br&gt;hypothetical protein&lt;br&gt;Location: 81060 - 82236" locus_tag="cds81060_82236" class="clusterblast-orf" id="dummy-2_q2_0_all"  />
<polygon points="283,40 292,40 297,35 292,30 283,30 283,40 " style="fill:white; stroke-width:1; stroke:black; " description="&lt;b&gt;cds82419_83631&lt;/b&gt;&lt;br&gt;putative cardiolipin synthase YwiE&lt;br&gt;Location: 82419 - 83631" locus_tag="cds82419_83631" class="clusterblast-orf" id="dummy-2_q3_0_all"  />
<polygon points="297,35 301,30 301,40 297,35 " style="fill:white; stroke-width:1; stroke:black; " description="&lt;b&gt;cds83694_83982&lt;/b&gt;&lt;br&gt;hypothetical protein&lt;br&gt;Location: 83694 - 83982" locus_tag="cds83694_83982" class="clusterblast-orf" id="dummy-2_q4_0_all"  />
<polygon points="302,40 302,40 307,35 302,30 302,30 302,40 " style="fill:white; stroke-width:1; stroke:black; " description="&lt;b&gt;cds84138_84567&lt;/b&gt;&lt;br&gt;hypothetical protein&lt;br&gt;Location: 84138 - 84567" locus_tag="cds84138_84567" class="clusterblast-orf" id="dummy-2_q5_0_all"  />
<polygon points="309,40 310,40 315,35 310,30 309,30 309,40 " style="fill:white; stroke-width:1; stroke:black; " description="&lt;b&gt;cds84674_85280&lt;/b&gt;&lt;br&gt;hypothetical protein&lt;br&gt;Location: 84674 - 85280" locus_tag="cds84674_85280" class="clusterblast-orf" id="dummy-2_q6_0_all"  />
<polygon points="316,35 321,30 327,30 327,40 321,40 316,35 " style="fill:white; stroke-width:1; stroke:black; " description="&lt;b&gt;cds85309_86260&lt;/b&gt;&lt;br&gt;hypothetical protein&lt;br&gt;Location: 85309 - 86260" locus_tag="cds85309_86260" class="clusterblast-orf" id="dummy-2_q7_0_all"  />
<polygon points="328,40 340,40 345,35 340,30 328,30 328,40 " style="fill:white; stroke-width:1; stroke:black; " description="&lt;b&gt;cds86353_87877&lt;/b&gt;&lt;br&gt;hypothetical protein&lt;br&gt;Location: 86353 - 87877" locus_tag="cds86353_87877" class="clusterblast-orf" id="dummy-2_q8_0_all"  />
<polygon points="347,40 356,40 361,35 356,30 347,30 347,40 " style="fill:white; stroke-width:1; stroke:black; " description="&lt;b&gt;cds88028_89294&lt;/b&gt;&lt;br&gt;Renalase&lt;br&gt;Location: 88028 - 89294" locus_tag="cds88028_89294" class="clusterblast-orf" id="dummy-2_q9_0_all"  />
<polygon points="361,40 370,40 375,35 370,30 361,30 361,40 " style="fill:#d81515; stroke-width:1; stroke:black; " description="&lt;b&gt;cds89290_90499&lt;/b&gt;&lt;br&gt;hypothetical protein&lt;br&gt;Location: 89290 - 90499" locus_tag="cds89290_90499" class="clusterblast-orf" id="dummy-2_q10_0_all"  />
<polygon points="375,40 379,40 384,35 379,30 375,30 375,40 " style="fill:#15d815; stroke-width:1; stroke:black; " description="&lt;b&gt;cds90495_91230&lt;/b&gt;&lt;br&gt;Demethylmenaquinone methyltransferase&lt;br&gt;Location: 90495 - 91230" locus_tag="cds90495_91230" class="clusterblast-orf" id="dummy-2_q11_0_all"  />
<polygon points="383,40 396,40 401,35 396,30 383,30 383,40 " style="fill:#1597d8; stroke-width:1; stroke:black; " description="&lt;b&gt;cds91226_92786&lt;/b&gt;&lt;br&gt;tRNA 5-methylaminomethyl-2-thiouridine biosynthesis bifunctional protein MnmC&lt;br&gt;Location: 91226 - 92786" locus_tag="cds91226_92786" class="clusterblast-orf" id="dummy-2_q12_0_all"  />
<polygon points="402,35 407,30 413,30 413,40 407,40 402,35 " style="fill:#9715d8; stroke-width:1; stroke:black; " description="&lt;b&gt;cds92820_93828&lt;/b&gt;&lt;br&gt;hypothetical protein&lt;br&gt;Location: 92820 - 93828" locus_tag="cds92820_93828" class="clusterblast-orf" id="dummy-2_q13_0_all"  />
<polygon points="413,35 418,30 424,30 424,40 418,40 413,35 " style="fill:#d89715; stroke-width:1; stroke:black; " description="&lt;b&gt;cds93824_94811&lt;/b&gt;&lt;br&gt;15-cis-phytoene synthase&lt;br&gt;Location: 93824 - 94811" locus_tag="cds93824_94811" class="clusterblast-orf" id="dummy-2_q14_0_all"  />
<polygon points="424,35 429,30 442,30 442,40 429,40 424,35 " style="fill:#15d897; stroke-width:1; stroke:black; " description="&lt;b&gt;cds94807_96343&lt;/b&gt;&lt;br&gt;zeta-carotene-forming phytoene desaturase&lt;br&gt;Location: 94807 - 96343" locus_tag="cds94807_96343" class="clusterblast-orf" id="dummy-2_q15_0_all"  />
<polygon points="442,35 447,30 455,30 455,40 447,40 442,35 " style="fill:#1515d8; stroke-width:1; stroke:black; " description="&lt;b&gt;cds96339_97509&lt;/b&gt;&lt;br&gt;hypothetical protein&lt;br&gt;Location: 96339 - 97509" locus_tag="cds96339_97509" class="clusterblast-orf" id="dummy-2_q16_0_all"  />
<polygon points="458,35 463,30 463,30 463,40 463,40 458,35 " style="fill:#d81597; stroke-width:1; stroke:black; " description="&lt;b&gt;cds97714_98203&lt;/b&gt;&lt;br&gt;hypothetical protein&lt;br&gt;Location: 97714 - 98203" locus_tag="cds97714_98203" class="clusterblast-orf" id="dummy-2_q17_0_all"  />
<polygon points="465,40 471,40 476,35 471,30 465,30 465,40 " style="fill:#97d815; stroke-width:1; stroke:black; " description="&lt;b&gt;cds98327_99293&lt;/b&gt;&lt;br&gt;hypothetical protein&lt;br&gt;Location: 98327 - 99293" locus_tag="cds98327_99293" class="clusterblast-orf" id="dummy-2_q18_0_all"  />
<polygon points="476,40 480,35 476,30 476,40 " style="fill:white; stroke-width:1; stroke:black; " description="&lt;b&gt;cds99289_99628&lt;/b&gt;&lt;br&gt;hypothetical protein&lt;br&gt;Location: 99289 - 99628" locus_tag="cds99289_99628" class="clusterblast-orf" id="dummy-2_q19_0_all"  />
<polygon points="480,35 485,30 497,30 497,40 485,40 480,35 " style="fill:white; stroke-width:1; stroke:black; " description="&lt;b&gt;cds99681_101172&lt;/b&gt;&lt;br&gt;Non-reducing end alpha-L-arabinofuranosidase BoGH43A&lt;br&gt;Location: 99681 - 101172" locus_tag="cds99681_101172" class="clusterblast-orf" id="dummy-2_q20_0_all"  />
<polygon points="501,35 506,30 528,30 528,40 506,40 501,35 " style="fill:white; stroke-width:1; stroke:black; " description="&lt;b&gt;cds101484_103833&lt;/b&gt;&lt;br&gt;hypothetical protein&lt;br&gt;Location: 101484 - 103833" locus_tag="cds101484_103833" class="clusterblast-orf" id="dummy-2_q21_0_all"  />
</g>
<g label="BGC0001702" description="BGC0001702_c1: nocamycin (7% of genes show similarity), NRP + Polyketide" class="clusterblast-cluster"  >
<text x="5" y="70" class="clusterblast-acc"  >
<a xlink:href="https://mibig.secondarymetabolites.org/go/BGC0001702/1" target="_blank">BGC0001702</a>:                                                                        nocamycin (7% of genes show similarity), NRP + Polyketide</text>
<line x1="10" y1="85" x2="778.0" y2="85" style="stroke-width:1; stroke:grey; "  />
</g>
<g id="a2_000"  >
<polygon points="0,85 5,80 9,80 9,90 5,90 0,85 " style="fill:white; stroke-width:1; stroke:black; " description="&lt;b&gt;ARS01461.1&lt;/b&gt;&lt;br&gt;short-chain dehydrogenase&lt;br&gt;Location: 1 - 816" locus_tag="ARS01461.1" class="clusterblast-orf" id="dummy-2_h2_8_0"  />
</g>
<g id="a2_001"  >
<polygon points="10,90 28,90 33,85 28,80 10,80 10,90 " style="fill:white; stroke-width:1; stroke:black; " description="&lt;b&gt;ARS01462.1&lt;/b&gt;&lt;br&gt;helicase&lt;br&gt;Location: 924 - 2918" locus_tag="ARS01462.1" class="clusterblast-orf" id="dummy-2_h2_8_1"  />
</g>
<g id="a2_002"  >
<polygon points="34,90 44,90 49,85 44,80 34,80 34,90 " style="fill:white; stroke-width:1; stroke:black; " description="&lt;b&gt;ARS01463.1&lt;/b&gt;&lt;br&gt;hypothetical protein&lt;br&gt;Location: 3004 - 4371" locus_tag="ARS01463.1" class="clusterblast-orf" id="dummy-2_h2_8_2"  />
</g>
<g id="a2_003"  >
<polygon points="54,85 59,80 62,80 62,90 59,90 54,85 " style="fill:white; stroke-width:1; stroke:black; " description="&lt;b&gt;ARS01464.1&lt;/b&gt;&lt;br&gt;NcmM&lt;br&gt;Location: 4770 - 5444" locus_tag="ARS01464.1" class="clusterblast-orf" id="dummy-2_h2_8_3"  />
</g>
<g id="a2_004"  >
<polygon points="62,85 67,80 79,80 79,90 67,90 62,85 " style="fill:white; stroke-width:1; stroke:black; " description="&lt;b&gt;ARS01465.1&lt;/b&gt;&lt;br&gt;NcmL&lt;br&gt;Location: 5461 - 6996" locus_tag="ARS01465.1" class="clusterblast-orf" id="dummy-2_h2_8_4"  />
</g>
<g id="a2_005"  >
<polygon points="86,90 112,90 117,85 112,80 86,80 86,90 " style="fill:white; stroke-width:1; stroke:black; " description="&lt;b&gt;ARS01466.1&lt;/b&gt;&lt;br&gt;NcmN&lt;br&gt;Location: 7606 - 10284" locus_tag="ARS01466.1" class="clusterblast-orf" id="dummy-2_h2_8_5"  />
</g>
<g id="a2_006"  >
<polygon points="122,90 130,90 135,85 130,80 122,80 122,90 " style="fill:white; stroke-width:1; stroke:black; " description="&lt;b&gt;ARS01467.1&lt;/b&gt;&lt;br&gt;NcmO&lt;br&gt;Location: 10689 - 11843" locus_tag="ARS01467.1" class="clusterblast-orf" id="dummy-2_h2_8_6"  />
</g>
<g id="a2_007"  >
<polygon points="135,90 140,90 145,85 140,80 135,80 135,90 " style="fill:white; stroke-width:1; stroke:black; " description="&lt;b&gt;ARS01468.1&lt;/b&gt;&lt;br&gt;NcmP&lt;br&gt;Location: 11858 - 12700" locus_tag="ARS01468.1" class="clusterblast-orf" id="dummy-2_h2_8_7"  />
</g>
<g id="a2_008"  >
<polygon points="145,90 149,90 154,85 149,80 145,80 145,90 " style="fill:white; stroke-width:1; stroke:black; " description="&lt;b&gt;ARS01469.1&lt;/b&gt;&lt;br&gt;NcmC&lt;br&gt;Location: 12697 - 13515" locus_tag="ARS01469.1" class="clusterblast-orf" id="dummy-2_h2_8_8"  />
</g>
<g id="a2_009"  >
<polygon points="154,90 187,90 192,85 187,80 154,80 154,90 " style="fill:white; stroke-width:1; stroke:black; " description="&lt;b&gt;ARS01470.1&lt;/b&gt;&lt;br&gt;NcmB&lt;br&gt;Location: 13526 - 16840" locus_tag="ARS01470.1" class="clusterblast-orf" id="dummy-2_h2_8_9"  />
</g>
<g id="a2_0010"  >
<polygon points="192,85 197,80 201,80 201,90 197,90 192,85 " style="fill:white; stroke-width:1; stroke:black; " description="&lt;b&gt;ARS01471.1&lt;/b&gt;&lt;br&gt;NcmD&lt;br&gt;Location: 16837 - 17652" locus_tag="ARS01471.1" class="clusterblast-orf" id="dummy-2_h2_8_10"  />
</g>
<g id="a2_0011"  >
<polygon points="202,90 202,90 207,85 202,80 202,80 202,90 " style="fill:white; stroke-width:1; stroke:black; " description="&lt;b&gt;ARS01472.1&lt;/b&gt;&lt;br&gt;NcmQ&lt;br&gt;Location: 17750 - 18112" locus_tag="ARS01472.1" class="clusterblast-orf" id="dummy-2_h2_8_11"  />
</g>
<g id="a2_0012"  >
<polygon points="210,90 374,90 379,85 374,80 210,80 210,90 " style="fill:white; stroke-width:1; stroke:black; " description="&lt;b&gt;ARS01473.1&lt;/b&gt;&lt;br&gt;NcmAI&lt;br&gt;Location: 18426 - 33173" locus_tag="ARS01473.1" class="clusterblast-orf" id="dummy-2_h2_8_12"  />
</g>
<g id="a2_0013"  >
<polygon points="379,90 435,90 440,85 435,80 379,80 379,90 " style="fill:white; stroke-width:1; stroke:black; " description="&lt;b&gt;ARS01474.1&lt;/b&gt;&lt;br&gt;NcmAII&lt;br&gt;Location: 33173 - 38533" locus_tag="ARS01474.1" class="clusterblast-orf" id="dummy-2_h2_8_13"  />
</g>
<g id="a2_0014"  >
<polygon points="440,90 489,90 494,85 489,80 440,80 440,90 " style="fill:white; stroke-width:1; stroke:black; " description="&lt;b&gt;ARS01475.1&lt;/b&gt;&lt;br&gt;NcmAIII&lt;br&gt;Location: 38533 - 43197" locus_tag="ARS01475.1" class="clusterblast-orf" id="dummy-2_h2_8_14"  />
</g>
<g id="a2_0015"  >
<polygon points="493,90 550,90 555,85 550,80 493,80 493,90 " style="fill:white; stroke-width:1; stroke:black; " description="&lt;b&gt;ARS01476.1&lt;/b&gt;&lt;br&gt;NcmAIV&lt;br&gt;Location: 43190 - 48550" locus_tag="ARS01476.1" class="clusterblast-orf" id="dummy-2_h2_8_15"  />
</g>
<g id="a2_0016"  >
<polygon points="555,90 642,90 647,85 642,80 555,80 555,90 " style="fill:white; stroke-width:1; stroke:black; " description="&lt;b&gt;ARS01477.1&lt;/b&gt;&lt;br&gt;NcmAV&lt;br&gt;Location: 48552 - 56591" locus_tag="ARS01477.1" class="clusterblast-orf" id="dummy-2_h2_8_16"  />
</g>
<g id="a2_0017"  >
<polygon points="648,90 652,90 657,85 652,80 648,80 648,90 " style="fill:white; stroke-width:1; stroke:black; " description="&lt;b&gt;ARS01478.1&lt;/b&gt;&lt;br&gt;NcmE&lt;br&gt;Location: 56684 - 57505" locus_tag="ARS01478.1" class="clusterblast-orf" id="dummy-2_h2_8_17"  />
</g>
<g id="a2_0018"  >
<polygon points="657,90 669,90 674,85 669,80 657,80 657,90 " style="fill:white; stroke-width:1; stroke:black; " description="&lt;b&gt;ARS01479.1&lt;/b&gt;&lt;br&gt;NcmF&lt;br&gt;Location: 57502 - 58965" locus_tag="ARS01479.1" class="clusterblast-orf" id="dummy-2_h2_8_18"  />
</g>
<g id="a2_0019"  >
<polygon points="674,90 683,90 688,85 683,80 674,80 674,90 " style="fill:white; stroke-width:1; stroke:black; " description="&lt;b&gt;ARS01480.1&lt;/b&gt;&lt;br&gt;NcmG&lt;br&gt;Location: 58971 - 60164" locus_tag="ARS01480.1" class="clusterblast-orf" id="dummy-2_h2_8_19"  />
</g>
<g id="a2_0020"  >
<polygon points="690,85 695,80 709,80 709,90 695,90 690,85 " style="fill:white; stroke-width:1; stroke:black; " description="&lt;b&gt;ARS01481.1&lt;/b&gt;&lt;br&gt;NcmH&lt;br&gt;Location: 60410 - 62041" locus_tag="ARS01481.1" class="clusterblast-orf" id="dummy-2_h2_8_20"  />
</g>
<g id="a2_0021"  >
<polygon points="709,85 714,80 716,80 716,90 714,90 709,85 " style="fill:white; stroke-width:1; stroke:black; " description="&lt;b&gt;ARS01482.1&lt;/b&gt;&lt;br&gt;NcmI&lt;br&gt;Location: 62038 - 62631" locus_tag="ARS01482.1" class="clusterblast-orf" id="dummy-2_h2_8_21"  />
</g>
<g id="a2_0022"  >
<polygon points="717,85 722,80 742,80 742,90 722,90 717,85 " style="fill:white; stroke-width:1; stroke:black; " description="&lt;b&gt;ARS01483.1&lt;/b&gt;&lt;br&gt;NcmJ&lt;br&gt;Location: 62774 - 64915" locus_tag="ARS01483.1" class="clusterblast-orf" id="dummy-2_h2_8_22"  />
</g>
<g id="a2_0023"  >
<polygon points="743,90 745,90 750,85 745,80 743,80 743,90 " style="fill:white; stroke-width:1; stroke:black; " description="&lt;b&gt;ARS01484.1&lt;/b&gt;&lt;br&gt;NcmK&lt;br&gt;Location: 65014 - 65655" locus_tag="ARS01484.1" class="clusterblast-orf" id="dummy-2_h2_8_23"  />
</g>
<g id="a2_0024"  >
<polygon points="753,85 757,80 757,90 753,85 " style="fill:white; stroke-width:1; stroke:black; " description="&lt;b&gt;ARS01485.1&lt;/b&gt;&lt;br&gt;Ohr subfamily peroxiredoxin&lt;br&gt;Location: 65862 - 66254" locus_tag="ARS01485.1" class="clusterblast-orf" id="dummy-2_h2_8_24"  />
</g>
<g id="a2_0025"  >
<polygon points="758,90 761,90 766,85 761,80 758,80 758,90 " style="fill:#15d815; stroke-width:1; stroke:black; " description="&lt;b&gt;ARS01486.1&lt;/b&gt;&lt;br&gt;ubiquinone biosynthesis methyltransferase UbiE&lt;br&gt;Location: 66349 - 67047&lt;br&gt;&lt;br&gt;&lt;b&gt;BlastP hit with cds90495_91230&lt;/b&gt;&lt;br&gt;Percentage identity: 56&lt;br&gt;Percentage coverage: 92&lt;br&gt;BLAST bit score: 238&lt;br&gt;E-value: 1.4e-62" locus_tag="ARS01486.1" class="clusterblast-orf" id="dummy-2_h2_8_25"  />
</g>
<g id="a2_0026"  >
<polygon points="768,85 773,80 780,80 780,90 773,90 768,85 " style="fill:#9715d8; stroke-width:1; stroke:black; " description="&lt;b&gt;ARS01487.1&lt;/b&gt;&lt;br&gt;2Fe-2S ferredoxin&lt;br&gt;Location: 67236 - 68204&lt;br&gt;&lt;br&gt;&lt;b&gt;BlastP hit with cds92820_93828&lt;/b&gt;&lt;br&gt;Percentage identity: 63&lt;br&gt;Percentage coverage: 96&lt;br&gt;BLAST bit score: 400&lt;br&gt;E-value: 2.9e-111" locus_tag="ARS01487.1" class="clusterblast-orf" id="dummy-2_h2_8_26"  />
</g>
</svg>
