<svg xmlns="http://www.w3.org/2000/svg" xmlns:xlink="http://www.w3.org/1999/xlink" version="1.1" x="0" y="0" height="230" width="800" viewBox="0 0 800 230" preserveAspectRatio="none"  >
<g label="Query sequence" class="clusterblast-cluster"  >
<text x="5" y="20" class="clusterblast-acc"  >
Query sequence</text>
<line x1="10" y1="35" x2="778.0" y2="35" style="stroke-width:1; stroke:grey; "  />
<polygon points="0,40 14,40 19,35 14,30 0,30 0,40 " style="fill:white; stroke-width:1; stroke:black; " description="&lt;b&gt;cds8978_9911&lt;/b&gt;&lt;br&gt;hypothetical protein&lt;br&gt;Location: 8978 - 9911" locus_tag="cds8978_9911" class="clusterblast-orf" id="dummy-1_q0_0_all"  />
<polygon points="19,40 22,40 27,35 22,30 19,30 19,40 " style="fill:white; stroke-width:1; stroke:black; " description="&lt;b&gt;cds9923_10319&lt;/b&gt;&lt;br&gt;hypothetical protein&lt;br&gt;Location: 9923 - 10319" locus_tag="cds9923_10319" class="clusterblast-orf" id="dummy-1_q1_0_all"  />
<polygon points="28,40 34,40 39,35 34,30 28,30 28,40 " style="fill:white; stroke-width:1; stroke:black; " description="&lt;b&gt;cds10355_10928&lt;/b&gt;&lt;br&gt;Aldehyde oxidoreductase iron-sulfur-binding subunit PaoA&lt;br&gt;Location: 10355 - 10928" locus_tag="cds10355_10928" class="clusterblast-orf" id="dummy-1_q2_0_all"  />
<polygon points="39,40 54,40 59,35 54,30 39,30 39,40 " style="fill:white; stroke-width:1; stroke:black; " description="&lt;b&gt;cds10924_11920&lt;/b&gt;&lt;br&gt;Aldehyde oxidoreductase FAD-binding subunit PaoB&lt;br&gt;Location: 10924 - 11920" locus_tag="cds10924_11920" class="clusterblast-orf" id="dummy-1_q3_0_all"  />
<polygon points="60,40 98,40 103,35 98,30 60,30 60,40 " style="fill:white; stroke-width:1; stroke:black; " description="&lt;b&gt;cds11964_14061&lt;/b&gt;&lt;br&gt;Aldehyde oxidoreductase molybdenum-binding subunit PaoC&lt;br&gt;Location: 11964 - 14061" locus_tag="cds11964_14061" class="clusterblast-orf" id="dummy-1_q4_0_all"  />
<polygon points="106,40 111,40 116,35 111,30 106,30 106,40 " style="fill:white; stroke-width:1; stroke:black; " description="&lt;b&gt;cds14213_14729&lt;/b&gt;&lt;br&gt;hypothetical protein&lt;br&gt;Location: 14213 - 14729" locus_tag="cds14213_14729" class="clusterblast-orf" id="dummy-1_q5_0_all"  />
<polygon points="119,40 143,40 148,35 143,30 119,30 119,40 " style="fill:white; stroke-width:1; stroke:black; " description="&lt;b&gt;cds14878_16300&lt;/b&gt;&lt;br&gt;Succinate-semialdehyde dehydrogenase [NADP(+)] 1&lt;br&gt;Location: 14878 - 16300" locus_tag="cds14878_16300" class="clusterblast-orf" id="dummy-1_q6_0_all"  />
<polygon points="149,40 192,40 197,35 192,30 149,30 149,40 " style="fill:white; stroke-width:1; stroke:black; " description="&lt;b&gt;cds16338_18726&lt;/b&gt;&lt;br&gt;Xylulose-5-phosphate phosphoketolase&lt;br&gt;Location: 16338 - 18726" locus_tag="cds16338_18726" class="clusterblast-orf" id="dummy-1_q7_0_all"  />
<polygon points="199,35 204,30 207,30 207,40 204,40 199,35 " style="fill:white; stroke-width:1; stroke:black; " description="&lt;b&gt;cds18808_19216&lt;/b&gt;&lt;br&gt;hypothetical protein&lt;br&gt;Location: 18808 - 19216" locus_tag="cds18808_19216" class="clusterblast-orf" id="dummy-1_q8_0_all"  />
<polygon points="209,35 214,30 232,30 232,40 214,40 209,35 " style="fill:white; stroke-width:1; stroke:black; " description="&lt;b&gt;cds19327_20443&lt;/b&gt;&lt;br&gt;hypothetical protein&lt;br&gt;Location: 19327 - 20443" locus_tag="cds19327_20443" class="clusterblast-orf" id="dummy-1_q9_0_all"  />
<polygon points="235,40 240,40 245,35 240,30 235,30 235,40 " style="fill:white; stroke-width:1; stroke:black; " description="&lt;b&gt;cds20579_21074&lt;/b&gt;&lt;br&gt;hypothetical protein&lt;br&gt;Location: 20579 - 21074" locus_tag="cds20579_21074" class="clusterblast-orf" id="dummy-1_q10_0_all"  />
<polygon points="246,40 268,40 273,35 268,30 246,30 246,40 " style="fill:white; stroke-width:1; stroke:black; " description="&lt;b&gt;cds21138_22491&lt;/b&gt;&lt;br&gt;Glutaminase&lt;br&gt;Location: 21138 - 22491" locus_tag="cds21138_22491" class="clusterblast-orf" id="dummy-1_q11_0_all"  />
<polygon points="278,35 283,30 294,30 294,40 283,40 278,35 " style="fill:white; stroke-width:1; stroke:black; " description="&lt;b&gt;cds22706_23528&lt;/b&gt;&lt;br&gt;Extracellular ribonuclease&lt;br&gt;Location: 22706 - 23528" locus_tag="cds22706_23528" class="clusterblast-orf" id="dummy-1_q12_0_all"  />
<polygon points="298,40 298,40 303,35 298,30 298,30 298,40 " style="fill:white; stroke-width:1; stroke:black; " description="&lt;b&gt;cds23739_23946&lt;/b&gt;&lt;br&gt;hypothetical protein&lt;br&gt;Location: 23739 - 23946" locus_tag="cds23739_23946" class="clusterblast-orf" id="dummy-1_q13_0_all"  />
<polygon points="304,40 323,40 328,35 323,30 304,30 304,40 " style="fill:white; stroke-width:1; stroke:black; " description="&lt;b&gt;cds24016_25174&lt;/b&gt;&lt;br&gt;Ribosomal RNA large subunit methyltransferase G&lt;br&gt;Location: 24016 - 25174" locus_tag="cds24016_25174" class="clusterblast-orf" id="dummy-1_q14_0_all"  />
<polygon points="328,35 333,30 337,30 337,40 333,40 328,35 " style="fill:white; stroke-width:1; stroke:black; " description="&lt;b&gt;cds25180_25636&lt;/b&gt;&lt;br&gt;hypothetical protein&lt;br&gt;Location: 25180 - 25636" locus_tag="cds25180_25636" class="clusterblast-orf" id="dummy-1_q15_0_all"  />
<polygon points="340,40 353,40 358,35 353,30 340,30 340,40 " style="fill:white; stroke-width:1; stroke:black; " description="&lt;b&gt;cds25777_26668&lt;/b&gt;&lt;br&gt;hypothetical protein&lt;br&gt;Location: 25777 - 26668" locus_tag="cds25777_26668" class="clusterblast-orf" id="dummy-1_q16_0_all"  />
<polygon points="358,40 399,40 404,35 399,30 358,30 358,40 " style="fill:white; stroke-width:1; stroke:black; " description="&lt;b&gt;cds26702_28943&lt;/b&gt;&lt;br&gt;Serine/threonine-protein kinase PknD&lt;br&gt;Location: 26702 - 28943" locus_tag="cds26702_28943" class="clusterblast-orf" id="dummy-1_q17_0_all"  />
<polygon points="403,35 408,30 408,30 408,40 408,40 403,35 " style="fill:white; stroke-width:1; stroke:black; " description="&lt;b&gt;cds28891_29173&lt;/b&gt;&lt;br&gt;hypothetical protein&lt;br&gt;Location: 28891 - 29173" locus_tag="cds28891_29173" class="clusterblast-orf" id="dummy-1_q18_0_all"  />
<polygon points="412,40 439,40 444,35 439,30 412,30 412,40 " style="fill:white; stroke-width:1; stroke:black; " description="&lt;b&gt;cds29338_30928&lt;/b&gt;&lt;br&gt;putative protein&lt;br&gt;Location: 29338 - 30928" locus_tag="cds29338_30928" class="clusterblast-orf" id="dummy-1_q19_0_all"  />
<polygon points="446,35 451,30 459,30 459,40 451,40 446,35 " style="fill:white; stroke-width:1; stroke:black; " description="&lt;b&gt;cds31025_31670&lt;/b&gt;&lt;br&gt;hypothetical protein&lt;br&gt;Location: 31025 - 31670" locus_tag="cds31025_31670" class="clusterblast-orf" id="dummy-1_q20_0_all"  />
<polygon points="460,35 465,30 497,30 497,40 465,40 460,35 " style="fill:white; stroke-width:1; stroke:black; " description="&lt;b&gt;cds31697_33560&lt;/b&gt;&lt;br&gt;Putative D-alanyl-D-alanine carboxypeptidase&lt;br&gt;Location: 31697 - 33560" locus_tag="cds31697_33560" class="clusterblast-orf" id="dummy-1_q21_0_all"  />
<polygon points="502,40 529,40 534,35 529,30 502,30 502,40 " style="fill:white; stroke-width:1; stroke:black; " description="&lt;b&gt;cds33790_35350&lt;/b&gt;&lt;br&gt;Long-chain-fatty-acid--CoA ligase&lt;br&gt;Location: 33790 - 35350" locus_tag="cds33790_35350" class="clusterblast-orf" id="dummy-1_q22_0_all"  />
<polygon points="534,40 543,40 548,35 543,30 534,30 534,40 " style="fill:white; stroke-width:1; stroke:black; " description="&lt;b&gt;cds35384_36065&lt;/b&gt;&lt;br&gt;hypothetical protein&lt;br&gt;Location: 35384 - 36065" locus_tag="cds35384_36065" class="clusterblast-orf" id="dummy-1_q23_0_all"  />
<polygon points="550,35 555,30 576,30 576,40 555,40 550,35 " style="fill:white; stroke-width:1; stroke:black; " description="&lt;b&gt;cds36152_37442&lt;/b&gt;&lt;br&gt;Phenylacetate-coenzyme A ligase&lt;br&gt;Location: 36152 - 37442" locus_tag="cds36152_37442" class="clusterblast-orf" id="dummy-1_q24_0_all"  />
<polygon points="578,35 583,30 588,30 588,40 583,40 578,35 " style="fill:white; stroke-width:1; stroke:black; " description="&lt;b&gt;cds37557_38025&lt;/b&gt;&lt;br&gt;hypothetical protein&lt;br&gt;Location: 37557 - 38025" locus_tag="cds37557_38025" class="clusterblast-orf" id="dummy-1_q25_0_all"  />
<polygon points="590,40 597,40 602,35 597,30 590,30 590,40 " style="fill:white; stroke-width:1; stroke:black; " description="&lt;b&gt;cds38153_38738&lt;/b&gt;&lt;br&gt;hypothetical protein&lt;br&gt;Location: 38153 - 38738" locus_tag="cds38153_38738" class="clusterblast-orf" id="dummy-1_q26_0_all"  />
<polygon points="603,40 629,40 634,35 629,30 603,30 603,40 " style="fill:white; stroke-width:1; stroke:black; " description="&lt;b&gt;cds38794_40315&lt;/b&gt;&lt;br&gt;2-succinyl-6-hydroxy-2,4-cyclohexadiene-1-carboxy late synthase&lt;br&gt;Location: 38794 - 40315" locus_tag="cds38794_40315" class="clusterblast-orf" id="dummy-1_q27_0_all"  />
<polygon points="635,35 640,30 668,30 668,40 640,40 635,35 " style="fill:#d81515; stroke-width:1; stroke:black; " description="&lt;b&gt;cds40354_41992&lt;/b&gt;&lt;br&gt;4-methyl-5-nitrocatechol 5-monooxygenase&lt;br&gt;Location: 40354 - 41992" locus_tag="cds40354_41992" class="clusterblast-orf" id="dummy-1_q28_0_all"  />
<polygon points="673,40 691,40 696,35 691,30 673,30 673,40 " style="fill:#77d815; stroke-width:1; stroke:black; " description="&lt;b&gt;cds42263_43382&lt;/b&gt;&lt;br&gt;hypothetical protein&lt;br&gt;Location: 42263 - 43382" locus_tag="cds42263_43382" class="clusterblast-orf" id="dummy-1_q29_0_all"  />
<polygon points="697,40 701,40 706,35 701,30 697,30 697,40 " style="fill:#15d8d8; stroke-width:1; stroke:black; " description="&lt;b&gt;cds43450_43885&lt;/b&gt;&lt;br&gt;hypothetical protein&lt;br&gt;Location: 43450 - 43885" locus_tag="cds43450_43885" class="clusterblast-orf" id="dummy-1_q30_0_all"  />
<polygon points="706,40 727,40 732,35 727,30 706,30 706,40 " style="fill:#7715d8; stroke-width:1; stroke:black; " description="&lt;b&gt;cds43881_45150&lt;/b&gt;&lt;br&gt;Actinorhodin polyketide putative beta-ketoacyl synthase 1&lt;br&gt;Location: 43881 - 45150" locus_tag="cds43881_45150" class="clusterblast-orf" id="dummy-1_q31_0_all"  />
<polygon points="732,40 752,40 757,35 752,30 732,30 732,40 " style="fill:#d8a715; stroke-width:1; stroke:black; " description="&lt;b&gt;cds45146_46406&lt;/b&gt;&lt;br&gt;Actinorhodin polyketide putative beta-ketoacyl synthase 2&lt;br&gt;Location: 45146 - 46406" locus_tag="cds45146_46406" class="clusterblast-orf" id="dummy-1_q32_0_all"  />
<polygon points="758,40 758,40 763,35 758,30 758,30 758,40 " style="fill:#15d846; stroke-width:1; stroke:black; " description="&lt;b&gt;cds46422_46680&lt;/b&gt;&lt;br&gt;hypothetical protein&lt;br&gt;Location: 46422 - 46680" locus_tag="cds46422_46680" class="clusterblast-orf" id="dummy-1_q33_0_all"  />
<polygon points="763,40 768,40 773,35 768,30 763,30 763,40 " style="fill:#1546d8; stroke-width:1; stroke:black; " description="&lt;b&gt;cds46681_47161&lt;/b&gt;&lt;br&gt;Putative polyketide cyclase&lt;br&gt;Location: 46681 - 47161" locus_tag="cds46681_47161" class="clusterblast-orf" id="dummy-1_q34_0_all"  />
<polygon points="773,40 775,40 780,35 775,30 773,30 773,40 " style="fill:#d815a7; stroke-width:1; stroke:black; " description="&lt;b&gt;cds47180_47513&lt;/b&gt;&lt;br&gt;Tetracenomycin F2 cyclase&lt;br&gt;Location: 47180 - 47513" locus_tag="cds47180_47513" class="clusterblast-orf" id="dummy-1_q35_0_all"  />
</g>
<g label="BGC0001376" description="BGC0001376_c1: WS79089A / hexaricin B / hexaricin C (18% of genes show similarity), Polyketide" class="clusterblast-cluster"  >
<text x="5" y="70" class="clusterblast-acc"  >
<a xlink:href="https://mibig.secondarymetabolites.org/go/BGC0001376/1" target="_blank">BGC0001376</a>:                                             WS79089A / hexaricin B / hexaricin C (18% of genes show similarity), Polyketide</text>
<line x1="10" y1="85" x2="778.0" y2="85" style="stroke-width:1; stroke:grey; "  />
</g>
<g id="a1_000"  >
<polygon points="36,85 41,80 45,80 45,90 41,90 36,85 " style="fill:white; stroke-width:1; stroke:black; " description="&lt;b&gt;AMK51290.1&lt;/b&gt;&lt;br&gt;Hex33&lt;br&gt;Location: 35281 - 34826" locus_tag="AMK51290.1" class="clusterblast-orf" id="dummy-1_h1_4_0"  />
</g>
<g id="a1_001"  >
<polygon points="45,85 50,80 63,80 63,90 50,90 45,85 " style="fill:white; stroke-width:1; stroke:black; " description="&lt;b&gt;AMK51289.1&lt;/b&gt;&lt;br&gt;Hex32&lt;br&gt;Location: 34820 - 33963" locus_tag="AMK51289.1" class="clusterblast-orf" id="dummy-1_h1_4_1"  />
</g>
<g id="a1_002"  >
<polygon points="64,85 69,80 72,80 72,90 69,90 64,85 " style="fill:white; stroke-width:1; stroke:black; " description="&lt;b&gt;AMK51288.1&lt;/b&gt;&lt;br&gt;Hex31&lt;br&gt;Location: 33886 - 33506" locus_tag="AMK51288.1" class="clusterblast-orf" id="dummy-1_h1_4_2"  />
</g>
<g id="a1_003"  >
<polygon points="72,85 77,80 87,80 87,90 77,90 72,85 " style="fill:white; stroke-width:1; stroke:black; " description="&lt;b&gt;AMK51287.1&lt;/b&gt;&lt;br&gt;Hex30&lt;br&gt;Location: 33506 - 32769" locus_tag="AMK51287.1" class="clusterblast-orf" id="dummy-1_h1_4_3"  />
</g>
<g id="a1_004"  >
<polygon points="98,90 108,90 113,85 108,80 98,80 98,90 " style="fill:white; stroke-width:1; stroke:black; " description="&lt;b&gt;AMK51286.1&lt;/b&gt;&lt;br&gt;Hex29&lt;br&gt;Location: 32198 - 31458" locus_tag="AMK51286.1" class="clusterblast-orf" id="dummy-1_h1_4_4"  />
</g>
<g id="a1_005"  >
<polygon points="114,90 143,90 148,85 143,80 114,80 114,90 " style="fill:white; stroke-width:1; stroke:black; " description="&lt;b&gt;AMK51285.1&lt;/b&gt;&lt;br&gt;Hex28&lt;br&gt;Location: 31443 - 29755" locus_tag="AMK51285.1" class="clusterblast-orf" id="dummy-1_h1_4_5"  />
</g>
<g id="a1_006"  >
<polygon points="148,85 153,80 166,80 166,90 153,90 148,85 " style="fill:white; stroke-width:1; stroke:black; " description="&lt;b&gt;AMK51284.1&lt;/b&gt;&lt;br&gt;Hex27&lt;br&gt;Location: 29752 - 28874" locus_tag="AMK51284.1" class="clusterblast-orf" id="dummy-1_h1_4_6"  />
</g>
<g id="a1_007"  >
<polygon points="173,90 175,90 180,85 175,80 173,80 173,90 " style="fill:#d815a7; stroke-width:1; stroke:black; " description="&lt;b&gt;AMK51283.1&lt;/b&gt;&lt;br&gt;Hex26&lt;br&gt;Location: 28515 - 28189&lt;br&gt;&lt;br&gt;&lt;b&gt;BlastP hit with cds47180_47513&lt;/b&gt;&lt;br&gt;Percentage identity: 52&lt;br&gt;Percentage coverage: 98&lt;br&gt;BLAST bit score: 123&lt;br&gt;E-value: 2.3e-28" locus_tag="AMK51283.1" class="clusterblast-orf" id="dummy-1_h1_4_7"  />
</g>
<g id="a1_008"  >
<polygon points="179,90 184,90 189,85 184,80 179,80 179,90 " style="fill:#15d8d8; stroke-width:1; stroke:black; " description="&lt;b&gt;AMK51282.1&lt;/b&gt;&lt;br&gt;Hex25&lt;br&gt;Location: 28196 - 27744&lt;br&gt;&lt;br&gt;&lt;b&gt;BlastP hit with cds43450_43885&lt;/b&gt;&lt;br&gt;Percentage identity: 54&lt;br&gt;Percentage coverage: 85&lt;br&gt;BLAST bit score: 141&lt;br&gt;E-value: 1.1e-33" locus_tag="AMK51282.1" class="clusterblast-orf" id="dummy-1_h1_4_8"  />
</g>
<g id="a1_009"  >
<polygon points="189,90 209,90 214,85 209,80 189,80 189,90 " style="fill:#7715d8; stroke-width:1; stroke:black; " description="&lt;b&gt;AMK51281.1&lt;/b&gt;&lt;br&gt;Hex24&lt;br&gt;Location: 27744 - 26476&lt;br&gt;&lt;br&gt;&lt;b&gt;BlastP hit with cds43881_45150&lt;/b&gt;&lt;br&gt;Percentage identity: 65&lt;br&gt;Percentage coverage: 98&lt;br&gt;BLAST bit score: 525&lt;br&gt;E-value: 1e-148" locus_tag="AMK51281.1" class="clusterblast-orf" id="dummy-1_h1_4_9"  />
</g>
<g id="a1_0010"  >
<polygon points="214,90 234,90 239,85 234,80 214,80 214,90 " style="fill:#d8a715; stroke-width:1; stroke:black; " description="&lt;b&gt;AMK51280.1&lt;/b&gt;&lt;br&gt;Hex23&lt;br&gt;Location: 26479 - 25259&lt;br&gt;&lt;br&gt;&lt;b&gt;BlastP hit with cds45146_46406&lt;/b&gt;&lt;br&gt;Percentage identity: 49&lt;br&gt;Percentage coverage: 98&lt;br&gt;BLAST bit score: 341&lt;br&gt;E-value: 2.7e-93" locus_tag="AMK51280.1" class="clusterblast-orf" id="dummy-1_h1_4_10"  />
</g>
<g id="a1_0011"  >
<polygon points="239,90 239,90 244,85 239,80 239,80 239,90 " style="fill:white; stroke-width:1; stroke:black; " description="&lt;b&gt;AMK51279.1&lt;/b&gt;&lt;br&gt;Hex22&lt;br&gt;Location: 25247 - 24987" locus_tag="AMK51279.1" class="clusterblast-orf" id="dummy-1_h1_4_11"  />
</g>
<g id="a1_0012"  >
<polygon points="246,90 250,90 255,85 250,80 246,80 246,90 " style="fill:#1546d8; stroke-width:1; stroke:black; " description="&lt;b&gt;AMK51278.1&lt;/b&gt;&lt;br&gt;Hex21&lt;br&gt;Location: 24926 - 24444&lt;br&gt;&lt;br&gt;&lt;b&gt;BlastP hit with cds46681_47161&lt;/b&gt;&lt;br&gt;Percentage identity: 60&lt;br&gt;Percentage coverage: 91&lt;br&gt;BLAST bit score: 198&lt;br&gt;E-value: 8.1e-51" locus_tag="AMK51278.1" class="clusterblast-orf" id="dummy-1_h1_4_12"  />
</g>
<g id="a1_0013"  >
<polygon points="255,90 260,90 265,85 260,80 255,80 255,90 " style="fill:white; stroke-width:1; stroke:black; " description="&lt;b&gt;AMK51277.1&lt;/b&gt;&lt;br&gt;Hex20&lt;br&gt;Location: 24447 - 23974" locus_tag="AMK51277.1" class="clusterblast-orf" id="dummy-1_h1_4_13"  />
</g>
<g id="a1_0014"  >
<polygon points="266,90 276,90 281,85 276,80 266,80 266,90 " style="fill:white; stroke-width:1; stroke:black; " description="&lt;b&gt;AMK51276.1&lt;/b&gt;&lt;br&gt;Hex19&lt;br&gt;Location: 23924 - 23193" locus_tag="AMK51276.1" class="clusterblast-orf" id="dummy-1_h1_4_14"  />
</g>
<g id="a1_0015"  >
<polygon points="281,90 309,90 314,85 309,80 281,80 281,90 " style="fill:#d81515; stroke-width:1; stroke:black; " description="&lt;b&gt;AMK51275.1&lt;/b&gt;&lt;br&gt;Hex18&lt;br&gt;Location: 23193 - 21568&lt;br&gt;&lt;br&gt;&lt;b&gt;BlastP hit with cds40354_41992&lt;/b&gt;&lt;br&gt;Percentage identity: 46&lt;br&gt;Percentage coverage: 99&lt;br&gt;BLAST bit score: 413&lt;br&gt;E-value: 4.2e-115" locus_tag="AMK51275.1" class="clusterblast-orf" id="dummy-1_h1_4_15"  />
</g>
<g id="a1_0016"  >
<polygon points="314,90 323,90 328,85 323,80 314,80 314,90 " style="fill:white; stroke-width:1; stroke:black; " description="&lt;b&gt;AMK51274.1&lt;/b&gt;&lt;br&gt;Hex17&lt;br&gt;Location: 21565 - 20867" locus_tag="AMK51274.1" class="clusterblast-orf" id="dummy-1_h1_4_16"  />
</g>
<g id="a1_0017"  >
<polygon points="332,90 358,90 363,85 358,80 332,80 332,90 " style="fill:white; stroke-width:1; stroke:black; " description="&lt;b&gt;AMK51273.1&lt;/b&gt;&lt;br&gt;Hex16&lt;br&gt;Location: 20670 - 19144" locus_tag="AMK51273.1" class="clusterblast-orf" id="dummy-1_h1_4_17"  />
</g>
<g id="a1_0018"  >
<polygon points="366,90 388,90 393,85 388,80 366,80 366,90 " style="fill:white; stroke-width:1; stroke:black; " description="&lt;b&gt;AMK51272.1&lt;/b&gt;&lt;br&gt;Hex15&lt;br&gt;Location: 18969 - 17629" locus_tag="AMK51272.1" class="clusterblast-orf" id="dummy-1_h1_4_18"  />
</g>
<g id="a1_0019"  >
<polygon points="396,90 412,90 417,85 412,80 396,80 396,90 " style="fill:white; stroke-width:1; stroke:black; " description="&lt;b&gt;AMK51271.1&lt;/b&gt;&lt;br&gt;Hex14&lt;br&gt;Location: 17521 - 16484" locus_tag="AMK51271.1" class="clusterblast-orf" id="dummy-1_h1_4_19"  />
</g>
<g id="a1_0020"  >
<polygon points="419,90 442,90 447,85 442,80 419,80 419,90 " style="fill:white; stroke-width:1; stroke:black; " description="&lt;b&gt;AMK51270.1&lt;/b&gt;&lt;br&gt;Hex13&lt;br&gt;Location: 16375 - 14963" locus_tag="AMK51270.1" class="clusterblast-orf" id="dummy-1_h1_4_20"  />
</g>
<g id="a1_0021"  >
<polygon points="453,85 458,80 473,80 473,90 458,90 453,85 " style="fill:white; stroke-width:1; stroke:black; " description="&lt;b&gt;AMK51269.1&lt;/b&gt;&lt;br&gt;Hex12&lt;br&gt;Location: 14680 - 13679" locus_tag="AMK51269.1" class="clusterblast-orf" id="dummy-1_h1_4_21"  />
</g>
<g id="a1_0022"  >
<polygon points="482,90 495,90 500,85 495,80 482,80 482,90 " style="fill:white; stroke-width:1; stroke:black; " description="&lt;b&gt;AMK51268.1&lt;/b&gt;&lt;br&gt;Hex11&lt;br&gt;Location: 13234 - 12377" locus_tag="AMK51268.1" class="clusterblast-orf" id="dummy-1_h1_4_22"  />
</g>
<g id="a1_0023"  >
<polygon points="500,90 520,90 525,85 520,80 500,80 500,90 " style="fill:white; stroke-width:1; stroke:black; " description="&lt;b&gt;AMK51267.1&lt;/b&gt;&lt;br&gt;Hex10&lt;br&gt;Location: 12363 - 11116" locus_tag="AMK51267.1" class="clusterblast-orf" id="dummy-1_h1_4_23"  />
</g>
<g id="a1_0024"  >
<polygon points="525,90 541,90 546,85 541,80 525,80 525,90 " style="fill:white; stroke-width:1; stroke:black; " description="&lt;b&gt;AMK51266.1&lt;/b&gt;&lt;br&gt;Hex9&lt;br&gt;Location: 11101 - 10088" locus_tag="AMK51266.1" class="clusterblast-orf" id="dummy-1_h1_4_24"  />
</g>
<g id="a1_0025"  >
<polygon points="549,90 561,90 566,85 561,80 549,80 549,90 " style="fill:white; stroke-width:1; stroke:black; " description="&lt;b&gt;AMK51265.1&lt;/b&gt;&lt;br&gt;Hex8&lt;br&gt;Location: 9937 - 9092" locus_tag="AMK51265.1" class="clusterblast-orf" id="dummy-1_h1_4_25"  />
</g>
<g id="a1_0026"  >
<polygon points="566,85 571,80 587,80 587,90 571,90 566,85 " style="fill:white; stroke-width:1; stroke:black; " description="&lt;b&gt;AMK51264.1&lt;/b&gt;&lt;br&gt;Hex7&lt;br&gt;Location: 9080 - 8046" locus_tag="AMK51264.1" class="clusterblast-orf" id="dummy-1_h1_4_26"  />
</g>
<g id="a1_0027"  >
<polygon points="596,90 629,90 634,85 629,80 596,80 596,90 " style="fill:white; stroke-width:1; stroke:black; " description="&lt;b&gt;AMK51263.1&lt;/b&gt;&lt;br&gt;Hex6&lt;br&gt;Location: 7604 - 5745" locus_tag="AMK51263.1" class="clusterblast-orf" id="dummy-1_h1_4_27"  />
</g>
<g id="a1_0028"  >
<polygon points="634,90 641,90 646,85 641,80 634,80 634,90 " style="fill:white; stroke-width:1; stroke:black; " description="&lt;b&gt;AMK51262.1&lt;/b&gt;&lt;br&gt;Hex5&lt;br&gt;Location: 5724 - 5125" locus_tag="AMK51262.1" class="clusterblast-orf" id="dummy-1_h1_4_28"  />
</g>
<g id="a1_0029"  >
<polygon points="648,90 672,90 677,85 672,80 648,80 648,90 " style="fill:white; stroke-width:1; stroke:black; " description="&lt;b&gt;AMK51261.1&lt;/b&gt;&lt;br&gt;Hex4&lt;br&gt;Location: 5066 - 3594" locus_tag="AMK51261.1" class="clusterblast-orf" id="dummy-1_h1_4_29"  />
</g>
<g id="a1_0030"  >
<polygon points="684,85 689,80 691,80 691,90 689,90 684,85 " style="fill:white; stroke-width:1; stroke:black; " description="&lt;b&gt;AMK51260.1&lt;/b&gt;&lt;br&gt;Hex3&lt;br&gt;Location: 3271 - 2915" locus_tag="AMK51260.1" class="clusterblast-orf" id="dummy-1_h1_4_30"  />
</g>
<g id="a1_0031"  >
<polygon points="691,85 696,80 697,80 697,90 696,90 691,85 " style="fill:white; stroke-width:1; stroke:black; " description="&lt;b&gt;AMK51259.1&lt;/b&gt;&lt;br&gt;Hex2&lt;br&gt;Location: 2915 - 2604" locus_tag="AMK51259.1" class="clusterblast-orf" id="dummy-1_h1_4_31"  />
</g>
<g id="a1_0032"  >
<polygon points="705,85 710,80 743,80 743,90 710,90 705,85 " style="fill:white; stroke-width:1; stroke:black; " description="&lt;b&gt;AMK51258.1&lt;/b&gt;&lt;br&gt;Hex1&lt;br&gt;Location: 2223 - 358" locus_tag="AMK51258.1" class="clusterblast-orf" id="dummy-1_h1_4_32"  />
</g>
</svg>
