<svg xmlns="http://www.w3.org/2000/svg" xmlns:xlink="http://www.w3.org/1999/xlink" version="1.1" x="0" y="0" height="230" width="800" viewBox="0 0 800 230" preserveAspectRatio="none"  >
<g label="Query sequence" class="clusterblast-cluster"  >
<text x="5" y="20" class="clusterblast-acc"  >
Query sequence</text>
<line x1="10" y1="35" x2="778.0" y2="35" style="stroke-width:1; stroke:grey; "  />
<polygon points="217,40 224,40 229,35 224,30 217,30 217,40 " style="fill:white; stroke-width:1; stroke:black; " description="&lt;b&gt;cds188_1109&lt;/b&gt;&lt;br&gt;hypothetical protein&lt;br&gt;Location: 188 - 1109" locus_tag="cds188_1109" class="clusterblast-orf" id="dummy-1_q0_0_all"  />
<polygon points="227,35 232,30 234,30 234,40 232,40 227,35 " style="fill:#d81515; stroke-width:1; stroke:black; " description="&lt;b&gt;cds970_1519&lt;/b&gt;&lt;br&gt;FMN reductase (NADH) NtaB&lt;br&gt;Location: 970 - 1519" locus_tag="cds970_1519" class="clusterblast-orf" id="dummy-1_q1_0_all"  />
<polygon points="234,35 239,30 240,30 240,40 239,40 234,35 " style="fill:#4dd815; stroke-width:1; stroke:black; " description="&lt;b&gt;cds1515_1989&lt;/b&gt;&lt;br&gt;hypothetical protein&lt;br&gt;Location: 1515 - 1989" locus_tag="cds1515_1989" class="clusterblast-orf" id="dummy-1_q2_0_all"  />
<polygon points="240,35 245,30 316,30 316,40 245,40 240,35 " style="fill:#1585d8; stroke-width:1; stroke:black; " description="&lt;b&gt;cds1985_7793&lt;/b&gt;&lt;br&gt;hypothetical protein&lt;br&gt;Location: 1985 - 7793" locus_tag="cds1985_7793" class="clusterblast-orf" id="dummy-1_q3_0_all"  />
<polygon points="316,35 321,30 330,30 330,40 321,40 316,35 " style="fill:#a115d8; stroke-width:1; stroke:black; " description="&lt;b&gt;cds7789_8875&lt;/b&gt;&lt;br&gt;hypothetical protein&lt;br&gt;Location: 7789 - 8875" locus_tag="cds7789_8875" class="clusterblast-orf" id="dummy-1_q4_0_all"  />
<polygon points="330,35 335,30 355,30 355,40 335,40 330,35 " style="fill:#d86915; stroke-width:1; stroke:black; " description="&lt;b&gt;cds8876_10805&lt;/b&gt;&lt;br&gt;hypothetical protein&lt;br&gt;Location: 8876 - 10805" locus_tag="cds8876_10805" class="clusterblast-orf" id="dummy-1_q5_0_all"  />
<polygon points="355,35 360,30 368,30 368,40 360,40 355,35 " style="fill:#15d831; stroke-width:1; stroke:black; " description="&lt;b&gt;cds10801_11788&lt;/b&gt;&lt;br&gt;hypothetical protein&lt;br&gt;Location: 10801 - 11788" locus_tag="cds10801_11788" class="clusterblast-orf" id="dummy-1_q6_0_all"  />
<polygon points="370,35 375,30 382,30 382,40 375,40 370,35 " style="fill:#1531d8; stroke-width:1; stroke:black; " description="&lt;b&gt;cds11883_12864&lt;/b&gt;&lt;br&gt;hypothetical protein&lt;br&gt;Location: 11883 - 12864" locus_tag="cds11883_12864" class="clusterblast-orf" id="dummy-1_q7_0_all"  />
<polygon points="384,35 389,30 390,30 390,40 389,40 384,35 " style="fill:#d815bc; stroke-width:1; stroke:black; " description="&lt;b&gt;cds13002_13446&lt;/b&gt;&lt;br&gt;putative HTH-type transcriptional regulator&lt;br&gt;Location: 13002 - 13446" locus_tag="cds13002_13446" class="clusterblast-orf" id="dummy-1_q8_0_all"  />
<polygon points="392,40 394,40 399,35 394,30 392,30 392,40 " style="fill:#d8bc15; stroke-width:1; stroke:black; " description="&lt;b&gt;cds13584_14148&lt;/b&gt;&lt;br&gt;hypothetical protein&lt;br&gt;Location: 13584 - 14148" locus_tag="cds13584_14148" class="clusterblast-orf" id="dummy-1_q9_0_all"  />
<polygon points="399,40 400,40 405,35 400,30 399,30 399,40 " style="fill:#15d885; stroke-width:1; stroke:black; " description="&lt;b&gt;cds14158_14632&lt;/b&gt;&lt;br&gt;hypothetical protein&lt;br&gt;Location: 14158 - 14632" locus_tag="cds14158_14632" class="clusterblast-orf" id="dummy-1_q10_0_all"  />
<polygon points="409,35 414,30 425,30 425,40 414,40 409,35 " style="fill:#4d15d8; stroke-width:1; stroke:black; " description="&lt;b&gt;cds14902_16138&lt;/b&gt;&lt;br&gt;IS701 family transposase ISSav4&lt;br&gt;Location: 14902 - 16138" locus_tag="cds14902_16138" class="clusterblast-orf" id="dummy-1_q11_0_all"  />
<polygon points="429,40 432,40 437,35 432,30 429,30 429,40 " style="fill:white; stroke-width:1; stroke:black; " description="&lt;b&gt;cds16456_17056&lt;/b&gt;&lt;br&gt;A-factor receptor protein&lt;br&gt;Location: 16456 - 17056" locus_tag="cds16456_17056" class="clusterblast-orf" id="dummy-1_q12_0_all"  />
<polygon points="439,35 444,30 449,30 449,40 444,40 439,35 " style="fill:white; stroke-width:1; stroke:black; " description="&lt;b&gt;cds17181_17952&lt;/b&gt;&lt;br&gt;A-factor type gamma-butyrolactone 1'-reductase (1S-forming)&lt;br&gt;Location: 17181 - 17952" locus_tag="cds17181_17952" class="clusterblast-orf" id="dummy-1_q13_0_all"  />
<polygon points="451,35 456,30 460,30 460,40 456,40 451,35 " style="fill:white; stroke-width:1; stroke:black; " description="&lt;b&gt;cds18115_18766&lt;/b&gt;&lt;br&gt;A-factor receptor protein&lt;br&gt;Location: 18115 - 18766" locus_tag="cds18115_18766" class="clusterblast-orf" id="dummy-1_q14_0_all"  />
<polygon points="461,40 468,40 473,35 468,30 461,30 461,40 " style="fill:white; stroke-width:1; stroke:black; " description="&lt;b&gt;cds18885_19803&lt;/b&gt;&lt;br&gt;hypothetical protein&lt;br&gt;Location: 18885 - 19803" locus_tag="cds18885_19803" class="clusterblast-orf" id="dummy-1_q15_0_all"  />
<polygon points="478,40 491,40 496,35 491,30 478,30 478,40 " style="fill:#d81569; stroke-width:1; stroke:black; " description="&lt;b&gt;cds20145_21585&lt;/b&gt;&lt;br&gt;hypothetical protein&lt;br&gt;Location: 20145 - 21585" locus_tag="cds20145_21585" class="clusterblast-orf" id="dummy-1_q16_0_all"  />
<polygon points="499,35 504,30 505,30 505,40 504,40 499,35 " style="fill:white; stroke-width:1; stroke:black; " description="&lt;b&gt;cds21807_22245&lt;/b&gt;&lt;br&gt;hypothetical protein&lt;br&gt;Location: 21807 - 22245" locus_tag="cds21807_22245" class="clusterblast-orf" id="dummy-1_q17_0_all"  />
<polygon points="506,35 511,30 518,30 518,40 511,40 506,35 " style="fill:#a1d815; stroke-width:1; stroke:black; " description="&lt;b&gt;cds22347_23226&lt;/b&gt;&lt;br&gt;hypothetical protein&lt;br&gt;Location: 22347 - 23226" locus_tag="cds22347_23226" class="clusterblast-orf" id="dummy-1_q18_0_all"  />
<polygon points="523,35 528,30 528,30 528,40 528,40 523,35 " style="fill:#15d8d8; stroke-width:1; stroke:black; " description="&lt;b&gt;cds23601_24003&lt;/b&gt;&lt;br&gt;hypothetical protein&lt;br&gt;Location: 23601 - 24003" locus_tag="cds23601_24003" class="clusterblast-orf" id="dummy-1_q19_0_all"  />
<polygon points="528,35 533,30 548,30 548,40 533,40 528,35 " style="fill:#d81569; stroke-width:1; stroke:black; " description="&lt;b&gt;cds23999_25532&lt;/b&gt;&lt;br&gt;hypothetical protein&lt;br&gt;Location: 23999 - 25532" locus_tag="cds23999_25532" class="clusterblast-orf" id="dummy-1_q20_0_all"  />
<polygon points="548,35 553,30 563,30 563,40 553,40 548,35 " style="fill:white; stroke-width:1; stroke:black; " description="&lt;b&gt;cds25521_26649&lt;/b&gt;&lt;br&gt;hypothetical protein&lt;br&gt;Location: 25521 - 26649" locus_tag="cds25521_26649" class="clusterblast-orf" id="dummy-1_q21_0_all"  />
</g>
<g label="BGC0000150" description="BGC0000150_c1: sporolide A / sporolide B (12% of genes show similarity), NRP + Polyketide:Enediyne type I" class="clusterblast-cluster"  >
<text x="5" y="70" class="clusterblast-acc"  >
<a xlink:href="https://mibig.secondarymetabolites.org/go/BGC0000150/1" target="_blank">BGC0000150</a>:                                                        sporolide A / sporolide B (12% of genes show similarity), NRP + Polyketide:Enediyne type I</text>
<line x1="10" y1="85" x2="778.0" y2="85" style="stroke-width:1; stroke:grey; "  />
</g>
<g id="a1_000"  >
<polygon points="0,85 4,80 4,90 0,85 " style="fill:white; stroke-width:1; stroke:black; " description="&lt;b&gt;Strop_2691&lt;/b&gt;&lt;br&gt;hypothetical protein&lt;br&gt;Location: 1 - 330" locus_tag="Strop_2691" class="clusterblast-orf" id="dummy-1_h1_7_0"  />
</g>
<g id="a1_001"  >
<polygon points="5,85 10,80 13,80 13,90 10,90 5,85 " style="fill:white; stroke-width:1; stroke:black; " description="&lt;b&gt;Strop_2692&lt;/b&gt;&lt;br&gt;transcriptional regulator&lt;br&gt;Location: 434 - 1066" locus_tag="Strop_2692" class="clusterblast-orf" id="dummy-1_h1_7_1"  />
</g>
<g id="a1_002"  >
<polygon points="20,90 25,90 30,85 25,80 20,80 20,90 " style="fill:white; stroke-width:1; stroke:black; " description="&lt;b&gt;Strop_2693&lt;/b&gt;&lt;br&gt;transcriptional regulator, AraC family&lt;br&gt;Location: 1558 - 2343" locus_tag="Strop_2693" class="clusterblast-orf" id="dummy-1_h1_7_2"  />
</g>
<g id="a1_003"  >
<polygon points="32,85 37,80 50,80 50,90 37,90 32,85 " style="fill:white; stroke-width:1; stroke:black; " description="&lt;b&gt;Strop_2694&lt;/b&gt;&lt;br&gt;cytochrome P450&lt;br&gt;Location: 2515 - 3873" locus_tag="Strop_2694" class="clusterblast-orf" id="dummy-1_h1_7_3"  />
</g>
<g id="a1_004"  >
<polygon points="50,85 55,80 57,80 57,90 55,90 50,85 " style="fill:#d81515; stroke-width:1; stroke:black; " description="&lt;b&gt;Strop_2695&lt;/b&gt;&lt;br&gt;flavin reductase domain protein, FMN-binding&lt;br&gt;Location: 3870 - 4406&lt;br&gt;&lt;br&gt;&lt;b&gt;BlastP hit with cds970_1519&lt;/b&gt;&lt;br&gt;Percentage identity: 58&lt;br&gt;Percentage coverage: 88&lt;br&gt;BLAST bit score: 191&lt;br&gt;E-value: 1.1e-48" locus_tag="Strop_2695" class="clusterblast-orf" id="dummy-1_h1_7_4"  />
</g>
<g id="a1_005"  >
<polygon points="57,85 62,80 63,80 63,90 62,90 57,85 " style="fill:white; stroke-width:1; stroke:black; " description="&lt;b&gt;Strop_2696&lt;/b&gt;&lt;br&gt;hypothetical protein&lt;br&gt;Location: 4406 - 4870" locus_tag="Strop_2696" class="clusterblast-orf" id="dummy-1_h1_7_5"  />
</g>
<g id="a1_006"  >
<polygon points="63,85 68,80 139,80 139,90 68,90 63,85 " style="fill:#1585d8; stroke-width:1; stroke:black; " description="&lt;b&gt;Strop_2697&lt;/b&gt;&lt;br&gt;beta-ketoacyl synthase&lt;br&gt;Location: 4876 - 10647&lt;br&gt;&lt;br&gt;&lt;b&gt;BlastP hit with cds1985_7793&lt;/b&gt;&lt;br&gt;Percentage identity: 65&lt;br&gt;Percentage coverage: 100&lt;br&gt;BLAST bit score: 2365&lt;br&gt;E-value: 0.0" locus_tag="Strop_2697" class="clusterblast-orf" id="dummy-1_h1_7_6"  />
</g>
<g id="a1_007"  >
<polygon points="139,85 144,80 151,80 151,90 144,90 139,85 " style="fill:#a115d8; stroke-width:1; stroke:black; " description="&lt;b&gt;Strop_2698&lt;/b&gt;&lt;br&gt;hypothetical protein&lt;br&gt;Location: 10644 - 11630&lt;br&gt;&lt;br&gt;&lt;b&gt;BlastP hit with cds7789_8875&lt;/b&gt;&lt;br&gt;Percentage identity: 67&lt;br&gt;Percentage coverage: 89&lt;br&gt;BLAST bit score: 432&lt;br&gt;E-value: 5.8e-121" locus_tag="Strop_2698" class="clusterblast-orf" id="dummy-1_h1_7_7"  />
</g>
<g id="a1_008"  >
<polygon points="152,85 157,80 177,80 177,90 157,90 152,85 " style="fill:#d86915; stroke-width:1; stroke:black; " description="&lt;b&gt;Strop_2699&lt;/b&gt;&lt;br&gt;ASPIC/UnbV domain protein&lt;br&gt;Location: 11636 - 13603&lt;br&gt;&lt;br&gt;&lt;b&gt;BlastP hit with cds8876_10805&lt;/b&gt;&lt;br&gt;Percentage identity: 58&lt;br&gt;Percentage coverage: 103&lt;br&gt;BLAST bit score: 790&lt;br&gt;E-value: 1.9e-228" locus_tag="Strop_2699" class="clusterblast-orf" id="dummy-1_h1_7_8"  />
</g>
<g id="a1_009"  >
<polygon points="177,85 182,80 190,80 190,90 182,90 177,85 " style="fill:#15d831; stroke-width:1; stroke:black; " description="&lt;b&gt;Strop_2700&lt;/b&gt;&lt;br&gt;protein of unknown function DUF1702&lt;br&gt;Location: 13607 - 14605&lt;br&gt;&lt;br&gt;&lt;b&gt;BlastP hit with cds10801_11788&lt;/b&gt;&lt;br&gt;Percentage identity: 49&lt;br&gt;Percentage coverage: 98&lt;br&gt;BLAST bit score: 303&lt;br&gt;E-value: 4.8e-82" locus_tag="Strop_2700" class="clusterblast-orf" id="dummy-1_h1_7_9"  />
</g>
<g id="a1_0010"  >
<polygon points="193,85 198,80 205,80 205,90 198,90 193,85 " style="fill:#1531d8; stroke-width:1; stroke:black; " description="&lt;b&gt;Strop_2701&lt;/b&gt;&lt;br&gt;protein of unknown function DUF1702&lt;br&gt;Location: 14788 - 15765&lt;br&gt;&lt;br&gt;&lt;b&gt;BlastP hit with cds11883_12864&lt;/b&gt;&lt;br&gt;Percentage identity: 62&lt;br&gt;Percentage coverage: 100&lt;br&gt;BLAST bit score: 398&lt;br&gt;E-value: 1.1e-110" locus_tag="Strop_2701" class="clusterblast-orf" id="dummy-1_h1_7_10"  />
</g>
<g id="a1_0011"  >
<polygon points="209,90 218,90 223,85 218,80 209,80 209,90 " style="fill:white; stroke-width:1; stroke:black; " description="&lt;b&gt;Strop_2702&lt;/b&gt;&lt;br&gt;NAD-dependent epimerase/dehydratase&lt;br&gt;Location: 16054 - 17118" locus_tag="Strop_2702" class="clusterblast-orf" id="dummy-1_h1_7_11"  />
</g>
<g id="a1_0012"  >
<polygon points="222,85 227,80 236,80 236,90 227,90 222,85 " style="fill:white; stroke-width:1; stroke:black; " description="&lt;b&gt;Strop_2703&lt;/b&gt;&lt;br&gt;alkylhydroperoxidase like protein, AhpD family&lt;br&gt;Location: 17042 - 18124" locus_tag="Strop_2703" class="clusterblast-orf" id="dummy-1_h1_7_12"  />
</g>
<g id="a1_0013"  >
<polygon points="237,85 242,80 259,80 259,90 242,90 237,85 " style="fill:white; stroke-width:1; stroke:black; " description="&lt;b&gt;Strop_2704&lt;/b&gt;&lt;br&gt;glucose-methanol-choline oxidoreductase&lt;br&gt;Location: 18207 - 19859" locus_tag="Strop_2704" class="clusterblast-orf" id="dummy-1_h1_7_13"  />
</g>
<g id="a1_0014"  >
<polygon points="259,85 264,80 266,80 266,90 264,90 259,85 " style="fill:white; stroke-width:1; stroke:black; " description="&lt;b&gt;Strop_2705&lt;/b&gt;&lt;br&gt;hypothetical protein&lt;br&gt;Location: 19856 - 20419" locus_tag="Strop_2705" class="clusterblast-orf" id="dummy-1_h1_7_14"  />
</g>
<g id="a1_0015"  >
<polygon points="272,90 279,90 284,85 279,80 272,80 272,90 " style="fill:white; stroke-width:1; stroke:black; " description="&lt;b&gt;Strop_2706&lt;/b&gt;&lt;br&gt;Wyosine base formation&lt;br&gt;Location: 20845 - 21765" locus_tag="Strop_2706" class="clusterblast-orf" id="dummy-1_h1_7_15"  />
</g>
<g id="a1_0016"  >
<polygon points="286,90 289,90 294,85 289,80 286,80 286,90 " style="fill:white; stroke-width:1; stroke:black; " description="&lt;b&gt;Strop_2707&lt;/b&gt;&lt;br&gt;hypothetical protein&lt;br&gt;Location: 21914 - 22525" locus_tag="Strop_2707" class="clusterblast-orf" id="dummy-1_h1_7_16"  />
</g>
<g id="a1_0017"  >
<polygon points="298,90 309,90 314,85 309,80 298,80 298,90 " style="fill:white; stroke-width:1; stroke:black; " description="&lt;b&gt;Strop_2708&lt;/b&gt;&lt;br&gt;Acyl-CoA dehydrogenase, type 2, C-terminal domain&lt;br&gt;Location: 22862 - 24034" locus_tag="Strop_2708" class="clusterblast-orf" id="dummy-1_h1_7_17"  />
</g>
<g id="a1_0018"  >
<polygon points="316,90 316,90 321,85 316,80 316,80 316,90 " style="fill:white; stroke-width:1; stroke:black; " description="&lt;b&gt;Strop_2709&lt;/b&gt;&lt;br&gt;hypothetical protein&lt;br&gt;Location: 24193 - 24612" locus_tag="Strop_2709" class="clusterblast-orf" id="dummy-1_h1_7_18"  />
</g>
<g id="a1_0019"  >
<polygon points="321,90 334,90 339,85 334,80 321,80 321,90 " style="fill:white; stroke-width:1; stroke:black; " description="&lt;b&gt;Strop_2710&lt;/b&gt;&lt;br&gt;monooxygenase, FAD-binding&lt;br&gt;Location: 24642 - 26021" locus_tag="Strop_2710" class="clusterblast-orf" id="dummy-1_h1_7_19"  />
</g>
<g id="a1_0020"  >
<polygon points="340,90 350,90 355,85 350,80 340,80 340,90 " style="fill:white; stroke-width:1; stroke:black; " description="&lt;b&gt;Strop_2711&lt;/b&gt;&lt;br&gt;Epoxide hydrolase domain protein&lt;br&gt;Location: 26036 - 27193" locus_tag="Strop_2711" class="clusterblast-orf" id="dummy-1_h1_7_20"  />
</g>
<g id="a1_0021"  >
<polygon points="357,90 368,90 373,85 368,80 357,80 357,90 " style="fill:white; stroke-width:1; stroke:black; " description="&lt;b&gt;Strop_2712&lt;/b&gt;&lt;br&gt;luciferase family protein&lt;br&gt;Location: 27394 - 28560" locus_tag="Strop_2712" class="clusterblast-orf" id="dummy-1_h1_7_21"  />
</g>
<g id="a1_0022"  >
<polygon points="374,90 389,90 394,85 389,80 374,80 374,90 " style="fill:white; stroke-width:1; stroke:black; " description="&lt;b&gt;Strop_2713&lt;/b&gt;&lt;br&gt;4-hydroxyphenylacetate 3-hydroxylase&lt;br&gt;Location: 28640 - 30190" locus_tag="Strop_2713" class="clusterblast-orf" id="dummy-1_h1_7_22"  />
</g>
<g id="a1_0023"  >
<polygon points="396,85 401,80 413,80 413,90 401,90 396,85 " style="fill:white; stroke-width:1; stroke:black; " description="&lt;b&gt;Strop_2714&lt;/b&gt;&lt;br&gt;Sigma-70, region 4 type 2&lt;br&gt;Location: 30307 - 31617" locus_tag="Strop_2714" class="clusterblast-orf" id="dummy-1_h1_7_23"  />
</g>
<g id="a1_0024"  >
<polygon points="413,85 418,80 418,80 418,90 418,90 413,85 " style="fill:white; stroke-width:1; stroke:black; " description="&lt;b&gt;Strop_2715&lt;/b&gt;&lt;br&gt;DGPFAETKE family protein&lt;br&gt;Location: 31614 - 31994" locus_tag="Strop_2715" class="clusterblast-orf" id="dummy-1_h1_7_24"  />
</g>
<g id="a1_0025"  >
<polygon points="427,90 431,85 427,80 427,90 " style="fill:white; stroke-width:1; stroke:black; " description="&lt;b&gt;Strop_2716&lt;/b&gt;&lt;br&gt;hypothetical protein&lt;br&gt;Location: 32749 - 33039" locus_tag="Strop_2716" class="clusterblast-orf" id="dummy-1_h1_7_25"  />
</g>
<g id="a1_0026"  >
<polygon points="431,90 438,90 443,85 438,80 431,80 431,90 " style="fill:white; stroke-width:1; stroke:black; " description="&lt;b&gt;Strop_2717&lt;/b&gt;&lt;br&gt;hypothetical protein&lt;br&gt;Location: 33040 - 33963" locus_tag="Strop_2717" class="clusterblast-orf" id="dummy-1_h1_7_26"  />
</g>
<g id="a1_0027"  >
<polygon points="449,85 454,80 470,80 470,90 454,90 449,85 " style="fill:white; stroke-width:1; stroke:black; " description="&lt;b&gt;Strop_2718&lt;/b&gt;&lt;br&gt;major facilitator superfamily MFS 1&lt;br&gt;Location: 34438 - 36024" locus_tag="Strop_2718" class="clusterblast-orf" id="dummy-1_h1_7_27"  />
</g>
<g id="a1_0028"  >
<polygon points="476,90 476,90 481,85 476,80 476,80 476,90 " style="fill:white; stroke-width:1; stroke:black; " description="&lt;b&gt;Strop_2719&lt;/b&gt;&lt;br&gt;DGPFAETKE family protein&lt;br&gt;Location: 36472 - 36831" locus_tag="Strop_2719" class="clusterblast-orf" id="dummy-1_h1_7_28"  />
</g>
<g id="a1_0029"  >
<polygon points="483,85 488,80 499,80 499,90 488,90 483,85 " style="fill:white; stroke-width:1; stroke:black; " description="&lt;b&gt;Strop_2720&lt;/b&gt;&lt;br&gt;Acyl-CoA dehydrogenase, type 2, C-terminal domain&lt;br&gt;Location: 37011 - 38255" locus_tag="Strop_2720" class="clusterblast-orf" id="dummy-1_h1_7_29"  />
</g>
<g id="a1_0030"  >
<polygon points="502,90 514,90 519,85 514,80 502,80 502,90 " style="fill:white; stroke-width:1; stroke:black; " description="&lt;b&gt;Strop_2721&lt;/b&gt;&lt;br&gt;condensation domain protein&lt;br&gt;Location: 38443 - 39774" locus_tag="Strop_2721" class="clusterblast-orf" id="dummy-1_h1_7_30"  />
</g>
<g id="a1_0031"  >
<polygon points="521,85 526,80 538,80 538,90 526,90 521,85 " style="fill:white; stroke-width:1; stroke:black; " description="&lt;b&gt;Strop_2722&lt;/b&gt;&lt;br&gt;hypothetical protein&lt;br&gt;Location: 39879 - 41219" locus_tag="Strop_2722" class="clusterblast-orf" id="dummy-1_h1_7_31"  />
</g>
<g id="a1_0032"  >
<polygon points="538,85 543,80 552,80 552,90 543,90 538,85 " style="fill:white; stroke-width:1; stroke:black; " description="&lt;b&gt;Strop_2723&lt;/b&gt;&lt;br&gt;Alcohol dehydrogenase GroES domain protein&lt;br&gt;Location: 41232 - 42248" locus_tag="Strop_2723" class="clusterblast-orf" id="dummy-1_h1_7_32"  />
</g>
<g id="a1_0033"  >
<polygon points="551,85 556,80 568,80 568,90 556,90 551,85 " style="fill:white; stroke-width:1; stroke:black; " description="&lt;b&gt;Strop_2724&lt;/b&gt;&lt;br&gt;cytochrome P450&lt;br&gt;Location: 42245 - 43474" locus_tag="Strop_2724" class="clusterblast-orf" id="dummy-1_h1_7_33"  />
</g>
<g id="a1_0034"  >
<polygon points="573,90 591,90 596,85 591,80 573,80 573,90 " style="fill:white; stroke-width:1; stroke:black; " description="&lt;b&gt;Strop_2725&lt;/b&gt;&lt;br&gt;amino acid adenylation domain&lt;br&gt;Location: 43884 - 45650" locus_tag="Strop_2725" class="clusterblast-orf" id="dummy-1_h1_7_34"  />
</g>
<g id="a1_0035"  >
<polygon points="596,90 599,85 596,80 596,90 " style="fill:white; stroke-width:1; stroke:black; " description="&lt;b&gt;Strop_2726&lt;/b&gt;&lt;br&gt;MbtH domain protein&lt;br&gt;Location: 45647 - 45856" locus_tag="Strop_2726" class="clusterblast-orf" id="dummy-1_h1_7_35"  />
</g>
<g id="a1_0036"  >
<polygon points="599,90 608,90 613,85 608,80 599,80 599,90 " style="fill:white; stroke-width:1; stroke:black; " description="&lt;b&gt;Strop_2727&lt;/b&gt;&lt;br&gt;4-hydroxyphenylpyruvate dioxygenase&lt;br&gt;Location: 45884 - 46960" locus_tag="Strop_2727" class="clusterblast-orf" id="dummy-1_h1_7_36"  />
</g>
<g id="a1_0037"  >
<polygon points="613,90 620,90 625,85 620,80 613,80 613,90 " style="fill:white; stroke-width:1; stroke:black; " description="&lt;b&gt;Strop_2728&lt;/b&gt;&lt;br&gt;hypothetical protein&lt;br&gt;Location: 46957 - 47859" locus_tag="Strop_2728" class="clusterblast-orf" id="dummy-1_h1_7_37"  />
</g>
<g id="a1_0038"  >
<polygon points="629,90 633,85 629,80 629,90 " style="fill:white; stroke-width:1; stroke:black; " description="&lt;b&gt;Strop_2729&lt;/b&gt;&lt;br&gt;hypothetical protein&lt;br&gt;Location: 48192 - 48488" locus_tag="Strop_2729" class="clusterblast-orf" id="dummy-1_h1_7_38"  />
</g>
<g id="a1_0039"  >
<polygon points="634,90 636,90 641,85 636,80 634,80 634,90 " style="fill:white; stroke-width:1; stroke:black; " description="&lt;b&gt;Strop_2730&lt;/b&gt;&lt;br&gt;hypothetical protein&lt;br&gt;Location: 48526 - 49083" locus_tag="Strop_2730" class="clusterblast-orf" id="dummy-1_h1_7_39"  />
</g>
<g id="a1_0040"  >
<polygon points="647,85 652,80 665,80 665,90 652,90 647,85 " style="fill:white; stroke-width:1; stroke:black; " description="&lt;b&gt;Strop_2731&lt;/b&gt;&lt;br&gt;FAD linked oxidase domain protein&lt;br&gt;Location: 49539 - 50957" locus_tag="Strop_2731" class="clusterblast-orf" id="dummy-1_h1_7_40"  />
</g>
<g id="a1_0041"  >
<polygon points="666,90 675,90 680,85 675,80 666,80 666,90 " style="fill:white; stroke-width:1; stroke:black; " description="&lt;b&gt;Strop_2732&lt;/b&gt;&lt;br&gt;hypothetical protein&lt;br&gt;Location: 51037 - 52107" locus_tag="Strop_2732" class="clusterblast-orf" id="dummy-1_h1_7_41"  />
</g>
<g id="a1_0042"  >
<polygon points="681,90 695,90 700,85 695,80 681,80 681,90 " style="fill:white; stroke-width:1; stroke:black; " description="&lt;b&gt;Strop_2733&lt;/b&gt;&lt;br&gt;Methyltransferase type 11&lt;br&gt;Location: 52120 - 53640" locus_tag="Strop_2733" class="clusterblast-orf" id="dummy-1_h1_7_42"  />
</g>
<g id="a1_0043"  >
<polygon points="701,90 705,85 701,80 701,90 " style="fill:white; stroke-width:1; stroke:black; " description="&lt;b&gt;Strop_2734&lt;/b&gt;&lt;br&gt;hypothetical protein&lt;br&gt;Location: 53713 - 53970" locus_tag="Strop_2734" class="clusterblast-orf" id="dummy-1_h1_7_43"  />
</g>
<g id="a1_0044"  >
<polygon points="706,85 711,80 725,80 725,90 711,90 706,85 " style="fill:white; stroke-width:1; stroke:black; " description="&lt;b&gt;Strop_2735&lt;/b&gt;&lt;br&gt;major facilitator superfamily MFS 1&lt;br&gt;Location: 54097 - 55542" locus_tag="Strop_2735" class="clusterblast-orf" id="dummy-1_h1_7_44"  />
</g>
<g id="a1_0045"  >
<polygon points="726,85 731,80 734,80 734,90 731,90 726,85 " style="fill:white; stroke-width:1; stroke:black; " description="&lt;b&gt;Strop_2736&lt;/b&gt;&lt;br&gt;protein of unknown function DUF899, thioredoxin family protein&lt;br&gt;Location: 55580 - 56248" locus_tag="Strop_2736" class="clusterblast-orf" id="dummy-1_h1_7_45"  />
</g>
<g id="a1_0046"  >
<polygon points="736,90 775,90 780,85 775,80 736,80 736,90 " style="fill:white; stroke-width:1; stroke:black; " description="&lt;b&gt;Strop_2737&lt;/b&gt;&lt;br&gt;transcriptional activator domain&lt;br&gt;Location: 56386 - 59694" locus_tag="Strop_2737" class="clusterblast-orf" id="dummy-1_h1_7_46"  />
</g>
</svg>
