<svg xmlns="http://www.w3.org/2000/svg" xmlns:xlink="http://www.w3.org/1999/xlink" version="1.1" x="0" y="0" height="230" width="800" viewBox="0 0 800 230" preserveAspectRatio="none"  >
<g label="Query sequence" class="clusterblast-cluster"  >
<text x="5" y="20" class="clusterblast-acc"  >
Query sequence</text>
<line x1="10" y1="35" x2="778.0" y2="35" style="stroke-width:1; stroke:grey; "  />
<polygon points="116,35 121,30 131,30 131,40 121,40 116,35 " style="fill:white; stroke-width:1; stroke:black; " description="&lt;b&gt;cds164_1667&lt;/b&gt;&lt;br&gt;Catalase&lt;br&gt;Location: 164 - 1667" locus_tag="cds164_1667" class="clusterblast-orf" id="dummy-1_q0_0_all"  />
<polygon points="131,35 135,30 135,40 131,35 " style="fill:white; stroke-width:1; stroke:black; " description="&lt;b&gt;cds1629_2067&lt;/b&gt;&lt;br&gt;Transcriptional regulator FurA&lt;br&gt;Location: 1629 - 2067" locus_tag="cds1629_2067" class="clusterblast-orf" id="dummy-1_q1_0_all"  />
<polygon points="137,40 146,40 151,35 146,30 137,30 137,40 " style="fill:white; stroke-width:1; stroke:black; " description="&lt;b&gt;cds2242_3730&lt;/b&gt;&lt;br&gt;putative bifunctional transcriptional activator/DNA repair enzyme AlkA&lt;br&gt;Location: 2242 - 3730" locus_tag="cds2242_3730" class="clusterblast-orf" id="dummy-1_q2_0_all"  />
<polygon points="152,40 152,40 157,35 152,30 152,30 152,40 " style="fill:white; stroke-width:1; stroke:black; " description="&lt;b&gt;cds3811_4321&lt;/b&gt;&lt;br&gt;Methylated-DNA--protein-cysteine methyltransferase&lt;br&gt;Location: 3811 - 4321" locus_tag="cds3811_4321" class="clusterblast-orf" id="dummy-1_q3_0_all"  />
<polygon points="159,40 159,40 164,35 159,30 159,30 159,40 " style="fill:white; stroke-width:1; stroke:black; " description="&lt;b&gt;cds4523_5027&lt;/b&gt;&lt;br&gt;hypothetical protein&lt;br&gt;Location: 4523 - 5027" locus_tag="cds4523_5027" class="clusterblast-orf" id="dummy-1_q4_0_all"  />
<polygon points="164,40 173,40 178,35 173,30 164,30 164,40 " style="fill:white; stroke-width:1; stroke:black; " description="&lt;b&gt;cds5026_6454&lt;/b&gt;&lt;br&gt;hypothetical protein&lt;br&gt;Location: 5026 - 6454" locus_tag="cds5026_6454" class="clusterblast-orf" id="dummy-1_q5_0_all"  />
<polygon points="178,40 187,40 192,35 187,30 178,30 178,40 " style="fill:white; stroke-width:1; stroke:black; " description="&lt;b&gt;cds6450_7866&lt;/b&gt;&lt;br&gt;hypothetical protein&lt;br&gt;Location: 6450 - 7866" locus_tag="cds6450_7866" class="clusterblast-orf" id="dummy-1_q6_0_all"  />
<polygon points="192,40 198,40 203,35 198,30 192,30 192,40 " style="fill:white; stroke-width:1; stroke:black; " description="&lt;b&gt;cds7916_9029&lt;/b&gt;&lt;br&gt;putative protein YehL&lt;br&gt;Location: 7916 - 9029" locus_tag="cds7916_9029" class="clusterblast-orf" id="dummy-1_q7_0_all"  />
<polygon points="203,40 225,40 230,35 225,30 203,30 203,40 " style="fill:white; stroke-width:1; stroke:black; " description="&lt;b&gt;cds9025_11821&lt;/b&gt;&lt;br&gt;hypothetical protein&lt;br&gt;Location: 9025 - 11821" locus_tag="cds9025_11821" class="clusterblast-orf" id="dummy-1_q8_0_all"  />
<polygon points="232,40 243,40 248,35 243,30 232,30 232,40 " style="fill:white; stroke-width:1; stroke:black; " description="&lt;b&gt;cds12033_13605&lt;/b&gt;&lt;br&gt;Proline/betaine transporter&lt;br&gt;Location: 12033 - 13605" locus_tag="cds12033_13605" class="clusterblast-orf" id="dummy-1_q9_0_all"  />
<polygon points="253,40 255,35 253,30 253,40 " style="fill:#d81515; stroke-width:1; stroke:black; " description="&lt;b&gt;cds14120_14339&lt;/b&gt;&lt;br&gt;Protein MbtH&lt;br&gt;Location: 14120 - 14339" locus_tag="cds14120_14339" class="clusterblast-orf" id="dummy-1_q10_0_all"  />
<polygon points="259,40 395,40 400,35 395,30 259,30 259,40 " style="fill:#15d8d8; stroke-width:1; stroke:black; " description="&lt;b&gt;cds14742_29220&lt;/b&gt;&lt;br&gt;Tyrocidine synthase 3&lt;br&gt;Location: 14742 - 29220" locus_tag="cds14742_29220" class="clusterblast-orf" id="dummy-1_q11_0_all"  />
<polygon points="400,40 469,40 474,35 469,30 400,30 400,40 " style="fill:#15d8d8; stroke-width:1; stroke:black; " description="&lt;b&gt;cds29216_36776&lt;/b&gt;&lt;br&gt;Linear gramicidin synthase subunit D&lt;br&gt;Location: 29216 - 36776" locus_tag="cds29216_36776" class="clusterblast-orf" id="dummy-1_q12_0_all"  />
<polygon points="475,40 479,35 475,30 475,40 " style="fill:white; stroke-width:1; stroke:black; " description="&lt;b&gt;cds36821_37274&lt;/b&gt;&lt;br&gt;hypothetical protein&lt;br&gt;Location: 36821 - 37274" locus_tag="cds36821_37274" class="clusterblast-orf" id="dummy-1_q13_0_all"  />
<polygon points="480,40 486,40 491,35 486,30 480,30 480,40 " style="fill:white; stroke-width:1; stroke:black; " description="&lt;b&gt;cds37373_38432&lt;/b&gt;&lt;br&gt;hypothetical protein&lt;br&gt;Location: 37373 - 38432" locus_tag="cds37373_38432" class="clusterblast-orf" id="dummy-1_q14_0_all"  />
<polygon points="493,40 499,40 504,35 499,30 493,30 493,40 " style="fill:white; stroke-width:1; stroke:black; " description="&lt;b&gt;cds38713_39781&lt;/b&gt;&lt;br&gt;hypothetical protein&lt;br&gt;Location: 38713 - 39781" locus_tag="cds38713_39781" class="clusterblast-orf" id="dummy-1_q15_0_all"  />
<polygon points="504,35 506,30 506,40 504,35 " style="fill:white; stroke-width:1; stroke:black; " description="&lt;b&gt;cds39842_40028&lt;/b&gt;&lt;br&gt;hypothetical protein&lt;br&gt;Location: 39842 - 40028" locus_tag="cds39842_40028" class="clusterblast-orf" id="dummy-1_q16_0_all"  />
<polygon points="506,35 509,30 509,40 506,35 " style="fill:white; stroke-width:1; stroke:black; " description="&lt;b&gt;cds40024_40312&lt;/b&gt;&lt;br&gt;hypothetical protein&lt;br&gt;Location: 40024 - 40312" locus_tag="cds40024_40312" class="clusterblast-orf" id="dummy-1_q17_0_all"  />
<polygon points="511,35 515,30 515,40 511,35 " style="fill:white; stroke-width:1; stroke:black; " description="&lt;b&gt;cds40480_40894&lt;/b&gt;&lt;br&gt;hypothetical protein&lt;br&gt;Location: 40480 - 40894" locus_tag="cds40480_40894" class="clusterblast-orf" id="dummy-1_q18_0_all"  />
<polygon points="521,35 526,30 529,30 529,40 526,40 521,35 " style="fill:white; stroke-width:1; stroke:black; " description="&lt;b&gt;cds41582_42332&lt;/b&gt;&lt;br&gt;Glucose 1-dehydrogenase&lt;br&gt;Location: 41582 - 42332" locus_tag="cds41582_42332" class="clusterblast-orf" id="dummy-1_q19_0_all"  />
<polygon points="530,40 531,40 536,35 531,30 530,30 530,40 " style="fill:white; stroke-width:1; stroke:black; " description="&lt;b&gt;cds42498_43035&lt;/b&gt;&lt;br&gt;HTH-type transcriptional repressor ComR&lt;br&gt;Location: 42498 - 43035" locus_tag="cds42498_43035" class="clusterblast-orf" id="dummy-1_q20_0_all"  />
<polygon points="536,35 541,30 547,30 547,40 541,40 536,35 " style="fill:white; stroke-width:1; stroke:black; " description="&lt;b&gt;cds43100_44174&lt;/b&gt;&lt;br&gt;N-ethylmaleimide reductase&lt;br&gt;Location: 43100 - 44174" locus_tag="cds43100_44174" class="clusterblast-orf" id="dummy-1_q21_0_all"  />
<polygon points="548,40 552,35 548,30 548,40 " style="fill:white; stroke-width:1; stroke:black; " description="&lt;b&gt;cds44329_44761&lt;/b&gt;&lt;br&gt;Mercuric resistance operon regulatory protein&lt;br&gt;Location: 44329 - 44761" locus_tag="cds44329_44761" class="clusterblast-orf" id="dummy-1_q22_0_all"  />
<polygon points="554,35 559,30 563,30 563,40 559,40 554,35 " style="fill:white; stroke-width:1; stroke:black; " description="&lt;b&gt;cds44928_45888&lt;/b&gt;&lt;br&gt;N-acetylmannosamine kinase&lt;br&gt;Location: 44928 - 45888" locus_tag="cds44928_45888" class="clusterblast-orf" id="dummy-1_q23_0_all"  />
<polygon points="573,40 581,40 586,35 581,30 573,30 573,40 " style="fill:white; stroke-width:1; stroke:black; " description="&lt;b&gt;cds46880_48188&lt;/b&gt;&lt;br&gt;Mannan endo-1,4-beta-mannosidase&lt;br&gt;Location: 46880 - 48188" locus_tag="cds46880_48188" class="clusterblast-orf" id="dummy-1_q24_0_all"  />
<polygon points="586,35 590,30 590,40 586,35 " style="fill:white; stroke-width:1; stroke:black; " description="&lt;b&gt;cds48212_48611&lt;/b&gt;&lt;br&gt;hypothetical protein&lt;br&gt;Location: 48212 - 48611" locus_tag="cds48212_48611" class="clusterblast-orf" id="dummy-1_q25_0_all"  />
<polygon points="590,35 594,30 594,40 590,35 " style="fill:white; stroke-width:1; stroke:black; " description="&lt;b&gt;cds48624_49035&lt;/b&gt;&lt;br&gt;hypothetical protein&lt;br&gt;Location: 48624 - 49035" locus_tag="cds48624_49035" class="clusterblast-orf" id="dummy-1_q26_0_all"  />
<polygon points="595,40 598,40 603,35 598,30 595,30 595,40 " style="fill:white; stroke-width:1; stroke:black; " description="&lt;b&gt;cds49084_49969&lt;/b&gt;&lt;br&gt;hypothetical protein&lt;br&gt;Location: 49084 - 49969" locus_tag="cds49084_49969" class="clusterblast-orf" id="dummy-1_q27_0_all"  />
<polygon points="606,35 611,30 614,30 614,40 611,40 606,35 " style="fill:white; stroke-width:1; stroke:black; " description="&lt;b&gt;cds50256_51051&lt;/b&gt;&lt;br&gt;2,5-dichloro-2,5-cyclohexadiene-1,4-diol dehydrogenase&lt;br&gt;Location: 50256 - 51051" locus_tag="cds50256_51051" class="clusterblast-orf" id="dummy-1_q28_0_all"  />
<polygon points="616,40 617,40 622,35 617,30 616,30 616,40 " style="fill:white; stroke-width:1; stroke:black; " description="&lt;b&gt;cds51229_51832&lt;/b&gt;&lt;br&gt;HTH-type transcriptional repressor ComR&lt;br&gt;Location: 51229 - 51832" locus_tag="cds51229_51832" class="clusterblast-orf" id="dummy-1_q29_0_all"  />
<polygon points="624,35 629,30 633,30 633,40 629,40 624,35 " style="fill:white; stroke-width:1; stroke:black; " description="&lt;b&gt;cds52033_52969&lt;/b&gt;&lt;br&gt;Haloalkane dehalogenase&lt;br&gt;Location: 52033 - 52969" locus_tag="cds52033_52969" class="clusterblast-orf" id="dummy-1_q30_0_all"  />
<polygon points="641,40 643,40 648,35 643,30 641,30 641,40 " style="fill:white; stroke-width:1; stroke:black; " description="&lt;b&gt;cds53803_54529&lt;/b&gt;&lt;br&gt;Endo-1,4-beta-xylanase C&lt;br&gt;Location: 53803 - 54529" locus_tag="cds53803_54529" class="clusterblast-orf" id="dummy-1_q31_0_all"  />
<polygon points="650,35 652,30 652,40 650,35 " style="fill:white; stroke-width:1; stroke:black; " description="&lt;b&gt;cds54707_54929&lt;/b&gt;&lt;br&gt;hypothetical protein&lt;br&gt;Location: 54707 - 54929" locus_tag="cds54707_54929" class="clusterblast-orf" id="dummy-1_q32_0_all"  />
<polygon points="653,35 658,30 663,30 663,40 658,40 653,35 " style="fill:white; stroke-width:1; stroke:black; " description="&lt;b&gt;cds55021_56050&lt;/b&gt;&lt;br&gt;HTH-type transcriptional regulator DegA&lt;br&gt;Location: 55021 - 56050" locus_tag="cds55021_56050" class="clusterblast-orf" id="dummy-1_q33_0_all"  />
</g>
<g label="BGC0001370" description="BGC0001370_c1: lipopeptide 8D1-1 / lipopeptide 8D1-2 (6% of genes show similarity), NRP" class="clusterblast-cluster"  >
<text x="5" y="70" class="clusterblast-acc"  >
<a xlink:href="https://mibig.secondarymetabolites.org/go/BGC0001370/1" target="_blank">BGC0001370</a>:                                            lipopeptide 8D1-1 / lipopeptide 8D1-2 (6% of genes show similarity), NRP</text>
<line x1="10" y1="85" x2="778.0" y2="85" style="stroke-width:1; stroke:grey; "  />
</g>
<g id="a1_000"  >
<polygon points="0,90 10,90 15,85 10,80 0,80 0,90 " style="fill:white; stroke-width:1; stroke:black; " description="&lt;b&gt;ALV82383.1&lt;/b&gt;&lt;br&gt;ABC transporter&lt;br&gt;Location: 11 - 1630" locus_tag="ALV82383.1" class="clusterblast-orf" id="dummy-1_h1_6_0"  />
</g>
<g id="a1_001"  >
<polygon points="25,90 36,90 41,85 36,80 25,80 25,90 " style="fill:white; stroke-width:1; stroke:black; " description="&lt;b&gt;ALV82361.1&lt;/b&gt;&lt;br&gt;regulator&lt;br&gt;Location: 2626 - 4263" locus_tag="ALV82361.1" class="clusterblast-orf" id="dummy-1_h1_6_1"  />
</g>
<g id="a1_002"  >
<polygon points="42,85 44,80 44,90 42,85 " style="fill:#d81515; stroke-width:1; stroke:black; " description="&lt;b&gt;ALV82382.1&lt;/b&gt;&lt;br&gt;putative mbtH protein&lt;br&gt;Location: 4330 - 4545&lt;br&gt;&lt;br&gt;&lt;b&gt;BlastP hit with cds14120_14339&lt;/b&gt;&lt;br&gt;Percentage identity: 57&lt;br&gt;Percentage coverage: 96&lt;br&gt;BLAST bit score: 97&lt;br&gt;E-value: 1.1e-20" locus_tag="ALV82382.1" class="clusterblast-orf" id="dummy-1_h1_6_2"  />
</g>
<g id="a1_003"  >
<polygon points="45,85 50,80 57,80 57,90 50,90 45,85 " style="fill:white; stroke-width:1; stroke:black; " description="&lt;b&gt;ALV82365.1&lt;/b&gt;&lt;br&gt;lipase&lt;br&gt;Location: 4676 - 5842" locus_tag="ALV82365.1" class="clusterblast-orf" id="dummy-1_h1_6_3"  />
</g>
<g id="a1_004"  >
<polygon points="59,85 63,80 63,90 59,85 " style="fill:white; stroke-width:1; stroke:black; " description="&lt;b&gt;ALV82351.1&lt;/b&gt;&lt;br&gt;putative secreted protein&lt;br&gt;Location: 6073 - 6504" locus_tag="ALV82351.1" class="clusterblast-orf" id="dummy-1_h1_6_4"  />
</g>
<g id="a1_005"  >
<polygon points="64,85 69,80 72,80 72,90 69,90 64,85 " style="fill:white; stroke-width:1; stroke:black; " description="&lt;b&gt;ALV82369.1&lt;/b&gt;&lt;br&gt;prephenate dehydrogenase&lt;br&gt;Location: 6577 - 7434" locus_tag="ALV82369.1" class="clusterblast-orf" id="dummy-1_h1_6_5"  />
</g>
<g id="a1_006"  >
<polygon points="73,85 77,80 77,90 73,85 " style="fill:white; stroke-width:1; stroke:black; " description="&lt;b&gt;ALV82372.1&lt;/b&gt;&lt;br&gt;putative secreted protein&lt;br&gt;Location: 7515 - 7970" locus_tag="ALV82372.1" class="clusterblast-orf" id="dummy-1_h1_6_6"  />
</g>
<g id="a1_007"  >
<polygon points="79,85 84,80 87,80 87,90 84,90 79,85 " style="fill:white; stroke-width:1; stroke:black; " description="&lt;b&gt;ALV82348.1&lt;/b&gt;&lt;br&gt;ABC transporter&lt;br&gt;Location: 8152 - 8910" locus_tag="ALV82348.1" class="clusterblast-orf" id="dummy-1_h1_6_7"  />
</g>
<g id="a1_008"  >
<polygon points="87,85 92,80 96,80 96,90 92,90 87,85 " style="fill:white; stroke-width:1; stroke:black; " description="&lt;b&gt;ALV82359.1&lt;/b&gt;&lt;br&gt;ABC transporter ATP-binding protein&lt;br&gt;Location: 8956 - 9909" locus_tag="ALV82359.1" class="clusterblast-orf" id="dummy-1_h1_6_8"  />
</g>
<g id="a1_009"  >
<polygon points="96,85 98,80 98,90 96,85 " style="fill:white; stroke-width:1; stroke:black; " description="&lt;b&gt;ALV82374.1&lt;/b&gt;&lt;br&gt;hypothetical protein&lt;br&gt;Location: 9932 - 10051" locus_tag="ALV82374.1" class="clusterblast-orf" id="dummy-1_h1_6_9"  />
</g>
<g id="a1_0010"  >
<polygon points="98,90 109,90 114,85 109,80 98,80 98,90 " style="fill:white; stroke-width:1; stroke:black; " description="&lt;b&gt;ALV82363.1&lt;/b&gt;&lt;br&gt;two component sensor kinase&lt;br&gt;Location: 10046 - 11761" locus_tag="ALV82363.1" class="clusterblast-orf" id="dummy-1_h1_6_10"  />
</g>
<g id="a1_0011"  >
<polygon points="115,90 116,90 121,85 116,80 115,80 115,90 " style="fill:white; stroke-width:1; stroke:black; " description="&lt;b&gt;ALV82366.1&lt;/b&gt;&lt;br&gt;regulator&lt;br&gt;Location: 11780 - 12448" locus_tag="ALV82366.1" class="clusterblast-orf" id="dummy-1_h1_6_11"  />
</g>
<g id="a1_0012"  >
<polygon points="121,85 126,80 134,80 134,90 126,90 121,85 " style="fill:white; stroke-width:1; stroke:black; " description="&lt;b&gt;ALV82375.1&lt;/b&gt;&lt;br&gt;putative aminotransferase&lt;br&gt;Location: 12463 - 13788" locus_tag="ALV82375.1" class="clusterblast-orf" id="dummy-1_h1_6_12"  />
</g>
<g id="a1_0013"  >
<polygon points="134,85 139,80 146,80 146,90 139,90 134,85 " style="fill:white; stroke-width:1; stroke:black; " description="&lt;b&gt;ALV82386.1&lt;/b&gt;&lt;br&gt;putative oxidase&lt;br&gt;Location: 13785 - 14984" locus_tag="ALV82386.1" class="clusterblast-orf" id="dummy-1_h1_6_13"  />
</g>
<g id="a1_0014"  >
<polygon points="146,85 151,80 156,80 156,90 151,90 146,85 " style="fill:white; stroke-width:1; stroke:black; " description="&lt;b&gt;ALV82353.1&lt;/b&gt;&lt;br&gt;4-hydroxyphenylpyruvic acid dioxygenase&lt;br&gt;Location: 14981 - 16054" locus_tag="ALV82353.1" class="clusterblast-orf" id="dummy-1_h1_6_14"  />
</g>
<g id="a1_0015"  >
<polygon points="157,85 160,80 160,90 157,85 " style="fill:white; stroke-width:1; stroke:black; " description="&lt;b&gt;ALV82390.1&lt;/b&gt;&lt;br&gt;hypothetical protein&lt;br&gt;Location: 16163 - 16393" locus_tag="ALV82390.1" class="clusterblast-orf" id="dummy-1_h1_6_15"  />
</g>
<g id="a1_0016"  >
<polygon points="159,90 368,90 373,85 368,80 159,80 159,90 " style="fill:#15d8d8; stroke-width:1; stroke:black; " description="&lt;b&gt;ALV82356.1&lt;/b&gt;&lt;br&gt;CDA peptide synthetase I&lt;br&gt;Location: 16367 - 38248&lt;br&gt;&lt;br&gt;&lt;b&gt;BlastP hit with cds29216_36776&lt;/b&gt;&lt;br&gt;Percentage identity: 46&lt;br&gt;Percentage coverage: 84&lt;br&gt;BLAST bit score: 1563&lt;br&gt;E-value: 0.0" locus_tag="ALV82356.1" class="clusterblast-orf" id="dummy-1_h1_6_16"  />
</g>
<g id="a1_0017"  >
<polygon points="373,90 475,90 480,85 475,80 373,80 373,90 " style="fill:white; stroke-width:1; stroke:black; " description="&lt;b&gt;ALV82384.1&lt;/b&gt;&lt;br&gt;CDA peptide synthetase II&lt;br&gt;Location: 38245 - 49158" locus_tag="ALV82384.1" class="clusterblast-orf" id="dummy-1_h1_6_17"  />
</g>
<g id="a1_0018"  >
<polygon points="480,90 545,90 550,85 545,80 480,80 480,90 " style="fill:#15d8d8; stroke-width:1; stroke:black; " description="&lt;b&gt;ALV82388.1&lt;/b&gt;&lt;br&gt;CDA peptide synthetase III&lt;br&gt;Location: 49143 - 56366&lt;br&gt;&lt;br&gt;&lt;b&gt;BlastP hit with cds29216_36776&lt;/b&gt;&lt;br&gt;Percentage identity: 48&lt;br&gt;Percentage coverage: 85&lt;br&gt;BLAST bit score: 1686&lt;br&gt;E-value: 0.0" locus_tag="ALV82388.1" class="clusterblast-orf" id="dummy-1_h1_6_18"  />
</g>
<g id="a1_0019"  >
<polygon points="551,90 554,90 559,85 554,80 551,80 551,90 " style="fill:white; stroke-width:1; stroke:black; " description="&lt;b&gt;ALV82377.1&lt;/b&gt;&lt;br&gt;hydrolase&lt;br&gt;Location: 56371 - 57189" locus_tag="ALV82377.1" class="clusterblast-orf" id="dummy-1_h1_6_19"  />
</g>
<g id="a1_0020"  >
<polygon points="559,90 562,90 567,85 562,80 559,80 559,90 " style="fill:white; stroke-width:1; stroke:black; " description="&lt;b&gt;ALV82370.1&lt;/b&gt;&lt;br&gt;phosphotransferase&lt;br&gt;Location: 57201 - 58094" locus_tag="ALV82370.1" class="clusterblast-orf" id="dummy-1_h1_6_20"  />
</g>
<g id="a1_0021"  >
<polygon points="568,85 573,80 586,80 586,90 573,90 568,85 " style="fill:white; stroke-width:1; stroke:black; " description="&lt;b&gt;ALV82355.1&lt;/b&gt;&lt;br&gt;ABC transporter&lt;br&gt;Location: 58162 - 60012" locus_tag="ALV82355.1" class="clusterblast-orf" id="dummy-1_h1_6_21"  />
</g>
<g id="a1_0022"  >
<polygon points="586,85 591,80 596,80 596,90 591,90 586,85 " style="fill:white; stroke-width:1; stroke:black; " description="&lt;b&gt;ALV82360.1&lt;/b&gt;&lt;br&gt;oxygenase&lt;br&gt;Location: 60052 - 61053" locus_tag="ALV82360.1" class="clusterblast-orf" id="dummy-1_h1_6_22"  />
</g>
<g id="a1_0023"  >
<polygon points="598,85 603,80 606,80 606,90 603,90 598,85 " style="fill:white; stroke-width:1; stroke:black; " description="&lt;b&gt;ALV82380.1&lt;/b&gt;&lt;br&gt;secreted protein&lt;br&gt;Location: 61236 - 62039" locus_tag="ALV82380.1" class="clusterblast-orf" id="dummy-1_h1_6_23"  />
</g>
<g id="a1_0024"  >
<polygon points="606,85 611,80 618,80 618,90 611,90 606,85 " style="fill:white; stroke-width:1; stroke:black; " description="&lt;b&gt;ALV82350.1&lt;/b&gt;&lt;br&gt;salicylate hydroxylase&lt;br&gt;Location: 62093 - 63310" locus_tag="ALV82350.1" class="clusterblast-orf" id="dummy-1_h1_6_24"  />
</g>
<g id="a1_0025"  >
<polygon points="619,85 624,80 628,80 628,90 624,90 619,85 " style="fill:white; stroke-width:1; stroke:black; " description="&lt;b&gt;ALV82391.1&lt;/b&gt;&lt;br&gt;3-oxoacyl-[acyl carrier protein] synthase, KASIII&lt;br&gt;Location: 63341 - 64327" locus_tag="ALV82391.1" class="clusterblast-orf" id="dummy-1_h1_6_25"  />
</g>
<g id="a1_0026"  >
<polygon points="628,85 633,80 645,80 645,90 633,90 628,85 " style="fill:white; stroke-width:1; stroke:black; " description="&lt;b&gt;ALV82371.1&lt;/b&gt;&lt;br&gt;acyl-CoA oxidase&lt;br&gt;Location: 64324 - 66051" locus_tag="ALV82371.1" class="clusterblast-orf" id="dummy-1_h1_6_26"  />
</g>
<g id="a1_0027"  >
<polygon points="646,85 651,80 658,80 658,90 651,90 646,85 " style="fill:white; stroke-width:1; stroke:black; " description="&lt;b&gt;ALV82387.1&lt;/b&gt;&lt;br&gt;3-oxoacyl-[acyl-carrier-protein] synthase, KASII&lt;br&gt;Location: 66150 - 67370" locus_tag="ALV82387.1" class="clusterblast-orf" id="dummy-1_h1_6_27"  />
</g>
<g id="a1_0028"  >
<polygon points="658,85 660,80 660,90 658,85 " style="fill:white; stroke-width:1; stroke:black; " description="&lt;b&gt;ALV82381.1&lt;/b&gt;&lt;br&gt;acyl carrier protein&lt;br&gt;Location: 67367 - 67612" locus_tag="ALV82381.1" class="clusterblast-orf" id="dummy-1_h1_6_28"  />
</g>
<g id="a1_0029"  >
<polygon points="661,85 664,80 664,90 661,85 " style="fill:white; stroke-width:1; stroke:black; " description="&lt;b&gt;ALV82385.1&lt;/b&gt;&lt;br&gt;hypothetical protein&lt;br&gt;Location: 67632 - 67949" locus_tag="ALV82385.1" class="clusterblast-orf" id="dummy-1_h1_6_29"  />
</g>
<g id="a1_0030"  >
<polygon points="667,85 672,80 672,80 672,90 672,90 667,85 " style="fill:white; stroke-width:1; stroke:black; " description="&lt;b&gt;ALV82352.1&lt;/b&gt;&lt;br&gt;DNA-binding protein&lt;br&gt;Location: 68240 - 68770" locus_tag="ALV82352.1" class="clusterblast-orf" id="dummy-1_h1_6_30"  />
</g>
<g id="a1_0031"  >
<polygon points="675,90 675,90 680,85 675,80 675,80 675,90 " style="fill:white; stroke-width:1; stroke:black; " description="&lt;b&gt;ALV82362.1&lt;/b&gt;&lt;br&gt;membrane protein&lt;br&gt;Location: 69081 - 69662" locus_tag="ALV82362.1" class="clusterblast-orf" id="dummy-1_h1_6_31"  />
</g>
<g id="a1_0032"  >
<polygon points="684,90 684,90 689,85 684,80 684,80 684,90 " style="fill:white; stroke-width:1; stroke:black; " description="&lt;b&gt;ALV82378.1&lt;/b&gt;&lt;br&gt;hypothetical protein&lt;br&gt;Location: 70038 - 70583" locus_tag="ALV82378.1" class="clusterblast-orf" id="dummy-1_h1_6_32"  />
</g>
<g id="a1_0033"  >
<polygon points="690,85 695,80 695,80 695,90 695,90 690,85 " style="fill:white; stroke-width:1; stroke:black; " description="&lt;b&gt;ALV82358.1&lt;/b&gt;&lt;br&gt;flavodoxin&lt;br&gt;Location: 70677 - 71183" locus_tag="ALV82358.1" class="clusterblast-orf" id="dummy-1_h1_6_33"  />
</g>
<g id="a1_0034"  >
<polygon points="695,85 700,80 703,80 703,90 700,90 695,85 " style="fill:white; stroke-width:1; stroke:black; " description="&lt;b&gt;ALV82376.1&lt;/b&gt;&lt;br&gt;hypothetical protein&lt;br&gt;Location: 71200 - 71931" locus_tag="ALV82376.1" class="clusterblast-orf" id="dummy-1_h1_6_34"  />
</g>
<g id="a1_0035"  >
<polygon points="703,85 704,80 704,90 703,85 " style="fill:white; stroke-width:1; stroke:black; " description="&lt;b&gt;ALV82373.1&lt;/b&gt;&lt;br&gt;hypothetical protein&lt;br&gt;Location: 71944 - 72084" locus_tag="ALV82373.1" class="clusterblast-orf" id="dummy-1_h1_6_35"  />
</g>
<g id="a1_0036"  >
<polygon points="707,85 712,80 716,80 716,90 712,90 707,85 " style="fill:white; stroke-width:1; stroke:black; " description="&lt;b&gt;ALV82354.1&lt;/b&gt;&lt;br&gt;universal stress protein&lt;br&gt;Location: 72387 - 73250" locus_tag="ALV82354.1" class="clusterblast-orf" id="dummy-1_h1_6_36"  />
</g>
<g id="a1_0037"  >
<polygon points="716,85 721,80 726,80 726,90 721,90 716,85 " style="fill:white; stroke-width:1; stroke:black; " description="&lt;b&gt;ALV82389.1&lt;/b&gt;&lt;br&gt;alcohol dehydrogenase&lt;br&gt;Location: 73256 - 74278" locus_tag="ALV82389.1" class="clusterblast-orf" id="dummy-1_h1_6_37"  />
</g>
<g id="a1_0038"  >
<polygon points="726,85 731,80 735,80 735,90 731,90 726,85 " style="fill:white; stroke-width:1; stroke:black; " description="&lt;b&gt;ALV82357.1&lt;/b&gt;&lt;br&gt;stress-inducible protein&lt;br&gt;Location: 74317 - 75243" locus_tag="ALV82357.1" class="clusterblast-orf" id="dummy-1_h1_6_38"  />
</g>
<g id="a1_0039"  >
<polygon points="736,85 741,80 741,80 741,90 741,90 736,85 " style="fill:white; stroke-width:1; stroke:black; " description="&lt;b&gt;ALV82368.1&lt;/b&gt;&lt;br&gt;membrane protein&lt;br&gt;Location: 75375 - 75875" locus_tag="ALV82368.1" class="clusterblast-orf" id="dummy-1_h1_6_39"  />
</g>
<g id="a1_0040"  >
<polygon points="745,85 750,80 754,80 754,90 750,90 745,85 " style="fill:white; stroke-width:1; stroke:black; " description="&lt;b&gt;ALV82379.1&lt;/b&gt;&lt;br&gt;stress-inducible protein&lt;br&gt;Location: 76256 - 77176" locus_tag="ALV82379.1" class="clusterblast-orf" id="dummy-1_h1_6_40"  />
</g>
<g id="a1_0041"  >
<polygon points="755,85 760,80 764,80 764,90 760,90 755,85 " style="fill:white; stroke-width:1; stroke:black; " description="&lt;b&gt;ALV82367.1&lt;/b&gt;&lt;br&gt;carbamate kinase&lt;br&gt;Location: 77301 - 78224" locus_tag="ALV82367.1" class="clusterblast-orf" id="dummy-1_h1_6_41"  />
</g>
<g id="a1_0042"  >
<polygon points="764,85 769,80 774,80 774,90 769,90 764,85 " style="fill:white; stroke-width:1; stroke:black; " description="&lt;b&gt;ALV82349.1&lt;/b&gt;&lt;br&gt;ornithine carbamoyltransferase&lt;br&gt;Location: 78228 - 79229" locus_tag="ALV82349.1" class="clusterblast-orf" id="dummy-1_h1_6_42"  />
</g>
<g id="a1_0043"  >
<polygon points="774,85 779,80 780,80 780,90 779,90 774,85 " style="fill:white; stroke-width:1; stroke:black; " description="&lt;b&gt;ALV82364.1&lt;/b&gt;&lt;br&gt;arginine deiminase&lt;br&gt;Location: 79252 - 79794" locus_tag="ALV82364.1" class="clusterblast-orf" id="dummy-1_h1_6_43"  />
</g>
</svg>
