<svg xmlns="http://www.w3.org/2000/svg" xmlns:xlink="http://www.w3.org/1999/xlink" version="1.1" x="0" y="0" height="230" width="800" viewBox="0 0 800 230" preserveAspectRatio="none"  >
<g label="Query sequence" class="clusterblast-cluster"  >
<text x="5" y="20" class="clusterblast-acc"  >
Query sequence</text>
<line x1="10" y1="35" x2="778.0" y2="35" style="stroke-width:1; stroke:grey; "  />
<polygon points="10,35 15,30 126,30 126,40 15,40 10,35 " style="fill:#d81515; stroke-width:1; stroke:black; " description="&lt;b&gt;cds126_1020&lt;/b&gt;&lt;br&gt;Ectoine dioxygenase&lt;br&gt;Location: 126 - 1020" locus_tag="cds126_1020" class="clusterblast-orf" id="dummy-1_q0_0_all"  />
<polygon points="126,35 131,30 178,30 178,40 131,40 126,35 " style="fill:#77d815; stroke-width:1; stroke:black; " description="&lt;b&gt;cds1023_1422&lt;/b&gt;&lt;br&gt;L-ectoine synthase&lt;br&gt;Location: 1023 - 1422" locus_tag="cds1023_1422" class="clusterblast-orf" id="dummy-1_q1_0_all"  />
<polygon points="186,35 191,30 349,30 349,40 191,40 186,35 " style="fill:#15d8d8; stroke-width:1; stroke:black; " description="&lt;b&gt;cds1485_2748&lt;/b&gt;&lt;br&gt;Diaminobutyrate--2-oxoglutarate transaminase&lt;br&gt;Location: 1485 - 2748" locus_tag="cds1485_2748" class="clusterblast-orf" id="dummy-1_q2_0_all"  />
<polygon points="362,35 367,30 429,30 429,40 367,40 362,35 " style="fill:#7715d8; stroke-width:1; stroke:black; " description="&lt;b&gt;cds2845_3370&lt;/b&gt;&lt;br&gt;L-2,4-diaminobutyric acid acetyltransferase&lt;br&gt;Location: 2845 - 3370" locus_tag="cds2845_3370" class="clusterblast-orf" id="dummy-1_q3_0_all"  />
<polygon points="473,35 478,30 616,30 616,40 478,40 473,35 " style="fill:white; stroke-width:1; stroke:black; " description="&lt;b&gt;cds3707_4814&lt;/b&gt;&lt;br&gt;Pyridoxamine--pyruvate transaminase&lt;br&gt;Location: 3707 - 4814" locus_tag="cds3707_4814" class="clusterblast-orf" id="dummy-1_q4_0_all"  />
<polygon points="629,40 766,40 771,35 766,30 629,30 629,40 " style="fill:white; stroke-width:1; stroke:black; " description="&lt;b&gt;cds4914_6015&lt;/b&gt;&lt;br&gt;putative protein&lt;br&gt;Location: 4914 - 6015" locus_tag="cds4914_6015" class="clusterblast-orf" id="dummy-1_q5_0_all"  />
</g>
<g label="BGC0000854" description="BGC0000854_c1: ectoine (33% of genes show similarity), Other" class="clusterblast-cluster"  >
<text x="5" y="70" class="clusterblast-acc"  >
<a xlink:href="https://mibig.secondarymetabolites.org/go/BGC0000854/1" target="_blank">BGC0000854</a>:                                                                          ectoine (33% of genes show similarity), Other</text>
<line x1="10" y1="85" x2="778.0" y2="85" style="stroke-width:1; stroke:grey; "  />
</g>
<g id="a1_000"  >
<polygon points="0,85 5,80 123,80 123,90 5,90 0,85 " style="fill:#d81515; stroke-width:1; stroke:black; " description="&lt;b&gt;AAY96769.2&lt;/b&gt;&lt;br&gt;putative ectoine hydroxylase&lt;br&gt;Location: 6879 - 5920&lt;br&gt;&lt;br&gt;&lt;b&gt;BlastP hit with cds126_1020&lt;/b&gt;&lt;br&gt;Percentage identity: 47&lt;br&gt;Percentage coverage: 96&lt;br&gt;BLAST bit score: 271&lt;br&gt;E-value: 1.4e-72" locus_tag="AAY96769.2" class="clusterblast-orf" id="dummy-1_h1_3_0"  />
</g>
<g id="a1_001"  >
<polygon points="170,85 175,80 356,80 356,90 175,90 170,85 " style="fill:white; stroke-width:1; stroke:black; " description="&lt;b&gt;AAY96773.1&lt;/b&gt;&lt;br&gt;aspartokinase&lt;br&gt;Location: 5559 - 4117" locus_tag="AAY96773.1" class="clusterblast-orf" id="dummy-1_h1_3_1"  />
</g>
<g id="a1_002"  >
<polygon points="364,85 369,80 416,80 416,90 369,90 364,85 " style="fill:white; stroke-width:1; stroke:black; " description="&lt;b&gt;AAY96772.1&lt;/b&gt;&lt;br&gt;ectoine synthase&lt;br&gt;Location: 4056 - 3652" locus_tag="AAY96772.1" class="clusterblast-orf" id="dummy-1_h1_3_2"  />
</g>
<g id="a1_003"  >
<polygon points="423,85 428,80 595,80 595,90 428,90 423,85 " style="fill:#15d8d8; stroke-width:1; stroke:black; " description="&lt;b&gt;AAY96771.1&lt;/b&gt;&lt;br&gt;L-2,4-diaminobutyrat transaminase&lt;br&gt;Location: 3601 - 2270&lt;br&gt;&lt;br&gt;&lt;b&gt;BlastP hit with cds1485_2748&lt;/b&gt;&lt;br&gt;Percentage identity: 53&lt;br&gt;Percentage coverage: 98&lt;br&gt;BLAST bit score: 452&lt;br&gt;E-value: 6.3e-127" locus_tag="AAY96771.1" class="clusterblast-orf" id="dummy-1_h1_3_3"  />
</g>
<g id="a1_004"  >
<polygon points="600,85 605,80 667,80 667,90 605,90 600,85 " style="fill:white; stroke-width:1; stroke:black; " description="&lt;b&gt;AAY96770.1&lt;/b&gt;&lt;br&gt;L-2,4-diaminobutyrat acetyltransferase&lt;br&gt;Location: 2227 - 1709" locus_tag="AAY96770.1" class="clusterblast-orf" id="dummy-1_h1_3_4"  />
</g>
<g id="a1_005"  >
<polygon points="710,90 775,90 780,85 775,80 710,80 710,90 " style="fill:white; stroke-width:1; stroke:black; " description="&lt;b&gt;ACP19701.1&lt;/b&gt;&lt;br&gt;transcriptional regulator MarR family&lt;br&gt;Location: 1381 - 839" locus_tag="ACP19701.1" class="clusterblast-orf" id="dummy-1_h1_3_5"  />
</g>
</svg>
