<svg xmlns="http://www.w3.org/2000/svg" xmlns:xlink="http://www.w3.org/1999/xlink" version="1.1" x="0" y="0" height="230" width="800" viewBox="0 0 800 230" preserveAspectRatio="none"  >
<g label="Query sequence" class="clusterblast-cluster"  >
<text x="5" y="20" class="clusterblast-acc"  >
Query sequence</text>
<line x1="10" y1="35" x2="778.0" y2="35" style="stroke-width:1; stroke:grey; "  />
<polygon points="0,35 5,30 19,30 19,40 5,40 0,35 " style="fill:white; stroke-width:1; stroke:black; " description="&lt;b&gt;cds63_924&lt;/b&gt;&lt;br&gt;hypothetical protein&lt;br&gt;Location: 63 - 924" locus_tag="cds63_924" class="clusterblast-orf" id="dummy-1_q0_0_all"  />
<polygon points="22,35 27,30 31,30 31,40 27,40 22,35 " style="fill:white; stroke-width:1; stroke:black; " description="&lt;b&gt;cds1063_1474&lt;/b&gt;&lt;br&gt;hypothetical protein&lt;br&gt;Location: 1063 - 1474" locus_tag="cds1063_1474" class="clusterblast-orf" id="dummy-1_q1_0_all"  />
<polygon points="37,40 38,40 43,35 38,30 37,30 37,40 " style="fill:white; stroke-width:1; stroke:black; " description="&lt;b&gt;cds1786_2032&lt;/b&gt;&lt;br&gt;hypothetical protein&lt;br&gt;Location: 1786 - 2032" locus_tag="cds1786_2032" class="clusterblast-orf" id="dummy-1_q2_0_all"  />
<polygon points="45,35 49,30 49,40 45,35 " style="fill:white; stroke-width:1; stroke:black; " description="&lt;b&gt;cds2110_2305&lt;/b&gt;&lt;br&gt;hypothetical protein&lt;br&gt;Location: 2110 - 2305" locus_tag="cds2110_2305" class="clusterblast-orf" id="dummy-1_q3_0_all"  />
<polygon points="49,35 54,30 65,30 65,40 54,40 49,35 " style="fill:white; stroke-width:1; stroke:black; " description="&lt;b&gt;cds2301_3054&lt;/b&gt;&lt;br&gt;hypothetical protein&lt;br&gt;Location: 2301 - 3054" locus_tag="cds2301_3054" class="clusterblast-orf" id="dummy-1_q4_0_all"  />
<polygon points="70,40 74,40 79,35 74,30 70,30 70,40 " style="fill:white; stroke-width:1; stroke:black; " description="&lt;b&gt;cds3251_3692&lt;/b&gt;&lt;br&gt;hypothetical protein&lt;br&gt;Location: 3251 - 3692" locus_tag="cds3251_3692" class="clusterblast-orf" id="dummy-1_q5_0_all"  />
<polygon points="84,40 94,40 99,35 94,30 84,30 84,40 " style="fill:white; stroke-width:1; stroke:black; " description="&lt;b&gt;cds3911_4616&lt;/b&gt;&lt;br&gt;hypothetical protein&lt;br&gt;Location: 3911 - 4616" locus_tag="cds3911_4616" class="clusterblast-orf" id="dummy-1_q6_0_all"  />
<polygon points="106,40 109,40 114,35 109,30 106,30 106,40 " style="fill:#d81515; stroke-width:1; stroke:black; " description="&lt;b&gt;cds4897_5269&lt;/b&gt;&lt;br&gt;30S ribosomal protein S12&lt;br&gt;Location: 4897 - 5269" locus_tag="cds4897_5269" class="clusterblast-orf" id="dummy-1_q7_0_all"  />
<polygon points="114,40 119,40 124,35 119,30 114,30 114,40 " style="fill:#5cd815; stroke-width:1; stroke:black; " description="&lt;b&gt;cds5271_5742&lt;/b&gt;&lt;br&gt;30S ribosomal protein S7&lt;br&gt;Location: 5271 - 5742" locus_tag="cds5271_5742" class="clusterblast-orf" id="dummy-1_q8_0_all"  />
<polygon points="125,40 167,40 172,35 167,30 125,30 125,40 " style="fill:#15a3d8; stroke-width:1; stroke:black; " description="&lt;b&gt;cds5780_7910&lt;/b&gt;&lt;br&gt;Elongation factor G&lt;br&gt;Location: 5780 - 7910" locus_tag="cds5780_7910" class="clusterblast-orf" id="dummy-1_q9_0_all"  />
<polygon points="175,40 196,40 201,35 196,30 175,30 175,40 " style="fill:#9115d8; stroke-width:1; stroke:black; " description="&lt;b&gt;cds8057_9251&lt;/b&gt;&lt;br&gt;Elongation factor Tu&lt;br&gt;Location: 8057 - 9251" locus_tag="cds8057_9251" class="clusterblast-orf" id="dummy-1_q10_0_all"  />
<polygon points="206,35 211,30 214,30 214,40 211,40 206,35 " style="fill:#d84a15; stroke-width:1; stroke:black; " description="&lt;b&gt;cds9466_9859&lt;/b&gt;&lt;br&gt;hypothetical protein&lt;br&gt;Location: 9466 - 9859" locus_tag="cds9466_9859" class="clusterblast-orf" id="dummy-1_q11_0_all"  />
<polygon points="214,35 219,30 229,30 229,40 219,40 214,35 " style="fill:#27d815; stroke-width:1; stroke:black; " description="&lt;b&gt;cds9855_10533&lt;/b&gt;&lt;br&gt;hypothetical protein&lt;br&gt;Location: 9855 - 10533" locus_tag="cds9855_10533" class="clusterblast-orf" id="dummy-1_q12_0_all"  />
<polygon points="229,35 234,30 272,30 272,40 234,40 229,35 " style="fill:#156ed8; stroke-width:1; stroke:black; " description="&lt;b&gt;cds10547_12503&lt;/b&gt;&lt;br&gt;hypothetical protein&lt;br&gt;Location: 10547 - 12503" locus_tag="cds10547_12503" class="clusterblast-orf" id="dummy-1_q13_0_all"  />
<polygon points="273,35 278,30 297,30 297,40 278,40 273,35 " style="fill:#c715d8; stroke-width:1; stroke:black; " description="&lt;b&gt;cds12521_13655&lt;/b&gt;&lt;br&gt;hypothetical protein&lt;br&gt;Location: 12521 - 13655" locus_tag="cds12521_13655" class="clusterblast-orf" id="dummy-1_q14_0_all"  />
<polygon points="300,35 303,30 303,40 300,35 " style="fill:#d88015; stroke-width:1; stroke:black; " description="&lt;b&gt;cds13773_13926&lt;/b&gt;&lt;br&gt;hypothetical protein&lt;br&gt;Location: 13773 - 13926" locus_tag="cds13773_13926" class="clusterblast-orf" id="dummy-1_q15_0_all"  />
<polygon points="306,35 310,30 310,40 306,35 " style="fill:#15d839; stroke-width:1; stroke:black; " description="&lt;b&gt;cds14028_14223&lt;/b&gt;&lt;br&gt;hypothetical protein&lt;br&gt;Location: 14028 - 14223" locus_tag="cds14028_14223" class="clusterblast-orf" id="dummy-1_q16_0_all"  />
<polygon points="311,35 316,30 332,30 332,40 316,40 311,35 " style="fill:#1539d8; stroke-width:1; stroke:black; " description="&lt;b&gt;cds14277_15255&lt;/b&gt;&lt;br&gt;hypothetical protein&lt;br&gt;Location: 14277 - 15255" locus_tag="cds14277_15255" class="clusterblast-orf" id="dummy-1_q17_0_all"  />
<polygon points="332,35 337,30 390,30 390,40 337,40 332,35 " style="fill:#d815b5; stroke-width:1; stroke:black; " description="&lt;b&gt;cds15235_17896&lt;/b&gt;&lt;br&gt;hypothetical protein&lt;br&gt;Location: 15235 - 17896" locus_tag="cds15235_17896" class="clusterblast-orf" id="dummy-1_q18_0_all"  />
<polygon points="391,35 396,30 433,30 433,40 396,40 391,35 " style="fill:#d8b515; stroke-width:1; stroke:black; " description="&lt;b&gt;cds17924_19844&lt;/b&gt;&lt;br&gt;hypothetical protein&lt;br&gt;Location: 17924 - 19844" locus_tag="cds17924_19844" class="clusterblast-orf" id="dummy-1_q19_0_all"  />
<polygon points="433,35 438,30 471,30 471,40 438,40 433,35 " style="fill:#15d86e; stroke-width:1; stroke:black; " description="&lt;b&gt;cds19840_21598&lt;/b&gt;&lt;br&gt;hypothetical protein&lt;br&gt;Location: 19840 - 21598" locus_tag="cds19840_21598" class="clusterblast-orf" id="dummy-1_q20_0_all"  />
<polygon points="472,35 477,30 487,30 487,40 477,40 472,35 " style="fill:#2715d8; stroke-width:1; stroke:black; " description="&lt;b&gt;cds21626_22331&lt;/b&gt;&lt;br&gt;hypothetical protein&lt;br&gt;Location: 21626 - 22331" locus_tag="cds21626_22331" class="clusterblast-orf" id="dummy-1_q21_0_all"  />
<polygon points="488,35 493,30 523,30 523,40 493,40 488,35 " style="fill:#d81580; stroke-width:1; stroke:black; " description="&lt;b&gt;cds22334_23948&lt;/b&gt;&lt;br&gt;hypothetical protein&lt;br&gt;Location: 22334 - 23948" locus_tag="cds22334_23948" class="clusterblast-orf" id="dummy-1_q22_0_all"  />
<polygon points="524,35 529,30 537,30 537,40 529,40 524,35 " style="fill:#c7d815; stroke-width:1; stroke:black; " description="&lt;b&gt;cds23989_24595&lt;/b&gt;&lt;br&gt;hypothetical protein&lt;br&gt;Location: 23989 - 24595" locus_tag="cds23989_24595" class="clusterblast-orf" id="dummy-1_q23_0_all"  />
<polygon points="538,35 543,30 567,30 567,40 543,40 538,35 " style="fill:#15d8a3; stroke-width:1; stroke:black; " description="&lt;b&gt;cds24615_25944&lt;/b&gt;&lt;br&gt;hypothetical protein&lt;br&gt;Location: 24615 - 25944" locus_tag="cds24615_25944" class="clusterblast-orf" id="dummy-1_q24_0_all"  />
<polygon points="577,40 586,40 591,35 586,30 577,30 577,40 " style="fill:#5c15d8; stroke-width:1; stroke:black; " description="&lt;b&gt;cds26401_27034&lt;/b&gt;&lt;br&gt;2-methoxy-6-polyprenyl-1,4-benzoquinol methylase, mitochondrial&lt;br&gt;Location: 26401 - 27034" locus_tag="cds26401_27034" class="clusterblast-orf" id="dummy-1_q25_0_all"  />
<polygon points="595,40 616,40 621,35 616,30 595,30 595,40 " style="fill:#d8154a; stroke-width:1; stroke:black; " description="&lt;b&gt;cds27231_28431&lt;/b&gt;&lt;br&gt;Erythromycin C-12 hydroxylase&lt;br&gt;Location: 27231 - 28431" locus_tag="cds27231_28431" class="clusterblast-orf" id="dummy-1_q26_0_all"  />
<polygon points="623,40 635,40 640,35 635,30 623,30 623,40 " style="fill:#91d815; stroke-width:1; stroke:black; " description="&lt;b&gt;cds28501_29305&lt;/b&gt;&lt;br&gt;23S rRNA (adenosine(1067)-2'-O)-methyltransferase&lt;br&gt;Location: 28501 - 29305" locus_tag="cds28501_29305" class="clusterblast-orf" id="dummy-1_q27_0_all"  />
<polygon points="642,35 647,30 689,30 689,40 647,40 642,35 " style="fill:#15d8d8; stroke-width:1; stroke:black; " description="&lt;b&gt;cds29404_31543&lt;/b&gt;&lt;br&gt;hypothetical protein&lt;br&gt;Location: 29404 - 31543" locus_tag="cds29404_31543" class="clusterblast-orf" id="dummy-1_q28_0_all"  />
<polygon points="693,35 698,30 714,30 714,40 698,40 693,35 " style="fill:white; stroke-width:1; stroke:black; " description="&lt;b&gt;cds31727_32669&lt;/b&gt;&lt;br&gt;hypothetical protein&lt;br&gt;Location: 31727 - 32669" locus_tag="cds31727_32669" class="clusterblast-orf" id="dummy-1_q29_0_all"  />
<polygon points="723,40 745,40 750,35 745,30 723,30 723,40 " style="fill:white; stroke-width:1; stroke:black; " description="&lt;b&gt;cds33101_34295&lt;/b&gt;&lt;br&gt;hypothetical protein&lt;br&gt;Location: 33101 - 34295" locus_tag="cds33101_34295" class="clusterblast-orf" id="dummy-1_q30_0_all"  />
<polygon points="750,35 755,30 760,30 760,40 755,40 750,35 " style="fill:white; stroke-width:1; stroke:black; " description="&lt;b&gt;cds34307_34760&lt;/b&gt;&lt;br&gt;IS1595 family transposase ISPaen4&lt;br&gt;Location: 34307 - 34760" locus_tag="cds34307_34760" class="clusterblast-orf" id="dummy-1_q31_0_all"  />
<polygon points="760,35 765,30 780,30 780,40 765,40 760,35 " style="fill:white; stroke-width:1; stroke:black; " description="&lt;b&gt;cds34793_35672&lt;/b&gt;&lt;br&gt;hypothetical protein&lt;br&gt;Location: 34793 - 35672" locus_tag="cds34793_35672" class="clusterblast-orf" id="dummy-1_q32_0_all"  />
</g>
<g label="BGC0001155" description="BGC0001155_c1: GE2270 (19% of genes show similarity), RiPP:Thiopeptide" class="clusterblast-cluster"  >
<text x="5" y="70" class="clusterblast-acc"  >
<a xlink:href="https://mibig.secondarymetabolites.org/go/BGC0001155/1" target="_blank">BGC0001155</a>:                                                                           GE2270 (19% of genes show similarity), RiPP:Thiopeptide</text>
<line x1="10" y1="85" x2="778.0" y2="85" style="stroke-width:1; stroke:grey; "  />
</g>
<g id="a1_000"  >
<polygon points="103,90 113,90 118,85 113,80 103,80 103,90 " style="fill:white; stroke-width:1; stroke:black; " description="&lt;b&gt;AGY49580.1&lt;/b&gt;&lt;br&gt;TetR transcriptional regulator&lt;br&gt;Location: 101 - 814" locus_tag="AGY49580.1" class="clusterblast-orf" id="dummy-1_h1_5_0"  />
</g>
<g id="a1_001"  >
<polygon points="119,90 154,90 159,85 154,80 119,80 119,90 " style="fill:white; stroke-width:1; stroke:black; " description="&lt;b&gt;AGY49581.1&lt;/b&gt;&lt;br&gt;cyclodehydratase (oxazoline formation)&lt;br&gt;Location: 868 - 2691" locus_tag="AGY49581.1" class="clusterblast-orf" id="dummy-1_h1_5_1"  />
</g>
<g id="a1_002"  >
<polygon points="159,90 206,90 211,85 206,80 159,80 159,90 " style="fill:white; stroke-width:1; stroke:black; " description="&lt;b&gt;AGY49582.1&lt;/b&gt;&lt;br&gt;dehydratase&lt;br&gt;Location: 2688 - 5066" locus_tag="AGY49582.1" class="clusterblast-orf" id="dummy-1_h1_5_2"  />
</g>
<g id="a1_003"  >
<polygon points="211,90 229,90 234,85 229,80 211,80 211,90 " style="fill:white; stroke-width:1; stroke:black; " description="&lt;b&gt;AGY49583.1&lt;/b&gt;&lt;br&gt;P450 monooxygenase&lt;br&gt;Location: 5063 - 6097" locus_tag="AGY49583.1" class="clusterblast-orf" id="dummy-1_h1_5_3"  />
</g>
<g id="a1_004"  >
<polygon points="237,90 246,90 251,85 246,80 237,80 237,90 " style="fill:white; stroke-width:1; stroke:black; " description="&lt;b&gt;AGY49584.1&lt;/b&gt;&lt;br&gt;hypothetical protein&lt;br&gt;Location: 6222 - 6869" locus_tag="AGY49584.1" class="clusterblast-orf" id="dummy-1_h1_5_4"  />
</g>
<g id="a1_005"  >
<polygon points="252,90 271,90 276,85 271,80 252,80 252,90 " style="fill:white; stroke-width:1; stroke:black; " description="&lt;b&gt;AGY49585.1&lt;/b&gt;&lt;br&gt;N-methyltransferase&lt;br&gt;Location: 6914 - 8032" locus_tag="AGY49585.1" class="clusterblast-orf" id="dummy-1_h1_5_5"  />
</g>
<g id="a1_006"  >
<polygon points="278,90 299,90 304,85 299,80 278,80 278,90 " style="fill:white; stroke-width:1; stroke:black; " description="&lt;b&gt;AGY49586.1&lt;/b&gt;&lt;br&gt;radical SAM&lt;br&gt;Location: 8107 - 9291" locus_tag="AGY49586.1" class="clusterblast-orf" id="dummy-1_h1_5_6"  />
</g>
<g id="a1_007"  >
<polygon points="307,90 310,85 307,80 307,90 " style="fill:white; stroke-width:1; stroke:black; " description="&lt;b&gt;AGY49587.1&lt;/b&gt;&lt;br&gt;precursor peptide&lt;br&gt;Location: 9417 - 9584" locus_tag="AGY49587.1" class="clusterblast-orf" id="dummy-1_h1_5_7"  />
</g>
<g id="a1_008"  >
<polygon points="312,90 361,90 366,85 361,80 312,80 312,90 " style="fill:white; stroke-width:1; stroke:black; " description="&lt;b&gt;AGY49588.1&lt;/b&gt;&lt;br&gt;dehydratase (serine dehydration)&lt;br&gt;Location: 9642 - 12131" locus_tag="AGY49588.1" class="clusterblast-orf" id="dummy-1_h1_5_8"  />
</g>
<g id="a1_009"  >
<polygon points="366,90 381,90 386,85 381,80 366,80 366,90 " style="fill:white; stroke-width:1; stroke:black; " description="&lt;b&gt;AGY49589.1&lt;/b&gt;&lt;br&gt;dehydratase (serine dehydration)&lt;br&gt;Location: 12124 - 13032" locus_tag="AGY49589.1" class="clusterblast-orf" id="dummy-1_h1_5_9"  />
</g>
<g id="a1_0010"  >
<polygon points="386,90 402,90 407,85 402,80 386,80 386,90 " style="fill:white; stroke-width:1; stroke:black; " description="&lt;b&gt;AGY49590.1&lt;/b&gt;&lt;br&gt;[4 + 2] cycloaddition&lt;br&gt;Location: 13013 - 14014" locus_tag="AGY49590.1" class="clusterblast-orf" id="dummy-1_h1_5_10"  />
</g>
<g id="a1_0011"  >
<polygon points="407,90 432,90 437,85 432,80 407,80 407,90 " style="fill:white; stroke-width:1; stroke:black; " description="&lt;b&gt;AGY49591.1&lt;/b&gt;&lt;br&gt;azoline-synthesizing dehydrogenase&lt;br&gt;Location: 14014 - 15384" locus_tag="AGY49591.1" class="clusterblast-orf" id="dummy-1_h1_5_11"  />
</g>
<g id="a1_0012"  >
<polygon points="437,90 472,90 477,85 472,80 437,80 437,90 " style="fill:white; stroke-width:1; stroke:black; " description="&lt;b&gt;AGY49592.1&lt;/b&gt;&lt;br&gt;hypothetical protein&lt;br&gt;Location: 15372 - 17168" locus_tag="AGY49592.1" class="clusterblast-orf" id="dummy-1_h1_5_12"  />
</g>
<g id="a1_0013"  >
<polygon points="477,90 510,90 515,85 510,80 477,80 477,90 " style="fill:white; stroke-width:1; stroke:black; " description="&lt;b&gt;AGY49593.1&lt;/b&gt;&lt;br&gt;cyclodehydratase&lt;br&gt;Location: 17168 - 18904" locus_tag="AGY49593.1" class="clusterblast-orf" id="dummy-1_h1_5_13"  />
</g>
<g id="a1_0014"  >
<polygon points="515,90 518,90 523,85 518,80 515,80 515,90 " style="fill:white; stroke-width:1; stroke:black; " description="&lt;b&gt;AGY49594.1&lt;/b&gt;&lt;br&gt;hypothetical&lt;br&gt;Location: 18921 - 19289" locus_tag="AGY49594.1" class="clusterblast-orf" id="dummy-1_h1_5_14"  />
</g>
<g id="a1_0015"  >
<polygon points="524,90 545,90 550,85 545,80 524,80 524,90 " style="fill:white; stroke-width:1; stroke:black; " description="&lt;b&gt;AGY49595.1&lt;/b&gt;&lt;br&gt;radical SAM&lt;br&gt;Location: 19339 - 20505" locus_tag="AGY49595.1" class="clusterblast-orf" id="dummy-1_h1_5_15"  />
</g>
<g id="a1_0016"  >
<polygon points="550,90 567,90 572,85 567,80 550,80 550,90 " style="fill:white; stroke-width:1; stroke:black; " description="&lt;b&gt;AGY49596.1&lt;/b&gt;&lt;br&gt;O-methyltransferase&lt;br&gt;Location: 20515 - 21522" locus_tag="AGY49596.1" class="clusterblast-orf" id="dummy-1_h1_5_16"  />
</g>
<g id="a1_0017"  >
<polygon points="583,90 586,90 591,85 586,80 583,80 583,90 " style="fill:#d81515; stroke-width:1; stroke:black; " description="&lt;b&gt;AGY49597.1&lt;/b&gt;&lt;br&gt;S12P&lt;br&gt;Location: 22030 - 22401&lt;br&gt;&lt;br&gt;&lt;b&gt;BlastP hit with cds4897_5269&lt;/b&gt;&lt;br&gt;Percentage identity: 92&lt;br&gt;Percentage coverage: 100&lt;br&gt;BLAST bit score: 223&lt;br&gt;E-value: 2.4e-58" locus_tag="AGY49597.1" class="clusterblast-orf" id="dummy-1_h1_5_17"  />
</g>
<g id="a1_0018"  >
<polygon points="591,90 597,90 602,85 597,80 591,80 591,90 " style="fill:#5cd815; stroke-width:1; stroke:black; " description="&lt;b&gt;AGY49598.1&lt;/b&gt;&lt;br&gt;S7P&lt;br&gt;Location: 22404 - 22874&lt;br&gt;&lt;br&gt;&lt;b&gt;BlastP hit with cds5271_5742&lt;/b&gt;&lt;br&gt;Percentage identity: 80&lt;br&gt;Percentage coverage: 100&lt;br&gt;BLAST bit score: 251&lt;br&gt;E-value: 7.9e-67" locus_tag="AGY49598.1" class="clusterblast-orf" id="dummy-1_h1_5_18"  />
</g>
<g id="a1_0019"  >
<polygon points="602,90 643,90 648,85 643,80 602,80 602,90 " style="fill:#15a3d8; stroke-width:1; stroke:black; " description="&lt;b&gt;AGY49599.1&lt;/b&gt;&lt;br&gt;EF G&lt;br&gt;Location: 22911 - 25004&lt;br&gt;&lt;br&gt;&lt;b&gt;BlastP hit with cds5780_7910&lt;/b&gt;&lt;br&gt;Percentage identity: 76&lt;br&gt;Percentage coverage: 100&lt;br&gt;BLAST bit score: 1079&lt;br&gt;E-value: 0.0" locus_tag="AGY49599.1" class="clusterblast-orf" id="dummy-1_h1_5_19"  />
</g>
<g id="a1_0020"  >
<polygon points="650,90 671,90 676,85 671,80 650,80 650,90 " style="fill:#9115d8; stroke-width:1; stroke:black; " description="&lt;b&gt;AGY49600.1&lt;/b&gt;&lt;br&gt;EF Tu&lt;br&gt;Location: 25094 - 26287&lt;br&gt;&lt;br&gt;&lt;b&gt;BlastP hit with cds8057_9251&lt;/b&gt;&lt;br&gt;Percentage identity: 87&lt;br&gt;Percentage coverage: 100&lt;br&gt;BLAST bit score: 698&lt;br&gt;E-value: 8.1e-201" locus_tag="AGY49600.1" class="clusterblast-orf" id="dummy-1_h1_5_20"  />
</g>
</svg>
