<svg xmlns="http://www.w3.org/2000/svg" xmlns:xlink="http://www.w3.org/1999/xlink" version="1.1" x="0" y="0" height="230" width="800" viewBox="0 0 800 230" preserveAspectRatio="none"  >
<g label="Query sequence" class="clusterblast-cluster"  >
<text x="5" y="20" class="clusterblast-acc"  >
Query sequence</text>
<line x1="10" y1="35" x2="778.0" y2="35" style="stroke-width:1; stroke:grey; "  />
<polygon points="245,40 249,35 245,30 245,40 " style="fill:white; stroke-width:1; stroke:black; " description="&lt;b&gt;cds16785_17406&lt;/b&gt;&lt;br&gt;putative protein YciO&lt;br&gt;Location: 16785 - 17406" locus_tag="cds16785_17406" class="clusterblast-orf" id="dummy-1_q0_0_all"  />
<polygon points="249,40 251,35 249,30 249,40 " style="fill:white; stroke-width:1; stroke:black; " description="&lt;b&gt;cds17518_17710&lt;/b&gt;&lt;br&gt;hypothetical protein&lt;br&gt;Location: 17518 - 17710" locus_tag="cds17518_17710" class="clusterblast-orf" id="dummy-1_q1_0_all"  />
<polygon points="252,40 254,35 252,30 252,40 " style="fill:white; stroke-width:1; stroke:black; " description="&lt;b&gt;cds17886_18276&lt;/b&gt;&lt;br&gt;hypothetical protein&lt;br&gt;Location: 17886 - 18276" locus_tag="cds17886_18276" class="clusterblast-orf" id="dummy-1_q2_0_all"  />
<polygon points="254,35 259,30 260,30 260,40 259,40 254,35 " style="fill:white; stroke-width:1; stroke:black; " description="&lt;b&gt;cds18279_19287&lt;/b&gt;&lt;br&gt;hypothetical protein&lt;br&gt;Location: 18279 - 19287" locus_tag="cds18279_19287" class="clusterblast-orf" id="dummy-1_q3_0_all"  />
<polygon points="260,35 263,30 263,40 260,35 " style="fill:white; stroke-width:1; stroke:black; " description="&lt;b&gt;cds19384_19807&lt;/b&gt;&lt;br&gt;HTH-type transcriptional regulator NmtR&lt;br&gt;Location: 19384 - 19807" locus_tag="cds19384_19807" class="clusterblast-orf" id="dummy-1_q4_0_all"  />
<polygon points="263,40 270,40 275,35 270,30 263,30 263,40 " style="fill:white; stroke-width:1; stroke:black; " description="&lt;b&gt;cds19864_21892&lt;/b&gt;&lt;br&gt;putative cobalt/nickel-exporting P-type ATPase&lt;br&gt;Location: 19864 - 21892" locus_tag="cds19864_21892" class="clusterblast-orf" id="dummy-1_q5_0_all"  />
<polygon points="276,40 280,40 285,35 280,30 276,30 276,40 " style="fill:white; stroke-width:1; stroke:black; " description="&lt;b&gt;cds22036_23491&lt;/b&gt;&lt;br&gt;Arginine/ornithine antiporter&lt;br&gt;Location: 22036 - 23491" locus_tag="cds22036_23491" class="clusterblast-orf" id="dummy-1_q6_0_all"  />
<polygon points="285,40 288,40 293,35 288,30 285,30 285,40 " style="fill:white; stroke-width:1; stroke:black; " description="&lt;b&gt;cds23569_24835&lt;/b&gt;&lt;br&gt;Arginine deiminase&lt;br&gt;Location: 23569 - 24835" locus_tag="cds23569_24835" class="clusterblast-orf" id="dummy-1_q7_0_all"  />
<polygon points="293,35 298,30 298,30 298,40 298,40 293,35 " style="fill:white; stroke-width:1; stroke:black; " description="&lt;b&gt;cds24958_25849&lt;/b&gt;&lt;br&gt;hypothetical protein&lt;br&gt;Location: 24958 - 25849" locus_tag="cds24958_25849" class="clusterblast-orf" id="dummy-1_q8_0_all"  />
<polygon points="299,35 301,30 301,40 299,35 " style="fill:#d81515; stroke-width:1; stroke:black; " description="&lt;b&gt;cds25950_26358&lt;/b&gt;&lt;br&gt;hypothetical protein&lt;br&gt;Location: 25950 - 26358" locus_tag="cds25950_26358" class="clusterblast-orf" id="dummy-1_q9_0_all"  />
<polygon points="302,40 302,40 307,35 302,30 302,30 302,40 " style="fill:#63d815; stroke-width:1; stroke:black; " description="&lt;b&gt;cds26456_27326&lt;/b&gt;&lt;br&gt;Soluble epoxide hydrolase&lt;br&gt;Location: 26456 - 27326" locus_tag="cds26456_27326" class="clusterblast-orf" id="dummy-1_q10_0_all"  />
<polygon points="308,35 313,30 313,30 313,40 313,40 308,35 " style="fill:white; stroke-width:1; stroke:black; " description="&lt;b&gt;cds27380_28340&lt;/b&gt;&lt;br&gt;Acarbose 7(IV)-phosphotransferase&lt;br&gt;Location: 27380 - 28340" locus_tag="cds27380_28340" class="clusterblast-orf" id="dummy-1_q11_0_all"  />
<polygon points="314,35 319,30 322,30 322,40 319,40 314,35 " style="fill:white; stroke-width:1; stroke:black; " description="&lt;b&gt;cds28457_29837&lt;/b&gt;&lt;br&gt;Alpha-amylase&lt;br&gt;Location: 28457 - 29837" locus_tag="cds28457_29837" class="clusterblast-orf" id="dummy-1_q12_0_all"  />
<polygon points="323,35 328,30 328,30 328,40 328,40 323,35 " style="fill:white; stroke-width:1; stroke:black; " description="&lt;b&gt;cds30005_30785&lt;/b&gt;&lt;br&gt;HTH-type transcriptional regulator XynR&lt;br&gt;Location: 30005 - 30785" locus_tag="cds30005_30785" class="clusterblast-orf" id="dummy-1_q13_0_all"  />
<polygon points="329,40 329,40 334,35 329,30 329,30 329,40 " style="fill:#15b1d8; stroke-width:1; stroke:black; " description="&lt;b&gt;cds31033_31933&lt;/b&gt;&lt;br&gt;Acetylglutamate kinase&lt;br&gt;Location: 31033 - 31933" locus_tag="cds31033_31933" class="clusterblast-orf" id="dummy-1_q14_0_all"  />
<polygon points="334,35 337,30 337,40 334,35 " style="fill:#b115d8; stroke-width:1; stroke:black; " description="&lt;b&gt;cds31943_32462&lt;/b&gt;&lt;br&gt;hypothetical protein&lt;br&gt;Location: 31943 - 32462" locus_tag="cds31943_32462" class="clusterblast-orf" id="dummy-1_q15_0_all"  />
<polygon points="338,40 340,40 345,35 340,30 338,30 338,40 " style="fill:#d86315; stroke-width:1; stroke:black; " description="&lt;b&gt;cds32619_33765&lt;/b&gt;&lt;br&gt;Enterochelin esterase&lt;br&gt;Location: 32619 - 33765" locus_tag="cds32619_33765" class="clusterblast-orf" id="dummy-1_q16_0_all"  />
<polygon points="345,35 350,30 355,30 355,40 350,40 345,35 " style="fill:#15d815; stroke-width:1; stroke:black; " description="&lt;b&gt;cds33768_35469&lt;/b&gt;&lt;br&gt;hypothetical protein&lt;br&gt;Location: 33768 - 35469" locus_tag="cds33768_35469" class="clusterblast-orf" id="dummy-1_q17_0_all"  />
<polygon points="355,35 360,30 419,30 419,40 360,40 355,35 " style="fill:#1563d8; stroke-width:1; stroke:black; " description="&lt;b&gt;cds35455_46369&lt;/b&gt;&lt;br&gt;D-alanine--D-alanyl carrier protein ligase&lt;br&gt;Location: 35455 - 46369" locus_tag="cds35455_46369" class="clusterblast-orf" id="dummy-1_q18_0_all"  />
<polygon points="420,35 425,30 430,30 430,40 425,40 420,35 " style="fill:#d815b1; stroke-width:1; stroke:black; " description="&lt;b&gt;cds46437_48228&lt;/b&gt;&lt;br&gt;Putative multidrug export ATP-binding/permease protein&lt;br&gt;Location: 46437 - 48228" locus_tag="cds46437_48228" class="clusterblast-orf" id="dummy-1_q19_0_all"  />
<polygon points="431,35 436,30 437,30 437,40 436,40 431,35 " style="fill:#d8b115; stroke-width:1; stroke:black; " description="&lt;b&gt;cds48271_49324&lt;/b&gt;&lt;br&gt;Putative ABC transporter substrate-binding lipoprotein YhfQ&lt;br&gt;Location: 48271 - 49324" locus_tag="cds48271_49324" class="clusterblast-orf" id="dummy-1_q20_0_all"  />
<polygon points="437,35 442,30 443,30 443,40 442,40 437,35 " style="fill:#15d863; stroke-width:1; stroke:black; " description="&lt;b&gt;cds49441_50329&lt;/b&gt;&lt;br&gt;putative siderophore transport system ATP-binding protein YusV&lt;br&gt;Location: 49441 - 50329" locus_tag="cds49441_50329" class="clusterblast-orf" id="dummy-1_q21_0_all"  />
<polygon points="443,35 448,30 449,30 449,40 448,40 443,35 " style="fill:#1515d8; stroke-width:1; stroke:black; " description="&lt;b&gt;cds50325_51387&lt;/b&gt;&lt;br&gt;putative siderophore transport system permease protein YfhA&lt;br&gt;Location: 50325 - 51387" locus_tag="cds50325_51387" class="clusterblast-orf" id="dummy-1_q22_0_all"  />
<polygon points="449,35 454,30 455,30 455,40 454,40 449,35 " style="fill:#d81563; stroke-width:1; stroke:black; " description="&lt;b&gt;cds51383_52370&lt;/b&gt;&lt;br&gt;Ferric enterobactin transport system permease protein FepD&lt;br&gt;Location: 51383 - 52370" locus_tag="cds51383_52370" class="clusterblast-orf" id="dummy-1_q23_0_all"  />
<polygon points="456,35 461,30 464,30 464,40 461,40 456,35 " style="fill:#b1d815; stroke-width:1; stroke:black; " description="&lt;b&gt;cds52527_53883&lt;/b&gt;&lt;br&gt;L-ornithine N(5)-monooxygenase&lt;br&gt;Location: 52527 - 53883" locus_tag="cds52527_53883" class="clusterblast-orf" id="dummy-1_q24_0_all"  />
<polygon points="465,40 469,40 474,35 469,30 465,30 465,40 " style="fill:white; stroke-width:1; stroke:black; " description="&lt;b&gt;cds54199_55654&lt;/b&gt;&lt;br&gt;Undecaprenyl-phosphate 4-deoxy-4-formamido-L-arabinose transferase&lt;br&gt;Location: 54199 - 55654" locus_tag="cds54199_55654" class="clusterblast-orf" id="dummy-1_q25_0_all"  />
<polygon points="474,40 478,40 483,35 478,30 474,30 474,40 " style="fill:white; stroke-width:1; stroke:black; " description="&lt;b&gt;cds55660_57193&lt;/b&gt;&lt;br&gt;hypothetical protein&lt;br&gt;Location: 55660 - 57193" locus_tag="cds55660_57193" class="clusterblast-orf" id="dummy-1_q26_0_all"  />
<polygon points="484,40 484,40 489,35 484,30 484,30 484,40 " style="fill:white; stroke-width:1; stroke:black; " description="&lt;b&gt;cds57276_58224&lt;/b&gt;&lt;br&gt;hypothetical protein&lt;br&gt;Location: 57276 - 58224" locus_tag="cds57276_58224" class="clusterblast-orf" id="dummy-1_q27_0_all"  />
<polygon points="489,40 491,35 489,30 489,40 " style="fill:white; stroke-width:1; stroke:black; " description="&lt;b&gt;cds58225_58621&lt;/b&gt;&lt;br&gt;hypothetical protein&lt;br&gt;Location: 58225 - 58621" locus_tag="cds58225_58621" class="clusterblast-orf" id="dummy-1_q28_0_all"  />
<polygon points="493,40 499,40 504,35 499,30 493,30 493,40 " style="fill:white; stroke-width:1; stroke:black; " description="&lt;b&gt;cds58822_60700&lt;/b&gt;&lt;br&gt;hypothetical protein&lt;br&gt;Location: 58822 - 60700" locus_tag="cds58822_60700" class="clusterblast-orf" id="dummy-1_q29_0_all"  />
<polygon points="504,35 509,30 511,30 511,40 509,40 504,35 " style="fill:white; stroke-width:1; stroke:black; " description="&lt;b&gt;cds60755_61859&lt;/b&gt;&lt;br&gt;Putative transport protein&lt;br&gt;Location: 60755 - 61859" locus_tag="cds60755_61859" class="clusterblast-orf" id="dummy-1_q30_0_all"  />
<polygon points="513,35 516,30 516,40 513,35 " style="fill:#15d8b1; stroke-width:1; stroke:black; " description="&lt;b&gt;cds62270_62840&lt;/b&gt;&lt;br&gt;hypothetical protein&lt;br&gt;Location: 62270 - 62840" locus_tag="cds62270_62840" class="clusterblast-orf" id="dummy-1_q31_0_all"  />
<polygon points="517,40 517,40 522,35 517,30 517,30 517,40 " style="fill:#6315d8; stroke-width:1; stroke:black; " description="&lt;b&gt;cds62951_63863&lt;/b&gt;&lt;br&gt;hypothetical protein&lt;br&gt;Location: 62951 - 63863" locus_tag="cds62951_63863" class="clusterblast-orf" id="dummy-1_q32_0_all"  />
<polygon points="523,35 528,30 530,30 530,40 528,40 523,35 " style="fill:white; stroke-width:1; stroke:black; " description="&lt;b&gt;cds63902_65108&lt;/b&gt;&lt;br&gt;Oleandomycin glycosyltransferase&lt;br&gt;Location: 63902 - 65108" locus_tag="cds63902_65108" class="clusterblast-orf" id="dummy-1_q33_0_all"  />
<polygon points="530,35 534,30 534,40 530,35 " style="fill:white; stroke-width:1; stroke:black; " description="&lt;b&gt;cds65192_65846&lt;/b&gt;&lt;br&gt;Streptogramin A acetyltransferase&lt;br&gt;Location: 65192 - 65846" locus_tag="cds65192_65846" class="clusterblast-orf" id="dummy-1_q34_0_all"  />
</g>
<g label="BGC0001070" description="BGC0001070_c1: kirromycin (3% of genes show similarity), NRP + Polyketide:Modular type I + Polyketide:Trans-AT type I" class="clusterblast-cluster"  >
<text x="5" y="70" class="clusterblast-acc"  >
<a xlink:href="https://mibig.secondarymetabolites.org/go/BGC0001070/1" target="_blank">BGC0001070</a>:                                                                       kirromycin (3% of genes show similarity), NRP + Polyketide:Modular type I + Polyketide:Trans-AT type I</text>
<line x1="10" y1="85" x2="778.0" y2="85" style="stroke-width:1; stroke:grey; "  />
</g>
<g id="a1_000"  >
<polygon points="0,85 5,80 6,80 6,90 5,90 0,85 " style="fill:white; stroke-width:1; stroke:black; " description="&lt;b&gt;orf_L20&lt;/b&gt;&lt;br&gt;hypothetical protein&lt;br&gt;Location: 1 - 1172" locus_tag="orf_L20" class="clusterblast-orf" id="dummy-1_h1_7_0"  />
</g>
<g id="a1_001"  >
<polygon points="6,85 11,80 11,80 11,90 11,90 6,85 " style="fill:white; stroke-width:1; stroke:black; " description="&lt;b&gt;orf_L19&lt;/b&gt;&lt;br&gt;hypothetical protein&lt;br&gt;Location: 1188 - 2030" locus_tag="orf_L19" class="clusterblast-orf" id="dummy-1_h1_7_1"  />
</g>
<g id="a1_002"  >
<polygon points="13,85 16,80 16,90 13,85 " style="fill:white; stroke-width:1; stroke:black; " description="&lt;b&gt;orf_L18&lt;/b&gt;&lt;br&gt;putative uridine kinase&lt;br&gt;Location: 2246 - 2887" locus_tag="orf_L18" class="clusterblast-orf" id="dummy-1_h1_7_2"  />
</g>
<g id="a1_003"  >
<polygon points="20,90 25,90 30,85 25,80 20,80 20,90 " style="fill:white; stroke-width:1; stroke:black; " description="&lt;b&gt;orf_L17&lt;/b&gt;&lt;br&gt;hypothetical protein&lt;br&gt;Location: 3495 - 5123" locus_tag="orf_L17" class="clusterblast-orf" id="dummy-1_h1_7_3"  />
</g>
<g id="a1_004"  >
<polygon points="32,90 33,90 38,85 33,80 32,80 32,90 " style="fill:white; stroke-width:1; stroke:black; " description="&lt;b&gt;orf_L16&lt;/b&gt;&lt;br&gt;putative AraC family transcriptional regulator&lt;br&gt;Location: 5488 - 6513" locus_tag="orf_L16" class="clusterblast-orf" id="dummy-1_h1_7_4"  />
</g>
<g id="a1_005"  >
<polygon points="39,90 41,90 46,85 41,80 39,80 39,90 " style="fill:white; stroke-width:1; stroke:black; " description="&lt;b&gt;orf_L15&lt;/b&gt;&lt;br&gt;hypothetical protein&lt;br&gt;Location: 6793 - 7845" locus_tag="orf_L15" class="clusterblast-orf" id="dummy-1_h1_7_5"  />
</g>
<g id="a1_006"  >
<polygon points="46,90 47,90 52,85 47,80 46,80 46,90 " style="fill:white; stroke-width:1; stroke:black; " description="&lt;b&gt;orf_L14&lt;/b&gt;&lt;br&gt;putative zinc-containing alcolhol dehydrogenase&lt;br&gt;Location: 7934 - 8908" locus_tag="orf_L14" class="clusterblast-orf" id="dummy-1_h1_7_6"  />
</g>
<g id="a1_007"  >
<polygon points="52,90 53,90 58,85 53,80 52,80 52,90 " style="fill:white; stroke-width:1; stroke:black; " description="&lt;b&gt;orf_L13&lt;/b&gt;&lt;br&gt;putative taurine dioxygenase&lt;br&gt;Location: 8964 - 9887" locus_tag="orf_L13" class="clusterblast-orf" id="dummy-1_h1_7_7"  />
</g>
<g id="a1_008"  >
<polygon points="58,90 61,90 66,85 61,80 58,80 58,90 " style="fill:white; stroke-width:1; stroke:black; " description="&lt;b&gt;orf_L12&lt;/b&gt;&lt;br&gt;putative major facilitator superfamily transporter&lt;br&gt;Location: 9930 - 11348" locus_tag="orf_L12" class="clusterblast-orf" id="dummy-1_h1_7_8"  />
</g>
<g id="a1_009"  >
<polygon points="68,85 70,80 70,90 68,85 " style="fill:#d81515; stroke-width:1; stroke:black; " description="&lt;b&gt;orf_L11&lt;/b&gt;&lt;br&gt;putative HTH-type regulator&lt;br&gt;Location: 11620 - 12039&lt;br&gt;&lt;br&gt;&lt;b&gt;BlastP hit with cds25950_26358&lt;/b&gt;&lt;br&gt;Percentage identity: 69&lt;br&gt;Percentage coverage: 94&lt;br&gt;BLAST bit score: 171&lt;br&gt;E-value: 6.9e-43" locus_tag="orf_L11" class="clusterblast-orf" id="dummy-1_h1_7_9"  />
</g>
<g id="a1_0010"  >
<polygon points="71,90 71,90 76,85 71,80 71,80 71,90 " style="fill:#63d815; stroke-width:1; stroke:black; " description="&lt;b&gt;orf_L10&lt;/b&gt;&lt;br&gt;putative hydrolase&lt;br&gt;Location: 12143 - 12994&lt;br&gt;&lt;br&gt;&lt;b&gt;BlastP hit with cds26456_27326&lt;/b&gt;&lt;br&gt;Percentage identity: 74&lt;br&gt;Percentage coverage: 94&lt;br&gt;BLAST bit score: 406&lt;br&gt;E-value: 2.7e-113" locus_tag="orf_L10" class="clusterblast-orf" id="dummy-1_h1_7_10"  />
</g>
<g id="a1_0011"  >
<polygon points="77,85 82,80 84,80 84,90 82,90 77,85 " style="fill:white; stroke-width:1; stroke:black; " description="&lt;b&gt;orf_L9&lt;/b&gt;&lt;br&gt;hypothetical protein&lt;br&gt;Location: 13163 - 14311" locus_tag="orf_L9" class="clusterblast-orf" id="dummy-1_h1_7_11"  />
</g>
<g id="a1_0012"  >
<polygon points="86,90 90,90 95,85 90,80 86,80 86,90 " style="fill:white; stroke-width:1; stroke:black; " description="&lt;b&gt;orf_L8&lt;/b&gt;&lt;br&gt;putative major facilitator superfamily transporter&lt;br&gt;Location: 14631 - 16265" locus_tag="orf_L8" class="clusterblast-orf" id="dummy-1_h1_7_12"  />
</g>
<g id="a1_0013"  >
<polygon points="96,90 100,85 96,80 96,90 " style="fill:white; stroke-width:1; stroke:black; " description="&lt;b&gt;orf_L7&lt;/b&gt;&lt;br&gt;hypothetical protein&lt;br&gt;Location: 16407 - 17144" locus_tag="orf_L7" class="clusterblast-orf" id="dummy-1_h1_7_13"  />
</g>
<g id="a1_0014"  >
<polygon points="108,90 110,90 115,85 110,80 108,80 108,90 " style="fill:white; stroke-width:1; stroke:black; " description="&lt;b&gt;orf_L6&lt;/b&gt;&lt;br&gt;putative nucleoside-diphosphate sugar epimerase&lt;br&gt;Location: 18506 - 19639" locus_tag="orf_L6" class="clusterblast-orf" id="dummy-1_h1_7_14"  />
</g>
<g id="a1_0015"  >
<polygon points="115,90 117,90 122,85 117,80 115,80 115,90 " style="fill:white; stroke-width:1; stroke:black; " description="&lt;b&gt;orf_L5&lt;/b&gt;&lt;br&gt;putative glycosyltransferase&lt;br&gt;Location: 19636 - 20838" locus_tag="orf_L5" class="clusterblast-orf" id="dummy-1_h1_7_15"  />
</g>
<g id="a1_0016"  >
<polygon points="123,85 127,80 127,90 123,85 " style="fill:white; stroke-width:1; stroke:black; " description="&lt;b&gt;orf_L4&lt;/b&gt;&lt;br&gt;putative metallo-beta-lactamase family protein&lt;br&gt;Location: 20932 - 21699" locus_tag="orf_L4" class="clusterblast-orf" id="dummy-1_h1_7_16"  />
</g>
<g id="a1_0017"  >
<polygon points="128,90 129,85 128,80 128,90 " style="fill:white; stroke-width:1; stroke:black; " description="&lt;b&gt;orf_L3&lt;/b&gt;&lt;br&gt;putative zinc dependent dehydrogenase&lt;br&gt;Location: 21765 - 22031" locus_tag="orf_L3" class="clusterblast-orf" id="dummy-1_h1_7_17"  />
</g>
<g id="a1_0018"  >
<polygon points="129,85 133,80 133,90 129,85 " style="fill:white; stroke-width:1; stroke:black; " description="&lt;b&gt;orf_L2&lt;/b&gt;&lt;br&gt;putative lipoprotein&lt;br&gt;Location: 22050 - 22592" locus_tag="orf_L2" class="clusterblast-orf" id="dummy-1_h1_7_18"  />
</g>
<g id="a1_0019"  >
<polygon points="134,90 137,85 134,80 134,90 " style="fill:white; stroke-width:1; stroke:black; " description="&lt;b&gt;orf_L1&lt;/b&gt;&lt;br&gt;hypothetical protein&lt;br&gt;Location: 22893 - 23399" locus_tag="orf_L1" class="clusterblast-orf" id="dummy-1_h1_7_19"  />
</g>
<g id="a1_0020"  >
<polygon points="140,85 145,80 145,80 145,90 145,90 140,85 " style="fill:white; stroke-width:1; stroke:black; " description="&lt;b&gt;CAN89630.1&lt;/b&gt;&lt;br&gt;putative Sfp type phosphopantetheinyl transferase&lt;br&gt;Location: 23876 - 24631" locus_tag="CAN89630.1" class="clusterblast-orf" id="dummy-1_h1_7_20"  />
</g>
<g id="a1_0021"  >
<polygon points="147,90 177,90 182,85 177,80 147,80 147,90 " style="fill:white; stroke-width:1; stroke:black; " description="&lt;b&gt;CAN89631.1&lt;/b&gt;&lt;br&gt;putative polyketide synthase&lt;br&gt;Location: 25016 - 30997" locus_tag="CAN89631.1" class="clusterblast-orf" id="dummy-1_h1_7_21"  />
</g>
<g id="a1_0022"  >
<polygon points="182,90 255,90 260,85 255,80 182,80 182,90 " style="fill:white; stroke-width:1; stroke:black; " description="&lt;b&gt;CAN89632.1&lt;/b&gt;&lt;br&gt;putative polyketide synthase&lt;br&gt;Location: 31022 - 44176" locus_tag="CAN89632.1" class="clusterblast-orf" id="dummy-1_h1_7_22"  />
</g>
<g id="a1_0023"  >
<polygon points="260,90 282,90 287,85 282,80 260,80 260,90 " style="fill:white; stroke-width:1; stroke:black; " description="&lt;b&gt;CAN89633.1&lt;/b&gt;&lt;br&gt;putative hybrid non-ribosomal peptide synthetase/polyketide synthase&lt;br&gt;Location: 44173 - 48825" locus_tag="CAN89633.1" class="clusterblast-orf" id="dummy-1_h1_7_23"  />
</g>
<g id="a1_0024"  >
<polygon points="287,90 395,90 400,85 395,80 287,80 287,90 " style="fill:white; stroke-width:1; stroke:black; " description="&lt;b&gt;CAN89634.1&lt;/b&gt;&lt;br&gt;putative polyketide synthase&lt;br&gt;Location: 48825 - 68021" locus_tag="CAN89634.1" class="clusterblast-orf" id="dummy-1_h1_7_24"  />
</g>
<g id="a1_0025"  >
<polygon points="400,90 435,90 440,85 435,80 400,80 400,90 " style="fill:white; stroke-width:1; stroke:black; " description="&lt;b&gt;CAN89635.1&lt;/b&gt;&lt;br&gt;putative polyketide synthase&lt;br&gt;Location: 68042 - 74902" locus_tag="CAN89635.1" class="clusterblast-orf" id="dummy-1_h1_7_25"  />
</g>
<g id="a1_0026"  >
<polygon points="440,90 487,90 492,85 487,80 440,80 440,90 " style="fill:white; stroke-width:1; stroke:black; " description="&lt;b&gt;CAN89636.1&lt;/b&gt;&lt;br&gt;putative polyketide synthase&lt;br&gt;Location: 74899 - 83595" locus_tag="CAN89636.1" class="clusterblast-orf" id="dummy-1_h1_7_26"  />
</g>
<g id="a1_0027"  >
<polygon points="493,90 493,90 498,85 493,80 493,80 493,90 " style="fill:white; stroke-width:1; stroke:black; " description="&lt;b&gt;CAN89637.1&lt;/b&gt;&lt;br&gt;hypothetical protein&lt;br&gt;Location: 83835 - 84683" locus_tag="CAN89637.1" class="clusterblast-orf" id="dummy-1_h1_7_27"  />
</g>
<g id="a1_0028"  >
<polygon points="498,90 511,90 516,85 511,80 498,80 498,90 " style="fill:white; stroke-width:1; stroke:black; " description="&lt;b&gt;CAN89638.1&lt;/b&gt;&lt;br&gt;putative non-ribosomal peptide synthetase&lt;br&gt;Location: 84680 - 87781" locus_tag="CAN89638.1" class="clusterblast-orf" id="dummy-1_h1_7_28"  />
</g>
<g id="a1_0029"  >
<polygon points="516,90 531,90 536,85 531,80 516,80 516,90 " style="fill:white; stroke-width:1; stroke:black; " description="&lt;b&gt;CAN89639.1&lt;/b&gt;&lt;br&gt;putative acyltransferase&lt;br&gt;Location: 87805 - 91041" locus_tag="CAN89639.1" class="clusterblast-orf" id="dummy-1_h1_7_29"  />
</g>
<g id="a1_0030"  >
<polygon points="536,90 538,90 543,85 538,80 536,80 536,90 " style="fill:white; stroke-width:1; stroke:black; " description="&lt;b&gt;CAN89640.1&lt;/b&gt;&lt;br&gt;putative cytochrome P450 hydroxylase&lt;br&gt;Location: 91056 - 92255" locus_tag="CAN89640.1" class="clusterblast-orf" id="dummy-1_h1_7_30"  />
</g>
<g id="a1_0031"  >
<polygon points="543,90 545,85 543,80 543,90 " style="fill:white; stroke-width:1; stroke:black; " description="&lt;b&gt;CAN89641.1&lt;/b&gt;&lt;br&gt;putative aspartate-1-decarboxylase precursor&lt;br&gt;Location: 92270 - 92689" locus_tag="CAN89641.1" class="clusterblast-orf" id="dummy-1_h1_7_31"  />
</g>
<g id="a1_0032"  >
<polygon points="545,90 546,90 551,85 546,80 545,80 545,90 " style="fill:white; stroke-width:1; stroke:black; " description="&lt;b&gt;CAN89642.1&lt;/b&gt;&lt;br&gt;putative SAM-dependent methyltransferase&lt;br&gt;Location: 92721 - 93677" locus_tag="CAN89642.1" class="clusterblast-orf" id="dummy-1_h1_7_32"  />
</g>
<g id="a1_0033"  >
<polygon points="551,90 554,90 559,85 554,80 551,80 551,90 " style="fill:white; stroke-width:1; stroke:black; " description="&lt;b&gt;CAN89643.1&lt;/b&gt;&lt;br&gt;&lt;br&gt;Location: 93687 - 95024" locus_tag="CAN89643.1" class="clusterblast-orf" id="dummy-1_h1_7_33"  />
</g>
<g id="a1_0034"  >
<polygon points="559,85 562,80 562,90 559,85 " style="fill:white; stroke-width:1; stroke:black; " description="&lt;b&gt;CAN89644.1&lt;/b&gt;&lt;br&gt;hypothetical protein&lt;br&gt;Location: 95016 - 95573" locus_tag="CAN89644.1" class="clusterblast-orf" id="dummy-1_h1_7_34"  />
</g>
<g id="a1_0035"  >
<polygon points="562,85 564,80 564,90 562,85 " style="fill:white; stroke-width:1; stroke:black; " description="&lt;b&gt;CAN89645.1&lt;/b&gt;&lt;br&gt;hypothetical protein&lt;br&gt;Location: 95570 - 95902" locus_tag="CAN89645.1" class="clusterblast-orf" id="dummy-1_h1_7_35"  />
</g>
<g id="a1_0036"  >
<polygon points="564,85 569,80 570,80 570,90 569,90 564,85 " style="fill:white; stroke-width:1; stroke:black; " description="&lt;b&gt;CAN89646.1&lt;/b&gt;&lt;br&gt;putative major facilitator family transporter&lt;br&gt;Location: 95954 - 96856" locus_tag="CAN89646.1" class="clusterblast-orf" id="dummy-1_h1_7_36"  />
</g>
<g id="a1_0037"  >
<polygon points="570,85 574,80 574,90 570,85 " style="fill:white; stroke-width:1; stroke:black; " description="&lt;b&gt;CAN89647.1&lt;/b&gt;&lt;br&gt;putative major facilitator family transporter&lt;br&gt;Location: 96872 - 97618" locus_tag="CAN89647.1" class="clusterblast-orf" id="dummy-1_h1_7_37"  />
</g>
<g id="a1_0038"  >
<polygon points="575,85 576,80 576,90 575,85 " style="fill:white; stroke-width:1; stroke:black; " description="&lt;b&gt;CAN89648.1&lt;/b&gt;&lt;br&gt;putative TetR family transcriptional regulator&lt;br&gt;Location: 97676 - 97990" locus_tag="CAN89648.1" class="clusterblast-orf" id="dummy-1_h1_7_38"  />
</g>
<g id="a1_0039"  >
<polygon points="577,85 579,80 579,90 577,85 " style="fill:white; stroke-width:1; stroke:black; " description="&lt;b&gt;CAN89649.1&lt;/b&gt;&lt;br&gt;putative TetR family transcriptional regulator&lt;br&gt;Location: 98024 - 98383" locus_tag="CAN89649.1" class="clusterblast-orf" id="dummy-1_h1_7_39"  />
</g>
<g id="a1_0040"  >
<polygon points="579,90 582,90 587,85 582,80 579,80 579,90 " style="fill:white; stroke-width:1; stroke:black; " description="&lt;b&gt;CAN89650.1&lt;/b&gt;&lt;br&gt;putative cytochrome P450 hydroxylase&lt;br&gt;Location: 98503 - 99720" locus_tag="CAN89650.1" class="clusterblast-orf" id="dummy-1_h1_7_40"  />
</g>
<g id="a1_0041"  >
<polygon points="587,90 591,85 587,80 587,90 " style="fill:white; stroke-width:1; stroke:black; " description="&lt;b&gt;CAN89651.1&lt;/b&gt;&lt;br&gt;hypothetical protein&lt;br&gt;Location: 99761 - 100543" locus_tag="CAN89651.1" class="clusterblast-orf" id="dummy-1_h1_7_41"  />
</g>
<g id="a1_0042"  >
<polygon points="591,90 594,85 591,80 591,90 " style="fill:white; stroke-width:1; stroke:black; " description="&lt;b&gt;CAN89652.1&lt;/b&gt;&lt;br&gt;hypothetical protein&lt;br&gt;Location: 100540 - 100935" locus_tag="CAN89652.1" class="clusterblast-orf" id="dummy-1_h1_7_42"  />
</g>
<g id="a1_0043"  >
<polygon points="594,90 597,90 602,85 597,80 594,80 594,90 " style="fill:white; stroke-width:1; stroke:black; " description="&lt;b&gt;CAN89653.1&lt;/b&gt;&lt;br&gt;putative crotonyl-CoA reductase&lt;br&gt;Location: 100994 - 102361" locus_tag="CAN89653.1" class="clusterblast-orf" id="dummy-1_h1_7_43"  />
</g>
<g id="a1_0044"  >
<polygon points="602,90 602,90 607,85 602,80 602,80 602,90 " style="fill:white; stroke-width:1; stroke:black; " description="&lt;b&gt;CAN89654.1&lt;/b&gt;&lt;br&gt;hypothetical protein&lt;br&gt;Location: 102358 - 103203" locus_tag="CAN89654.1" class="clusterblast-orf" id="dummy-1_h1_7_44"  />
</g>
<g id="a1_0045"  >
<polygon points="607,85 610,80 610,90 607,85 " style="fill:white; stroke-width:1; stroke:black; " description="&lt;b&gt;CAN89655.1&lt;/b&gt;&lt;br&gt;putative GNAT family acetyltransferase&lt;br&gt;Location: 103254 - 103763" locus_tag="CAN89655.1" class="clusterblast-orf" id="dummy-1_h1_7_45"  />
</g>
<g id="a1_0046"  >
<polygon points="621,90 660,90 665,85 660,80 621,80 621,90 " style="fill:white; stroke-width:1; stroke:black; " description="&lt;b&gt;orf_R1&lt;/b&gt;&lt;br&gt;putative non-ribosomal peptide synthetase&lt;br&gt;Location: 105617 - 113008" locus_tag="orf_R1" class="clusterblast-orf" id="dummy-1_h1_7_46"  />
</g>
<g id="a1_0047"  >
<polygon points="665,90 669,90 674,85 669,80 665,80 665,90 " style="fill:white; stroke-width:1; stroke:black; " description="&lt;b&gt;orf_R2&lt;/b&gt;&lt;br&gt;putative argininosuccinate lyase&lt;br&gt;Location: 113005 - 114624" locus_tag="orf_R2" class="clusterblast-orf" id="dummy-1_h1_7_47"  />
</g>
<g id="a1_0048"  >
<polygon points="674,90 675,90 680,85 675,80 674,80 674,90 " style="fill:white; stroke-width:1; stroke:black; " description="&lt;b&gt;orf_R3&lt;/b&gt;&lt;br&gt;hypothetical protein&lt;br&gt;Location: 114624 - 115607" locus_tag="orf_R3" class="clusterblast-orf" id="dummy-1_h1_7_48"  />
</g>
<g id="a1_0049"  >
<polygon points="680,90 689,90 694,85 689,80 680,80 680,90 " style="fill:white; stroke-width:1; stroke:black; " description="&lt;b&gt;orf_R4&lt;/b&gt;&lt;br&gt;putative pyridoxal-phosphate dependent enzyme&lt;br&gt;Location: 115610 - 117883" locus_tag="orf_R4" class="clusterblast-orf" id="dummy-1_h1_7_49"  />
</g>
<g id="a1_0050"  >
<polygon points="694,90 695,85 694,80 694,90 " style="fill:white; stroke-width:1; stroke:black; " description="&lt;b&gt;orf_R5&lt;/b&gt;&lt;br&gt;putative MbtH-like protein&lt;br&gt;Location: 117976 - 118200" locus_tag="orf_R5" class="clusterblast-orf" id="dummy-1_h1_7_50"  />
</g>
<g id="a1_0051"  >
<polygon points="695,90 702,90 707,85 702,80 695,80 695,90 " style="fill:white; stroke-width:1; stroke:black; " description="&lt;b&gt;orf_R6&lt;/b&gt;&lt;br&gt;putative non-ribosomal peptide synthetase&lt;br&gt;Location: 118193 - 120250" locus_tag="orf_R6" class="clusterblast-orf" id="dummy-1_h1_7_51"  />
</g>
<g id="a1_0052"  >
<polygon points="707,90 721,90 726,85 721,80 707,80 707,90 " style="fill:white; stroke-width:1; stroke:black; " description="&lt;b&gt;orf_R7&lt;/b&gt;&lt;br&gt;putative non-ribosomal peptide synthetase&lt;br&gt;Location: 120247 - 123468" locus_tag="orf_R7" class="clusterblast-orf" id="dummy-1_h1_7_52"  />
</g>
<g id="a1_0053"  >
<polygon points="728,90 743,90 748,85 743,80 728,80 728,90 " style="fill:white; stroke-width:1; stroke:black; " description="&lt;b&gt;orf_R8&lt;/b&gt;&lt;br&gt;putative non-ribosomal peptide synthetase&lt;br&gt;Location: 123771 - 127067" locus_tag="orf_R8" class="clusterblast-orf" id="dummy-1_h1_7_53"  />
</g>
<g id="a1_0054"  >
<polygon points="748,90 752,90 757,85 752,80 748,80 748,90 " style="fill:white; stroke-width:1; stroke:black; " description="&lt;b&gt;orf_R9&lt;/b&gt;&lt;br&gt;putative amino acid adenylating enzyme&lt;br&gt;Location: 127105 - 128673" locus_tag="orf_R9" class="clusterblast-orf" id="dummy-1_h1_7_54"  />
</g>
<g id="a1_0055"  >
<polygon points="757,90 760,90 765,85 760,80 757,80 757,90 " style="fill:white; stroke-width:1; stroke:black; " description="&lt;b&gt;orf_R10&lt;/b&gt;&lt;br&gt;putative major facilitator family transporter&lt;br&gt;Location: 128736 - 130043" locus_tag="orf_R10" class="clusterblast-orf" id="dummy-1_h1_7_55"  />
</g>
<g id="a1_0056"  >
<polygon points="765,85 767,80 767,90 765,85 " style="fill:white; stroke-width:1; stroke:black; " description="&lt;b&gt;orf_R11&lt;/b&gt;&lt;br&gt;putative LuxR family regulator&lt;br&gt;Location: 130037 - 130366" locus_tag="orf_R11" class="clusterblast-orf" id="dummy-1_h1_7_56"  />
</g>
<g id="a1_0057"  >
<polygon points="768,90 769,90 774,85 769,80 768,80 768,90 " style="fill:white; stroke-width:1; stroke:black; " description="&lt;b&gt;orf_R12&lt;/b&gt;&lt;br&gt;putative LuxR family regulator&lt;br&gt;Location: 130516 - 131550" locus_tag="orf_R12" class="clusterblast-orf" id="dummy-1_h1_7_57"  />
</g>
<g id="a1_0058"  >
<polygon points="776,90 780,85 776,80 776,90 " style="fill:white; stroke-width:1; stroke:black; " description="&lt;b&gt;orf_R13&lt;/b&gt;&lt;br&gt;hypothetical protein&lt;br&gt;Location: 131952 - 132479" locus_tag="orf_R13" class="clusterblast-orf" id="dummy-1_h1_7_58"  />
</g>
</svg>
