<svg xmlns="http://www.w3.org/2000/svg" xmlns:xlink="http://www.w3.org/1999/xlink" version="1.1" x="0" y="0" height="230" width="800" viewBox="0 0 800 230" preserveAspectRatio="none"  >
<g label="Query sequence" class="clusterblast-cluster"  >
<text x="5" y="20" class="clusterblast-acc"  >
Query sequence</text>
<line x1="10" y1="35" x2="778.0" y2="35" style="stroke-width:1; stroke:grey; "  />
<polygon points="0,40 14,40 19,35 14,30 0,30 0,40 " style="fill:white; stroke-width:1; stroke:black; " description="&lt;b&gt;cds8978_9911&lt;/b&gt;&lt;br&gt;hypothetical protein&lt;br&gt;Location: 8978 - 9911" locus_tag="cds8978_9911" class="clusterblast-orf" id="dummy-1_q0_0_all"  />
<polygon points="19,40 22,40 27,35 22,30 19,30 19,40 " style="fill:white; stroke-width:1; stroke:black; " description="&lt;b&gt;cds9923_10319&lt;/b&gt;&lt;br&gt;hypothetical protein&lt;br&gt;Location: 9923 - 10319" locus_tag="cds9923_10319" class="clusterblast-orf" id="dummy-1_q1_0_all"  />
<polygon points="28,40 34,40 39,35 34,30 28,30 28,40 " style="fill:white; stroke-width:1; stroke:black; " description="&lt;b&gt;cds10355_10928&lt;/b&gt;&lt;br&gt;Aldehyde oxidoreductase iron-sulfur-binding subunit PaoA&lt;br&gt;Location: 10355 - 10928" locus_tag="cds10355_10928" class="clusterblast-orf" id="dummy-1_q2_0_all"  />
<polygon points="39,40 54,40 59,35 54,30 39,30 39,40 " style="fill:white; stroke-width:1; stroke:black; " description="&lt;b&gt;cds10924_11920&lt;/b&gt;&lt;br&gt;Aldehyde oxidoreductase FAD-binding subunit PaoB&lt;br&gt;Location: 10924 - 11920" locus_tag="cds10924_11920" class="clusterblast-orf" id="dummy-1_q3_0_all"  />
<polygon points="60,40 98,40 103,35 98,30 60,30 60,40 " style="fill:white; stroke-width:1; stroke:black; " description="&lt;b&gt;cds11964_14061&lt;/b&gt;&lt;br&gt;Aldehyde oxidoreductase molybdenum-binding subunit PaoC&lt;br&gt;Location: 11964 - 14061" locus_tag="cds11964_14061" class="clusterblast-orf" id="dummy-1_q4_0_all"  />
<polygon points="106,40 111,40 116,35 111,30 106,30 106,40 " style="fill:white; stroke-width:1; stroke:black; " description="&lt;b&gt;cds14213_14729&lt;/b&gt;&lt;br&gt;hypothetical protein&lt;br&gt;Location: 14213 - 14729" locus_tag="cds14213_14729" class="clusterblast-orf" id="dummy-1_q5_0_all"  />
<polygon points="119,40 143,40 148,35 143,30 119,30 119,40 " style="fill:white; stroke-width:1; stroke:black; " description="&lt;b&gt;cds14878_16300&lt;/b&gt;&lt;br&gt;Succinate-semialdehyde dehydrogenase [NADP(+)] 1&lt;br&gt;Location: 14878 - 16300" locus_tag="cds14878_16300" class="clusterblast-orf" id="dummy-1_q6_0_all"  />
<polygon points="149,40 192,40 197,35 192,30 149,30 149,40 " style="fill:white; stroke-width:1; stroke:black; " description="&lt;b&gt;cds16338_18726&lt;/b&gt;&lt;br&gt;Xylulose-5-phosphate phosphoketolase&lt;br&gt;Location: 16338 - 18726" locus_tag="cds16338_18726" class="clusterblast-orf" id="dummy-1_q7_0_all"  />
<polygon points="199,35 204,30 207,30 207,40 204,40 199,35 " style="fill:white; stroke-width:1; stroke:black; " description="&lt;b&gt;cds18808_19216&lt;/b&gt;&lt;br&gt;hypothetical protein&lt;br&gt;Location: 18808 - 19216" locus_tag="cds18808_19216" class="clusterblast-orf" id="dummy-1_q8_0_all"  />
<polygon points="209,35 214,30 232,30 232,40 214,40 209,35 " style="fill:white; stroke-width:1; stroke:black; " description="&lt;b&gt;cds19327_20443&lt;/b&gt;&lt;br&gt;hypothetical protein&lt;br&gt;Location: 19327 - 20443" locus_tag="cds19327_20443" class="clusterblast-orf" id="dummy-1_q9_0_all"  />
<polygon points="235,40 240,40 245,35 240,30 235,30 235,40 " style="fill:white; stroke-width:1; stroke:black; " description="&lt;b&gt;cds20579_21074&lt;/b&gt;&lt;br&gt;hypothetical protein&lt;br&gt;Location: 20579 - 21074" locus_tag="cds20579_21074" class="clusterblast-orf" id="dummy-1_q10_0_all"  />
<polygon points="246,40 268,40 273,35 268,30 246,30 246,40 " style="fill:white; stroke-width:1; stroke:black; " description="&lt;b&gt;cds21138_22491&lt;/b&gt;&lt;br&gt;Glutaminase&lt;br&gt;Location: 21138 - 22491" locus_tag="cds21138_22491" class="clusterblast-orf" id="dummy-1_q11_0_all"  />
<polygon points="278,35 283,30 294,30 294,40 283,40 278,35 " style="fill:white; stroke-width:1; stroke:black; " description="&lt;b&gt;cds22706_23528&lt;/b&gt;&lt;br&gt;Extracellular ribonuclease&lt;br&gt;Location: 22706 - 23528" locus_tag="cds22706_23528" class="clusterblast-orf" id="dummy-1_q12_0_all"  />
<polygon points="298,40 298,40 303,35 298,30 298,30 298,40 " style="fill:white; stroke-width:1; stroke:black; " description="&lt;b&gt;cds23739_23946&lt;/b&gt;&lt;br&gt;hypothetical protein&lt;br&gt;Location: 23739 - 23946" locus_tag="cds23739_23946" class="clusterblast-orf" id="dummy-1_q13_0_all"  />
<polygon points="304,40 323,40 328,35 323,30 304,30 304,40 " style="fill:white; stroke-width:1; stroke:black; " description="&lt;b&gt;cds24016_25174&lt;/b&gt;&lt;br&gt;Ribosomal RNA large subunit methyltransferase G&lt;br&gt;Location: 24016 - 25174" locus_tag="cds24016_25174" class="clusterblast-orf" id="dummy-1_q14_0_all"  />
<polygon points="328,35 333,30 337,30 337,40 333,40 328,35 " style="fill:white; stroke-width:1; stroke:black; " description="&lt;b&gt;cds25180_25636&lt;/b&gt;&lt;br&gt;hypothetical protein&lt;br&gt;Location: 25180 - 25636" locus_tag="cds25180_25636" class="clusterblast-orf" id="dummy-1_q15_0_all"  />
<polygon points="340,40 353,40 358,35 353,30 340,30 340,40 " style="fill:white; stroke-width:1; stroke:black; " description="&lt;b&gt;cds25777_26668&lt;/b&gt;&lt;br&gt;hypothetical protein&lt;br&gt;Location: 25777 - 26668" locus_tag="cds25777_26668" class="clusterblast-orf" id="dummy-1_q16_0_all"  />
<polygon points="358,40 399,40 404,35 399,30 358,30 358,40 " style="fill:white; stroke-width:1; stroke:black; " description="&lt;b&gt;cds26702_28943&lt;/b&gt;&lt;br&gt;Serine/threonine-protein kinase PknD&lt;br&gt;Location: 26702 - 28943" locus_tag="cds26702_28943" class="clusterblast-orf" id="dummy-1_q17_0_all"  />
<polygon points="403,35 408,30 408,30 408,40 408,40 403,35 " style="fill:white; stroke-width:1; stroke:black; " description="&lt;b&gt;cds28891_29173&lt;/b&gt;&lt;br&gt;hypothetical protein&lt;br&gt;Location: 28891 - 29173" locus_tag="cds28891_29173" class="clusterblast-orf" id="dummy-1_q18_0_all"  />
<polygon points="412,40 439,40 444,35 439,30 412,30 412,40 " style="fill:white; stroke-width:1; stroke:black; " description="&lt;b&gt;cds29338_30928&lt;/b&gt;&lt;br&gt;putative protein&lt;br&gt;Location: 29338 - 30928" locus_tag="cds29338_30928" class="clusterblast-orf" id="dummy-1_q19_0_all"  />
<polygon points="446,35 451,30 459,30 459,40 451,40 446,35 " style="fill:white; stroke-width:1; stroke:black; " description="&lt;b&gt;cds31025_31670&lt;/b&gt;&lt;br&gt;hypothetical protein&lt;br&gt;Location: 31025 - 31670" locus_tag="cds31025_31670" class="clusterblast-orf" id="dummy-1_q20_0_all"  />
<polygon points="460,35 465,30 497,30 497,40 465,40 460,35 " style="fill:white; stroke-width:1; stroke:black; " description="&lt;b&gt;cds31697_33560&lt;/b&gt;&lt;br&gt;Putative D-alanyl-D-alanine carboxypeptidase&lt;br&gt;Location: 31697 - 33560" locus_tag="cds31697_33560" class="clusterblast-orf" id="dummy-1_q21_0_all"  />
<polygon points="502,40 529,40 534,35 529,30 502,30 502,40 " style="fill:white; stroke-width:1; stroke:black; " description="&lt;b&gt;cds33790_35350&lt;/b&gt;&lt;br&gt;Long-chain-fatty-acid--CoA ligase&lt;br&gt;Location: 33790 - 35350" locus_tag="cds33790_35350" class="clusterblast-orf" id="dummy-1_q22_0_all"  />
<polygon points="534,40 543,40 548,35 543,30 534,30 534,40 " style="fill:white; stroke-width:1; stroke:black; " description="&lt;b&gt;cds35384_36065&lt;/b&gt;&lt;br&gt;hypothetical protein&lt;br&gt;Location: 35384 - 36065" locus_tag="cds35384_36065" class="clusterblast-orf" id="dummy-1_q23_0_all"  />
<polygon points="550,35 555,30 576,30 576,40 555,40 550,35 " style="fill:white; stroke-width:1; stroke:black; " description="&lt;b&gt;cds36152_37442&lt;/b&gt;&lt;br&gt;Phenylacetate-coenzyme A ligase&lt;br&gt;Location: 36152 - 37442" locus_tag="cds36152_37442" class="clusterblast-orf" id="dummy-1_q24_0_all"  />
<polygon points="578,35 583,30 588,30 588,40 583,40 578,35 " style="fill:white; stroke-width:1; stroke:black; " description="&lt;b&gt;cds37557_38025&lt;/b&gt;&lt;br&gt;hypothetical protein&lt;br&gt;Location: 37557 - 38025" locus_tag="cds37557_38025" class="clusterblast-orf" id="dummy-1_q25_0_all"  />
<polygon points="590,40 597,40 602,35 597,30 590,30 590,40 " style="fill:white; stroke-width:1; stroke:black; " description="&lt;b&gt;cds38153_38738&lt;/b&gt;&lt;br&gt;hypothetical protein&lt;br&gt;Location: 38153 - 38738" locus_tag="cds38153_38738" class="clusterblast-orf" id="dummy-1_q26_0_all"  />
<polygon points="603,40 629,40 634,35 629,30 603,30 603,40 " style="fill:white; stroke-width:1; stroke:black; " description="&lt;b&gt;cds38794_40315&lt;/b&gt;&lt;br&gt;2-succinyl-6-hydroxy-2,4-cyclohexadiene-1-carboxy late synthase&lt;br&gt;Location: 38794 - 40315" locus_tag="cds38794_40315" class="clusterblast-orf" id="dummy-1_q27_0_all"  />
<polygon points="635,35 640,30 668,30 668,40 640,40 635,35 " style="fill:#d81515; stroke-width:1; stroke:black; " description="&lt;b&gt;cds40354_41992&lt;/b&gt;&lt;br&gt;4-methyl-5-nitrocatechol 5-monooxygenase&lt;br&gt;Location: 40354 - 41992" locus_tag="cds40354_41992" class="clusterblast-orf" id="dummy-1_q28_0_all"  />
<polygon points="673,40 691,40 696,35 691,30 673,30 673,40 " style="fill:#77d815; stroke-width:1; stroke:black; " description="&lt;b&gt;cds42263_43382&lt;/b&gt;&lt;br&gt;hypothetical protein&lt;br&gt;Location: 42263 - 43382" locus_tag="cds42263_43382" class="clusterblast-orf" id="dummy-1_q29_0_all"  />
<polygon points="697,40 701,40 706,35 701,30 697,30 697,40 " style="fill:#15d8d8; stroke-width:1; stroke:black; " description="&lt;b&gt;cds43450_43885&lt;/b&gt;&lt;br&gt;hypothetical protein&lt;br&gt;Location: 43450 - 43885" locus_tag="cds43450_43885" class="clusterblast-orf" id="dummy-1_q30_0_all"  />
<polygon points="706,40 727,40 732,35 727,30 706,30 706,40 " style="fill:#7715d8; stroke-width:1; stroke:black; " description="&lt;b&gt;cds43881_45150&lt;/b&gt;&lt;br&gt;Actinorhodin polyketide putative beta-ketoacyl synthase 1&lt;br&gt;Location: 43881 - 45150" locus_tag="cds43881_45150" class="clusterblast-orf" id="dummy-1_q31_0_all"  />
<polygon points="732,40 752,40 757,35 752,30 732,30 732,40 " style="fill:#d8a715; stroke-width:1; stroke:black; " description="&lt;b&gt;cds45146_46406&lt;/b&gt;&lt;br&gt;Actinorhodin polyketide putative beta-ketoacyl synthase 2&lt;br&gt;Location: 45146 - 46406" locus_tag="cds45146_46406" class="clusterblast-orf" id="dummy-1_q32_0_all"  />
<polygon points="758,40 758,40 763,35 758,30 758,30 758,40 " style="fill:#15d846; stroke-width:1; stroke:black; " description="&lt;b&gt;cds46422_46680&lt;/b&gt;&lt;br&gt;hypothetical protein&lt;br&gt;Location: 46422 - 46680" locus_tag="cds46422_46680" class="clusterblast-orf" id="dummy-1_q33_0_all"  />
<polygon points="763,40 768,40 773,35 768,30 763,30 763,40 " style="fill:#1546d8; stroke-width:1; stroke:black; " description="&lt;b&gt;cds46681_47161&lt;/b&gt;&lt;br&gt;Putative polyketide cyclase&lt;br&gt;Location: 46681 - 47161" locus_tag="cds46681_47161" class="clusterblast-orf" id="dummy-1_q34_0_all"  />
<polygon points="773,40 775,40 780,35 775,30 773,30 773,40 " style="fill:#d815a7; stroke-width:1; stroke:black; " description="&lt;b&gt;cds47180_47513&lt;/b&gt;&lt;br&gt;Tetracenomycin F2 cyclase&lt;br&gt;Location: 47180 - 47513" locus_tag="cds47180_47513" class="clusterblast-orf" id="dummy-1_q35_0_all"  />
</g>
<g label="BGC0000272" description="BGC0000272_c1: spore pigment (85% of genes show similarity), Polyketide" class="clusterblast-cluster"  >
<text x="5" y="70" class="clusterblast-acc"  >
<a xlink:href="https://mibig.secondarymetabolites.org/go/BGC0000272/1" target="_blank">BGC0000272</a>:                                                                    spore pigment (85% of genes show similarity), Polyketide</text>
<line x1="10" y1="85" x2="778.0" y2="85" style="stroke-width:1; stroke:grey; "  />
</g>
<g id="a1_000"  >
<polygon points="305,90 334,90 339,85 334,80 305,80 305,90 " style="fill:#d81515; stroke-width:1; stroke:black; " description="&lt;b&gt;AAG26878.1&lt;/b&gt;&lt;br&gt;PKSA putative hydroxylase&lt;br&gt;Location: 615 - 2270&lt;br&gt;&lt;br&gt;&lt;b&gt;BlastP hit with cds40354_41992&lt;/b&gt;&lt;br&gt;Percentage identity: 61&lt;br&gt;Percentage coverage: 101&lt;br&gt;BLAST bit score: 631&lt;br&gt;E-value: 1.7e-180" locus_tag="AAG26878.1" class="clusterblast-orf" id="dummy-1_h1_3_0"  />
</g>
<g id="a1_001"  >
<polygon points="378,90 399,90 404,85 399,80 378,80 378,90 " style="fill:#7715d8; stroke-width:1; stroke:black; " description="&lt;b&gt;AAG26879.1&lt;/b&gt;&lt;br&gt;PKSA beta-ketoacylsynthase subunit alpha&lt;br&gt;Location: 4212 - 5480&lt;br&gt;&lt;br&gt;&lt;b&gt;BlastP hit with cds43881_45150&lt;/b&gt;&lt;br&gt;Percentage identity: 78&lt;br&gt;Percentage coverage: 99&lt;br&gt;BLAST bit score: 652&lt;br&gt;E-value: 4.1e-187" locus_tag="AAG26879.1" class="clusterblast-orf" id="dummy-1_h1_3_1"  />
</g>
<g id="a1_002"  >
<polygon points="404,90 424,90 429,85 424,80 404,80 404,90 " style="fill:#d8a715; stroke-width:1; stroke:black; " description="&lt;b&gt;AAG26880.1&lt;/b&gt;&lt;br&gt;PKSA beta-ketoacylsynthase subunit beta&lt;br&gt;Location: 5477 - 6730&lt;br&gt;&lt;br&gt;&lt;b&gt;BlastP hit with cds45146_46406&lt;/b&gt;&lt;br&gt;Percentage identity: 82&lt;br&gt;Percentage coverage: 95&lt;br&gt;BLAST bit score: 654&lt;br&gt;E-value: 8.3e-188" locus_tag="AAG26880.1" class="clusterblast-orf" id="dummy-1_h1_3_2"  />
</g>
<g id="a1_003"  >
<polygon points="430,90 430,90 435,85 430,80 430,80 430,90 " style="fill:#15d846; stroke-width:1; stroke:black; " description="&lt;b&gt;AAG26884.1&lt;/b&gt;&lt;br&gt;type-II polyketide synthase acyl carrier protein&lt;br&gt;Location: 6763 - 7017&lt;br&gt;&lt;br&gt;&lt;b&gt;BlastP hit with cds46422_46680&lt;/b&gt;&lt;br&gt;Percentage identity: 58&lt;br&gt;Percentage coverage: 100&lt;br&gt;BLAST bit score: 100&lt;br&gt;E-value: 1.6e-21" locus_tag="AAG26884.1" class="clusterblast-orf" id="dummy-1_h1_3_3"  />
</g>
<g id="a1_004"  >
<polygon points="435,90 440,90 445,85 440,80 435,80 435,90 " style="fill:#1546d8; stroke-width:1; stroke:black; " description="&lt;b&gt;AAG26881.1&lt;/b&gt;&lt;br&gt;PKSA putative cyclase I&lt;br&gt;Location: 7019 - 7498&lt;br&gt;&lt;br&gt;&lt;b&gt;BlastP hit with cds46681_47161&lt;/b&gt;&lt;br&gt;Percentage identity: 74&lt;br&gt;Percentage coverage: 97&lt;br&gt;BLAST bit score: 253&lt;br&gt;E-value: 2.1e-67" locus_tag="AAG26881.1" class="clusterblast-orf" id="dummy-1_h1_3_4"  />
</g>
<g id="a1_005"  >
<polygon points="445,90 447,90 452,85 447,80 445,80 445,90 " style="fill:#d815a7; stroke-width:1; stroke:black; " description="&lt;b&gt;AAG26882.1&lt;/b&gt;&lt;br&gt;PKSA putative cyclase II&lt;br&gt;Location: 7519 - 7851&lt;br&gt;&lt;br&gt;&lt;b&gt;BlastP hit with cds47180_47513&lt;/b&gt;&lt;br&gt;Percentage identity: 73&lt;br&gt;Percentage coverage: 97&lt;br&gt;BLAST bit score: 170&lt;br&gt;E-value: 1.2e-42" locus_tag="AAG26882.1" class="clusterblast-orf" id="dummy-1_h1_3_5"  />
</g>
<g id="a1_006"  >
<polygon points="454,85 459,80 474,80 474,90 459,90 454,85 " style="fill:white; stroke-width:1; stroke:black; " description="&lt;b&gt;AAG26883.1&lt;/b&gt;&lt;br&gt;PKSA putative O-methyltransferase&lt;br&gt;Location: 7964 - 8926" locus_tag="AAG26883.1" class="clusterblast-orf" id="dummy-1_h1_3_6"  />
</g>
</svg>
