<svg xmlns="http://www.w3.org/2000/svg" xmlns:xlink="http://www.w3.org/1999/xlink" version="1.1" x="0" y="0" height="230" width="800" viewBox="0 0 800 230" preserveAspectRatio="none"  >
<g label="Query sequence" class="clusterblast-cluster"  >
<text x="5" y="20" class="clusterblast-acc"  >
Query sequence</text>
<line x1="10" y1="35" x2="778.0" y2="35" style="stroke-width:1; stroke:grey; "  />
<polygon points="127,35 132,30 141,30 141,40 132,40 127,35 " style="fill:white; stroke-width:1; stroke:black; " description="&lt;b&gt;cds164_1667&lt;/b&gt;&lt;br&gt;Catalase&lt;br&gt;Location: 164 - 1667" locus_tag="cds164_1667" class="clusterblast-orf" id="dummy-1_q0_0_all"  />
<polygon points="140,35 144,30 144,40 140,35 " style="fill:white; stroke-width:1; stroke:black; " description="&lt;b&gt;cds1629_2067&lt;/b&gt;&lt;br&gt;Transcriptional regulator FurA&lt;br&gt;Location: 1629 - 2067" locus_tag="cds1629_2067" class="clusterblast-orf" id="dummy-1_q1_0_all"  />
<polygon points="146,40 155,40 160,35 155,30 146,30 146,40 " style="fill:white; stroke-width:1; stroke:black; " description="&lt;b&gt;cds2242_3730&lt;/b&gt;&lt;br&gt;putative bifunctional transcriptional activator/DNA repair enzyme AlkA&lt;br&gt;Location: 2242 - 3730" locus_tag="cds2242_3730" class="clusterblast-orf" id="dummy-1_q2_0_all"  />
<polygon points="161,40 161,40 166,35 161,30 161,30 161,40 " style="fill:white; stroke-width:1; stroke:black; " description="&lt;b&gt;cds3811_4321&lt;/b&gt;&lt;br&gt;Methylated-DNA--protein-cysteine methyltransferase&lt;br&gt;Location: 3811 - 4321" locus_tag="cds3811_4321" class="clusterblast-orf" id="dummy-1_q3_0_all"  />
<polygon points="168,40 172,35 168,30 168,40 " style="fill:white; stroke-width:1; stroke:black; " description="&lt;b&gt;cds4523_5027&lt;/b&gt;&lt;br&gt;hypothetical protein&lt;br&gt;Location: 4523 - 5027" locus_tag="cds4523_5027" class="clusterblast-orf" id="dummy-1_q4_0_all"  />
<polygon points="172,40 181,40 186,35 181,30 172,30 172,40 " style="fill:white; stroke-width:1; stroke:black; " description="&lt;b&gt;cds5026_6454&lt;/b&gt;&lt;br&gt;hypothetical protein&lt;br&gt;Location: 5026 - 6454" locus_tag="cds5026_6454" class="clusterblast-orf" id="dummy-1_q5_0_all"  />
<polygon points="186,40 194,40 199,35 194,30 186,30 186,40 " style="fill:white; stroke-width:1; stroke:black; " description="&lt;b&gt;cds6450_7866&lt;/b&gt;&lt;br&gt;hypothetical protein&lt;br&gt;Location: 6450 - 7866" locus_tag="cds6450_7866" class="clusterblast-orf" id="dummy-1_q6_0_all"  />
<polygon points="200,40 205,40 210,35 205,30 200,30 200,40 " style="fill:white; stroke-width:1; stroke:black; " description="&lt;b&gt;cds7916_9029&lt;/b&gt;&lt;br&gt;putative protein YehL&lt;br&gt;Location: 7916 - 9029" locus_tag="cds7916_9029" class="clusterblast-orf" id="dummy-1_q7_0_all"  />
<polygon points="210,40 231,40 236,35 231,30 210,30 210,40 " style="fill:white; stroke-width:1; stroke:black; " description="&lt;b&gt;cds9025_11821&lt;/b&gt;&lt;br&gt;hypothetical protein&lt;br&gt;Location: 9025 - 11821" locus_tag="cds9025_11821" class="clusterblast-orf" id="dummy-1_q8_0_all"  />
<polygon points="238,40 248,40 253,35 248,30 238,30 238,40 " style="fill:white; stroke-width:1; stroke:black; " description="&lt;b&gt;cds12033_13605&lt;/b&gt;&lt;br&gt;Proline/betaine transporter&lt;br&gt;Location: 12033 - 13605" locus_tag="cds12033_13605" class="clusterblast-orf" id="dummy-1_q9_0_all"  />
<polygon points="258,40 260,35 258,30 258,40 " style="fill:#d81515; stroke-width:1; stroke:black; " description="&lt;b&gt;cds14120_14339&lt;/b&gt;&lt;br&gt;Protein MbtH&lt;br&gt;Location: 14120 - 14339" locus_tag="cds14120_14339" class="clusterblast-orf" id="dummy-1_q10_0_all"  />
<polygon points="264,40 395,40 400,35 395,30 264,30 264,40 " style="fill:#15d8d8; stroke-width:1; stroke:black; " description="&lt;b&gt;cds14742_29220&lt;/b&gt;&lt;br&gt;Tyrocidine synthase 3&lt;br&gt;Location: 14742 - 29220" locus_tag="cds14742_29220" class="clusterblast-orf" id="dummy-1_q11_0_all"  />
<polygon points="400,40 466,40 471,35 466,30 400,30 400,40 " style="fill:#15d8d8; stroke-width:1; stroke:black; " description="&lt;b&gt;cds29216_36776&lt;/b&gt;&lt;br&gt;Linear gramicidin synthase subunit D&lt;br&gt;Location: 29216 - 36776" locus_tag="cds29216_36776" class="clusterblast-orf" id="dummy-1_q12_0_all"  />
<polygon points="472,40 476,35 472,30 472,40 " style="fill:white; stroke-width:1; stroke:black; " description="&lt;b&gt;cds36821_37274&lt;/b&gt;&lt;br&gt;hypothetical protein&lt;br&gt;Location: 36821 - 37274" locus_tag="cds36821_37274" class="clusterblast-orf" id="dummy-1_q13_0_all"  />
<polygon points="477,40 482,40 487,35 482,30 477,30 477,40 " style="fill:white; stroke-width:1; stroke:black; " description="&lt;b&gt;cds37373_38432&lt;/b&gt;&lt;br&gt;hypothetical protein&lt;br&gt;Location: 37373 - 38432" locus_tag="cds37373_38432" class="clusterblast-orf" id="dummy-1_q14_0_all"  />
<polygon points="489,40 494,40 499,35 494,30 489,30 489,40 " style="fill:white; stroke-width:1; stroke:black; " description="&lt;b&gt;cds38713_39781&lt;/b&gt;&lt;br&gt;hypothetical protein&lt;br&gt;Location: 38713 - 39781" locus_tag="cds38713_39781" class="clusterblast-orf" id="dummy-1_q15_0_all"  />
<polygon points="500,35 502,30 502,40 500,35 " style="fill:white; stroke-width:1; stroke:black; " description="&lt;b&gt;cds39842_40028&lt;/b&gt;&lt;br&gt;hypothetical protein&lt;br&gt;Location: 39842 - 40028" locus_tag="cds39842_40028" class="clusterblast-orf" id="dummy-1_q16_0_all"  />
<polygon points="502,35 504,30 504,40 502,35 " style="fill:white; stroke-width:1; stroke:black; " description="&lt;b&gt;cds40024_40312&lt;/b&gt;&lt;br&gt;hypothetical protein&lt;br&gt;Location: 40024 - 40312" locus_tag="cds40024_40312" class="clusterblast-orf" id="dummy-1_q17_0_all"  />
<polygon points="506,35 510,30 510,40 506,35 " style="fill:white; stroke-width:1; stroke:black; " description="&lt;b&gt;cds40480_40894&lt;/b&gt;&lt;br&gt;hypothetical protein&lt;br&gt;Location: 40480 - 40894" locus_tag="cds40480_40894" class="clusterblast-orf" id="dummy-1_q18_0_all"  />
<polygon points="516,35 521,30 523,30 523,40 521,40 516,35 " style="fill:white; stroke-width:1; stroke:black; " description="&lt;b&gt;cds41582_42332&lt;/b&gt;&lt;br&gt;Glucose 1-dehydrogenase&lt;br&gt;Location: 41582 - 42332" locus_tag="cds41582_42332" class="clusterblast-orf" id="dummy-1_q19_0_all"  />
<polygon points="525,40 525,40 530,35 525,30 525,30 525,40 " style="fill:white; stroke-width:1; stroke:black; " description="&lt;b&gt;cds42498_43035&lt;/b&gt;&lt;br&gt;HTH-type transcriptional repressor ComR&lt;br&gt;Location: 42498 - 43035" locus_tag="cds42498_43035" class="clusterblast-orf" id="dummy-1_q20_0_all"  />
<polygon points="531,35 536,30 541,30 541,40 536,40 531,35 " style="fill:white; stroke-width:1; stroke:black; " description="&lt;b&gt;cds43100_44174&lt;/b&gt;&lt;br&gt;N-ethylmaleimide reductase&lt;br&gt;Location: 43100 - 44174" locus_tag="cds43100_44174" class="clusterblast-orf" id="dummy-1_q21_0_all"  />
<polygon points="542,40 546,35 542,30 542,40 " style="fill:white; stroke-width:1; stroke:black; " description="&lt;b&gt;cds44329_44761&lt;/b&gt;&lt;br&gt;Mercuric resistance operon regulatory protein&lt;br&gt;Location: 44329 - 44761" locus_tag="cds44329_44761" class="clusterblast-orf" id="dummy-1_q22_0_all"  />
<polygon points="548,35 553,30 557,30 557,40 553,40 548,35 " style="fill:white; stroke-width:1; stroke:black; " description="&lt;b&gt;cds44928_45888&lt;/b&gt;&lt;br&gt;N-acetylmannosamine kinase&lt;br&gt;Location: 44928 - 45888" locus_tag="cds44928_45888" class="clusterblast-orf" id="dummy-1_q23_0_all"  />
<polygon points="566,40 574,40 579,35 574,30 566,30 566,40 " style="fill:white; stroke-width:1; stroke:black; " description="&lt;b&gt;cds46880_48188&lt;/b&gt;&lt;br&gt;Mannan endo-1,4-beta-mannosidase&lt;br&gt;Location: 46880 - 48188" locus_tag="cds46880_48188" class="clusterblast-orf" id="dummy-1_q24_0_all"  />
<polygon points="579,35 583,30 583,40 579,35 " style="fill:white; stroke-width:1; stroke:black; " description="&lt;b&gt;cds48212_48611&lt;/b&gt;&lt;br&gt;hypothetical protein&lt;br&gt;Location: 48212 - 48611" locus_tag="cds48212_48611" class="clusterblast-orf" id="dummy-1_q25_0_all"  />
<polygon points="583,35 587,30 587,40 583,35 " style="fill:white; stroke-width:1; stroke:black; " description="&lt;b&gt;cds48624_49035&lt;/b&gt;&lt;br&gt;hypothetical protein&lt;br&gt;Location: 48624 - 49035" locus_tag="cds48624_49035" class="clusterblast-orf" id="dummy-1_q26_0_all"  />
<polygon points="587,40 590,40 595,35 590,30 587,30 587,40 " style="fill:white; stroke-width:1; stroke:black; " description="&lt;b&gt;cds49084_49969&lt;/b&gt;&lt;br&gt;hypothetical protein&lt;br&gt;Location: 49084 - 49969" locus_tag="cds49084_49969" class="clusterblast-orf" id="dummy-1_q27_0_all"  />
<polygon points="598,35 603,30 606,30 606,40 603,40 598,35 " style="fill:white; stroke-width:1; stroke:black; " description="&lt;b&gt;cds50256_51051&lt;/b&gt;&lt;br&gt;2,5-dichloro-2,5-cyclohexadiene-1,4-diol dehydrogenase&lt;br&gt;Location: 50256 - 51051" locus_tag="cds50256_51051" class="clusterblast-orf" id="dummy-1_q28_0_all"  />
<polygon points="607,40 608,40 613,35 608,30 607,30 607,40 " style="fill:white; stroke-width:1; stroke:black; " description="&lt;b&gt;cds51229_51832&lt;/b&gt;&lt;br&gt;HTH-type transcriptional repressor ComR&lt;br&gt;Location: 51229 - 51832" locus_tag="cds51229_51832" class="clusterblast-orf" id="dummy-1_q29_0_all"  />
<polygon points="615,35 620,30 624,30 624,40 620,40 615,35 " style="fill:white; stroke-width:1; stroke:black; " description="&lt;b&gt;cds52033_52969&lt;/b&gt;&lt;br&gt;Haloalkane dehalogenase&lt;br&gt;Location: 52033 - 52969" locus_tag="cds52033_52969" class="clusterblast-orf" id="dummy-1_q30_0_all"  />
<polygon points="631,40 633,40 638,35 633,30 631,30 631,40 " style="fill:white; stroke-width:1; stroke:black; " description="&lt;b&gt;cds53803_54529&lt;/b&gt;&lt;br&gt;Endo-1,4-beta-xylanase C&lt;br&gt;Location: 53803 - 54529" locus_tag="cds53803_54529" class="clusterblast-orf" id="dummy-1_q31_0_all"  />
<polygon points="640,35 642,30 642,40 640,35 " style="fill:white; stroke-width:1; stroke:black; " description="&lt;b&gt;cds54707_54929&lt;/b&gt;&lt;br&gt;hypothetical protein&lt;br&gt;Location: 54707 - 54929" locus_tag="cds54707_54929" class="clusterblast-orf" id="dummy-1_q32_0_all"  />
<polygon points="643,35 648,30 653,30 653,40 648,40 643,35 " style="fill:white; stroke-width:1; stroke:black; " description="&lt;b&gt;cds55021_56050&lt;/b&gt;&lt;br&gt;HTH-type transcriptional regulator DegA&lt;br&gt;Location: 55021 - 56050" locus_tag="cds55021_56050" class="clusterblast-orf" id="dummy-1_q33_0_all"  />
</g>
<g label="BGC0000315" description="BGC0000315_c1: CDA1b / CDA2a / CDA2b / CDA3a / CDA3b / CDA4a / CDA4b (7% of genes show similarity), NRP:Ca+-dependent lipopeptide" class="clusterblast-cluster"  >
<text x="5" y="70" class="clusterblast-acc"  >
<a xlink:href="https://mibig.secondarymetabolites.org/go/BGC0000315/1" target="_blank">BGC0000315</a>:                            CDA1b / CDA2a / CDA2b / CDA3a / CDA3b / CDA4a / CDA4b (7% of genes show similarity), NRP:Ca+-dependent lipopeptide</text>
<line x1="10" y1="85" x2="778.0" y2="85" style="stroke-width:1; stroke:grey; "  />
</g>
<g id="a1_000"  >
<polygon points="0,85 5,80 13,80 13,90 5,90 0,85 " style="fill:white; stroke-width:1; stroke:black; " description="&lt;b&gt;CAB38581.1&lt;/b&gt;&lt;br&gt;putative 2-dehydro-3-deoxyheptonate aldolase&lt;br&gt;Location: 1 - 1455" locus_tag="CAB38581.1" class="clusterblast-orf" id="dummy-1_h1_5_0"  />
</g>
<g id="a1_001"  >
<polygon points="13,85 18,80 20,80 20,90 18,90 13,85 " style="fill:white; stroke-width:1; stroke:black; " description="&lt;b&gt;CAB38582.1&lt;/b&gt;&lt;br&gt;putative indoleglycerol phosphate synthase (trpC2)&lt;br&gt;Location: 1452 - 2228" locus_tag="CAB38582.1" class="clusterblast-orf" id="dummy-1_h1_5_1"  />
</g>
<g id="a1_002"  >
<polygon points="20,85 25,80 30,80 30,90 25,90 20,85 " style="fill:white; stroke-width:1; stroke:black; " description="&lt;b&gt;CAB38583.1&lt;/b&gt;&lt;br&gt;probable anthranilate phosphoribotransferase (trpD2)&lt;br&gt;Location: 2225 - 3232" locus_tag="CAB38583.1" class="clusterblast-orf" id="dummy-1_h1_5_2"  />
</g>
<g id="a1_003"  >
<polygon points="30,85 35,80 36,80 36,90 35,90 30,85 " style="fill:white; stroke-width:1; stroke:black; " description="&lt;b&gt;CAB38584.1&lt;/b&gt;&lt;br&gt;probable anthranilate synthase component II (trpG)&lt;br&gt;Location: 3249 - 3851" locus_tag="CAB38584.1" class="clusterblast-orf" id="dummy-1_h1_5_3"  />
</g>
<g id="a1_004"  >
<polygon points="36,85 41,80 50,80 50,90 41,90 36,85 " style="fill:white; stroke-width:1; stroke:black; " description="&lt;b&gt;CAB38585.1&lt;/b&gt;&lt;br&gt;probable anthranilate synthase component I (trpE2)&lt;br&gt;Location: 3848 - 5383" locus_tag="CAB38585.1" class="clusterblast-orf" id="dummy-1_h1_5_4"  />
</g>
<g id="a1_005"  >
<polygon points="50,85 55,80 60,80 60,90 55,90 50,85 " style="fill:white; stroke-width:1; stroke:black; " description="&lt;b&gt;CAB38586.1&lt;/b&gt;&lt;br&gt;2-oxogluterate-3-methyltransferase (glmT)&lt;br&gt;Location: 5380 - 6396" locus_tag="CAB38586.1" class="clusterblast-orf" id="dummy-1_h1_5_5"  />
</g>
<g id="a1_006"  >
<polygon points="62,90 80,90 85,85 80,80 62,80 62,90 " style="fill:white; stroke-width:1; stroke:black; " description="&lt;b&gt;CAB38587.1&lt;/b&gt;&lt;br&gt;putative integral membrane ATPase&lt;br&gt;Location: 6689 - 9079" locus_tag="CAB38587.1" class="clusterblast-orf" id="dummy-1_h1_5_6"  />
</g>
<g id="a1_007"  >
<polygon points="92,90 105,90 110,85 105,80 92,80 92,90 " style="fill:white; stroke-width:1; stroke:black; " description="&lt;b&gt;CAB38588.1&lt;/b&gt;&lt;br&gt;putative transcriptional regulator&lt;br&gt;Location: 9824 - 11740" locus_tag="CAB38588.1" class="clusterblast-orf" id="dummy-1_h1_5_7"  />
</g>
<g id="a1_008"  >
<polygon points="111,85 113,80 113,90 111,85 " style="fill:#d81515; stroke-width:1; stroke:black; " description="&lt;b&gt;CAB38589.1&lt;/b&gt;&lt;br&gt;putative small conserved hypothetical protein&lt;br&gt;Location: 11802 - 12017&lt;br&gt;&lt;br&gt;&lt;b&gt;BlastP hit with cds14120_14339&lt;/b&gt;&lt;br&gt;Percentage identity: 58&lt;br&gt;Percentage coverage: 93&lt;br&gt;BLAST bit score: 97&lt;br&gt;E-value: 1.1e-20" locus_tag="CAB38589.1" class="clusterblast-orf" id="dummy-1_h1_5_8"  />
</g>
<g id="a1_009"  >
<polygon points="114,85 119,80 125,80 125,90 119,90 114,85 " style="fill:white; stroke-width:1; stroke:black; " description="&lt;b&gt;CAB38590.1&lt;/b&gt;&lt;br&gt;putative lipase (putative secreted protein)&lt;br&gt;Location: 12140 - 13315" locus_tag="CAB38590.1" class="clusterblast-orf" id="dummy-1_h1_5_9"  />
</g>
<g id="a1_0010"  >
<polygon points="127,85 131,80 131,90 127,85 " style="fill:white; stroke-width:1; stroke:black; " description="&lt;b&gt;CAB38591.1&lt;/b&gt;&lt;br&gt;putative secreted protein&lt;br&gt;Location: 13523 - 13951" locus_tag="CAB38591.1" class="clusterblast-orf" id="dummy-1_h1_5_10"  />
</g>
<g id="a1_0011"  >
<polygon points="132,85 137,80 140,80 140,90 137,90 132,85 " style="fill:white; stroke-width:1; stroke:black; " description="&lt;b&gt;CAB38592.1&lt;/b&gt;&lt;br&gt;putative oxidoreductase&lt;br&gt;Location: 14044 - 14898" locus_tag="CAB38592.1" class="clusterblast-orf" id="dummy-1_h1_5_11"  />
</g>
<g id="a1_0012"  >
<polygon points="141,85 145,80 145,90 141,85 " style="fill:white; stroke-width:1; stroke:black; " description="&lt;b&gt;CAB38593.1&lt;/b&gt;&lt;br&gt;putative secreted protein&lt;br&gt;Location: 14996 - 15451" locus_tag="CAB38593.1" class="clusterblast-orf" id="dummy-1_h1_5_12"  />
</g>
<g id="a1_0013"  >
<polygon points="146,85 151,80 154,80 154,90 151,90 146,85 " style="fill:white; stroke-width:1; stroke:black; " description="&lt;b&gt;CAB38594.1&lt;/b&gt;&lt;br&gt;putative ABC transporter integral membrane protein&lt;br&gt;Location: 15606 - 16400" locus_tag="CAB38594.1" class="clusterblast-orf" id="dummy-1_h1_5_13"  />
</g>
<g id="a1_0014"  >
<polygon points="154,85 159,80 163,80 163,90 159,90 154,85 " style="fill:white; stroke-width:1; stroke:black; " description="&lt;b&gt;CAB38595.1&lt;/b&gt;&lt;br&gt;putative ABC transporter ATP-binding protein&lt;br&gt;Location: 16407 - 17360" locus_tag="CAB38595.1" class="clusterblast-orf" id="dummy-1_h1_5_14"  />
</g>
<g id="a1_0015"  >
<polygon points="164,90 175,90 180,85 175,80 164,80 164,90 " style="fill:white; stroke-width:1; stroke:black; " description="&lt;b&gt;CAB38596.1&lt;/b&gt;&lt;br&gt;two component sensor kinase (absA1)&lt;br&gt;Location: 17497 - 19212" locus_tag="CAB38596.1" class="clusterblast-orf" id="dummy-1_h1_5_15"  />
</g>
<g id="a1_0016"  >
<polygon points="180,90 182,90 187,85 182,80 180,80 180,90 " style="fill:white; stroke-width:1; stroke:black; " description="&lt;b&gt;CAB38597.1&lt;/b&gt;&lt;br&gt;two component system response regulator (absA2)&lt;br&gt;Location: 19231 - 19899" locus_tag="CAB38597.1" class="clusterblast-orf" id="dummy-1_h1_5_16"  />
</g>
<g id="a1_0017"  >
<polygon points="187,85 192,80 199,80 199,90 192,90 187,85 " style="fill:white; stroke-width:1; stroke:black; " description="&lt;b&gt;CAD55497.1&lt;/b&gt;&lt;br&gt;4-hydroxyphenylglycine aminotransferase (hpgT)&lt;br&gt;Location: 19889 - 21223" locus_tag="CAD55497.1" class="clusterblast-orf" id="dummy-1_h1_5_17"  />
</g>
<g id="a1_0018"  >
<polygon points="199,85 204,80 210,80 210,90 204,90 199,85 " style="fill:white; stroke-width:1; stroke:black; " description="&lt;b&gt;CAB38520.1&lt;/b&gt;&lt;br&gt;4-hydroxymandelate oxidase (Hmo)&lt;br&gt;Location: 21220 - 22353" locus_tag="CAB38520.1" class="clusterblast-orf" id="dummy-1_h1_5_18"  />
</g>
<g id="a1_0019"  >
<polygon points="211,85 216,80 222,80 222,90 216,90 211,85 " style="fill:white; stroke-width:1; stroke:black; " description="&lt;b&gt;CAB38519.1&lt;/b&gt;&lt;br&gt;4-hydroxymandelic acid synthase (HmaS)&lt;br&gt;Location: 22503 - 23618" locus_tag="CAB38519.1" class="clusterblast-orf" id="dummy-1_h1_5_19"  />
</g>
<g id="a1_0020"  >
<polygon points="224,90 430,90 435,85 430,80 224,80 224,90 " style="fill:#15d8d8; stroke-width:1; stroke:black; " description="&lt;b&gt;CAB38518.1&lt;/b&gt;&lt;br&gt;CDA peptide synthetase I (CdaPs1)&lt;br&gt;Location: 23887 - 46278&lt;br&gt;&lt;br&gt;&lt;b&gt;BlastP hit with cds29216_36776&lt;/b&gt;&lt;br&gt;Percentage identity: 46&lt;br&gt;Percentage coverage: 85&lt;br&gt;BLAST bit score: 1607&lt;br&gt;E-value: 0.0" locus_tag="CAB38518.1" class="clusterblast-orf" id="dummy-1_h1_5_20"  />
</g>
<g id="a1_0021"  >
<polygon points="435,90 534,90 539,85 534,80 435,80 435,90 " style="fill:white; stroke-width:1; stroke:black; " description="&lt;b&gt;CAB38517.1&lt;/b&gt;&lt;br&gt;CDA peptide synthetase II (CdaPs2)&lt;br&gt;Location: 46275 - 57287" locus_tag="CAB38517.1" class="clusterblast-orf" id="dummy-1_h1_5_21"  />
</g>
<g id="a1_0022"  >
<polygon points="539,90 602,90 607,85 602,80 539,80 539,90 " style="fill:#15d8d8; stroke-width:1; stroke:black; " description="&lt;b&gt;CAD55498.1&lt;/b&gt;&lt;br&gt;CDA peptide synthetase III (CdaPs3)&lt;br&gt;Location: 57287 - 64540&lt;br&gt;&lt;br&gt;&lt;b&gt;BlastP hit with cds29216_36776&lt;/b&gt;&lt;br&gt;Percentage identity: 47&lt;br&gt;Percentage coverage: 85&lt;br&gt;BLAST bit score: 1679&lt;br&gt;E-value: 0.0" locus_tag="CAD55498.1" class="clusterblast-orf" id="dummy-1_h1_5_22"  />
</g>
<g id="a1_0023"  >
<polygon points="607,90 610,90 615,85 610,80 607,80 607,90 " style="fill:white; stroke-width:1; stroke:black; " description="&lt;b&gt;CAB38877.1&lt;/b&gt;&lt;br&gt;putative type II thioesterase&lt;br&gt;Location: 64544 - 65362" locus_tag="CAB38877.1" class="clusterblast-orf" id="dummy-1_h1_5_23"  />
</g>
<g id="a1_0024"  >
<polygon points="615,90 618,90 623,85 618,80 615,80 615,90 " style="fill:white; stroke-width:1; stroke:black; " description="&lt;b&gt;CAB38878.1&lt;/b&gt;&lt;br&gt;3-hydroxyasparagine phosphotransferase (HasP)&lt;br&gt;Location: 65374 - 66276" locus_tag="CAB38878.1" class="clusterblast-orf" id="dummy-1_h1_5_24"  />
</g>
<g id="a1_0025"  >
<polygon points="624,85 629,80 641,80 641,90 629,90 624,85 " style="fill:white; stroke-width:1; stroke:black; " description="&lt;b&gt;CAB38879.1&lt;/b&gt;&lt;br&gt;putative ABC transporter&lt;br&gt;Location: 66352 - 68199" locus_tag="CAB38879.1" class="clusterblast-orf" id="dummy-1_h1_5_25"  />
</g>
<g id="a1_0026"  >
<polygon points="642,85 647,80 651,80 651,90 647,90 642,85 " style="fill:white; stroke-width:1; stroke:black; " description="&lt;b&gt;CAB38880.1&lt;/b&gt;&lt;br&gt;Asparagine oxygenase (AsnO)&lt;br&gt;Location: 68239 - 69240" locus_tag="CAB38880.1" class="clusterblast-orf" id="dummy-1_h1_5_26"  />
</g>
<g id="a1_0027"  >
<polygon points="652,85 657,80 665,80 665,90 657,90 652,85 " style="fill:white; stroke-width:1; stroke:black; " description="&lt;b&gt;CAB38881.1&lt;/b&gt;&lt;br&gt;conserved hypothetical protein&lt;br&gt;Location: 69298 - 70686" locus_tag="CAB38881.1" class="clusterblast-orf" id="dummy-1_h1_5_27"  />
</g>
<g id="a1_0028"  >
<polygon points="665,85 670,80 676,80 676,90 670,90 665,85 " style="fill:white; stroke-width:1; stroke:black; " description="&lt;b&gt;CAB38882.1&lt;/b&gt;&lt;br&gt;hypothetical protein&lt;br&gt;Location: 70698 - 71858" locus_tag="CAB38882.1" class="clusterblast-orf" id="dummy-1_h1_5_28"  />
</g>
<g id="a1_0029"  >
<polygon points="676,85 681,80 684,80 684,90 681,90 676,85 " style="fill:white; stroke-width:1; stroke:black; " description="&lt;b&gt;CAB38883.1&lt;/b&gt;&lt;br&gt;conserved hypothetical protein&lt;br&gt;Location: 71865 - 72734" locus_tag="CAB38883.1" class="clusterblast-orf" id="dummy-1_h1_5_29"  />
</g>
<g id="a1_0030"  >
<polygon points="684,85 689,80 691,80 691,90 689,90 684,85 " style="fill:white; stroke-width:1; stroke:black; " description="&lt;b&gt;CAB38884.1&lt;/b&gt;&lt;br&gt;conserved hypothetical protein&lt;br&gt;Location: 72731 - 73441" locus_tag="CAB38884.1" class="clusterblast-orf" id="dummy-1_h1_5_30"  />
</g>
<g id="a1_0031"  >
<polygon points="691,85 696,80 699,80 699,90 696,90 691,85 " style="fill:white; stroke-width:1; stroke:black; " description="&lt;b&gt;CAB38885.1&lt;/b&gt;&lt;br&gt;putaive isomerase&lt;br&gt;Location: 73438 - 74310" locus_tag="CAB38885.1" class="clusterblast-orf" id="dummy-1_h1_5_31"  />
</g>
<g id="a1_0032"  >
<polygon points="699,85 704,80 707,80 707,90 704,90 699,85 " style="fill:white; stroke-width:1; stroke:black; " description="&lt;b&gt;CAB38886.1&lt;/b&gt;&lt;br&gt;puitative transferase&lt;br&gt;Location: 74307 - 75182" locus_tag="CAB38886.1" class="clusterblast-orf" id="dummy-1_h1_5_32"  />
</g>
<g id="a1_0033"  >
<polygon points="707,85 712,80 718,80 718,90 712,90 707,85 " style="fill:white; stroke-width:1; stroke:black; " description="&lt;b&gt;CAB38887.1&lt;/b&gt;&lt;br&gt;putative myo-inositol phosphate synthase&lt;br&gt;Location: 75179 - 76345" locus_tag="CAB38887.1" class="clusterblast-orf" id="dummy-1_h1_5_33"  />
</g>
<g id="a1_0034"  >
<polygon points="719,85 724,80 726,80 726,90 724,90 719,85 " style="fill:white; stroke-width:1; stroke:black; " description="&lt;b&gt;CAB38888.1&lt;/b&gt;&lt;br&gt;putative secreted protein&lt;br&gt;Location: 76395 - 77192" locus_tag="CAB38888.1" class="clusterblast-orf" id="dummy-1_h1_5_34"  />
</g>
<g id="a1_0035"  >
<polygon points="727,85 732,80 739,80 739,90 732,90 727,85 " style="fill:white; stroke-width:1; stroke:black; " description="&lt;b&gt;CAB38889.1&lt;/b&gt;&lt;br&gt;Hexenoyl-S-ACP Monooxygenase (hcmO)&lt;br&gt;Location: 77260 - 78522" locus_tag="CAB38889.1" class="clusterblast-orf" id="dummy-1_h1_5_35"  />
</g>
<g id="a1_0036"  >
<polygon points="739,85 744,80 748,80 748,90 744,90 739,85 " style="fill:white; stroke-width:1; stroke:black; " description="&lt;b&gt;CAB38890.1&lt;/b&gt;&lt;br&gt;3-Oxoacyl-[acyl carrier protein] synthase III (fabH4)&lt;br&gt;Location: 78569 - 79561" locus_tag="CAB38890.1" class="clusterblast-orf" id="dummy-1_h1_5_36"  />
</g>
<g id="a1_0037"  >
<polygon points="748,85 753,80 765,80 765,90 753,90 748,85 " style="fill:white; stroke-width:1; stroke:black; " description="&lt;b&gt;CAB38891.1&lt;/b&gt;&lt;br&gt;Hexanoyl-S-ACP oxidase/epoxidase (hxcO)&lt;br&gt;Location: 79558 - 81360" locus_tag="CAB38891.1" class="clusterblast-orf" id="dummy-1_h1_5_37"  />
</g>
<g id="a1_0038"  >
<polygon points="766,85 771,80 777,80 777,90 771,90 766,85 " style="fill:white; stroke-width:1; stroke:black; " description="&lt;b&gt;CAB38892.1&lt;/b&gt;&lt;br&gt;3-Oxoacyl-[acyl carrier protein] synthase II (fabF3)&lt;br&gt;Location: 81410 - 82630" locus_tag="CAB38892.1" class="clusterblast-orf" id="dummy-1_h1_5_38"  />
</g>
<g id="a1_0039"  >
<polygon points="777,85 780,80 780,90 777,85 " style="fill:white; stroke-width:1; stroke:black; " description="&lt;b&gt;CAB38893.1&lt;/b&gt;&lt;br&gt;acyl carrier protein&lt;br&gt;Location: 82627 - 82872" locus_tag="CAB38893.1" class="clusterblast-orf" id="dummy-1_h1_5_39"  />
</g>
</svg>
