<svg xmlns="http://www.w3.org/2000/svg" xmlns:xlink="http://www.w3.org/1999/xlink" version="1.1" x="0" y="0" height="50" width="800" viewBox="0 0 800 50" preserveAspectRatio="none"  >
<g label="Query sequence" class="clusterblast-cluster"  >
<text x="5" y="20" class="clusterblast-acc"  >
Query sequence</text>
<line x1="10" y1="35" x2="778.0" y2="35" style="stroke-width:1; stroke:grey; "  />
<polygon points="0,40 14,40 19,35 14,30 0,30 0,40 " style="fill:white; stroke-width:1; stroke:black; " description="&lt;b&gt;cds39514_39967&lt;/b&gt;&lt;br&gt;hypothetical protein&lt;br&gt;Location: 39514 - 39967" locus_tag="cds39514_39967" class="clusterblast-orf" id="knownclusterblast-1_q0_0_all"  />
<polygon points="19,40 82,40 87,35 82,30 19,30 19,40 " style="fill:white; stroke-width:1; stroke:black; " description="&lt;b&gt;cds39966_41622&lt;/b&gt;&lt;br&gt;hypothetical protein&lt;br&gt;Location: 39966 - 41622" locus_tag="cds39966_41622" class="clusterblast-orf" id="knownclusterblast-1_q1_0_all"  />
<polygon points="88,40 135,40 140,35 135,30 88,30 88,40 " style="fill:white; stroke-width:1; stroke:black; " description="&lt;b&gt;cds41647_42910&lt;/b&gt;&lt;br&gt;hypothetical protein&lt;br&gt;Location: 41647 - 42910" locus_tag="cds41647_42910" class="clusterblast-orf" id="knownclusterblast-1_q2_0_all"  />
<polygon points="143,40 153,40 158,35 153,30 143,30 143,40 " style="fill:white; stroke-width:1; stroke:black; " description="&lt;b&gt;cds42988_43342&lt;/b&gt;&lt;br&gt;hypothetical protein&lt;br&gt;Location: 42988 - 43342" locus_tag="cds42988_43342" class="clusterblast-orf" id="knownclusterblast-1_q3_0_all"  />
<polygon points="160,40 168,40 173,35 168,30 160,30 160,40 " style="fill:white; stroke-width:1; stroke:black; " description="&lt;b&gt;cds43405_43705&lt;/b&gt;&lt;br&gt;hypothetical protein&lt;br&gt;Location: 43405 - 43705" locus_tag="cds43405_43705" class="clusterblast-orf" id="knownclusterblast-1_q4_0_all"  />
<polygon points="184,40 215,40 220,35 215,30 184,30 184,40 " style="fill:white; stroke-width:1; stroke:black; " description="&lt;b&gt;cds43988_44840&lt;/b&gt;&lt;br&gt;hypothetical protein&lt;br&gt;Location: 43988 - 44840" locus_tag="cds43988_44840" class="clusterblast-orf" id="knownclusterblast-1_q5_0_all"  />
<polygon points="219,40 222,40 227,35 222,30 219,30 219,40 " style="fill:white; stroke-width:1; stroke:black; " description="&lt;b&gt;cds44836_45028&lt;/b&gt;&lt;br&gt;hypothetical protein&lt;br&gt;Location: 44836 - 45028" locus_tag="cds44836_45028" class="clusterblast-orf" id="knownclusterblast-1_q6_0_all"  />
<polygon points="226,35 231,30 238,30 238,40 231,40 226,35 " style="fill:white; stroke-width:1; stroke:black; " description="&lt;b&gt;cds44996_45284&lt;/b&gt;&lt;br&gt;hypothetical protein&lt;br&gt;Location: 44996 - 45284" locus_tag="cds44996_45284" class="clusterblast-orf" id="knownclusterblast-1_q7_0_all"  />
<polygon points="247,40 249,40 254,35 249,30 247,30 247,40 " style="fill:white; stroke-width:1; stroke:black; " description="&lt;b&gt;cds45500_45686&lt;/b&gt;&lt;br&gt;hypothetical protein&lt;br&gt;Location: 45500 - 45686" locus_tag="cds45500_45686" class="clusterblast-orf" id="knownclusterblast-1_q8_0_all"  />
<polygon points="255,35 260,30 279,30 279,40 260,40 255,35 " style="fill:white; stroke-width:1; stroke:black; " description="&lt;b&gt;cds45705_46284&lt;/b&gt;&lt;br&gt;Cell surface glycolipoprotein MPT83&lt;br&gt;Location: 45705 - 46284" locus_tag="cds45705_46284" class="clusterblast-orf" id="knownclusterblast-1_q9_0_all"  />
<polygon points="293,40 295,40 300,35 295,30 293,30 293,40 " style="fill:white; stroke-width:1; stroke:black; " description="&lt;b&gt;cds46620_46800&lt;/b&gt;&lt;br&gt;hypothetical protein&lt;br&gt;Location: 46620 - 46800" locus_tag="cds46620_46800" class="clusterblast-orf" id="knownclusterblast-1_q10_0_all"  />
<polygon points="307,40 309,40 314,35 309,30 307,30 307,40 " style="fill:white; stroke-width:1; stroke:black; " description="&lt;b&gt;cds46966_47134&lt;/b&gt;&lt;br&gt;hypothetical protein&lt;br&gt;Location: 46966 - 47134" locus_tag="cds46966_47134" class="clusterblast-orf" id="knownclusterblast-1_q11_0_all"  />
<polygon points="330,40 346,40 351,35 346,30 330,30 330,40 " style="fill:white; stroke-width:1; stroke:black; " description="&lt;b&gt;cds47513_48017&lt;/b&gt;&lt;br&gt;hypothetical protein&lt;br&gt;Location: 47513 - 48017" locus_tag="cds47513_48017" class="clusterblast-orf" id="knownclusterblast-1_q12_0_all"  />
<polygon points="354,35 359,30 399,30 399,40 359,40 354,35 " style="fill:white; stroke-width:1; stroke:black; " description="&lt;b&gt;cds48110_49181&lt;/b&gt;&lt;br&gt;(+)-(1(10)E,4E,6S,7R)-germacradien-6-ol synthase&lt;br&gt;Location: 48110 - 49181" locus_tag="cds48110_49181" class="clusterblast-orf" id="knownclusterblast-1_q13_0_all"  />
<polygon points="422,35 427,30 581,30 581,40 427,40 422,35 " style="fill:white; stroke-width:1; stroke:black; " description="&lt;b&gt;cds49762_53617&lt;/b&gt;&lt;br&gt;ESX secretion system protein EccC&lt;br&gt;Location: 49762 - 53617" locus_tag="cds49762_53617" class="clusterblast-orf" id="knownclusterblast-1_q14_0_all"  />
<polygon points="596,40 653,40 658,35 653,30 596,30 596,40 " style="fill:white; stroke-width:1; stroke:black; " description="&lt;b&gt;cds53977_55480&lt;/b&gt;&lt;br&gt;hypothetical protein&lt;br&gt;Location: 53977 - 55480" locus_tag="cds53977_55480" class="clusterblast-orf" id="knownclusterblast-1_q15_0_all"  />
<polygon points="665,40 672,40 677,35 672,30 665,30 665,40 " style="fill:white; stroke-width:1; stroke:black; " description="&lt;b&gt;cds55656_55947&lt;/b&gt;&lt;br&gt;30S ribosomal protein S15&lt;br&gt;Location: 55656 - 55947" locus_tag="cds55656_55947" class="clusterblast-orf" id="knownclusterblast-1_q16_0_all"  />
<polygon points="689,40 775,40 780,35 775,30 689,30 689,40 " style="fill:white; stroke-width:1; stroke:black; " description="&lt;b&gt;cds56217_58431&lt;/b&gt;&lt;br&gt;Polyribonucleotide nucleotidyltransferase&lt;br&gt;Location: 56217 - 58431" locus_tag="cds56217_58431" class="clusterblast-orf" id="knownclusterblast-1_q17_0_all"  />
</g>
</svg>
