<svg xmlns="http://www.w3.org/2000/svg" xmlns:xlink="http://www.w3.org/1999/xlink" version="1.1" x="0" y="0" height="230" width="800" viewBox="0 0 800 230" preserveAspectRatio="none"  >
<g label="Query sequence" class="clusterblast-cluster"  >
<text x="5" y="20" class="clusterblast-acc"  >
Query sequence</text>
<line x1="10" y1="35" x2="778.0" y2="35" style="stroke-width:1; stroke:grey; "  />
<polygon points="0,35 5,30 22,30 22,40 5,40 0,35 " style="fill:white; stroke-width:1; stroke:black; " description="&lt;b&gt;cds93049_94162&lt;/b&gt;&lt;br&gt;Transaldolase&lt;br&gt;Location: 93049 - 94162" locus_tag="cds93049_94162" class="clusterblast-orf" id="dummy-2_q0_0_all"  />
<polygon points="27,35 32,30 65,30 65,40 32,40 27,35 " style="fill:white; stroke-width:1; stroke:black; " description="&lt;b&gt;cds94422_96378&lt;/b&gt;&lt;br&gt;hypothetical protein&lt;br&gt;Location: 94422 - 96378" locus_tag="cds94422_96378" class="clusterblast-orf" id="dummy-2_q1_0_all"  />
<polygon points="70,40 80,40 85,35 80,30 70,30 70,40 " style="fill:white; stroke-width:1; stroke:black; " description="&lt;b&gt;cds96630_97377&lt;/b&gt;&lt;br&gt;Release factor glutamine methyltransferase&lt;br&gt;Location: 96630 - 97377" locus_tag="cds96630_97377" class="clusterblast-orf" id="dummy-2_q2_0_all"  />
<polygon points="87,40 125,40 130,35 125,30 87,30 87,40 " style="fill:white; stroke-width:1; stroke:black; " description="&lt;b&gt;cds97468_99643&lt;/b&gt;&lt;br&gt;Isochorismate synthase MenF&lt;br&gt;Location: 97468 - 99643" locus_tag="cds97468_99643" class="clusterblast-orf" id="dummy-2_q3_0_all"  />
<polygon points="135,40 154,40 159,35 154,30 135,30 135,40 " style="fill:white; stroke-width:1; stroke:black; " description="&lt;b&gt;cds99935_101153&lt;/b&gt;&lt;br&gt;hypothetical protein&lt;br&gt;Location: 99935 - 101153" locus_tag="cds99935_101153" class="clusterblast-orf" id="dummy-2_q4_0_all"  />
<polygon points="161,40 178,40 183,35 178,30 161,30 161,40 " style="fill:white; stroke-width:1; stroke:black; " description="&lt;b&gt;cds101246_102350&lt;/b&gt;&lt;br&gt;Transcriptional regulator NovG&lt;br&gt;Location: 101246 - 102350" locus_tag="cds101246_102350" class="clusterblast-orf" id="dummy-2_q5_0_all"  />
<polygon points="188,40 193,40 198,35 193,30 188,30 188,40 " style="fill:#d81515; stroke-width:1; stroke:black; " description="&lt;b&gt;cds102605_103100&lt;/b&gt;&lt;br&gt;Phenazine biosynthesis protein PhzB2&lt;br&gt;Location: 102605 - 103100" locus_tag="cds102605_103100" class="clusterblast-orf" id="dummy-2_q6_0_all"  />
<polygon points="199,40 217,40 222,35 217,30 199,30 199,40 " style="fill:#63d815; stroke-width:1; stroke:black; " description="&lt;b&gt;cds103152_104325&lt;/b&gt;&lt;br&gt;Phospho-2-dehydro-3-deoxyheptonate aldolase&lt;br&gt;Location: 103152 - 104325" locus_tag="cds103152_104325" class="clusterblast-orf" id="dummy-2_q7_0_all"  />
<polygon points="223,40 230,40 235,35 230,30 223,30 223,40 " style="fill:#15b1d8; stroke-width:1; stroke:black; " description="&lt;b&gt;cds104361_104985&lt;/b&gt;&lt;br&gt;Phenazine biosynthesis protein PhzD2&lt;br&gt;Location: 104361 - 104985" locus_tag="cds104361_104985" class="clusterblast-orf" id="dummy-2_q8_0_all"  />
<polygon points="235,40 269,40 274,35 269,30 235,30 235,40 " style="fill:#b115d8; stroke-width:1; stroke:black; " description="&lt;b&gt;cds104981_106976&lt;/b&gt;&lt;br&gt;Isochorismate synthase MenF&lt;br&gt;Location: 104981 - 106976" locus_tag="cds104981_106976" class="clusterblast-orf" id="dummy-2_q9_0_all"  />
<polygon points="276,40 287,40 292,35 287,30 276,30 276,40 " style="fill:#d86315; stroke-width:1; stroke:black; " description="&lt;b&gt;cds107064_107901&lt;/b&gt;&lt;br&gt;Trans-2,3-dihydro-3-hydroxyanthranilate isomerase&lt;br&gt;Location: 107064 - 107901" locus_tag="cds107064_107901" class="clusterblast-orf" id="dummy-2_q10_0_all"  />
<polygon points="295,40 302,40 307,35 302,30 295,30 295,40 " style="fill:#15d815; stroke-width:1; stroke:black; " description="&lt;b&gt;cds108031_108667&lt;/b&gt;&lt;br&gt;Phenazine biosynthesis protein PhzG&lt;br&gt;Location: 108031 - 108667" locus_tag="cds108031_108667" class="clusterblast-orf" id="dummy-2_q11_0_all"  />
<polygon points="311,40 314,40 319,35 314,30 311,30 311,40 " style="fill:white; stroke-width:1; stroke:black; " description="&lt;b&gt;cds108855_109236&lt;/b&gt;&lt;br&gt;hypothetical protein&lt;br&gt;Location: 108855 - 109236" locus_tag="cds108855_109236" class="clusterblast-orf" id="dummy-2_q12_0_all"  />
<polygon points="320,40 324,40 329,35 324,30 320,30 320,40 " style="fill:white; stroke-width:1; stroke:black; " description="&lt;b&gt;cds109329_109740&lt;/b&gt;&lt;br&gt;hypothetical protein&lt;br&gt;Location: 109329 - 109740" locus_tag="cds109329_109740" class="clusterblast-orf" id="dummy-2_q13_0_all"  />
<polygon points="330,40 341,40 346,35 341,30 330,30 330,40 " style="fill:white; stroke-width:1; stroke:black; " description="&lt;b&gt;cds109788_110601&lt;/b&gt;&lt;br&gt;Trans-aconitate 2-methyltransferase&lt;br&gt;Location: 109788 - 110601" locus_tag="cds109788_110601" class="clusterblast-orf" id="dummy-2_q14_0_all"  />
<polygon points="347,40 367,40 372,35 367,30 347,30 347,40 " style="fill:white; stroke-width:1; stroke:black; " description="&lt;b&gt;cds110686_111919&lt;/b&gt;&lt;br&gt;sugar efflux transporter&lt;br&gt;Location: 110686 - 111919" locus_tag="cds110686_111919" class="clusterblast-orf" id="dummy-2_q15_0_all"  />
<polygon points="375,40 392,40 397,35 392,30 375,30 375,40 " style="fill:white; stroke-width:1; stroke:black; " description="&lt;b&gt;cds112115_113201&lt;/b&gt;&lt;br&gt;hypothetical protein&lt;br&gt;Location: 112115 - 113201" locus_tag="cds112115_113201" class="clusterblast-orf" id="dummy-2_q16_0_all"  />
<polygon points="401,40 420,40 425,35 420,30 401,30 401,40 " style="fill:#1563d8; stroke-width:1; stroke:black; " description="&lt;b&gt;cds113397_114621&lt;/b&gt;&lt;br&gt;S-adenosylmethionine synthase&lt;br&gt;Location: 113397 - 114621" locus_tag="cds113397_114621" class="clusterblast-orf" id="dummy-2_q17_0_all"  />
<polygon points="425,40 440,40 445,35 440,30 425,30 425,40 " style="fill:#d815b1; stroke-width:1; stroke:black; " description="&lt;b&gt;cds114622_115660&lt;/b&gt;&lt;br&gt;Adenosine kinase&lt;br&gt;Location: 114622 - 115660" locus_tag="cds114622_115660" class="clusterblast-orf" id="dummy-2_q18_0_all"  />
<polygon points="445,40 458,40 463,35 458,30 445,30 445,40 " style="fill:#d8b115; stroke-width:1; stroke:black; " description="&lt;b&gt;cds115656_116574&lt;/b&gt;&lt;br&gt;5,10-methylenetetrahydrofolate reductase&lt;br&gt;Location: 115656 - 116574" locus_tag="cds115656_116574" class="clusterblast-orf" id="dummy-2_q19_0_all"  />
<polygon points="475,35 480,30 497,30 497,40 480,40 475,35 " style="fill:#15d863; stroke-width:1; stroke:black; " description="&lt;b&gt;cds117189_118269&lt;/b&gt;&lt;br&gt;putative 3-ketosteroid-9-alpha-monooxygenase, oxygenase component&lt;br&gt;Location: 117189 - 118269" locus_tag="cds117189_118269" class="clusterblast-orf" id="dummy-2_q20_0_all"  />
<polygon points="497,35 502,30 517,30 517,40 502,40 497,35 " style="fill:#1515d8; stroke-width:1; stroke:black; " description="&lt;b&gt;cds118265_119321&lt;/b&gt;&lt;br&gt;Putative NADP-dependent oxidoreductase YfmJ&lt;br&gt;Location: 118265 - 119321" locus_tag="cds118265_119321" class="clusterblast-orf" id="dummy-2_q21_0_all"  />
<polygon points="517,35 522,30 550,30 550,40 522,40 517,35 " style="fill:#d81563; stroke-width:1; stroke:black; " description="&lt;b&gt;cds119317_120976&lt;/b&gt;&lt;br&gt;Phytoene desaturase (lycopene-forming)&lt;br&gt;Location: 119317 - 120976" locus_tag="cds119317_120976" class="clusterblast-orf" id="dummy-2_q22_0_all"  />
<polygon points="550,35 555,30 583,30 583,40 555,40 550,35 " style="fill:#b1d815; stroke-width:1; stroke:black; " description="&lt;b&gt;cds120972_122658&lt;/b&gt;&lt;br&gt;hypothetical protein&lt;br&gt;Location: 120972 - 122658" locus_tag="cds120972_122658" class="clusterblast-orf" id="dummy-2_q23_0_all"  />
<polygon points="583,35 588,30 767,30 767,40 588,40 583,35 " style="fill:#15d8b1; stroke-width:1; stroke:black; " description="&lt;b&gt;cds122644_131968&lt;/b&gt;&lt;br&gt;D-alanine--D-alanyl carrier protein ligase&lt;br&gt;Location: 122644 - 131968" locus_tag="cds122644_131968" class="clusterblast-orf" id="dummy-2_q24_0_all"  />
<polygon points="769,35 774,30 780,30 780,40 774,40 769,35 " style="fill:#6315d8; stroke-width:1; stroke:black; " description="&lt;b&gt;cds132105_132633&lt;/b&gt;&lt;br&gt;hypothetical protein&lt;br&gt;Location: 132105 - 132633" locus_tag="cds132105_132633" class="clusterblast-orf" id="dummy-2_q25_0_all"  />
</g>
<g label="BGC0002010" description="BGC0002010_c1: streptophenazine B / streptophenazine C / streptophenazine F /... (21% of genes show similarity), NRP + Polyketide" class="clusterblast-cluster"  >
<text x="5" y="70" class="clusterblast-acc"  >
<a xlink:href="https://mibig.secondarymetabolites.org/go/BGC0002010/1" target="_blank">BGC0002010</a>: streptophenazine B / streptophenazine C / streptophenazine F / streptophenazine G / streptophenazine H (21% of genes show similarity), NRP + Polyketide</text>
<line x1="10" y1="85" x2="778.0" y2="85" style="stroke-width:1; stroke:grey; "  />
</g>
<g id="a2_000"  >
<polygon points="28,90 35,90 40,85 35,80 28,80 28,90 " style="fill:white; stroke-width:1; stroke:black; " description="&lt;b&gt;D581_RS0125600&lt;/b&gt;&lt;br&gt;TetR/AcrR family transcriptional regulator&lt;br&gt;Location: 36734 - 36111" locus_tag="D581_RS0125600" class="clusterblast-orf" id="dummy-2_h2_3_0"  />
</g>
<g id="a2_001"  >
<polygon points="47,90 88,90 93,85 88,80 47,80 47,90 " style="fill:white; stroke-width:1; stroke:black; " description="&lt;b&gt;D581_RS0125595&lt;/b&gt;&lt;br&gt;FAD-dependent oxidoreductase&lt;br&gt;Location: 35772 - 33427" locus_tag="D581_RS0125595" class="clusterblast-orf" id="dummy-2_h2_3_1"  />
</g>
<g id="a2_002"  >
<polygon points="95,90 121,90 126,85 121,80 95,80 95,90 " style="fill:white; stroke-width:1; stroke:black; " description="&lt;b&gt;D581_RS0125590&lt;/b&gt;&lt;br&gt;MFS transporter&lt;br&gt;Location: 33307 - 31757" locus_tag="D581_RS0125590" class="clusterblast-orf" id="dummy-2_h2_3_2"  />
</g>
<g id="a2_003"  >
<polygon points="130,90 141,90 146,85 141,80 130,80 130,90 " style="fill:white; stroke-width:1; stroke:black; " description="&lt;b&gt;D581_RS0125585&lt;/b&gt;&lt;br&gt;class I SAM-dependent methyltransferase&lt;br&gt;Location: 31549 - 30707" locus_tag="D581_RS0125585" class="clusterblast-orf" id="dummy-2_h2_3_3"  />
</g>
<g id="a2_004"  >
<polygon points="148,90 193,90 198,85 193,80 148,80 148,90 " style="fill:white; stroke-width:1; stroke:black; " description="&lt;b&gt;D581_RS0125580&lt;/b&gt;&lt;br&gt;hypothetical protein&lt;br&gt;Location: 30621 - 28081" locus_tag="D581_RS0125580" class="clusterblast-orf" id="dummy-2_h2_3_4"  />
</g>
<g id="a2_005"  >
<polygon points="199,85 204,80 205,80 205,90 204,90 199,85 " style="fill:white; stroke-width:1; stroke:black; " description="&lt;b&gt;D581_RS01000000137740&lt;/b&gt;&lt;br&gt;hypothetical protein&lt;br&gt;Location: 28046 - 27753" locus_tag="D581_RS01000000137740" class="clusterblast-orf" id="dummy-2_h2_3_5"  />
</g>
<g id="a2_006"  >
<polygon points="206,85 211,80 226,80 226,90 211,90 206,85 " style="fill:white; stroke-width:1; stroke:black; " description="&lt;b&gt;D581_RS0125570&lt;/b&gt;&lt;br&gt;hypothetical protein&lt;br&gt;Location: 27694 - 26660" locus_tag="D581_RS0125570" class="clusterblast-orf" id="dummy-2_h2_3_6"  />
</g>
<g id="a2_007"  >
<polygon points="233,90 238,90 243,85 238,80 233,80 233,90 " style="fill:#d81515; stroke-width:1; stroke:black; " description="&lt;b&gt;D581_RS0125565&lt;/b&gt;&lt;br&gt;hypothetical protein&lt;br&gt;Location: 26325 - 25825&lt;br&gt;&lt;br&gt;&lt;b&gt;BlastP hit with cds102605_103100&lt;/b&gt;&lt;br&gt;Percentage identity: 77&lt;br&gt;Percentage coverage: 92&lt;br&gt;BLAST bit score: 253&lt;br&gt;E-value: 1.7e-67" locus_tag="D581_RS0125565" class="clusterblast-orf" id="dummy-2_h2_3_7"  />
</g>
<g id="a2_008"  >
<polygon points="244,90 262,90 267,85 262,80 244,80 244,90 " style="fill:#63d815; stroke-width:1; stroke:black; " description="&lt;b&gt;D581_RS0125560&lt;/b&gt;&lt;br&gt;hypothetical protein&lt;br&gt;Location: 25772 - 24597&lt;br&gt;&lt;br&gt;&lt;b&gt;BlastP hit with cds103152_104325&lt;/b&gt;&lt;br&gt;Percentage identity: 69&lt;br&gt;Percentage coverage: 100&lt;br&gt;BLAST bit score: 533&lt;br&gt;E-value: 3.4e-151" locus_tag="D581_RS0125560" class="clusterblast-orf" id="dummy-2_h2_3_8"  />
</g>
<g id="a2_009"  >
<polygon points="267,90 274,90 279,85 274,80 267,80 267,90 " style="fill:#15b1d8; stroke-width:1; stroke:black; " description="&lt;b&gt;D581_RS0125555&lt;/b&gt;&lt;br&gt;isochorismatase family protein&lt;br&gt;Location: 24574 - 23951&lt;br&gt;&lt;br&gt;&lt;b&gt;BlastP hit with cds104361_104985&lt;/b&gt;&lt;br&gt;Percentage identity: 72&lt;br&gt;Percentage coverage: 100&lt;br&gt;BLAST bit score: 305&lt;br&gt;E-value: 6.1e-83" locus_tag="D581_RS0125555" class="clusterblast-orf" id="dummy-2_h2_3_9"  />
</g>
<g id="a2_0010"  >
<polygon points="280,90 312,90 317,85 312,80 280,80 280,90 " style="fill:#b115d8; stroke-width:1; stroke:black; " description="&lt;b&gt;D581_RS0125550&lt;/b&gt;&lt;br&gt;phenazine-specific anthranilate synthase&lt;br&gt;Location: 23945 - 22071&lt;br&gt;&lt;br&gt;&lt;b&gt;BlastP hit with cds104981_106976&lt;/b&gt;&lt;br&gt;Percentage identity: 66&lt;br&gt;Percentage coverage: 93&lt;br&gt;BLAST bit score: 810&lt;br&gt;E-value: 1.9e-234" locus_tag="D581_RS0125550" class="clusterblast-orf" id="dummy-2_h2_3_10"  />
</g>
<g id="a2_0011"  >
<polygon points="318,90 330,90 335,85 330,80 318,80 318,90 " style="fill:#d86315; stroke-width:1; stroke:black; " description="&lt;b&gt;D581_RS0125545&lt;/b&gt;&lt;br&gt;PhzF family phenazine biosynthesis isomerase&lt;br&gt;Location: 22003 - 21152&lt;br&gt;&lt;br&gt;&lt;b&gt;BlastP hit with cds107064_107901&lt;/b&gt;&lt;br&gt;Percentage identity: 68&lt;br&gt;Percentage coverage: 102&lt;br&gt;BLAST bit score: 393&lt;br&gt;E-value: 3.9e-109" locus_tag="D581_RS0125545" class="clusterblast-orf" id="dummy-2_h2_3_11"  />
</g>
<g id="a2_0012"  >
<polygon points="336,90 344,90 349,85 344,80 336,80 336,90 " style="fill:#15d815; stroke-width:1; stroke:black; " description="&lt;b&gt;D581_RS0125540&lt;/b&gt;&lt;br&gt;pyridoxamine 5'-phosphate oxidase&lt;br&gt;Location: 21068 - 20406&lt;br&gt;&lt;br&gt;&lt;b&gt;BlastP hit with cds108031_108667&lt;/b&gt;&lt;br&gt;Percentage identity: 57&lt;br&gt;Percentage coverage: 100&lt;br&gt;BLAST bit score: 237&lt;br&gt;E-value: 1.6e-62" locus_tag="D581_RS0125540" class="clusterblast-orf" id="dummy-2_h2_3_12"  />
</g>
<g id="a2_0013"  >
<polygon points="351,90 378,90 383,85 378,80 351,80 351,90 " style="fill:white; stroke-width:1; stroke:black; " description="&lt;b&gt;D581_RS01000000137735&lt;/b&gt;&lt;br&gt;amino acid adenylation domain-containing protein&lt;br&gt;Location: 20319 - 18682" locus_tag="D581_RS01000000137735" class="clusterblast-orf" id="dummy-2_h2_3_13"  />
</g>
<g id="a2_0014"  >
<polygon points="384,90 406,90 411,85 406,80 384,80 384,90 " style="fill:white; stroke-width:1; stroke:black; " description="&lt;b&gt;D581_RS0125530&lt;/b&gt;&lt;br&gt;FAD-binding oxidoreductase&lt;br&gt;Location: 18649 - 17273" locus_tag="D581_RS0125530" class="clusterblast-orf" id="dummy-2_h2_3_14"  />
</g>
<g id="a2_0015"  >
<polygon points="412,85 417,80 418,80 418,90 417,90 412,85 " style="fill:white; stroke-width:1; stroke:black; " description="&lt;b&gt;D581_RS01000000137730&lt;/b&gt;&lt;br&gt;hypothetical protein&lt;br&gt;Location: 17200 - 16925" locus_tag="D581_RS01000000137730" class="clusterblast-orf" id="dummy-2_h2_3_15"  />
</g>
<g id="a2_0016"  >
<polygon points="422,90 438,90 443,85 438,80 422,80 422,90 " style="fill:white; stroke-width:1; stroke:black; " description="&lt;b&gt;D581_RS0125520&lt;/b&gt;&lt;br&gt;phenazine antibiotic biosynthesis protein&lt;br&gt;Location: 16739 - 15630" locus_tag="D581_RS0125520" class="clusterblast-orf" id="dummy-2_h2_3_16"  />
</g>
<g id="a2_0017"  >
<polygon points="443,90 467,90 472,85 467,80 443,80 443,90 " style="fill:white; stroke-width:1; stroke:black; " description="&lt;b&gt;D581_RS0125515&lt;/b&gt;&lt;br&gt;aldehyde dehydrogenase family protein&lt;br&gt;Location: 15630 - 14185" locus_tag="D581_RS0125515" class="clusterblast-orf" id="dummy-2_h2_3_17"  />
</g>
<g id="a2_0018"  >
<polygon points="475,90 477,90 482,85 477,80 475,80 475,90 " style="fill:white; stroke-width:1; stroke:black; " description="&lt;b&gt;D581_RS0125510&lt;/b&gt;&lt;br&gt;hypothetical protein&lt;br&gt;Location: 14019 - 13690" locus_tag="D581_RS0125510" class="clusterblast-orf" id="dummy-2_h2_3_18"  />
</g>
<g id="a2_0019"  >
<polygon points="482,90 531,90 536,85 531,80 482,80 482,90 " style="fill:white; stroke-width:1; stroke:black; " description="&lt;b&gt;D581_RS01000000137725&lt;/b&gt;&lt;br&gt;type I polyketide synthase&lt;br&gt;Location: 13697 - 10956" locus_tag="D581_RS01000000137725" class="clusterblast-orf" id="dummy-2_h2_3_19"  />
</g>
<g id="a2_0020"  >
<polygon points="535,90 546,90 551,85 546,80 535,80 535,90 " style="fill:white; stroke-width:1; stroke:black; " description="&lt;b&gt;D581_RS01000000137720&lt;/b&gt;&lt;br&gt;thioesterase&lt;br&gt;Location: 10959 - 10165" locus_tag="D581_RS01000000137720" class="clusterblast-orf" id="dummy-2_h2_3_20"  />
</g>
<g id="a2_0021"  >
<polygon points="552,90 568,90 573,85 568,80 552,80 552,90 " style="fill:white; stroke-width:1; stroke:black; " description="&lt;b&gt;D581_RS0125495&lt;/b&gt;&lt;br&gt;aldo/keto reductase&lt;br&gt;Location: 10098 - 9043" locus_tag="D581_RS0125495" class="clusterblast-orf" id="dummy-2_h2_3_21"  />
</g>
<g id="a2_0022"  >
<polygon points="573,90 617,90 622,85 617,80 573,80 573,90 " style="fill:white; stroke-width:1; stroke:black; " description="&lt;b&gt;D581_RS01000000137715&lt;/b&gt;&lt;br&gt;type I polyketide synthase&lt;br&gt;Location: 9041 - 6585" locus_tag="D581_RS01000000137715" class="clusterblast-orf" id="dummy-2_h2_3_22"  />
</g>
<g id="a2_0023"  >
<polygon points="623,90 643,90 648,85 643,80 623,80 623,90 " style="fill:white; stroke-width:1; stroke:black; " description="&lt;b&gt;D581_RS0125485&lt;/b&gt;&lt;br&gt;crotonyl-CoA carboxylase/reductase&lt;br&gt;Location: 6499 - 5249" locus_tag="D581_RS0125485" class="clusterblast-orf" id="dummy-2_h2_3_23"  />
</g>
<g id="a2_0024"  >
<polygon points="648,90 678,90 683,85 678,80 648,80 648,90 " style="fill:white; stroke-width:1; stroke:black; " description="&lt;b&gt;D581_RS0125480&lt;/b&gt;&lt;br&gt;fatty acyl-AMP ligase&lt;br&gt;Location: 5252 - 3450" locus_tag="D581_RS0125480" class="clusterblast-orf" id="dummy-2_h2_3_24"  />
</g>
<g id="a2_0025"  >
<polygon points="686,90 698,90 703,85 698,80 686,80 686,90 " style="fill:white; stroke-width:1; stroke:black; " description="&lt;b&gt;D581_RS0125475&lt;/b&gt;&lt;br&gt;LysR family transcriptional regulator&lt;br&gt;Location: 3313 - 2432" locus_tag="D581_RS0125475" class="clusterblast-orf" id="dummy-2_h2_3_25"  />
</g>
<g id="a2_0026"  >
<polygon points="705,90 726,90 731,85 726,80 705,80 705,90 " style="fill:white; stroke-width:1; stroke:black; " description="&lt;b&gt;D581_RS01000000137710&lt;/b&gt;&lt;br&gt;cytochrome ubiquinol oxidase subunit I&lt;br&gt;Location: 2373 - 1054" locus_tag="D581_RS01000000137710" class="clusterblast-orf" id="dummy-2_h2_3_26"  />
</g>
<g id="a2_0027"  >
<polygon points="732,90 746,90 751,85 746,80 732,80 732,90 " style="fill:white; stroke-width:1; stroke:black; " description="&lt;b&gt;D581_RS0125465&lt;/b&gt;&lt;br&gt;cytochrome d ubiquinol oxidase subunit II&lt;br&gt;Location: 990 - 1" locus_tag="D581_RS0125465" class="clusterblast-orf" id="dummy-2_h2_3_27"  />
</g>
</svg>
