<svg xmlns="http://www.w3.org/2000/svg" xmlns:xlink="http://www.w3.org/1999/xlink" version="1.1" x="0" y="0" height="230" width="800" viewBox="0 0 800 230" preserveAspectRatio="none"  >
<g label="Query sequence" class="clusterblast-cluster"  >
<text x="5" y="20" class="clusterblast-acc"  >
Query sequence</text>
<line x1="10" y1="35" x2="778.0" y2="35" style="stroke-width:1; stroke:grey; "  />
<polygon points="248,40 252,40 257,35 252,30 248,30 248,40 " style="fill:white; stroke-width:1; stroke:black; " description="&lt;b&gt;cds188_1109&lt;/b&gt;&lt;br&gt;hypothetical protein&lt;br&gt;Location: 188 - 1109" locus_tag="cds188_1109" class="clusterblast-orf" id="dummy-1_q0_0_all"  />
<polygon points="256,35 261,30 262,30 262,40 261,40 256,35 " style="fill:#d81515; stroke-width:1; stroke:black; " description="&lt;b&gt;cds970_1519&lt;/b&gt;&lt;br&gt;FMN reductase (NADH) NtaB&lt;br&gt;Location: 970 - 1519" locus_tag="cds970_1519" class="clusterblast-orf" id="dummy-1_q1_0_all"  />
<polygon points="262,35 267,30 267,30 267,40 267,40 262,35 " style="fill:#4dd815; stroke-width:1; stroke:black; " description="&lt;b&gt;cds1515_1989&lt;/b&gt;&lt;br&gt;hypothetical protein&lt;br&gt;Location: 1515 - 1989" locus_tag="cds1515_1989" class="clusterblast-orf" id="dummy-1_q2_0_all"  />
<polygon points="267,35 272,30 329,30 329,40 272,40 267,35 " style="fill:#1585d8; stroke-width:1; stroke:black; " description="&lt;b&gt;cds1985_7793&lt;/b&gt;&lt;br&gt;hypothetical protein&lt;br&gt;Location: 1985 - 7793" locus_tag="cds1985_7793" class="clusterblast-orf" id="dummy-1_q3_0_all"  />
<polygon points="329,35 334,30 341,30 341,40 334,40 329,35 " style="fill:#a115d8; stroke-width:1; stroke:black; " description="&lt;b&gt;cds7789_8875&lt;/b&gt;&lt;br&gt;hypothetical protein&lt;br&gt;Location: 7789 - 8875" locus_tag="cds7789_8875" class="clusterblast-orf" id="dummy-1_q4_0_all"  />
<polygon points="341,35 346,30 362,30 362,40 346,40 341,35 " style="fill:#d86915; stroke-width:1; stroke:black; " description="&lt;b&gt;cds8876_10805&lt;/b&gt;&lt;br&gt;hypothetical protein&lt;br&gt;Location: 8876 - 10805" locus_tag="cds8876_10805" class="clusterblast-orf" id="dummy-1_q5_0_all"  />
<polygon points="362,35 367,30 372,30 372,40 367,40 362,35 " style="fill:#15d831; stroke-width:1; stroke:black; " description="&lt;b&gt;cds10801_11788&lt;/b&gt;&lt;br&gt;hypothetical protein&lt;br&gt;Location: 10801 - 11788" locus_tag="cds10801_11788" class="clusterblast-orf" id="dummy-1_q6_0_all"  />
<polygon points="373,35 378,30 384,30 384,40 378,40 373,35 " style="fill:#1531d8; stroke-width:1; stroke:black; " description="&lt;b&gt;cds11883_12864&lt;/b&gt;&lt;br&gt;hypothetical protein&lt;br&gt;Location: 11883 - 12864" locus_tag="cds11883_12864" class="clusterblast-orf" id="dummy-1_q7_0_all"  />
<polygon points="385,35 390,30 390,30 390,40 390,40 385,35 " style="fill:#d815bc; stroke-width:1; stroke:black; " description="&lt;b&gt;cds13002_13446&lt;/b&gt;&lt;br&gt;putative HTH-type transcriptional regulator&lt;br&gt;Location: 13002 - 13446" locus_tag="cds13002_13446" class="clusterblast-orf" id="dummy-1_q8_0_all"  />
<polygon points="391,40 392,40 397,35 392,30 391,30 391,40 " style="fill:#d8bc15; stroke-width:1; stroke:black; " description="&lt;b&gt;cds13584_14148&lt;/b&gt;&lt;br&gt;hypothetical protein&lt;br&gt;Location: 13584 - 14148" locus_tag="cds13584_14148" class="clusterblast-orf" id="dummy-1_q9_0_all"  />
<polygon points="398,40 398,40 403,35 398,30 398,30 398,40 " style="fill:#15d885; stroke-width:1; stroke:black; " description="&lt;b&gt;cds14158_14632&lt;/b&gt;&lt;br&gt;hypothetical protein&lt;br&gt;Location: 14158 - 14632" locus_tag="cds14158_14632" class="clusterblast-orf" id="dummy-1_q10_0_all"  />
<polygon points="406,35 411,30 419,30 419,40 411,40 406,35 " style="fill:#4d15d8; stroke-width:1; stroke:black; " description="&lt;b&gt;cds14902_16138&lt;/b&gt;&lt;br&gt;IS701 family transposase ISSav4&lt;br&gt;Location: 14902 - 16138" locus_tag="cds14902_16138" class="clusterblast-orf" id="dummy-1_q11_0_all"  />
<polygon points="422,40 424,40 429,35 424,30 422,30 422,40 " style="fill:white; stroke-width:1; stroke:black; " description="&lt;b&gt;cds16456_17056&lt;/b&gt;&lt;br&gt;A-factor receptor protein&lt;br&gt;Location: 16456 - 17056" locus_tag="cds16456_17056" class="clusterblast-orf" id="dummy-1_q12_0_all"  />
<polygon points="430,35 435,30 438,30 438,40 435,40 430,35 " style="fill:white; stroke-width:1; stroke:black; " description="&lt;b&gt;cds17181_17952&lt;/b&gt;&lt;br&gt;A-factor type gamma-butyrolactone 1'-reductase (1S-forming)&lt;br&gt;Location: 17181 - 17952" locus_tag="cds17181_17952" class="clusterblast-orf" id="dummy-1_q13_0_all"  />
<polygon points="440,35 445,30 447,30 447,40 445,40 440,35 " style="fill:white; stroke-width:1; stroke:black; " description="&lt;b&gt;cds18115_18766&lt;/b&gt;&lt;br&gt;A-factor receptor protein&lt;br&gt;Location: 18115 - 18766" locus_tag="cds18115_18766" class="clusterblast-orf" id="dummy-1_q14_0_all"  />
<polygon points="448,40 453,40 458,35 453,30 448,30 448,40 " style="fill:white; stroke-width:1; stroke:black; " description="&lt;b&gt;cds18885_19803&lt;/b&gt;&lt;br&gt;hypothetical protein&lt;br&gt;Location: 18885 - 19803" locus_tag="cds18885_19803" class="clusterblast-orf" id="dummy-1_q15_0_all"  />
<polygon points="462,40 472,40 477,35 472,30 462,30 462,40 " style="fill:#d81569; stroke-width:1; stroke:black; " description="&lt;b&gt;cds20145_21585&lt;/b&gt;&lt;br&gt;hypothetical protein&lt;br&gt;Location: 20145 - 21585" locus_tag="cds20145_21585" class="clusterblast-orf" id="dummy-1_q16_0_all"  />
<polygon points="480,35 484,30 484,40 480,35 " style="fill:white; stroke-width:1; stroke:black; " description="&lt;b&gt;cds21807_22245&lt;/b&gt;&lt;br&gt;hypothetical protein&lt;br&gt;Location: 21807 - 22245" locus_tag="cds21807_22245" class="clusterblast-orf" id="dummy-1_q17_0_all"  />
<polygon points="485,35 490,30 495,30 495,40 490,40 485,35 " style="fill:#a1d815; stroke-width:1; stroke:black; " description="&lt;b&gt;cds22347_23226&lt;/b&gt;&lt;br&gt;hypothetical protein&lt;br&gt;Location: 22347 - 23226" locus_tag="cds22347_23226" class="clusterblast-orf" id="dummy-1_q18_0_all"  />
<polygon points="499,35 503,30 503,40 499,35 " style="fill:#15d8d8; stroke-width:1; stroke:black; " description="&lt;b&gt;cds23601_24003&lt;/b&gt;&lt;br&gt;hypothetical protein&lt;br&gt;Location: 23601 - 24003" locus_tag="cds23601_24003" class="clusterblast-orf" id="dummy-1_q19_0_all"  />
<polygon points="503,35 508,30 520,30 520,40 508,40 503,35 " style="fill:#d81569; stroke-width:1; stroke:black; " description="&lt;b&gt;cds23999_25532&lt;/b&gt;&lt;br&gt;hypothetical protein&lt;br&gt;Location: 23999 - 25532" locus_tag="cds23999_25532" class="clusterblast-orf" id="dummy-1_q20_0_all"  />
<polygon points="520,35 525,30 532,30 532,40 525,40 520,35 " style="fill:white; stroke-width:1; stroke:black; " description="&lt;b&gt;cds25521_26649&lt;/b&gt;&lt;br&gt;hypothetical protein&lt;br&gt;Location: 25521 - 26649" locus_tag="cds25521_26649" class="clusterblast-orf" id="dummy-1_q21_0_all"  />
</g>
<g label="BGC0001397" description="BGC0001397_c1: lidamycin (18% of genes show similarity), NRP + Polyketide" class="clusterblast-cluster"  >
<text x="5" y="70" class="clusterblast-acc"  >
<a xlink:href="https://mibig.secondarymetabolites.org/go/BGC0001397/1" target="_blank">BGC0001397</a>:                                                                        lidamycin (18% of genes show similarity), NRP + Polyketide</text>
<line x1="10" y1="85" x2="778.0" y2="85" style="stroke-width:1; stroke:grey; "  />
</g>
<g id="a1_000"  >
<polygon points="0,90 9,90 14,85 9,80 0,80 0,90 " style="fill:white; stroke-width:1; stroke:black; " description="&lt;b&gt;WQO_33745&lt;/b&gt;&lt;br&gt;hypothetical protein&lt;br&gt;Location: 1 - 1320" locus_tag="WQO_33745" class="clusterblast-orf" id="dummy-1_h1_3_0"  />
</g>
<g id="a1_001"  >
<polygon points="15,85 20,80 40,80 40,90 20,90 15,85 " style="fill:white; stroke-width:1; stroke:black; " description="&lt;b&gt;WQO_33750&lt;/b&gt;&lt;br&gt;daunorubicin resistance protein DrrC&lt;br&gt;Location: 1426 - 3753" locus_tag="WQO_33750" class="clusterblast-orf" id="dummy-1_h1_3_1"  />
</g>
<g id="a1_002"  >
<polygon points="41,85 46,80 55,80 55,90 46,90 41,85 " style="fill:white; stroke-width:1; stroke:black; " description="&lt;b&gt;WQO_33755&lt;/b&gt;&lt;br&gt;sodium:proton exchanger&lt;br&gt;Location: 3834 - 5216" locus_tag="WQO_33755" class="clusterblast-orf" id="dummy-1_h1_3_2"  />
</g>
<g id="a1_003"  >
<polygon points="55,85 60,80 71,80 71,90 60,90 55,85 " style="fill:white; stroke-width:1; stroke:black; " description="&lt;b&gt;WQO_33760&lt;/b&gt;&lt;br&gt;tryptophan halogenase&lt;br&gt;Location: 5203 - 6681" locus_tag="WQO_33760" class="clusterblast-orf" id="dummy-1_h1_3_3"  />
</g>
<g id="a1_004"  >
<polygon points="73,90 80,90 85,85 80,80 73,80 73,90 " style="fill:white; stroke-width:1; stroke:black; " description="&lt;b&gt;WQO_33765&lt;/b&gt;&lt;br&gt;glucose-1-phosphate thymidylyltransferase&lt;br&gt;Location: 6864 - 7931" locus_tag="WQO_33765" class="clusterblast-orf" id="dummy-1_h1_3_4"  />
</g>
<g id="a1_005"  >
<polygon points="86,85 90,80 90,90 86,85 " style="fill:white; stroke-width:1; stroke:black; " description="&lt;b&gt;WQO_33770&lt;/b&gt;&lt;br&gt;hypothetical protein&lt;br&gt;Location: 8064 - 8450" locus_tag="WQO_33770" class="clusterblast-orf" id="dummy-1_h1_3_5"  />
</g>
<g id="a1_006"  >
<polygon points="91,85 96,80 104,80 104,90 96,90 91,85 " style="fill:white; stroke-width:1; stroke:black; " description="&lt;b&gt;WQO_33775&lt;/b&gt;&lt;br&gt;dTDP-4-dehydro-6-deoxyglucose aminotransferase&lt;br&gt;Location: 8542 - 9774" locus_tag="WQO_33775" class="clusterblast-orf" id="dummy-1_h1_3_6"  />
</g>
<g id="a1_007"  >
<polygon points="104,85 109,80 112,80 112,90 109,90 104,85 " style="fill:white; stroke-width:1; stroke:black; " description="&lt;b&gt;WQO_33780&lt;/b&gt;&lt;br&gt;SAM-dependent methyltransferase&lt;br&gt;Location: 9771 - 10505" locus_tag="WQO_33780" class="clusterblast-orf" id="dummy-1_h1_3_7"  />
</g>
<g id="a1_008"  >
<polygon points="112,85 117,80 126,80 126,90 117,90 112,85 " style="fill:white; stroke-width:1; stroke:black; " description="&lt;b&gt;WQO_33785&lt;/b&gt;&lt;br&gt;SAM-dependent methyltransferase&lt;br&gt;Location: 10505 - 11776" locus_tag="WQO_33785" class="clusterblast-orf" id="dummy-1_h1_3_8"  />
</g>
<g id="a1_009"  >
<polygon points="127,85 132,80 139,80 139,90 132,90 127,85 " style="fill:white; stroke-width:1; stroke:black; " description="&lt;b&gt;WQO_33790&lt;/b&gt;&lt;br&gt;epoxide hydrolase&lt;br&gt;Location: 11883 - 13040" locus_tag="WQO_33790" class="clusterblast-orf" id="dummy-1_h1_3_9"  />
</g>
<g id="a1_0010"  >
<polygon points="140,85 145,80 146,80 146,90 145,90 140,85 " style="fill:white; stroke-width:1; stroke:black; " description="&lt;b&gt;WQO_33795&lt;/b&gt;&lt;br&gt;anthranilate synthase subunit II&lt;br&gt;Location: 13114 - 13671" locus_tag="WQO_33795" class="clusterblast-orf" id="dummy-1_h1_3_10"  />
</g>
<g id="a1_0011"  >
<polygon points="147,85 152,80 163,80 163,90 152,90 147,85 " style="fill:white; stroke-width:1; stroke:black; " description="&lt;b&gt;WQO_33800&lt;/b&gt;&lt;br&gt;aminodeoxychorismate synthase component I&lt;br&gt;Location: 13773 - 15254" locus_tag="WQO_33800" class="clusterblast-orf" id="dummy-1_h1_3_11"  />
</g>
<g id="a1_0012"  >
<polygon points="163,85 168,80 179,80 179,90 168,90 163,85 " style="fill:white; stroke-width:1; stroke:black; " description="&lt;b&gt;WQO_33805&lt;/b&gt;&lt;br&gt;CoF synthetase&lt;br&gt;Location: 15271 - 16683" locus_tag="WQO_33805" class="clusterblast-orf" id="dummy-1_h1_3_12"  />
</g>
<g id="a1_0013"  >
<polygon points="179,85 184,80 186,80 186,90 184,90 179,85 " style="fill:white; stroke-width:1; stroke:black; " description="&lt;b&gt;WQO_33810&lt;/b&gt;&lt;br&gt;NADPH-dependent FMN reductase&lt;br&gt;Location: 16722 - 17393" locus_tag="WQO_33810" class="clusterblast-orf" id="dummy-1_h1_3_13"  />
</g>
<g id="a1_0014"  >
<polygon points="186,85 191,80 200,80 200,90 191,90 186,85 " style="fill:white; stroke-width:1; stroke:black; " description="&lt;b&gt;WQO_33815&lt;/b&gt;&lt;br&gt;hypothetical protein&lt;br&gt;Location: 17413 - 18648" locus_tag="WQO_33815" class="clusterblast-orf" id="dummy-1_h1_3_14"  />
</g>
<g id="a1_0015"  >
<polygon points="202,85 207,80 208,80 208,90 207,90 202,85 " style="fill:white; stroke-width:1; stroke:black; " description="&lt;b&gt;WQO_33820&lt;/b&gt;&lt;br&gt;dTDP-4-dehydrorhamnose 3,5-epimerase&lt;br&gt;Location: 18834 - 19412" locus_tag="WQO_33820" class="clusterblast-orf" id="dummy-1_h1_3_15"  />
</g>
<g id="a1_0016"  >
<polygon points="211,90 220,90 225,85 220,80 211,80 211,90 " style="fill:white; stroke-width:1; stroke:black; " description="&lt;b&gt;WQO_33825&lt;/b&gt;&lt;br&gt;FAD-binding monooxygenase&lt;br&gt;Location: 19663 - 21018" locus_tag="WQO_33825" class="clusterblast-orf" id="dummy-1_h1_3_16"  />
</g>
<g id="a1_0017"  >
<polygon points="226,90 235,90 240,85 235,80 226,80 226,90 " style="fill:white; stroke-width:1; stroke:black; " description="&lt;b&gt;WQO_33830&lt;/b&gt;&lt;br&gt;hypothetical protein&lt;br&gt;Location: 21062 - 22441" locus_tag="WQO_33830" class="clusterblast-orf" id="dummy-1_h1_3_17"  />
</g>
<g id="a1_0018"  >
<polygon points="240,90 246,90 251,85 246,80 240,80 240,90 " style="fill:white; stroke-width:1; stroke:black; " description="&lt;b&gt;WQO_33835&lt;/b&gt;&lt;br&gt;dTDP-glucose 4,6-dehydratase&lt;br&gt;Location: 22438 - 23436" locus_tag="WQO_33835" class="clusterblast-orf" id="dummy-1_h1_3_18"  />
</g>
<g id="a1_0019"  >
<polygon points="252,90 263,90 268,85 263,80 252,80 252,90 " style="fill:white; stroke-width:1; stroke:black; " description="&lt;b&gt;WQO_33840&lt;/b&gt;&lt;br&gt;MFS transporter&lt;br&gt;Location: 23480 - 25045" locus_tag="WQO_33840" class="clusterblast-orf" id="dummy-1_h1_3_19"  />
</g>
<g id="a1_0020"  >
<polygon points="269,90 278,90 283,85 278,80 269,80 269,90 " style="fill:white; stroke-width:1; stroke:black; " description="&lt;b&gt;WQO_33845&lt;/b&gt;&lt;br&gt;phenylacetate--CoA ligase&lt;br&gt;Location: 25128 - 26438" locus_tag="WQO_33845" class="clusterblast-orf" id="dummy-1_h1_3_20"  />
</g>
<g id="a1_0021"  >
<polygon points="283,90 285,85 283,80 283,90 " style="fill:white; stroke-width:1; stroke:black; " description="&lt;b&gt;WQO_33850&lt;/b&gt;&lt;br&gt;hypothetical protein&lt;br&gt;Location: 26407 - 26616" locus_tag="WQO_33850" class="clusterblast-orf" id="dummy-1_h1_3_21"  />
</g>
<g id="a1_0022"  >
<polygon points="286,90 298,90 303,85 298,80 286,80 286,90 " style="fill:white; stroke-width:1; stroke:black; " description="&lt;b&gt;WQO_33855&lt;/b&gt;&lt;br&gt;Pyoverdin chromophore biosynthetic protein pvcC&lt;br&gt;Location: 26717 - 28240" locus_tag="WQO_33855" class="clusterblast-orf" id="dummy-1_h1_3_22"  />
</g>
<g id="a1_0023"  >
<polygon points="303,85 308,80 312,80 312,90 308,90 303,85 " style="fill:white; stroke-width:1; stroke:black; " description="&lt;b&gt;WQO_33860&lt;/b&gt;&lt;br&gt;hydrolase&lt;br&gt;Location: 28314 - 29150" locus_tag="WQO_33860" class="clusterblast-orf" id="dummy-1_h1_3_23"  />
</g>
<g id="a1_0024"  >
<polygon points="315,85 319,80 319,90 315,85 " style="fill:white; stroke-width:1; stroke:black; " description="&lt;b&gt;WQO_33865&lt;/b&gt;&lt;br&gt;DUF4440 domain-containing protein&lt;br&gt;Location: 29372 - 29794" locus_tag="WQO_33865" class="clusterblast-orf" id="dummy-1_h1_3_24"  />
</g>
<g id="a1_0025"  >
<polygon points="322,90 331,90 336,85 331,80 322,80 322,90 " style="fill:white; stroke-width:1; stroke:black; " description="&lt;b&gt;WQO_33870&lt;/b&gt;&lt;br&gt;cinnamoyl-CoA reductase&lt;br&gt;Location: 30075 - 31346" locus_tag="WQO_33870" class="clusterblast-orf" id="dummy-1_h1_3_25"  />
</g>
<g id="a1_0026"  >
<polygon points="337,90 346,90 351,85 346,80 337,80 337,90 " style="fill:white; stroke-width:1; stroke:black; " description="&lt;b&gt;WQO_33875&lt;/b&gt;&lt;br&gt;hypothetical protein&lt;br&gt;Location: 31415 - 32794" locus_tag="WQO_33875" class="clusterblast-orf" id="dummy-1_h1_3_26"  />
</g>
<g id="a1_0027"  >
<polygon points="352,90 355,85 352,80 352,90 " style="fill:white; stroke-width:1; stroke:black; " description="&lt;b&gt;WQO_33880&lt;/b&gt;&lt;br&gt;phosphopantetheine-binding protein&lt;br&gt;Location: 32839 - 33120" locus_tag="WQO_33880" class="clusterblast-orf" id="dummy-1_h1_3_27"  />
</g>
<g id="a1_0028"  >
<polygon points="356,85 361,80 373,80 373,90 361,90 356,85 " style="fill:white; stroke-width:1; stroke:black; " description="&lt;b&gt;WQO_33885&lt;/b&gt;&lt;br&gt;tyrosine 2,3-aminomutase&lt;br&gt;Location: 33223 - 34836" locus_tag="WQO_33885" class="clusterblast-orf" id="dummy-1_h1_3_28"  />
</g>
<g id="a1_0029"  >
<polygon points="374,85 379,80 402,80 402,90 379,90 374,85 " style="fill:white; stroke-width:1; stroke:black; " description="&lt;b&gt;WQO_33890&lt;/b&gt;&lt;br&gt;hypothetical protein&lt;br&gt;Location: 34908 - 37523" locus_tag="WQO_33890" class="clusterblast-orf" id="dummy-1_h1_3_29"  />
</g>
<g id="a1_0030"  >
<polygon points="405,90 422,90 427,85 422,80 405,80 405,90 " style="fill:white; stroke-width:1; stroke:black; " description="&lt;b&gt;WQO_33895&lt;/b&gt;&lt;br&gt;hypothetical protein&lt;br&gt;Location: 37759 - 39867" locus_tag="WQO_33895" class="clusterblast-orf" id="dummy-1_h1_3_30"  />
</g>
<g id="a1_0031"  >
<polygon points="429,90 435,90 440,85 435,80 429,80 429,90 " style="fill:white; stroke-width:1; stroke:black; " description="&lt;b&gt;WQO_33900&lt;/b&gt;&lt;br&gt;methyltransferase&lt;br&gt;Location: 40021 - 41022" locus_tag="WQO_33900" class="clusterblast-orf" id="dummy-1_h1_3_31"  />
</g>
<g id="a1_0032"  >
<polygon points="441,90 449,90 454,85 449,80 441,80 441,90 " style="fill:white; stroke-width:1; stroke:black; " description="&lt;b&gt;WQO_33905&lt;/b&gt;&lt;br&gt;cytochrome&lt;br&gt;Location: 41094 - 42335" locus_tag="WQO_33905" class="clusterblast-orf" id="dummy-1_h1_3_32"  />
</g>
<g id="a1_0033"  >
<polygon points="454,85 459,80 467,80 467,90 459,90 454,85 " style="fill:white; stroke-width:1; stroke:black; " description="&lt;b&gt;WQO_33910&lt;/b&gt;&lt;br&gt;acyl-CoA dehydrogenase&lt;br&gt;Location: 42388 - 43569" locus_tag="WQO_33910" class="clusterblast-orf" id="dummy-1_h1_3_33"  />
</g>
<g id="a1_0034"  >
<polygon points="470,90 474,85 470,80 470,90 " style="fill:white; stroke-width:1; stroke:black; " description="&lt;b&gt;WQO_33915&lt;/b&gt;&lt;br&gt;hypothetical protein&lt;br&gt;Location: 43873 - 44208" locus_tag="WQO_33915" class="clusterblast-orf" id="dummy-1_h1_3_34"  />
</g>
<g id="a1_0035"  >
<polygon points="474,90 480,90 485,85 480,80 474,80 474,90 " style="fill:white; stroke-width:1; stroke:black; " description="&lt;b&gt;WQO_33920&lt;/b&gt;&lt;br&gt;alkylhydroperoxidase&lt;br&gt;Location: 44205 - 45245" locus_tag="WQO_33920" class="clusterblast-orf" id="dummy-1_h1_3_35"  />
</g>
<g id="a1_0036"  >
<polygon points="485,85 490,80 495,80 495,90 490,90 485,85 " style="fill:white; stroke-width:1; stroke:black; " description="&lt;b&gt;WQO_33925&lt;/b&gt;&lt;br&gt;short-chain dehydrogenase&lt;br&gt;Location: 45276 - 46196" locus_tag="WQO_33925" class="clusterblast-orf" id="dummy-1_h1_3_36"  />
</g>
<g id="a1_0037"  >
<polygon points="496,85 501,80 502,80 502,90 501,90 496,85 " style="fill:white; stroke-width:1; stroke:black; " description="&lt;b&gt;WQO_33930&lt;/b&gt;&lt;br&gt;alkylhydroperoxidase&lt;br&gt;Location: 46221 - 46772" locus_tag="WQO_33930" class="clusterblast-orf" id="dummy-1_h1_3_37"  />
</g>
<g id="a1_0038"  >
<polygon points="505,85 510,80 512,80 512,90 510,90 505,85 " style="fill:white; stroke-width:1; stroke:black; " description="&lt;b&gt;WQO_33935&lt;/b&gt;&lt;br&gt;hypothetical protein&lt;br&gt;Location: 47101 - 47739" locus_tag="WQO_33935" class="clusterblast-orf" id="dummy-1_h1_3_38"  />
</g>
<g id="a1_0039"  >
<polygon points="515,90 523,90 528,85 523,80 515,80 515,90 " style="fill:white; stroke-width:1; stroke:black; " description="&lt;b&gt;WQO_33940&lt;/b&gt;&lt;br&gt;DNA-binding protein&lt;br&gt;Location: 47999 - 49234" locus_tag="WQO_33940" class="clusterblast-orf" id="dummy-1_h1_3_39"  />
</g>
<g id="a1_0040"  >
<polygon points="534,90 539,90 544,85 539,80 534,80 534,90 " style="fill:white; stroke-width:1; stroke:black; " description="&lt;b&gt;WQO_33945&lt;/b&gt;&lt;br&gt;hypothetical protein&lt;br&gt;Location: 49761 - 50735" locus_tag="WQO_33945" class="clusterblast-orf" id="dummy-1_h1_3_40"  />
</g>
<g id="a1_0041"  >
<polygon points="545,85 550,80 553,80 553,90 550,90 545,85 " style="fill:white; stroke-width:1; stroke:black; " description="&lt;b&gt;WQO_33950&lt;/b&gt;&lt;br&gt;wyosine base formation domain-containing protein&lt;br&gt;Location: 50782 - 51585" locus_tag="WQO_33950" class="clusterblast-orf" id="dummy-1_h1_3_41"  />
</g>
<g id="a1_0042"  >
<polygon points="554,85 559,80 559,80 559,90 559,90 554,85 " style="fill:#4dd815; stroke-width:1; stroke:black; " description="&lt;b&gt;WQO_33955&lt;/b&gt;&lt;br&gt;4-hydroxybenzoyl-CoA thioesterase&lt;br&gt;Location: 51688 - 52158&lt;br&gt;&lt;br&gt;&lt;b&gt;BlastP hit with cds1515_1989&lt;/b&gt;&lt;br&gt;Percentage identity: 47&lt;br&gt;Percentage coverage: 99&lt;br&gt;BLAST bit score: 135&lt;br&gt;E-value: 8.3e-32" locus_tag="WQO_33955" class="clusterblast-orf" id="dummy-1_h1_3_42"  />
</g>
<g id="a1_0043"  >
<polygon points="561,85 566,80 579,80 579,90 566,90 561,85 " style="fill:white; stroke-width:1; stroke:black; " description="&lt;b&gt;WQO_33960&lt;/b&gt;&lt;br&gt;glucose-methanol-choline oxidoreductase&lt;br&gt;Location: 52295 - 53950" locus_tag="WQO_33960" class="clusterblast-orf" id="dummy-1_h1_3_43"  />
</g>
<g id="a1_0044"  >
<polygon points="579,85 584,80 585,80 585,90 584,90 579,85 " style="fill:white; stroke-width:1; stroke:black; " description="&lt;b&gt;WQO_33965&lt;/b&gt;&lt;br&gt;regulator&lt;br&gt;Location: 53947 - 54537" locus_tag="WQO_33965" class="clusterblast-orf" id="dummy-1_h1_3_44"  />
</g>
<g id="a1_0045"  >
<polygon points="588,90 594,90 599,85 594,80 588,80 588,90 " style="fill:white; stroke-width:1; stroke:black; " description="&lt;b&gt;WQO_33970&lt;/b&gt;&lt;br&gt;transcriptional regulator&lt;br&gt;Location: 54822 - 55874" locus_tag="WQO_33970" class="clusterblast-orf" id="dummy-1_h1_3_45"  />
</g>
<g id="a1_0046"  >
<polygon points="599,90 604,90 609,85 604,80 599,80 599,90 " style="fill:white; stroke-width:1; stroke:black; " description="&lt;b&gt;WQO_33975&lt;/b&gt;&lt;br&gt;hypothetical protein&lt;br&gt;Location: 55900 - 56754" locus_tag="WQO_33975" class="clusterblast-orf" id="dummy-1_h1_3_46"  />
</g>
<g id="a1_0047"  >
<polygon points="607,85 612,80 622,80 622,90 612,90 607,85 " style="fill:white; stroke-width:1; stroke:black; " description="&lt;b&gt;WQO_33980&lt;/b&gt;&lt;br&gt;cytochrome P450&lt;br&gt;Location: 56642 - 57991" locus_tag="WQO_33980" class="clusterblast-orf" id="dummy-1_h1_3_47"  />
</g>
<g id="a1_0048"  >
<polygon points="622,85 627,80 628,80 628,90 627,90 622,85 " style="fill:#d81515; stroke-width:1; stroke:black; " description="&lt;b&gt;WQO_33985&lt;/b&gt;&lt;br&gt;flavin reductase&lt;br&gt;Location: 57988 - 58536&lt;br&gt;&lt;br&gt;&lt;b&gt;BlastP hit with cds970_1519&lt;/b&gt;&lt;br&gt;Percentage identity: 70&lt;br&gt;Percentage coverage: 100&lt;br&gt;BLAST bit score: 253&lt;br&gt;E-value: 1.9e-67" locus_tag="WQO_33985" class="clusterblast-orf" id="dummy-1_h1_3_48"  />
</g>
<g id="a1_0049"  >
<polygon points="629,85 634,80 692,80 692,90 634,90 629,85 " style="fill:#1585d8; stroke-width:1; stroke:black; " description="&lt;b&gt;WQO_33990&lt;/b&gt;&lt;br&gt;erythronolide synthase&lt;br&gt;Location: 58662 - 64481&lt;br&gt;&lt;br&gt;&lt;b&gt;BlastP hit with cds1985_7793&lt;/b&gt;&lt;br&gt;Percentage identity: 81&lt;br&gt;Percentage coverage: 100&lt;br&gt;BLAST bit score: 3045&lt;br&gt;E-value: 0.0" locus_tag="WQO_33990" class="clusterblast-orf" id="dummy-1_h1_3_49"  />
</g>
<g id="a1_0050"  >
<polygon points="692,85 697,80 704,80 704,90 697,90 692,85 " style="fill:#a115d8; stroke-width:1; stroke:black; " description="&lt;b&gt;WQO_33995&lt;/b&gt;&lt;br&gt;enediyne biosynthesis protein&lt;br&gt;Location: 64478 - 65608&lt;br&gt;&lt;br&gt;&lt;b&gt;BlastP hit with cds7789_8875&lt;/b&gt;&lt;br&gt;Percentage identity: 81&lt;br&gt;Percentage coverage: 104&lt;br&gt;BLAST bit score: 589&lt;br&gt;E-value: 4.8e-168" locus_tag="WQO_33995" class="clusterblast-orf" id="dummy-1_h1_3_50"  />
</g>
<g id="a1_0051"  >
<polygon points="704,85 709,80 724,80 724,90 709,90 704,85 " style="fill:#d86915; stroke-width:1; stroke:black; " description="&lt;b&gt;WQO_34000&lt;/b&gt;&lt;br&gt;RNA-binding protein&lt;br&gt;Location: 65605 - 67473&lt;br&gt;&lt;br&gt;&lt;b&gt;BlastP hit with cds8876_10805&lt;/b&gt;&lt;br&gt;Percentage identity: 85&lt;br&gt;Percentage coverage: 97&lt;br&gt;BLAST bit score: 1119&lt;br&gt;E-value: 0.0" locus_tag="WQO_34000" class="clusterblast-orf" id="dummy-1_h1_3_51"  />
</g>
<g id="a1_0052"  >
<polygon points="724,85 729,80 734,80 734,90 729,90 724,85 " style="fill:#15d831; stroke-width:1; stroke:black; " description="&lt;b&gt;WQO_34005&lt;/b&gt;&lt;br&gt;enediyne biosynthesis protein&lt;br&gt;Location: 67530 - 68435&lt;br&gt;&lt;br&gt;&lt;b&gt;BlastP hit with cds10801_11788&lt;/b&gt;&lt;br&gt;Percentage identity: 81&lt;br&gt;Percentage coverage: 92&lt;br&gt;BLAST bit score: 522&lt;br&gt;E-value: 3.9e-148" locus_tag="WQO_34005" class="clusterblast-orf" id="dummy-1_h1_3_52"  />
</g>
<g id="a1_0053"  >
<polygon points="736,85 741,80 747,80 747,90 741,90 736,85 " style="fill:#1531d8; stroke-width:1; stroke:black; " description="&lt;b&gt;WQO_34010&lt;/b&gt;&lt;br&gt;enediyne biosynthesis protein&lt;br&gt;Location: 68612 - 69640&lt;br&gt;&lt;br&gt;&lt;b&gt;BlastP hit with cds11883_12864&lt;/b&gt;&lt;br&gt;Percentage identity: 79&lt;br&gt;Percentage coverage: 98&lt;br&gt;BLAST bit score: 516&lt;br&gt;E-value: 3.6e-146" locus_tag="WQO_34010" class="clusterblast-orf" id="dummy-1_h1_3_53"  />
</g>
<g id="a1_0054"  >
<polygon points="748,85 753,80 753,80 753,90 753,90 748,85 " style="fill:#d815bc; stroke-width:1; stroke:black; " description="&lt;b&gt;WQO_34015&lt;/b&gt;&lt;br&gt;HxlR family transcriptional regulator&lt;br&gt;Location: 69777 - 70220&lt;br&gt;&lt;br&gt;&lt;b&gt;BlastP hit with cds13002_13446&lt;/b&gt;&lt;br&gt;Percentage identity: 78&lt;br&gt;Percentage coverage: 100&lt;br&gt;BLAST bit score: 250&lt;br&gt;E-value: 1.3e-66" locus_tag="WQO_34015" class="clusterblast-orf" id="dummy-1_h1_3_54"  />
</g>
<g id="a1_0055"  >
<polygon points="755,90 756,90 761,85 756,80 755,80 755,90 " style="fill:#d8bc15; stroke-width:1; stroke:black; " description="&lt;b&gt;WQO_34020&lt;/b&gt;&lt;br&gt;hypothetical protein&lt;br&gt;Location: 70367 - 70930&lt;br&gt;&lt;br&gt;&lt;b&gt;BlastP hit with cds13584_14148&lt;/b&gt;&lt;br&gt;Percentage identity: 80&lt;br&gt;Percentage coverage: 99&lt;br&gt;BLAST bit score: 314&lt;br&gt;E-value: 1.5e-85" locus_tag="WQO_34020" class="clusterblast-orf" id="dummy-1_h1_3_55"  />
</g>
<g id="a1_0056"  >
<polygon points="761,90 761,90 766,85 761,80 761,80 761,90 " style="fill:#15d885; stroke-width:1; stroke:black; " description="&lt;b&gt;WQO_34025&lt;/b&gt;&lt;br&gt;hypothetical protein&lt;br&gt;Location: 70935 - 71396&lt;br&gt;&lt;br&gt;&lt;b&gt;BlastP hit with cds14158_14632&lt;/b&gt;&lt;br&gt;Percentage identity: 63&lt;br&gt;Percentage coverage: 92&lt;br&gt;BLAST bit score: 185&lt;br&gt;E-value: 9.1e-47" locus_tag="WQO_34025" class="clusterblast-orf" id="dummy-1_h1_3_56"  />
</g>
<g id="a1_0057"  >
<polygon points="767,85 772,80 780,80 780,90 772,90 767,85 " style="fill:#4d15d8; stroke-width:1; stroke:black; " description="&lt;b&gt;WQO_34030&lt;/b&gt;&lt;br&gt;hypothetical protein&lt;br&gt;Location: 71486 - 72673&lt;br&gt;&lt;br&gt;&lt;b&gt;BlastP hit with cds14902_16138&lt;/b&gt;&lt;br&gt;Percentage identity: 73&lt;br&gt;Percentage coverage: 94&lt;br&gt;BLAST bit score: 570&lt;br&gt;E-value: 2e-162" locus_tag="WQO_34030" class="clusterblast-orf" id="dummy-1_h1_3_57"  />
</g>
</svg>
