<svg xmlns="http://www.w3.org/2000/svg" xmlns:xlink="http://www.w3.org/1999/xlink" version="1.1" x="0" y="0" height="230" width="800" viewBox="0 0 800 230" preserveAspectRatio="none"  >
<g label="Query sequence" class="clusterblast-cluster"  >
<text x="5" y="20" class="clusterblast-acc"  >
Query sequence</text>
<line x1="10" y1="35" x2="778.0" y2="35" style="stroke-width:1; stroke:grey; "  />
<polygon points="0,35 5,30 11,30 11,40 5,40 0,35 " style="fill:white; stroke-width:1; stroke:black; " description="&lt;b&gt;cds133096_134494&lt;/b&gt;&lt;br&gt;D-hydantoinase&lt;br&gt;Location: 133096 - 134494" locus_tag="cds133096_134494" class="clusterblast-orf" id="dummy-1_q0_0_all"  />
<polygon points="12,35 17,30 23,30 23,40 17,40 12,35 " style="fill:white; stroke-width:1; stroke:black; " description="&lt;b&gt;cds134575_135859&lt;/b&gt;&lt;br&gt;Acetylornithine aminotransferase&lt;br&gt;Location: 134575 - 135859" locus_tag="cds134575_135859" class="clusterblast-orf" id="dummy-1_q1_0_all"  />
<polygon points="23,35 28,30 30,30 30,40 28,40 23,35 " style="fill:white; stroke-width:1; stroke:black; " description="&lt;b&gt;cds135855_136698&lt;/b&gt;&lt;br&gt;N-carbamoyl-D-amino acid hydrolase&lt;br&gt;Location: 135855 - 136698" locus_tag="cds135855_136698" class="clusterblast-orf" id="dummy-1_q2_0_all"  />
<polygon points="31,35 36,30 40,30 40,40 36,40 31,35 " style="fill:white; stroke-width:1; stroke:black; " description="&lt;b&gt;cds136835_137864&lt;/b&gt;&lt;br&gt;D-alanyl-D-alanine-carboxypeptidase/endopeptidase AmpH&lt;br&gt;Location: 136835 - 137864" locus_tag="cds136835_137864" class="clusterblast-orf" id="dummy-1_q3_0_all"  />
<polygon points="40,35 45,30 47,30 47,40 45,40 40,35 " style="fill:white; stroke-width:1; stroke:black; " description="&lt;b&gt;cds137868_138789&lt;/b&gt;&lt;br&gt;hypothetical protein&lt;br&gt;Location: 137868 - 138789" locus_tag="cds137868_138789" class="clusterblast-orf" id="dummy-1_q4_0_all"  />
<polygon points="47,35 52,30 54,30 54,40 52,40 47,35 " style="fill:white; stroke-width:1; stroke:black; " description="&lt;b&gt;cds138785_139517&lt;/b&gt;&lt;br&gt;hypothetical protein&lt;br&gt;Location: 138785 - 139517" locus_tag="cds138785_139517" class="clusterblast-orf" id="dummy-1_q5_0_all"  />
<polygon points="54,35 55,30 55,40 54,35 " style="fill:white; stroke-width:1; stroke:black; " description="&lt;b&gt;cds139513_139696&lt;/b&gt;&lt;br&gt;hypothetical protein&lt;br&gt;Location: 139513 - 139696" locus_tag="cds139513_139696" class="clusterblast-orf" id="dummy-1_q6_0_all"  />
<polygon points="56,35 61,30 68,30 68,40 61,40 56,35 " style="fill:white; stroke-width:1; stroke:black; " description="&lt;b&gt;cds139834_141184&lt;/b&gt;&lt;br&gt;hypothetical protein&lt;br&gt;Location: 139834 - 141184" locus_tag="cds139834_141184" class="clusterblast-orf" id="dummy-1_q7_0_all"  />
<polygon points="69,35 72,30 72,40 69,35 " style="fill:white; stroke-width:1; stroke:black; " description="&lt;b&gt;cds141320_141701&lt;/b&gt;&lt;br&gt;hypothetical protein&lt;br&gt;Location: 141320 - 141701" locus_tag="cds141320_141701" class="clusterblast-orf" id="dummy-1_q8_0_all"  />
<polygon points="72,35 75,30 75,40 72,35 " style="fill:white; stroke-width:1; stroke:black; " description="&lt;b&gt;cds141720_142014&lt;/b&gt;&lt;br&gt;hypothetical protein&lt;br&gt;Location: 141720 - 142014" locus_tag="cds141720_142014" class="clusterblast-orf" id="dummy-1_q9_0_all"  />
<polygon points="75,35 80,30 81,30 81,40 80,40 75,35 " style="fill:white; stroke-width:1; stroke:black; " description="&lt;b&gt;cds142120_142783&lt;/b&gt;&lt;br&gt;hypothetical protein&lt;br&gt;Location: 142120 - 142783" locus_tag="cds142120_142783" class="clusterblast-orf" id="dummy-1_q10_0_all"  />
<polygon points="83,35 88,30 98,30 98,40 88,40 83,35 " style="fill:white; stroke-width:1; stroke:black; " description="&lt;b&gt;cds142956_144762&lt;/b&gt;&lt;br&gt;Glutathione hydrolase proenzyme&lt;br&gt;Location: 142956 - 144762" locus_tag="cds142956_144762" class="clusterblast-orf" id="dummy-1_q11_0_all"  />
<polygon points="98,35 103,30 105,30 105,40 103,40 98,35 " style="fill:#d81515; stroke-width:1; stroke:black; " description="&lt;b&gt;cds144853_145621&lt;/b&gt;&lt;br&gt;Thioesterase PikA5&lt;br&gt;Location: 144853 - 145621" locus_tag="cds144853_145621" class="clusterblast-orf" id="dummy-1_q12_0_all"  />
<polygon points="106,35 111,30 111,30 111,40 111,40 106,35 " style="fill:#56d815; stroke-width:1; stroke:black; " description="&lt;b&gt;cds145747_146392&lt;/b&gt;&lt;br&gt;Transcriptional regulatory protein LnrK&lt;br&gt;Location: 145747 - 146392" locus_tag="cds145747_146392" class="clusterblast-orf" id="dummy-1_q13_0_all"  />
<polygon points="111,35 116,30 122,30 122,40 116,40 111,35 " style="fill:#1597d8; stroke-width:1; stroke:black; " description="&lt;b&gt;cds146355_147630&lt;/b&gt;&lt;br&gt;hypothetical protein&lt;br&gt;Location: 146355 - 147630" locus_tag="cds146355_147630" class="clusterblast-orf" id="dummy-1_q14_0_all"  />
<polygon points="123,35 128,30 144,30 144,40 128,40 123,35 " style="fill:#9715d8; stroke-width:1; stroke:black; " description="&lt;b&gt;cds147716_150227&lt;/b&gt;&lt;br&gt;hypothetical protein&lt;br&gt;Location: 147716 - 150227" locus_tag="cds147716_150227" class="clusterblast-orf" id="dummy-1_q15_0_all"  />
<polygon points="144,35 149,30 150,30 150,40 149,40 144,35 " style="fill:#d85615; stroke-width:1; stroke:black; " description="&lt;b&gt;cds150226_151030&lt;/b&gt;&lt;br&gt;Vitamin B12 import ATP-binding protein BtuD&lt;br&gt;Location: 150226 - 151030" locus_tag="cds150226_151030" class="clusterblast-orf" id="dummy-1_q16_0_all"  />
<polygon points="155,40 157,35 155,30 155,40 " style="fill:#15d815; stroke-width:1; stroke:black; " description="&lt;b&gt;cds151604_151853&lt;/b&gt;&lt;br&gt;hypothetical protein&lt;br&gt;Location: 151604 - 151853" locus_tag="cds151604_151853" class="clusterblast-orf" id="dummy-1_q17_0_all"  />
<polygon points="158,35 163,30 191,30 191,40 163,40 158,35 " style="fill:#1556d8; stroke-width:1; stroke:black; " description="&lt;b&gt;cds151956_155832&lt;/b&gt;&lt;br&gt;hypothetical protein&lt;br&gt;Location: 151956 - 155832" locus_tag="cds151956_155832" class="clusterblast-orf" id="dummy-1_q18_0_all"  />
<polygon points="191,35 196,30 321,30 321,40 196,40 191,35 " style="fill:#1556d8; stroke-width:1; stroke:black; " description="&lt;b&gt;cds155846_171317&lt;/b&gt;&lt;br&gt;hypothetical protein&lt;br&gt;Location: 155846 - 171317" locus_tag="cds155846_171317" class="clusterblast-orf" id="dummy-1_q19_0_all"  />
<polygon points="322,35 327,30 362,30 362,40 327,40 322,35 " style="fill:#1556d8; stroke-width:1; stroke:black; " description="&lt;b&gt;cds171384_176133&lt;/b&gt;&lt;br&gt;Narbonolide/10-deoxymethynolide synthase PikA3, module 5&lt;br&gt;Location: 171384 - 176133" locus_tag="cds171384_176133" class="clusterblast-orf" id="dummy-1_q20_0_all"  />
<polygon points="362,35 367,30 407,30 407,40 367,40 362,35 " style="fill:#1556d8; stroke-width:1; stroke:black; " description="&lt;b&gt;cds176132_181562&lt;/b&gt;&lt;br&gt;Narbonolide/10-deoxymethynolide synthase PikA1, modules 1 and 2&lt;br&gt;Location: 176132 - 181562" locus_tag="cds176132_181562" class="clusterblast-orf" id="dummy-1_q21_0_all"  />
<polygon points="413,40 431,40 436,35 431,30 413,30 413,40 " style="fill:#d815d8; stroke-width:1; stroke:black; " description="&lt;b&gt;cds182202_184983&lt;/b&gt;&lt;br&gt;hypothetical protein&lt;br&gt;Location: 182202 - 184983" locus_tag="cds182202_184983" class="clusterblast-orf" id="dummy-1_q22_0_all"  />
<polygon points="438,35 443,30 526,30 526,40 443,40 438,35 " style="fill:#1556d8; stroke-width:1; stroke:black; " description="&lt;b&gt;cds185197_195727&lt;/b&gt;&lt;br&gt;3-ketoacyl-CoA thiolase&lt;br&gt;Location: 185197 - 195727" locus_tag="cds185197_195727" class="clusterblast-orf" id="dummy-1_q23_0_all"  />
<polygon points="527,35 532,30 619,30 619,40 532,40 527,35 " style="fill:#1556d8; stroke-width:1; stroke:black; " description="&lt;b&gt;cds195852_206688&lt;/b&gt;&lt;br&gt;3-ketoacyl-CoA thiolase&lt;br&gt;Location: 195852 - 206688" locus_tag="cds195852_206688" class="clusterblast-orf" id="dummy-1_q24_0_all"  />
<polygon points="620,35 625,30 630,30 630,40 625,40 620,35 " style="fill:#d89715; stroke-width:1; stroke:black; " description="&lt;b&gt;cds206808_208062&lt;/b&gt;&lt;br&gt;Glutamate mutase epsilon subunit&lt;br&gt;Location: 206808 - 208062" locus_tag="cds206808_208062" class="clusterblast-orf" id="dummy-1_q25_0_all"  />
<polygon points="630,35 634,30 634,40 630,35 " style="fill:#15d856; stroke-width:1; stroke:black; " description="&lt;b&gt;cds208058_208508&lt;/b&gt;&lt;br&gt;Glutamate mutase sigma subunit&lt;br&gt;Location: 208058 - 208508" locus_tag="cds208058_208508" class="clusterblast-orf" id="dummy-1_q26_0_all"  />
<polygon points="634,35 639,30 644,30 644,40 639,40 634,35 " style="fill:#1515d8; stroke-width:1; stroke:black; " description="&lt;b&gt;cds208507_209746&lt;/b&gt;&lt;br&gt;L-glutamyl-[BtrI acyl-carrier protein] decarboxylase&lt;br&gt;Location: 208507 - 209746" locus_tag="cds208507_209746" class="clusterblast-orf" id="dummy-1_q27_0_all"  />
<polygon points="644,35 649,30 657,30 657,40 649,40 644,35 " style="fill:#d81597; stroke-width:1; stroke:black; " description="&lt;b&gt;cds209742_211269&lt;/b&gt;&lt;br&gt;Long-chain-fatty-acid--CoA ligase&lt;br&gt;Location: 209742 - 211269" locus_tag="cds209742_211269" class="clusterblast-orf" id="dummy-1_q28_0_all"  />
<polygon points="657,35 662,30 670,30 670,40 662,40 657,35 " style="fill:#d8d815; stroke-width:1; stroke:black; " description="&lt;b&gt;cds211265_212834&lt;/b&gt;&lt;br&gt;D-alanine--D-alanyl carrier protein ligase&lt;br&gt;Location: 211265 - 212834" locus_tag="cds211265_212834" class="clusterblast-orf" id="dummy-1_q29_0_all"  />
<polygon points="671,35 673,30 673,40 671,35 " style="fill:#15d897; stroke-width:1; stroke:black; " description="&lt;b&gt;cds212859_213111&lt;/b&gt;&lt;br&gt;hypothetical protein&lt;br&gt;Location: 212859 - 213111" locus_tag="cds212859_213111" class="clusterblast-orf" id="dummy-1_q30_0_all"  />
<polygon points="673,35 678,30 681,30 681,40 678,40 673,35 " style="fill:#5615d8; stroke-width:1; stroke:black; " description="&lt;b&gt;cds213154_214090&lt;/b&gt;&lt;br&gt;hypothetical protein&lt;br&gt;Location: 213154 - 214090" locus_tag="cds213154_214090" class="clusterblast-orf" id="dummy-1_q31_0_all"  />
<polygon points="681,35 686,30 689,30 689,40 686,40 681,35 " style="fill:#d81556; stroke-width:1; stroke:black; " description="&lt;b&gt;cds214155_215073&lt;/b&gt;&lt;br&gt;L-amino acid amidase&lt;br&gt;Location: 214155 - 215073" locus_tag="cds214155_215073" class="clusterblast-orf" id="dummy-1_q32_0_all"  />
<polygon points="692,40 698,40 703,35 698,30 692,30 692,40 " style="fill:#97d815; stroke-width:1; stroke:black; " description="&lt;b&gt;cds215433_216666&lt;/b&gt;&lt;br&gt;Cytochrome P450 105A3&lt;br&gt;Location: 215433 - 216666" locus_tag="cds215433_216666" class="clusterblast-orf" id="dummy-1_q33_0_all"  />
<polygon points="703,40 708,40 713,35 708,30 703,30 703,40 " style="fill:#97d815; stroke-width:1; stroke:black; " description="&lt;b&gt;cds216721_217957&lt;/b&gt;&lt;br&gt;Pentalenic acid synthase&lt;br&gt;Location: 216721 - 217957" locus_tag="cds216721_217957" class="clusterblast-orf" id="dummy-1_q34_0_all"  />
<polygon points="713,40 715,35 713,30 713,40 " style="fill:#15d8d8; stroke-width:1; stroke:black; " description="&lt;b&gt;cds217953_218175&lt;/b&gt;&lt;br&gt;Ferredoxin-1&lt;br&gt;Location: 217953 - 218175" locus_tag="cds217953_218175" class="clusterblast-orf" id="dummy-1_q35_0_all"  />
<polygon points="716,40 724,40 729,35 724,30 716,30 716,40 " style="fill:white; stroke-width:1; stroke:black; " description="&lt;b&gt;cds218289_219780&lt;/b&gt;&lt;br&gt;Methylmalonyl-CoA mutase large subunit&lt;br&gt;Location: 218289 - 219780" locus_tag="cds218289_219780" class="clusterblast-orf" id="dummy-1_q36_0_all"  />
<polygon points="729,35 734,30 736,30 736,40 734,40 729,35 " style="fill:white; stroke-width:1; stroke:black; " description="&lt;b&gt;cds219830_220703&lt;/b&gt;&lt;br&gt;3-phenylpropionate-dihydrodiol/cinnamic acid-dihydrodiol dehydrogenase&lt;br&gt;Location: 219830 - 220703" locus_tag="cds219830_220703" class="clusterblast-orf" id="dummy-1_q37_0_all"  />
<polygon points="738,40 741,35 738,30 738,40 " style="fill:white; stroke-width:1; stroke:black; " description="&lt;b&gt;cds220863_221250&lt;/b&gt;&lt;br&gt;hypothetical protein&lt;br&gt;Location: 220863 - 221250" locus_tag="cds220863_221250" class="clusterblast-orf" id="dummy-1_q38_0_all"  />
<polygon points="744,35 747,30 747,40 744,35 " style="fill:white; stroke-width:1; stroke:black; " description="&lt;b&gt;cds221642_221963&lt;/b&gt;&lt;br&gt;hypothetical protein&lt;br&gt;Location: 221642 - 221963" locus_tag="cds221642_221963" class="clusterblast-orf" id="dummy-1_q39_0_all"  />
<polygon points="748,35 753,30 759,30 759,40 753,40 748,35 " style="fill:white; stroke-width:1; stroke:black; " description="&lt;b&gt;cds222124_223399&lt;/b&gt;&lt;br&gt;hypothetical protein&lt;br&gt;Location: 222124 - 223399" locus_tag="cds222124_223399" class="clusterblast-orf" id="dummy-1_q40_0_all"  />
<polygon points="762,40 771,40 776,35 771,30 762,30 762,40 " style="fill:white; stroke-width:1; stroke:black; " description="&lt;b&gt;cds223695_225441&lt;/b&gt;&lt;br&gt;putative cytochrome c oxidase subunit 1&lt;br&gt;Location: 223695 - 225441" locus_tag="cds223695_225441" class="clusterblast-orf" id="dummy-1_q41_0_all"  />
<polygon points="776,40 780,35 776,30 776,40 " style="fill:white; stroke-width:1; stroke:black; " description="&lt;b&gt;cds225437_225827&lt;/b&gt;&lt;br&gt;hypothetical protein&lt;br&gt;Location: 225437 - 225827" locus_tag="cds225437_225827" class="clusterblast-orf" id="dummy-1_q42_0_all"  />
</g>
<g label="BGC0001194" description="BGC0001194_c1: hitachimycin (40% of genes show similarity), Polyketide" class="clusterblast-cluster"  >
<text x="5" y="70" class="clusterblast-acc"  >
<a xlink:href="https://mibig.secondarymetabolites.org/go/BGC0001194/1" target="_blank">BGC0001194</a>:                                                                     hitachimycin (40% of genes show similarity), Polyketide</text>
<line x1="10" y1="85" x2="778.0" y2="85" style="stroke-width:1; stroke:grey; "  />
</g>
<g id="a1_000"  >
<polygon points="84,85 89,80 92,80 92,90 89,90 84,85 " style="fill:white; stroke-width:1; stroke:black; " description="&lt;b&gt;BAR73004.1&lt;/b&gt;&lt;br&gt;putative short-chain dehydrogenase&lt;br&gt;Location: 1 - 873" locus_tag="BAR73004.1" class="clusterblast-orf" id="dummy-1_h1_7_0"  />
</g>
<g id="a1_001"  >
<polygon points="92,85 97,80 99,80 99,90 97,90 92,85 " style="fill:white; stroke-width:1; stroke:black; " description="&lt;b&gt;BAR73005.1&lt;/b&gt;&lt;br&gt;putative sugar phosphate isomerase/epimerase&lt;br&gt;Location: 887 - 1753" locus_tag="BAR73005.1" class="clusterblast-orf" id="dummy-1_h1_7_1"  />
</g>
<g id="a1_002"  >
<polygon points="102,90 110,90 115,85 110,80 102,80 102,90 " style="fill:white; stroke-width:1; stroke:black; " description="&lt;b&gt;BAR73006.1&lt;/b&gt;&lt;br&gt;putative phenylalanine-2,3-aminomutase&lt;br&gt;Location: 2068 - 3621" locus_tag="BAR73006.1" class="clusterblast-orf" id="dummy-1_h1_7_2"  />
</g>
<g id="a1_003"  >
<polygon points="117,85 122,80 217,80 217,90 122,90 117,85 " style="fill:#1556d8; stroke-width:1; stroke:black; " description="&lt;b&gt;BAR73007.1&lt;/b&gt;&lt;br&gt;putative PKS (ACP-KS-AT-DH-KR-ACP-KS-AT-DH-ER-KR-ACP)&lt;br&gt;Location: 3820 - 15771&lt;br&gt;&lt;br&gt;&lt;b&gt;BlastP hit with cds151956_155832&lt;/b&gt;&lt;br&gt;Percentage identity: 60&lt;br&gt;Percentage coverage: 68&lt;br&gt;BLAST bit score: 914&lt;br&gt;E-value: 1.4e-265&lt;br&gt;&lt;br&gt;&lt;b&gt;BlastP hit with cds155846_171317&lt;/b&gt;&lt;br&gt;Percentage identity: 47&lt;br&gt;Percentage coverage: 75&lt;br&gt;BLAST bit score: 2896&lt;br&gt;E-value: 0.0&lt;br&gt;&lt;br&gt;&lt;b&gt;BlastP hit with cds176132_181562&lt;/b&gt;&lt;br&gt;Percentage identity: 53&lt;br&gt;Percentage coverage: 96&lt;br&gt;BLAST bit score: 1586&lt;br&gt;E-value: 0.0&lt;br&gt;&lt;br&gt;&lt;b&gt;BlastP hit with cds185197_195727&lt;/b&gt;&lt;br&gt;Percentage identity: 47&lt;br&gt;Percentage coverage: 110&lt;br&gt;BLAST bit score: 2919&lt;br&gt;E-value: 0.0&lt;br&gt;&lt;br&gt;&lt;b&gt;BlastP hit with cds195852_206688&lt;/b&gt;&lt;br&gt;Percentage identity: 50&lt;br&gt;Percentage coverage: 112&lt;br&gt;BLAST bit score: 3344&lt;br&gt;E-value: 0.0" locus_tag="BAR73007.1" class="clusterblast-orf" id="dummy-1_h1_7_3"  />
</g>
<g id="a1_004"  >
<polygon points="218,85 223,80 231,80 231,90 223,90 218,85 " style="fill:white; stroke-width:1; stroke:black; " description="&lt;b&gt;BAR73008.1&lt;/b&gt;&lt;br&gt;putative ATP-dependent b-aminoacyl-ACP synthetase&lt;br&gt;Location: 15870 - 17471" locus_tag="BAR73008.1" class="clusterblast-orf" id="dummy-1_h1_7_4"  />
</g>
<g id="a1_005"  >
<polygon points="233,90 236,90 241,85 236,80 233,80 233,90 " style="fill:#5615d8; stroke-width:1; stroke:black; " description="&lt;b&gt;BAR73009.1&lt;/b&gt;&lt;br&gt;putative ACP aminoacyltransferase&lt;br&gt;Location: 17677 - 18624&lt;br&gt;&lt;br&gt;&lt;b&gt;BlastP hit with cds213154_214090&lt;/b&gt;&lt;br&gt;Percentage identity: 56&lt;br&gt;Percentage coverage: 99&lt;br&gt;BLAST bit score: 345&lt;br&gt;E-value: 1e-94" locus_tag="BAR73009.1" class="clusterblast-orf" id="dummy-1_h1_7_5"  />
</g>
<g id="a1_006"  >
<polygon points="241,85 243,80 243,90 241,85 " style="fill:#15d897; stroke-width:1; stroke:black; " description="&lt;b&gt;BAR73010.1&lt;/b&gt;&lt;br&gt;putative ACP&lt;br&gt;Location: 18632 - 18880&lt;br&gt;&lt;br&gt;&lt;b&gt;BlastP hit with cds212859_213111&lt;/b&gt;&lt;br&gt;Percentage identity: 54&lt;br&gt;Percentage coverage: 94&lt;br&gt;BLAST bit score: 87&lt;br&gt;E-value: 1e-17" locus_tag="BAR73010.1" class="clusterblast-orf" id="dummy-1_h1_7_6"  />
</g>
<g id="a1_007"  >
<polygon points="244,90 252,90 257,85 252,80 244,80 244,90 " style="fill:#d8d815; stroke-width:1; stroke:black; " description="&lt;b&gt;BAR73011.1&lt;/b&gt;&lt;br&gt;putative ATP-dependent aminoacyl-ACP synthetase&lt;br&gt;Location: 18994 - 20544&lt;br&gt;&lt;br&gt;&lt;b&gt;BlastP hit with cds211265_212834&lt;/b&gt;&lt;br&gt;Percentage identity: 59&lt;br&gt;Percentage coverage: 96&lt;br&gt;BLAST bit score: 561&lt;br&gt;E-value: 1.2e-159" locus_tag="BAR73011.1" class="clusterblast-orf" id="dummy-1_h1_7_7"  />
</g>
<g id="a1_008"  >
<polygon points="258,85 263,80 264,80 264,90 263,90 258,85 " style="fill:white; stroke-width:1; stroke:black; " description="&lt;b&gt;BAR73012.1&lt;/b&gt;&lt;br&gt;putative TetR family transcriptional regulator&lt;br&gt;Location: 20590 - 21312" locus_tag="BAR73012.1" class="clusterblast-orf" id="dummy-1_h1_7_8"  />
</g>
<g id="a1_009"  >
<polygon points="269,90 275,90 280,85 275,80 269,80 269,90 " style="fill:white; stroke-width:1; stroke:black; " description="&lt;b&gt;BAR73013.1&lt;/b&gt;&lt;br&gt;putative cytochrome P450 monooxygenase&lt;br&gt;Location: 21953 - 23191" locus_tag="BAR73013.1" class="clusterblast-orf" id="dummy-1_h1_7_9"  />
</g>
<g id="a1_0010"  >
<polygon points="281,85 286,80 288,80 288,90 286,90 281,85 " style="fill:white; stroke-width:1; stroke:black; " description="&lt;b&gt;BAR73014.1&lt;/b&gt;&lt;br&gt;putative 3-ketoacyl-ACP reductase&lt;br&gt;Location: 23349 - 24215" locus_tag="BAR73014.1" class="clusterblast-orf" id="dummy-1_h1_7_10"  />
</g>
<g id="a1_0011"  >
<polygon points="290,85 293,80 293,90 290,85 " style="fill:white; stroke-width:1; stroke:black; " description="&lt;b&gt;BAR73015.1&lt;/b&gt;&lt;br&gt;putative cold-shock protein (regulator)&lt;br&gt;Location: 24410 - 24847" locus_tag="BAR73015.1" class="clusterblast-orf" id="dummy-1_h1_7_11"  />
</g>
<g id="a1_0012"  >
<polygon points="296,85 301,80 309,80 309,90 301,90 296,85 " style="fill:white; stroke-width:1; stroke:black; " description="&lt;b&gt;BAR73016.1&lt;/b&gt;&lt;br&gt;putative MFS transporter&lt;br&gt;Location: 25115 - 26731" locus_tag="BAR73016.1" class="clusterblast-orf" id="dummy-1_h1_7_12"  />
</g>
<g id="a1_0013"  >
<polygon points="311,85 316,80 395,80 395,90 316,90 311,85 " style="fill:#1556d8; stroke-width:1; stroke:black; " description="&lt;b&gt;BAR73017.1&lt;/b&gt;&lt;br&gt;putative PKS (KS-AT-KR-ACP-KS-AT-DH-KR-ACP)&lt;br&gt;Location: 26901 - 36878&lt;br&gt;&lt;br&gt;&lt;b&gt;BlastP hit with cds151956_155832&lt;/b&gt;&lt;br&gt;Percentage identity: 59&lt;br&gt;Percentage coverage: 71&lt;br&gt;BLAST bit score: 973&lt;br&gt;E-value: 4.2e-283&lt;br&gt;&lt;br&gt;&lt;b&gt;BlastP hit with cds155846_171317&lt;/b&gt;&lt;br&gt;Percentage identity: 46&lt;br&gt;Percentage coverage: 68&lt;br&gt;BLAST bit score: 2455&lt;br&gt;E-value: 0.0&lt;br&gt;&lt;br&gt;&lt;b&gt;BlastP hit with cds171384_176133&lt;/b&gt;&lt;br&gt;Percentage identity: 52&lt;br&gt;Percentage coverage: 99&lt;br&gt;BLAST bit score: 1420&lt;br&gt;E-value: 0.0&lt;br&gt;&lt;br&gt;&lt;b&gt;BlastP hit with cds176132_181562&lt;/b&gt;&lt;br&gt;Percentage identity: 50&lt;br&gt;Percentage coverage: 100&lt;br&gt;BLAST bit score: 1542&lt;br&gt;E-value: 0.0&lt;br&gt;&lt;br&gt;&lt;b&gt;BlastP hit with cds185197_195727&lt;/b&gt;&lt;br&gt;Percentage identity: 46&lt;br&gt;Percentage coverage: 102&lt;br&gt;BLAST bit score: 2491&lt;br&gt;E-value: 0.0&lt;br&gt;&lt;br&gt;&lt;b&gt;BlastP hit with cds195852_206688&lt;/b&gt;&lt;br&gt;Percentage identity: 48&lt;br&gt;Percentage coverage: 97&lt;br&gt;BLAST bit score: 2610&lt;br&gt;E-value: 0.0" locus_tag="BAR73017.1" class="clusterblast-orf" id="dummy-1_h1_7_13"  />
</g>
<g id="a1_0014"  >
<polygon points="395,85 400,80 403,80 403,90 400,90 395,85 " style="fill:#d81556; stroke-width:1; stroke:black; " description="&lt;b&gt;BAR73018.1&lt;/b&gt;&lt;br&gt;putative amidohydrolase&lt;br&gt;Location: 36944 - 37852&lt;br&gt;&lt;br&gt;&lt;b&gt;BlastP hit with cds214155_215073&lt;/b&gt;&lt;br&gt;Percentage identity: 67&lt;br&gt;Percentage coverage: 97&lt;br&gt;BLAST bit score: 447&lt;br&gt;E-value: 1.9e-125" locus_tag="BAR73018.1" class="clusterblast-orf" id="dummy-1_h1_7_14"  />
</g>
<g id="a1_0015"  >
<polygon points="404,85 409,80 455,80 455,90 409,90 404,85 " style="fill:#1556d8; stroke-width:1; stroke:black; " description="&lt;b&gt;BAR73019.1&lt;/b&gt;&lt;br&gt;putative PKS (KS-AT-DH-KR-ACP-TE)&lt;br&gt;Location: 37994 - 44008&lt;br&gt;&lt;br&gt;&lt;b&gt;BlastP hit with cds151956_155832&lt;/b&gt;&lt;br&gt;Percentage identity: 61&lt;br&gt;Percentage coverage: 70&lt;br&gt;BLAST bit score: 962&lt;br&gt;E-value: 5.7e-280&lt;br&gt;&lt;br&gt;&lt;b&gt;BlastP hit with cds171384_176133&lt;/b&gt;&lt;br&gt;Percentage identity: 46&lt;br&gt;Percentage coverage: 111&lt;br&gt;BLAST bit score: 1209&lt;br&gt;E-value: 0.0&lt;br&gt;&lt;br&gt;&lt;b&gt;BlastP hit with cds176132_181562&lt;/b&gt;&lt;br&gt;Percentage identity: 51&lt;br&gt;Percentage coverage: 101&lt;br&gt;BLAST bit score: 1577&lt;br&gt;E-value: 0.0&lt;br&gt;&lt;br&gt;&lt;b&gt;BlastP hit with cds185197_195727&lt;/b&gt;&lt;br&gt;Percentage identity: 53&lt;br&gt;Percentage coverage: 49&lt;br&gt;BLAST bit score: 1549&lt;br&gt;E-value: 0.0&lt;br&gt;&lt;br&gt;&lt;b&gt;BlastP hit with cds195852_206688&lt;/b&gt;&lt;br&gt;Percentage identity: 54&lt;br&gt;Percentage coverage: 48&lt;br&gt;BLAST bit score: 1581&lt;br&gt;E-value: 0.0" locus_tag="BAR73019.1" class="clusterblast-orf" id="dummy-1_h1_7_15"  />
</g>
<g id="a1_0016"  >
<polygon points="455,85 460,80 586,80 586,90 460,90 455,85 " style="fill:#1556d8; stroke-width:1; stroke:black; " description="&lt;b&gt;BAR73020.1&lt;/b&gt;&lt;br&gt;putative PKS (KS-AT-DH-KR-ACP-KS-AT-DH-KR-ACP-KS-AT-DH-KR-ACP)&lt;br&gt;Location: 44016 - 59576&lt;br&gt;&lt;br&gt;&lt;b&gt;BlastP hit with cds151956_155832&lt;/b&gt;&lt;br&gt;Percentage identity: 57&lt;br&gt;Percentage coverage: 70&lt;br&gt;BLAST bit score: 930&lt;br&gt;E-value: 2.4e-270&lt;br&gt;&lt;br&gt;&lt;b&gt;BlastP hit with cds155846_171317&lt;/b&gt;&lt;br&gt;Percentage identity: 56&lt;br&gt;Percentage coverage: 102&lt;br&gt;BLAST bit score: 5157&lt;br&gt;E-value: 0.0&lt;br&gt;&lt;br&gt;&lt;b&gt;BlastP hit with cds171384_176133&lt;/b&gt;&lt;br&gt;Percentage identity: 46&lt;br&gt;Percentage coverage: 110&lt;br&gt;BLAST bit score: 1201&lt;br&gt;E-value: 0.0&lt;br&gt;&lt;br&gt;&lt;b&gt;BlastP hit with cds176132_181562&lt;/b&gt;&lt;br&gt;Percentage identity: 51&lt;br&gt;Percentage coverage: 97&lt;br&gt;BLAST bit score: 1577&lt;br&gt;E-value: 0.0&lt;br&gt;&lt;br&gt;&lt;b&gt;BlastP hit with cds185197_195727&lt;/b&gt;&lt;br&gt;Percentage identity: 54&lt;br&gt;Percentage coverage: 100&lt;br&gt;BLAST bit score: 3239&lt;br&gt;E-value: 0.0&lt;br&gt;&lt;br&gt;&lt;b&gt;BlastP hit with cds195852_206688&lt;/b&gt;&lt;br&gt;Percentage identity: 51&lt;br&gt;Percentage coverage: 97&lt;br&gt;BLAST bit score: 2916&lt;br&gt;E-value: 0.0" locus_tag="BAR73020.1" class="clusterblast-orf" id="dummy-1_h1_7_16"  />
</g>
<g id="a1_0017"  >
<polygon points="586,85 591,80 627,80 627,90 591,90 586,85 " style="fill:#1556d8; stroke-width:1; stroke:black; " description="&lt;b&gt;BAR73021.1&lt;/b&gt;&lt;br&gt;putative PKS (KS-AT-KR-ACP)&lt;br&gt;Location: 59610 - 64448&lt;br&gt;&lt;br&gt;&lt;b&gt;BlastP hit with cds151956_155832&lt;/b&gt;&lt;br&gt;Percentage identity: 57&lt;br&gt;Percentage coverage: 69&lt;br&gt;BLAST bit score: 908&lt;br&gt;E-value: 1.7e-263&lt;br&gt;&lt;br&gt;&lt;b&gt;BlastP hit with cds171384_176133&lt;/b&gt;&lt;br&gt;Percentage identity: 50&lt;br&gt;Percentage coverage: 102&lt;br&gt;BLAST bit score: 1400&lt;br&gt;E-value: 0.0" locus_tag="BAR73021.1" class="clusterblast-orf" id="dummy-1_h1_7_17"  />
</g>
<g id="a1_0018"  >
<polygon points="627,85 632,80 635,80 635,90 632,90 627,85 " style="fill:white; stroke-width:1; stroke:black; " description="&lt;b&gt;BAR73022.1&lt;/b&gt;&lt;br&gt;putative sugar phosphate isomerase/epimerase&lt;br&gt;Location: 64495 - 65400" locus_tag="BAR73022.1" class="clusterblast-orf" id="dummy-1_h1_7_18"  />
</g>
<g id="a1_0019"  >
<polygon points="636,90 637,90 642,85 637,80 636,80 636,90 " style="fill:white; stroke-width:1; stroke:black; " description="&lt;b&gt;BAR73023.1&lt;/b&gt;&lt;br&gt;putative O-methyltransferase&lt;br&gt;Location: 65619 - 66272" locus_tag="BAR73023.1" class="clusterblast-orf" id="dummy-1_h1_7_19"  />
</g>
<g id="a1_0020"  >
<polygon points="643,85 648,80 665,80 665,90 648,90 643,85 " style="fill:white; stroke-width:1; stroke:black; " description="&lt;b&gt;BAR73024.1&lt;/b&gt;&lt;br&gt;putative LuxR-family transcriptional regulator&lt;br&gt;Location: 66353 - 69007" locus_tag="BAR73024.1" class="clusterblast-orf" id="dummy-1_h1_7_20"  />
</g>
<g id="a1_0021"  >
<polygon points="671,90 690,90 695,85 690,80 671,80 671,90 " style="fill:white; stroke-width:1; stroke:black; " description="&lt;b&gt;BAR73025.1&lt;/b&gt;&lt;br&gt;putative LuxR-family transcriptional regulator&lt;br&gt;Location: 69726 - 72530" locus_tag="BAR73025.1" class="clusterblast-orf" id="dummy-1_h1_7_21"  />
</g>
</svg>
