<svg xmlns="http://www.w3.org/2000/svg" xmlns:xlink="http://www.w3.org/1999/xlink" version="1.1" x="0" y="0" height="230" width="800" viewBox="0 0 800 230" preserveAspectRatio="none"  >
<g label="Query sequence" class="clusterblast-cluster"  >
<text x="5" y="20" class="clusterblast-acc"  >
Query sequence</text>
<line x1="10" y1="35" x2="778.0" y2="35" style="stroke-width:1; stroke:grey; "  />
<polygon points="341,35 345,30 345,40 341,35 " style="fill:#d81515; stroke-width:1; stroke:black; " description="&lt;b&gt;cds5818_6730&lt;/b&gt;&lt;br&gt;HTH-type transcriptional regulator HdfR&lt;br&gt;Location: 5818 - 6730" locus_tag="cds5818_6730" class="clusterblast-orf" id="dummy-1_q0_0_all"  />
<polygon points="347,40 350,35 347,30 347,40 " style="fill:#15d815; stroke-width:1; stroke:black; " description="&lt;b&gt;cds7014_7635&lt;/b&gt;&lt;br&gt;Pyrroline-5-carboxylate reductase&lt;br&gt;Location: 7014 - 7635" locus_tag="cds7014_7635" class="clusterblast-orf" id="dummy-1_q1_0_all"  />
<polygon points="350,40 354,35 350,30 350,40 " style="fill:#1515d8; stroke-width:1; stroke:black; " description="&lt;b&gt;cds7686_8625&lt;/b&gt;&lt;br&gt;hypothetical protein&lt;br&gt;Location: 7686 - 8625" locus_tag="cds7686_8625" class="clusterblast-orf" id="dummy-1_q2_0_all"  />
<polygon points="355,35 358,30 358,40 355,35 " style="fill:white; stroke-width:1; stroke:black; " description="&lt;b&gt;cds8829_9297&lt;/b&gt;&lt;br&gt;hypothetical protein&lt;br&gt;Location: 8829 - 9297" locus_tag="cds8829_9297" class="clusterblast-orf" id="dummy-1_q3_0_all"  />
<polygon points="359,35 364,30 365,30 365,40 364,40 359,35 " style="fill:white; stroke-width:1; stroke:black; " description="&lt;b&gt;cds9564_10896&lt;/b&gt;&lt;br&gt;hypothetical protein&lt;br&gt;Location: 9564 - 10896" locus_tag="cds9564_10896" class="clusterblast-orf" id="dummy-1_q4_0_all"  />
<polygon points="367,40 370,40 375,35 370,30 367,30 367,40 " style="fill:white; stroke-width:1; stroke:black; " description="&lt;b&gt;cds11385_13059&lt;/b&gt;&lt;br&gt;hypothetical protein&lt;br&gt;Location: 11385 - 13059" locus_tag="cds11385_13059" class="clusterblast-orf" id="dummy-1_q5_0_all"  />
<polygon points="375,40 377,35 375,30 375,40 " style="fill:white; stroke-width:1; stroke:black; " description="&lt;b&gt;cds13064_13475&lt;/b&gt;&lt;br&gt;hypothetical protein&lt;br&gt;Location: 13064 - 13475" locus_tag="cds13064_13475" class="clusterblast-orf" id="dummy-1_q6_0_all"  />
<polygon points="377,40 379,35 377,30 377,40 " style="fill:white; stroke-width:1; stroke:black; " description="&lt;b&gt;cds13471_13843&lt;/b&gt;&lt;br&gt;hypothetical protein&lt;br&gt;Location: 13471 - 13843" locus_tag="cds13471_13843" class="clusterblast-orf" id="dummy-1_q7_0_all"  />
<polygon points="379,40 382,35 379,30 379,40 " style="fill:white; stroke-width:1; stroke:black; " description="&lt;b&gt;cds13823_14432&lt;/b&gt;&lt;br&gt;hypothetical protein&lt;br&gt;Location: 13823 - 14432" locus_tag="cds13823_14432" class="clusterblast-orf" id="dummy-1_q8_0_all"  />
<polygon points="382,40 383,40 388,35 383,30 382,30 382,40 " style="fill:white; stroke-width:1; stroke:black; " description="&lt;b&gt;cds14428_15682&lt;/b&gt;&lt;br&gt;Cytochrome P450 CYP107DY1&lt;br&gt;Location: 14428 - 15682" locus_tag="cds14428_15682" class="clusterblast-orf" id="dummy-1_q9_0_all"  />
<polygon points="388,35 393,30 393,30 393,40 393,40 388,35 " style="fill:white; stroke-width:1; stroke:black; " description="&lt;b&gt;cds15735_16767&lt;/b&gt;&lt;br&gt;7-epi-alpha-eudesmol synthase ((2E,6E)-farnesyl diphosphate cyclizing)&lt;br&gt;Location: 15735 - 16767" locus_tag="cds15735_16767" class="clusterblast-orf" id="dummy-1_q10_0_all"  />
<polygon points="394,35 396,30 396,40 394,35 " style="fill:white; stroke-width:1; stroke:black; " description="&lt;b&gt;cds16987_17416&lt;/b&gt;&lt;br&gt;hypothetical protein&lt;br&gt;Location: 16987 - 17416" locus_tag="cds16987_17416" class="clusterblast-orf" id="dummy-1_q11_0_all"  />
<polygon points="396,40 399,35 396,30 396,40 " style="fill:white; stroke-width:1; stroke:black; " description="&lt;b&gt;cds17556_18024&lt;/b&gt;&lt;br&gt;Peptidyl-lysine N-acetyltransferase YiaC&lt;br&gt;Location: 17556 - 18024" locus_tag="cds17556_18024" class="clusterblast-orf" id="dummy-1_q12_0_all"  />
<polygon points="399,35 403,30 403,40 399,35 " style="fill:white; stroke-width:1; stroke:black; " description="&lt;b&gt;cds18050_18953&lt;/b&gt;&lt;br&gt;hypothetical protein&lt;br&gt;Location: 18050 - 18953" locus_tag="cds18050_18953" class="clusterblast-orf" id="dummy-1_q13_0_all"  />
<polygon points="403,35 406,30 406,40 403,35 " style="fill:white; stroke-width:1; stroke:black; " description="&lt;b&gt;cds19030_19612&lt;/b&gt;&lt;br&gt;hypothetical protein&lt;br&gt;Location: 19030 - 19612" locus_tag="cds19030_19612" class="clusterblast-orf" id="dummy-1_q14_0_all"  />
<polygon points="407,40 410,35 407,30 407,40 " style="fill:white; stroke-width:1; stroke:black; " description="&lt;b&gt;cds19749_20361&lt;/b&gt;&lt;br&gt;HTH-type transcriptional regulator AqdR&lt;br&gt;Location: 19749 - 20361" locus_tag="cds19749_20361" class="clusterblast-orf" id="dummy-1_q15_0_all"  />
<polygon points="410,35 414,30 414,40 410,35 " style="fill:white; stroke-width:1; stroke:black; " description="&lt;b&gt;cds20387_21275&lt;/b&gt;&lt;br&gt;putative isomerase YddE&lt;br&gt;Location: 20387 - 21275" locus_tag="cds20387_21275" class="clusterblast-orf" id="dummy-1_q16_0_all"  />
<polygon points="414,35 418,30 418,40 414,35 " style="fill:white; stroke-width:1; stroke:black; " description="&lt;b&gt;cds21333_22089&lt;/b&gt;&lt;br&gt;3-beta-hydroxycholanate 3-dehydrogenase (NADP(+))&lt;br&gt;Location: 21333 - 22089" locus_tag="cds21333_22089" class="clusterblast-orf" id="dummy-1_q17_0_all"  />
<polygon points="418,40 421,40 426,35 421,30 418,30 418,40 " style="fill:white; stroke-width:1; stroke:black; " description="&lt;b&gt;cds22231_23899&lt;/b&gt;&lt;br&gt;Alkaline phosphatase D&lt;br&gt;Location: 22231 - 23899" locus_tag="cds22231_23899" class="clusterblast-orf" id="dummy-1_q18_0_all"  />
<polygon points="426,35 431,30 431,30 431,40 431,40 426,35 " style="fill:white; stroke-width:1; stroke:black; " description="&lt;b&gt;cds23920_24928&lt;/b&gt;&lt;br&gt;scyllo-inositol 2-dehydrogenase (NADP(+)) IolU&lt;br&gt;Location: 23920 - 24928" locus_tag="cds23920_24928" class="clusterblast-orf" id="dummy-1_q19_0_all"  />
<polygon points="431,40 433,40 438,35 433,30 431,30 431,40 " style="fill:white; stroke-width:1; stroke:black; " description="&lt;b&gt;cds25013_26402&lt;/b&gt;&lt;br&gt;Bicyclomycin resistance protein&lt;br&gt;Location: 25013 - 26402" locus_tag="cds25013_26402" class="clusterblast-orf" id="dummy-1_q20_0_all"  />
</g>
<g label="BGC0001944" description="BGC0001944_c1: funisamine (7% of genes show similarity), Polyketide" class="clusterblast-cluster"  >
<text x="5" y="70" class="clusterblast-acc"  >
<a xlink:href="https://mibig.secondarymetabolites.org/go/BGC0001944/1" target="_blank">BGC0001944</a>:                                                                       funisamine (7% of genes show similarity), Polyketide</text>
<line x1="10" y1="85" x2="778.0" y2="85" style="stroke-width:1; stroke:grey; "  />
</g>
<g id="a1_000"  >
<polygon points="0,85 2,80 2,90 0,85 " style="fill:white; stroke-width:1; stroke:black; " description="&lt;b&gt;AXI91568.1&lt;/b&gt;&lt;br&gt;FunA15&lt;br&gt;Location: 165922 - 165347" locus_tag="AXI91568.1" class="clusterblast-orf" id="dummy-1_h1_1_0"  />
</g>
<g id="a1_001"  >
<polygon points="3,90 5,85 3,80 3,90 " style="fill:white; stroke-width:1; stroke:black; " description="&lt;b&gt;AXI91567.1&lt;/b&gt;&lt;br&gt;FunR8&lt;br&gt;Location: 165277 - 164663" locus_tag="AXI91567.1" class="clusterblast-orf" id="dummy-1_h1_1_1"  />
</g>
<g id="a1_002"  >
<polygon points="6,85 11,80 11,80 11,90 11,90 6,85 " style="fill:white; stroke-width:1; stroke:black; " description="&lt;b&gt;AXI91566.1&lt;/b&gt;&lt;br&gt;FunS3&lt;br&gt;Location: 164458 - 163532" locus_tag="AXI91566.1" class="clusterblast-orf" id="dummy-1_h1_1_2"  />
</g>
<g id="a1_003"  >
<polygon points="11,85 16,80 18,80 18,90 16,90 11,85 " style="fill:white; stroke-width:1; stroke:black; " description="&lt;b&gt;AXI91565.1&lt;/b&gt;&lt;br&gt;FunS2&lt;br&gt;Location: 163535 - 162093" locus_tag="AXI91565.1" class="clusterblast-orf" id="dummy-1_h1_1_3"  />
</g>
<g id="a1_004"  >
<polygon points="18,85 23,80 23,80 23,90 23,90 18,85 " style="fill:white; stroke-width:1; stroke:black; " description="&lt;b&gt;AXI91564.1&lt;/b&gt;&lt;br&gt;FunS1&lt;br&gt;Location: 162051 - 160933" locus_tag="AXI91564.1" class="clusterblast-orf" id="dummy-1_h1_1_4"  />
</g>
<g id="a1_005"  >
<polygon points="26,90 34,90 39,85 34,80 26,80 26,90 " style="fill:white; stroke-width:1; stroke:black; " description="&lt;b&gt;AXI91563.1&lt;/b&gt;&lt;br&gt;FunR7&lt;br&gt;Location: 160315 - 157562" locus_tag="AXI91563.1" class="clusterblast-orf" id="dummy-1_h1_1_5"  />
</g>
<g id="a1_006"  >
<polygon points="39,85 43,80 43,90 39,85 " style="fill:white; stroke-width:1; stroke:black; " description="&lt;b&gt;AXI91562.1&lt;/b&gt;&lt;br&gt;FunA14&lt;br&gt;Location: 157485 - 156658" locus_tag="AXI91562.1" class="clusterblast-orf" id="dummy-1_h1_1_6"  />
</g>
<g id="a1_007"  >
<polygon points="44,90 48,85 44,80 44,90 " style="fill:white; stroke-width:1; stroke:black; " description="&lt;b&gt;AXI91561.1&lt;/b&gt;&lt;br&gt;FunT3&lt;br&gt;Location: 156522 - 155677" locus_tag="AXI91561.1" class="clusterblast-orf" id="dummy-1_h1_1_7"  />
</g>
<g id="a1_008"  >
<polygon points="48,90 52,85 48,80 48,90 " style="fill:white; stroke-width:1; stroke:black; " description="&lt;b&gt;AXI91560.1&lt;/b&gt;&lt;br&gt;FunT2&lt;br&gt;Location: 155680 - 154811" locus_tag="AXI91560.1" class="clusterblast-orf" id="dummy-1_h1_1_8"  />
</g>
<g id="a1_009"  >
<polygon points="52,90 52,90 57,85 52,80 52,80 52,90 " style="fill:white; stroke-width:1; stroke:black; " description="&lt;b&gt;AXI91559.1&lt;/b&gt;&lt;br&gt;FunR6&lt;br&gt;Location: 154853 - 153642" locus_tag="AXI91559.1" class="clusterblast-orf" id="dummy-1_h1_1_9"  />
</g>
<g id="a1_0010"  >
<polygon points="57,90 60,85 57,80 57,90 " style="fill:white; stroke-width:1; stroke:black; " description="&lt;b&gt;AXI91558.1&lt;/b&gt;&lt;br&gt;FunR5&lt;br&gt;Location: 153645 - 153022" locus_tag="AXI91558.1" class="clusterblast-orf" id="dummy-1_h1_1_10"  />
</g>
<g id="a1_0011"  >
<polygon points="61,85 66,80 69,80 69,90 66,90 61,85 " style="fill:white; stroke-width:1; stroke:black; " description="&lt;b&gt;AXI91557.1&lt;/b&gt;&lt;br&gt;FunA13&lt;br&gt;Location: 152849 - 151167" locus_tag="AXI91557.1" class="clusterblast-orf" id="dummy-1_h1_1_11"  />
</g>
<g id="a1_0012"  >
<polygon points="70,90 72,85 70,80 70,90 " style="fill:white; stroke-width:1; stroke:black; " description="&lt;b&gt;AXI91556.1&lt;/b&gt;&lt;br&gt;FunO3&lt;br&gt;Location: 150972 - 150430" locus_tag="AXI91556.1" class="clusterblast-orf" id="dummy-1_h1_1_12"  />
</g>
<g id="a1_0013"  >
<polygon points="72,90 75,90 80,85 75,80 72,80 72,90 " style="fill:white; stroke-width:1; stroke:black; " description="&lt;b&gt;AXI91555.1&lt;/b&gt;&lt;br&gt;FunO2&lt;br&gt;Location: 150433 - 148886" locus_tag="AXI91555.1" class="clusterblast-orf" id="dummy-1_h1_1_13"  />
</g>
<g id="a1_0014"  >
<polygon points="81,90 83,85 81,80 81,90 " style="fill:white; stroke-width:1; stroke:black; " description="&lt;b&gt;AXI91554.1&lt;/b&gt;&lt;br&gt;FunR4&lt;br&gt;Location: 148649 - 148104" locus_tag="AXI91554.1" class="clusterblast-orf" id="dummy-1_h1_1_14"  />
</g>
<g id="a1_0015"  >
<polygon points="83,90 85,90 90,85 85,80 83,80 83,90 " style="fill:white; stroke-width:1; stroke:black; " description="&lt;b&gt;AXI91553.1&lt;/b&gt;&lt;br&gt;FunA12&lt;br&gt;Location: 148055 - 146733" locus_tag="AXI91553.1" class="clusterblast-orf" id="dummy-1_h1_1_15"  />
</g>
<g id="a1_0016"  >
<polygon points="92,90 285,90 290,85 285,80 92,80 92,90 " style="fill:white; stroke-width:1; stroke:black; " description="&lt;b&gt;AXI91552.1&lt;/b&gt;&lt;br&gt;FunP1&lt;br&gt;Location: 146298 - 104182" locus_tag="AXI91552.1" class="clusterblast-orf" id="dummy-1_h1_1_16"  />
</g>
<g id="a1_0017"  >
<polygon points="292,90 309,90 314,85 309,80 292,80 292,90 " style="fill:white; stroke-width:1; stroke:black; " description="&lt;b&gt;AXI91551.1&lt;/b&gt;&lt;br&gt;FunP2&lt;br&gt;Location: 103698 - 99100" locus_tag="AXI91551.1" class="clusterblast-orf" id="dummy-1_h1_1_17"  />
</g>
<g id="a1_0018"  >
<polygon points="315,90 353,90 358,85 353,80 315,80 315,90 " style="fill:white; stroke-width:1; stroke:black; " description="&lt;b&gt;AXI91550.1&lt;/b&gt;&lt;br&gt;FunP3&lt;br&gt;Location: 98812 - 89672" locus_tag="AXI91550.1" class="clusterblast-orf" id="dummy-1_h1_1_18"  />
</g>
<g id="a1_0019"  >
<polygon points="359,90 423,90 428,85 423,80 359,80 359,90 " style="fill:white; stroke-width:1; stroke:black; " description="&lt;b&gt;AXI91549.1&lt;/b&gt;&lt;br&gt;FunP4&lt;br&gt;Location: 89514 - 74860" locus_tag="AXI91549.1" class="clusterblast-orf" id="dummy-1_h1_1_19"  />
</g>
<g id="a1_0020"  >
<polygon points="428,90 520,90 525,85 520,80 428,80 428,90 " style="fill:white; stroke-width:1; stroke:black; " description="&lt;b&gt;AXI91548.1&lt;/b&gt;&lt;br&gt;FunP5&lt;br&gt;Location: 74830 - 54179" locus_tag="AXI91548.1" class="clusterblast-orf" id="dummy-1_h1_1_20"  />
</g>
<g id="a1_0021"  >
<polygon points="525,90 566,90 571,85 566,80 525,80 525,90 " style="fill:white; stroke-width:1; stroke:black; " description="&lt;b&gt;AXI91547.1&lt;/b&gt;&lt;br&gt;FunP6&lt;br&gt;Location: 54148 - 44378" locus_tag="AXI91547.1" class="clusterblast-orf" id="dummy-1_h1_1_21"  />
</g>
<g id="a1_0022"  >
<polygon points="571,90 667,90 672,85 667,80 571,80 571,90 " style="fill:white; stroke-width:1; stroke:black; " description="&lt;b&gt;AXI91546.1&lt;/b&gt;&lt;br&gt;FunP7&lt;br&gt;Location: 44352 - 22807" locus_tag="AXI91546.1" class="clusterblast-orf" id="dummy-1_h1_1_22"  />
</g>
<g id="a1_0023"  >
<polygon points="672,90 695,90 700,85 695,80 672,80 672,90 " style="fill:white; stroke-width:1; stroke:black; " description="&lt;b&gt;AXI91545.1&lt;/b&gt;&lt;br&gt;FunP8&lt;br&gt;Location: 22777 - 16844" locus_tag="AXI91545.1" class="clusterblast-orf" id="dummy-1_h1_1_23"  />
</g>
<g id="a1_0024"  >
<polygon points="700,90 704,85 700,80 700,90 " style="fill:white; stroke-width:1; stroke:black; " description="&lt;b&gt;AXI91544.1&lt;/b&gt;&lt;br&gt;FunA11&lt;br&gt;Location: 16847 - 16077" locus_tag="AXI91544.1" class="clusterblast-orf" id="dummy-1_h1_1_24"  />
</g>
<g id="a1_0025"  >
<polygon points="704,90 704,90 709,85 704,80 704,80 704,90 " style="fill:white; stroke-width:1; stroke:black; " description="&lt;b&gt;AXI91543.1&lt;/b&gt;&lt;br&gt;FunA10&lt;br&gt;Location: 16080 - 15031" locus_tag="AXI91543.1" class="clusterblast-orf" id="dummy-1_h1_1_25"  />
</g>
<g id="a1_0026"  >
<polygon points="709,90 712,85 709,80 709,90 " style="fill:white; stroke-width:1; stroke:black; " description="&lt;b&gt;AXI91542.1&lt;/b&gt;&lt;br&gt;FunA9&lt;br&gt;Location: 15031 - 14360" locus_tag="AXI91542.1" class="clusterblast-orf" id="dummy-1_h1_1_26"  />
</g>
<g id="a1_0027"  >
<polygon points="712,90 716,85 712,80 712,90 " style="fill:white; stroke-width:1; stroke:black; " description="&lt;b&gt;AXI91541.1&lt;/b&gt;&lt;br&gt;FunO1&lt;br&gt;Location: 14275 - 13481" locus_tag="AXI91541.1" class="clusterblast-orf" id="dummy-1_h1_1_27"  />
</g>
<g id="a1_0028"  >
<polygon points="716,90 718,90 723,85 718,80 716,80 716,90 " style="fill:white; stroke-width:1; stroke:black; " description="&lt;b&gt;AXI91540.1&lt;/b&gt;&lt;br&gt;FunA8&lt;br&gt;Location: 13448 - 12102" locus_tag="AXI91540.1" class="clusterblast-orf" id="dummy-1_h1_1_28"  />
</g>
<g id="a1_0029"  >
<polygon points="723,90 727,85 723,80 723,90 " style="fill:white; stroke-width:1; stroke:black; " description="&lt;b&gt;AXI91539.1&lt;/b&gt;&lt;br&gt;FunA7&lt;br&gt;Location: 12099 - 11110" locus_tag="AXI91539.1" class="clusterblast-orf" id="dummy-1_h1_1_29"  />
</g>
<g id="a1_0030"  >
<polygon points="727,90 727,90 732,85 727,80 727,80 727,90 " style="fill:white; stroke-width:1; stroke:black; " description="&lt;b&gt;AXI91538.1&lt;/b&gt;&lt;br&gt;FunA6&lt;br&gt;Location: 11113 - 10181" locus_tag="AXI91538.1" class="clusterblast-orf" id="dummy-1_h1_1_30"  />
</g>
<g id="a1_0031"  >
<polygon points="734,90 739,90 744,85 739,80 734,80 734,90 " style="fill:white; stroke-width:1; stroke:black; " description="&lt;b&gt;AXI91537.1&lt;/b&gt;&lt;br&gt;FunR3&lt;br&gt;Location: 9696 - 7603" locus_tag="AXI91537.1" class="clusterblast-orf" id="dummy-1_h1_1_31"  />
</g>
<g id="a1_0032"  >
<polygon points="745,85 750,80 750,80 750,90 750,90 745,85 " style="fill:#d81515; stroke-width:1; stroke:black; " description="&lt;b&gt;AXI91536.1&lt;/b&gt;&lt;br&gt;FunR2&lt;br&gt;Location: 7237 - 6338&lt;br&gt;&lt;br&gt;&lt;b&gt;BlastP hit with cds5818_6730&lt;/b&gt;&lt;br&gt;Percentage identity: 86&lt;br&gt;Percentage coverage: 96&lt;br&gt;BLAST bit score: 489&lt;br&gt;E-value: 3.3e-138" locus_tag="AXI91536.1" class="clusterblast-orf" id="dummy-1_h1_1_32"  />
</g>
<g id="a1_0033"  >
<polygon points="751,90 754,85 751,80 751,90 " style="fill:white; stroke-width:1; stroke:black; " description="&lt;b&gt;AXI91535.1&lt;/b&gt;&lt;br&gt;FunA5&lt;br&gt;Location: 6074 - 5340" locus_tag="AXI91535.1" class="clusterblast-orf" id="dummy-1_h1_1_33"  />
</g>
<g id="a1_0034"  >
<polygon points="755,90 758,85 755,80 755,90 " style="fill:#15d815; stroke-width:1; stroke:black; " description="&lt;b&gt;AXI91534.1&lt;/b&gt;&lt;br&gt;FunA4&lt;br&gt;Location: 5122 - 4499&lt;br&gt;&lt;br&gt;&lt;b&gt;BlastP hit with cds7014_7635&lt;/b&gt;&lt;br&gt;Percentage identity: 52&lt;br&gt;Percentage coverage: 99&lt;br&gt;BLAST bit score: 183&lt;br&gt;E-value: 4.5e-46" locus_tag="AXI91534.1" class="clusterblast-orf" id="dummy-1_h1_1_34"  />
</g>
<g id="a1_0035"  >
<polygon points="759,90 763,85 759,80 759,90 " style="fill:#1515d8; stroke-width:1; stroke:black; " description="&lt;b&gt;AXI91533.1&lt;/b&gt;&lt;br&gt;FunA3&lt;br&gt;Location: 4343 - 3408&lt;br&gt;&lt;br&gt;&lt;b&gt;BlastP hit with cds7686_8625&lt;/b&gt;&lt;br&gt;Percentage identity: 91&lt;br&gt;Percentage coverage: 100&lt;br&gt;BLAST bit score: 559&lt;br&gt;E-value: 2.7e-159" locus_tag="AXI91533.1" class="clusterblast-orf" id="dummy-1_h1_1_35"  />
</g>
<g id="a1_0036"  >
<polygon points="764,90 766,85 764,80 764,90 " style="fill:white; stroke-width:1; stroke:black; " description="&lt;b&gt;AXI91532.1&lt;/b&gt;&lt;br&gt;FunA2&lt;br&gt;Location: 3223 - 2918" locus_tag="AXI91532.1" class="clusterblast-orf" id="dummy-1_h1_1_36"  />
</g>
<g id="a1_0037"  >
<polygon points="766,90 767,85 766,80 766,90 " style="fill:white; stroke-width:1; stroke:black; " description="&lt;b&gt;AXI91531.1&lt;/b&gt;&lt;br&gt;FunT1&lt;br&gt;Location: 2806 - 2621" locus_tag="AXI91531.1" class="clusterblast-orf" id="dummy-1_h1_1_37"  />
</g>
<g id="a1_0038"  >
<polygon points="768,90 772,90 777,85 772,80 768,80 768,90 " style="fill:white; stroke-width:1; stroke:black; " description="&lt;b&gt;AXI91530.1&lt;/b&gt;&lt;br&gt;FunA1&lt;br&gt;Location: 2531 - 546" locus_tag="AXI91530.1" class="clusterblast-orf" id="dummy-1_h1_1_38"  />
</g>
<g id="a1_0039"  >
<polygon points="777,85 780,80 780,90 777,85 " style="fill:white; stroke-width:1; stroke:black; " description="&lt;b&gt;AXI91529.1&lt;/b&gt;&lt;br&gt;FunR1&lt;br&gt;Location: 531 - 1" locus_tag="AXI91529.1" class="clusterblast-orf" id="dummy-1_h1_1_39"  />
</g>
</svg>
