<svg xmlns="http://www.w3.org/2000/svg" xmlns:xlink="http://www.w3.org/1999/xlink" version="1.1" x="0" y="0" height="230" width="800" viewBox="0 0 800 230" preserveAspectRatio="none"  >
<g label="Query sequence" class="clusterblast-cluster"  >
<text x="5" y="20" class="clusterblast-acc"  >
Query sequence</text>
<line x1="10" y1="35" x2="778.0" y2="35" style="stroke-width:1; stroke:grey; "  />
<polygon points="97,35 102,30 105,30 105,40 102,40 97,35 " style="fill:white; stroke-width:1; stroke:black; " description="&lt;b&gt;cds133096_134494&lt;/b&gt;&lt;br&gt;D-hydantoinase&lt;br&gt;Location: 133096 - 134494" locus_tag="cds133096_134494" class="clusterblast-orf" id="dummy-1_q0_0_all"  />
<polygon points="106,35 111,30 114,30 114,40 111,40 106,35 " style="fill:white; stroke-width:1; stroke:black; " description="&lt;b&gt;cds134575_135859&lt;/b&gt;&lt;br&gt;Acetylornithine aminotransferase&lt;br&gt;Location: 134575 - 135859" locus_tag="cds134575_135859" class="clusterblast-orf" id="dummy-1_q1_0_all"  />
<polygon points="114,35 119,30 119,30 119,40 119,40 114,35 " style="fill:white; stroke-width:1; stroke:black; " description="&lt;b&gt;cds135855_136698&lt;/b&gt;&lt;br&gt;N-carbamoyl-D-amino acid hydrolase&lt;br&gt;Location: 135855 - 136698" locus_tag="cds135855_136698" class="clusterblast-orf" id="dummy-1_q2_0_all"  />
<polygon points="120,35 125,30 127,30 127,40 125,40 120,35 " style="fill:white; stroke-width:1; stroke:black; " description="&lt;b&gt;cds136835_137864&lt;/b&gt;&lt;br&gt;D-alanyl-D-alanine-carboxypeptidase/endopeptidase AmpH&lt;br&gt;Location: 136835 - 137864" locus_tag="cds136835_137864" class="clusterblast-orf" id="dummy-1_q3_0_all"  />
<polygon points="127,35 132,30 133,30 133,40 132,40 127,35 " style="fill:white; stroke-width:1; stroke:black; " description="&lt;b&gt;cds137868_138789&lt;/b&gt;&lt;br&gt;hypothetical protein&lt;br&gt;Location: 137868 - 138789" locus_tag="cds137868_138789" class="clusterblast-orf" id="dummy-1_q4_0_all"  />
<polygon points="132,35 137,30 137,30 137,40 137,40 132,35 " style="fill:white; stroke-width:1; stroke:black; " description="&lt;b&gt;cds138785_139517&lt;/b&gt;&lt;br&gt;hypothetical protein&lt;br&gt;Location: 138785 - 139517" locus_tag="cds138785_139517" class="clusterblast-orf" id="dummy-1_q5_0_all"  />
<polygon points="137,35 138,30 138,40 137,35 " style="fill:white; stroke-width:1; stroke:black; " description="&lt;b&gt;cds139513_139696&lt;/b&gt;&lt;br&gt;hypothetical protein&lt;br&gt;Location: 139513 - 139696" locus_tag="cds139513_139696" class="clusterblast-orf" id="dummy-1_q6_0_all"  />
<polygon points="139,35 144,30 148,30 148,40 144,40 139,35 " style="fill:white; stroke-width:1; stroke:black; " description="&lt;b&gt;cds139834_141184&lt;/b&gt;&lt;br&gt;hypothetical protein&lt;br&gt;Location: 139834 - 141184" locus_tag="cds139834_141184" class="clusterblast-orf" id="dummy-1_q7_0_all"  />
<polygon points="149,35 151,30 151,40 149,35 " style="fill:white; stroke-width:1; stroke:black; " description="&lt;b&gt;cds141320_141701&lt;/b&gt;&lt;br&gt;hypothetical protein&lt;br&gt;Location: 141320 - 141701" locus_tag="cds141320_141701" class="clusterblast-orf" id="dummy-1_q8_0_all"  />
<polygon points="151,35 153,30 153,40 151,35 " style="fill:white; stroke-width:1; stroke:black; " description="&lt;b&gt;cds141720_142014&lt;/b&gt;&lt;br&gt;hypothetical protein&lt;br&gt;Location: 141720 - 142014" locus_tag="cds141720_142014" class="clusterblast-orf" id="dummy-1_q9_0_all"  />
<polygon points="154,35 158,30 158,40 154,35 " style="fill:white; stroke-width:1; stroke:black; " description="&lt;b&gt;cds142120_142783&lt;/b&gt;&lt;br&gt;hypothetical protein&lt;br&gt;Location: 142120 - 142783" locus_tag="cds142120_142783" class="clusterblast-orf" id="dummy-1_q10_0_all"  />
<polygon points="159,35 164,30 170,30 170,40 164,40 159,35 " style="fill:white; stroke-width:1; stroke:black; " description="&lt;b&gt;cds142956_144762&lt;/b&gt;&lt;br&gt;Glutathione hydrolase proenzyme&lt;br&gt;Location: 142956 - 144762" locus_tag="cds142956_144762" class="clusterblast-orf" id="dummy-1_q11_0_all"  />
<polygon points="171,35 176,30 176,30 176,40 176,40 171,35 " style="fill:#d81515; stroke-width:1; stroke:black; " description="&lt;b&gt;cds144853_145621&lt;/b&gt;&lt;br&gt;Thioesterase PikA5&lt;br&gt;Location: 144853 - 145621" locus_tag="cds144853_145621" class="clusterblast-orf" id="dummy-1_q12_0_all"  />
<polygon points="176,35 181,30 181,30 181,40 181,40 176,35 " style="fill:#56d815; stroke-width:1; stroke:black; " description="&lt;b&gt;cds145747_146392&lt;/b&gt;&lt;br&gt;Transcriptional regulatory protein LnrK&lt;br&gt;Location: 145747 - 146392" locus_tag="cds145747_146392" class="clusterblast-orf" id="dummy-1_q13_0_all"  />
<polygon points="180,35 185,30 188,30 188,40 185,40 180,35 " style="fill:#1597d8; stroke-width:1; stroke:black; " description="&lt;b&gt;cds146355_147630&lt;/b&gt;&lt;br&gt;hypothetical protein&lt;br&gt;Location: 146355 - 147630" locus_tag="cds146355_147630" class="clusterblast-orf" id="dummy-1_q14_0_all"  />
<polygon points="189,35 194,30 205,30 205,40 194,40 189,35 " style="fill:#9715d8; stroke-width:1; stroke:black; " description="&lt;b&gt;cds147716_150227&lt;/b&gt;&lt;br&gt;hypothetical protein&lt;br&gt;Location: 147716 - 150227" locus_tag="cds147716_150227" class="clusterblast-orf" id="dummy-1_q15_0_all"  />
<polygon points="205,35 210,30 210,30 210,40 210,40 205,35 " style="fill:#d85615; stroke-width:1; stroke:black; " description="&lt;b&gt;cds150226_151030&lt;/b&gt;&lt;br&gt;Vitamin B12 import ATP-binding protein BtuD&lt;br&gt;Location: 150226 - 151030" locus_tag="cds150226_151030" class="clusterblast-orf" id="dummy-1_q16_0_all"  />
<polygon points="214,40 215,35 214,30 214,40 " style="fill:#15d815; stroke-width:1; stroke:black; " description="&lt;b&gt;cds151604_151853&lt;/b&gt;&lt;br&gt;hypothetical protein&lt;br&gt;Location: 151604 - 151853" locus_tag="cds151604_151853" class="clusterblast-orf" id="dummy-1_q17_0_all"  />
<polygon points="216,35 221,30 240,30 240,40 221,40 216,35 " style="fill:#1556d8; stroke-width:1; stroke:black; " description="&lt;b&gt;cds151956_155832&lt;/b&gt;&lt;br&gt;hypothetical protein&lt;br&gt;Location: 151956 - 155832" locus_tag="cds151956_155832" class="clusterblast-orf" id="dummy-1_q18_0_all"  />
<polygon points="240,35 245,30 338,30 338,40 245,40 240,35 " style="fill:#1556d8; stroke-width:1; stroke:black; " description="&lt;b&gt;cds155846_171317&lt;/b&gt;&lt;br&gt;hypothetical protein&lt;br&gt;Location: 155846 - 171317" locus_tag="cds155846_171317" class="clusterblast-orf" id="dummy-1_q19_0_all"  />
<polygon points="339,35 344,30 369,30 369,40 344,40 339,35 " style="fill:#1556d8; stroke-width:1; stroke:black; " description="&lt;b&gt;cds171384_176133&lt;/b&gt;&lt;br&gt;Narbonolide/10-deoxymethynolide synthase PikA3, module 5&lt;br&gt;Location: 171384 - 176133" locus_tag="cds171384_176133" class="clusterblast-orf" id="dummy-1_q20_0_all"  />
<polygon points="369,35 374,30 403,30 403,40 374,40 369,35 " style="fill:#1556d8; stroke-width:1; stroke:black; " description="&lt;b&gt;cds176132_181562&lt;/b&gt;&lt;br&gt;Narbonolide/10-deoxymethynolide synthase PikA1, modules 1 and 2&lt;br&gt;Location: 176132 - 181562" locus_tag="cds176132_181562" class="clusterblast-orf" id="dummy-1_q21_0_all"  />
<polygon points="407,40 419,40 424,35 419,30 407,30 407,40 " style="fill:#d815d8; stroke-width:1; stroke:black; " description="&lt;b&gt;cds182202_184983&lt;/b&gt;&lt;br&gt;hypothetical protein&lt;br&gt;Location: 182202 - 184983" locus_tag="cds182202_184983" class="clusterblast-orf" id="dummy-1_q22_0_all"  />
<polygon points="426,35 431,30 492,30 492,40 431,40 426,35 " style="fill:#1556d8; stroke-width:1; stroke:black; " description="&lt;b&gt;cds185197_195727&lt;/b&gt;&lt;br&gt;3-ketoacyl-CoA thiolase&lt;br&gt;Location: 185197 - 195727" locus_tag="cds185197_195727" class="clusterblast-orf" id="dummy-1_q23_0_all"  />
<polygon points="493,35 498,30 562,30 562,40 498,40 493,35 " style="fill:#1556d8; stroke-width:1; stroke:black; " description="&lt;b&gt;cds195852_206688&lt;/b&gt;&lt;br&gt;3-ketoacyl-CoA thiolase&lt;br&gt;Location: 195852 - 206688" locus_tag="cds195852_206688" class="clusterblast-orf" id="dummy-1_q24_0_all"  />
<polygon points="562,35 567,30 570,30 570,40 567,40 562,35 " style="fill:#d89715; stroke-width:1; stroke:black; " description="&lt;b&gt;cds206808_208062&lt;/b&gt;&lt;br&gt;Glutamate mutase epsilon subunit&lt;br&gt;Location: 206808 - 208062" locus_tag="cds206808_208062" class="clusterblast-orf" id="dummy-1_q25_0_all"  />
<polygon points="570,35 573,30 573,40 570,35 " style="fill:#15d856; stroke-width:1; stroke:black; " description="&lt;b&gt;cds208058_208508&lt;/b&gt;&lt;br&gt;Glutamate mutase sigma subunit&lt;br&gt;Location: 208058 - 208508" locus_tag="cds208058_208508" class="clusterblast-orf" id="dummy-1_q26_0_all"  />
<polygon points="573,35 578,30 581,30 581,40 578,40 573,35 " style="fill:#1515d8; stroke-width:1; stroke:black; " description="&lt;b&gt;cds208507_209746&lt;/b&gt;&lt;br&gt;L-glutamyl-[BtrI acyl-carrier protein] decarboxylase&lt;br&gt;Location: 208507 - 209746" locus_tag="cds208507_209746" class="clusterblast-orf" id="dummy-1_q27_0_all"  />
<polygon points="581,35 586,30 591,30 591,40 586,40 581,35 " style="fill:#d81597; stroke-width:1; stroke:black; " description="&lt;b&gt;cds209742_211269&lt;/b&gt;&lt;br&gt;Long-chain-fatty-acid--CoA ligase&lt;br&gt;Location: 209742 - 211269" locus_tag="cds209742_211269" class="clusterblast-orf" id="dummy-1_q28_0_all"  />
<polygon points="591,35 596,30 600,30 600,40 596,40 591,35 " style="fill:#d8d815; stroke-width:1; stroke:black; " description="&lt;b&gt;cds211265_212834&lt;/b&gt;&lt;br&gt;D-alanine--D-alanyl carrier protein ligase&lt;br&gt;Location: 211265 - 212834" locus_tag="cds211265_212834" class="clusterblast-orf" id="dummy-1_q29_0_all"  />
<polygon points="601,35 602,30 602,40 601,35 " style="fill:#15d897; stroke-width:1; stroke:black; " description="&lt;b&gt;cds212859_213111&lt;/b&gt;&lt;br&gt;hypothetical protein&lt;br&gt;Location: 212859 - 213111" locus_tag="cds212859_213111" class="clusterblast-orf" id="dummy-1_q30_0_all"  />
<polygon points="602,35 607,30 608,30 608,40 607,40 602,35 " style="fill:#5615d8; stroke-width:1; stroke:black; " description="&lt;b&gt;cds213154_214090&lt;/b&gt;&lt;br&gt;hypothetical protein&lt;br&gt;Location: 213154 - 214090" locus_tag="cds213154_214090" class="clusterblast-orf" id="dummy-1_q31_0_all"  />
<polygon points="609,35 614,30 615,30 615,40 614,40 609,35 " style="fill:#d81556; stroke-width:1; stroke:black; " description="&lt;b&gt;cds214155_215073&lt;/b&gt;&lt;br&gt;L-amino acid amidase&lt;br&gt;Location: 214155 - 215073" locus_tag="cds214155_215073" class="clusterblast-orf" id="dummy-1_q32_0_all"  />
<polygon points="617,40 620,40 625,35 620,30 617,30 617,40 " style="fill:#97d815; stroke-width:1; stroke:black; " description="&lt;b&gt;cds215433_216666&lt;/b&gt;&lt;br&gt;Cytochrome P450 105A3&lt;br&gt;Location: 215433 - 216666" locus_tag="cds215433_216666" class="clusterblast-orf" id="dummy-1_q33_0_all"  />
<polygon points="625,40 628,40 633,35 628,30 625,30 625,40 " style="fill:#97d815; stroke-width:1; stroke:black; " description="&lt;b&gt;cds216721_217957&lt;/b&gt;&lt;br&gt;Pentalenic acid synthase&lt;br&gt;Location: 216721 - 217957" locus_tag="cds216721_217957" class="clusterblast-orf" id="dummy-1_q34_0_all"  />
<polygon points="633,40 634,35 633,30 633,40 " style="fill:#15d8d8; stroke-width:1; stroke:black; " description="&lt;b&gt;cds217953_218175&lt;/b&gt;&lt;br&gt;Ferredoxin-1&lt;br&gt;Location: 217953 - 218175" locus_tag="cds217953_218175" class="clusterblast-orf" id="dummy-1_q35_0_all"  />
<polygon points="635,40 639,40 644,35 639,30 635,30 635,40 " style="fill:white; stroke-width:1; stroke:black; " description="&lt;b&gt;cds218289_219780&lt;/b&gt;&lt;br&gt;Methylmalonyl-CoA mutase large subunit&lt;br&gt;Location: 218289 - 219780" locus_tag="cds218289_219780" class="clusterblast-orf" id="dummy-1_q36_0_all"  />
<polygon points="645,35 650,30 650,30 650,40 650,40 645,35 " style="fill:white; stroke-width:1; stroke:black; " description="&lt;b&gt;cds219830_220703&lt;/b&gt;&lt;br&gt;3-phenylpropionate-dihydrodiol/cinnamic acid-dihydrodiol dehydrogenase&lt;br&gt;Location: 219830 - 220703" locus_tag="cds219830_220703" class="clusterblast-orf" id="dummy-1_q37_0_all"  />
<polygon points="651,40 654,35 651,30 651,40 " style="fill:white; stroke-width:1; stroke:black; " description="&lt;b&gt;cds220863_221250&lt;/b&gt;&lt;br&gt;hypothetical protein&lt;br&gt;Location: 220863 - 221250" locus_tag="cds220863_221250" class="clusterblast-orf" id="dummy-1_q38_0_all"  />
<polygon points="656,35 658,30 658,40 656,35 " style="fill:white; stroke-width:1; stroke:black; " description="&lt;b&gt;cds221642_221963&lt;/b&gt;&lt;br&gt;hypothetical protein&lt;br&gt;Location: 221642 - 221963" locus_tag="cds221642_221963" class="clusterblast-orf" id="dummy-1_q39_0_all"  />
<polygon points="659,35 664,30 667,30 667,40 664,40 659,35 " style="fill:white; stroke-width:1; stroke:black; " description="&lt;b&gt;cds222124_223399&lt;/b&gt;&lt;br&gt;hypothetical protein&lt;br&gt;Location: 222124 - 223399" locus_tag="cds222124_223399" class="clusterblast-orf" id="dummy-1_q40_0_all"  />
<polygon points="669,40 675,40 680,35 675,30 669,30 669,40 " style="fill:white; stroke-width:1; stroke:black; " description="&lt;b&gt;cds223695_225441&lt;/b&gt;&lt;br&gt;putative cytochrome c oxidase subunit 1&lt;br&gt;Location: 223695 - 225441" locus_tag="cds223695_225441" class="clusterblast-orf" id="dummy-1_q41_0_all"  />
<polygon points="680,40 683,35 680,30 680,40 " style="fill:white; stroke-width:1; stroke:black; " description="&lt;b&gt;cds225437_225827&lt;/b&gt;&lt;br&gt;hypothetical protein&lt;br&gt;Location: 225437 - 225827" locus_tag="cds225437_225827" class="clusterblast-orf" id="dummy-1_q42_0_all"  />
</g>
<g label="BGC0000115" description="BGC0000115_c1: nystatin A1 (40% of genes show similarity), Polyketide:Modular type I + Saccharide:Hybrid/tailoring" class="clusterblast-cluster"  >
<text x="5" y="70" class="clusterblast-acc"  >
<a xlink:href="https://mibig.secondarymetabolites.org/go/BGC0000115/1" target="_blank">BGC0000115</a>:                                                                      nystatin A1 (40% of genes show similarity), Polyketide:Modular type I + Saccharide:Hybrid/tailoring</text>
<line x1="10" y1="85" x2="778.0" y2="85" style="stroke-width:1; stroke:grey; "  />
</g>
<g id="a1_000"  >
<polygon points="0,90 1,90 6,85 1,80 0,80 0,90 " style="fill:white; stroke-width:1; stroke:black; " description="&lt;b&gt;AAF71783.1&lt;/b&gt;&lt;br&gt;ORF2&lt;br&gt;Location: 123468 - 122404" locus_tag="AAF71783.1" class="clusterblast-orf" id="dummy-1_h1_10_0"  />
</g>
<g id="a1_001"  >
<polygon points="7,85 11,80 11,90 7,85 " style="fill:white; stroke-width:1; stroke:black; " description="&lt;b&gt;AAF71782.1&lt;/b&gt;&lt;br&gt;ORF3&lt;br&gt;Location: 122350 - 121589" locus_tag="AAF71782.1" class="clusterblast-orf" id="dummy-1_h1_10_1"  />
</g>
<g id="a1_002"  >
<polygon points="16,85 20,80 20,90 16,85 " style="fill:white; stroke-width:1; stroke:black; " description="&lt;b&gt;AAF71781.1&lt;/b&gt;&lt;br&gt;ORF4&lt;br&gt;Location: 120900 - 120268" locus_tag="AAF71781.1" class="clusterblast-orf" id="dummy-1_h1_10_2"  />
</g>
<g id="a1_003"  >
<polygon points="23,85 28,80 40,80 40,90 28,90 23,85 " style="fill:white; stroke-width:1; stroke:black; " description="&lt;b&gt;AAF71780.1&lt;/b&gt;&lt;br&gt;nysRIII&lt;br&gt;Location: 119816 - 117033" locus_tag="AAF71780.1" class="clusterblast-orf" id="dummy-1_h1_10_3"  />
</g>
<g id="a1_004"  >
<polygon points="40,85 45,80 58,80 58,90 45,90 40,85 " style="fill:white; stroke-width:1; stroke:black; " description="&lt;b&gt;AAF71779.1&lt;/b&gt;&lt;br&gt;nysRII&lt;br&gt;Location: 117043 - 114182" locus_tag="AAF71779.1" class="clusterblast-orf" id="dummy-1_h1_10_4"  />
</g>
<g id="a1_005"  >
<polygon points="58,85 63,80 77,80 77,90 63,90 58,85 " style="fill:white; stroke-width:1; stroke:black; " description="&lt;b&gt;AAF71778.1&lt;/b&gt;&lt;br&gt;nysRI&lt;br&gt;Location: 114158 - 111258" locus_tag="AAF71778.1" class="clusterblast-orf" id="dummy-1_h1_10_5"  />
</g>
<g id="a1_006"  >
<polygon points="79,85 84,80 84,80 84,90 84,90 79,85 " style="fill:#d81515; stroke-width:1; stroke:black; " description="&lt;b&gt;AAF71777.1&lt;/b&gt;&lt;br&gt;nysE&lt;br&gt;Location: 110868 - 110113&lt;br&gt;&lt;br&gt;&lt;b&gt;BlastP hit with cds144853_145621&lt;/b&gt;&lt;br&gt;Percentage identity: 55&lt;br&gt;Percentage coverage: 98&lt;br&gt;BLAST bit score: 264&lt;br&gt;E-value: 2.5e-70" locus_tag="AAF71777.1" class="clusterblast-orf" id="dummy-1_h1_10_6"  />
</g>
<g id="a1_007"  >
<polygon points="87,85 92,80 297,80 297,90 92,90 87,85 " style="fill:#1556d8; stroke-width:1; stroke:black; " description="&lt;b&gt;AAF71776.1&lt;/b&gt;&lt;br&gt;nysC&lt;br&gt;Location: 109693 - 76403&lt;br&gt;&lt;br&gt;&lt;b&gt;BlastP hit with cds151956_155832&lt;/b&gt;&lt;br&gt;Percentage identity: 58&lt;br&gt;Percentage coverage: 70&lt;br&gt;BLAST bit score: 921&lt;br&gt;E-value: 1.1e-267&lt;br&gt;&lt;br&gt;&lt;b&gt;BlastP hit with cds155846_171317&lt;/b&gt;&lt;br&gt;Percentage identity: 49&lt;br&gt;Percentage coverage: 110&lt;br&gt;BLAST bit score: 4427&lt;br&gt;E-value: 0.0&lt;br&gt;&lt;br&gt;&lt;b&gt;BlastP hit with cds176132_181562&lt;/b&gt;&lt;br&gt;Percentage identity: 50&lt;br&gt;Percentage coverage: 106&lt;br&gt;BLAST bit score: 1600&lt;br&gt;E-value: 0.0&lt;br&gt;&lt;br&gt;&lt;b&gt;BlastP hit with cds185197_195727&lt;/b&gt;&lt;br&gt;Percentage identity: 51&lt;br&gt;Percentage coverage: 101&lt;br&gt;BLAST bit score: 3028&lt;br&gt;E-value: 0.0&lt;br&gt;&lt;br&gt;&lt;b&gt;BlastP hit with cds195852_206688&lt;/b&gt;&lt;br&gt;Percentage identity: 51&lt;br&gt;Percentage coverage: 104&lt;br&gt;BLAST bit score: 3061&lt;br&gt;E-value: 0.0" locus_tag="AAF71776.1" class="clusterblast-orf" id="dummy-1_h1_10_7"  />
</g>
<g id="a1_008"  >
<polygon points="297,85 302,80 358,80 358,90 302,90 297,85 " style="fill:#1556d8; stroke-width:1; stroke:black; " description="&lt;b&gt;AAF71775.1&lt;/b&gt;&lt;br&gt;nysB&lt;br&gt;Location: 76383 - 66805&lt;br&gt;&lt;br&gt;&lt;b&gt;BlastP hit with cds151956_155832&lt;/b&gt;&lt;br&gt;Percentage identity: 51&lt;br&gt;Percentage coverage: 70&lt;br&gt;BLAST bit score: 743&lt;br&gt;E-value: 7.1e-214&lt;br&gt;&lt;br&gt;&lt;b&gt;BlastP hit with cds171384_176133&lt;/b&gt;&lt;br&gt;Percentage identity: 49&lt;br&gt;Percentage coverage: 97&lt;br&gt;BLAST bit score: 1258&lt;br&gt;E-value: 0.0" locus_tag="AAF71775.1" class="clusterblast-orf" id="dummy-1_h1_10_8"  />
</g>
<g id="a1_009"  >
<polygon points="358,85 363,80 384,80 384,90 363,90 358,85 " style="fill:#1556d8; stroke-width:1; stroke:black; " description="&lt;b&gt;AAF71774.1&lt;/b&gt;&lt;br&gt;nysA&lt;br&gt;Location: 66759 - 62659&lt;br&gt;&lt;br&gt;&lt;b&gt;BlastP hit with cds151956_155832&lt;/b&gt;&lt;br&gt;Percentage identity: 55&lt;br&gt;Percentage coverage: 68&lt;br&gt;BLAST bit score: 839&lt;br&gt;E-value: 5.6e-243&lt;br&gt;&lt;br&gt;&lt;b&gt;BlastP hit with cds171384_176133&lt;/b&gt;&lt;br&gt;Percentage identity: 50&lt;br&gt;Percentage coverage: 68&lt;br&gt;BLAST bit score: 878&lt;br&gt;E-value: 1.3e-254&lt;br&gt;&lt;br&gt;&lt;b&gt;BlastP hit with cds176132_181562&lt;/b&gt;&lt;br&gt;Percentage identity: 51&lt;br&gt;Percentage coverage: 65&lt;br&gt;BLAST bit score: 1073&lt;br&gt;E-value: 3.6e-313" locus_tag="AAF71774.1" class="clusterblast-orf" id="dummy-1_h1_10_9"  />
</g>
<g id="a1_0010"  >
<polygon points="385,90 390,90 395,85 390,80 385,80 385,90 " style="fill:white; stroke-width:1; stroke:black; " description="&lt;b&gt;AAF71773.1&lt;/b&gt;&lt;br&gt;nysDI&lt;br&gt;Location: 62429 - 60909" locus_tag="AAF71773.1" class="clusterblast-orf" id="dummy-1_h1_10_10"  />
</g>
<g id="a1_0011"  >
<polygon points="395,90 397,90 402,85 397,80 395,80 395,90 " style="fill:white; stroke-width:1; stroke:black; " description="&lt;b&gt;AAF71772.1&lt;/b&gt;&lt;br&gt;nysDII&lt;br&gt;Location: 60888 - 59830" locus_tag="AAF71772.1" class="clusterblast-orf" id="dummy-1_h1_10_11"  />
</g>
<g id="a1_0012"  >
<polygon points="402,90 404,90 409,85 404,80 402,80 402,90 " style="fill:#97d815; stroke-width:1; stroke:black; " description="&lt;b&gt;AAF71771.1&lt;/b&gt;&lt;br&gt;nysN&lt;br&gt;Location: 59833 - 58637&lt;br&gt;&lt;br&gt;&lt;b&gt;BlastP hit with cds215433_216666&lt;/b&gt;&lt;br&gt;Percentage identity: 46&lt;br&gt;Percentage coverage: 100&lt;br&gt;BLAST bit score: 325&lt;br&gt;E-value: 1.1e-88&lt;br&gt;&lt;br&gt;&lt;b&gt;BlastP hit with cds216721_217957&lt;/b&gt;&lt;br&gt;Percentage identity: 47&lt;br&gt;Percentage coverage: 100&lt;br&gt;BLAST bit score: 338&lt;br&gt;E-value: 1.7e-92" locus_tag="AAF71771.1" class="clusterblast-orf" id="dummy-1_h1_10_12"  />
</g>
<g id="a1_0013"  >
<polygon points="410,90 411,85 410,80 410,90 " style="fill:#15d8d8; stroke-width:1; stroke:black; " description="&lt;b&gt;AAF71770.1&lt;/b&gt;&lt;br&gt;nysM&lt;br&gt;Location: 58572 - 58378&lt;br&gt;&lt;br&gt;&lt;b&gt;BlastP hit with cds217953_218175&lt;/b&gt;&lt;br&gt;Percentage identity: 53&lt;br&gt;Percentage coverage: 84&lt;br&gt;BLAST bit score: 65&lt;br&gt;E-value: 3.7e-11" locus_tag="AAF71770.1" class="clusterblast-orf" id="dummy-1_h1_10_13"  />
</g>
<g id="a1_0014"  >
<polygon points="411,85 416,80 419,80 419,90 416,90 411,85 " style="fill:white; stroke-width:1; stroke:black; " description="&lt;b&gt;AAF71769.1&lt;/b&gt;&lt;br&gt;nysL&lt;br&gt;Location: 58279 - 57095" locus_tag="AAF71769.1" class="clusterblast-orf" id="dummy-1_h1_10_14"  />
</g>
<g id="a1_0015"  >
<polygon points="420,85 425,80 459,80 459,90 425,90 420,85 " style="fill:#1556d8; stroke-width:1; stroke:black; " description="&lt;b&gt;AAF71768.1&lt;/b&gt;&lt;br&gt;nysK&lt;br&gt;Location: 56947 - 50747&lt;br&gt;&lt;br&gt;&lt;b&gt;BlastP hit with cds151956_155832&lt;/b&gt;&lt;br&gt;Percentage identity: 57&lt;br&gt;Percentage coverage: 71&lt;br&gt;BLAST bit score: 913&lt;br&gt;E-value: 5.2e-265&lt;br&gt;&lt;br&gt;&lt;b&gt;BlastP hit with cds176132_181562&lt;/b&gt;&lt;br&gt;Percentage identity: 50&lt;br&gt;Percentage coverage: 100&lt;br&gt;BLAST bit score: 1481&lt;br&gt;E-value: 0.0&lt;br&gt;&lt;br&gt;&lt;b&gt;BlastP hit with cds185197_195727&lt;/b&gt;&lt;br&gt;Percentage identity: 50&lt;br&gt;Percentage coverage: 51&lt;br&gt;BLAST bit score: 1437&lt;br&gt;E-value: 0.0&lt;br&gt;&lt;br&gt;&lt;b&gt;BlastP hit with cds195852_206688&lt;/b&gt;&lt;br&gt;Percentage identity: 50&lt;br&gt;Percentage coverage: 50&lt;br&gt;BLAST bit score: 1384&lt;br&gt;E-value: 0.0" locus_tag="AAF71768.1" class="clusterblast-orf" id="dummy-1_h1_10_15"  />
</g>
<g id="a1_0016"  >
<polygon points="459,85 464,80 562,80 562,90 464,90 459,85 " style="fill:#1556d8; stroke-width:1; stroke:black; " description="&lt;b&gt;AAF71767.1&lt;/b&gt;&lt;br&gt;nysJ&lt;br&gt;Location: 50691 - 34384&lt;br&gt;&lt;br&gt;&lt;b&gt;BlastP hit with cds151956_155832&lt;/b&gt;&lt;br&gt;Percentage identity: 51&lt;br&gt;Percentage coverage: 85&lt;br&gt;BLAST bit score: 907&lt;br&gt;E-value: 2.9e-263&lt;br&gt;&lt;br&gt;&lt;b&gt;BlastP hit with cds155846_171317&lt;/b&gt;&lt;br&gt;Percentage identity: 46&lt;br&gt;Percentage coverage: 110&lt;br&gt;BLAST bit score: 3902&lt;br&gt;E-value: 0.0&lt;br&gt;&lt;br&gt;&lt;b&gt;BlastP hit with cds171384_176133&lt;/b&gt;&lt;br&gt;Percentage identity: 53&lt;br&gt;Percentage coverage: 97&lt;br&gt;BLAST bit score: 1339&lt;br&gt;E-value: 0.0&lt;br&gt;&lt;br&gt;&lt;b&gt;BlastP hit with cds176132_181562&lt;/b&gt;&lt;br&gt;Percentage identity: 50&lt;br&gt;Percentage coverage: 101&lt;br&gt;BLAST bit score: 1497&lt;br&gt;E-value: 0.0&lt;br&gt;&lt;br&gt;&lt;b&gt;BlastP hit with cds195852_206688&lt;/b&gt;&lt;br&gt;Percentage identity: 46&lt;br&gt;Percentage coverage: 102&lt;br&gt;BLAST bit score: 2525&lt;br&gt;E-value: 0.0" locus_tag="AAF71767.1" class="clusterblast-orf" id="dummy-1_h1_10_16"  />
</g>
<g id="a1_0017"  >
<polygon points="563,85 568,80 742,80 742,90 568,90 563,85 " style="fill:#1556d8; stroke-width:1; stroke:black; " description="&lt;b&gt;AAF71766.1&lt;/b&gt;&lt;br&gt;nysI&lt;br&gt;Location: 34363 - 5930&lt;br&gt;&lt;br&gt;&lt;b&gt;BlastP hit with cds151956_155832&lt;/b&gt;&lt;br&gt;Percentage identity: 58&lt;br&gt;Percentage coverage: 67&lt;br&gt;BLAST bit score: 903&lt;br&gt;E-value: 5.4e-262&lt;br&gt;&lt;br&gt;&lt;b&gt;BlastP hit with cds171384_176133&lt;/b&gt;&lt;br&gt;Percentage identity: 54&lt;br&gt;Percentage coverage: 98&lt;br&gt;BLAST bit score: 1435&lt;br&gt;E-value: 0.0&lt;br&gt;&lt;br&gt;&lt;b&gt;BlastP hit with cds176132_181562&lt;/b&gt;&lt;br&gt;Percentage identity: 52&lt;br&gt;Percentage coverage: 101&lt;br&gt;BLAST bit score: 1602&lt;br&gt;E-value: 0.0&lt;br&gt;&lt;br&gt;&lt;b&gt;BlastP hit with cds185197_195727&lt;/b&gt;&lt;br&gt;Percentage identity: 47&lt;br&gt;Percentage coverage: 102&lt;br&gt;BLAST bit score: 2614&lt;br&gt;E-value: 0.0&lt;br&gt;&lt;br&gt;&lt;b&gt;BlastP hit with cds195852_206688&lt;/b&gt;&lt;br&gt;Percentage identity: 49&lt;br&gt;Percentage coverage: 98&lt;br&gt;BLAST bit score: 2679&lt;br&gt;E-value: 0.0" locus_tag="AAF71766.1" class="clusterblast-orf" id="dummy-1_h1_10_17"  />
</g>
<g id="a1_0018"  >
<polygon points="743,85 748,80 750,80 750,90 748,90 743,85 " style="fill:white; stroke-width:1; stroke:black; " description="&lt;b&gt;AAF71765.1&lt;/b&gt;&lt;br&gt;nysDIII&lt;br&gt;Location: 5748 - 4714" locus_tag="AAF71765.1" class="clusterblast-orf" id="dummy-1_h1_10_18"  />
</g>
<g id="a1_0019"  >
<polygon points="752,90 758,90 763,85 758,80 752,80 752,90 " style="fill:white; stroke-width:1; stroke:black; " description="&lt;b&gt;AAF71764.1&lt;/b&gt;&lt;br&gt;nysH&lt;br&gt;Location: 4416 - 2662" locus_tag="AAF71764.1" class="clusterblast-orf" id="dummy-1_h1_10_19"  />
</g>
<g id="a1_0020"  >
<polygon points="763,90 769,90 774,85 769,80 763,80 763,90 " style="fill:white; stroke-width:1; stroke:black; " description="&lt;b&gt;AAF71763.1&lt;/b&gt;&lt;br&gt;nysG&lt;br&gt;Location: 2684 - 867" locus_tag="AAF71763.1" class="clusterblast-orf" id="dummy-1_h1_10_20"  />
</g>
<g id="a1_0021"  >
<polygon points="775,90 775,90 780,85 775,80 775,80 775,90 " style="fill:white; stroke-width:1; stroke:black; " description="&lt;b&gt;AAF71762.1&lt;/b&gt;&lt;br&gt;nysF&lt;br&gt;Location: 783 - 46" locus_tag="AAF71762.1" class="clusterblast-orf" id="dummy-1_h1_10_21"  />
</g>
</svg>
