<svg xmlns="http://www.w3.org/2000/svg" xmlns:xlink="http://www.w3.org/1999/xlink" version="1.1" x="0" y="0" height="230" width="800" viewBox="0 0 800 230" preserveAspectRatio="none"  >
<g label="Query sequence" class="clusterblast-cluster"  >
<text x="5" y="20" class="clusterblast-acc"  >
Query sequence</text>
<line x1="10" y1="35" x2="778.0" y2="35" style="stroke-width:1; stroke:grey; "  />
<polygon points="95,40 99,40 104,35 99,30 95,30 95,40 " style="fill:#d81515; stroke-width:1; stroke:black; " description="&lt;b&gt;cds81469_82450&lt;/b&gt;&lt;br&gt;hypothetical protein&lt;br&gt;Location: 81469 - 82450" locus_tag="cds81469_82450" class="clusterblast-orf" id="dummy-1_q0_0_all"  />
<polygon points="105,40 110,40 115,35 110,30 105,30 105,40 " style="fill:#15d815; stroke-width:1; stroke:black; " description="&lt;b&gt;cds82548_83541&lt;/b&gt;&lt;br&gt;HTH-type transcriptional repressor CytR&lt;br&gt;Location: 82548 - 83541" locus_tag="cds82548_83541" class="clusterblast-orf" id="dummy-1_q1_0_all"  />
<polygon points="116,40 140,40 145,35 140,30 116,30 116,40 " style="fill:white; stroke-width:1; stroke:black; " description="&lt;b&gt;cds83639_86702&lt;/b&gt;&lt;br&gt;hypothetical protein&lt;br&gt;Location: 83639 - 86702" locus_tag="cds83639_86702" class="clusterblast-orf" id="dummy-1_q2_0_all"  />
<polygon points="146,35 151,30 153,30 153,40 151,40 146,35 " style="fill:white; stroke-width:1; stroke:black; " description="&lt;b&gt;cds86800_87535&lt;/b&gt;&lt;br&gt;3-alpha-(or 20-beta)-hydroxysteroid dehydrogenase&lt;br&gt;Location: 86800 - 87535" locus_tag="cds86800_87535" class="clusterblast-orf" id="dummy-1_q3_0_all"  />
<polygon points="153,35 158,30 162,30 162,40 158,40 153,35 " style="fill:white; stroke-width:1; stroke:black; " description="&lt;b&gt;cds87531_88503&lt;/b&gt;&lt;br&gt;hypothetical protein&lt;br&gt;Location: 87531 - 88503" locus_tag="cds87531_88503" class="clusterblast-orf" id="dummy-1_q4_0_all"  />
<polygon points="163,35 168,30 172,30 172,40 168,40 163,35 " style="fill:white; stroke-width:1; stroke:black; " description="&lt;b&gt;cds88603_89542&lt;/b&gt;&lt;br&gt;hypothetical protein&lt;br&gt;Location: 88603 - 89542" locus_tag="cds88603_89542" class="clusterblast-orf" id="dummy-1_q5_0_all"  />
<polygon points="172,35 177,30 182,30 182,40 177,40 172,35 " style="fill:white; stroke-width:1; stroke:black; " description="&lt;b&gt;cds89555_90587&lt;/b&gt;&lt;br&gt;hypothetical protein&lt;br&gt;Location: 89555 - 90587" locus_tag="cds89555_90587" class="clusterblast-orf" id="dummy-1_q6_0_all"  />
<polygon points="182,35 187,30 192,30 192,40 187,40 182,35 " style="fill:white; stroke-width:1; stroke:black; " description="&lt;b&gt;cds90583_91714&lt;/b&gt;&lt;br&gt;2-heptyl-3-hydroxy-4(1H)-quinolone synthase&lt;br&gt;Location: 90583 - 91714" locus_tag="cds90583_91714" class="clusterblast-orf" id="dummy-1_q7_0_all"  />
<polygon points="193,35 198,30 202,30 202,40 198,40 193,35 " style="fill:white; stroke-width:1; stroke:black; " description="&lt;b&gt;cds91741_92704&lt;/b&gt;&lt;br&gt;hypothetical protein&lt;br&gt;Location: 91741 - 92704" locus_tag="cds91741_92704" class="clusterblast-orf" id="dummy-1_q8_0_all"  />
<polygon points="202,35 207,30 211,30 211,40 207,40 202,35 " style="fill:white; stroke-width:1; stroke:black; " description="&lt;b&gt;cds92700_93693&lt;/b&gt;&lt;br&gt;Ureidoglycolate lyase&lt;br&gt;Location: 92700 - 93693" locus_tag="cds92700_93693" class="clusterblast-orf" id="dummy-1_q9_0_all"  />
<polygon points="213,40 216,40 221,35 216,30 213,30 213,40 " style="fill:white; stroke-width:1; stroke:black; " description="&lt;b&gt;cds93826_94756&lt;/b&gt;&lt;br&gt;Nodulation protein D 2&lt;br&gt;Location: 93826 - 94756" locus_tag="cds93826_94756" class="clusterblast-orf" id="dummy-1_q10_0_all"  />
<polygon points="223,40 227,35 223,30 223,40 " style="fill:white; stroke-width:1; stroke:black; " description="&lt;b&gt;cds94940_95381&lt;/b&gt;&lt;br&gt;hypothetical protein&lt;br&gt;Location: 94940 - 95381" locus_tag="cds94940_95381" class="clusterblast-orf" id="dummy-1_q11_0_all"  />
<polygon points="230,40 231,35 230,30 230,40 " style="fill:white; stroke-width:1; stroke:black; " description="&lt;b&gt;cds95630_95813&lt;/b&gt;&lt;br&gt;D-galactonate dehydratase&lt;br&gt;Location: 95630 - 95813" locus_tag="cds95630_95813" class="clusterblast-orf" id="dummy-1_q12_0_all"  />
<polygon points="232,40 233,40 238,35 233,30 232,30 232,40 " style="fill:white; stroke-width:1; stroke:black; " description="&lt;b&gt;cds95890_96532&lt;/b&gt;&lt;br&gt;KHG/KDPG aldolase&lt;br&gt;Location: 95890 - 96532" locus_tag="cds95890_96532" class="clusterblast-orf" id="dummy-1_q13_0_all"  />
<polygon points="238,40 243,40 248,35 243,30 238,30 238,40 " style="fill:white; stroke-width:1; stroke:black; " description="&lt;b&gt;cds96528_97503&lt;/b&gt;&lt;br&gt;2-dehydro-3-deoxygluconokinase&lt;br&gt;Location: 96528 - 97503" locus_tag="cds96528_97503" class="clusterblast-orf" id="dummy-1_q14_0_all"  />
<polygon points="248,40 249,40 254,35 249,30 248,30 248,40 " style="fill:white; stroke-width:1; stroke:black; " description="&lt;b&gt;cds97603_98224&lt;/b&gt;&lt;br&gt;hypothetical protein&lt;br&gt;Location: 97603 - 98224" locus_tag="cds97603_98224" class="clusterblast-orf" id="dummy-1_q15_0_all"  />
<polygon points="255,40 255,35 255,30 255,40 " style="fill:white; stroke-width:1; stroke:black; " description="&lt;b&gt;cds98246_98342&lt;/b&gt;&lt;br&gt;hypothetical protein&lt;br&gt;Location: 98246 - 98342" locus_tag="cds98246_98342" class="clusterblast-orf" id="dummy-1_q16_0_all"  />
<polygon points="255,35 260,30 268,30 268,40 260,40 255,35 " style="fill:white; stroke-width:1; stroke:black; " description="&lt;b&gt;cds98330_99656&lt;/b&gt;&lt;br&gt;Putrescine importer PuuP&lt;br&gt;Location: 98330 - 99656" locus_tag="cds98330_99656" class="clusterblast-orf" id="dummy-1_q17_0_all"  />
<polygon points="269,40 279,40 284,35 279,30 269,30 269,40 " style="fill:white; stroke-width:1; stroke:black; " description="&lt;b&gt;cds99756_101373&lt;/b&gt;&lt;br&gt;Phytoene desaturase (lycopene-forming)&lt;br&gt;Location: 99756 - 101373" locus_tag="cds99756_101373" class="clusterblast-orf" id="dummy-1_q18_0_all"  />
<polygon points="284,35 289,30 348,30 348,40 289,40 284,35 " style="fill:white; stroke-width:1; stroke:black; " description="&lt;b&gt;cds101331_108036&lt;/b&gt;&lt;br&gt;hypothetical protein&lt;br&gt;Location: 101331 - 108036" locus_tag="cds101331_108036" class="clusterblast-orf" id="dummy-1_q19_0_all"  />
<polygon points="348,35 353,30 406,30 406,40 353,40 348,35 " style="fill:white; stroke-width:1; stroke:black; " description="&lt;b&gt;cds108079_114127&lt;/b&gt;&lt;br&gt;hypothetical protein&lt;br&gt;Location: 108079 - 114127" locus_tag="cds108079_114127" class="clusterblast-orf" id="dummy-1_q20_0_all"  />
<polygon points="406,35 411,30 421,30 421,40 411,40 406,35 " style="fill:#1515d8; stroke-width:1; stroke:black; " description="&lt;b&gt;cds114183_115767&lt;/b&gt;&lt;br&gt;Polyketide biosynthesis protein PksE&lt;br&gt;Location: 114183 - 115767" locus_tag="cds114183_115767" class="clusterblast-orf" id="dummy-1_q21_0_all"  />
<polygon points="421,35 426,30 432,30 432,40 426,40 421,35 " style="fill:white; stroke-width:1; stroke:black; " description="&lt;b&gt;cds115800_116940&lt;/b&gt;&lt;br&gt;hypothetical protein&lt;br&gt;Location: 115800 - 116940" locus_tag="cds115800_116940" class="clusterblast-orf" id="dummy-1_q22_0_all"  />
<polygon points="439,40 447,40 452,35 447,30 439,30 439,40 " style="fill:white; stroke-width:1; stroke:black; " description="&lt;b&gt;cds117690_119061&lt;/b&gt;&lt;br&gt;hypothetical protein&lt;br&gt;Location: 117690 - 119061" locus_tag="cds117690_119061" class="clusterblast-orf" id="dummy-1_q23_0_all"  />
<polygon points="453,35 458,30 466,30 466,40 458,40 453,35 " style="fill:white; stroke-width:1; stroke:black; " description="&lt;b&gt;cds119111_120494&lt;/b&gt;&lt;br&gt;Ferredoxin--NADP reductase&lt;br&gt;Location: 119111 - 120494" locus_tag="cds119111_120494" class="clusterblast-orf" id="dummy-1_q24_0_all"  />
<polygon points="469,40 470,40 475,35 470,30 469,30 469,40 " style="fill:white; stroke-width:1; stroke:black; " description="&lt;b&gt;cds120851_121466&lt;/b&gt;&lt;br&gt;Linearmycin resistance ATP-binding protein LnrL&lt;br&gt;Location: 120851 - 121466" locus_tag="cds120851_121466" class="clusterblast-orf" id="dummy-1_q25_0_all"  />
<polygon points="475,40 478,40 483,35 478,30 475,30 475,40 " style="fill:white; stroke-width:1; stroke:black; " description="&lt;b&gt;cds121462_122323&lt;/b&gt;&lt;br&gt;hypothetical protein&lt;br&gt;Location: 121462 - 122323" locus_tag="cds121462_122323" class="clusterblast-orf" id="dummy-1_q26_0_all"  />
<polygon points="484,40 484,40 489,35 484,30 484,30 484,40 " style="fill:white; stroke-width:1; stroke:black; " description="&lt;b&gt;cds122394_122916&lt;/b&gt;&lt;br&gt;hypothetical protein&lt;br&gt;Location: 122394 - 122916" locus_tag="cds122394_122916" class="clusterblast-orf" id="dummy-1_q27_0_all"  />
<polygon points="491,40 507,40 512,35 507,30 491,30 491,40 " style="fill:white; stroke-width:1; stroke:black; " description="&lt;b&gt;cds123104_125345&lt;/b&gt;&lt;br&gt;Outer membrane protein assembly factor BamB&lt;br&gt;Location: 123104 - 125345" locus_tag="cds123104_125345" class="clusterblast-orf" id="dummy-1_q28_0_all"  />
<polygon points="513,35 518,30 524,30 524,40 518,40 513,35 " style="fill:white; stroke-width:1; stroke:black; " description="&lt;b&gt;cds125387_126587&lt;/b&gt;&lt;br&gt;hypothetical protein&lt;br&gt;Location: 125387 - 126587" locus_tag="cds125387_126587" class="clusterblast-orf" id="dummy-1_q29_0_all"  />
<polygon points="527,40 540,40 545,35 540,30 527,30 527,40 " style="fill:white; stroke-width:1; stroke:black; " description="&lt;b&gt;cds126885_128847&lt;/b&gt;&lt;br&gt;hypothetical protein&lt;br&gt;Location: 126885 - 128847" locus_tag="cds126885_128847" class="clusterblast-orf" id="dummy-1_q30_0_all"  />
<polygon points="547,40 561,40 566,35 561,30 547,30 547,40 " style="fill:white; stroke-width:1; stroke:black; " description="&lt;b&gt;cds129016_131038&lt;/b&gt;&lt;br&gt;hypothetical protein&lt;br&gt;Location: 129016 - 131038" locus_tag="cds129016_131038" class="clusterblast-orf" id="dummy-1_q31_0_all"  />
<polygon points="566,35 571,30 575,30 575,40 571,40 566,35 " style="fill:white; stroke-width:1; stroke:black; " description="&lt;b&gt;cds131015_131951&lt;/b&gt;&lt;br&gt;F420-dependent glucose-6-phosphate dehydrogenase&lt;br&gt;Location: 131015 - 131951" locus_tag="cds131015_131951" class="clusterblast-orf" id="dummy-1_q32_0_all"  />
<polygon points="576,35 581,30 585,30 585,40 581,40 576,35 " style="fill:#d815d8; stroke-width:1; stroke:black; " description="&lt;b&gt;cds132062_132956&lt;/b&gt;&lt;br&gt;Geranyl diphosphate 2-C-methyltransferase&lt;br&gt;Location: 132062 - 132956" locus_tag="cds132062_132956" class="clusterblast-orf" id="dummy-1_q33_0_all"  />
<polygon points="585,35 590,30 597,30 597,40 590,40 585,35 " style="fill:#d8d815; stroke-width:1; stroke:black; " description="&lt;b&gt;cds132960_134271&lt;/b&gt;&lt;br&gt;2-methylisoborneol synthase&lt;br&gt;Location: 132960 - 134271" locus_tag="cds132960_134271" class="clusterblast-orf" id="dummy-1_q34_0_all"  />
<polygon points="598,35 603,30 612,30 612,40 603,40 598,35 " style="fill:#15d8d8; stroke-width:1; stroke:black; " description="&lt;b&gt;cds134382_135795&lt;/b&gt;&lt;br&gt;hypothetical protein&lt;br&gt;Location: 134382 - 135795" locus_tag="cds134382_135795" class="clusterblast-orf" id="dummy-1_q35_0_all"  />
<polygon points="616,35 619,30 619,40 616,35 " style="fill:white; stroke-width:1; stroke:black; " description="&lt;b&gt;cds136297_136564&lt;/b&gt;&lt;br&gt;hypothetical protein&lt;br&gt;Location: 136297 - 136564" locus_tag="cds136297_136564" class="clusterblast-orf" id="dummy-1_q36_0_all"  />
<polygon points="620,35 625,30 626,30 626,40 625,40 620,35 " style="fill:white; stroke-width:1; stroke:black; " description="&lt;b&gt;cds136705_137347&lt;/b&gt;&lt;br&gt;Putative phosphoserine phosphatase 2&lt;br&gt;Location: 136705 - 137347" locus_tag="cds136705_137347" class="clusterblast-orf" id="dummy-1_q37_0_all"  />
<polygon points="627,35 629,30 629,40 627,35 " style="fill:white; stroke-width:1; stroke:black; " description="&lt;b&gt;cds137470_137608&lt;/b&gt;&lt;br&gt;hypothetical protein&lt;br&gt;Location: 137470 - 137608" locus_tag="cds137470_137608" class="clusterblast-orf" id="dummy-1_q38_0_all"  />
<polygon points="629,35 634,30 639,30 639,40 634,40 629,35 " style="fill:white; stroke-width:1; stroke:black; " description="&lt;b&gt;cds137678_138674&lt;/b&gt;&lt;br&gt;hypothetical protein&lt;br&gt;Location: 137678 - 138674" locus_tag="cds137678_138674" class="clusterblast-orf" id="dummy-1_q39_0_all"  />
<polygon points="641,35 646,30 654,30 654,40 646,40 641,35 " style="fill:white; stroke-width:1; stroke:black; " description="&lt;b&gt;cds138887_140312&lt;/b&gt;&lt;br&gt;Drug efflux pump JefA&lt;br&gt;Location: 138887 - 140312" locus_tag="cds138887_140312" class="clusterblast-orf" id="dummy-1_q40_0_all"  />
<polygon points="656,40 657,40 662,35 657,30 656,30 656,40 " style="fill:white; stroke-width:1; stroke:black; " description="&lt;b&gt;cds140420_141113&lt;/b&gt;&lt;br&gt;hypothetical protein&lt;br&gt;Location: 140420 - 141113" locus_tag="cds140420_141113" class="clusterblast-orf" id="dummy-1_q41_0_all"  />
<polygon points="663,35 668,30 684,30 684,40 668,40 663,35 " style="fill:white; stroke-width:1; stroke:black; " description="&lt;b&gt;cds141187_143428&lt;/b&gt;&lt;br&gt;hypothetical protein&lt;br&gt;Location: 141187 - 143428" locus_tag="cds141187_143428" class="clusterblast-orf" id="dummy-1_q42_0_all"  />
</g>
<g label="BGC0001406" description="BGC0001406_c1: telomycin (5% of genes show similarity), NRP" class="clusterblast-cluster"  >
<text x="5" y="70" class="clusterblast-acc"  >
<a xlink:href="https://mibig.secondarymetabolites.org/go/BGC0001406/1" target="_blank">BGC0001406</a>:                                                                        telomycin (5% of genes show similarity), NRP</text>
<line x1="10" y1="85" x2="778.0" y2="85" style="stroke-width:1; stroke:grey; "  />
</g>
<g id="a1_000"  >
<polygon points="0,85 5,80 29,80 29,90 5,90 0,85 " style="fill:white; stroke-width:1; stroke:black; " description="&lt;b&gt;ALV86847.1&lt;/b&gt;&lt;br&gt;Tlo1&lt;br&gt;Location: 40 - 3189" locus_tag="ALV86847.1" class="clusterblast-orf" id="dummy-1_h1_3_0"  />
</g>
<g id="a1_001"  >
<polygon points="30,85 35,80 41,80 41,90 35,90 30,85 " style="fill:white; stroke-width:1; stroke:black; " description="&lt;b&gt;ALV86848.1&lt;/b&gt;&lt;br&gt;Tlo2&lt;br&gt;Location: 3241 - 4446" locus_tag="ALV86848.1" class="clusterblast-orf" id="dummy-1_h1_3_1"  />
</g>
<g id="a1_002"  >
<polygon points="42,85 47,80 50,80 50,90 47,90 42,85 " style="fill:white; stroke-width:1; stroke:black; " description="&lt;b&gt;ALV86849.1&lt;/b&gt;&lt;br&gt;Tlo3&lt;br&gt;Location: 4494 - 5309" locus_tag="ALV86849.1" class="clusterblast-orf" id="dummy-1_h1_3_2"  />
</g>
<g id="a1_003"  >
<polygon points="50,85 55,80 57,80 57,90 55,90 50,85 " style="fill:white; stroke-width:1; stroke:black; " description="&lt;b&gt;ALV86850.1&lt;/b&gt;&lt;br&gt;Tlo4&lt;br&gt;Location: 5312 - 6136" locus_tag="ALV86850.1" class="clusterblast-orf" id="dummy-1_h1_3_3"  />
</g>
<g id="a1_004"  >
<polygon points="59,85 64,80 71,80 71,90 64,90 59,85 " style="fill:white; stroke-width:1; stroke:black; " description="&lt;b&gt;ALV86851.1&lt;/b&gt;&lt;br&gt;Tlo5&lt;br&gt;Location: 6268 - 7581" locus_tag="ALV86851.1" class="clusterblast-orf" id="dummy-1_h1_3_4"  />
</g>
<g id="a1_005"  >
<polygon points="74,90 85,90 90,85 85,80 74,80 74,90 " style="fill:white; stroke-width:1; stroke:black; " description="&lt;b&gt;ALV86852.1&lt;/b&gt;&lt;br&gt;Tlo6&lt;br&gt;Location: 7873 - 9591" locus_tag="ALV86852.1" class="clusterblast-orf" id="dummy-1_h1_3_5"  />
</g>
<g id="a1_006"  >
<polygon points="90,90 94,90 99,85 94,80 90,80 90,90 " style="fill:#d81515; stroke-width:1; stroke:black; " description="&lt;b&gt;ALV86853.1&lt;/b&gt;&lt;br&gt;Tlo7&lt;br&gt;Location: 9588 - 10523&lt;br&gt;&lt;br&gt;&lt;b&gt;BlastP hit with cds81469_82450&lt;/b&gt;&lt;br&gt;Percentage identity: 55&lt;br&gt;Percentage coverage: 93&lt;br&gt;BLAST bit score: 293&lt;br&gt;E-value: 3.8e-79" locus_tag="ALV86853.1" class="clusterblast-orf" id="dummy-1_h1_3_6"  />
</g>
<g id="a1_007"  >
<polygon points="100,90 105,90 110,85 105,80 100,80 100,90 " style="fill:#15d815; stroke-width:1; stroke:black; " description="&lt;b&gt;ALV86854.1&lt;/b&gt;&lt;br&gt;Tlo8&lt;br&gt;Location: 10568 - 11611&lt;br&gt;&lt;br&gt;&lt;b&gt;BlastP hit with cds82548_83541&lt;/b&gt;&lt;br&gt;Percentage identity: 64&lt;br&gt;Percentage coverage: 99&lt;br&gt;BLAST bit score: 408&lt;br&gt;E-value: 8.2e-114" locus_tag="ALV86854.1" class="clusterblast-orf" id="dummy-1_h1_3_7"  />
</g>
<g id="a1_008"  >
<polygon points="110,90 117,90 122,85 117,80 110,80 110,90 " style="fill:white; stroke-width:1; stroke:black; " description="&lt;b&gt;ALV86855.1&lt;/b&gt;&lt;br&gt;Tlo9&lt;br&gt;Location: 11673 - 12977" locus_tag="ALV86855.1" class="clusterblast-orf" id="dummy-1_h1_3_8"  />
</g>
<g id="a1_009"  >
<polygon points="124,90 135,90 140,85 135,80 124,80 124,90 " style="fill:white; stroke-width:1; stroke:black; " description="&lt;b&gt;ALV86856.1&lt;/b&gt;&lt;br&gt;Tlo10&lt;br&gt;Location: 13130 - 14833" locus_tag="ALV86856.1" class="clusterblast-orf" id="dummy-1_h1_3_9"  />
</g>
<g id="a1_0010"  >
<polygon points="140,90 143,90 148,85 143,80 140,80 140,90 " style="fill:white; stroke-width:1; stroke:black; " description="&lt;b&gt;ALV86857.1&lt;/b&gt;&lt;br&gt;Tlo11&lt;br&gt;Location: 14830 - 15669" locus_tag="ALV86857.1" class="clusterblast-orf" id="dummy-1_h1_3_10"  />
</g>
<g id="a1_0011"  >
<polygon points="148,85 153,80 157,80 157,90 153,90 148,85 " style="fill:white; stroke-width:1; stroke:black; " description="&lt;b&gt;ALV86858.1&lt;/b&gt;&lt;br&gt;Tlo12&lt;br&gt;Location: 15706 - 16650" locus_tag="ALV86858.1" class="clusterblast-orf" id="dummy-1_h1_3_11"  />
</g>
<g id="a1_0012"  >
<polygon points="159,85 164,80 168,80 168,90 164,90 159,85 " style="fill:white; stroke-width:1; stroke:black; " description="&lt;b&gt;ALV86859.1&lt;/b&gt;&lt;br&gt;Tlo13&lt;br&gt;Location: 16799 - 17740" locus_tag="ALV86859.1" class="clusterblast-orf" id="dummy-1_h1_3_12"  />
</g>
<g id="a1_0013"  >
<polygon points="169,85 174,80 183,80 183,90 174,90 169,85 " style="fill:white; stroke-width:1; stroke:black; " description="&lt;b&gt;ALV86860.1&lt;/b&gt;&lt;br&gt;Tlo14&lt;br&gt;Location: 17891 - 19324" locus_tag="ALV86860.1" class="clusterblast-orf" id="dummy-1_h1_3_13"  />
</g>
<g id="a1_0014"  >
<polygon points="184,90 189,90 194,85 189,80 184,80 184,90 " style="fill:white; stroke-width:1; stroke:black; " description="&lt;b&gt;ALV86861.1&lt;/b&gt;&lt;br&gt;Tlo15&lt;br&gt;Location: 19475 - 20533" locus_tag="ALV86861.1" class="clusterblast-orf" id="dummy-1_h1_3_14"  />
</g>
<g id="a1_0015"  >
<polygon points="198,90 198,90 203,85 198,80 198,80 198,90 " style="fill:white; stroke-width:1; stroke:black; " description="&lt;b&gt;ALV86862.1&lt;/b&gt;&lt;br&gt;Tlo16&lt;br&gt;Location: 20921 - 21403" locus_tag="ALV86862.1" class="clusterblast-orf" id="dummy-1_h1_3_15"  />
</g>
<g id="a1_0016"  >
<polygon points="203,90 208,90 213,85 208,80 203,80 203,90 " style="fill:white; stroke-width:1; stroke:black; " description="&lt;b&gt;ALV86863.1&lt;/b&gt;&lt;br&gt;Tlo17&lt;br&gt;Location: 21491 - 22456" locus_tag="ALV86863.1" class="clusterblast-orf" id="dummy-1_h1_3_16"  />
</g>
<g id="a1_0017"  >
<polygon points="215,90 227,90 232,85 227,80 215,80 215,90 " style="fill:white; stroke-width:1; stroke:black; " description="&lt;b&gt;ALV86864.1&lt;/b&gt;&lt;br&gt;Tlo18&lt;br&gt;Location: 22716 - 24464" locus_tag="ALV86864.1" class="clusterblast-orf" id="dummy-1_h1_3_17"  />
</g>
<g id="a1_0018"  >
<polygon points="232,90 234,85 232,80 232,90 " style="fill:white; stroke-width:1; stroke:black; " description="&lt;b&gt;ALV86865.1&lt;/b&gt;&lt;br&gt;Tlo19&lt;br&gt;Location: 24461 - 24730" locus_tag="ALV86865.1" class="clusterblast-orf" id="dummy-1_h1_3_18"  />
</g>
<g id="a1_0019"  >
<polygon points="235,90 366,90 371,85 366,80 235,80 235,90 " style="fill:white; stroke-width:1; stroke:black; " description="&lt;b&gt;ALV86866.1&lt;/b&gt;&lt;br&gt;Tlo20&lt;br&gt;Location: 24834 - 39140" locus_tag="ALV86866.1" class="clusterblast-orf" id="dummy-1_h1_3_19"  />
</g>
<g id="a1_0020"  >
<polygon points="371,90 532,90 537,85 532,80 371,80 371,90 " style="fill:white; stroke-width:1; stroke:black; " description="&lt;b&gt;ALV86867.1&lt;/b&gt;&lt;br&gt;Tlo21&lt;br&gt;Location: 39122 - 56611" locus_tag="ALV86867.1" class="clusterblast-orf" id="dummy-1_h1_3_20"  />
</g>
<g id="a1_0021"  >
<polygon points="537,90 601,90 606,85 601,80 537,80 537,90 " style="fill:white; stroke-width:1; stroke:black; " description="&lt;b&gt;ALV86868.1&lt;/b&gt;&lt;br&gt;Tlo22&lt;br&gt;Location: 56611 - 63810" locus_tag="ALV86868.1" class="clusterblast-orf" id="dummy-1_h1_3_21"  />
</g>
<g id="a1_0022"  >
<polygon points="608,90 614,90 619,85 614,80 608,80 608,90 " style="fill:white; stroke-width:1; stroke:black; " description="&lt;b&gt;ALV86869.1&lt;/b&gt;&lt;br&gt;Tlo23&lt;br&gt;Location: 63998 - 65245" locus_tag="ALV86869.1" class="clusterblast-orf" id="dummy-1_h1_3_22"  />
</g>
<g id="a1_0023"  >
<polygon points="620,90 622,85 620,80 620,90 " style="fill:white; stroke-width:1; stroke:black; " description="&lt;b&gt;ALV86870.1&lt;/b&gt;&lt;br&gt;Tlo24&lt;br&gt;Location: 65274 - 65498" locus_tag="ALV86870.1" class="clusterblast-orf" id="dummy-1_h1_3_23"  />
</g>
<g id="a1_0024"  >
<polygon points="622,90 641,90 646,85 641,80 622,80 622,90 " style="fill:white; stroke-width:1; stroke:black; " description="&lt;b&gt;ALV86871.1&lt;/b&gt;&lt;br&gt;Tlo25&lt;br&gt;Location: 65568 - 68042" locus_tag="ALV86871.1" class="clusterblast-orf" id="dummy-1_h1_3_24"  />
</g>
<g id="a1_0025"  >
<polygon points="655,90 657,90 662,85 657,80 655,80 655,90 " style="fill:white; stroke-width:1; stroke:black; " description="&lt;b&gt;ALV86872.1&lt;/b&gt;&lt;br&gt;Tlo26&lt;br&gt;Location: 68944 - 69750" locus_tag="ALV86872.1" class="clusterblast-orf" id="dummy-1_h1_3_25"  />
</g>
<g id="a1_0026"  >
<polygon points="663,85 668,80 683,80 683,90 668,90 663,85 " style="fill:white; stroke-width:1; stroke:black; " description="&lt;b&gt;ALV86873.1&lt;/b&gt;&lt;br&gt;Tlo27&lt;br&gt;Location: 69823 - 71940" locus_tag="ALV86873.1" class="clusterblast-orf" id="dummy-1_h1_3_26"  />
</g>
<g id="a1_0027"  >
<polygon points="684,85 689,80 710,80 710,90 689,90 684,85 " style="fill:white; stroke-width:1; stroke:black; " description="&lt;b&gt;ALV86874.1&lt;/b&gt;&lt;br&gt;Tlo28&lt;br&gt;Location: 72005 - 74755" locus_tag="ALV86874.1" class="clusterblast-orf" id="dummy-1_h1_3_27"  />
</g>
<g id="a1_0028"  >
<polygon points="710,85 715,80 722,80 722,90 715,90 710,85 " style="fill:white; stroke-width:1; stroke:black; " description="&lt;b&gt;ALV86875.1&lt;/b&gt;&lt;br&gt;Tlo29&lt;br&gt;Location: 74779 - 75996" locus_tag="ALV86875.1" class="clusterblast-orf" id="dummy-1_h1_3_28"  />
</g>
<g id="a1_0029"  >
<polygon points="724,85 729,80 732,80 732,90 729,90 724,85 " style="fill:white; stroke-width:1; stroke:black; " description="&lt;b&gt;ALV86876.1&lt;/b&gt;&lt;br&gt;Tlo30&lt;br&gt;Location: 76272 - 77090" locus_tag="ALV86876.1" class="clusterblast-orf" id="dummy-1_h1_3_29"  />
</g>
<g id="a1_0030"  >
<polygon points="732,85 737,80 741,80 741,90 737,90 732,85 " style="fill:white; stroke-width:1; stroke:black; " description="&lt;b&gt;ALV86877.1&lt;/b&gt;&lt;br&gt;Tlo31&lt;br&gt;Location: 77087 - 78031" locus_tag="ALV86877.1" class="clusterblast-orf" id="dummy-1_h1_3_30"  />
</g>
<g id="a1_0031"  >
<polygon points="744,90 747,90 752,85 747,80 744,80 744,90 " style="fill:white; stroke-width:1; stroke:black; " description="&lt;b&gt;ALV86878.1&lt;/b&gt;&lt;br&gt;Tlo32&lt;br&gt;Location: 78306 - 79169" locus_tag="ALV86878.1" class="clusterblast-orf" id="dummy-1_h1_3_31"  />
</g>
<g id="a1_0032"  >
<polygon points="752,90 755,90 760,85 755,80 752,80 752,90 " style="fill:white; stroke-width:1; stroke:black; " description="&lt;b&gt;ALV86879.1&lt;/b&gt;&lt;br&gt;Tlo33&lt;br&gt;Location: 79166 - 80056" locus_tag="ALV86879.1" class="clusterblast-orf" id="dummy-1_h1_3_32"  />
</g>
<g id="a1_0033"  >
<polygon points="760,90 775,90 780,85 775,80 760,80 760,90 " style="fill:white; stroke-width:1; stroke:black; " description="&lt;b&gt;ALV86880.1&lt;/b&gt;&lt;br&gt;Tlo34&lt;br&gt;Location: 80079 - 82088" locus_tag="ALV86880.1" class="clusterblast-orf" id="dummy-1_h1_3_33"  />
</g>
</svg>
