<svg xmlns="http://www.w3.org/2000/svg" xmlns:xlink="http://www.w3.org/1999/xlink" version="1.1" x="0" y="0" height="230" width="800" viewBox="0 0 800 230" preserveAspectRatio="none"  >
<g label="Query sequence" class="clusterblast-cluster"  >
<text x="5" y="20" class="clusterblast-acc"  >
Query sequence</text>
<line x1="10" y1="35" x2="778.0" y2="35" style="stroke-width:1; stroke:grey; "  />
<polygon points="263,40 264,40 269,35 264,30 263,30 263,40 " style="fill:white; stroke-width:1; stroke:black; " description="&lt;b&gt;cds79692_80229&lt;/b&gt;&lt;br&gt;Maleamate amidohydrolase&lt;br&gt;Location: 79692 - 80229" locus_tag="cds79692_80229" class="clusterblast-orf" id="dummy-2_q0_0_all"  />
<polygon points="270,40 272,40 277,35 272,30 270,30 270,40 " style="fill:white; stroke-width:1; stroke:black; " description="&lt;b&gt;cds80362_80962&lt;/b&gt;&lt;br&gt;8-demethyl-8-aminoriboflavin-5'-phosphate synthase&lt;br&gt;Location: 80362 - 80962" locus_tag="cds80362_80962" class="clusterblast-orf" id="dummy-2_q1_0_all"  />
<polygon points="278,35 283,30 290,30 290,40 283,40 278,35 " style="fill:white; stroke-width:1; stroke:black; " description="&lt;b&gt;cds81060_82236&lt;/b&gt;&lt;br&gt;hypothetical protein&lt;br&gt;Location: 81060 - 82236" locus_tag="cds81060_82236" class="clusterblast-orf" id="dummy-2_q2_0_all"  />
<polygon points="292,40 300,40 305,35 300,30 292,30 292,40 " style="fill:white; stroke-width:1; stroke:black; " description="&lt;b&gt;cds82419_83631&lt;/b&gt;&lt;br&gt;putative cardiolipin synthase YwiE&lt;br&gt;Location: 82419 - 83631" locus_tag="cds82419_83631" class="clusterblast-orf" id="dummy-2_q3_0_all"  />
<polygon points="305,35 308,30 308,40 305,35 " style="fill:white; stroke-width:1; stroke:black; " description="&lt;b&gt;cds83694_83982&lt;/b&gt;&lt;br&gt;hypothetical protein&lt;br&gt;Location: 83694 - 83982" locus_tag="cds83694_83982" class="clusterblast-orf" id="dummy-2_q4_0_all"  />
<polygon points="310,40 314,35 310,30 310,40 " style="fill:white; stroke-width:1; stroke:black; " description="&lt;b&gt;cds84138_84567&lt;/b&gt;&lt;br&gt;hypothetical protein&lt;br&gt;Location: 84138 - 84567" locus_tag="cds84138_84567" class="clusterblast-orf" id="dummy-2_q5_0_all"  />
<polygon points="315,40 317,40 322,35 317,30 315,30 315,40 " style="fill:white; stroke-width:1; stroke:black; " description="&lt;b&gt;cds84674_85280&lt;/b&gt;&lt;br&gt;hypothetical protein&lt;br&gt;Location: 84674 - 85280" locus_tag="cds84674_85280" class="clusterblast-orf" id="dummy-2_q6_0_all"  />
<polygon points="322,35 327,30 332,30 332,40 327,40 322,35 " style="fill:white; stroke-width:1; stroke:black; " description="&lt;b&gt;cds85309_86260&lt;/b&gt;&lt;br&gt;hypothetical protein&lt;br&gt;Location: 85309 - 86260" locus_tag="cds85309_86260" class="clusterblast-orf" id="dummy-2_q7_0_all"  />
<polygon points="333,40 344,40 349,35 344,30 333,30 333,40 " style="fill:white; stroke-width:1; stroke:black; " description="&lt;b&gt;cds86353_87877&lt;/b&gt;&lt;br&gt;hypothetical protein&lt;br&gt;Location: 86353 - 87877" locus_tag="cds86353_87877" class="clusterblast-orf" id="dummy-2_q8_0_all"  />
<polygon points="351,40 359,40 364,35 359,30 351,30 351,40 " style="fill:white; stroke-width:1; stroke:black; " description="&lt;b&gt;cds88028_89294&lt;/b&gt;&lt;br&gt;Renalase&lt;br&gt;Location: 88028 - 89294" locus_tag="cds88028_89294" class="clusterblast-orf" id="dummy-2_q9_0_all"  />
<polygon points="364,40 371,40 376,35 371,30 364,30 364,40 " style="fill:#d81515; stroke-width:1; stroke:black; " description="&lt;b&gt;cds89290_90499&lt;/b&gt;&lt;br&gt;hypothetical protein&lt;br&gt;Location: 89290 - 90499" locus_tag="cds89290_90499" class="clusterblast-orf" id="dummy-2_q10_0_all"  />
<polygon points="376,40 379,40 384,35 379,30 376,30 376,40 " style="fill:#15d815; stroke-width:1; stroke:black; " description="&lt;b&gt;cds90495_91230&lt;/b&gt;&lt;br&gt;Demethylmenaquinone methyltransferase&lt;br&gt;Location: 90495 - 91230" locus_tag="cds90495_91230" class="clusterblast-orf" id="dummy-2_q11_0_all"  />
<polygon points="384,40 395,40 400,35 395,30 384,30 384,40 " style="fill:#1597d8; stroke-width:1; stroke:black; " description="&lt;b&gt;cds91226_92786&lt;/b&gt;&lt;br&gt;tRNA 5-methylaminomethyl-2-thiouridine biosynthesis bifunctional protein MnmC&lt;br&gt;Location: 91226 - 92786" locus_tag="cds91226_92786" class="clusterblast-orf" id="dummy-2_q12_0_all"  />
<polygon points="401,35 406,30 411,30 411,40 406,40 401,35 " style="fill:#9715d8; stroke-width:1; stroke:black; " description="&lt;b&gt;cds92820_93828&lt;/b&gt;&lt;br&gt;hypothetical protein&lt;br&gt;Location: 92820 - 93828" locus_tag="cds92820_93828" class="clusterblast-orf" id="dummy-2_q13_0_all"  />
<polygon points="411,35 416,30 422,30 422,40 416,40 411,35 " style="fill:#d89715; stroke-width:1; stroke:black; " description="&lt;b&gt;cds93824_94811&lt;/b&gt;&lt;br&gt;15-cis-phytoene synthase&lt;br&gt;Location: 93824 - 94811" locus_tag="cds93824_94811" class="clusterblast-orf" id="dummy-2_q14_0_all"  />
<polygon points="421,35 426,30 438,30 438,40 426,40 421,35 " style="fill:#15d897; stroke-width:1; stroke:black; " description="&lt;b&gt;cds94807_96343&lt;/b&gt;&lt;br&gt;zeta-carotene-forming phytoene desaturase&lt;br&gt;Location: 94807 - 96343" locus_tag="cds94807_96343" class="clusterblast-orf" id="dummy-2_q15_0_all"  />
<polygon points="437,35 442,30 450,30 450,40 442,40 437,35 " style="fill:#1515d8; stroke-width:1; stroke:black; " description="&lt;b&gt;cds96339_97509&lt;/b&gt;&lt;br&gt;hypothetical protein&lt;br&gt;Location: 96339 - 97509" locus_tag="cds96339_97509" class="clusterblast-orf" id="dummy-2_q16_0_all"  />
<polygon points="452,35 457,30 457,30 457,40 457,40 452,35 " style="fill:#d81597; stroke-width:1; stroke:black; " description="&lt;b&gt;cds97714_98203&lt;/b&gt;&lt;br&gt;hypothetical protein&lt;br&gt;Location: 97714 - 98203" locus_tag="cds97714_98203" class="clusterblast-orf" id="dummy-2_q17_0_all"  />
<polygon points="458,40 463,40 468,35 463,30 458,30 458,40 " style="fill:#97d815; stroke-width:1; stroke:black; " description="&lt;b&gt;cds98327_99293&lt;/b&gt;&lt;br&gt;hypothetical protein&lt;br&gt;Location: 98327 - 99293" locus_tag="cds98327_99293" class="clusterblast-orf" id="dummy-2_q18_0_all"  />
<polygon points="468,40 472,35 468,30 468,40 " style="fill:white; stroke-width:1; stroke:black; " description="&lt;b&gt;cds99289_99628&lt;/b&gt;&lt;br&gt;hypothetical protein&lt;br&gt;Location: 99289 - 99628" locus_tag="cds99289_99628" class="clusterblast-orf" id="dummy-2_q19_0_all"  />
<polygon points="472,35 477,30 488,30 488,40 477,40 472,35 " style="fill:white; stroke-width:1; stroke:black; " description="&lt;b&gt;cds99681_101172&lt;/b&gt;&lt;br&gt;Non-reducing end alpha-L-arabinofuranosidase BoGH43A&lt;br&gt;Location: 99681 - 101172" locus_tag="cds99681_101172" class="clusterblast-orf" id="dummy-2_q20_0_all"  />
<polygon points="491,35 496,30 516,30 516,40 496,40 491,35 " style="fill:white; stroke-width:1; stroke:black; " description="&lt;b&gt;cds101484_103833&lt;/b&gt;&lt;br&gt;hypothetical protein&lt;br&gt;Location: 101484 - 103833" locus_tag="cds101484_103833" class="clusterblast-orf" id="dummy-2_q21_0_all"  />
</g>
<g label="BGC0000031" description="BGC0000031_c1: borrelidin (4% of genes show similarity), Polyketide:Modular type I" class="clusterblast-cluster"  >
<text x="5" y="70" class="clusterblast-acc"  >
<a xlink:href="https://mibig.secondarymetabolites.org/go/BGC0000031/1" target="_blank">BGC0000031</a>:                                                                       borrelidin (4% of genes show similarity), Polyketide:Modular type I</text>
<line x1="10" y1="85" x2="778.0" y2="85" style="stroke-width:1; stroke:grey; "  />
</g>
<g id="a2_000"  >
<polygon points="0,90 3,85 0,80 0,90 " style="fill:white; stroke-width:1; stroke:black; " description="&lt;b&gt;CAE45653.1&lt;/b&gt;&lt;br&gt;hypothetical protein&lt;br&gt;Location: 2 - 313" locus_tag="CAE45653.1" class="clusterblast-orf" id="dummy-2_h2_6_0"  />
</g>
<g id="a2_001"  >
<polygon points="5,90 27,90 32,85 27,80 5,80 5,90 " style="fill:white; stroke-width:1; stroke:black; " description="&lt;b&gt;CAE45654.1&lt;/b&gt;&lt;br&gt;hypothetical protein&lt;br&gt;Location: 501 - 3107" locus_tag="CAE45654.1" class="clusterblast-orf" id="dummy-2_h2_6_1"  />
</g>
<g id="a2_002"  >
<polygon points="33,85 38,80 39,80 39,90 38,90 33,85 " style="fill:white; stroke-width:1; stroke:black; " description="&lt;b&gt;CAE45655.1&lt;/b&gt;&lt;br&gt;hypothetical protein&lt;br&gt;Location: 3172 - 3810" locus_tag="CAE45655.1" class="clusterblast-orf" id="dummy-2_h2_6_2"  />
</g>
<g id="a2_003"  >
<polygon points="41,85 46,80 51,80 51,90 46,90 41,85 " style="fill:white; stroke-width:1; stroke:black; " description="&lt;b&gt;CAE45656.1&lt;/b&gt;&lt;br&gt;hypothetical protein&lt;br&gt;Location: 3935 - 4924" locus_tag="CAE45656.1" class="clusterblast-orf" id="dummy-2_h2_6_3"  />
</g>
<g id="a2_004"  >
<polygon points="53,90 57,90 62,85 57,80 53,80 53,90 " style="fill:white; stroke-width:1; stroke:black; " description="&lt;b&gt;CAE45657.1&lt;/b&gt;&lt;br&gt;hypothetical protein&lt;br&gt;Location: 5123 - 5953" locus_tag="CAE45657.1" class="clusterblast-orf" id="dummy-2_h2_6_4"  />
</g>
<g id="a2_005"  >
<polygon points="62,85 67,80 68,80 68,90 67,90 62,85 " style="fill:#d81597; stroke-width:1; stroke:black; " description="&lt;b&gt;CAE45658.1&lt;/b&gt;&lt;br&gt;hypothetical protein&lt;br&gt;Location: 5961 - 6518&lt;br&gt;&lt;br&gt;&lt;b&gt;BlastP hit with cds97714_98203&lt;/b&gt;&lt;br&gt;Percentage identity: 77&lt;br&gt;Percentage coverage: 91&lt;br&gt;BLAST bit score: 214&lt;br&gt;E-value: 1.4e-55" locus_tag="CAE45658.1" class="clusterblast-orf" id="dummy-2_h2_6_5"  />
</g>
<g id="a2_006"  >
<polygon points="68,90 73,90 78,85 73,80 68,80 68,90 " style="fill:#97d815; stroke-width:1; stroke:black; " description="&lt;b&gt;CAE45659.1&lt;/b&gt;&lt;br&gt;hypothetical protein&lt;br&gt;Location: 6567 - 7538&lt;br&gt;&lt;br&gt;&lt;b&gt;BlastP hit with cds98327_99293&lt;/b&gt;&lt;br&gt;Percentage identity: 73&lt;br&gt;Percentage coverage: 97&lt;br&gt;BLAST bit score: 480&lt;br&gt;E-value: 2.1e-135" locus_tag="CAE45659.1" class="clusterblast-orf" id="dummy-2_h2_6_6"  />
</g>
<g id="a2_007"  >
<polygon points="79,85 84,80 87,80 87,90 84,90 79,85 " style="fill:white; stroke-width:1; stroke:black; " description="&lt;b&gt;CAE45660.1&lt;/b&gt;&lt;br&gt;thioesterase type II&lt;br&gt;Location: 7603 - 8397" locus_tag="CAE45660.1" class="clusterblast-orf" id="dummy-2_h2_6_7"  />
</g>
<g id="a2_008"  >
<polygon points="87,85 92,80 96,80 96,90 92,90 87,85 " style="fill:white; stroke-width:1; stroke:black; " description="&lt;b&gt;CAE45661.1&lt;/b&gt;&lt;br&gt;putative ketoreductase&lt;br&gt;Location: 8397 - 9194" locus_tag="CAE45661.1" class="clusterblast-orf" id="dummy-2_h2_6_8"  />
</g>
<g id="a2_009"  >
<polygon points="96,85 101,80 104,80 104,90 101,90 96,85 " style="fill:white; stroke-width:1; stroke:black; " description="&lt;b&gt;CAE45662.1&lt;/b&gt;&lt;br&gt;putative ketoreductase&lt;br&gt;Location: 9244 - 9996" locus_tag="CAE45662.1" class="clusterblast-orf" id="dummy-2_h2_6_9"  />
</g>
<g id="a2_0010"  >
<polygon points="104,85 109,80 116,80 116,90 109,90 104,85 " style="fill:white; stroke-width:1; stroke:black; " description="&lt;b&gt;CAE45663.1&lt;/b&gt;&lt;br&gt;putative muconate cyclo-isomerase/lactamase&lt;br&gt;Location: 9993 - 11165" locus_tag="CAE45663.1" class="clusterblast-orf" id="dummy-2_h2_6_10"  />
</g>
<g id="a2_0011"  >
<polygon points="116,85 121,80 125,80 125,90 121,90 116,85 " style="fill:white; stroke-width:1; stroke:black; " description="&lt;b&gt;CAE45664.1&lt;/b&gt;&lt;br&gt;hypothetical protein&lt;br&gt;Location: 11162 - 11980" locus_tag="CAE45664.1" class="clusterblast-orf" id="dummy-2_h2_6_11"  />
</g>
<g id="a2_0012"  >
<polygon points="125,85 130,80 142,80 142,90 130,90 125,85 " style="fill:white; stroke-width:1; stroke:black; " description="&lt;b&gt;CAE45665.1&lt;/b&gt;&lt;br&gt;putative acetolactate synthase&lt;br&gt;Location: 11992 - 13611" locus_tag="CAE45665.1" class="clusterblast-orf" id="dummy-2_h2_6_12"  />
</g>
<g id="a2_0013"  >
<polygon points="142,85 147,80 163,80 163,90 147,90 142,85 " style="fill:white; stroke-width:1; stroke:black; " description="&lt;b&gt;CAE45666.1&lt;/b&gt;&lt;br&gt;putative dehydratase&lt;br&gt;Location: 13608 - 15659" locus_tag="CAE45666.1" class="clusterblast-orf" id="dummy-2_h2_6_13"  />
</g>
<g id="a2_0014"  >
<polygon points="169,90 191,90 196,85 191,80 169,80 169,90 " style="fill:white; stroke-width:1; stroke:black; " description="&lt;b&gt;CAE45667.1&lt;/b&gt;&lt;br&gt;borrelidin polyketide synthase, type I&lt;br&gt;Location: 16184 - 18814" locus_tag="CAE45667.1" class="clusterblast-orf" id="dummy-2_h2_6_14"  />
</g>
<g id="a2_0015"  >
<polygon points="197,90 241,90 246,85 241,80 197,80 197,90 " style="fill:white; stroke-width:1; stroke:black; " description="&lt;b&gt;CAE45668.1&lt;/b&gt;&lt;br&gt;borrelidin polyketide synthase, type I&lt;br&gt;Location: 18875 - 23590" locus_tag="CAE45668.1" class="clusterblast-orf" id="dummy-2_h2_6_15"  />
</g>
<g id="a2_0016"  >
<polygon points="247,90 352,90 357,85 352,80 247,80 247,90 " style="fill:white; stroke-width:1; stroke:black; " description="&lt;b&gt;CAE45669.1&lt;/b&gt;&lt;br&gt;borrelidin polyketide synthase, type I&lt;br&gt;Location: 23686 - 34188" locus_tag="CAE45669.1" class="clusterblast-orf" id="dummy-2_h2_6_16"  />
</g>
<g id="a2_0017"  >
<polygon points="358,90 403,90 408,85 403,80 358,80 358,90 " style="fill:white; stroke-width:1; stroke:black; " description="&lt;b&gt;CAE45670.1&lt;/b&gt;&lt;br&gt;borrelidin polyketide synthase, type I&lt;br&gt;Location: 34224 - 39047" locus_tag="CAE45670.1" class="clusterblast-orf" id="dummy-2_h2_6_17"  />
</g>
<g id="a2_0018"  >
<polygon points="408,90 471,90 476,85 471,80 408,80 408,90 " style="fill:white; stroke-width:1; stroke:black; " description="&lt;b&gt;CAE45671.1&lt;/b&gt;&lt;br&gt;borrelidin polyketide synthase, type I&lt;br&gt;Location: 39044 - 45514" locus_tag="CAE45671.1" class="clusterblast-orf" id="dummy-2_h2_6_18"  />
</g>
<g id="a2_0019"  >
<polygon points="476,90 525,90 530,85 525,80 476,80 476,90 " style="fill:white; stroke-width:1; stroke:black; " description="&lt;b&gt;CAE45672.1&lt;/b&gt;&lt;br&gt;Borrelidin polyketide synthase, type I&lt;br&gt;Location: 45514 - 50742" locus_tag="CAE45672.1" class="clusterblast-orf" id="dummy-2_h2_6_19"  />
</g>
<g id="a2_0020"  >
<polygon points="530,90 539,90 544,85 539,80 530,80 530,90 " style="fill:white; stroke-width:1; stroke:black; " description="&lt;b&gt;CAE45673.1&lt;/b&gt;&lt;br&gt;putative cytochrome P450&lt;br&gt;Location: 50739 - 52019" locus_tag="CAE45673.1" class="clusterblast-orf" id="dummy-2_h2_6_20"  />
</g>
<g id="a2_0021"  >
<polygon points="545,90 554,90 559,85 554,80 545,80 545,90 " style="fill:white; stroke-width:1; stroke:black; " description="&lt;b&gt;CAE45674.1&lt;/b&gt;&lt;br&gt;putative aminotransferase&lt;br&gt;Location: 52113 - 53477" locus_tag="CAE45674.1" class="clusterblast-orf" id="dummy-2_h2_6_21"  />
</g>
<g id="a2_0022"  >
<polygon points="559,90 564,90 569,85 564,80 559,80 559,90 " style="fill:white; stroke-width:1; stroke:black; " description="&lt;b&gt;CAE45675.1&lt;/b&gt;&lt;br&gt;putative oxidoreductase&lt;br&gt;Location: 53474 - 54466" locus_tag="CAE45675.1" class="clusterblast-orf" id="dummy-2_h2_6_22"  />
</g>
<g id="a2_0023"  >
<polygon points="570,90 582,90 587,85 582,80 570,80 570,90 " style="fill:white; stroke-width:1; stroke:black; " description="&lt;b&gt;CAE45676.1&lt;/b&gt;&lt;br&gt;hypothetical protein&lt;br&gt;Location: 54506 - 56176" locus_tag="CAE45676.1" class="clusterblast-orf" id="dummy-2_h2_6_23"  />
</g>
<g id="a2_0024"  >
<polygon points="587,90 592,90 597,85 592,80 587,80 587,90 " style="fill:white; stroke-width:1; stroke:black; " description="&lt;b&gt;CAE45677.1&lt;/b&gt;&lt;br&gt;putative dehydrogenase&lt;br&gt;Location: 56181 - 57098" locus_tag="CAE45677.1" class="clusterblast-orf" id="dummy-2_h2_6_24"  />
</g>
<g id="a2_0025"  >
<polygon points="597,90 600,90 605,85 600,80 597,80 597,90 " style="fill:white; stroke-width:1; stroke:black; " description="&lt;b&gt;CAE45678.1&lt;/b&gt;&lt;br&gt;putative 2-hydroxyhept-2,4-diene-1,7-dioate isomerase&lt;br&gt;Location: 57112 - 57858" locus_tag="CAE45678.1" class="clusterblast-orf" id="dummy-2_h2_6_25"  />
</g>
<g id="a2_0026"  >
<polygon points="606,90 622,90 627,85 622,80 606,80 606,90 " style="fill:white; stroke-width:1; stroke:black; " description="&lt;b&gt;CAE45679.1&lt;/b&gt;&lt;br&gt;Threonyl-tRNA synthetase&lt;br&gt;Location: 57939 - 59966" locus_tag="CAE45679.1" class="clusterblast-orf" id="dummy-2_h2_6_26"  />
</g>
<g id="a2_0027"  >
<polygon points="629,85 633,80 633,90 629,85 " style="fill:white; stroke-width:1; stroke:black; " description="&lt;b&gt;CAE45680.1&lt;/b&gt;&lt;br&gt;hypothetical protein&lt;br&gt;Location: 60153 - 60533" locus_tag="CAE45680.1" class="clusterblast-orf" id="dummy-2_h2_6_27"  />
</g>
<g id="a2_0028"  >
<polygon points="634,90 638,85 634,80 634,90 " style="fill:white; stroke-width:1; stroke:black; " description="&lt;b&gt;CAE45681.1&lt;/b&gt;&lt;br&gt;hypothetical protein&lt;br&gt;Location: 60620 - 61003" locus_tag="CAE45681.1" class="clusterblast-orf" id="dummy-2_h2_6_28"  />
</g>
<g id="a2_0029"  >
<polygon points="640,90 642,85 640,80 640,90 " style="fill:white; stroke-width:1; stroke:black; " description="&lt;b&gt;CAE45682.1&lt;/b&gt;&lt;br&gt;hypothetical protein&lt;br&gt;Location: 61188 - 61436" locus_tag="CAE45682.1" class="clusterblast-orf" id="dummy-2_h2_6_29"  />
</g>
<g id="a2_0030"  >
<polygon points="643,90 646,85 643,80 643,90 " style="fill:white; stroke-width:1; stroke:black; " description="&lt;b&gt;CAE45683.1&lt;/b&gt;&lt;br&gt;hypothetical protein&lt;br&gt;Location: 61526 - 61738" locus_tag="CAE45683.1" class="clusterblast-orf" id="dummy-2_h2_6_30"  />
</g>
<g id="a2_0031"  >
<polygon points="646,85 651,80 651,80 651,90 651,90 646,85 " style="fill:white; stroke-width:1; stroke:black; " description="&lt;b&gt;CAE45684.1&lt;/b&gt;&lt;br&gt;hypothetical protein&lt;br&gt;Location: 61767 - 62285" locus_tag="CAE45684.1" class="clusterblast-orf" id="dummy-2_h2_6_31"  />
</g>
<g id="a2_0032"  >
<polygon points="654,85 658,80 658,90 654,85 " style="fill:white; stroke-width:1; stroke:black; " description="&lt;b&gt;CAE45685.1&lt;/b&gt;&lt;br&gt;hypothetical protein&lt;br&gt;Location: 62586 - 62885" locus_tag="CAE45685.1" class="clusterblast-orf" id="dummy-2_h2_6_32"  />
</g>
<g id="a2_0033"  >
<polygon points="658,85 660,80 660,90 658,85 " style="fill:white; stroke-width:1; stroke:black; " description="&lt;b&gt;CAE45686.1&lt;/b&gt;&lt;br&gt;hypothetical protein&lt;br&gt;Location: 62885 - 63076" locus_tag="CAE45686.1" class="clusterblast-orf" id="dummy-2_h2_6_33"  />
</g>
<g id="a2_0034"  >
<polygon points="660,85 665,80 680,80 680,90 665,90 660,85 " style="fill:white; stroke-width:1; stroke:black; " description="&lt;b&gt;CAE45687.1&lt;/b&gt;&lt;br&gt;hypothetical protein&lt;br&gt;Location: 63155 - 65071" locus_tag="CAE45687.1" class="clusterblast-orf" id="dummy-2_h2_6_34"  />
</g>
<g id="a2_0035"  >
<polygon points="684,90 684,90 689,85 684,80 684,80 684,90 " style="fill:white; stroke-width:1; stroke:black; " description="&lt;b&gt;CAE45688.1&lt;/b&gt;&lt;br&gt;hypothetical protein&lt;br&gt;Location: 65374 - 65871" locus_tag="CAE45688.1" class="clusterblast-orf" id="dummy-2_h2_6_35"  />
</g>
<g id="a2_0036"  >
<polygon points="690,85 695,80 714,80 714,90 695,90 690,85 " style="fill:white; stroke-width:1; stroke:black; " description="&lt;b&gt;CAE45689.1&lt;/b&gt;&lt;br&gt;hypothetical protein&lt;br&gt;Location: 65942 - 68293" locus_tag="CAE45689.1" class="clusterblast-orf" id="dummy-2_h2_6_36"  />
</g>
<g id="a2_0037"  >
<polygon points="714,85 719,80 720,80 720,90 719,90 714,85 " style="fill:white; stroke-width:1; stroke:black; " description="&lt;b&gt;CAE45690.1&lt;/b&gt;&lt;br&gt;hypothetical protein&lt;br&gt;Location: 68290 - 68823" locus_tag="CAE45690.1" class="clusterblast-orf" id="dummy-2_h2_6_37"  />
</g>
<g id="a2_0038"  >
<polygon points="729,90 732,90 737,85 732,80 729,80 729,90 " style="fill:white; stroke-width:1; stroke:black; " description="&lt;b&gt;CAE45691.1&lt;/b&gt;&lt;br&gt;hypothetical protein&lt;br&gt;Location: 69681 - 70436" locus_tag="CAE45691.1" class="clusterblast-orf" id="dummy-2_h2_6_38"  />
</g>
<g id="a2_0039"  >
<polygon points="737,90 746,90 751,85 746,80 737,80 737,90 " style="fill:white; stroke-width:1; stroke:black; " description="&lt;b&gt;CAE45692.1&lt;/b&gt;&lt;br&gt;hypothetical protein&lt;br&gt;Location: 70445 - 71848" locus_tag="CAE45692.1" class="clusterblast-orf" id="dummy-2_h2_6_39"  />
</g>
<g id="a2_0040"  >
<polygon points="751,90 758,90 763,85 758,80 751,80 751,90 " style="fill:white; stroke-width:1; stroke:black; " description="&lt;b&gt;CAE45693.1&lt;/b&gt;&lt;br&gt;hypothetical protein&lt;br&gt;Location: 71845 - 72957" locus_tag="CAE45693.1" class="clusterblast-orf" id="dummy-2_h2_6_40"  />
</g>
<g id="a2_0041"  >
<polygon points="764,90 768,90 773,85 768,80 764,80 764,90 " style="fill:white; stroke-width:1; stroke:black; " description="&lt;b&gt;CAE45694.1&lt;/b&gt;&lt;br&gt;hypothetical protein&lt;br&gt;Location: 73037 - 73942" locus_tag="CAE45694.1" class="clusterblast-orf" id="dummy-2_h2_6_41"  />
</g>
<g id="a2_0042"  >
<polygon points="774,85 779,80 780,80 780,90 779,90 774,85 " style="fill:white; stroke-width:1; stroke:black; " description="&lt;b&gt;CAE45695.1&lt;/b&gt;&lt;br&gt;hypothetical protein&lt;br&gt;Location: 73995 - 74537" locus_tag="CAE45695.1" class="clusterblast-orf" id="dummy-2_h2_6_42"  />
</g>
</svg>
