<svg xmlns="http://www.w3.org/2000/svg" xmlns:xlink="http://www.w3.org/1999/xlink" version="1.1" x="0" y="0" height="50" width="800" viewBox="0 0 800 50" preserveAspectRatio="none"  >
<g label="Query sequence" class="clusterblast-cluster"  >
<text x="5" y="20" class="clusterblast-acc"  >
Query sequence</text>
<line x1="10" y1="35" x2="778.0" y2="35" style="stroke-width:1; stroke:grey; "  />
<polygon points="0,40 5,40 10,35 5,30 0,30 0,40 " style="fill:white; stroke-width:1; stroke:black; " description="&lt;b&gt;cds16785_17406&lt;/b&gt;&lt;br&gt;putative protein YciO&lt;br&gt;Location: 16785 - 17406" locus_tag="cds16785_17406" class="clusterblast-orf" id="subclusterblast-1_q0_0_all"  />
<polygon points="11,40 14,35 11,30 11,40 " style="fill:white; stroke-width:1; stroke:black; " description="&lt;b&gt;cds17518_17710&lt;/b&gt;&lt;br&gt;hypothetical protein&lt;br&gt;Location: 17518 - 17710" locus_tag="cds17518_17710" class="clusterblast-orf" id="subclusterblast-1_q1_0_all"  />
<polygon points="17,40 18,40 23,35 18,30 17,30 17,40 " style="fill:white; stroke-width:1; stroke:black; " description="&lt;b&gt;cds17886_18276&lt;/b&gt;&lt;br&gt;hypothetical protein&lt;br&gt;Location: 17886 - 18276" locus_tag="cds17886_18276" class="clusterblast-orf" id="subclusterblast-1_q2_0_all"  />
<polygon points="23,35 28,30 39,30 39,40 28,40 23,35 " style="fill:white; stroke-width:1; stroke:black; " description="&lt;b&gt;cds18279_19287&lt;/b&gt;&lt;br&gt;hypothetical protein&lt;br&gt;Location: 18279 - 19287" locus_tag="cds18279_19287" class="clusterblast-orf" id="subclusterblast-1_q3_0_all"  />
<polygon points="41,35 46,30 48,30 48,40 46,40 41,35 " style="fill:white; stroke-width:1; stroke:black; " description="&lt;b&gt;cds19384_19807&lt;/b&gt;&lt;br&gt;HTH-type transcriptional regulator NmtR&lt;br&gt;Location: 19384 - 19807" locus_tag="cds19384_19807" class="clusterblast-orf" id="subclusterblast-1_q4_0_all"  />
<polygon points="49,40 76,40 81,35 76,30 49,30 49,40 " style="fill:white; stroke-width:1; stroke:black; " description="&lt;b&gt;cds19864_21892&lt;/b&gt;&lt;br&gt;putative cobalt/nickel-exporting P-type ATPase&lt;br&gt;Location: 19864 - 21892" locus_tag="cds19864_21892" class="clusterblast-orf" id="subclusterblast-1_q5_0_all"  />
<polygon points="83,40 101,40 106,35 101,30 83,30 83,40 " style="fill:white; stroke-width:1; stroke:black; " description="&lt;b&gt;cds22036_23491&lt;/b&gt;&lt;br&gt;Arginine/ornithine antiporter&lt;br&gt;Location: 22036 - 23491" locus_tag="cds22036_23491" class="clusterblast-orf" id="subclusterblast-1_q6_0_all"  />
<polygon points="108,40 123,40 128,35 123,30 108,30 108,40 " style="fill:white; stroke-width:1; stroke:black; " description="&lt;b&gt;cds23569_24835&lt;/b&gt;&lt;br&gt;Arginine deiminase&lt;br&gt;Location: 23569 - 24835" locus_tag="cds23569_24835" class="clusterblast-orf" id="subclusterblast-1_q7_0_all"  />
<polygon points="130,35 135,30 144,30 144,40 135,40 130,35 " style="fill:white; stroke-width:1; stroke:black; " description="&lt;b&gt;cds24958_25849&lt;/b&gt;&lt;br&gt;hypothetical protein&lt;br&gt;Location: 24958 - 25849" locus_tag="cds24958_25849" class="clusterblast-orf" id="subclusterblast-1_q8_0_all"  />
<polygon points="145,35 150,30 152,30 152,40 150,40 145,35 " style="fill:white; stroke-width:1; stroke:black; " description="&lt;b&gt;cds25950_26358&lt;/b&gt;&lt;br&gt;hypothetical protein&lt;br&gt;Location: 25950 - 26358" locus_tag="cds25950_26358" class="clusterblast-orf" id="subclusterblast-1_q9_0_all"  />
<polygon points="153,40 162,40 167,35 162,30 153,30 153,40 " style="fill:white; stroke-width:1; stroke:black; " description="&lt;b&gt;cds26456_27326&lt;/b&gt;&lt;br&gt;Soluble epoxide hydrolase&lt;br&gt;Location: 26456 - 27326" locus_tag="cds26456_27326" class="clusterblast-orf" id="subclusterblast-1_q10_0_all"  />
<polygon points="168,35 173,30 183,30 183,40 173,40 168,35 " style="fill:white; stroke-width:1; stroke:black; " description="&lt;b&gt;cds27380_28340&lt;/b&gt;&lt;br&gt;Acarbose 7(IV)-phosphotransferase&lt;br&gt;Location: 27380 - 28340" locus_tag="cds27380_28340" class="clusterblast-orf" id="subclusterblast-1_q11_0_all"  />
<polygon points="185,35 190,30 207,30 207,40 190,40 185,35 " style="fill:white; stroke-width:1; stroke:black; " description="&lt;b&gt;cds28457_29837&lt;/b&gt;&lt;br&gt;Alpha-amylase&lt;br&gt;Location: 28457 - 29837" locus_tag="cds28457_29837" class="clusterblast-orf" id="subclusterblast-1_q12_0_all"  />
<polygon points="210,35 215,30 222,30 222,40 215,40 210,35 " style="fill:white; stroke-width:1; stroke:black; " description="&lt;b&gt;cds30005_30785&lt;/b&gt;&lt;br&gt;HTH-type transcriptional regulator XynR&lt;br&gt;Location: 30005 - 30785" locus_tag="cds30005_30785" class="clusterblast-orf" id="subclusterblast-1_q13_0_all"  />
<polygon points="226,40 235,40 240,35 235,30 226,30 226,40 " style="fill:white; stroke-width:1; stroke:black; " description="&lt;b&gt;cds31033_31933&lt;/b&gt;&lt;br&gt;Acetylglutamate kinase&lt;br&gt;Location: 31033 - 31933" locus_tag="cds31033_31933" class="clusterblast-orf" id="subclusterblast-1_q14_0_all"  />
<polygon points="241,35 246,30 249,30 249,40 246,40 241,35 " style="fill:white; stroke-width:1; stroke:black; " description="&lt;b&gt;cds31943_32462&lt;/b&gt;&lt;br&gt;hypothetical protein&lt;br&gt;Location: 31943 - 32462" locus_tag="cds31943_32462" class="clusterblast-orf" id="subclusterblast-1_q15_0_all"  />
<polygon points="251,40 265,40 270,35 265,30 251,30 251,40 " style="fill:white; stroke-width:1; stroke:black; " description="&lt;b&gt;cds32619_33765&lt;/b&gt;&lt;br&gt;Enterochelin esterase&lt;br&gt;Location: 32619 - 33765" locus_tag="cds32619_33765" class="clusterblast-orf" id="subclusterblast-1_q16_0_all"  />
<polygon points="270,35 275,30 297,30 297,40 275,40 270,35 " style="fill:white; stroke-width:1; stroke:black; " description="&lt;b&gt;cds33768_35469&lt;/b&gt;&lt;br&gt;hypothetical protein&lt;br&gt;Location: 33768 - 35469" locus_tag="cds33768_35469" class="clusterblast-orf" id="subclusterblast-1_q17_0_all"  />
<polygon points="296,35 301,30 470,30 470,40 301,40 296,35 " style="fill:white; stroke-width:1; stroke:black; " description="&lt;b&gt;cds35455_46369&lt;/b&gt;&lt;br&gt;D-alanine--D-alanyl carrier protein ligase&lt;br&gt;Location: 35455 - 46369" locus_tag="cds35455_46369" class="clusterblast-orf" id="subclusterblast-1_q18_0_all"  />
<polygon points="471,35 476,30 500,30 500,40 476,40 471,35 " style="fill:white; stroke-width:1; stroke:black; " description="&lt;b&gt;cds46437_48228&lt;/b&gt;&lt;br&gt;Putative multidrug export ATP-binding/permease protein&lt;br&gt;Location: 46437 - 48228" locus_tag="cds46437_48228" class="clusterblast-orf" id="subclusterblast-1_q19_0_all"  />
<polygon points="500,35 505,30 517,30 517,40 505,40 500,35 " style="fill:white; stroke-width:1; stroke:black; " description="&lt;b&gt;cds48271_49324&lt;/b&gt;&lt;br&gt;Putative ABC transporter substrate-binding lipoprotein YhfQ&lt;br&gt;Location: 48271 - 49324" locus_tag="cds48271_49324" class="clusterblast-orf" id="subclusterblast-1_q20_0_all"  />
<polygon points="519,35 524,30 533,30 533,40 524,40 519,35 " style="fill:white; stroke-width:1; stroke:black; " description="&lt;b&gt;cds49441_50329&lt;/b&gt;&lt;br&gt;putative siderophore transport system ATP-binding protein YusV&lt;br&gt;Location: 49441 - 50329" locus_tag="cds49441_50329" class="clusterblast-orf" id="subclusterblast-1_q21_0_all"  />
<polygon points="533,35 538,30 550,30 550,40 538,40 533,35 " style="fill:white; stroke-width:1; stroke:black; " description="&lt;b&gt;cds50325_51387&lt;/b&gt;&lt;br&gt;putative siderophore transport system permease protein YfhA&lt;br&gt;Location: 50325 - 51387" locus_tag="cds50325_51387" class="clusterblast-orf" id="subclusterblast-1_q22_0_all"  />
<polygon points="550,35 555,30 565,30 565,40 555,40 550,35 " style="fill:white; stroke-width:1; stroke:black; " description="&lt;b&gt;cds51383_52370&lt;/b&gt;&lt;br&gt;Ferric enterobactin transport system permease protein FepD&lt;br&gt;Location: 51383 - 52370" locus_tag="cds51383_52370" class="clusterblast-orf" id="subclusterblast-1_q23_0_all"  />
<polygon points="568,35 573,30 589,30 589,40 573,40 568,35 " style="fill:white; stroke-width:1; stroke:black; " description="&lt;b&gt;cds52527_53883&lt;/b&gt;&lt;br&gt;L-ornithine N(5)-monooxygenase&lt;br&gt;Location: 52527 - 53883" locus_tag="cds52527_53883" class="clusterblast-orf" id="subclusterblast-1_q24_0_all"  />
<polygon points="594,40 613,40 618,35 613,30 594,30 594,40 " style="fill:white; stroke-width:1; stroke:black; " description="&lt;b&gt;cds54199_55654&lt;/b&gt;&lt;br&gt;Undecaprenyl-phosphate 4-deoxy-4-formamido-L-arabinose transferase&lt;br&gt;Location: 54199 - 55654" locus_tag="cds54199_55654" class="clusterblast-orf" id="subclusterblast-1_q25_0_all"  />
<polygon points="618,40 637,40 642,35 637,30 618,30 618,40 " style="fill:white; stroke-width:1; stroke:black; " description="&lt;b&gt;cds55660_57193&lt;/b&gt;&lt;br&gt;hypothetical protein&lt;br&gt;Location: 55660 - 57193" locus_tag="cds55660_57193" class="clusterblast-orf" id="subclusterblast-1_q26_0_all"  />
<polygon points="643,40 653,40 658,35 653,30 643,30 643,40 " style="fill:white; stroke-width:1; stroke:black; " description="&lt;b&gt;cds57276_58224&lt;/b&gt;&lt;br&gt;hypothetical protein&lt;br&gt;Location: 57276 - 58224" locus_tag="cds57276_58224" class="clusterblast-orf" id="subclusterblast-1_q27_0_all"  />
<polygon points="658,40 660,40 665,35 660,30 658,30 658,40 " style="fill:white; stroke-width:1; stroke:black; " description="&lt;b&gt;cds58225_58621&lt;/b&gt;&lt;br&gt;hypothetical protein&lt;br&gt;Location: 58225 - 58621" locus_tag="cds58225_58621" class="clusterblast-orf" id="subclusterblast-1_q28_0_all"  />
<polygon points="668,40 693,40 698,35 693,30 668,30 668,40 " style="fill:white; stroke-width:1; stroke:black; " description="&lt;b&gt;cds58822_60700&lt;/b&gt;&lt;br&gt;hypothetical protein&lt;br&gt;Location: 58822 - 60700" locus_tag="cds58822_60700" class="clusterblast-orf" id="subclusterblast-1_q29_0_all"  />
<polygon points="699,35 704,30 716,30 716,40 704,40 699,35 " style="fill:white; stroke-width:1; stroke:black; " description="&lt;b&gt;cds60755_61859&lt;/b&gt;&lt;br&gt;Putative transport protein&lt;br&gt;Location: 60755 - 61859" locus_tag="cds60755_61859" class="clusterblast-orf" id="subclusterblast-1_q30_0_all"  />
<polygon points="723,35 728,30 732,30 732,40 728,40 723,35 " style="fill:white; stroke-width:1; stroke:black; " description="&lt;b&gt;cds62270_62840&lt;/b&gt;&lt;br&gt;hypothetical protein&lt;br&gt;Location: 62270 - 62840" locus_tag="cds62270_62840" class="clusterblast-orf" id="subclusterblast-1_q31_0_all"  />
<polygon points="734,40 743,40 748,35 743,30 734,30 734,40 " style="fill:white; stroke-width:1; stroke:black; " description="&lt;b&gt;cds62951_63863&lt;/b&gt;&lt;br&gt;hypothetical protein&lt;br&gt;Location: 62951 - 63863" locus_tag="cds62951_63863" class="clusterblast-orf" id="subclusterblast-1_q32_0_all"  />
<polygon points="749,35 754,30 768,30 768,40 754,40 749,35 " style="fill:white; stroke-width:1; stroke:black; " description="&lt;b&gt;cds63902_65108&lt;/b&gt;&lt;br&gt;Oleandomycin glycosyltransferase&lt;br&gt;Location: 63902 - 65108" locus_tag="cds63902_65108" class="clusterblast-orf" id="subclusterblast-1_q33_0_all"  />
<polygon points="769,35 774,30 780,30 780,40 774,40 769,35 " style="fill:white; stroke-width:1; stroke:black; " description="&lt;b&gt;cds65192_65846&lt;/b&gt;&lt;br&gt;Streptogramin A acetyltransferase&lt;br&gt;Location: 65192 - 65846" locus_tag="cds65192_65846" class="clusterblast-orf" id="subclusterblast-1_q34_0_all"  />
</g>
</svg>
