<svg xmlns="http://www.w3.org/2000/svg" xmlns:xlink="http://www.w3.org/1999/xlink" version="1.1" x="0" y="0" height="50" width="800" viewBox="0 0 800 50" preserveAspectRatio="none"  >
<g label="Query sequence" class="clusterblast-cluster"  >
<text x="5" y="20" class="clusterblast-acc"  >
Query sequence</text>
<line x1="10" y1="35" x2="778.0" y2="35" style="stroke-width:1; stroke:grey; "  />
<polygon points="0,35 5,30 83,30 83,40 5,40 0,35 " style="fill:white; stroke-width:1; stroke:black; " description="&lt;b&gt;cds121_1342&lt;/b&gt;&lt;br&gt;hypothetical protein&lt;br&gt;Location: 121 - 1342" locus_tag="cds121_1342" class="clusterblast-orf" id="subclusterblast-1_q0_0_all"  />
<polygon points="105,40 195,40 200,35 195,30 105,30 105,40 " style="fill:white; stroke-width:1; stroke:black; " description="&lt;b&gt;cds1671_3063&lt;/b&gt;&lt;br&gt;Diaminobutyrate--2-oxoglutarate aminotransferase&lt;br&gt;Location: 1671 - 3063" locus_tag="cds1671_3063" class="clusterblast-orf" id="subclusterblast-1_q1_0_all"  />
<polygon points="202,40 327,40 332,35 327,30 202,30 202,40 " style="fill:white; stroke-width:1; stroke:black; " description="&lt;b&gt;cds3091_5014&lt;/b&gt;&lt;br&gt;N(2)-citryl-N(6)-acetyl-N(6)-hydroxylysine synthase&lt;br&gt;Location: 3091 - 5014" locus_tag="cds3091_5014" class="clusterblast-orf" id="subclusterblast-1_q2_0_all"  />
<polygon points="334,40 378,40 383,35 378,30 334,30 334,40 " style="fill:white; stroke-width:1; stroke:black; " description="&lt;b&gt;cds5045_5765&lt;/b&gt;&lt;br&gt;hypothetical protein&lt;br&gt;Location: 5045 - 5765" locus_tag="cds5045_5765" class="clusterblast-orf" id="subclusterblast-1_q3_0_all"  />
<polygon points="387,40 508,40 513,35 508,30 387,30 387,40 " style="fill:white; stroke-width:1; stroke:black; " description="&lt;b&gt;cds5825_7685&lt;/b&gt;&lt;br&gt;Aerobactin synthase&lt;br&gt;Location: 5825 - 7685" locus_tag="cds5825_7685" class="clusterblast-orf" id="subclusterblast-1_q4_0_all"  />
<polygon points="517,40 645,40 650,35 645,30 517,30 517,40 " style="fill:white; stroke-width:1; stroke:black; " description="&lt;b&gt;cds7735_9703&lt;/b&gt;&lt;br&gt;putative ATP-dependent helicase DinG&lt;br&gt;Location: 7735 - 9703" locus_tag="cds7735_9703" class="clusterblast-orf" id="subclusterblast-1_q5_0_all"  />
<polygon points="655,35 660,30 709,30 709,40 660,40 655,35 " style="fill:white; stroke-width:1; stroke:black; " description="&lt;b&gt;cds9772_10570&lt;/b&gt;&lt;br&gt;LexA repressor&lt;br&gt;Location: 9772 - 10570" locus_tag="cds9772_10570" class="clusterblast-orf" id="subclusterblast-1_q6_0_all"  />
<polygon points="745,40 775,40 780,35 775,30 745,30 745,40 " style="fill:white; stroke-width:1; stroke:black; " description="&lt;b&gt;cds11104_11620&lt;/b&gt;&lt;br&gt;Transcriptional repressor NrdR&lt;br&gt;Location: 11104 - 11620" locus_tag="cds11104_11620" class="clusterblast-orf" id="subclusterblast-1_q7_0_all"  />
</g>
</svg>
