<svg xmlns="http://www.w3.org/2000/svg" xmlns:xlink="http://www.w3.org/1999/xlink" version="1.1" x="0" y="0" height="50" width="800" viewBox="0 0 800 50" preserveAspectRatio="none"  >
<g label="Query sequence" class="clusterblast-cluster"  >
<text x="5" y="20" class="clusterblast-acc"  >
Query sequence</text>
<line x1="10" y1="35" x2="778.0" y2="35" style="stroke-width:1; stroke:grey; "  />
<polygon points="0,35 5,30 82,30 82,40 5,40 0,35 " style="fill:white; stroke-width:1; stroke:black; " description="&lt;b&gt;cds79964_80822&lt;/b&gt;&lt;br&gt;hypothetical protein&lt;br&gt;Location: 79964 - 80822" locus_tag="cds79964_80822" class="clusterblast-orf" id="subclusterblast-1_q0_0_all"  />
<polygon points="94,40 124,40 129,35 124,30 94,30 94,40 " style="fill:white; stroke-width:1; stroke:black; " description="&lt;b&gt;cds80948_81314&lt;/b&gt;&lt;br&gt;hypothetical protein&lt;br&gt;Location: 80948 - 81314" locus_tag="cds80948_81314" class="clusterblast-orf" id="subclusterblast-1_q1_0_all"  />
<polygon points="126,35 131,30 198,30 198,40 131,40 126,35 " style="fill:white; stroke-width:1; stroke:black; " description="&lt;b&gt;cds81291_82041&lt;/b&gt;&lt;br&gt;hypothetical protein&lt;br&gt;Location: 81291 - 82041" locus_tag="cds81291_82041" class="clusterblast-orf" id="subclusterblast-1_q2_0_all"  />
<polygon points="206,35 211,30 268,30 268,40 211,40 206,35 " style="fill:white; stroke-width:1; stroke:black; " description="&lt;b&gt;cds82134_82779&lt;/b&gt;&lt;br&gt;A-factor receptor protein&lt;br&gt;Location: 82134 - 82779" locus_tag="cds82134_82779" class="clusterblast-orf" id="subclusterblast-1_q3_0_all"  />
<polygon points="276,40 359,40 364,35 359,30 276,30 276,40 " style="fill:white; stroke-width:1; stroke:black; " description="&lt;b&gt;cds82870_83797&lt;/b&gt;&lt;br&gt;hypothetical protein&lt;br&gt;Location: 82870 - 83797" locus_tag="cds82870_83797" class="clusterblast-orf" id="subclusterblast-1_q4_0_all"  />
<polygon points="365,35 370,30 441,30 441,40 370,40 365,35 " style="fill:white; stroke-width:1; stroke:black; " description="&lt;b&gt;cds83803_84604&lt;/b&gt;&lt;br&gt;A-factor type gamma-butyrolactone 1'-reductase (1S-forming)&lt;br&gt;Location: 83803 - 84604" locus_tag="cds83803_84604" class="clusterblast-orf" id="subclusterblast-1_q5_0_all"  />
<polygon points="454,40 536,40 541,35 536,30 454,30 454,40 " style="fill:white; stroke-width:1; stroke:black; " description="&lt;b&gt;cds84745_85654&lt;/b&gt;&lt;br&gt;Quinone oxidoreductase 1&lt;br&gt;Location: 84745 - 85654" locus_tag="cds84745_85654" class="clusterblast-orf" id="subclusterblast-1_q6_0_all"  />
<polygon points="548,35 553,30 577,30 577,40 553,40 548,35 " style="fill:white; stroke-width:1; stroke:black; " description="&lt;b&gt;cds85734_86043&lt;/b&gt;&lt;br&gt;hypothetical protein&lt;br&gt;Location: 85734 - 86043" locus_tag="cds85734_86043" class="clusterblast-orf" id="subclusterblast-1_q7_0_all"  />
<polygon points="584,35 589,30 733,30 733,40 589,40 584,35 " style="fill:white; stroke-width:1; stroke:black; " description="&lt;b&gt;cds86108_87677&lt;/b&gt;&lt;br&gt;ATP-dependent RNA helicase DeaD&lt;br&gt;Location: 86108 - 87677" locus_tag="cds86108_87677" class="clusterblast-orf" id="subclusterblast-1_q8_0_all"  />
<polygon points="761,35 766,30 780,30 780,40 766,40 761,35 " style="fill:white; stroke-width:1; stroke:black; " description="&lt;b&gt;cds87977_88181&lt;/b&gt;&lt;br&gt;Cold shock protein ScoF&lt;br&gt;Location: 87977 - 88181" locus_tag="cds87977_88181" class="clusterblast-orf" id="subclusterblast-1_q9_0_all"  />
</g>
</svg>
