<svg xmlns="http://www.w3.org/2000/svg" xmlns:xlink="http://www.w3.org/1999/xlink" version="1.1" x="0" y="0" height="230" width="800" viewBox="0 0 800 230" preserveAspectRatio="none"  >
<g label="Query sequence" class="clusterblast-cluster"  >
<text x="5" y="20" class="clusterblast-acc"  >
Query sequence</text>
<line x1="10" y1="35" x2="778.0" y2="35" style="stroke-width:1; stroke:grey; "  />
<polygon points="0,40 22,40 27,35 22,30 0,30 0,40 " style="fill:white; stroke-width:1; stroke:black; " description="&lt;b&gt;cds188_1109&lt;/b&gt;&lt;br&gt;hypothetical protein&lt;br&gt;Location: 188 - 1109" locus_tag="cds188_1109" class="clusterblast-orf" id="dummy-1_q0_0_all"  />
<polygon points="23,35 28,30 39,30 39,40 28,40 23,35 " style="fill:#d81515; stroke-width:1; stroke:black; " description="&lt;b&gt;cds970_1519&lt;/b&gt;&lt;br&gt;FMN reductase (NADH) NtaB&lt;br&gt;Location: 970 - 1519" locus_tag="cds970_1519" class="clusterblast-orf" id="dummy-1_q1_0_all"  />
<polygon points="39,35 44,30 53,30 53,40 44,40 39,35 " style="fill:#77d815; stroke-width:1; stroke:black; " description="&lt;b&gt;cds1515_1989&lt;/b&gt;&lt;br&gt;hypothetical protein&lt;br&gt;Location: 1515 - 1989" locus_tag="cds1515_1989" class="clusterblast-orf" id="dummy-1_q2_0_all"  />
<polygon points="53,35 58,30 224,30 224,40 58,40 53,35 " style="fill:#15d8d8; stroke-width:1; stroke:black; " description="&lt;b&gt;cds1985_7793&lt;/b&gt;&lt;br&gt;hypothetical protein&lt;br&gt;Location: 1985 - 7793" locus_tag="cds1985_7793" class="clusterblast-orf" id="dummy-1_q3_0_all"  />
<polygon points="224,35 229,30 256,30 256,40 229,40 224,35 " style="fill:#7715d8; stroke-width:1; stroke:black; " description="&lt;b&gt;cds7789_8875&lt;/b&gt;&lt;br&gt;hypothetical protein&lt;br&gt;Location: 7789 - 8875" locus_tag="cds7789_8875" class="clusterblast-orf" id="dummy-1_q4_0_all"  />
<polygon points="256,35 261,30 313,30 313,40 261,40 256,35 " style="fill:#d8a715; stroke-width:1; stroke:black; " description="&lt;b&gt;cds8876_10805&lt;/b&gt;&lt;br&gt;hypothetical protein&lt;br&gt;Location: 8876 - 10805" locus_tag="cds8876_10805" class="clusterblast-orf" id="dummy-1_q5_0_all"  />
<polygon points="313,35 318,30 342,30 342,40 318,40 313,35 " style="fill:#15d846; stroke-width:1; stroke:black; " description="&lt;b&gt;cds10801_11788&lt;/b&gt;&lt;br&gt;hypothetical protein&lt;br&gt;Location: 10801 - 11788" locus_tag="cds10801_11788" class="clusterblast-orf" id="dummy-1_q6_0_all"  />
<polygon points="345,35 350,30 373,30 373,40 350,40 345,35 " style="fill:#1546d8; stroke-width:1; stroke:black; " description="&lt;b&gt;cds11883_12864&lt;/b&gt;&lt;br&gt;hypothetical protein&lt;br&gt;Location: 11883 - 12864" locus_tag="cds11883_12864" class="clusterblast-orf" id="dummy-1_q7_0_all"  />
<polygon points="378,35 383,30 391,30 391,40 383,40 378,35 " style="fill:#d815a7; stroke-width:1; stroke:black; " description="&lt;b&gt;cds13002_13446&lt;/b&gt;&lt;br&gt;putative HTH-type transcriptional regulator&lt;br&gt;Location: 13002 - 13446" locus_tag="cds13002_13446" class="clusterblast-orf" id="dummy-1_q8_0_all"  />
<polygon points="395,40 406,40 411,35 406,30 395,30 395,40 " style="fill:white; stroke-width:1; stroke:black; " description="&lt;b&gt;cds13584_14148&lt;/b&gt;&lt;br&gt;hypothetical protein&lt;br&gt;Location: 13584 - 14148" locus_tag="cds13584_14148" class="clusterblast-orf" id="dummy-1_q9_0_all"  />
<polygon points="412,40 421,40 426,35 421,30 412,30 412,40 " style="fill:white; stroke-width:1; stroke:black; " description="&lt;b&gt;cds14158_14632&lt;/b&gt;&lt;br&gt;hypothetical protein&lt;br&gt;Location: 14158 - 14632" locus_tag="cds14158_14632" class="clusterblast-orf" id="dummy-1_q10_0_all"  />
<polygon points="434,35 439,30 470,30 470,40 439,40 434,35 " style="fill:white; stroke-width:1; stroke:black; " description="&lt;b&gt;cds14902_16138&lt;/b&gt;&lt;br&gt;IS701 family transposase ISSav4&lt;br&gt;Location: 14902 - 16138" locus_tag="cds14902_16138" class="clusterblast-orf" id="dummy-1_q11_0_all"  />
<polygon points="479,40 492,40 497,35 492,30 479,30 479,40 " style="fill:white; stroke-width:1; stroke:black; " description="&lt;b&gt;cds16456_17056&lt;/b&gt;&lt;br&gt;A-factor receptor protein&lt;br&gt;Location: 16456 - 17056" locus_tag="cds16456_17056" class="clusterblast-orf" id="dummy-1_q12_0_all"  />
<polygon points="501,35 506,30 523,30 523,40 506,40 501,35 " style="fill:white; stroke-width:1; stroke:black; " description="&lt;b&gt;cds17181_17952&lt;/b&gt;&lt;br&gt;A-factor type gamma-butyrolactone 1'-reductase (1S-forming)&lt;br&gt;Location: 17181 - 17952" locus_tag="cds17181_17952" class="clusterblast-orf" id="dummy-1_q13_0_all"  />
<polygon points="528,35 533,30 547,30 547,40 533,40 528,35 " style="fill:white; stroke-width:1; stroke:black; " description="&lt;b&gt;cds18115_18766&lt;/b&gt;&lt;br&gt;A-factor receptor protein&lt;br&gt;Location: 18115 - 18766" locus_tag="cds18115_18766" class="clusterblast-orf" id="dummy-1_q14_0_all"  />
<polygon points="551,40 573,40 578,35 573,30 551,30 551,40 " style="fill:white; stroke-width:1; stroke:black; " description="&lt;b&gt;cds18885_19803&lt;/b&gt;&lt;br&gt;hypothetical protein&lt;br&gt;Location: 18885 - 19803" locus_tag="cds18885_19803" class="clusterblast-orf" id="dummy-1_q15_0_all"  />
<polygon points="588,40 626,40 631,35 626,30 588,30 588,40 " style="fill:white; stroke-width:1; stroke:black; " description="&lt;b&gt;cds20145_21585&lt;/b&gt;&lt;br&gt;hypothetical protein&lt;br&gt;Location: 20145 - 21585" locus_tag="cds20145_21585" class="clusterblast-orf" id="dummy-1_q16_0_all"  />
<polygon points="637,35 642,30 650,30 650,40 642,40 637,35 " style="fill:white; stroke-width:1; stroke:black; " description="&lt;b&gt;cds21807_22245&lt;/b&gt;&lt;br&gt;hypothetical protein&lt;br&gt;Location: 21807 - 22245" locus_tag="cds21807_22245" class="clusterblast-orf" id="dummy-1_q17_0_all"  />
<polygon points="653,35 658,30 679,30 679,40 658,40 653,35 " style="fill:white; stroke-width:1; stroke:black; " description="&lt;b&gt;cds22347_23226&lt;/b&gt;&lt;br&gt;hypothetical protein&lt;br&gt;Location: 22347 - 23226" locus_tag="cds22347_23226" class="clusterblast-orf" id="dummy-1_q18_0_all"  />
<polygon points="690,35 695,30 702,30 702,40 695,40 690,35 " style="fill:white; stroke-width:1; stroke:black; " description="&lt;b&gt;cds23601_24003&lt;/b&gt;&lt;br&gt;hypothetical protein&lt;br&gt;Location: 23601 - 24003" locus_tag="cds23601_24003" class="clusterblast-orf" id="dummy-1_q19_0_all"  />
<polygon points="702,35 707,30 747,30 747,40 707,40 702,35 " style="fill:white; stroke-width:1; stroke:black; " description="&lt;b&gt;cds23999_25532&lt;/b&gt;&lt;br&gt;hypothetical protein&lt;br&gt;Location: 23999 - 25532" locus_tag="cds23999_25532" class="clusterblast-orf" id="dummy-1_q20_0_all"  />
<polygon points="747,35 752,30 780,30 780,40 752,40 747,35 " style="fill:white; stroke-width:1; stroke:black; " description="&lt;b&gt;cds25521_26649&lt;/b&gt;&lt;br&gt;hypothetical protein&lt;br&gt;Location: 25521 - 26649" locus_tag="cds25521_26649" class="clusterblast-orf" id="dummy-1_q21_0_all"  />
</g>
<g label="AY117439" description="AY117439_c3: neocarzinostatin enediyne (66% of genes show similarity), enediyne" class="clusterblast-cluster"  >
<text x="5" y="70" class="clusterblast-acc"  >
AY117439_c3: neocarzinostatin enediyne (66% of genes show similarity), enediyne</text>
<line x1="10" y1="85" x2="778.0" y2="85" style="stroke-width:1; stroke:grey; "  />
</g>
<g id="a1_000"  >
<polygon points="105,85 110,80 129,80 129,90 110,90 105,85 " style="fill:white; stroke-width:1; stroke:black; " description="&lt;b&gt;AY117439_3_ncsE11&lt;/b&gt;&lt;br&gt;unknown&lt;br&gt;Location: 44775 - 45578" locus_tag="AY117439_3_ncsE11" class="clusterblast-orf" id="dummy-1_h1_1_0"  />
</g>
<g id="a1_001"  >
<polygon points="133,85 138,80 182,80 182,90 138,90 133,85 " style="fill:white; stroke-width:1; stroke:black; " description="&lt;b&gt;AY117439_3_ncsE9&lt;/b&gt;&lt;br&gt;oxidoreductase&lt;br&gt;Location: 45715 - 47373" locus_tag="AY117439_3_ncsE9" class="clusterblast-orf" id="dummy-1_h1_1_1"  />
</g>
<g id="a1_002"  >
<polygon points="182,85 187,80 199,80 199,90 187,90 182,85 " style="fill:white; stroke-width:1; stroke:black; " description="&lt;b&gt;AY117439_3_ncsE8&lt;/b&gt;&lt;br&gt;unknown&lt;br&gt;Location: 47370 - 47969" locus_tag="AY117439_3_ncsE8" class="clusterblast-orf" id="dummy-1_h1_1_2"  />
</g>
<g id="a1_003"  >
<polygon points="265,85 270,80 305,80 305,90 270,90 265,85 " style="fill:white; stroke-width:1; stroke:black; " description="&lt;b&gt;AY117439_3_ncsE7&lt;/b&gt;&lt;br&gt;cytochrome P-450&lt;br&gt;Location: 50199 - 51551" locus_tag="AY117439_3_ncsE7" class="clusterblast-orf" id="dummy-1_h1_1_3"  />
</g>
<g id="a1_004"  >
<polygon points="305,85 310,80 321,80 321,90 310,90 305,85 " style="fill:#d81515; stroke-width:1; stroke:black; " description="&lt;b&gt;AY117439_3_ncsE6&lt;/b&gt;&lt;br&gt;monooxygenase&lt;br&gt;Location: 51548 - 52096&lt;br&gt;&lt;br&gt;&lt;b&gt;BlastP hit with cds970_1519&lt;/b&gt;&lt;br&gt;Percentage identity: 62&lt;br&gt;Percentage coverage: 91&lt;br&gt;BLAST bit score: 186&lt;br&gt;E-value: 3.6e-62" locus_tag="AY117439_3_ncsE6" class="clusterblast-orf" id="dummy-1_h1_1_4"  />
</g>
<g id="a1_005"  >
<polygon points="321,85 326,80 334,80 334,90 326,90 321,85 " style="fill:#77d815; stroke-width:1; stroke:black; " description="&lt;b&gt;AY117439_3_ncsE10&lt;/b&gt;&lt;br&gt;thioesterase&lt;br&gt;Location: 52093 - 52554&lt;br&gt;&lt;br&gt;&lt;b&gt;BlastP hit with cds1515_1989&lt;/b&gt;&lt;br&gt;Percentage identity: 51&lt;br&gt;Percentage coverage: 94&lt;br&gt;BLAST bit score: 150&lt;br&gt;E-value: 3.43e-49" locus_tag="AY117439_3_ncsE10" class="clusterblast-orf" id="dummy-1_h1_1_5"  />
</g>
<g id="a1_006"  >
<polygon points="334,85 339,80 509,80 509,90 339,90 334,85 " style="fill:#15d8d8; stroke-width:1; stroke:black; " description="&lt;b&gt;AY117439_3_ncsE&lt;/b&gt;&lt;br&gt;warhead-forming iterative polyketide synthase&lt;br&gt;Location: 52544 - 58477&lt;br&gt;&lt;br&gt;&lt;b&gt;BlastP hit with cds1985_7793&lt;/b&gt;&lt;br&gt;Percentage identity: 70&lt;br&gt;Percentage coverage: 101&lt;br&gt;BLAST bit score: 2649&lt;br&gt;E-value: 0.0" locus_tag="AY117439_3_ncsE" class="clusterblast-orf" id="dummy-1_h1_1_6"  />
</g>
<g id="a1_007"  >
<polygon points="509,85 514,80 541,80 541,90 514,90 509,85 " style="fill:#7715d8; stroke-width:1; stroke:black; " description="&lt;b&gt;AY117439_3_ncsE5&lt;/b&gt;&lt;br&gt;putative transporter&lt;br&gt;Location: 58474 - 59568&lt;br&gt;&lt;br&gt;&lt;b&gt;BlastP hit with cds7789_8875&lt;/b&gt;&lt;br&gt;Percentage identity: 67&lt;br&gt;Percentage coverage: 98&lt;br&gt;BLAST bit score: 456&lt;br&gt;E-value: 5.36e-163" locus_tag="AY117439_3_ncsE5" class="clusterblast-orf" id="dummy-1_h1_1_7"  />
</g>
<g id="a1_008"  >
<polygon points="541,85 546,80 597,80 597,90 546,90 541,85 " style="fill:#d8a715; stroke-width:1; stroke:black; " description="&lt;b&gt;AY117439_3_ncsE4&lt;/b&gt;&lt;br&gt;unknown&lt;br&gt;Location: 59565 - 61475&lt;br&gt;&lt;br&gt;&lt;b&gt;BlastP hit with cds8876_10805&lt;/b&gt;&lt;br&gt;Percentage identity: 67&lt;br&gt;Percentage coverage: 100&lt;br&gt;BLAST bit score: 890&lt;br&gt;E-value: 0.0" locus_tag="AY117439_3_ncsE4" class="clusterblast-orf" id="dummy-1_h1_1_8"  />
</g>
<g id="a1_009"  >
<polygon points="597,85 602,80 626,80 626,90 602,90 597,85 " style="fill:#15d846; stroke-width:1; stroke:black; " description="&lt;b&gt;AY117439_3_ncsE3&lt;/b&gt;&lt;br&gt;unknown&lt;br&gt;Location: 61472 - 62458&lt;br&gt;&lt;br&gt;&lt;b&gt;BlastP hit with cds10801_11788&lt;/b&gt;&lt;br&gt;Percentage identity: 61&lt;br&gt;Percentage coverage: 98&lt;br&gt;BLAST bit score: 377&lt;br&gt;E-value: 4.35e-133" locus_tag="AY117439_3_ncsE3" class="clusterblast-orf" id="dummy-1_h1_1_9"  />
</g>
<g id="a1_0010"  >
<polygon points="629,85 634,80 658,80 658,90 634,90 629,85 " style="fill:#1546d8; stroke-width:1; stroke:black; " description="&lt;b&gt;AY117439_3_ncsE2&lt;/b&gt;&lt;br&gt;unknown&lt;br&gt;Location: 62542 - 63522&lt;br&gt;&lt;br&gt;&lt;b&gt;BlastP hit with cds11883_12864&lt;/b&gt;&lt;br&gt;Percentage identity: 67&lt;br&gt;Percentage coverage: 100&lt;br&gt;BLAST bit score: 414&lt;br&gt;E-value: 9.61e-148" locus_tag="AY117439_3_ncsE2" class="clusterblast-orf" id="dummy-1_h1_1_10"  />
</g>
<g id="a1_0011"  >
<polygon points="661,85 666,80 674,80 674,90 666,90 661,85 " style="fill:#d815a7; stroke-width:1; stroke:black; " description="&lt;b&gt;AY117439_3_ncsE1&lt;/b&gt;&lt;br&gt;unknown&lt;br&gt;Location: 63625 - 64068&lt;br&gt;&lt;br&gt;&lt;b&gt;BlastP hit with cds13002_13446&lt;/b&gt;&lt;br&gt;Percentage identity: 72&lt;br&gt;Percentage coverage: 100&lt;br&gt;BLAST bit score: 217&lt;br&gt;E-value: 1.29e-75" locus_tag="AY117439_3_ncsE1" class="clusterblast-orf" id="dummy-1_h1_1_11"  />
</g>
</svg>
