<svg xmlns="http://www.w3.org/2000/svg" xmlns:xlink="http://www.w3.org/1999/xlink" version="1.1" x="0" y="0" height="50" width="800" viewBox="0 0 800 50" preserveAspectRatio="none"  >
<g label="Query sequence" class="clusterblast-cluster"  >
<text x="5" y="20" class="clusterblast-acc"  >
Query sequence</text>
<line x1="10" y1="35" x2="778.0" y2="35" style="stroke-width:1; stroke:grey; "  />
<polygon points="1,35 6,30 119,30 119,40 6,40 1,35 " style="fill:white; stroke-width:1; stroke:black; " description="&lt;b&gt;cds126_1020&lt;/b&gt;&lt;br&gt;Ectoine dioxygenase&lt;br&gt;Location: 126 - 1020" locus_tag="cds126_1020" class="clusterblast-orf" id="subclusterblast-1_q0_0_all"  />
<polygon points="120,35 125,30 172,30 172,40 125,40 120,35 " style="fill:white; stroke-width:1; stroke:black; " description="&lt;b&gt;cds1023_1422&lt;/b&gt;&lt;br&gt;L-ectoine synthase&lt;br&gt;Location: 1023 - 1422" locus_tag="cds1023_1422" class="clusterblast-orf" id="subclusterblast-1_q1_0_all"  />
<polygon points="181,35 186,30 348,30 348,40 186,40 181,35 " style="fill:white; stroke-width:1; stroke:black; " description="&lt;b&gt;cds1485_2748&lt;/b&gt;&lt;br&gt;Diaminobutyrate--2-oxoglutarate transaminase&lt;br&gt;Location: 1485 - 2748" locus_tag="cds1485_2748" class="clusterblast-orf" id="subclusterblast-1_q2_0_all"  />
<polygon points="361,35 366,30 430,30 430,40 366,40 361,35 " style="fill:white; stroke-width:1; stroke:black; " description="&lt;b&gt;cds2845_3370&lt;/b&gt;&lt;br&gt;L-2,4-diaminobutyric acid acetyltransferase&lt;br&gt;Location: 2845 - 3370" locus_tag="cds2845_3370" class="clusterblast-orf" id="subclusterblast-1_q3_0_all"  />
<polygon points="475,35 480,30 622,30 622,40 480,40 475,35 " style="fill:white; stroke-width:1; stroke:black; " description="&lt;b&gt;cds3707_4814&lt;/b&gt;&lt;br&gt;Pyridoxamine--pyruvate transaminase&lt;br&gt;Location: 3707 - 4814" locus_tag="cds3707_4814" class="clusterblast-orf" id="subclusterblast-1_q4_0_all"  />
<polygon points="635,40 776,40 781,35 776,30 635,30 635,40 " style="fill:white; stroke-width:1; stroke:black; " description="&lt;b&gt;cds4914_6015&lt;/b&gt;&lt;br&gt;putative protein&lt;br&gt;Location: 4914 - 6015" locus_tag="cds4914_6015" class="clusterblast-orf" id="subclusterblast-1_q5_0_all"  />
</g>
</svg>
