<svg xmlns="http://www.w3.org/2000/svg" xmlns:xlink="http://www.w3.org/1999/xlink" version="1.1" x="0" y="0" height="230" width="800" viewBox="0 0 800 230" preserveAspectRatio="none"  >
<g label="Query sequence" class="clusterblast-cluster"  >
<text x="5" y="20" class="clusterblast-acc"  >
Query sequence</text>
<line x1="10" y1="35" x2="778.0" y2="35" style="stroke-width:1; stroke:grey; "  />
<polygon points="53,40 56,40 61,35 56,30 53,30 53,40 " style="fill:white; stroke-width:1; stroke:black; " description="&lt;b&gt;cds18113_18665&lt;/b&gt;&lt;br&gt;hypothetical protein&lt;br&gt;Location: 18113 - 18665" locus_tag="cds18113_18665" class="clusterblast-orf" id="dummy-1_q0_0_all"  />
<polygon points="62,40 72,40 77,35 72,30 62,30 62,40 " style="fill:white; stroke-width:1; stroke:black; " description="&lt;b&gt;cds18714_19635&lt;/b&gt;&lt;br&gt;hypothetical protein&lt;br&gt;Location: 18714 - 19635" locus_tag="cds18714_19635" class="clusterblast-orf" id="dummy-1_q1_0_all"  />
<polygon points="78,35 83,30 102,30 102,40 83,40 78,35 " style="fill:white; stroke-width:1; stroke:black; " description="&lt;b&gt;cds19700_21182&lt;/b&gt;&lt;br&gt;Spore coat protein A&lt;br&gt;Location: 19700 - 21182" locus_tag="cds19700_21182" class="clusterblast-orf" id="dummy-1_q2_0_all"  />
<polygon points="105,40 114,40 119,35 114,30 105,30 105,40 " style="fill:white; stroke-width:1; stroke:black; " description="&lt;b&gt;cds21412_22282&lt;/b&gt;&lt;br&gt;27-O-demethylrifamycin SV methyltransferase&lt;br&gt;Location: 21412 - 22282" locus_tag="cds21412_22282" class="clusterblast-orf" id="dummy-1_q3_0_all"  />
<polygon points="120,40 133,40 138,35 133,30 120,30 120,40 " style="fill:white; stroke-width:1; stroke:black; " description="&lt;b&gt;cds22348_23494&lt;/b&gt;&lt;br&gt;hypothetical protein&lt;br&gt;Location: 22348 - 23494" locus_tag="cds22348_23494" class="clusterblast-orf" id="dummy-1_q4_0_all"  />
<polygon points="139,35 144,30 162,30 162,40 144,40 139,35 " style="fill:white; stroke-width:1; stroke:black; " description="&lt;b&gt;cds23567_24962&lt;/b&gt;&lt;br&gt;Mitomycin radical oxidase&lt;br&gt;Location: 23567 - 24962" locus_tag="cds23567_24962" class="clusterblast-orf" id="dummy-1_q5_0_all"  />
<polygon points="162,35 167,30 187,30 187,40 167,40 162,35 " style="fill:white; stroke-width:1; stroke:black; " description="&lt;b&gt;cds24958_26524&lt;/b&gt;&lt;br&gt;2-methoxy-6-polyprenyl-1,4-benzoquinol methylase, mitochondrial&lt;br&gt;Location: 24958 - 26524" locus_tag="cds24958_26524" class="clusterblast-orf" id="dummy-1_q6_0_all"  />
<polygon points="190,35 195,30 195,30 195,40 195,40 190,35 " style="fill:white; stroke-width:1; stroke:black; " description="&lt;b&gt;cds26746_27082&lt;/b&gt;&lt;br&gt;hypothetical protein&lt;br&gt;Location: 26746 - 27082" locus_tag="cds26746_27082" class="clusterblast-orf" id="dummy-1_q7_0_all"  />
<polygon points="197,35 202,30 233,30 233,40 202,40 197,35 " style="fill:white; stroke-width:1; stroke:black; " description="&lt;b&gt;cds27150_29475&lt;/b&gt;&lt;br&gt;Periplasmic nitrate reductase&lt;br&gt;Location: 27150 - 29475" locus_tag="cds27150_29475" class="clusterblast-orf" id="dummy-1_q8_0_all"  />
<polygon points="235,40 244,40 249,35 244,30 235,30 235,40 " style="fill:white; stroke-width:1; stroke:black; " description="&lt;b&gt;cds29596_30424&lt;/b&gt;&lt;br&gt;Levodione reductase&lt;br&gt;Location: 29596 - 30424" locus_tag="cds29596_30424" class="clusterblast-orf" id="dummy-1_q9_0_all"  />
<polygon points="249,40 258,40 263,35 258,30 249,30 249,40 " style="fill:white; stroke-width:1; stroke:black; " description="&lt;b&gt;cds30472_31354&lt;/b&gt;&lt;br&gt;F420-dependent glucose-6-phosphate dehydrogenase&lt;br&gt;Location: 30472 - 31354" locus_tag="cds30472_31354" class="clusterblast-orf" id="dummy-1_q10_0_all"  />
<polygon points="266,35 271,30 290,30 290,40 271,40 266,35 " style="fill:white; stroke-width:1; stroke:black; " description="&lt;b&gt;cds31534_33049&lt;/b&gt;&lt;br&gt;Aclacinomycin-N/aclacinomycin-A oxidase&lt;br&gt;Location: 31534 - 33049" locus_tag="cds31534_33049" class="clusterblast-orf" id="dummy-1_q11_0_all"  />
<polygon points="293,35 298,30 316,30 316,40 298,40 293,35 " style="fill:white; stroke-width:1; stroke:black; " description="&lt;b&gt;cds33232_34657&lt;/b&gt;&lt;br&gt;sn-glycerol-3-phosphate-binding periplasmic protein UgpB&lt;br&gt;Location: 33232 - 34657" locus_tag="cds33232_34657" class="clusterblast-orf" id="dummy-1_q12_0_all"  />
<polygon points="320,40 335,40 340,35 335,30 320,30 320,40 " style="fill:white; stroke-width:1; stroke:black; " description="&lt;b&gt;cds34927_36169&lt;/b&gt;&lt;br&gt;Flavin-dependent monooxygenase, oxygenase subunit HsaA&lt;br&gt;Location: 34927 - 36169" locus_tag="cds34927_36169" class="clusterblast-orf" id="dummy-1_q13_0_all"  />
<polygon points="342,40 360,40 365,35 360,30 342,30 342,40 " style="fill:white; stroke-width:1; stroke:black; " description="&lt;b&gt;cds36277_37717&lt;/b&gt;&lt;br&gt;hypothetical protein&lt;br&gt;Location: 36277 - 37717" locus_tag="cds36277_37717" class="clusterblast-orf" id="dummy-1_q14_0_all"  />
<polygon points="365,40 405,40 410,35 405,30 365,30 365,40 " style="fill:white; stroke-width:1; stroke:black; " description="&lt;b&gt;cds37748_40562&lt;/b&gt;&lt;br&gt;Dimodular nonribosomal peptide synthase&lt;br&gt;Location: 37748 - 40562" locus_tag="cds37748_40562" class="clusterblast-orf" id="dummy-1_q15_0_all"  />
<polygon points="411,40 432,40 437,35 432,30 411,30 411,40 " style="fill:white; stroke-width:1; stroke:black; " description="&lt;b&gt;cds40635_42261&lt;/b&gt;&lt;br&gt;MIO-dependent tyrosine 2,3-aminomutase&lt;br&gt;Location: 40635 - 42261" locus_tag="cds40635_42261" class="clusterblast-orf" id="dummy-1_q16_0_all"  />
<polygon points="439,40 455,40 460,35 455,30 439,30 439,40 " style="fill:white; stroke-width:1; stroke:black; " description="&lt;b&gt;cds42368_43712&lt;/b&gt;&lt;br&gt;Linear gramicidin synthase subunit B&lt;br&gt;Location: 42368 - 43712" locus_tag="cds42368_43712" class="clusterblast-orf" id="dummy-1_q17_0_all"  />
<polygon points="461,35 466,30 486,30 486,40 466,40 461,35 " style="fill:white; stroke-width:1; stroke:black; " description="&lt;b&gt;cds43769_45353&lt;/b&gt;&lt;br&gt;4-nitrophenol 2-monooxygenase, oxygenase component&lt;br&gt;Location: 43769 - 45353" locus_tag="cds43769_45353" class="clusterblast-orf" id="dummy-1_q18_0_all"  />
<polygon points="490,40 504,40 509,35 504,30 490,30 490,40 " style="fill:white; stroke-width:1; stroke:black; " description="&lt;b&gt;cds45596_46781&lt;/b&gt;&lt;br&gt;Flavin-dependent monooxygenase, oxygenase subunit HsaA&lt;br&gt;Location: 45596 - 46781" locus_tag="cds45596_46781" class="clusterblast-orf" id="dummy-1_q19_0_all"  />
<polygon points="510,40 512,40 517,35 512,30 510,30 510,40 " style="fill:white; stroke-width:1; stroke:black; " description="&lt;b&gt;cds46844_47279&lt;/b&gt;&lt;br&gt;hypothetical protein&lt;br&gt;Location: 46844 - 47279" locus_tag="cds46844_47279" class="clusterblast-orf" id="dummy-1_q20_0_all"  />
<polygon points="518,35 523,30 538,30 538,40 523,40 518,35 " style="fill:white; stroke-width:1; stroke:black; " description="&lt;b&gt;cds47364_48612&lt;/b&gt;&lt;br&gt;2-hydroxy-5-methyl-1-naphthoate 7-hydroxylase&lt;br&gt;Location: 47364 - 48612" locus_tag="cds47364_48612" class="clusterblast-orf" id="dummy-1_q21_0_all"  />
<polygon points="539,35 544,30 553,30 553,40 544,40 539,35 " style="fill:white; stroke-width:1; stroke:black; " description="&lt;b&gt;cds48705_49569&lt;/b&gt;&lt;br&gt;hypothetical protein&lt;br&gt;Location: 48705 - 49569" locus_tag="cds48705_49569" class="clusterblast-orf" id="dummy-1_q22_0_all"  />
<polygon points="554,35 559,30 559,30 559,40 559,40 554,35 " style="fill:white; stroke-width:1; stroke:black; " description="&lt;b&gt;cds49631_49904&lt;/b&gt;&lt;br&gt;hypothetical protein&lt;br&gt;Location: 49631 - 49904" locus_tag="cds49631_49904" class="clusterblast-orf" id="dummy-1_q23_0_all"  />
<polygon points="561,35 566,30 575,30 575,40 566,40 561,35 " style="fill:#d81515; stroke-width:1; stroke:black; " description="&lt;b&gt;cds50037_50910&lt;/b&gt;&lt;br&gt;Glucose-1-phosphate thymidylyltransferase 1&lt;br&gt;Location: 50037 - 50910" locus_tag="cds50037_50910" class="clusterblast-orf" id="dummy-1_q24_0_all"  />
<polygon points="575,35 580,30 595,30 595,40 580,40 575,35 " style="fill:#4dd815; stroke-width:1; stroke:black; " description="&lt;b&gt;cds50964_52185&lt;/b&gt;&lt;br&gt;hypothetical protein&lt;br&gt;Location: 50964 - 52185" locus_tag="cds50964_52185" class="clusterblast-orf" id="dummy-1_q25_0_all"  />
<polygon points="597,35 602,30 617,30 617,40 602,40 597,35 " style="fill:#1585d8; stroke-width:1; stroke:black; " description="&lt;b&gt;cds52342_53581&lt;/b&gt;&lt;br&gt;hypothetical protein&lt;br&gt;Location: 52342 - 53581" locus_tag="cds52342_53581" class="clusterblast-orf" id="dummy-1_q26_0_all"  />
<polygon points="617,35 622,30 638,30 638,40 622,40 617,35 " style="fill:white; stroke-width:1; stroke:black; " description="&lt;b&gt;cds53600_54893&lt;/b&gt;&lt;br&gt;Aclacinomycin-T 2-deoxy-L-fucose transferase&lt;br&gt;Location: 53600 - 54893" locus_tag="cds53600_54893" class="clusterblast-orf" id="dummy-1_q27_0_all"  />
<polygon points="639,35 644,30 657,30 657,40 644,40 639,35 " style="fill:#d815bc; stroke-width:1; stroke:black; " description="&lt;b&gt;cds54963_56073&lt;/b&gt;&lt;br&gt;dTDP-3-amino-3,4,6-trideoxy-alpha-D-glucose transaminase&lt;br&gt;Location: 54963 - 56073" locus_tag="cds54963_56073" class="clusterblast-orf" id="dummy-1_q28_0_all"  />
<polygon points="660,35 665,30 682,30 682,40 665,40 660,35 " style="fill:#d8bc15; stroke-width:1; stroke:black; " description="&lt;b&gt;cds56275_57670&lt;/b&gt;&lt;br&gt;dTDP-4-dehydro-6-deoxy-alpha-D-glucopyranose 2,3-dehydratase&lt;br&gt;Location: 56275 - 57670" locus_tag="cds56275_57670" class="clusterblast-orf" id="dummy-1_q29_0_all"  />
<polygon points="687,40 698,40 703,35 698,30 687,30 687,40 " style="fill:#15d885; stroke-width:1; stroke:black; " description="&lt;b&gt;cds57984_58992&lt;/b&gt;&lt;br&gt;dTDP-glucose 4,6-dehydratase&lt;br&gt;Location: 57984 - 58992" locus_tag="cds57984_58992" class="clusterblast-orf" id="dummy-1_q30_0_all"  />
<polygon points="704,35 709,30 727,30 727,40 709,40 704,35 " style="fill:#4d15d8; stroke-width:1; stroke:black; " description="&lt;b&gt;cds59038_60466&lt;/b&gt;&lt;br&gt;UDP-N-acetyl-D-glucosamine 6-dehydrogenase&lt;br&gt;Location: 59038 - 60466" locus_tag="cds59038_60466" class="clusterblast-orf" id="dummy-1_q31_0_all"  />
</g>
<g label="FJ483966" description="FJ483966_c3: polyketomycin beta-D-amicetose / alpha-L-axenose (18% of genes show similarity), sugar" class="clusterblast-cluster"  >
<text x="5" y="70" class="clusterblast-acc"  >
FJ483966_c3: polyketomycin beta-D-amicetose / alpha-L-axenose (18% of genes show similarity), sugar</text>
<line x1="10" y1="85" x2="778.0" y2="85" style="stroke-width:1; stroke:grey; "  />
</g>
<g id="a1_000"  >
<polygon points="0,85 5,80 15,80 15,90 5,90 0,85 " style="fill:white; stroke-width:1; stroke:black; " description="&lt;b&gt;FJ483966_3_pokS9&lt;/b&gt;&lt;br&gt;PokS9&lt;br&gt;Location: 50393 - 49434" locus_tag="FJ483966_3_pokS9" class="clusterblast-orf" id="dummy-1_h1_7_0"  />
</g>
<g id="a1_001"  >
<polygon points="15,85 20,80 24,80 24,90 20,90 15,85 " style="fill:white; stroke-width:1; stroke:black; " description="&lt;b&gt;FJ483966_3_pokS7&lt;/b&gt;&lt;br&gt;PokS7&lt;br&gt;Location: 49437 - 48823" locus_tag="FJ483966_3_pokS7" class="clusterblast-orf" id="dummy-1_h1_7_1"  />
</g>
<g id="a1_002"  >
<polygon points="252,85 257,80 268,80 268,90 257,90 252,85 " style="fill:white; stroke-width:1; stroke:black; " description="&lt;b&gt;FJ483966_3_pokS2&lt;/b&gt;&lt;br&gt;PokS2&lt;br&gt;Location: 34519 - 33530" locus_tag="FJ483966_3_pokS2" class="clusterblast-orf" id="dummy-1_h1_7_2"  />
</g>
<g id="a1_003"  >
<polygon points="268,85 273,80 285,80 285,90 273,90 268,85 " style="fill:white; stroke-width:1; stroke:black; " description="&lt;b&gt;FJ483966_3_pokS1&lt;/b&gt;&lt;br&gt;PokS1&lt;br&gt;Location: 33533 - 32469" locus_tag="FJ483966_3_pokS1" class="clusterblast-orf" id="dummy-1_h1_7_3"  />
</g>
<g id="a1_004"  >
<polygon points="534,90 552,90 557,85 552,80 534,80 534,90 " style="fill:#d8bc15; stroke-width:1; stroke:black; " description="&lt;b&gt;FJ483966_3_pokS3&lt;/b&gt;&lt;br&gt;PokS3&lt;br&gt;Location: 16772 - 15342&lt;br&gt;&lt;br&gt;&lt;b&gt;BlastP hit with cds56275_57670&lt;/b&gt;&lt;br&gt;Percentage identity: 50&lt;br&gt;Percentage coverage: 100&lt;br&gt;BLAST bit score: 438&lt;br&gt;E-value: 9.62e-153" locus_tag="FJ483966_3_pokS3" class="clusterblast-orf" id="dummy-1_h1_7_4"  />
</g>
<g id="a1_005"  >
<polygon points="557,90 568,90 573,85 568,80 557,80 557,90 " style="fill:white; stroke-width:1; stroke:black; " description="&lt;b&gt;FJ483966_3_pokS4&lt;/b&gt;&lt;br&gt;PokS4&lt;br&gt;Location: 15348 - 14347" locus_tag="FJ483966_3_pokS4" class="clusterblast-orf" id="dummy-1_h1_7_5"  />
</g>
<g id="a1_006"  >
<polygon points="601,85 606,80 622,80 622,90 606,90 601,85 " style="fill:white; stroke-width:1; stroke:black; " description="&lt;b&gt;FJ483966_3_pokS5&lt;/b&gt;&lt;br&gt;PokS5&lt;br&gt;Location: 12594 - 11296" locus_tag="FJ483966_3_pokS5" class="clusterblast-orf" id="dummy-1_h1_7_6"  />
</g>
<g id="a1_007"  >
<polygon points="622,85 627,80 638,80 638,90 627,90 622,85 " style="fill:white; stroke-width:1; stroke:black; " description="&lt;b&gt;FJ483966_3_pokS6&lt;/b&gt;&lt;br&gt;PokS6&lt;br&gt;Location: 11291 - 10263" locus_tag="FJ483966_3_pokS6" class="clusterblast-orf" id="dummy-1_h1_7_7"  />
</g>
<g id="a1_008"  >
<polygon points="638,85 643,80 657,80 657,90 643,90 638,85 " style="fill:white; stroke-width:1; stroke:black; " description="&lt;b&gt;FJ483966_3_pokGT1&lt;/b&gt;&lt;br&gt;PokGT1&lt;br&gt;Location: 10266 - 9073" locus_tag="FJ483966_3_pokGT1" class="clusterblast-orf" id="dummy-1_h1_7_8"  />
</g>
<g id="a1_009"  >
<polygon points="689,90 702,90 707,85 702,80 689,80 689,90 " style="fill:white; stroke-width:1; stroke:black; " description="&lt;b&gt;FJ483966_3_pokGT2&lt;/b&gt;&lt;br&gt;PokGT2&lt;br&gt;Location: 7088 - 5940" locus_tag="FJ483966_3_pokGT2" class="clusterblast-orf" id="dummy-1_h1_7_9"  />
</g>
<g id="a1_0010"  >
<polygon points="760,85 765,80 780,80 780,90 765,90 760,85 " style="fill:#1585d8; stroke-width:1; stroke:black; " description="&lt;b&gt;FJ483966_3_pokS8&lt;/b&gt;&lt;br&gt;PokS8&lt;br&gt;Location: 2619 - 1372&lt;br&gt;&lt;br&gt;&lt;b&gt;BlastP hit with cds52342_53581&lt;/b&gt;&lt;br&gt;Percentage identity: 62&lt;br&gt;Percentage coverage: 100&lt;br&gt;BLAST bit score: 496&lt;br&gt;E-value: 3.7e-177" locus_tag="FJ483966_3_pokS8" class="clusterblast-orf" id="dummy-1_h1_7_10"  />
</g>
</svg>
