<svg xmlns="http://www.w3.org/2000/svg" xmlns:xlink="http://www.w3.org/1999/xlink" version="1.1" x="0" y="0" height="50" width="800" viewBox="0 0 800 50" preserveAspectRatio="none"  >
<g label="Query sequence" class="clusterblast-cluster"  >
<text x="5" y="20" class="clusterblast-acc"  >
Query sequence</text>
<line x1="10" y1="35" x2="778.0" y2="35" style="stroke-width:1; stroke:grey; "  />
<polygon points="0,40 85,40 90,35 85,30 0,30 0,40 " style="fill:white; stroke-width:1; stroke:black; " description="&lt;b&gt;cds52060_54325&lt;/b&gt;&lt;br&gt;Glutaryl-7-aminocephalosporanic-acid acylase&lt;br&gt;Location: 52060 - 54325" locus_tag="cds52060_54325" class="clusterblast-orf" id="subclusterblast-1_q0_0_all"  />
<polygon points="93,35 98,30 120,30 120,40 98,40 93,35 " style="fill:white; stroke-width:1; stroke:black; " description="&lt;b&gt;cds54395_55094&lt;/b&gt;&lt;br&gt;hypothetical protein&lt;br&gt;Location: 54395 - 55094" locus_tag="cds54395_55094" class="clusterblast-orf" id="subclusterblast-1_q1_0_all"  />
<polygon points="124,35 129,30 191,30 191,40 129,40 124,35 " style="fill:white; stroke-width:1; stroke:black; " description="&lt;b&gt;cds55180_56872&lt;/b&gt;&lt;br&gt;Tryptophan 2-monooxygenase&lt;br&gt;Location: 55180 - 56872" locus_tag="cds55180_56872" class="clusterblast-orf" id="subclusterblast-1_q2_0_all"  />
<polygon points="193,35 198,30 224,30 224,40 198,40 193,35 " style="fill:white; stroke-width:1; stroke:black; " description="&lt;b&gt;cds56918_57716&lt;/b&gt;&lt;br&gt;(R)-stereoselective amidase&lt;br&gt;Location: 56918 - 57716" locus_tag="cds56918_57716" class="clusterblast-orf" id="subclusterblast-1_q3_0_all"  />
<polygon points="233,35 238,30 251,30 251,40 238,40 233,35 " style="fill:white; stroke-width:1; stroke:black; " description="&lt;b&gt;cds57926_58385&lt;/b&gt;&lt;br&gt;Regulatory protein AsnC&lt;br&gt;Location: 57926 - 58385" locus_tag="cds57926_58385" class="clusterblast-orf" id="subclusterblast-1_q4_0_all"  />
<polygon points="255,35 260,30 313,30 313,40 260,40 255,35 " style="fill:white; stroke-width:1; stroke:black; " description="&lt;b&gt;cds58486_59947&lt;/b&gt;&lt;br&gt;Benzaldehyde dehydrogenase YfmT&lt;br&gt;Location: 58486 - 59947" locus_tag="cds58486_59947" class="clusterblast-orf" id="subclusterblast-1_q5_0_all"  />
<polygon points="321,35 326,30 384,30 384,40 326,40 321,35 " style="fill:white; stroke-width:1; stroke:black; " description="&lt;b&gt;cds60142_61738&lt;/b&gt;&lt;br&gt;putative oxidoreductase&lt;br&gt;Location: 60142 - 61738" locus_tag="cds60142_61738" class="clusterblast-orf" id="subclusterblast-1_q6_0_all"  />
<polygon points="390,40 427,40 432,35 427,30 390,30 390,40 " style="fill:white; stroke-width:1; stroke:black; " description="&lt;b&gt;cds61903_62956&lt;/b&gt;&lt;br&gt;Germacrene A synthase&lt;br&gt;Location: 61903 - 62956" locus_tag="cds61903_62956" class="clusterblast-orf" id="subclusterblast-1_q7_0_all"  />
<polygon points="435,35 440,30 475,30 475,40 440,40 435,35 " style="fill:white; stroke-width:1; stroke:black; " description="&lt;b&gt;cds63013_64036&lt;/b&gt;&lt;br&gt;Sorbitol operon regulator&lt;br&gt;Location: 63013 - 64036" locus_tag="cds63013_64036" class="clusterblast-orf" id="subclusterblast-1_q8_0_all"  />
<polygon points="479,35 484,30 506,30 506,40 484,40 479,35 " style="fill:white; stroke-width:1; stroke:black; " description="&lt;b&gt;cds64138_64822&lt;/b&gt;&lt;br&gt;Ribulose-phosphate 3-epimerase&lt;br&gt;Location: 64138 - 64822" locus_tag="cds64138_64822" class="clusterblast-orf" id="subclusterblast-1_q9_0_all"  />
<polygon points="513,35 518,30 570,30 570,40 518,40 513,35 " style="fill:white; stroke-width:1; stroke:black; " description="&lt;b&gt;cds64989_66423&lt;/b&gt;&lt;br&gt;Putative methyltransferase&lt;br&gt;Location: 64989 - 66423" locus_tag="cds64989_66423" class="clusterblast-orf" id="subclusterblast-1_q10_0_all"  />
<polygon points="573,35 578,30 610,30 610,40 578,40 573,35 " style="fill:white; stroke-width:1; stroke:black; " description="&lt;b&gt;cds66502_67435&lt;/b&gt;&lt;br&gt;Methionyl-tRNA formyltransferase&lt;br&gt;Location: 66502 - 67435" locus_tag="cds66502_67435" class="clusterblast-orf" id="subclusterblast-1_q11_0_all"  />
<polygon points="620,40 636,40 641,35 636,30 620,30 620,40 " style="fill:white; stroke-width:1; stroke:black; " description="&lt;b&gt;cds67695_68208&lt;/b&gt;&lt;br&gt;hypothetical protein&lt;br&gt;Location: 67695 - 68208" locus_tag="cds67695_68208" class="clusterblast-orf" id="subclusterblast-1_q12_0_all"  />
<polygon points="642,35 647,30 727,30 727,40 647,40 642,35 " style="fill:white; stroke-width:1; stroke:black; " description="&lt;b&gt;cds68246_70391&lt;/b&gt;&lt;br&gt;putative primosomal protein N'&lt;br&gt;Location: 68246 - 70391" locus_tag="cds68246_70391" class="clusterblast-orf" id="subclusterblast-1_q13_0_all"  />
<polygon points="732,35 737,30 780,30 780,40 737,40 732,35 " style="fill:white; stroke-width:1; stroke:black; " description="&lt;b&gt;cds70508_71717&lt;/b&gt;&lt;br&gt;S-adenosylmethionine synthase&lt;br&gt;Location: 70508 - 71717" locus_tag="cds70508_71717" class="clusterblast-orf" id="subclusterblast-1_q14_0_all"  />
</g>
</svg>
