<svg xmlns="http://www.w3.org/2000/svg" xmlns:xlink="http://www.w3.org/1999/xlink" version="1.1" x="0" y="0" height="230" width="800" viewBox="0 0 800 230" preserveAspectRatio="none"  >
<g label="Query sequence" class="clusterblast-cluster"  >
<text x="5" y="20" class="clusterblast-acc"  >
Query sequence</text>
<line x1="10" y1="35" x2="778.0" y2="35" style="stroke-width:1; stroke:grey; "  />
<polygon points="0,40 22,40 27,35 22,30 0,30 0,40 " style="fill:white; stroke-width:1; stroke:black; " description="&lt;b&gt;cds188_1109&lt;/b&gt;&lt;br&gt;hypothetical protein&lt;br&gt;Location: 188 - 1109" locus_tag="cds188_1109" class="clusterblast-orf" id="dummy-1_q0_0_all"  />
<polygon points="23,35 28,30 39,30 39,40 28,40 23,35 " style="fill:#d81515; stroke-width:1; stroke:black; " description="&lt;b&gt;cds970_1519&lt;/b&gt;&lt;br&gt;FMN reductase (NADH) NtaB&lt;br&gt;Location: 970 - 1519" locus_tag="cds970_1519" class="clusterblast-orf" id="dummy-1_q1_0_all"  />
<polygon points="39,35 44,30 53,30 53,40 44,40 39,35 " style="fill:#77d815; stroke-width:1; stroke:black; " description="&lt;b&gt;cds1515_1989&lt;/b&gt;&lt;br&gt;hypothetical protein&lt;br&gt;Location: 1515 - 1989" locus_tag="cds1515_1989" class="clusterblast-orf" id="dummy-1_q2_0_all"  />
<polygon points="53,35 58,30 224,30 224,40 58,40 53,35 " style="fill:#15d8d8; stroke-width:1; stroke:black; " description="&lt;b&gt;cds1985_7793&lt;/b&gt;&lt;br&gt;hypothetical protein&lt;br&gt;Location: 1985 - 7793" locus_tag="cds1985_7793" class="clusterblast-orf" id="dummy-1_q3_0_all"  />
<polygon points="224,35 229,30 256,30 256,40 229,40 224,35 " style="fill:#7715d8; stroke-width:1; stroke:black; " description="&lt;b&gt;cds7789_8875&lt;/b&gt;&lt;br&gt;hypothetical protein&lt;br&gt;Location: 7789 - 8875" locus_tag="cds7789_8875" class="clusterblast-orf" id="dummy-1_q4_0_all"  />
<polygon points="256,35 261,30 313,30 313,40 261,40 256,35 " style="fill:#d8a715; stroke-width:1; stroke:black; " description="&lt;b&gt;cds8876_10805&lt;/b&gt;&lt;br&gt;hypothetical protein&lt;br&gt;Location: 8876 - 10805" locus_tag="cds8876_10805" class="clusterblast-orf" id="dummy-1_q5_0_all"  />
<polygon points="313,35 318,30 342,30 342,40 318,40 313,35 " style="fill:#15d846; stroke-width:1; stroke:black; " description="&lt;b&gt;cds10801_11788&lt;/b&gt;&lt;br&gt;hypothetical protein&lt;br&gt;Location: 10801 - 11788" locus_tag="cds10801_11788" class="clusterblast-orf" id="dummy-1_q6_0_all"  />
<polygon points="345,35 350,30 373,30 373,40 350,40 345,35 " style="fill:#1546d8; stroke-width:1; stroke:black; " description="&lt;b&gt;cds11883_12864&lt;/b&gt;&lt;br&gt;hypothetical protein&lt;br&gt;Location: 11883 - 12864" locus_tag="cds11883_12864" class="clusterblast-orf" id="dummy-1_q7_0_all"  />
<polygon points="378,35 383,30 391,30 391,40 383,40 378,35 " style="fill:#d815a7; stroke-width:1; stroke:black; " description="&lt;b&gt;cds13002_13446&lt;/b&gt;&lt;br&gt;putative HTH-type transcriptional regulator&lt;br&gt;Location: 13002 - 13446" locus_tag="cds13002_13446" class="clusterblast-orf" id="dummy-1_q8_0_all"  />
<polygon points="395,40 406,40 411,35 406,30 395,30 395,40 " style="fill:white; stroke-width:1; stroke:black; " description="&lt;b&gt;cds13584_14148&lt;/b&gt;&lt;br&gt;hypothetical protein&lt;br&gt;Location: 13584 - 14148" locus_tag="cds13584_14148" class="clusterblast-orf" id="dummy-1_q9_0_all"  />
<polygon points="412,40 421,40 426,35 421,30 412,30 412,40 " style="fill:white; stroke-width:1; stroke:black; " description="&lt;b&gt;cds14158_14632&lt;/b&gt;&lt;br&gt;hypothetical protein&lt;br&gt;Location: 14158 - 14632" locus_tag="cds14158_14632" class="clusterblast-orf" id="dummy-1_q10_0_all"  />
<polygon points="434,35 439,30 470,30 470,40 439,40 434,35 " style="fill:white; stroke-width:1; stroke:black; " description="&lt;b&gt;cds14902_16138&lt;/b&gt;&lt;br&gt;IS701 family transposase ISSav4&lt;br&gt;Location: 14902 - 16138" locus_tag="cds14902_16138" class="clusterblast-orf" id="dummy-1_q11_0_all"  />
<polygon points="479,40 492,40 497,35 492,30 479,30 479,40 " style="fill:white; stroke-width:1; stroke:black; " description="&lt;b&gt;cds16456_17056&lt;/b&gt;&lt;br&gt;A-factor receptor protein&lt;br&gt;Location: 16456 - 17056" locus_tag="cds16456_17056" class="clusterblast-orf" id="dummy-1_q12_0_all"  />
<polygon points="501,35 506,30 523,30 523,40 506,40 501,35 " style="fill:white; stroke-width:1; stroke:black; " description="&lt;b&gt;cds17181_17952&lt;/b&gt;&lt;br&gt;A-factor type gamma-butyrolactone 1'-reductase (1S-forming)&lt;br&gt;Location: 17181 - 17952" locus_tag="cds17181_17952" class="clusterblast-orf" id="dummy-1_q13_0_all"  />
<polygon points="528,35 533,30 547,30 547,40 533,40 528,35 " style="fill:white; stroke-width:1; stroke:black; " description="&lt;b&gt;cds18115_18766&lt;/b&gt;&lt;br&gt;A-factor receptor protein&lt;br&gt;Location: 18115 - 18766" locus_tag="cds18115_18766" class="clusterblast-orf" id="dummy-1_q14_0_all"  />
<polygon points="551,40 573,40 578,35 573,30 551,30 551,40 " style="fill:white; stroke-width:1; stroke:black; " description="&lt;b&gt;cds18885_19803&lt;/b&gt;&lt;br&gt;hypothetical protein&lt;br&gt;Location: 18885 - 19803" locus_tag="cds18885_19803" class="clusterblast-orf" id="dummy-1_q15_0_all"  />
<polygon points="588,40 626,40 631,35 626,30 588,30 588,40 " style="fill:white; stroke-width:1; stroke:black; " description="&lt;b&gt;cds20145_21585&lt;/b&gt;&lt;br&gt;hypothetical protein&lt;br&gt;Location: 20145 - 21585" locus_tag="cds20145_21585" class="clusterblast-orf" id="dummy-1_q16_0_all"  />
<polygon points="637,35 642,30 650,30 650,40 642,40 637,35 " style="fill:white; stroke-width:1; stroke:black; " description="&lt;b&gt;cds21807_22245&lt;/b&gt;&lt;br&gt;hypothetical protein&lt;br&gt;Location: 21807 - 22245" locus_tag="cds21807_22245" class="clusterblast-orf" id="dummy-1_q17_0_all"  />
<polygon points="653,35 658,30 679,30 679,40 658,40 653,35 " style="fill:white; stroke-width:1; stroke:black; " description="&lt;b&gt;cds22347_23226&lt;/b&gt;&lt;br&gt;hypothetical protein&lt;br&gt;Location: 22347 - 23226" locus_tag="cds22347_23226" class="clusterblast-orf" id="dummy-1_q18_0_all"  />
<polygon points="690,35 695,30 702,30 702,40 695,40 690,35 " style="fill:white; stroke-width:1; stroke:black; " description="&lt;b&gt;cds23601_24003&lt;/b&gt;&lt;br&gt;hypothetical protein&lt;br&gt;Location: 23601 - 24003" locus_tag="cds23601_24003" class="clusterblast-orf" id="dummy-1_q19_0_all"  />
<polygon points="702,35 707,30 747,30 747,40 707,40 702,35 " style="fill:white; stroke-width:1; stroke:black; " description="&lt;b&gt;cds23999_25532&lt;/b&gt;&lt;br&gt;hypothetical protein&lt;br&gt;Location: 23999 - 25532" locus_tag="cds23999_25532" class="clusterblast-orf" id="dummy-1_q20_0_all"  />
<polygon points="747,35 752,30 780,30 780,40 752,40 747,35 " style="fill:white; stroke-width:1; stroke:black; " description="&lt;b&gt;cds25521_26649&lt;/b&gt;&lt;br&gt;hypothetical protein&lt;br&gt;Location: 25521 - 26649" locus_tag="cds25521_26649" class="clusterblast-orf" id="dummy-1_q21_0_all"  />
</g>
<g label="AY271660" description="AY271660_c2: maduropeptin enediyne (58% of genes show similarity), enediyne" class="clusterblast-cluster"  >
<text x="5" y="70" class="clusterblast-acc"  >
AY271660_c2: maduropeptin enediyne (58% of genes show similarity), enediyne</text>
<line x1="10" y1="85" x2="778.0" y2="85" style="stroke-width:1; stroke:grey; "  />
</g>
<g id="a1_000"  >
<polygon points="90,85 95,80 114,80 114,90 95,90 90,85 " style="fill:white; stroke-width:1; stroke:black; " description="&lt;b&gt;AY271660_2_mdpE11&lt;/b&gt;&lt;br&gt;unknown&lt;br&gt;Location: 54864 - 55667" locus_tag="AY271660_2_mdpE11" class="clusterblast-orf" id="dummy-1_h1_2_0"  />
</g>
<g id="a1_001"  >
<polygon points="116,85 121,80 148,80 148,90 121,90 116,85 " style="fill:white; stroke-width:1; stroke:black; " description="&lt;b&gt;AY271660_2_mdpM&lt;/b&gt;&lt;br&gt;unknown&lt;br&gt;Location: 55742 - 56839" locus_tag="AY271660_2_mdpM" class="clusterblast-orf" id="dummy-1_h1_2_1"  />
</g>
<g id="a1_002"  >
<polygon points="149,85 154,80 198,80 198,90 154,90 149,85 " style="fill:white; stroke-width:1; stroke:black; " description="&lt;b&gt;AY271660_2_mdpE8&lt;/b&gt;&lt;br&gt;oxidoreductase&lt;br&gt;Location: 56853 - 58511" locus_tag="AY271660_2_mdpE8" class="clusterblast-orf" id="dummy-1_h1_2_2"  />
</g>
<g id="a1_003"  >
<polygon points="198,85 203,80 214,80 214,90 203,90 198,85 " style="fill:white; stroke-width:1; stroke:black; " description="&lt;b&gt;AY271660_2_mdpE9&lt;/b&gt;&lt;br&gt;unknown&lt;br&gt;Location: 58508 - 59077" locus_tag="AY271660_2_mdpE9" class="clusterblast-orf" id="dummy-1_h1_2_3"  />
</g>
<g id="a1_004"  >
<polygon points="291,85 296,80 332,80 332,90 296,90 291,85 " style="fill:white; stroke-width:1; stroke:black; " description="&lt;b&gt;AY271660_2_mdpE7&lt;/b&gt;&lt;br&gt;putative P450 hydroxylase&lt;br&gt;Location: 61675 - 63069" locus_tag="AY271660_2_mdpE7" class="clusterblast-orf" id="dummy-1_h1_2_4"  />
</g>
<g id="a1_005"  >
<polygon points="332,85 337,80 348,80 348,90 337,90 332,85 " style="fill:#d81515; stroke-width:1; stroke:black; " description="&lt;b&gt;AY271660_2_mdpE6&lt;/b&gt;&lt;br&gt;flavin reductase&lt;br&gt;Location: 63066 - 63617&lt;br&gt;&lt;br&gt;&lt;b&gt;BlastP hit with cds970_1519&lt;/b&gt;&lt;br&gt;Percentage identity: 56&lt;br&gt;Percentage coverage: 97&lt;br&gt;BLAST bit score: 161&lt;br&gt;E-value: 2.18e-52" locus_tag="AY271660_2_mdpE6" class="clusterblast-orf" id="dummy-1_h1_2_5"  />
</g>
<g id="a1_006"  >
<polygon points="348,85 353,80 362,80 362,90 353,90 348,85 " style="fill:#77d815; stroke-width:1; stroke:black; " description="&lt;b&gt;AY271660_2_mdpE10&lt;/b&gt;&lt;br&gt;type II thioesterase&lt;br&gt;Location: 63614 - 64072&lt;br&gt;&lt;br&gt;&lt;b&gt;BlastP hit with cds1515_1989&lt;/b&gt;&lt;br&gt;Percentage identity: 48&lt;br&gt;Percentage coverage: 95&lt;br&gt;BLAST bit score: 135&lt;br&gt;E-value: 3.42e-43" locus_tag="AY271660_2_mdpE10" class="clusterblast-orf" id="dummy-1_h1_2_6"  />
</g>
<g id="a1_007"  >
<polygon points="362,85 367,80 534,80 534,90 367,90 362,85 " style="fill:#15d8d8; stroke-width:1; stroke:black; " description="&lt;b&gt;AY271660_2_mdpE&lt;/b&gt;&lt;br&gt;enediyne polyketide synthase&lt;br&gt;Location: 64077 - 69911&lt;br&gt;&lt;br&gt;&lt;b&gt;BlastP hit with cds1985_7793&lt;/b&gt;&lt;br&gt;Percentage identity: 67&lt;br&gt;Percentage coverage: 101&lt;br&gt;BLAST bit score: 2320&lt;br&gt;E-value: 0.0" locus_tag="AY271660_2_mdpE" class="clusterblast-orf" id="dummy-1_h1_2_7"  />
</g>
<g id="a1_008"  >
<polygon points="534,85 539,80 563,80 563,90 539,90 534,85 " style="fill:#7715d8; stroke-width:1; stroke:black; " description="&lt;b&gt;AY271660_2_mdpE5&lt;/b&gt;&lt;br&gt;unknown&lt;br&gt;Location: 69908 - 70900&lt;br&gt;&lt;br&gt;&lt;b&gt;BlastP hit with cds7789_8875&lt;/b&gt;&lt;br&gt;Percentage identity: 72&lt;br&gt;Percentage coverage: 83&lt;br&gt;BLAST bit score: 445&lt;br&gt;E-value: 2.72e-159" locus_tag="AY271660_2_mdpE5" class="clusterblast-orf" id="dummy-1_h1_2_8"  />
</g>
<g id="a1_009"  >
<polygon points="563,85 568,80 623,80 623,90 568,90 563,85 " style="fill:#d8a715; stroke-width:1; stroke:black; " description="&lt;b&gt;AY271660_2_mdpE4&lt;/b&gt;&lt;br&gt;unknown&lt;br&gt;Location: 70907 - 72943&lt;br&gt;&lt;br&gt;&lt;b&gt;BlastP hit with cds8876_10805&lt;/b&gt;&lt;br&gt;Percentage identity: 59&lt;br&gt;Percentage coverage: 104&lt;br&gt;BLAST bit score: 755&lt;br&gt;E-value: 0.0" locus_tag="AY271660_2_mdpE4" class="clusterblast-orf" id="dummy-1_h1_2_9"  />
</g>
<g id="a1_0010"  >
<polygon points="623,85 628,80 650,80 650,90 628,90 623,85 " style="fill:#15d846; stroke-width:1; stroke:black; " description="&lt;b&gt;AY271660_2_mdpE3&lt;/b&gt;&lt;br&gt;hypothetical protein&lt;br&gt;Location: 72947 - 73849&lt;br&gt;&lt;br&gt;&lt;b&gt;BlastP hit with cds10801_11788&lt;/b&gt;&lt;br&gt;Percentage identity: 53&lt;br&gt;Percentage coverage: 91&lt;br&gt;BLAST bit score: 274&lt;br&gt;E-value: 6.97e-93" locus_tag="AY271660_2_mdpE3" class="clusterblast-orf" id="dummy-1_h1_2_10"  />
</g>
<g id="a1_0011"  >
<polygon points="659,85 664,80 689,80 689,90 664,90 659,85 " style="fill:#1546d8; stroke-width:1; stroke:black; " description="&lt;b&gt;AY271660_2_mdpE2&lt;/b&gt;&lt;br&gt;unknown&lt;br&gt;Location: 74178 - 75173&lt;br&gt;&lt;br&gt;&lt;b&gt;BlastP hit with cds11883_12864&lt;/b&gt;&lt;br&gt;Percentage identity: 61&lt;br&gt;Percentage coverage: 99&lt;br&gt;BLAST bit score: 327&lt;br&gt;E-value: 3.72e-113" locus_tag="AY271660_2_mdpE2" class="clusterblast-orf" id="dummy-1_h1_2_11"  />
</g>
</svg>
