<svg xmlns="http://www.w3.org/2000/svg" xmlns:xlink="http://www.w3.org/1999/xlink" version="1.1" x="0" y="0" height="50" width="800" viewBox="0 0 800 50" preserveAspectRatio="none"  >
<g label="Query sequence" class="clusterblast-cluster"  >
<text x="5" y="20" class="clusterblast-acc"  >
Query sequence</text>
<line x1="10" y1="35" x2="778.0" y2="35" style="stroke-width:1; stroke:grey; "  />
<polygon points="0,40 69,40 74,35 69,30 0,30 0,40 " style="fill:white; stroke-width:1; stroke:black; " description="&lt;b&gt;cds172_3241&lt;/b&gt;&lt;br&gt;Regulatory protein AfsR&lt;br&gt;Location: 172 - 3241" locus_tag="cds172_3241" class="clusterblast-orf" id="subclusterblast-1_q0_0_all"  />
<polygon points="75,35 79,30 79,40 75,35 " style="fill:white; stroke-width:1; stroke:black; " description="&lt;b&gt;cds3274_3463&lt;/b&gt;&lt;br&gt;hypothetical protein&lt;br&gt;Location: 3274 - 3463" locus_tag="cds3274_3463" class="clusterblast-orf" id="subclusterblast-1_q1_0_all"  />
<polygon points="82,35 87,30 97,30 97,40 87,40 82,35 " style="fill:white; stroke-width:1; stroke:black; " description="&lt;b&gt;cds3561_4200&lt;/b&gt;&lt;br&gt;hypothetical protein&lt;br&gt;Location: 3561 - 4200" locus_tag="cds3561_4200" class="clusterblast-orf" id="subclusterblast-1_q2_0_all"  />
<polygon points="97,35 102,30 128,30 128,40 102,40 97,35 " style="fill:white; stroke-width:1; stroke:black; " description="&lt;b&gt;cds4199_5465&lt;/b&gt;&lt;br&gt;N-acetylcysteine deacetylase&lt;br&gt;Location: 4199 - 5465" locus_tag="cds4199_5465" class="clusterblast-orf" id="subclusterblast-1_q3_0_all"  />
<polygon points="128,35 133,30 159,30 159,40 133,40 128,35 " style="fill:white; stroke-width:1; stroke:black; " description="&lt;b&gt;cds5461_6736&lt;/b&gt;&lt;br&gt;2-aminoadipate transaminase&lt;br&gt;Location: 5461 - 6736" locus_tag="cds5461_6736" class="clusterblast-orf" id="subclusterblast-1_q4_0_all"  />
<polygon points="161,35 166,30 191,30 191,40 166,40 161,35 " style="fill:white; stroke-width:1; stroke:black; " description="&lt;b&gt;cds6807_8067&lt;/b&gt;&lt;br&gt;hypothetical protein&lt;br&gt;Location: 6807 - 8067" locus_tag="cds6807_8067" class="clusterblast-orf" id="subclusterblast-1_q5_0_all"  />
<polygon points="191,35 196,30 215,30 215,40 196,40 191,35 " style="fill:white; stroke-width:1; stroke:black; " description="&lt;b&gt;cds8063_9062&lt;/b&gt;&lt;br&gt;Putative NADP-dependent oxidoreductase YfmJ&lt;br&gt;Location: 8063 - 9062" locus_tag="cds8063_9062" class="clusterblast-orf" id="subclusterblast-1_q6_0_all"  />
<polygon points="217,35 222,30 264,30 264,40 222,40 217,35 " style="fill:white; stroke-width:1; stroke:black; " description="&lt;b&gt;cds9121_11056&lt;/b&gt;&lt;br&gt;hypothetical protein&lt;br&gt;Location: 9121 - 11056" locus_tag="cds9121_11056" class="clusterblast-orf" id="subclusterblast-1_q7_0_all"  />
<polygon points="263,35 268,30 293,30 293,40 268,40 263,35 " style="fill:white; stroke-width:1; stroke:black; " description="&lt;b&gt;cds11052_12261&lt;/b&gt;&lt;br&gt;hypothetical protein&lt;br&gt;Location: 11052 - 12261" locus_tag="cds11052_12261" class="clusterblast-orf" id="subclusterblast-1_q8_0_all"  />
<polygon points="293,35 298,30 316,30 316,40 298,40 293,35 " style="fill:white; stroke-width:1; stroke:black; " description="&lt;b&gt;cds12257_13217&lt;/b&gt;&lt;br&gt;hypothetical protein&lt;br&gt;Location: 12257 - 13217" locus_tag="cds12257_13217" class="clusterblast-orf" id="subclusterblast-1_q9_0_all"  />
<polygon points="316,35 321,30 337,30 337,40 321,40 316,35 " style="fill:white; stroke-width:1; stroke:black; " description="&lt;b&gt;cds13204_14098&lt;/b&gt;&lt;br&gt;Alpha-ketoglutarate-dependent taurine dioxygenase&lt;br&gt;Location: 13204 - 14098" locus_tag="cds13204_14098" class="clusterblast-orf" id="subclusterblast-1_q10_0_all"  />
<polygon points="339,35 344,30 369,30 369,40 344,40 339,35 " style="fill:white; stroke-width:1; stroke:black; " description="&lt;b&gt;cds14171_15392&lt;/b&gt;&lt;br&gt;5-aminolevulinate synthase&lt;br&gt;Location: 14171 - 15392" locus_tag="cds14171_15392" class="clusterblast-orf" id="subclusterblast-1_q11_0_all"  />
<polygon points="372,35 377,30 382,30 382,40 377,40 372,35 " style="fill:white; stroke-width:1; stroke:black; " description="&lt;b&gt;cds15523_15925&lt;/b&gt;&lt;br&gt;hypothetical protein&lt;br&gt;Location: 15523 - 15925" locus_tag="cds15523_15925" class="clusterblast-orf" id="subclusterblast-1_q12_0_all"  />
<polygon points="385,40 389,40 394,35 389,30 385,30 385,40 " style="fill:white; stroke-width:1; stroke:black; " description="&lt;b&gt;cds16052_16460&lt;/b&gt;&lt;br&gt;hypothetical protein&lt;br&gt;Location: 16052 - 16460" locus_tag="cds16052_16460" class="clusterblast-orf" id="subclusterblast-1_q13_0_all"  />
<polygon points="394,35 399,30 412,30 412,40 399,40 394,35 " style="fill:white; stroke-width:1; stroke:black; " description="&lt;b&gt;cds16449_17196&lt;/b&gt;&lt;br&gt;Trans-aconitate 2-methyltransferase&lt;br&gt;Location: 16449 - 17196" locus_tag="cds16449_17196" class="clusterblast-orf" id="subclusterblast-1_q14_0_all"  />
<polygon points="418,35 423,30 451,30 451,40 423,40 418,35 " style="fill:white; stroke-width:1; stroke:black; " description="&lt;b&gt;cds17442_18804&lt;/b&gt;&lt;br&gt;hypothetical protein&lt;br&gt;Location: 17442 - 18804" locus_tag="cds17442_18804" class="clusterblast-orf" id="subclusterblast-1_q15_0_all"  />
<polygon points="456,40 506,40 511,35 506,30 456,30 456,40 " style="fill:white; stroke-width:1; stroke:black; " description="&lt;b&gt;cds19013_21278&lt;/b&gt;&lt;br&gt;ATP-dependent RecD-like DNA helicase&lt;br&gt;Location: 19013 - 21278" locus_tag="cds19013_21278" class="clusterblast-orf" id="subclusterblast-1_q16_0_all"  />
<polygon points="516,40 542,40 547,35 542,30 516,30 516,40 " style="fill:white; stroke-width:1; stroke:black; " description="&lt;b&gt;cds21475_22774&lt;/b&gt;&lt;br&gt;Citrate synthase 1&lt;br&gt;Location: 21475 - 22774" locus_tag="cds21475_22774" class="clusterblast-orf" id="subclusterblast-1_q17_0_all"  />
<polygon points="552,40 635,40 640,35 635,30 552,30 552,40 " style="fill:white; stroke-width:1; stroke:black; " description="&lt;b&gt;cds22968_26583&lt;/b&gt;&lt;br&gt;hypothetical protein&lt;br&gt;Location: 22968 - 26583" locus_tag="cds22968_26583" class="clusterblast-orf" id="subclusterblast-1_q18_0_all"  />
<polygon points="657,35 662,30 664,30 664,40 662,40 657,35 " style="fill:white; stroke-width:1; stroke:black; " description="&lt;b&gt;cds27288_27594&lt;/b&gt;&lt;br&gt;hypothetical protein&lt;br&gt;Location: 27288 - 27594" locus_tag="cds27288_27594" class="clusterblast-orf" id="subclusterblast-1_q19_0_all"  />
<polygon points="670,40 690,40 695,35 690,30 670,30 670,40 " style="fill:white; stroke-width:1; stroke:black; " description="&lt;b&gt;cds27818_28868&lt;/b&gt;&lt;br&gt;Alcohol dehydrogenase&lt;br&gt;Location: 27818 - 28868" locus_tag="cds27818_28868" class="clusterblast-orf" id="subclusterblast-1_q20_0_all"  />
<polygon points="696,35 700,30 700,40 696,35 " style="fill:white; stroke-width:1; stroke:black; " description="&lt;b&gt;cds28887_29079&lt;/b&gt;&lt;br&gt;hypothetical protein&lt;br&gt;Location: 28887 - 29079" locus_tag="cds28887_29079" class="clusterblast-orf" id="subclusterblast-1_q21_0_all"  />
<polygon points="704,35 709,30 727,30 727,40 709,40 704,35 " style="fill:white; stroke-width:1; stroke:black; " description="&lt;b&gt;cds29248_30175&lt;/b&gt;&lt;br&gt;Inosose dehydratase&lt;br&gt;Location: 29248 - 30175" locus_tag="cds29248_30175" class="clusterblast-orf" id="subclusterblast-1_q22_0_all"  />
<polygon points="731,40 753,40 758,35 753,30 731,30 731,40 " style="fill:white; stroke-width:1; stroke:black; " description="&lt;b&gt;cds30343_31471&lt;/b&gt;&lt;br&gt;5-dehydro-2-deoxygluconokinase&lt;br&gt;Location: 30343 - 31471" locus_tag="cds30343_31471" class="clusterblast-orf" id="subclusterblast-1_q23_0_all"  />
<polygon points="758,40 775,40 780,35 775,30 758,30 758,40 " style="fill:white; stroke-width:1; stroke:black; " description="&lt;b&gt;cds31467_32358&lt;/b&gt;&lt;br&gt;hypothetical protein&lt;br&gt;Location: 31467 - 32358" locus_tag="cds31467_32358" class="clusterblast-orf" id="subclusterblast-1_q24_0_all"  />
</g>
</svg>
